<svg xmlns="http://www.w3.org/2000/svg" xmlns:xlink="http://www.w3.org/1999/xlink" width="380.852" height="276.008" viewBox="0 0 380.852 276.008">
  <defs>
    <clipPath id="clip-path">
      <rect id="Rectángulo_462340" data-name="Rectángulo 462340" width="380.852" height="276.008" fill="none"/>
    </clipPath>
    <clipPath id="clip-path-3">
      <path id="Trazado_1016331" data-name="Trazado 1016331" d="M151.762,118.978l-4.586,12.545H477.8l-4.586-12.545Z" transform="translate(-147.176 -118.978)" fill="none"/>
    </clipPath>
    <linearGradient id="linear-gradient" x1="-0.08" y1="20.304" x2="-0.079" y2="20.304" gradientUnits="objectBoundingBox">
      <stop offset="0" stop-color="#d1d3d4"/>
      <stop offset="1" stop-color="#e6e7e8"/>
    </linearGradient>
    <clipPath id="clip-path-4">
      <path id="Trazado_1016332" data-name="Trazado 1016332" d="M150.632,218.716h316.19V430.824H150.632ZM142.6,438.967H474.859V210.573H142.6Z" transform="translate(-142.595 -210.573)" fill="none"/>
    </clipPath>
    <linearGradient id="linear-gradient-2" x1="-0.077" y1="1.043" x2="-0.076" y2="1.043" xlink:href="#linear-gradient"/>
    <clipPath id="clip-path-6">
      <path id="Rectángulo_462321" data-name="Rectángulo 462321" d="M.816,0h8.82a.816.816,0,0,1,.816.816V9.773a.817.817,0,0,1-.817.817H.818A.818.818,0,0,1,0,9.772V.816A.816.816,0,0,1,.816,0Z" fill="none"/>
    </clipPath>
    <linearGradient id="linear-gradient-3" x1="-15.773" y1="18.139" x2="-15.756" y2="18.139" gradientUnits="objectBoundingBox">
      <stop offset="0" stop-color="#f90"/>
      <stop offset="0.393" stop-color="#ffb000"/>
      <stop offset="1" stop-color="#ffd000"/>
    </linearGradient>
    <clipPath id="clip-path-8">
      <rect id="Rectángulo_462337" data-name="Rectángulo 462337" width="16.836" height="54.663" fill="none"/>
    </clipPath>
  </defs>
  <g id="Grupo_1195822" data-name="Grupo 1195822" transform="translate(-249.711 -8364.801)">
    <g id="Grupo_1195588" data-name="Grupo 1195588" transform="translate(249.711 8364.801)">
      <g id="Grupo_1195587" data-name="Grupo 1195587" clip-path="url(#clip-path)">
        <rect id="Rectángulo_462309" data-name="Rectángulo 462309" width="380.852" height="10.656" transform="translate(0 265.352)" fill="#e1effc"/>
        <g id="Grupo_1195573" data-name="Grupo 1195573" transform="translate(0 0)">
          <g id="Grupo_1195572" data-name="Grupo 1195572" clip-path="url(#clip-path)">
            <path id="Trazado_1016330" data-name="Trazado 1016330" d="M951.022,25.325a2.631,2.631,0,0,0,1.9-.811L970.241,6.542l17.318,17.972a2.632,2.632,0,0,0,3.756.046,2.716,2.716,0,0,0,.045-3.805L972.141.809a2.632,2.632,0,0,0-3.8,0L949.122,20.754a2.716,2.716,0,0,0,.045,3.805,2.631,2.631,0,0,0,1.855.766" transform="translate(-778.58 0.002)" fill="#bcbec0"/>
          </g>
        </g>
        <g id="Grupo_1195575" data-name="Grupo 1195575" transform="translate(26.349 21.301)">
          <g id="Grupo_1195574" data-name="Grupo 1195574" clip-path="url(#clip-path-3)">
            <rect id="Rectángulo_462311" data-name="Rectángulo 462311" width="330.624" height="12.545" transform="translate(0 0)" fill="url(#linear-gradient)"/>
          </g>
        </g>
        <g id="Grupo_1195577" data-name="Grupo 1195577" transform="translate(25.529 37.699)">
          <g id="Grupo_1195576" data-name="Grupo 1195576" clip-path="url(#clip-path-4)">
            <rect id="Rectángulo_462312" data-name="Rectángulo 462312" width="332.264" height="228.394" transform="translate(0 0)" fill="url(#linear-gradient-2)"/>
          </g>
        </g>
        <g id="Grupo_1195579" data-name="Grupo 1195579" transform="translate(0 0)">
          <g id="Grupo_1195578" data-name="Grupo 1195578" clip-path="url(#clip-path)">
            <rect id="Rectángulo_462313" data-name="Rectángulo 462313" width="324.227" height="220.251" transform="translate(29.548 41.771)" fill="#fff"/>
            <rect id="Rectángulo_462314" data-name="Rectángulo 462314" width="348.556" height="12.545" transform="translate(17.383 29.226)" fill="#e6e7e8"/>
            <rect id="Rectángulo_462315" data-name="Rectángulo 462315" width="76.378" height="18.001" transform="translate(40.325 230.237)" fill="#fef7da"/>
            <rect id="Rectángulo_462316" data-name="Rectángulo 462316" width="76.378" height="48.992" transform="translate(40.325 174.114)" fill="#fef7da"/>
            <rect id="Rectángulo_462317" data-name="Rectángulo 462317" width="211.518" height="110.224" transform="translate(126.823 55.673)" fill="#fef7da"/>
            <rect id="Rectángulo_462318" data-name="Rectángulo 462318" width="52.934" height="110.224" transform="translate(126.823 55.673)" fill="#fef1c1"/>
            <path id="Trazado_1016333" data-name="Trazado 1016333" d="M921.038,365.791H931.2a.146.146,0,0,0,.146-.146v-10.3a.146.146,0,0,0-.146-.146h-10.16a.146.146,0,0,0-.146.146v10.3a.146.146,0,0,0,.146.146" transform="translate(-756.024 -291.609)" fill="#ffcf00"/>
            <path id="Trazado_1016334" data-name="Trazado 1016334" d="M734.03,366.558h10.253a.873.873,0,0,0,0-1.746H734.03a.873.873,0,0,0,0,1.746" transform="translate(-601.909 -299.499)" fill="#fff"/>
            <path id="Trazado_1016335" data-name="Trazado 1016335" d="M819.016,366.558H831.99a.873.873,0,0,0,0-1.746H819.016a.873.873,0,0,0,0,1.746" transform="translate(-671.68 -299.499)" fill="#fff"/>
            <path id="Trazado_1016336" data-name="Trazado 1016336" d="M734.03,396.735h28.19a.873.873,0,0,0,0-1.746H734.03a.873.873,0,0,0,0,1.746" transform="translate(-601.909 -324.274)" fill="#fff"/>
          </g>
        </g>
        <g id="Grupo_1195581" data-name="Grupo 1195581" transform="translate(164.868 83.917)">
          <g id="Grupo_1195580" data-name="Grupo 1195580" clip-path="url(#clip-path-6)">
            <rect id="Rectángulo_462320" data-name="Rectángulo 462320" width="10.452" height="10.59" transform="translate(0 0)" fill="url(#linear-gradient-3)"/>
          </g>
        </g>
        <g id="Grupo_1195586" data-name="Grupo 1195586" transform="translate(0 0)">
          <g id="Grupo_1195585" data-name="Grupo 1195585" clip-path="url(#clip-path)">
            <path id="Trazado_1016337" data-name="Trazado 1016337" d="M734.03,480.09h2.007a.873.873,0,0,0,0-1.746H734.03a.873.873,0,0,0,0,1.746" transform="translate(-601.909 -392.706)" fill="#fff"/>
            <path id="Trazado_1016338" data-name="Trazado 1016338" d="M767.475,480.09h22.2a.873.873,0,0,0,0-1.746h-22.2a.873.873,0,0,0,0,1.746" transform="translate(-629.366 -392.706)" fill="#fff"/>
            <path id="Trazado_1016339" data-name="Trazado 1016339" d="M734.03,510.267h9.35a.873.873,0,0,0,0-1.746h-9.35a.873.873,0,0,0,0,1.746" transform="translate(-601.909 -417.48)" fill="#fff"/>
            <path id="Trazado_1016340" data-name="Trazado 1016340" d="M808.6,510.267h14.839a.873.873,0,0,0,0-1.746H808.6a.873.873,0,0,0,0,1.746" transform="translate(-663.127 -417.48)" fill="#fff"/>
            <path id="Trazado_1016341" data-name="Trazado 1016341" d="M921.038,592.855H931.2a.146.146,0,0,0,.146-.146v-10.3a.146.146,0,0,0-.146-.146h-10.16a.146.146,0,0,0-.146.146v10.3a.146.146,0,0,0,.146.146" transform="translate(-756.024 -478.022)" fill="#ff4a79"/>
            <path id="Trazado_1016342" data-name="Trazado 1016342" d="M734.03,593.623h17.5a.873.873,0,0,0,0-1.746h-17.5a.873.873,0,0,0,0,1.746" transform="translate(-601.909 -485.913)" fill="#fff"/>
            <path id="Trazado_1016343" data-name="Trazado 1016343" d="M854.019,593.623h6.708a.873.873,0,0,0,0-1.746h-6.708a.873.873,0,0,0,0,1.746" transform="translate(-700.416 -485.913)" fill="#fff"/>
            <path id="Trazado_1016344" data-name="Trazado 1016344" d="M734.03,623.8h4.923a.873.873,0,0,0,0-1.746H734.03a.873.873,0,0,0,0,1.746" transform="translate(-601.909 -510.687)" fill="#fff"/>
            <path id="Trazado_1016345" data-name="Trazado 1016345" d="M783.872,623.8h19.266a.873.873,0,0,0,0-1.746H783.872a.873.873,0,0,0,0,1.746" transform="translate(-642.827 -510.687)" fill="#fff"/>
            <path id="Trazado_1016346" data-name="Trazado 1016346" d="M921.038,706.387H931.2a.146.146,0,0,0,.146-.146v-10.3a.146.146,0,0,0-.146-.146h-10.16a.146.146,0,0,0-.146.146v10.3a.146.146,0,0,0,.146.146" transform="translate(-756.024 -571.228)" fill="#ff6e94"/>
            <path id="Trazado_1016347" data-name="Trazado 1016347" d="M734.03,707.155h19.714a.873.873,0,0,0,0-1.746H734.03a.873.873,0,0,0,0,1.746" transform="translate(-601.909 -579.119)" fill="#fff"/>
            <path id="Trazado_1016348" data-name="Trazado 1016348" d="M866.383,707.155h4.495a.873.873,0,0,0,0-1.746h-4.495a.873.873,0,0,0,0,1.746" transform="translate(-710.566 -579.119)" fill="#fff"/>
            <path id="Trazado_1016349" data-name="Trazado 1016349" d="M734.03,737.332h9.35a.873.873,0,0,0,0-1.746h-9.35a.873.873,0,0,0,0,1.746" transform="translate(-601.909 -603.893)" fill="#fff"/>
            <path id="Trazado_1016350" data-name="Trazado 1016350" d="M808.6,737.332h14.839a.873.873,0,0,0,0-1.746H808.6a.873.873,0,0,0,0,1.746" transform="translate(-663.127 -603.893)" fill="#fff"/>
            <rect id="Rectángulo_462322" data-name="Rectángulo 462322" width="44.061" height="18.932" transform="translate(131.259 140.797)" fill="#fef7da"/>
            <rect id="Rectángulo_462323" data-name="Rectángulo 462323" width="120.047" height="85.127" transform="translate(197.526 67.604)" fill="#e4dad8"/>
            <path id="Trazado_1016351" data-name="Trazado 1016351" d="M1113.751,393.162a2.011,2.011,0,1,0-2.011-2.011,2.015,2.015,0,0,0,2.011,2.011" transform="translate(-912.705 -319.473)" fill="#a39691" fill-rule="evenodd"/>
            <path id="Trazado_1016352" data-name="Trazado 1016352" d="M1113.751,823.119a2.011,2.011,0,1,0-2.011-2.01,2.015,2.015,0,0,0,2.011,2.01" transform="translate(-912.705 -672.454)" fill="#a39691" fill-rule="evenodd"/>
            <path id="Trazado_1016353" data-name="Trazado 1016353" d="M1744.974,393.162a2.011,2.011,0,1,0-2.01-2.011,2.015,2.015,0,0,0,2.01,2.011" transform="translate(-1430.92 -319.473)" fill="#a39691" fill-rule="evenodd"/>
            <path id="Trazado_1016354" data-name="Trazado 1016354" d="M1744.974,823.119a2.011,2.011,0,1,0-2.01-2.01,2.015,2.015,0,0,0,2.01,2.01" transform="translate(-1430.92 -672.454)" fill="#a39691" fill-rule="evenodd"/>
            <rect id="Rectángulo_462324" data-name="Rectángulo 462324" width="107.561" height="72.869" transform="translate(203.767 73.732)" fill="#055f63"/>
            <path id="Trazado_1016355" data-name="Trazado 1016355" d="M1161.31,411.843h.488v72.869h-.488Zm80.828,0h.488v72.869h-.488Zm17.964,0h.488v72.869h-.488Zm-4.491,0h.488v72.869h-.488Zm-4.491,0h.488v72.869h-.488Zm-4.491,0h.488v72.869h-.488Zm-8.974,0h.488v72.869h-.488Zm-4.491,0h.488v72.869h-.488Zm-4.491,0h.488v72.869h-.488Zm-4.491,0h.488v72.869h-.488Zm-4.491,0h.488v72.869h-.488Zm-4.491,0h.488v72.869h-.488Zm-4.49,0h.488v72.869h-.488Zm-4.491,0h.488v72.869h-.488Zm-4.491,0h.488v72.869h-.488Zm-4.491,0h.488v72.869h-.488Zm-4.491,0h.488v72.869h-.488Zm-4.491,0h.488v72.869h-.488Zm-4.491,0h.488v72.869h-.488Zm-4.491,0h.488v72.869h-.488Zm-4.491,0h.488v72.869h-.488Zm-4.491,0h.488v72.869h-.488Zm-4.491,0h.488v72.869h-.488Z" transform="translate(-953.4 -338.11)" fill="#059485" fill-rule="evenodd"/>
            <path id="Trazado_1016356" data-name="Trazado 1016356" d="M1245.735,493.707H1138.174v-.488h107.561Zm0-4.491H1138.174v-.488h107.561Zm0-4.491H1138.174v-.488h107.561Zm0-4.491H1138.174v-.488h107.561Zm0-4.491H1138.174v-.488h107.561Zm0-4.49H1138.174v-.488h107.561Zm0-4.491H1138.174v-.488h107.561Zm0-4.491H1138.174v-.488h107.561Zm0-4.491H1138.174v-.488h107.561Zm0-4.49H1138.174V452.8h107.561Zm0-4.491H1138.174v-.488h107.561Zm0-4.491H1138.174v-.488h107.561Zm0-4.491H1138.174v-.488h107.561Zm0-4.491H1138.174v-.488h107.561Zm0-4.491H1138.174v-.488h107.561Zm0-4.491H1138.174v-.488h107.561Z" transform="translate(-934.406 -349.615)" fill="#059485" fill-rule="evenodd"/>
            <path id="Trazado_1016357" data-name="Trazado 1016357" d="M1305.929,420.027a.48.48,0,0,0-.961,0v1.921a.48.48,0,0,0,.961,0Zm-.961,69.149a.48.48,0,1,0,.961,0v-1.921a.48.48,0,0,0-.961,0Zm0-4.8a.48.48,0,1,0,.961,0v-1.921a.48.48,0,0,0-.961,0Zm0-4.8a.48.48,0,1,0,.961,0v-1.921a.48.48,0,0,0-.961,0Zm0-4.8a.48.48,0,0,0,.961,0v-1.921a.48.48,0,0,0-.961,0Zm0-4.8a.48.48,0,0,0,.961,0v-1.921a.48.48,0,0,0-.961,0Zm0-4.8a.48.48,0,0,0,.961,0v-1.921a.48.48,0,0,0-.961,0Zm0-4.8a.48.48,0,0,0,.961,0v-1.921a.48.48,0,0,0-.961,0Zm0-4.8a.48.48,0,1,0,.961,0v-1.921a.48.48,0,0,0-.961,0Zm0-4.8a.48.48,0,1,0,.961,0v-1.921a.48.48,0,0,0-.961,0Zm0-4.8a.48.48,0,1,0,.961,0v-1.92a.48.48,0,0,0-.961,0Zm0-4.8a.48.48,0,1,0,.961,0v-1.921a.48.48,0,0,0-.961,0Zm0-4.8a.48.48,0,1,0,.961,0v-1.921a.48.48,0,0,0-.961,0Zm0-4.8a.48.48,0,1,0,.961,0v-1.921a.48.48,0,0,0-.961,0Zm0-4.8a.48.48,0,1,0,.961,0v-1.921a.48.48,0,0,0-.961,0Z" transform="translate(-1071.339 -344.435)" fill="#e4dad8" fill-rule="evenodd"/>
            <path id="Trazado_1016358" data-name="Trazado 1016358" d="M1564.605,420.027a.48.48,0,0,0-.96,0v1.921a.48.48,0,0,0,.96,0Zm-.96,69.149a.48.48,0,1,0,.96,0v-1.921a.48.48,0,0,0-.96,0Zm0-4.8a.48.48,0,1,0,.96,0v-1.921a.48.48,0,0,0-.96,0Zm0-4.8a.48.48,0,1,0,.96,0v-1.921a.48.48,0,0,0-.96,0Zm0-4.8a.48.48,0,0,0,.96,0v-1.921a.48.48,0,0,0-.96,0Zm0-4.8a.48.48,0,0,0,.96,0v-1.921a.48.48,0,0,0-.96,0Zm0-4.8a.48.48,0,0,0,.96,0v-1.921a.48.48,0,0,0-.96,0Zm0-4.8a.48.48,0,0,0,.96,0v-1.921a.48.48,0,0,0-.96,0Zm0-4.8a.48.48,0,1,0,.96,0v-1.921a.48.48,0,0,0-.96,0Zm0-4.8a.48.48,0,1,0,.96,0v-1.921a.48.48,0,0,0-.96,0Zm0-4.8a.48.48,0,1,0,.96,0v-1.92a.48.48,0,0,0-.96,0Zm0-4.8a.48.48,0,1,0,.96,0v-1.921a.48.48,0,0,0-.96,0Zm0-4.8a.48.48,0,1,0,.96,0v-1.921a.48.48,0,0,0-.96,0Zm0-4.8a.48.48,0,1,0,.96,0v-1.921a.48.48,0,0,0-.96,0Zm0-4.8a.48.48,0,1,0,.96,0v-1.921a.48.48,0,0,0-.96,0Z" transform="translate(-1283.705 -344.435)" fill="#e4dad8" fill-rule="evenodd"/>
            <path id="Trazado_1016359" data-name="Trazado 1016359" d="M1148.565,612.669a.48.48,0,0,0,0,.96h1.921a.48.48,0,0,0,0-.96Zm81.923,0a.48.48,0,0,0,0,.96h1.921a.48.48,0,1,0,0-.96Zm21.129.96a.48.48,0,0,0,0-.96H1249.7a.48.48,0,0,0,0,.96Zm-4.8,0a.48.48,0,0,0,0-.96h-1.921a.48.48,0,0,0,0,.96Zm-4.8,0a.48.48,0,1,0,0-.96h-1.921a.48.48,0,0,0,0,.96Zm-4.8,0a.48.48,0,1,0,0-.96h-1.921a.48.48,0,0,0,0,.96Zm-9.892,0a.48.48,0,1,0,0-.96H1225.4a.48.48,0,0,0,0,.96Zm-4.8,0a.48.48,0,1,0,0-.96H1220.6a.48.48,0,0,0,0,.96Zm-4.8,0a.48.48,0,0,0,0-.96h-1.921a.48.48,0,0,0,0,.96Zm-4.8,0a.48.48,0,0,0,0-.96h-1.921a.48.48,0,0,0,0,.96Zm-4.8,0a.48.48,0,0,0,0-.96h-1.921a.48.48,0,0,0,0,.96Zm-4.8,0a.48.48,0,1,0,0-.96h-1.921a.48.48,0,0,0,0,.96Zm-4.8,0a.48.48,0,1,0,0-.96h-1.921a.48.48,0,0,0,0,.96Zm-4.8,0a.48.48,0,1,0,0-.96h-1.921a.48.48,0,0,0,0,.96Zm-4.8,0a.48.48,0,1,0,0-.96h-1.921a.48.48,0,0,0,0,.96Zm-4.8,0a.48.48,0,1,0,0-.96h-1.921a.48.48,0,0,0,0,.96Zm-4.8,0a.48.48,0,1,0,0-.96h-1.92a.48.48,0,0,0,0,.96Zm-4.8,0a.48.48,0,0,0,0-.96h-1.921a.48.48,0,0,0,0,.96Zm-4.8,0a.48.48,0,1,0,0-.96h-1.921a.48.48,0,0,0,0,.96Zm-4.8,0a.48.48,0,0,0,0-.96h-1.921a.48.48,0,0,0,0,.96Zm-4.8,0a.48.48,0,0,0,0-.96h-1.921a.48.48,0,0,0,0,.96Zm-4.8,0a.48.48,0,0,0,0-.96h-1.921a.48.48,0,0,0,0,.96Z" transform="translate(-942.543 -502.982)" fill="#e4dad8" fill-rule="evenodd"/>
            <path id="Trazado_1016360" data-name="Trazado 1016360" d="M1474.172,501.984V440.5a.686.686,0,0,1,.686-.686h5.531a.687.687,0,0,1,.59.336l3.3,4.848v-3.658a.686.686,0,0,1,.686-.686.679.679,0,0,1,.291.065l10.151,3.994a.684.684,0,0,1,.389.388l21.792,55.429a.685.685,0,0,1-.389.887.675.675,0,0,1-.27.046l-42.054,1.2a.683.683,0,0,1-.7-.664Zm1.371-60.794v60.09l40.414-1.152-21.327-54.245-8.979-3.533v4.876a.686.686,0,0,1-1.252.386l-4.373-6.422Z" transform="translate(-1210.249 -361.077)" fill="#e4dad8" fill-rule="evenodd"/>
            <path id="Trazado_1016361" data-name="Trazado 1016361" d="M1229.121,499.4c.346-4.581,2.02-27.18,1.5-29.557-.548-2.524-4.714-27.25-5.4-31.337h-12.011a23.032,23.032,0,0,1-1.023,6.04,18.654,18.654,0,0,1-2.848,5.558l2.756,6.517a.683.683,0,0,1-1.047.806c-.008-.005-2.619-2.014-5.089-3.815a24,24,0,0,1-2.2,1.6q-1.143.738-2.449,1.408c2.826,5.25,5.59,10.524,6.755,16.431,1.179,5.979.708,12.555-3.005,20.3l6.894,1.731c1.9-7.712,4.846-20.414,4.855-20.452a.685.685,0,0,1,1.349.213l-1.229,21.488Zm2.843-29.847c.619,2.847-1.532,30.68-1.539,30.76a.685.685,0,0,1-.849.613l-13.53-3.4a.686.686,0,0,1-.517-.7l.811-14.171c-1.015,4.314-2.266,9.576-3.217,13.4l-.006.028a.686.686,0,0,1-.831.5l-8.379-2.1a.813.813,0,0,1-.139-.053.684.684,0,0,1-.306-.916c3.9-7.765,4.422-14.29,3.258-20.194-1.171-5.939-4.06-11.3-6.951-16.666l-.013-.027a.684.684,0,0,1,.319-.914,27.69,27.69,0,0,0,2.944-1.648,22.3,22.3,0,0,0,2.438-1.811.685.685,0,0,1,.877-.061c1.19.861,2.472,1.819,3.505,2.6l-1.905-4.5a.684.684,0,0,1,.085-.7,17.27,17.27,0,0,0,2.868-5.451,22.063,22.063,0,0,0,.978-6.267l0-.046a.686.686,0,0,1,.686-.686H1225.8a.687.687,0,0,1,.675.573c.014.083,4.89,29.1,5.487,31.846" transform="translate(-984.907 -358.869)" fill="#e4dad8" fill-rule="evenodd"/>
            <rect id="Rectángulo_462325" data-name="Rectángulo 462325" width="76.378" height="12.138" transform="translate(40.325 55.673)" fill="#3ed1b4"/>
            <rect id="Rectángulo_462326" data-name="Rectángulo 462326" width="76.378" height="91.714" transform="translate(40.325 74.182)" fill="#3ed1b4"/>
            <path id="Trazado_1016362" data-name="Trazado 1016362" d="M1332.486,1049.959h98.81a.535.535,0,0,0,.535-.535V977.089a.535.535,0,0,0-.535-.535h-98.81a.535.535,0,0,0-.535.535v72.335a.535.535,0,0,0,.535.535" transform="translate(-1093.491 -801.721)" fill="#fee798"/>
            <path id="Trazado_1016363" data-name="Trazado 1016363" d="M1543.185,1042.061h9.612a1.364,1.364,0,0,0,0-2.728h-9.612a1.364,1.364,0,0,0,0,2.728" transform="translate(-1265.803 -853.26)" fill="#fff"/>
            <path id="Trazado_1016364" data-name="Trazado 1016364" d="M1626.717,1042.061h18.688a1.364,1.364,0,0,0,0-2.728h-18.688a1.364,1.364,0,0,0,0,2.728" transform="translate(-1334.38 -853.26)" fill="#fff"/>
            <path id="Trazado_1016365" data-name="Trazado 1016365" d="M1366.03,1087.413h53a1.364,1.364,0,0,0,0-2.728h-53a1.364,1.364,0,0,0,0,2.728" transform="translate(-1120.364 -890.493)" fill="#fff"/>
            <path id="Trazado_1016366" data-name="Trazado 1016366" d="M1692.063,1087.413h6.989a1.364,1.364,0,0,0,0-2.728h-6.989a1.364,1.364,0,0,0,0,2.728" transform="translate(-1388.027 -890.493)" fill="#fff"/>
            <path id="Trazado_1016367" data-name="Trazado 1016367" d="M1559.04,1153.554h3a1.364,1.364,0,0,0,0-2.728h-3a1.364,1.364,0,0,0,0,2.728" transform="translate(-1278.819 -944.793)" fill="#fff"/>
            <path id="Trazado_1016368" data-name="Trazado 1016368" d="M1600.658,1153.554h23.354a1.364,1.364,0,0,0,0-2.728h-23.354a1.364,1.364,0,0,0,0,2.728" transform="translate(-1312.987 -944.793)" fill="#fff"/>
            <path id="Trazado_1016369" data-name="Trazado 1016369" d="M1366.03,1198.906h7.991a1.364,1.364,0,0,0,0-2.728h-7.991a1.364,1.364,0,0,0,0,2.728" transform="translate(-1120.364 -982.025)" fill="#fff"/>
            <path id="Trazado_1016370" data-name="Trazado 1016370" d="M1445.172,1198.906h51.19a1.364,1.364,0,0,0,0-2.728h-51.19a1.364,1.364,0,0,0,0,2.728" transform="translate(-1185.337 -982.025)" fill="#fff"/>
            <path id="Trazado_1016371" data-name="Trazado 1016371" d="M1792.582,1046.577a6.356,6.356,0,0,1-6.047-4.481,6.5,6.5,0,0,1-.3-1.946,6.387,6.387,0,0,1,6.345-6.428,6.245,6.245,0,0,1,2.245.422,6.437,6.437,0,0,1-2.245,12.434" transform="translate(-1466.446 -848.653)" fill="#fff"/>
            <path id="Trazado_1016372" data-name="Trazado 1016372" d="M1792.582,1145.216a6.248,6.248,0,0,1,2.245.422,6.437,6.437,0,0,1-2.245,12.434,6.356,6.356,0,0,1-6.047-4.482,6.5,6.5,0,0,1-.3-1.946,6.387,6.387,0,0,1,6.345-6.428" transform="translate(-1466.446 -940.187)" fill="#fff"/>
            <path id="Trazado_1016373" data-name="Trazado 1016373" d="M1792.582,1257.591a6.248,6.248,0,0,1,2.245.422,6.437,6.437,0,0,1-2.245,12.434,6.356,6.356,0,0,1-6.047-4.481,6.5,6.5,0,0,1-.3-1.946,6.387,6.387,0,0,1,6.345-6.428" transform="translate(-1466.446 -1032.444)" fill="#fff"/>
            <path id="Trazado_1016374" data-name="Trazado 1016374" d="M1366.03,1265.049h54.552a1.364,1.364,0,0,0,0-2.728H1366.03a1.364,1.364,0,0,0,0,2.728" transform="translate(-1120.364 -1036.327)" fill="#fff"/>
            <path id="Trazado_1016375" data-name="Trazado 1016375" d="M1699.259,1265.049h5.7a1.364,1.364,0,0,0,0-2.728h-5.7a1.364,1.364,0,0,0,0,2.728" transform="translate(-1393.935 -1036.327)" fill="#fff"/>
            <path id="Trazado_1016376" data-name="Trazado 1016376" d="M1366.03,1310.4h18.732a1.364,1.364,0,0,0,0-2.728H1366.03a1.364,1.364,0,0,0,0,2.728" transform="translate(-1120.364 -1073.559)" fill="#fff"/>
            <path id="Trazado_1016377" data-name="Trazado 1016377" d="M1500.541,1310.4h41.278a1.364,1.364,0,0,0,0-2.728h-41.278a1.364,1.364,0,0,0,0,2.728" transform="translate(-1230.793 -1073.559)" fill="#fff"/>
            <rect id="Rectángulo_462327" data-name="Rectángulo 462327" width="83.994" height="72.281" transform="translate(135.702 174.622)" fill="#e4dad8"/>
            <path id="Trazado_1016378" data-name="Trazado 1016378" d="M770.286,988.578a1.707,1.707,0,1,0-1.707-1.707,1.711,1.711,0,0,0,1.707,1.707" transform="translate(-630.98 -808.789)" fill="#a39691" fill-rule="evenodd"/>
            <path id="Trazado_1016379" data-name="Trazado 1016379" d="M1199.189,988.578a1.707,1.707,0,1,0-1.707-1.707,1.71,1.71,0,0,0,1.707,1.707" transform="translate(-983.096 -808.789)" fill="#a39691" fill-rule="evenodd"/>
            <path id="Trazado_1016380" data-name="Trazado 1016380" d="M770.286,1353.654a1.707,1.707,0,1,0-1.707-1.708,1.711,1.711,0,0,0,1.707,1.708" transform="translate(-630.98 -1108.505)" fill="#a39691" fill-rule="evenodd"/>
            <path id="Trazado_1016381" data-name="Trazado 1016381" d="M1199.189,1353.654a1.707,1.707,0,1,0-1.707-1.708,1.711,1.711,0,0,0,1.707,1.708" transform="translate(-983.096 -1108.505)" fill="#a39691" fill-rule="evenodd"/>
            <rect id="Rectángulo_462328" data-name="Rectángulo 462328" width="71.899" height="61.873" transform="translate(141.75 179.825)" fill="#055f63"/>
            <path id="Trazado_1016382" data-name="Trazado 1016382" d="M810.366,1004.441h.414v61.872h-.414Zm64.824,0h.414v61.872h-.414Zm-3.813,0h.414v61.872h-.414Zm-3.813,0h.414v61.872h-.414Zm-3.813,0h.414v61.872h-.414Zm-3.813,0h.414v61.872h-.414Zm-3.813,0h.414v61.872h-.414Zm-3.813,0h.414v61.872h-.414Zm-3.813,0h.414v61.872H848.5Zm-3.813,0h.414v61.872h-.414Zm-3.813,0h.414v61.872h-.414Zm-3.813,0h.414v61.872h-.414Zm-3.813,0h.414v61.872h-.414Zm-3.813,0h.414v61.872h-.414Zm-3.813,0h.414v61.872h-.414Zm-3.813,0h.414v61.872h-.414Zm-3.813,0h.414v61.872h-.414Zm-3.813,0h.414v61.872h-.414Z" transform="translate(-665.286 -824.615)" fill="#059485" fill-rule="evenodd"/>
            <path id="Trazado_1016383" data-name="Trazado 1016383" d="M863.665,1073.951h-71.9v-.414h71.9Zm0-3.813h-71.9v-.414h71.9Zm0-3.813h-71.9v-.414h71.9Zm0-3.813h-71.9v-.414h71.9Zm0-3.813h-71.9v-.414h71.9Zm0-3.813h-71.9v-.414h71.9Zm0-3.813h-71.9v-.414h71.9Zm0-3.813h-71.9v-.414h71.9Zm0-3.813h-71.9v-.414h71.9Zm0-3.813h-71.9v-.414h71.9Zm0-3.813h-71.9v-.414h71.9Zm0-3.813h-71.9v-.414h71.9Zm0-3.813h-71.9v-.414h71.9Zm0-3.813h-71.9v-.414h71.9Zm0-3.813h-71.9v-.414h71.9Zm0-3.813h-71.9v-.414h71.9Z" transform="translate(-650.016 -834.383)" fill="#059485" fill-rule="evenodd"/>
            <path id="Trazado_1016384" data-name="Trazado 1016384" d="M830.115,1077.975h23.627c.268-2.616,1.623-14.166,4.928-16.968,3.325-2.819,17.484-.751,20.7-.237l.626-17.461c-2.63,1.9-9.935,6.516-14.936,3.457-4.946-3.024-8.574-14.327-9.732-18.343-1.214,1.794-4.164,4.4-10.308,1.734-6.534-2.835-9.18-4.095-9.99-4.492l-5.531,3.391,4.418,10.244a.582.582,0,0,1-.928.659l-8.99-7.532-3.675,2.253,9.771,42.825a.587.587,0,0,1,.014.128Zm24.154,1.165H829.532a.582.582,0,0,1-.582-.582v-.867l-9.843-43.138a.582.582,0,0,1,.259-.645l4.362-2.675a.582.582,0,0,1,.7.035l7.452,6.243-3.647-8.457a.583.583,0,0,1,.232-.726l6.226-3.817a.58.58,0,0,1,.578-.026c.006,0,2.081,1.079,10.212,4.607,7.246,3.144,9.284-1.919,9.458-2.4a.582.582,0,0,1,1.125.012c.012.045,3.973,15.624,9.6,19.066,5.481,3.351,14.563-4.095,14.589-4.116a.58.58,0,0,1,.946.471l-.692,19.3a.581.581,0,0,1-.679.59c-.049-.009-17.073-2.959-20.41-.13-3.247,2.753-4.487,15.753-4.57,16.664a.582.582,0,0,1-.582.581m-21.276-39.18a.573.573,0,0,1-.141-.2Z" transform="translate(-672.446 -841.018)" fill="#e4dad8" fill-rule="evenodd"/>
            <path id="Trazado_1016385" data-name="Trazado 1016385" d="M937.516,1011.39a.408.408,0,0,0-.815,0v1.631a.408.408,0,0,0,.815,0ZM936.7,1070.1a.408.408,0,1,0,.815,0v-1.631a.408.408,0,0,0-.815,0Zm0-4.078a.408.408,0,1,0,.815,0V1064.4a.408.408,0,0,0-.815,0Zm0-4.078a.408.408,0,1,0,.815,0v-1.631a.408.408,0,0,0-.815,0Zm0-4.077a.408.408,0,0,0,.815,0v-1.631a.408.408,0,1,0-.815,0Zm0-4.077a.408.408,0,0,0,.815,0v-1.631a.408.408,0,0,0-.815,0Zm0-4.077a.408.408,0,0,0,.815,0v-1.631a.408.408,0,0,0-.815,0Zm0-4.077a.408.408,0,0,0,.815,0v-1.631a.408.408,0,1,0-.815,0Zm0-4.078a.408.408,0,1,0,.815,0v-1.631a.408.408,0,1,0-.815,0Zm0-4.077a.408.408,0,1,0,.815,0v-1.631a.408.408,0,0,0-.815,0Zm0-4.077a.408.408,0,1,0,.815,0v-1.631a.408.408,0,1,0-.815,0Zm0-4.077a.408.408,0,1,0,.815,0V1027.7a.408.408,0,0,0-.815,0Zm0-4.077a.408.408,0,1,0,.815,0v-1.631a.408.408,0,0,0-.815,0Zm0-4.077a.408.408,0,1,0,.815,0v-1.631a.408.408,0,0,0-.815,0Zm0-4.077a.408.408,0,1,0,.815,0v-1.631a.408.408,0,0,0-.815,0Z" transform="translate(-769.002 -829.986)" fill="#e4dad8" fill-rule="evenodd"/>
            <path id="Trazado_1016386" data-name="Trazado 1016386" d="M1044.691,1011.39a.408.408,0,0,0-.816,0v1.631a.408.408,0,0,0,.816,0Zm-.816,58.715a.408.408,0,1,0,.816,0v-1.631a.408.408,0,0,0-.816,0Zm0-4.078a.408.408,0,1,0,.816,0V1064.4a.408.408,0,0,0-.816,0Zm0-4.078a.408.408,0,1,0,.816,0v-1.631a.408.408,0,0,0-.816,0Zm0-4.077a.408.408,0,0,0,.816,0v-1.631a.408.408,0,0,0-.816,0Zm0-4.077a.408.408,0,0,0,.816,0v-1.631a.408.408,0,0,0-.816,0Zm0-4.077a.408.408,0,0,0,.816,0v-1.631a.408.408,0,0,0-.816,0Zm0-4.077a.408.408,0,0,0,.816,0v-1.631a.408.408,0,0,0-.816,0Zm0-4.078a.408.408,0,1,0,.816,0v-1.631a.408.408,0,0,0-.816,0Zm0-4.077a.408.408,0,1,0,.816,0v-1.631a.408.408,0,0,0-.816,0Zm0-4.077a.408.408,0,1,0,.816,0v-1.631a.408.408,0,0,0-.816,0Zm0-4.077a.408.408,0,1,0,.816,0V1027.7a.408.408,0,0,0-.816,0Zm0-4.077a.408.408,0,1,0,.816,0v-1.631a.408.408,0,0,0-.816,0Zm0-4.077a.408.408,0,1,0,.816,0v-1.631a.408.408,0,0,0-.816,0Zm0-4.077a.408.408,0,1,0,.816,0v-1.631a.408.408,0,0,0-.816,0Z" transform="translate(-856.99 -829.986)" fill="#e4dad8" fill-rule="evenodd"/>
            <path id="Trazado_1016387" data-name="Trazado 1016387" d="M803.941,1174.961a.408.408,0,0,0,0,.815h1.631a.408.408,0,0,0,0-.815Zm66.869.815a.408.408,0,1,0,0-.815h-1.631a.408.408,0,0,0,0,.815Zm-4.077,0a.408.408,0,1,0,0-.815H865.1a.408.408,0,0,0,0,.815Zm-4.077,0a.408.408,0,1,0,0-.815h-1.631a.408.408,0,0,0,0,.815Zm-4.077,0a.408.408,0,1,0,0-.815h-1.631a.408.408,0,0,0,0,.815Zm-4.077,0a.408.408,0,0,0,0-.815H852.87a.408.408,0,0,0,0,.815Zm-4.077,0a.408.408,0,0,0,0-.815h-1.631a.408.408,0,0,0,0,.815Zm-4.077,0a.408.408,0,0,0,0-.815h-1.631a.408.408,0,0,0,0,.815Zm-4.077,0a.408.408,0,0,0,0-.815h-1.631a.408.408,0,0,0,0,.815Zm-4.077,0a.408.408,0,0,0,0-.815H836.56a.408.408,0,0,0,0,.815Zm-4.078,0a.408.408,0,1,0,0-.815h-1.631a.408.408,0,0,0,0,.815Zm-4.078,0a.408.408,0,1,0,0-.815H828.4a.408.408,0,0,0,0,.815Zm-4.077,0a.408.408,0,1,0,0-.815h-1.631a.408.408,0,0,0,0,.815Zm-4.077,0a.408.408,0,1,0,0-.815H820.25a.408.408,0,0,0,0,.815Zm-4.078,0a.408.408,0,1,0,0-.815h-1.631a.408.408,0,0,0,0,.815Zm-4.077,0a.408.408,0,1,0,0-.815H812.1a.408.408,0,0,0,0,.815Zm-4.077,0a.408.408,0,0,0,0-.815h-1.631a.408.408,0,0,0,0,.815Z" transform="translate(-659.676 -964.607)" fill="#e4dad8" fill-rule="evenodd"/>
            <rect id="Rectángulo_462329" data-name="Rectángulo 462329" width="65.97" height="33.682" transform="translate(45.529 80.632)" fill="#aef5f5"/>
            <rect id="Rectángulo_462330" data-name="Rectángulo 462330" width="12.601" height="22.097" transform="translate(91.225 92.267)" fill="#fff"/>
            <rect id="Rectángulo_462331" data-name="Rectángulo 462331" width="12.601" height="12.767" transform="translate(72.644 101.598)" fill="#fff"/>
            <rect id="Rectángulo_462332" data-name="Rectángulo 462332" width="12.601" height="25.671" transform="translate(53.201 88.693)" fill="#fff"/>
            <rect id="Rectángulo_462333" data-name="Rectángulo 462333" width="36.305" height="6.251" transform="translate(75.193 119.519)" fill="#fff"/>
            <rect id="Rectángulo_462334" data-name="Rectángulo 462334" width="65.97" height="29.865" transform="translate(45.529 129.345)" fill="#fff"/>
            <path id="Trazado_1016388" data-name="Trazado 1016388" d="M1481.652,784.89h-34.225q.36,6.047.719,12.093a3.652,3.652,0,0,1-2.774,0q-4.6-77.455-9.205-154.91a3.6,3.6,0,0,1,2.773,0l.719,12.093h34.225q-.36-6.047-.719-12.093a3.133,3.133,0,0,1,2.773,0l9.206,154.91a3.364,3.364,0,0,1-2.773,0Zm-34.372-2.474h34.225l-1.123-18.9h-34.225Zm26.751-125.775h-34.225l1.123,18.9h34.225Zm1.27,21.375h-34.225l1.123,18.9h34.225Zm1.27,21.375h-34.225l1.123,18.9h34.225Zm1.27,21.375h-34.225l1.123,18.9h34.225Zm1.27,21.375h-34.225l1.123,18.9h34.225Z" transform="translate(-1179.049 -526.857)" fill="#a76d56" fill-rule="evenodd"/>
            <path id="Trazado_1016389" data-name="Trazado 1016389" d="M1635.642,1139.122h8.4a11.381,11.381,0,0,0-1.849,5.641c-.124,1.46-9.35,1.552-8.4,0a7.658,7.658,0,0,0,1.849-5.641" transform="translate(-1341.239 -935.184)" fill="#feceb4" fill-rule="evenodd"/>
            <path id="Trazado_1016390" data-name="Trazado 1016390" d="M1602.011,1163.412c6.265,0,10.853-1.436,11.818-1.436a3.233,3.233,0,0,1,3.311,3.15,3.1,3.1,0,0,1-1.431,2.593h-17.323a2.646,2.646,0,0,1-.261-1.143c0-1.748,1.74-3.164,3.887-3.164" transform="translate(-1312.011 -953.947)" fill="#df4157" fill-rule="evenodd"/>
            <path id="Trazado_1016391" data-name="Trazado 1016391" d="M1602.011,1163.412c6.265,0,10.853-1.436,11.818-1.436a3.442,3.442,0,0,1,1.4.293c-3.217,3.407-10.605,4.7-17.031,4.909a2.6,2.6,0,0,1-.07-.6c0-1.748,1.74-3.164,3.887-3.164" transform="translate(-1312.011 -953.947)" fill="#c22c44" fill-rule="evenodd"/>
            <path id="Trazado_1016392" data-name="Trazado 1016392" d="M1600.216,1194.991h16.318a.6.6,0,0,0,.6-.6v-.337h-17.518v.337a.6.6,0,0,0,.6.6" transform="translate(-1313.236 -980.281)" fill="#254b4b" fill-rule="evenodd"/>
            <path id="Trazado_1016393" data-name="Trazado 1016393" d="M1550.257,772.976c1.344,1.313,9.4,2.013,10.326,1.232,2.863-10.213,7.159-28.163.8-38.811-.113-2.874-.008-7.962-.155-12.8-.236-7.751-2.282-17.674-7.029-24.661-7.871-11.584-26.335-3.785-21.423,6.789,10.535,22.679,15.626,48.984,17.484,68.254" transform="translate(-1257.688 -568.259)" fill="#033" fill-rule="evenodd"/>
            <path id="Trazado_1016394" data-name="Trazado 1016394" d="M1638.473,991.32c1.713-7.138,3.163-15.91,1.92-23.034-1.738-9.958-5.4-2.746-7.676,3.614-1.317,3.675-1.441,9.659-.878,13.592q.37,2.582.682,5.156c.709,5.851,4.544,6.542,5.952.673" transform="translate(-1339.43 -790.894)" fill="#124545" fill-rule="evenodd"/>
            <path id="Trazado_1016395" data-name="Trazado 1016395" d="M1556.825,702.646a32.363,32.363,0,0,0-2.627-4.713c-7.871-11.584-26.335-3.785-21.423,6.789q1.176,2.531,2.261,5.118c1-.156,2.041-.339,3.1-.544l.243-6.636,3.3,5.884c6.44-1.5,12.864-3.679,15.148-5.9" transform="translate(-1257.689 -568.259)" fill="#002525" fill-rule="evenodd"/>
            <path id="Trazado_1016396" data-name="Trazado 1016396" d="M1532.135,718.367a7.8,7.8,0,0,0,.646,5.063c7.6,16.357,12.365,34.6,15.129,50.732,2.175-7.255,3.2-14.611,1.052-20.057,2.144-13.1,5.7-20.926.884-33.687-2.418-6.4-12.362-7.262-17.71-2.051" transform="translate(-1257.694 -586.967)" fill="#002525" fill-rule="evenodd"/>
            <path id="Trazado_1016397" data-name="Trazado 1016397" d="M1516.319,1139.122h8.4a12.922,12.922,0,0,0-2.574,5.641c-.311,1.46-9.55,1.552-8.4,0a8.654,8.654,0,0,0,2.574-5.641" transform="translate(-1242.658 -935.184)" fill="#feceb4" fill-rule="evenodd"/>
            <path id="Trazado_1016398" data-name="Trazado 1016398" d="M1481.29,1163.412c6.265,0,10.853-1.436,11.818-1.436a3.233,3.233,0,0,1,3.311,3.15,3.105,3.105,0,0,1-1.432,2.593h-17.323a2.645,2.645,0,0,1-.262-1.143c0-1.748,1.74-3.164,3.887-3.164" transform="translate(-1212.903 -953.947)" fill="#df4157" fill-rule="evenodd"/>
            <path id="Trazado_1016399" data-name="Trazado 1016399" d="M1481.29,1163.412c6.265,0,10.853-1.436,11.818-1.436a3.439,3.439,0,0,1,1.4.293c-3.216,3.407-10.605,4.7-17.031,4.909a2.612,2.612,0,0,1-.07-.6c0-1.748,1.74-3.164,3.887-3.164" transform="translate(-1212.903 -953.947)" fill="#c22c44" fill-rule="evenodd"/>
            <path id="Trazado_1016400" data-name="Trazado 1016400" d="M1479.495,1194.991h16.318a.6.6,0,0,0,.6-.6v-.337H1478.9v.337a.6.6,0,0,0,.6.6" transform="translate(-1214.128 -980.281)" fill="#254b4b" fill-rule="evenodd"/>
            <path id="Trazado_1016401" data-name="Trazado 1016401" d="M1501.359,791.685c1.14,1.313,9.086,2.012,10.135,1.232,4.444-10.213,11.518-28.164,6.8-38.811,1.515-13.1,4.7-20.926-.732-33.687-2.769-6.508-13.035-7.288-18.052-1.794-3.292,3.605-3.259,9.782-1.1,19.269,4.353,19.15,3.914,37.23,2.948,53.791" transform="translate(-1228.909 -586.968)" fill="#124545" fill-rule="evenodd"/>
            <path id="Trazado_1016402" data-name="Trazado 1016402" d="M1518.8,863.669a110.48,110.48,0,0,0,3.643-10.993c1.529-5.7,3.122-14.085.719-19.717l-.349-.818.1-.889c3.11-27.916-15.409-27.861-12.934-16.561,3.516,16.054,3.91,31.737,3.248,47.9-.285,6.981,3.406,6.715,5.574,1.077" transform="translate(-1239.459 -663.009)" fill="#2a5858" fill-rule="evenodd"/>
            <path id="Trazado_1016403" data-name="Trazado 1016403" d="M1497.012,729.551a58.034,58.034,0,0,0,11.13-1.282l.266-7.248,3.6,6.427c2.518-.584,5.032-1.265,7.338-2.009a41.359,41.359,0,0,0-1.78-5.02c-2.769-6.509-13.035-7.288-18.052-1.794-2.2,2.414-2.918,5.983-2.5,10.927" transform="translate(-1228.908 -586.967)" fill="#033" fill-rule="evenodd"/>
            <path id="Trazado_1016404" data-name="Trazado 1016404" d="M1405.422,498.647c.182,1.268,5.993.88,12.626-.4l.243-6.636,3.3,5.884c8.443-1.96,16.859-5.1,15.954-7.96-6.58-20.745-18.4-62.081-45.284-49.844-15.416,7.018,11.882,28.1,13.166,58.958" transform="translate(-1139.138 -359.146)" fill="#1ec6a5" fill-rule="evenodd"/>
            <path id="Trazado_1016405" data-name="Trazado 1016405" d="M1425.345,495.294a73.73,73.73,0,0,1,5.441,18.832,42.348,42.348,0,0,0,9.155-13.4c4.057-9.473,4.452-21.714-1.678-31.467-7.535-11.991-24.169-6.68-17.836,8.41,2.969,7.073,4.784,12.673,4.918,17.621" transform="translate(-1164.97 -379.842)" fill="#14b298" fill-rule="evenodd"/>
            <path id="Trazado_1016406" data-name="Trazado 1016406" d="M1405.448,516.211c.182,1.268,5.993.88,12.626-.4l.243-6.636,3.295,5.884c1.593-.369,3.184-.781,4.713-1.226-2.213-9.053-5.066-20.088-9.207-29.888a37.456,37.456,0,0,1-2.983,13.656,42.352,42.352,0,0,1-9.153,13.393c.233,1.707.393,3.447.466,5.219m-7.536-55.847a19.918,19.918,0,0,0-8.184-1.5c-6.429,5.743,3,17.225,9.81,33.291-.135-4.948-1.95-10.546-4.918-17.617-3.06-7.293-.756-12.3,3.292-14.176" transform="translate(-1139.164 -376.711)" fill="#3ed1b4" fill-rule="evenodd"/>
            <path id="Trazado_1016407" data-name="Trazado 1016407" d="M1361.42,419.953c3.289.2,5.752.8,6.407,4.719a18.128,18.128,0,0,0,7.352-7.4c-4.021-1.617-7.075-6.037-10.614-6.439-.934,1.927-2.367,7.121-3.146,9.117" transform="translate(-1117.684 -337.284)" fill="#fea682" fill-rule="evenodd"/>
            <path id="Trazado_1016408" data-name="Trazado 1016408" d="M1289.63,390.022c2.77-1.608,15.569.111,17.623,3.072.823,1.187.319,3.028.02,4.793-.449,2.638-1.246,5.252-3.012,6.257-2.129,1.211-7.472-1.272-11.311-5.354-2.9-3.081-5.147-7.707-3.32-8.768" transform="translate(-1058.205 -319.69)" fill="#feceb4" fill-rule="evenodd"/>
            <path id="Trazado_1016409" data-name="Trazado 1016409" d="M1381.512,460.307c-3.892-1.113-7.552-1.446-9.681-.4,2.337.382,4.019,1.392,4.543,4.527a17.622,17.622,0,0,0,5.137-4.131" transform="translate(-1126.232 -377.051)" fill="#febea0" fill-rule="evenodd"/>
            <path id="Trazado_1016410" data-name="Trazado 1016410" d="M1273.05,328.243c-.649-1.464-1.424-2.982-2.587-2.162-1.065.751-2.088,2.115-3.477,1.3-.149-.087-.672-1.845-1.975-2.522a3.064,3.064,0,0,0-4.392,1.587,14.186,14.186,0,0,1-2.6,4.574,4.416,4.416,0,0,1-3.636,1.907c-6.148,0-7.135-8.69-2.121-10.9a4.421,4.421,0,0,1,3.767-6.409,8.89,8.89,0,0,1,9.621-4.779,4.263,4.263,0,0,1,6.188.871,10.109,10.109,0,0,1,8.067,7.178,4.2,4.2,0,0,1,1.414,5.494c2.429,6.516-4.577,12.183-8.271,3.85" transform="translate(-1025.438 -254.413)" fill="#254b4b" fill-rule="evenodd"/>
            <path id="Trazado_1016411" data-name="Trazado 1016411" d="M1318.279,423.311c-5.176-8.072-9.937-9.771-14.659-4.474a19.328,19.328,0,0,0,1.357,1.617c3.838,4.082,9.182,6.565,11.31,5.354a5.053,5.053,0,0,0,1.992-2.5" transform="translate(-1070.232 -341.354)" fill="#fedfcd" fill-rule="evenodd"/>
            <path id="Trazado_1016412" data-name="Trazado 1016412" d="M1363.582,393.036c.919-1.043,2.294-.446,3.37.352a2.229,2.229,0,0,1,.552,3.061,1.107,1.107,0,0,1-.805.368,10.5,10.5,0,0,0-3.136-1.885,1.394,1.394,0,0,1,.019-1.9" transform="translate(-1119.146 -322.213)" fill="#feceb4" fill-rule="evenodd"/>
            <path id="Trazado_1016413" data-name="Trazado 1016413" d="M1367.56,398.741c.565-.641,1.409-.274,2.07.216a1.393,1.393,0,0,1,.391,1.816,2.28,2.28,0,0,0-.578-.627,4.005,4.005,0,0,0-2.114-.908.861.861,0,0,1,.231-.5" transform="translate(-1122.535 -327.073)" fill="#fea682" fill-rule="evenodd"/>
            <path id="Trazado_1016414" data-name="Trazado 1016414" d="M1326.091,524.526c-1.322-.094-3.014-2.61-2.529-3.265,23.448-15.233,24.818-23.431,17.545-43.589-5.443-15.09,11.5-20.4,18.332-8.41,5.555,9.754,4.438,21.995-.176,31.468-6.571,13.487-20.131,23.569-33.171,23.8" transform="translate(-1086.534 -379.841)" fill="#feceb4" fill-rule="evenodd"/>
            <path id="Trazado_1016415" data-name="Trazado 1016415" d="M1274.529,794.573c-2.363.818-2.3.182-2.419-.059-.156-.307.382-.754,1.856-1.48a31.146,31.146,0,0,1,6.417-2.51c.52-.137,2.821,1.744,2.666,3.212a25.8,25.8,0,0,1-3.4,6.711c-3.025,3.96-6.469,5.937-4.366,2.321-2.366,1.549-3.807,1.744-1.469-1.012-3.166,1.213-4.682.674.233-3.047,2.142-1.424,3.59-5.091.478-4.137" transform="translate(-1043.358 -648.991)" fill="#feceb4" fill-rule="evenodd"/>
            <path id="Trazado_1016416" data-name="Trazado 1016416" d="M1340.535,519.288c20.58-14,21.529-22.346,14.576-41.616-5.443-15.09,11.5-20.4,18.332-8.41,5.555,9.754,4.438,21.995-.176,31.467-6.049,12.417-18.023,21.947-30.061,23.559a20.808,20.808,0,0,0-2.671-5" transform="translate(-1100.539 -379.842)" fill="#1ec6a5" fill-rule="evenodd"/>
            <path id="Trazado_1016417" data-name="Trazado 1016417" d="M1353.5,529.755c10.367-2.934,19.176-11,23.78-20.447,4.356-8.941,5.308-20.3.25-29.181a10.382,10.382,0,0,0-5.864-5,7.306,7.306,0,0,0-5.841.587c-3.824,2.276-3.51,7.12-2.191,10.778,2.547,7.059,5.235,15.422,3.45,22.958-1.87,7.9-8.314,13.263-14.852,17.947-2.857,2.047-1.875,3.248,1.268,2.358" transform="translate(-1108.747 -389.779)" fill="#3ed1b4" fill-rule="evenodd"/>
            <path id="Trazado_1016418" data-name="Trazado 1016418" d="M1389.051,515.387c1.477,7.873,2.314,12.527-.752,20.181,3.748-1.135,6.813-1.315,9.119-.43l-4.63-21.325Z" transform="translate(-1139.751 -421.825)" fill="#c22c44" fill-rule="evenodd"/>
            <path id="Trazado_1016419" data-name="Trazado 1016419" d="M1386.3,430.587s1.887-.393,1.592,1.142-2.332,4.712-5.411,6.936c-3.154,2.277-3.987,2.631-4.026-1.918-2.635.542-4.039,10.713,2.258,11.869,4.13.758.449-5.759,4.612-11.063s14.577-6.188,11.44-7.927c-6.33-2.746-9.314-1.633-10.466.961" transform="translate(-1129.843 -351.4)" fill="#e14657" fill-rule="evenodd"/>
            <path id="Trazado_1016420" data-name="Trazado 1016420" d="M1484.039,747.372c.154,1.075,4.351.959,9.666.119-10.314-.22-8.621-4.123-10.392-7.06a56.651,56.651,0,0,1,.726,6.941" transform="translate(-1217.755 -607.871)" fill="#8de6d4" fill-rule="evenodd"/>
            <rect id="Rectángulo_462335" data-name="Rectángulo 462335" width="34.836" height="54.663" transform="translate(188.915 208.104)" fill="#2a5858"/>
            <g id="Grupo_1195584" data-name="Grupo 1195584" transform="translate(188.915 208.104)" opacity="0.41">
              <g id="Grupo_1195583" data-name="Grupo 1195583">
                <g id="Grupo_1195582" data-name="Grupo 1195582" clip-path="url(#clip-path-8)">
                  <rect id="Rectángulo_462336" data-name="Rectángulo 462336" width="16.835" height="54.663" transform="translate(0.001)" fill="#3ed1b4"/>
                </g>
              </g>
            </g>
            <path id="Trazado_1016421" data-name="Trazado 1016421" d="M1068.438,1217.058l21.61-4.664v1.536l-.828-.179-5.568,1.2,6.4,1.381v.725h-2.09l-7.03-1.518-5.569,1.2,1.463.316ZM1061.4,1162.4h5.887l-12.069,2.6v-1.538l.834.18,5.563-1.2Zm17.014,0-23.2,5.006v1.178l28.654-6.184Zm11.639,1.067-34.836,7.519v1.178l17.418-3.759,8.854,1.911-26.272,5.67v1.178l29-6.259,5.563,1.2-34.564,7.46v1.178l34.836-7.519v-2.239l-14.689-3.17,5.564-1.2,9.125,1.97V1167.4l-6.4-1.38,5.563-1.2.833.18Zm0,12.159v1.178l-26.607,5.743,8.833,1.906a.579.579,0,0,1,.227.1l17.547-3.787v1.178l-34.836,7.518v-1.538l.834.18,5.563-1.2-6.4-1.381v-1.178l8.963,1.934a.6.6,0,0,1,.127.043l5.6-1.209-14.689-3.17v-1.178l5.523,1.193,0-.01Zm0,8.724-34.836,7.519v1.178l34.836-7.519Zm0,3.579-34.836,7.518v1.179l17.418-3.759,9.519,2.054-26.937,5.814v1.178l29.631-6.4,0-.015,5.207,1.124v-1.178l-14.689-3.17,5.564-1.2,9.125,1.97v-1.178l-6.4-1.381,5.563-1.2.833.18Zm0,8.866-34.836,7.519v2.1l14.689,3.17-5.563,1.2-9.126-1.97v1.178l6.4,1.38-5.563,1.2-.834-.18v1.538l.839-.181a.574.574,0,0,0,.376-.081l33.621-7.257v-1.178L1072.585,1209a.6.6,0,0,0-.141-.05l-8.356-1.8,25.96-5.6v-1.178l-28.689,6.192-5.563-1.2,34.252-7.393Zm0,12.024-34.836,7.519v.725h2.1l32.735-7.065Z" transform="translate(-866.298 -954.291)" fill="#2ed19b" fill-rule="evenodd"/>
            <path id="Trazado_1016422" data-name="Trazado 1016422" d="M1038.125,1138.811h39.112a1.125,1.125,0,0,0,1.122-1.121v-2.9a1.125,1.125,0,0,0-1.122-1.121h-39.112a1.124,1.124,0,0,0-1.121,1.121v2.9a1.124,1.124,0,0,0,1.121,1.121" transform="translate(-851.349 -930.707)" fill="#8c746e" fill-rule="evenodd"/>
            <rect id="Rectángulo_462338" data-name="Rectángulo 462338" width="19.797" height="6.135" transform="translate(196.435 196.827)" fill="#665550"/>
            <path id="Trazado_1016423" data-name="Trazado 1016423" d="M1038.125,1470.7h39.112a1.125,1.125,0,0,0,1.122-1.121v-2.9a1.125,1.125,0,0,0-1.122-1.122h-39.112a1.125,1.125,0,0,0-1.121,1.122v2.9a1.124,1.124,0,0,0,1.121,1.121" transform="translate(-851.349 -1203.175)" fill="#8c746e" fill-rule="evenodd"/>
          </g>
        </g>
      </g>
    </g>
  </g>
</svg>
