<svg xmlns="http://www.w3.org/2000/svg" xmlns:xlink="http://www.w3.org/1999/xlink" width="292" height="254" viewBox="0 0 292 254">
  <defs>
    <clipPath id="clip-path">
      <rect id="Rectángulo_462380" data-name="Rectángulo 462380" width="247.348" height="201.465" fill="none"/>
    </clipPath>
    <clipPath id="clip-path-3">
      <path id="Trazado_1016439" data-name="Trazado 1016439" d="M565.52,360.168a.565.565,0,1,0,.291-.081.565.565,0,0,0-.291.081" transform="translate(-565.246 -360.087)" fill="none"/>
    </clipPath>
    <linearGradient id="linear-gradient" x1="-46.634" y1="103.049" x2="-46.552" y2="103.049" gradientUnits="objectBoundingBox">
      <stop offset="0" stop-color="#38bfc3"/>
      <stop offset="0.292" stop-color="#38bfc3"/>
      <stop offset="1" stop-color="#12999c"/>
    </linearGradient>
    <clipPath id="clip-path-5">
      <path id="Trazado_1016443" data-name="Trazado 1016443" d="M544.364,331.973a.565.565,0,1,0,.469-.249.565.565,0,0,0-.469.249" transform="translate(-544.268 -331.724)" fill="none"/>
    </clipPath>
    <linearGradient id="linear-gradient-2" x1="-44.996" y1="105.623" x2="-44.913" y2="105.623" xlink:href="#linear-gradient"/>
    <clipPath id="clip-path-7">
      <path id="Trazado_1016449" data-name="Trazado 1016449" d="M526.285,328.541a.565.565,0,1,0,.53-.37.565.565,0,0,0-.53.37" transform="translate(-526.249 -328.171)" fill="none"/>
    </clipPath>
    <linearGradient id="linear-gradient-3" x1="-49.583" y1="132.658" x2="-49.489" y2="132.658" xlink:href="#linear-gradient"/>
    <clipPath id="clip-path-9">
      <path id="Trazado_1016453" data-name="Trazado 1016453" d="M478.735,316.972a.408.408,0,0,0-.382.379h-.007a.408.408,0,0,0-.807.1.344.344,0,0,0,.128.276l.745.647.651-.732a.381.381,0,0,0,.1-.29.408.408,0,0,0-.406-.383h-.025" transform="translate(-477.538 -316.971)" fill="none"/>
    </clipPath>
    <linearGradient id="linear-gradient-4" x1="-33.329" y1="84.816" x2="-33.26" y2="84.816" xlink:href="#linear-gradient"/>
    <clipPath id="clip-path-10">
      <path id="Trazado_1016454" data-name="Trazado 1016454" d="M453.764,361.059l11.434,2.658a6.381,6.381,0,0,0-11.434-2.658" transform="translate(-453.764 -358.445)" fill="none"/>
    </clipPath>
    <linearGradient id="linear-gradient-5" x1="-7.391" y1="13.087" x2="-7.375" y2="13.087" gradientUnits="objectBoundingBox">
      <stop offset="0" stop-color="#2d9cd7"/>
      <stop offset="0.024" stop-color="#2d9cd7"/>
      <stop offset="1" stop-color="#2969aa"/>
    </linearGradient>
    <clipPath id="clip-path-12">
      <path id="Trazado_1016470" data-name="Trazado 1016470" d="M1039.287,1095.837c-.928.3-1.31,3.793,0,3.757,1.263-.035.953-3.773.1-3.773a.317.317,0,0,0-.1.016" transform="translate(-1038.441 -1095.821)" fill="none"/>
    </clipPath>
    <linearGradient id="linear-gradient-6" x1="-48.925" y1="17.877" x2="-48.878" y2="17.877" gradientUnits="objectBoundingBox">
      <stop offset="0" stop-color="#fbc670"/>
      <stop offset="1" stop-color="#f69c44"/>
    </linearGradient>
    <clipPath id="clip-path-13">
      <path id="Trazado_1016471" data-name="Trazado 1016471" d="M1032.341,1216.367c-.928.3-1.31,3.793,0,3.757,1.263-.035.953-3.773.1-3.773a.321.321,0,0,0-.1.016" transform="translate(-1031.496 -1216.351)" fill="none"/>
    </clipPath>
    <linearGradient id="linear-gradient-7" x1="-48.597" y1="14.027" x2="-48.549" y2="14.027" xlink:href="#linear-gradient-6"/>
    <clipPath id="clip-path-15">
      <rect id="Rectángulo_462353" data-name="Rectángulo 462353" width="4.686" height="4.684" fill="none"/>
    </clipPath>
    <clipPath id="clip-path-16">
      <rect id="Rectángulo_462354" data-name="Rectángulo 462354" width="1.332" height="10.673" fill="none"/>
    </clipPath>
    <clipPath id="clip-path-17">
      <rect id="Rectángulo_462355" data-name="Rectángulo 462355" width="0.929" height="9.322" fill="none"/>
    </clipPath>
    <clipPath id="clip-path-18">
      <rect id="Rectángulo_462356" data-name="Rectángulo 462356" width="0.961" height="7.853" fill="none"/>
    </clipPath>
    <clipPath id="clip-path-19">
      <rect id="Rectángulo_462357" data-name="Rectángulo 462357" width="0.707" height="8.406" fill="none"/>
    </clipPath>
    <clipPath id="clip-path-20">
      <rect id="Rectángulo_462358" data-name="Rectángulo 462358" width="1.248" height="9.18" fill="none"/>
    </clipPath>
    <clipPath id="clip-path-21">
      <rect id="Rectángulo_462359" data-name="Rectángulo 462359" width="1.155" height="10.324" fill="none"/>
    </clipPath>
    <clipPath id="clip-path-22">
      <rect id="Rectángulo_462360" data-name="Rectángulo 462360" width="1.475" height="7.472" fill="none"/>
    </clipPath>
    <clipPath id="clip-path-23">
      <rect id="Rectángulo_462361" data-name="Rectángulo 462361" width="0.98" height="8.879" fill="none"/>
    </clipPath>
    <clipPath id="clip-path-24">
      <rect id="Rectángulo_462362" data-name="Rectángulo 462362" width="1.194" height="7.591" fill="none"/>
    </clipPath>
    <clipPath id="clip-path-25">
      <rect id="Rectángulo_462363" data-name="Rectángulo 462363" width="5.015" height="2.278" fill="none"/>
    </clipPath>
    <clipPath id="clip-path-26">
      <rect id="Rectángulo_462364" data-name="Rectángulo 462364" width="8.065" height="0.834" fill="none"/>
    </clipPath>
    <clipPath id="clip-path-27">
      <rect id="Rectángulo_462365" data-name="Rectángulo 462365" width="6.16" height="1.817" fill="none"/>
    </clipPath>
    <clipPath id="clip-path-28">
      <rect id="Rectángulo_462366" data-name="Rectángulo 462366" width="8.149" height="2.839" fill="none"/>
    </clipPath>
    <clipPath id="clip-path-29">
      <rect id="Rectángulo_462367" data-name="Rectángulo 462367" width="6.798" height="1.068" fill="none"/>
    </clipPath>
    <clipPath id="clip-path-30">
      <rect id="Rectángulo_462368" data-name="Rectángulo 462368" width="6.988" height="2.43" fill="none"/>
    </clipPath>
    <clipPath id="clip-path-31">
      <rect id="Rectángulo_462369" data-name="Rectángulo 462369" width="4.934" height="2.159" fill="none"/>
    </clipPath>
    <clipPath id="clip-path-32">
      <rect id="Rectángulo_462370" data-name="Rectángulo 462370" width="5.991" height="1.223" fill="none"/>
    </clipPath>
    <clipPath id="clip-path-33">
      <rect id="Rectángulo_462371" data-name="Rectángulo 462371" width="7.568" height="1.368" fill="none"/>
    </clipPath>
    <clipPath id="clip-path-34">
      <rect id="Rectángulo_462372" data-name="Rectángulo 462372" width="6.722" height="1.112" fill="none"/>
    </clipPath>
    <clipPath id="clip-path-35">
      <rect id="Rectángulo_462373" data-name="Rectángulo 462373" width="6.445" height="1.467" fill="none"/>
    </clipPath>
    <clipPath id="clip-path-36">
      <rect id="Rectángulo_462374" data-name="Rectángulo 462374" width="4.286" height="1.557" fill="none"/>
    </clipPath>
    <clipPath id="clip-path-37">
      <rect id="Rectángulo_462375" data-name="Rectángulo 462375" width="8.024" height="0.96" fill="none"/>
    </clipPath>
    <clipPath id="clip-path-38">
      <rect id="Rectángulo_462376" data-name="Rectángulo 462376" width="7.878" height="0.65" fill="none"/>
    </clipPath>
    <clipPath id="clip-path-39">
      <rect id="Rectángulo_462377" data-name="Rectángulo 462377" width="8.541" height="1.462" fill="none"/>
    </clipPath>
    <clipPath id="clip-path-40">
      <rect id="Rectángulo_462378" data-name="Rectángulo 462378" width="5.267" height="1.327" fill="none"/>
    </clipPath>
  </defs>
  <g id="Grupo_1195824" data-name="Grupo 1195824" transform="translate(-705.711 -9302)">
    <rect id="Rectángulo_462127" data-name="Rectángulo 462127" width="292" height="254" transform="translate(705.711 9302)" fill="#bbc3dc"/>
    <g id="Grupo_1195694" data-name="Grupo 1195694" transform="translate(728 9330.904)">
      <g id="Grupo_1195693" data-name="Grupo 1195693" clip-path="url(#clip-path)">
        <g id="Grupo_1195590" data-name="Grupo 1195590" transform="translate(0 0)">
          <g id="Grupo_1195589" data-name="Grupo 1195589" clip-path="url(#clip-path)">
            <path id="Trazado_1016424" data-name="Trazado 1016424" d="M232.473,413.139s34.789-22.794,44.814-58.307c8.024-28.424-5.372-57.453-30.818-79.213s-80.232-10.88-102.744-23.6c-40.881-23.1-83.724-11.2-87.865,48.516-2.686,38.731,15.791,73.386,29.444,93.32a162.561,162.561,0,0,0,13.835,17.77Z" transform="translate(-48.832 -211.674)" fill="#fcf3de"/>
            <path id="Trazado_1016425" data-name="Trazado 1016425" d="M187.136,382.942a122.41,122.41,0,0,0,59.838-92.514c1-10.574.233-21.755-5.137-31.162-4.745-8.312-12.662-14.424-21.35-18.2-21.67-9.409-45.728-4.462-68.484-4.11a109.374,109.374,0,0,1-18.519-1.077,89.487,89.487,0,0,1-16.861-4.5c-10.92-3.983-21.243-9.411-32.141-13.448-10.816-4.007-22.41-6.676-33.972-4.957-9.978,1.484-19.243,6.309-26.853,12.83-7.445,6.38-12.719,14.553-16.624,23.49a80.682,80.682,0,0,0-4.68,13.735A95.1,95.1,0,0,0,.281,278.479,125.655,125.655,0,0,0,8.236,331.7a100.128,100.128,0,0,0,16.32,28.343,64.7,64.7,0,0,0,16.992,14.933,71.95,71.95,0,0,0,20.834,7.639c4.322.958,8.68,1.643,13.052,2.325,1.271.2,1.818-1.746.537-1.946a130.607,130.607,0,0,1-23.983-5.6A54.977,54.977,0,0,1,34.01,366.825a86.393,86.393,0,0,1-20.031-27.053A120.937,120.937,0,0,1,2.232,294.49a125.707,125.707,0,0,1,0-15.165,94.226,94.226,0,0,1,1.98-15.416,78.611,78.611,0,0,1,11.516-26.342,55.445,55.445,0,0,1,21.781-18.456c9.935-4.751,20.814-5.581,31.559-3.534,22.428,4.273,41.482,18.708,64.145,22.158,23.561,3.587,47.361-3.133,70.9.567,9.718,1.528,19.331,5.006,27.069,11.214a38.7,38.7,0,0,1,9.162,10.4,40.887,40.887,0,0,1,5.058,14.947c1.477,10.1.119,20.573-2.182,30.451a120.687,120.687,0,0,1-9.577,26.51,122.943,122.943,0,0,1-46.778,50.658.263.263,0,0,0,.266.455" transform="translate(0 -186.591)" fill="#fcf3de"/>
            <path id="Trazado_1016426" data-name="Trazado 1016426" d="M1515.029,240.147c-.634.865-1.286,1.709-1.948,2.552-.365.464-.7.951-1.047,1.43a14.975,14.975,0,0,0-.931,1.367,1.06,1.06,0,0,0,.272,1.364,1.046,1.046,0,0,0,1.388-.083,23.548,23.548,0,0,0,1.9-2.94c.555-.978,1.113-1.948,1.7-2.908a.775.775,0,1,0-1.339-.782" transform="translate(-1327.073 -210.583)" fill="#fcf3de"/>
            <path id="Trazado_1016427" data-name="Trazado 1016427" d="M1525.612,285.567a6.145,6.145,0,0,1,3.919-.943l-.115-.847c-.4.114-.806.168-1.214.245a7.974,7.974,0,0,0-1.179.369c-.78.277-1.543.6-2.31.913-1.583.636-3.216,1.219-4.75,1.968a1.172,1.172,0,0,0-.418,1.594,1.2,1.2,0,0,0,1.594.418c1.525-.644,2.991-1.47,4.464-2.222.719-.367,1.446-.721,2.149-1.116a8.1,8.1,0,0,0,1.073-.673c.332-.263.588-.489.923-.706a.435.435,0,0,0-.218-.8,6.8,6.8,0,0,0-4.176,1.473c-.189.15.056.461.257.333" transform="translate(-1334.472 -249.225)" fill="#fcf3de"/>
            <path id="Trazado_1016428" data-name="Trazado 1016428" d="M113.97,1462.246a7.483,7.483,0,0,1-1.745,1.2c-.065.033-.132.062-.2.091.194-.083-.125.046-.132.049-.169.064-.339.12-.512.172-.365.111-.723.24-1.093.335-.353.091-.71.158-1.07.215-.155.025.205-.019-.043,0-.108.01-.217.021-.325.029-.181.013-.362.02-.544.025a21.17,21.17,0,0,0-2.47.031,1.118,1.118,0,0,0-.811.941,1.131,1.131,0,0,0,.54,1.128,5.253,5.253,0,0,0,2.795.465,11.578,11.578,0,0,0,2.637-.469,11.4,11.4,0,0,0,4.461-2.727,1.053,1.053,0,0,0-1.489-1.489" transform="translate(-92.235 -1284.019)" fill="#fcf3de"/>
            <path id="Trazado_1016429" data-name="Trazado 1016429" d="M153.048,1517.634c-.757.9-1.547,1.788-2.235,2.747a15.638,15.638,0,0,0-1.844,2.773.7.7,0,0,0,.1.806.678.678,0,0,0,.806.1,15.815,15.815,0,0,0,2.579-2.242c.82-.772,1.557-1.63,2.317-2.461a1.221,1.221,0,0,0-1.727-1.727" transform="translate(-130.769 -1332.621)" fill="#fcf3de"/>
            <path id="Trazado_1016430" data-name="Trazado 1016430" d="M227.554,1540.822a12.548,12.548,0,0,0-2.088,2.694,12.8,12.8,0,0,0-.719,1.41q-.207.467-.4.942a1.5,1.5,0,0,0,.04,1.267l-.138-.511a6.726,6.726,0,0,0,.066.679.825.825,0,0,0,1.369.361c.027-.027.29-.319.173-.208a2.019,2.019,0,0,0,.46-.494,9.672,9.672,0,0,0,.377-.95c-.064.153.082-.189.079-.181q.074-.167.152-.333c.121-.258.247-.514.371-.77.477-.983,1.06-1.916,1.621-2.852a.874.874,0,0,0-1.367-1.055" transform="translate(-196.94 -1353.085)" fill="#fcf3de"/>
            <path id="Trazado_1016431" data-name="Trazado 1016431" d="M1066.512,1340.2a46.769,46.769,0,0,0,6.095-4.514,97.257,97.257,0,0,0,7.514-6.717c-.247-6.865-.937-13.3-4.222-20.339-7.673-16.431-66.8-11.363-66.8-11.363l-3.892,42.3Z" transform="translate(-882.871 -1138.738)" fill="#ecccaa"/>
            <path id="Trazado_1016432" data-name="Trazado 1016432" d="M1003.438,1471.65l-8.035-.084,1.423-24.737a35.637,35.637,0,0,1,4.634,12.41c1.583,8.405,1.978,12.41,1.978,12.41" transform="translate(-874.258 -1270.743)" fill="#baa997"/>
            <path id="Trazado_1016433" data-name="Trazado 1016433" d="M714.32,477.6c45.315-8.533,43.366-35.969,16.038-30.588-18.836,3.709-42.7,4.346-50.836,4.6-18.9.584-24.581,5.985-19.92,16.529,5.843,13.218,35.94,13,54.719,9.462" transform="translate(-577.969 -392.001)" fill="#bad5ef"/>
            <path id="Trazado_1016434" data-name="Trazado 1016434" d="M1091.065,568.216s6.979-13.261,11.1-18.62-7.539,18.011-7.539,18.011Z" transform="translate(-958.278 -482.005)" fill="#9ab6cc"/>
            <path id="Trazado_1016435" data-name="Trazado 1016435" d="M422.2,376.666c9.659,4.79,38.63,11.35,46.839,12.445,3.073.41-6.381,21.771-6.381,21.771-10.826-.152-50.809-13.368-55.516-19.441-5.9-7.614,3.76-20.378,15.058-14.774" transform="translate(-356.023 -329.611)" fill="#bad5ef"/>
            <path id="Trazado_1016436" data-name="Trazado 1016436" d="M489.738,401a10.192,10.192,0,0,1,3.523,1.662,5.953,5.953,0,0,1,1.242,1.516c.343.576.56,1.221.9,1.793.148.247.582.087.479-.2a9.146,9.146,0,0,0-1.007-1.877,5.873,5.873,0,0,0-1.356-1.476,11.758,11.758,0,0,0-3.72-1.645c-.146-.045-.208.182-.063.229" transform="translate(-430.062 -351.993)" fill="#9ab6cc"/>
            <path id="Trazado_1016437" data-name="Trazado 1016437" d="M428.219,386.1s5.731-2.346,10.173,0a14.789,14.789,0,0,1,6.84,8.557c.622,1.908,3.109.842,3.109.842a18.132,18.132,0,0,0-3.994-7.817c-3.112-3.376-6.465-4.525-9.3-4.53s-4.861-.166-6.827,2.949" transform="translate(-376.103 -336.519)" fill="#565763"/>
            <path id="Trazado_1016438" data-name="Trazado 1016438" d="M521.684,368.056l5.784-3.309-.145-.242Z" transform="translate(-458.193 -320.143)" fill="#f7fbff"/>
          </g>
        </g>
        <g id="Grupo_1195592" data-name="Grupo 1195592" transform="translate(68.793 43.824)">
          <g id="Grupo_1195591" data-name="Grupo 1195591" clip-path="url(#clip-path-3)">
            <rect id="Rectángulo_462342" data-name="Rectángulo 462342" width="1.472" height="1.531" transform="matrix(0.226, -0.974, 0.974, 0.226, -0.347, 1.149)" fill="url(#linear-gradient)"/>
          </g>
        </g>
        <g id="Grupo_1195594" data-name="Grupo 1195594" transform="translate(0 0)">
          <g id="Grupo_1195593" data-name="Grupo 1195593" clip-path="url(#clip-path)">
            <path id="Trazado_1016440" data-name="Trazado 1016440" d="M456.152,341.943l-3.181-5.855-.245.14Z" transform="translate(-397.627 -295.184)" fill="#f7fbff"/>
            <path id="Trazado_1016441" data-name="Trazado 1016441" d="M449.405,331.007a.565.565,0,1,1-.771-.211.565.565,0,0,1,.771.211" transform="translate(-393.783 -290.471)" fill="#38bfc4"/>
            <path id="Trazado_1016442" data-name="Trazado 1016442" d="M517.479,342.561l3.841-5.445-.234-.158Z" transform="translate(-454.5 -295.948)" fill="#f7fbff"/>
          </g>
        </g>
        <g id="Grupo_1195596" data-name="Grupo 1195596" transform="translate(66.24 40.372)">
          <g id="Grupo_1195595" data-name="Grupo 1195595" clip-path="url(#clip-path-5)">
            <rect id="Rectángulo_462344" data-name="Rectángulo 462344" width="1.468" height="1.527" transform="translate(-0.344 1.147) rotate(-76.915)" fill="url(#linear-gradient-2)"/>
          </g>
        </g>
        <g id="Grupo_1195598" data-name="Grupo 1195598" transform="translate(0 0)">
          <g id="Grupo_1195597" data-name="Grupo 1195597" clip-path="url(#clip-path)">
            <path id="Trazado_1016444" data-name="Trazado 1016444" d="M470.5,340.6l-2.14-6.31-.266.1Z" transform="translate(-411.125 -293.607)" fill="#f7fbff"/>
            <path id="Trazado_1016445" data-name="Trazado 1016445" d="M465.127,329.012a.565.565,0,1,1-.724-.338.565.565,0,0,1,.724.338" transform="translate(-407.556 -288.642)" fill="#178787"/>
            <path id="Trazado_1016446" data-name="Trazado 1016446" d="M498.614,333.9l1.373-6.521-.278-.052Z" transform="translate(-437.931 -287.487)" fill="#f7fbff"/>
            <path id="Trazado_1016447" data-name="Trazado 1016447" d="M504.257,320.578a.381.381,0,0,0,.172-.256.408.408,0,0,0-.788-.2h-.007a.408.408,0,0,0-.808-.1.343.343,0,0,0,.057.3l.564.81Z" transform="translate(-441.62 -280.78)" fill="#38bfc4"/>
            <path id="Trazado_1016448" data-name="Trazado 1016448" d="M511.408,340.113l2.441-6.2-.265-.1Z" transform="translate(-449.167 -293.188)" fill="#f7fbff"/>
          </g>
        </g>
        <g id="Grupo_1195600" data-name="Grupo 1195600" transform="translate(64.047 39.94)">
          <g id="Grupo_1195599" data-name="Grupo 1195599" clip-path="url(#clip-path-7)">
            <rect id="Rectángulo_462346" data-name="Rectángulo 462346" width="1.29" height="1.218" transform="matrix(1, -0.011, 0.011, 1, -0.086, 0)" fill="url(#linear-gradient-3)"/>
          </g>
        </g>
        <g id="Grupo_1195602" data-name="Grupo 1195602" transform="translate(0 0)">
          <g id="Grupo_1195601" data-name="Grupo 1195601" clip-path="url(#clip-path)">
            <path id="Trazado_1016450" data-name="Trazado 1016450" d="M489.124,340.353l-.211-6.66-.282.015Z" transform="translate(-429.162 -293.081)" fill="#f7fbff"/>
            <path id="Trazado_1016451" data-name="Trazado 1016451" d="M484.408,326.96a.381.381,0,0,0,.106-.29.408.408,0,0,0-.814-.01h-.007a.408.408,0,0,0-.808.1.343.343,0,0,0,.126.277l.74.653Z" transform="translate(-424.116 -286.574)" fill="#178787"/>
            <path id="Trazado_1016452" data-name="Trazado 1016452" d="M483.858,331.054l-.264-6.658-.282.017Z" transform="translate(-424.491 -284.915)" fill="#f7fbff"/>
          </g>
        </g>
        <g id="Grupo_1195604" data-name="Grupo 1195604" transform="translate(58.118 38.577)">
          <g id="Grupo_1195603" data-name="Grupo 1195603" clip-path="url(#clip-path-9)">
            <rect id="Rectángulo_462348" data-name="Rectángulo 462348" width="1.742" height="1.923" transform="translate(-0.323 1.333) rotate(-76.915)" fill="url(#linear-gradient-4)"/>
          </g>
        </g>
        <g id="Grupo_1195606" data-name="Grupo 1195606" transform="translate(55.225 43.624)">
          <g id="Grupo_1195605" data-name="Grupo 1195605" clip-path="url(#clip-path-10)">
            <rect id="Rectángulo_462349" data-name="Rectángulo 462349" width="7.723" height="12.33" transform="translate(-1.163 5.001) rotate(-76.914)" fill="url(#linear-gradient-5)"/>
          </g>
        </g>
        <g id="Grupo_1195608" data-name="Grupo 1195608" transform="translate(0 0)">
          <g id="Grupo_1195607" data-name="Grupo 1195607" clip-path="url(#clip-path)">
            <path id="Trazado_1016455" data-name="Trazado 1016455" d="M459.118,382.431l-12.369-2.875a.272.272,0,0,1-.2-.327l.122-.527a.075.075,0,0,1,.09-.056l12.753,2.964a.075.075,0,0,1,.056.09l-.122.527a.272.272,0,0,1-.327.2" transform="translate(-392.193 -332.561)" fill="#c3c2c0"/>
            <path id="Trazado_1016456" data-name="Trazado 1016456" d="M884.824,518.449a12.222,12.222,0,0,0-1.4,3.4.2.2,0,0,0,.241.241,7.4,7.4,0,0,0,2.306-1.065,7.584,7.584,0,0,0,.959-.794c.313-.307.563-.659.856-.982l-.316-.243a11.536,11.536,0,0,0-1.278,3.141.24.24,0,0,0,.462.127,27.462,27.462,0,0,1,1.163-3.065c.1-.231-.217-.435-.347-.2a5.58,5.58,0,0,1-1.742,1.711,7.28,7.28,0,0,1-2.167,1l.241.241a12.3,12.3,0,0,1,1.264-3.365.142.142,0,0,0-.245-.143" transform="translate(-775.905 -455.291)" fill="#9ab6cc"/>
            <path id="Trazado_1016457" data-name="Trazado 1016457" d="M1018.148,444.941c-3.751,6.8-11.089,20.033-15.75,57.713-3.4,27.512-.993,29.205-6.995,55.424,0,0,8.425,4.9,28.719,5.474,37.289,1.053,47.064-2.887,47.064-2.887.842-5.784-.124-23.285-1.134-42.736-1.869-35.989-8.138-67.892-13.56-74.944-6.976-9.074-7.354-13.363-20.239-13.344-7.346.011-13.645,7.21-18.105,15.3" transform="translate(-874.258 -377.351)" fill="#bad5ef"/>
            <path id="Trazado_1016458" data-name="Trazado 1016458" d="M1012.683,476.525s4.176-7.7,7.231-12.416c14.094-21.781,26.755-26.34,29.815-25.217,7.852,2.882,18.535,16.423,20.088,42.737,2.329,39.473,7.617,52.7,7.355,66.084a95.531,95.531,0,0,1-1.677,17.119c-7.863.719-15.052,1.149-21.6,1.359-.706.022-1.627-12.124-2.318-12.107-1.36.035-2.468,12.226-3.77,12.242-33.965.42-48.46-5.227-48.46-5.227,3.259-14.236,3.8-40.644,4.949-49.491,3.976-30.67,8.384-35.084,8.384-35.084" transform="translate(-877.725 -385.339)" fill="#3ed1b4"/>
            <path id="Trazado_1016459" data-name="Trazado 1016459" d="M1034.256,774.26l1.42-19.9,46.562-25.7s-3.4,15.8-23.128,32.281c-18.937,15.821-24.853,13.321-24.853,13.321" transform="translate(-908.382 -639.978)" fill="#2da08a"/>
            <path id="Trazado_1016460" data-name="Trazado 1016460" d="M1414.418,877.408c-.089,1.855-.142,3.7-.118,5.554s.055,3.7.1,5.554c.087,3.7.177,7.406.292,11.109.058,1.851.143,3.7.174,5.554.03,1.828-.057,3.657-.084,5.485s-.1,3.657-.089,5.485c.009,1.851.033,3.7.049,5.554.018,2.075.145,4.149.226,6.223.08,2.058.037,4.109-.081,6.164a.572.572,0,0,0,.566.566.58.58,0,0,0,.566-.566c.212-1.819.212-3.651.242-5.479s.026-3.68.009-5.52c-.034-3.705-.229-7.41-.449-11.109-.11-1.85-.263-3.7-.338-5.554-.074-1.827-.076-3.656-.095-5.485q-.058-5.52-.16-11.039c-.038-2.083-.078-4.166-.139-6.249-.029-1.016-.018-2.042-.1-3.055q-.127-1.6-.271-3.194a.15.15,0,0,0-.3,0" transform="translate(-1242.168 -770.496)" fill="#2da08a"/>
            <path id="Trazado_1016461" data-name="Trazado 1016461" d="M1373.909,485.418a10.2,10.2,0,0,0,.614,2.3,3.657,3.657,0,0,0,.538,1.112c.224.257.46.682.873.54.387-.133.357-.533.277-.859a3.085,3.085,0,0,0-.167-.595c-.081-.175-.167-.349-.246-.525-.331-.736-.62-1.5-.925-2.243a.5.5,0,0,0-.964.266" transform="translate(-1206.692 -425.799)" fill="#2da08a"/>
            <path id="Trazado_1016462" data-name="Trazado 1016462" d="M1211.686,501.536a3.14,3.14,0,0,0-1.733,2.588.179.179,0,0,0,.225.171,2.294,2.294,0,0,0,1.259-.779,1.713,1.713,0,0,0,.442-1.273c-.024-.129-.205-.107-.241,0a2.8,2.8,0,0,1-.494,1.119,1.743,1.743,0,0,1-1.061.59l.218.218a3.756,3.756,0,0,1,.5-1.368,6.323,6.323,0,0,1,1.012-1.048.132.132,0,0,0-.128-.219" transform="translate(-1062.696 -440.49)" fill="#9ab6cc"/>
            <path id="Trazado_1016463" data-name="Trazado 1016463" d="M1188.584,548.788a3.131,3.131,0,0,0-.475,2.433.188.188,0,0,0,.275.112,3.133,3.133,0,0,0,1.213-1.744.932.932,0,0,0-.066-.8c-.123-.172-.347-.254-.5-.078-.067.077-.03.236.093.224.439-.043.006.953-.072,1.1a2.768,2.768,0,0,1-.857.976l.275.112a3.7,3.7,0,0,1,.315-2.216.117.117,0,0,0-.2-.118" transform="translate(-1043.453 -481.841)" fill="#9ab6cc"/>
            <path id="Trazado_1016464" data-name="Trazado 1016464" d="M1155.562,601.808a6.047,6.047,0,0,0-1.394,2.793.181.181,0,0,0,.173.227c1.342-.082,1.685-1.651,1.592-2.746a.177.177,0,0,0-.354,0c-.068.863-.038,2.309-1.238,2.388l.173.227a6.466,6.466,0,0,1,1.208-2.73c.086-.111-.062-.271-.159-.159" transform="translate(-1013.697 -528.531)" fill="#9ab6cc"/>
            <path id="Trazado_1016465" data-name="Trazado 1016465" d="M1128.263,656.833a8.717,8.717,0,0,0-1.677,3.474.213.213,0,0,0,.309.237,3.174,3.174,0,0,0,1.4-1.424,2.718,2.718,0,0,0,.275-1.914.149.149,0,0,0-.29.039,3.634,3.634,0,0,1-.334,1.728,2.815,2.815,0,0,1-1.267,1.208l.309.237a9.632,9.632,0,0,1,1.521-3.394c.1-.145-.137-.333-.249-.192" transform="translate(-989.47 -576.849)" fill="#9ab6cc"/>
            <path id="Trazado_1016466" data-name="Trazado 1016466" d="M1159.236,1198.369a7.243,7.243,0,0,0,.807.979q.48.452.967.9c.621.567,1.253,1.121,1.9,1.653a24.042,24.042,0,0,0,4.276,2.858,31.023,31.023,0,0,0,7.61,2.811c.721.15,1.456.254,2.164.456a.6.6,0,0,0,.32-1.161c-.6-.181-1.218-.286-1.828-.417-.941-.2-1.875-.43-2.794-.718a29.843,29.843,0,0,1-8.651-4.267c-.745-.541-1.465-1.115-2.171-1.706q-.553-.463-1.1-.937a8.6,8.6,0,0,0-1.146-.809c-.212-.132-.522.144-.36.361" transform="translate(-1018.112 -1052.175)" fill="#2da08a"/>
            <path id="Trazado_1016467" data-name="Trazado 1016467" d="M1180.625,1180.663c3.172,1.631,6.207,3.505,9.516,4.859a44.339,44.339,0,0,0,4.573,1.6c.36.1.723.2,1.086.289.1.026.206.051.308.081.035.01.071.024.106.032.162.041-.072-.036-.017-.01.185.085-.074-.095.031.02.062.066-.076-.051-.061-.082,0,.009.034.038.032.049-.018.088.024.224,0,.331-.119.547-.307,1.09-.453,1.63a8.188,8.188,0,0,0-.405,1.779.664.664,0,0,0,1.227.333,7.484,7.484,0,0,0,.485-1.609c.132-.521.285-1.042.384-1.57a1.822,1.822,0,0,0-.351-1.738,2.989,2.989,0,0,0-1.359-.494,43.531,43.531,0,0,1-9.1-3.443c-1.889-.946-3.791-1.874-5.747-2.674-.355-.145-.6.445-.261.619" transform="translate(-1036.796 -1036.407)" fill="#2da08a"/>
            <path id="Trazado_1016468" data-name="Trazado 1016468" d="M1568.307,1087.459a2.176,2.176,0,0,0-1.144.211q-.56.178-1.127.336c-.756.21-1.509.426-2.273.606a.578.578,0,0,0-.418.55c-.007,1.086-.009,2.174.063,3.258q.054.812.155,1.619a6.806,6.806,0,0,0,.278,1.478,1.308,1.308,0,0,0,1.006.914,5.448,5.448,0,0,0,1.615-.153l1.528-.214c.491-.069,1.245-.028,1.593-.425a.517.517,0,0,0-.1-.8c-.394-.263-.949-.086-1.389-.031l-1.4.173c-.444.055-.887.118-1.332.165a.992.992,0,0,1-.255.022c-.078-.015.034.046,0,.015-.085-.079-.1-.34-.115-.449a26,26,0,0,1-.507-5.574l-.418.549a22.612,22.612,0,0,0,2.349-.576q.562-.177,1.117-.374a2.037,2.037,0,0,0,1.063-.6.482.482,0,0,0-.287-.705" transform="translate(-1373.075 -955.089)" fill="#2da08a"/>
            <path id="Trazado_1016469" data-name="Trazado 1016469" d="M1579.925,1111.153a1.9,1.9,0,0,0,1.009,2.395c1.032.342,1.7-.6,1.872-1.488a1.9,1.9,0,0,0-1.166-2.357,1.306,1.306,0,0,0-1.61,1.538.629.629,0,0,0,.765.434.637.637,0,0,0,.434-.765c.027.179-.031-.021.131.159.208.232.116.65.045.915a1.439,1.439,0,0,1-.1.277c0,.009-.007.059.037.016s0,.029-.061-.041c-.221-.244-.106-.62-.135-.917a.624.624,0,0,0-1.22-.165" transform="translate(-1387.552 -974.606)" fill="#2da08a"/>
          </g>
        </g>
        <g id="Grupo_1195610" data-name="Grupo 1195610" transform="translate(126.383 133.366)">
          <g id="Grupo_1195609" data-name="Grupo 1195609" clip-path="url(#clip-path-12)">
            <rect id="Rectángulo_462351" data-name="Rectángulo 462351" width="2.574" height="3.809" transform="translate(-0.465 0)" fill="url(#linear-gradient-6)"/>
          </g>
        </g>
        <g id="Grupo_1195612" data-name="Grupo 1195612" transform="translate(125.538 148.035)">
          <g id="Grupo_1195611" data-name="Grupo 1195611" clip-path="url(#clip-path-13)">
            <rect id="Rectángulo_462352" data-name="Rectángulo 462352" width="2.574" height="3.809" transform="translate(-0.465)" fill="url(#linear-gradient-7)"/>
          </g>
        </g>
        <g id="Grupo_1195692" data-name="Grupo 1195692" transform="translate(0 0)">
          <g id="Grupo_1195691" data-name="Grupo 1195691" clip-path="url(#clip-path)">
            <path id="Trazado_1016472" data-name="Trazado 1016472" d="M1073.37,77.586a80.66,80.66,0,0,0,1.887,18.925c.1.4.575,2.008.628,2.168a11.179,11.179,0,0,0,2.659,4.824c8.855,7.708,16.161-4.777,16.549,1.457.424,6.811.27,7.678-.577,10.355-.654,2.071,17.876-5.359,17.876-5.359s-.09-11.55.271-18.541c.849-16.425-2.262-17.172-6.929-22.776-6.432-7.724-31.829-6.619-32.363,8.946" transform="translate(-942.718 -56.18)" fill="#f3a68f"/>
            <path id="Trazado_1016473" data-name="Trazado 1016473" d="M1113.521,238.685c1.188-.15,2.008,3.492.886,3.5s-1.561-3.413-.886-3.5" transform="translate(-977.72 -209.632)" fill="#282827"/>
            <path id="Trazado_1016474" data-name="Trazado 1016474" d="M1080.213,192.435c-.287.511-.343,1.912.627,1.786s4.375-.934,5.625-.157,1.759-.454,1.615-1.115-2.132-1.441-3.881-1.4a14.717,14.717,0,0,0-3.986.887" transform="translate(-948.585 -168.234)" fill="#503f3b"/>
            <g id="Grupo_1195615" data-name="Grupo 1195615" transform="translate(139.847 31.699)" opacity="0.4">
              <g id="Grupo_1195614" data-name="Grupo 1195614">
                <g id="Grupo_1195613" data-name="Grupo 1195613" clip-path="url(#clip-path-15)">
                  <path id="Trazado_1016475" data-name="Trazado 1016475" d="M1149.117,262.357a2.342,2.342,0,1,1,1.851,2.746,2.342,2.342,0,0,1-1.851-2.746" transform="translate(-1149.073 -260.462)" fill="#e18675"/>
                </g>
              </g>
            </g>
            <path id="Trazado_1016476" data-name="Trazado 1016476" d="M1060.514,234.009s1.628,6.952,2.488,9.416c0,0-4.411,1.252-4.221-.282.1-.814-.621-3.136-.191-5.323a10.249,10.249,0,0,1,1.924-3.811" transform="translate(-929.634 -205.529)" fill="#dc8e80"/>
            <path id="Trazado_1016477" data-name="Trazado 1016477" d="M1092.944,344.638a10.913,10.913,0,0,0,3.752-.015c1.121-.482.1,1.353-2.417,1.4a4.789,4.789,0,0,1-.975-.075Z" transform="translate(-959.928 -302.61)" fill="#dc8e80"/>
            <path id="Trazado_1016478" data-name="Trazado 1016478" d="M1255.619,238.126c-.371,1.419-1.336,2.427-.509,3.117,1.56,1.3,2.266-.848,2.275-3.117s-1.608-4.006-2.828-2.331,1.3,1.412,1.061,2.331" transform="translate(-1101.579 -206.511)" fill="#dc8e80"/>
            <path id="Trazado_1016479" data-name="Trazado 1016479" d="M1040.784,27.042c-2.477-.159-2.365,2.408-2.4,5.9s-2.582,3.139-2.7,1c-.054-.99-.09-1.823-.08-2.143.031-1.012-2.532-1.613-3.183-3.273s.208-8.465-2.067-9.178-.465-.277-5.6.717a20.668,20.668,0,0,1-9.672-.059,7.588,7.588,0,0,1-5.1-4.554c-1.524-3.292.061-3.934,1.811-2.556s4.309-2.115,16.491-8.856c8.479-4.692,23.144-6.878,26.461,2.393.132.368.275.887.7,1.058,10.715,4.331.65,33.321.65,33.321s-14.271,1.061-13.126-4.855c1.737-8.974-2.18-8.912-2.18-8.912" transform="translate(-886.522 0.003)" fill="#503f3b"/>
            <path id="Trazado_1016480" data-name="Trazado 1016480" d="M1082.926,315.143c-.458.719-.69,1.46,1.955,2.042s4,.765,5.123.563a1.813,1.813,0,0,0,1.274-2.723,6.538,6.538,0,0,0-.552-.9s1.152,2.259-.692,2.24c-.691-.007-5.883-3.146-7.108-1.223" transform="translate(-950.879 -275.895)" fill="#503f3b"/>
            <path id="Trazado_1016481" data-name="Trazado 1016481" d="M1257.339,392.8s.188,1.489-8.951,4.391c-5.612,1.782-8,1.81-8,1.81l-1.917,6.745s8.316-.267,14.026-2.161,7.356-3.555,7.251-5.037-2.406-5.747-2.406-5.747" transform="translate(-1087.741 -344.993)" fill="#fff"/>
            <path id="Trazado_1016482" data-name="Trazado 1016482" d="M386.041,510.917v-3.632c0-8.573.459-15.92,7.983-19a12.758,12.758,0,0,0,7.851-11.828V451.222a4.793,4.793,0,0,0-4.793-4.793h-5.265c-7.184,0-16.015-5.823-16.015-13.007v-4.158a2.582,2.582,0,0,0-2.582-2.582H349.3a2.582,2.582,0,0,0-2.582,2.582v4.158c0,7.183-8.33,13.007-15.514,13.007h-5.265a4.793,4.793,0,0,0-4.793,4.793v25.231a12.821,12.821,0,0,0,7.9,11.848c7.472,3.1,8.344,10.43,8.344,18.984v3.632s-17.453,26.369-17.453,40.353l10.136,14.342s-12.192,5.334,32.933,5.334,41.07-1.183,41.07-1.183l-1.2-16.979c0-13.984-16.835-41.866-16.835-41.866" transform="translate(-281.003 -374.753)" fill="#b59194"/>
            <g id="Grupo_1195618" data-name="Grupo 1195618" transform="translate(80.694 55.302)" opacity="0.33">
              <g id="Grupo_1195617" data-name="Grupo 1195617">
                <g id="Grupo_1195616" data-name="Grupo 1195616" clip-path="url(#clip-path-16)">
                  <path id="Trazado_1016483" data-name="Trazado 1016483" d="M663.358,454.6a21.382,21.382,0,0,0-.3,5.282c.026.925.079,1.85.165,2.771a6.051,6.051,0,0,0,.443,2.242.35.35,0,0,0,.634-.083,8.693,8.693,0,0,0-.134-2.505q-.119-1.21-.173-2.425c-.077-1.732.061-3.477-.059-5.2-.022-.313-.5-.42-.577-.078" transform="translate(-663.029 -454.393)" fill="#d1b0b4"/>
                </g>
              </g>
            </g>
            <g id="Grupo_1195621" data-name="Grupo 1195621" transform="translate(81.041 74.567)" opacity="0.33">
              <g id="Grupo_1195620" data-name="Grupo 1195620">
                <g id="Grupo_1195619" data-name="Grupo 1195619" clip-path="url(#clip-path-17)">
                  <path id="Trazado_1016484" data-name="Trazado 1016484" d="M666.015,613.013c-.026,1.521-.06,3.042-.079,4.563a15.614,15.614,0,0,0,.193,4.273.231.231,0,0,0,.442,0,15.543,15.543,0,0,0,.193-4.273c-.02-1.521-.053-3.042-.079-4.563a.335.335,0,0,0-.67,0" transform="translate(-665.886 -612.69)" fill="#d1b0b4"/>
                </g>
              </g>
            </g>
            <g id="Grupo_1195624" data-name="Grupo 1195624" transform="translate(80.774 90.88)" opacity="0.33">
              <g id="Grupo_1195623" data-name="Grupo 1195623">
                <g id="Grupo_1195622" data-name="Grupo 1195622" clip-path="url(#clip-path-18)">
                  <path id="Trazado_1016485" data-name="Trazado 1016485" d="M663.853,747.031c-.1,1.27-.165,2.534-.162,3.808a16.778,16.778,0,0,0,.207,3.537.284.284,0,0,0,.544,0,16.864,16.864,0,0,0,.207-3.537c.005-1.275-.064-2.538-.162-3.808a.317.317,0,0,0-.635,0" transform="translate(-663.689 -746.725)" fill="#d1b0b4"/>
                </g>
              </g>
            </g>
            <g id="Grupo_1195627" data-name="Grupo 1195627" transform="translate(80.4 106.559)" opacity="0.33">
              <g id="Grupo_1195626" data-name="Grupo 1195626">
                <g id="Grupo_1195625" data-name="Grupo 1195625" clip-path="url(#clip-path-19)">
                  <path id="Trazado_1016486" data-name="Trazado 1016486" d="M660.8,875.724q-.043,2.093-.086,4.186a17.018,17.018,0,0,0,.052,3.895.219.219,0,0,0,.419,0,16.949,16.949,0,0,0,.052-3.895q-.043-2.093-.086-4.186a.176.176,0,0,0-.353,0" transform="translate(-660.622 -875.554)" fill="#d1b0b4"/>
                </g>
              </g>
            </g>
            <g id="Grupo_1195630" data-name="Grupo 1195630" transform="translate(80.13 123.699)" opacity="0.33">
              <g id="Grupo_1195629" data-name="Grupo 1195629">
                <g id="Grupo_1195628" data-name="Grupo 1195628" clip-path="url(#clip-path-20)">
                  <path id="Trazado_1016487" data-name="Trazado 1016487" d="M658.679,1016.714a68.876,68.876,0,0,0-.259,8.273.6.6,0,0,0,1.2,0,68.912,68.912,0,0,0-.259-8.273.341.341,0,0,0-.682,0" transform="translate(-658.395 -1016.385)" fill="#d1b0b4"/>
                </g>
              </g>
            </g>
            <g id="Grupo_1195633" data-name="Grupo 1195633" transform="translate(79.173 145.112)" opacity="0.33">
              <g id="Grupo_1195632" data-name="Grupo 1195632">
                <g id="Grupo_1195631" data-name="Grupo 1195631" clip-path="url(#clip-path-21)">
                  <path id="Trazado_1016488" data-name="Trazado 1016488" d="M650.892,1192.491a26.083,26.083,0,0,0-.292,4.949,19.09,19.09,0,0,0,.2,4.976.332.332,0,0,0,.635,0,19.156,19.156,0,0,0,.2-4.976,26.1,26.1,0,0,0-.292-4.949.231.231,0,0,0-.442,0" transform="translate(-650.535 -1192.327)" fill="#d1b0b4"/>
                </g>
              </g>
            </g>
            <g id="Grupo_1195636" data-name="Grupo 1195636" transform="translate(79.514 162.179)" opacity="0.33">
              <g id="Grupo_1195635" data-name="Grupo 1195635">
                <g id="Grupo_1195634" data-name="Grupo 1195634" clip-path="url(#clip-path-22)">
                  <path id="Trazado_1016489" data-name="Trazado 1016489" d="M653.359,1333.464a19.861,19.861,0,0,1,.206,3.4,10.122,10.122,0,0,0,.27,2.983.255.255,0,0,0,.487,0,10.105,10.105,0,0,0,.27-2.983,19.86,19.86,0,0,1,.206-3.4.739.739,0,1,0-1.439,0" transform="translate(-653.341 -1332.559)" fill="#d1b0b4"/>
                </g>
              </g>
            </g>
            <g id="Grupo_1195639" data-name="Grupo 1195639" transform="translate(80.013 177.598)" opacity="0.33">
              <g id="Grupo_1195638" data-name="Grupo 1195638">
                <g id="Grupo_1195637" data-name="Grupo 1195637" clip-path="url(#clip-path-23)">
                  <path id="Trazado_1016490" data-name="Trazado 1016490" d="M657.586,1459.584c-.043,1.436-.107,2.873-.115,4.309a16.326,16.326,0,0,0,.184,4.039.284.284,0,0,0,.544,0,16.333,16.333,0,0,0,.184-4.039c-.008-1.436-.072-2.873-.115-4.309a.341.341,0,0,0-.682,0" transform="translate(-657.437 -1459.255)" fill="#d1b0b4"/>
                </g>
              </g>
            </g>
            <g id="Grupo_1195642" data-name="Grupo 1195642" transform="translate(79.906 192.317)" opacity="0.33">
              <g id="Grupo_1195641" data-name="Grupo 1195641">
                <g id="Grupo_1195640" data-name="Grupo 1195640" clip-path="url(#clip-path-24)">
                  <path id="Trazado_1016491" data-name="Trazado 1016491" d="M656.738,1580.593a29.735,29.735,0,0,0-.174,3.686,8.453,8.453,0,0,0,.378,3.382.248.248,0,0,0,.426,0,8.451,8.451,0,0,0,.378-3.382,29.713,29.713,0,0,0-.174-3.686.418.418,0,0,0-.834,0" transform="translate(-656.559 -1580.191)" fill="#d1b0b4"/>
                </g>
              </g>
            </g>
            <g id="Grupo_1195645" data-name="Grupo 1195645" transform="translate(63.518 71.084)" opacity="0.33">
              <g id="Grupo_1195644" data-name="Grupo 1195644">
                <g id="Grupo_1195643" data-name="Grupo 1195643" clip-path="url(#clip-path-25)">
                  <path id="Trazado_1016492" data-name="Trazado 1016492" d="M521.945,584.324a8.778,8.778,0,0,0,2.129,1.117,9.094,9.094,0,0,0,2.553.909.29.29,0,0,0,.2-.491,8.091,8.091,0,0,0-2.228-1.02,9.758,9.758,0,0,0-2.554-.765.148.148,0,0,0-.1.251" transform="translate(-521.901 -584.073)" fill="#d1b0b4"/>
                </g>
              </g>
            </g>
            <g id="Grupo_1195648" data-name="Grupo 1195648" transform="translate(75.801 73.501)" opacity="0.33">
              <g id="Grupo_1195647" data-name="Grupo 1195647">
                <g id="Grupo_1195646" data-name="Grupo 1195646" clip-path="url(#clip-path-26)">
                  <path id="Trazado_1016493" data-name="Trazado 1016493" d="M623.012,604.349c2.5.226,5.009.329,7.521.416.476.016.476-.726,0-.74-2.509-.073-5.013-.13-7.521-.063a.194.194,0,0,0,0,.388" transform="translate(-622.825 -603.931)" fill="#d1b0b4"/>
                </g>
              </g>
            </g>
            <g id="Grupo_1195651" data-name="Grupo 1195651" transform="translate(89.051 71.757)" opacity="0.33">
              <g id="Grupo_1195650" data-name="Grupo 1195650">
                <g id="Grupo_1195649" data-name="Grupo 1195649" clip-path="url(#clip-path-27)">
                  <path id="Trazado_1016494" data-name="Trazado 1016494" d="M731.976,591.417c1.873-.256,3.74-.561,5.581-1,.527-.126.3-.9-.222-.8-1.852.354-3.672.84-5.478,1.374-.284.084-.158.468.119.431" transform="translate(-731.696 -589.603)" fill="#d1b0b4"/>
                </g>
              </g>
            </g>
            <g id="Grupo_1195654" data-name="Grupo 1195654" transform="translate(63.159 138.191)" opacity="0.33">
              <g id="Grupo_1195653" data-name="Grupo 1195653">
                <g id="Grupo_1195652" data-name="Grupo 1195652" clip-path="url(#clip-path-28)">
                  <path id="Trazado_1016495" data-name="Trazado 1016495" d="M519.025,1135.837a9.583,9.583,0,0,0,3.665,1.933,7.92,7.92,0,0,0,4.17.368c.3-.089.351-.6,0-.657-1.277-.2-2.548-.06-3.83-.383a15.678,15.678,0,0,1-3.734-1.613c-.214-.118-.467.177-.271.351" transform="translate(-518.954 -1135.459)" fill="#d1b0b4"/>
                </g>
              </g>
            </g>
            <g id="Grupo_1195657" data-name="Grupo 1195657" transform="translate(77.208 140.368)" opacity="0.33">
              <g id="Grupo_1195656" data-name="Grupo 1195656">
                <g id="Grupo_1195655" data-name="Grupo 1195655" clip-path="url(#clip-path-29)">
                  <path id="Trazado_1016496" data-name="Trazado 1016496" d="M634.675,1154.4c1.159.042,2.321.012,3.48-.037a6.873,6.873,0,0,0,2.908-.364.25.25,0,0,0-.059-.451,7.609,7.609,0,0,0-3.2-.031c-1.074.075-2.144.158-3.21.3-.339.047-.238.566.078.577" transform="translate(-634.386 -1153.352)" fill="#d1b0b4"/>
                </g>
              </g>
            </g>
            <g id="Grupo_1195660" data-name="Grupo 1195660" transform="translate(88.608 137.621)" opacity="0.33">
              <g id="Grupo_1195659" data-name="Grupo 1195659">
                <g id="Grupo_1195658" data-name="Grupo 1195658" clip-path="url(#clip-path-30)">
                  <path id="Trazado_1016497" data-name="Trazado 1016497" d="M728.6,1133.191c1.1-.264,2.2-.519,3.3-.8a8.907,8.907,0,0,0,2.986-.977.338.338,0,0,0-.169-.624,8.928,8.928,0,0,0-3.087.622c-1.091.3-2.175.616-3.262.927a.441.441,0,0,0,.234.85" transform="translate(-728.058 -1130.776)" fill="#d1b0b4"/>
                </g>
              </g>
            </g>
            <g id="Grupo_1195663" data-name="Grupo 1195663" transform="translate(45.023 102.698)" opacity="0.33">
              <g id="Grupo_1195662" data-name="Grupo 1195662">
                <g id="Grupo_1195661" data-name="Grupo 1195661" clip-path="url(#clip-path-31)">
                  <path id="Trazado_1016498" data-name="Trazado 1016498" d="M370.236,844.682l2.251.771a6.617,6.617,0,0,0,2.076.538.326.326,0,0,0,.163-.6,6.751,6.751,0,0,0-2-.805l-2.263-.728c-.529-.17-.747.65-.228.827" transform="translate(-369.94 -843.831)" fill="#d1b0b4"/>
                </g>
              </g>
            </g>
            <g id="Grupo_1195666" data-name="Grupo 1195666" transform="translate(58.713 105.994)" opacity="0.33">
              <g id="Grupo_1195665" data-name="Grupo 1195665">
                <g id="Grupo_1195664" data-name="Grupo 1195664" clip-path="url(#clip-path-32)">
                  <path id="Trazado_1016499" data-name="Trazado 1016499" d="M482.587,871.373c1.021.186,2.035.407,3.062.551a8.217,8.217,0,0,0,2.586.151.243.243,0,0,0,.058-.44,8.215,8.215,0,0,0-2.538-.5c-1.032-.116-2.07-.153-3.106-.227-.261-.019-.324.414-.062.462" transform="translate(-482.419 -870.911)" fill="#d1b0b4"/>
                </g>
              </g>
            </g>
            <g id="Grupo_1195669" data-name="Grupo 1195669" transform="translate(74.333 106.751)" opacity="0.33">
              <g id="Grupo_1195668" data-name="Grupo 1195668">
                <g id="Grupo_1195667" data-name="Grupo 1195667" clip-path="url(#clip-path-33)">
                  <path id="Trazado_1016500" data-name="Trazado 1016500" d="M611.057,878.032a15.67,15.67,0,0,0,3.493.288c1.064.053,2.483.374,3.49-.011.289-.111.434-.566.1-.73a8.934,8.934,0,0,0-3.416-.334,16.4,16.4,0,0,0-3.662-.006.415.415,0,0,0,0,.793" transform="translate(-610.763 -877.127)" fill="#d1b0b4"/>
                </g>
              </g>
            </g>
            <g id="Grupo_1195672" data-name="Grupo 1195672" transform="translate(89.948 106.65)" opacity="0.33">
              <g id="Grupo_1195671" data-name="Grupo 1195671">
                <g id="Grupo_1195670" data-name="Grupo 1195670" clip-path="url(#clip-path-34)">
                  <path id="Trazado_1016501" data-name="Trazado 1016501" d="M739.309,877.181a12.5,12.5,0,0,0,3.106.222,8.613,8.613,0,0,0,3.109-.312c.3-.121.4-.637,0-.714a13.937,13.937,0,0,0-3.109.052c-1.033.041-2.082-.047-3.106.094-.345.047-.3.579,0,.657" transform="translate(-739.066 -876.297)" fill="#d1b0b4"/>
                </g>
              </g>
            </g>
            <g id="Grupo_1195675" data-name="Grupo 1195675" transform="translate(104.43 104.447)" opacity="0.33">
              <g id="Grupo_1195674" data-name="Grupo 1195674">
                <g id="Grupo_1195673" data-name="Grupo 1195673" clip-path="url(#clip-path-35)">
                  <path id="Trazado_1016502" data-name="Trazado 1016502" d="M858.453,859.665c1.891.013,4.208-.008,5.914-.927a.29.29,0,0,0-.145-.537,16.532,16.532,0,0,0-2.649.331c-1.033.152-2.077.259-3.12.322a.406.406,0,0,0,0,.811" transform="translate(-858.061 -858.2)" fill="#d1b0b4"/>
                </g>
              </g>
            </g>
            <g id="Grupo_1195678" data-name="Grupo 1195678" transform="translate(116.628 102.154)" opacity="0.33">
              <g id="Grupo_1195677" data-name="Grupo 1195677">
                <g id="Grupo_1195676" data-name="Grupo 1195676" clip-path="url(#clip-path-36)">
                  <path id="Trazado_1016503" data-name="Trazado 1016503" d="M958.517,840.918a9.023,9.023,0,0,0,3.908-.995.307.307,0,0,0-.235-.558,12.848,12.848,0,0,0-1.863.561c-.622.186-1.253.333-1.872.53-.241.077-.214.479.063.462" transform="translate(-958.29 -839.361)" fill="#d1b0b4"/>
                </g>
              </g>
            </g>
            <g id="Grupo_1195681" data-name="Grupo 1195681" transform="translate(60.488 194.495)" opacity="0.33">
              <g id="Grupo_1195680" data-name="Grupo 1195680">
                <g id="Grupo_1195679" data-name="Grupo 1195679" clip-path="url(#clip-path-37)">
                  <path id="Trazado_1016504" data-name="Trazado 1016504" d="M497.217,1598.786c1.313.037,2.619.131,3.931.161a11.9,11.9,0,0,0,3.669-.09.3.3,0,0,0,0-.578,11.962,11.962,0,0,0-3.669-.09c-1.312.031-2.619.124-3.931.161a.218.218,0,0,0,0,.435" transform="translate(-497.007 -1598.089)" fill="#d1b0b4"/>
                </g>
              </g>
            </g>
            <g id="Grupo_1195684" data-name="Grupo 1195684" transform="translate(81.916 195.151)" opacity="0.33">
              <g id="Grupo_1195683" data-name="Grupo 1195683">
                <g id="Grupo_1195682" data-name="Grupo 1195682" clip-path="url(#clip-path-38)">
                  <path id="Trazado_1016505" data-name="Trazado 1016505" d="M673.166,1603.9c2.5.03,5.029.351,7.521.182a.276.276,0,0,0,0-.552c-2.492-.169-5.025.153-7.521.182a.094.094,0,0,0,0,.188" transform="translate(-673.075 -1603.481)" fill="#d1b0b4"/>
                </g>
              </g>
            </g>
            <g id="Grupo_1195687" data-name="Grupo 1195687" transform="translate(103.717 193.056)" opacity="0.33">
              <g id="Grupo_1195686" data-name="Grupo 1195686">
                <g id="Grupo_1195685" data-name="Grupo 1195685" clip-path="url(#clip-path-39)">
                  <path id="Trazado_1016506" data-name="Trazado 1016506" d="M852.637,1587.72c1.408-.238,2.818-.434,4.239-.571,1.249-.12,2.509-.1,3.746-.316a.172.172,0,0,0,0-.329c-2.586-.561-5.623-.043-8.169.547-.441.1-.248.742.184.669" transform="translate(-852.202 -1586.264)" fill="#d1b0b4"/>
                </g>
              </g>
            </g>
            <g id="Grupo_1195690" data-name="Grupo 1195690" transform="translate(118.97 191.34)" opacity="0.33">
              <g id="Grupo_1195689" data-name="Grupo 1195689">
                <g id="Grupo_1195688" data-name="Grupo 1195688" clip-path="url(#clip-path-40)">
                  <path id="Trazado_1016507" data-name="Trazado 1016507" d="M977.921,1573.449c1.444.074,3.4.139,4.7-.594a.373.373,0,0,0-.187-.69,14.813,14.813,0,0,0-2.03.336,14.775,14.775,0,0,1-2.481.138.406.406,0,0,0,0,.811" transform="translate(-977.53 -1572.165)" fill="#d1b0b4"/>
                </g>
              </g>
            </g>
            <path id="Trazado_1016508" data-name="Trazado 1016508" d="M632.23,368.8a4.3,4.3,0,1,1-4.3-4.3,4.3,4.3,0,0,1,4.3,4.3" transform="translate(-547.738 -320.144)" fill="#9e8084"/>
            <path id="Trazado_1016509" data-name="Trazado 1016509" d="M568.167,432.048h-29.41v-4.773a.592.592,0,0,1,.592-.592h28.227a.592.592,0,0,1,.592.592Z" transform="translate(-473.188 -374.753)" fill="#9e8084"/>
            <path id="Trazado_1016510" data-name="Trazado 1016510" d="M308.272,568.053l14.26-2.776,23.064,53.4.515,78.253-32.591-.345a79.147,79.147,0,0,1-7.586-9.306c-5.177-7.056-6.248-8.617-6.248-8.617a77.9,77.9,0,0,1,1.968-12.776c2.868-10.163,7.644-27.8,6.595-38.275a200.932,200.932,0,0,1-.9-20.388,129.85,129.85,0,0,0,1.67-20c.025-10.752-.751-19.169-.751-19.169" transform="translate(-263.214 -496.48)" fill="#565763"/>
            <path id="Trazado_1016511" data-name="Trazado 1016511" d="M636.738,963.491l-2.994,5.286L633.6,1046.6h8.656l-4.262-81.039Z" transform="translate(-556.486 -846.229)" fill="#41424c"/>
            <path id="Trazado_1016512" data-name="Trazado 1016512" d="M684.635,568.053l-14.26-2.776-23.064,53.4v78.179l46.812.5s-.236-22.133-2.87-31.467c-2.868-10.163-7.644-27.8-6.595-38.275a200.922,200.922,0,0,0,.9-20.388,129.841,129.841,0,0,1-1.67-20c-.025-10.752.751-19.169.751-19.169" transform="translate(-568.53 -496.48)" fill="#565763"/>
            <path id="Trazado_1016513" data-name="Trazado 1016513" d="M654.342,1011.138a17.131,17.131,0,0,1,.189,2.161c.01.335.017.67.009,1.005a7.727,7.727,0,0,0-.019,1.07.14.14,0,0,0,.274.037,6.369,6.369,0,0,0,.112-2.18,13.965,13.965,0,0,0-.316-2.163c-.036-.165-.275-.092-.249.069" transform="translate(-574.704 -887.935)" fill="#e1cebf"/>
            <path id="Trazado_1016514" data-name="Trazado 1016514" d="M655.543,1107.605a17.119,17.119,0,0,0-.1,2.343,7.35,7.35,0,0,0,.255,2.234.13.13,0,0,0,.253-.034,7.873,7.873,0,0,0-.107-1.13q-.058-.567-.08-1.137a20.109,20.109,0,0,1,.031-2.276c.012-.162-.233-.157-.25,0" transform="translate(-575.665 -972.699)" fill="#e1cebf"/>
            <path id="Trazado_1016515" data-name="Trazado 1016515" d="M658.02,1197.125c.04.955.079,1.91.132,2.864.025.455.048.91.077,1.364a6.618,6.618,0,0,0,.147,1.4c.034.119.238.138.261,0a6.3,6.3,0,0,0-.01-1.332c-.025-.478-.057-.955-.086-1.432-.059-.956-.132-1.91-.2-2.864-.015-.2-.325-.205-.316,0" transform="translate(-577.936 -1051.295)" fill="#e1cebf"/>
            <path id="Trazado_1016516" data-name="Trazado 1016516" d="M659.795,1311.1c-.027,1-.054,2-.057,3q0,.75,0,1.5a6.068,6.068,0,0,0,.044,1.406.164.164,0,0,0,.313,0,6.055,6.055,0,0,0,.044-1.406q0-.75,0-1.5c0-1-.03-2-.057-3a.142.142,0,0,0-.283,0" transform="translate(-579.426 -1151.409)" fill="#e1cebf"/>
            <path id="Trazado_1016517" data-name="Trazado 1016517" d="M653.572,1429.113q-.066,1.767-.131,3.534l-.064,1.732c-.01.277-.016.554-.02.831a2.858,2.858,0,0,0,.038.858.1.1,0,0,0,.189,0,2.646,2.646,0,0,0,.094-.788c.018-.3.034-.6.045-.9q.031-.866.063-1.732l.128-3.534c.008-.22-.333-.219-.341,0" transform="translate(-573.828 -1255.039)" fill="#e1cebf"/>
            <path id="Trazado_1016518" data-name="Trazado 1016518" d="M655.564,1562.61q0,1.633,0,3.266c0,.544,0,1.089,0,1.633a8.184,8.184,0,0,0,.054,1.533.136.136,0,0,0,.261,0,8.179,8.179,0,0,0,.054-1.533c0-.544,0-1.089,0-1.633l0-3.266a.183.183,0,0,0-.366,0" transform="translate(-575.77 -1372.277)" fill="#e1cebf"/>
            <path id="Trazado_1016519" data-name="Trazado 1016519" d="M775.956,766.3l.3,3.661c.048.6.1,1.2.156,1.8a13.653,13.653,0,0,0,.2,1.755c.027.12.2.088.208-.028a13.892,13.892,0,0,0-.129-1.8q-.083-.9-.173-1.8l-.366-3.592c-.012-.118-.2-.121-.187,0" transform="translate(-681.519 -672.959)" fill="#e1cebf"/>
            <path id="Trazado_1016520" data-name="Trazado 1016520" d="M782.205,951.742q.08,2.5.161,5,.039,1.215.078,2.43c.013.417.032.833.05,1.25a6.356,6.356,0,0,0,.086,1.218c.031.13.249.14.273,0a5.975,5.975,0,0,0,.009-1.148c-.01-.416-.019-.833-.033-1.25q-.042-1.25-.087-2.5-.087-2.5-.174-5c-.008-.233-.37-.234-.362,0" transform="translate(-687.007 -835.757)" fill="#e1cebf"/>
            <path id="Trazado_1016521" data-name="Trazado 1016521" d="M785.254,1109.735q-.1,2.232-.213,4.464c-.036.732-.064,1.465-.095,2.2a11.759,11.759,0,0,0-.031,2.163c.019.126.218.116.245,0a11.353,11.353,0,0,0,.136-2.094c.028-.755.06-1.511.083-2.266q.067-2.232.142-4.464c.006-.172-.259-.171-.266,0" transform="translate(-689.348 -974.563)" fill="#e1cebf"/>
            <path id="Trazado_1016522" data-name="Trazado 1016522" d="M785.334,1275.778c.069,1.356.131,2.713.2,4.069.033.667.067,1.333.11,2a11.024,11.024,0,0,0,.211,1.96c.032.128.2.083.213-.029a11.708,11.708,0,0,0-.014-2.069c-.03-.644-.071-1.287-.111-1.931-.083-1.333-.169-2.666-.25-4-.014-.229-.37-.231-.358,0" transform="translate(-689.755 -1120.358)" fill="#e1cebf"/>
            <path id="Trazado_1016523" data-name="Trazado 1016523" d="M793.165,1416.41l.411,3.664c.132,1.181.2,2.391.449,3.554a.1.1,0,0,0,.2-.027c-.026-1.2-.235-2.405-.376-3.6l-.426-3.6c-.019-.16-.272-.163-.254,0" transform="translate(-696.633 -1243.92)" fill="#e1cebf"/>
            <path id="Trazado_1016524" data-name="Trazado 1016524" d="M796.181,1545.246q.081,2,0,4c-.027.655-.068,1.31-.115,1.964a18.262,18.262,0,0,0-.137,2.026.136.136,0,0,0,.266.036,10.325,10.325,0,0,0,.249-1.926c.055-.676.09-1.354.11-2.032q.061-2.035-.05-4.069c-.011-.208-.333-.21-.325,0" transform="translate(-699.06 -1357.045)" fill="#e1cebf"/>
            <path id="Trazado_1016525" data-name="Trazado 1016525" d="M482.76,1146.878c-.007,1.4-.024,2.8-.027,4.2q0,1.033,0,2.065a11.873,11.873,0,0,0,.04,2.029.122.122,0,0,0,.233,0,11.454,11.454,0,0,0,.041-1.96q0-1.067,0-2.134c0-1.4-.021-2.8-.027-4.2a.127.127,0,0,0-.254,0" transform="translate(-423.959 -1007.19)" fill="#e1cebf"/>
            <path id="Trazado_1016526" data-name="Trazado 1016526" d="M474.025,1385.233q-.154,2.766-.307,5.531l-.147,2.7c-.025.461-.05.922-.071,1.383a6.561,6.561,0,0,0-.008,1.355c.026.156.259.137.3,0a6.253,6.253,0,0,0,.125-1.285q.04-.691.074-1.383.069-1.383.137-2.766.137-2.766.27-5.531c.012-.239-.357-.237-.371,0" transform="translate(-415.836 -1216.487)" fill="#e1cebf"/>
            <path id="Trazado_1016527" data-name="Trazado 1016527" d="M464.933,1556.179a31.132,31.132,0,0,0-.3,3.1q-.033.785-.019,1.571a5.735,5.735,0,0,0,.116,1.542c.041.134.27.159.3,0a7.934,7.934,0,0,0-.01-1.474q-.017-.785,0-1.571c.021-1.046.086-2.091.2-3.131.019-.164-.267-.2-.29-.039" transform="translate(-408.067 -1366.692)" fill="#e1cebf"/>
            <path id="Trazado_1016528" data-name="Trazado 1016528" d="M371.494,1224.264l1.531.422a9.175,9.175,0,0,0,1.438.337.1.1,0,0,0,.049-.182,9.16,9.16,0,0,0-1.415-.417l-1.54-.389a.119.119,0,0,0-.063.229" transform="translate(-326.208 -1075.06)" fill="#e1cebf"/>
            <path id="Trazado_1016529" data-name="Trazado 1016529" d="M460.869,1241.028a12.652,12.652,0,0,0,2.786.332,12.426,12.426,0,0,0,1.442-.078,3.989,3.989,0,0,0,1.247-.262c.152-.073.066-.293-.081-.3a9.19,9.19,0,0,0-1.3.152,12.616,12.616,0,0,1-1.311.07,13.174,13.174,0,0,1-2.687-.273c-.232-.048-.332.3-.1.357" transform="translate(-404.662 -1089.671)" fill="#e1cebf"/>
            <path id="Trazado_1016530" data-name="Trazado 1016530" d="M706.527,1242a13.757,13.757,0,0,0,2.556.011c.387-.04.773-.1,1.156-.167a3.178,3.178,0,0,0,1.167-.344.141.141,0,0,0-.07-.26,4.522,4.522,0,0,0-1.073.2c-.433.089-.87.159-1.31.2a14.333,14.333,0,0,1-2.426.076c-.183-.012-.18.269,0,.283" transform="translate(-620.42 -1090.171)" fill="#e1cebf"/>
            <path id="Trazado_1016531" data-name="Trazado 1016531" d="M820.354,1236.945q1.169-.107,2.336-.233l1.1-.117a4.215,4.215,0,0,0,1.129-.17c.09-.037.123-.2,0-.217a3.826,3.826,0,0,0-1.06.061l-1.168.13q-1.169.13-2.336.276c-.169.021-.176.287,0,.271" transform="translate(-720.4 -1085.737)" fill="#e1cebf"/>
            <path id="Trazado_1016532" data-name="Trazado 1016532" d="M914.691,1224.772l2.13-.415q.532-.1,1.064-.21a6.026,6.026,0,0,0,1.056-.24c.137-.055.132-.277-.037-.274a5.417,5.417,0,0,0-.974.168q-.565.115-1.128.233l-2.188.46c-.182.038-.1.312.076.277" transform="translate(-803.211 -1074.712)" fill="#e1cebf"/>
            <path id="Trazado_1016533" data-name="Trazado 1016533" d="M844.317,579.451a6.986,6.986,0,0,0,1.639.257.13.13,0,0,0,.034-.254,6.838,6.838,0,0,0-1.588-.312c-.2-.027-.292.264-.085.309" transform="translate(-741.458 -508.655)" fill="#e1cebf"/>
            <path id="Trazado_1016534" data-name="Trazado 1016534" d="M883.675,583.471a4.635,4.635,0,0,1,1.18-.012c.313.042.687.235,1,.156a.118.118,0,0,0,.07-.171c-.188-.3-.685-.356-1.009-.4a3.361,3.361,0,0,0-1.283.081c-.185.048-.153.369.046.344" transform="translate(-775.98 -512.062)" fill="#e1cebf"/>
            <path id="Trazado_1016535" data-name="Trazado 1016535" d="M921.171,592.716l1.332.02a2.659,2.659,0,0,0,1.12-.059.107.107,0,0,0,0-.183,2.653,2.653,0,0,0-1.12-.059l-1.332.02a.131.131,0,0,0,0,.262" transform="translate(-808.949 -520.305)" fill="#e1cebf"/>
            <path id="Trazado_1016536" data-name="Trazado 1016536" d="M828.626,595.385c-.258.509-.543,1.02-.822,1.521a10.826,10.826,0,0,0-.8,1.423c-.038.1.1.16.17.1a5.119,5.119,0,0,0,.95-1.41,9.859,9.859,0,0,0,.669-1.565.09.09,0,0,0-.164-.069" transform="translate(-726.345 -522.885)" fill="#e1cebf"/>
            <path id="Trazado_1016537" data-name="Trazado 1016537" d="M798.145,647.691a24.2,24.2,0,0,0-1.471,2.4c-.221.414-.437.832-.628,1.261a3.362,3.362,0,0,0-.4,1.144.09.09,0,0,0,.153.063,4.594,4.594,0,0,0,.6-1.149c.193-.4.388-.808.6-1.2.429-.811.9-1.6,1.409-2.364.109-.165-.152-.312-.263-.153" transform="translate(-698.814 -568.804)" fill="#e1cebf"/>
            <path id="Trazado_1016538" data-name="Trazado 1016538" d="M780.8,707.105c-.235.463-.47.924-.716,1.382a5.951,5.951,0,0,0-.624,1.314c-.025.1.116.208.195.113a5.936,5.936,0,0,0,.682-1.279c.22-.471.451-.936.682-1.4.072-.146-.145-.274-.219-.128" transform="translate(-684.598 -620.99)" fill="#e1cebf"/>
            <path id="Trazado_1016539" data-name="Trazado 1016539" d="M699.335,895.6a10.323,10.323,0,0,0-.984,1.242,4.235,4.235,0,0,0-.718,1.408.069.069,0,0,0,.126.053c.3-.391.483-.884.742-1.3a10.215,10.215,0,0,1,.946-1.288c.066-.076-.042-.188-.112-.112" transform="translate(-612.727 -786.579)" fill="#e1cebf"/>
            <path id="Trazado_1016540" data-name="Trazado 1016540" d="M675.287,940.985a7.446,7.446,0,0,1-.57,1.852,7.584,7.584,0,0,1-.441.823c-.161.262-.376.5-.511.778a.123.123,0,0,0,.193.149,4.317,4.317,0,0,0,1.066-1.638,7.059,7.059,0,0,0,.523-1.893c.023-.168-.231-.246-.261-.072" transform="translate(-591.752 -826.376)" fill="#e1cebf"/>
            <path id="Trazado_1016541" data-name="Trazado 1016541" d="M579.318,820.565a14.7,14.7,0,0,0,.9,2,6.318,6.318,0,0,0,1.24,1.8.115.115,0,0,0,.18-.139,7.125,7.125,0,0,0-.569-.877q-.29-.437-.546-.9a14.131,14.131,0,0,1-.912-1.979c-.068-.184-.366-.1-.3.082" transform="translate(-508.804 -720.534)" fill="#e1cebf"/>
            <path id="Trazado_1016542" data-name="Trazado 1016542" d="M614.545,895.282a4.138,4.138,0,0,0,.577,1.564,2.844,2.844,0,0,0,1.112,1.121.069.069,0,0,0,.083-.108,8.461,8.461,0,0,1-1.026-1.174,3.979,3.979,0,0,1-.525-1.465c-.023-.145-.243-.084-.221.061" transform="translate(-539.751 -786.195)" fill="#e1cebf"/>
            <path id="Trazado_1016543" data-name="Trazado 1016543" d="M397.128,592.966l-9.18,2.088-.562,21.306,12.2,2.892-9.977,6.9L411.264,688.4l2.7-35.594s-11.845-38.77-14.075-46.972a96.256,96.256,0,0,1-2.76-12.864" transform="translate(-340.239 -520.799)" fill="#41424c"/>
            <path id="Trazado_1016544" data-name="Trazado 1016544" d="M465.488,490.143c1.058,0,2.722-5.867,6.7-12.67.492-.842-5.456-1.095-6.863,3.436-1.274,4.1-3.687,9.233.167,9.233" transform="translate(-407 -418.931)" fill="#f3a68f"/>
            <path id="Trazado_1016545" data-name="Trazado 1016545" d="M405.193,555.359l-9.178,2.1-.545,21.306,12.205,2.882-9.971,6.9,21.7,62.231,2.67-35.6s-11.876-38.761-14.112-46.961a96.241,96.241,0,0,1-2.77-12.862" transform="translate(-347.34 -487.769)" fill="#e1cebf"/>
            <path id="Trazado_1016546" data-name="Trazado 1016546" d="M489.008,950.27a25.222,25.222,0,0,1,.8,6.279,26.507,26.507,0,0,1-.178,3.119c-.122,1.031-.365,2.043-.487,3.073-.011.095.126.1.155.021a13.06,13.06,0,0,0,.635-3.094,24.144,24.144,0,0,0,.169-3.184,25.5,25.5,0,0,0-.882-6.273.11.11,0,0,0-.213.059" transform="translate(-429.49 -834.497)" fill="#e1cebf"/>
            <path id="Trazado_1016547" data-name="Trazado 1016547" d="M573.016,1243.44c.644-.04,1.289-.072,1.932-.125a8.519,8.519,0,0,0,1.834-.194c.128-.041.16-.271,0-.293a8.5,8.5,0,0,0-1.834.12c-.645.06-1.288.141-1.932.214-.174.02-.182.29,0,.279" transform="translate(-503.16 -1091.549)" fill="#e1cebf"/>
            <path id="Trazado_1016548" data-name="Trazado 1016548" d="M364.02,429.464c2.115,2.014,8.681-3.007,7.416-4.63-1.364-1.749-3.559,1.76-2.923.91,1.632-2.183,16.585-3.376,15.177-6.046a8.11,8.11,0,0,0-4.857-4.521c-3.589-1.373-5.088-.308-7.929,1.8a23.992,23.992,0,0,0-6.292,6.366c-1.558,2.316-2.3,4.493-.591,6.123" transform="translate(-318.857 -364.107)" fill="#f3a68f"/>
            <path id="Trazado_1016549" data-name="Trazado 1016549" d="M406.748,453.1c1.848.081,1.385-11.063,1.893-12.108,2.258-4.657,9.36-.418,11.427-3.82,1.388-2.286-3.236-6.937-5.812-5.937s-8.442,7.4-9.881,11.264c-.656,1.764-.479,10.476,2.373,10.6" transform="translate(-354.883 -378.626)" fill="#f3a68f"/>
            <path id="Trazado_1016550" data-name="Trazado 1016550" d="M431.515,463.23c1.632-.858-.358-4.168.985-9.166s4.938-3.935,7.636-6.861-2.123-6.1-4.4-4.532-6.754,7.2-7.365,10.723.615,11.165,3.142,9.836" transform="translate(-376.103 -388.43)" fill="#f3a68f"/>
            <path id="Trazado_1016551" data-name="Trazado 1016551" d="M382.073,466c2.188.6,1.846-2.005,3.308-4.141,2.652-3.875,4.283-3.863,4.989-5.427,1.637-3.629-.531-2.361-3.265-1.964s-2.431,2.152-4.443,5.1c-2.277,3.339-3.449,5.65-.587,6.428" transform="translate(-334.09 -398.684)" fill="#f3a68f"/>
            <path id="Trazado_1016552" data-name="Trazado 1016552" d="M717.24,528.319c-18.942,12.132-28.766,24.838-38.068,31.107-15.187-4.64-30.466-8.954-41.429-13.066-2.249-.843-2.807,3.092-2.934,9.374-.093,4.6,2.121,10.025,2.934,10.59,17.842,12.406,29.3,22.22,36.659,24.955h0c9.019,4.793,37.884-10.532,59.527-36.978,12.7-15.521-1.536-35.687-16.689-25.982" transform="translate(-557.547 -461.79)" fill="#bad5ef"/>
            <path id="Trazado_1016553" data-name="Trazado 1016553" d="M556.3,658.82s.649,3.549,5.633,7.046c1.575,1.105,5.342,1.695,5.906.023,1.4-4.144-.118-13.561-.118-13.561s-1.333-1.307-2.495-2.46c-4.979-4.945-8.222-5.977-10.6-5.4-1.7.409,1.677,14.355,1.677,14.355" transform="translate(-486.707 -565.905)" fill="#f3a68f"/>
            <path id="Trazado_1016554" data-name="Trazado 1016554" d="M473.4,662.526c.16,1.513,2.164,2.023,7.621,3.462s7.825,1.94,5.814-2.517-2.025-3.548-7.622-3.241c-5.17.284-6,.551-5.813,2.3" transform="translate(-415.768 -579.624)" fill="#dc8e80"/>
            <path id="Trazado_1016555" data-name="Trazado 1016555" d="M440.485,629.892l6.622,6.922-.333.306Z" transform="translate(-386.876 -553.231)" fill="#aaa5a0"/>
            <path id="Trazado_1016556" data-name="Trazado 1016556" d="M489.036,683.386a.471.471,0,1,0-.593.3.471.471,0,0,0,.593-.3" transform="translate(-428.712 -599.674)" fill="#565763"/>
            <path id="Trazado_1016557" data-name="Trazado 1016557" d="M553.094,708.4c-3.5.421-6.931,1.9-7.38,5.217-.35,2.588,1.947,7.9,4.407,6.09,1.217-.9-3-5.531.719-2.064,2.252,2.1,11.43-1.261,7.772-4.052s-1.842-5.633-5.517-5.19" transform="translate(-479.267 -622.146)" fill="#f3a68f"/>
            <path id="Trazado_1016558" data-name="Trazado 1016558" d="M477.165,645.139c-3.5.421-12.2,1.516-11.12,3.332s4.583-.023,9.1.792,7.163,3.161,9.771,4.8,4.616-1.187.958-3.979-5.036-5.387-8.711-4.945" transform="translate(-409.245 -566.579)" fill="#f3a68f"/>
            <path id="Trazado_1016559" data-name="Trazado 1016559" d="M547.128,694.9c-3.5.422-9.4.888-8.867,2.934.923,3.563,3.916,1.963,8.434,2.779s4.108-6.155.432-5.713" transform="translate(-472.723 -610.308)" fill="#f3a68f"/>
            <path id="Trazado_1016560" data-name="Trazado 1016560" d="M536.318,672.608c-3.524.141-7.511-.325-6.99,1.985.565,2.505,1.918,2.018,5.276,2.411,4.561.534,7.115,2.816,9.584,4.657s1.8-1.635,1-2.42c-3.281-3.226-5.168-6.78-8.866-6.632" transform="translate(-464.866 -590.744)" fill="#f3a68f"/>
            <path id="Trazado_1016561" data-name="Trazado 1016561" d="M447.355,635.664l1.123,1.539-1.82,1.763-.993-1.6Z" transform="translate(-391.425 -558.301)" fill="#e1cebf"/>
            <path id="Trazado_1016562" data-name="Trazado 1016562" d="M997.044,812.669l-.225,1.923c-.026.22.271.3.409.169a10.364,10.364,0,0,0,2.361-3.255l-.447-.188c-.139.812.026,2.068.87,2.458a.166.166,0,0,0,.225-.225c-.147-.337-.384-.625-.508-.974a2.351,2.351,0,0,1-.116-1.13c.036-.245-.322-.466-.447-.188a9.788,9.788,0,0,1-2.278,3.163l.409.169q.11-.961.22-1.923c.035-.3-.44-.3-.475,0" transform="translate(-875.501 -712.412)" fill="#9ab6cc"/>
            <path id="Trazado_1016563" data-name="Trazado 1016563" d="M984.256,1030.418a3.713,3.713,0,0,0-2.6,1.683c-.245.4-.412.967.023,1.3a2.221,2.221,0,0,0,1.521.174,5,5,0,0,0,2.881-1.384,2.526,2.526,0,0,0,.851-1.323,1.192,1.192,0,0,0-.762-1.105c-.823-.4-2.283-.182-2.563.837a.2.2,0,0,0,.334.195,2.13,2.13,0,0,1,1.028-.638,1.407,1.407,0,0,1,1.188.254c.281.237.25.471.059.763a3.844,3.844,0,0,1-.486.594,4.447,4.447,0,0,1-1.171.846,4.394,4.394,0,0,1-1.412.432c-.378.048-1.42.193-1.182-.466a3.186,3.186,0,0,1,2.383-1.817c.229-.043.128-.378-.1-.345" transform="translate(-861.969 -904.27)" fill="#9ab6cc"/>
            <path id="Trazado_1016564" data-name="Trazado 1016564" d="M679.086,716.774a28.085,28.085,0,0,1,1.376,7.723,19.593,19.593,0,0,1-1.091,7.56c-.487,1.3-1.8,1.679-3.044,1.935-.438.09-.253.761.185.671a4.783,4.783,0,0,0,3.07-1.565,5.35,5.35,0,0,0,.689-1.683,16.991,16.991,0,0,0,.437-1.988,25.032,25.032,0,0,0-.121-8.278,24.567,24.567,0,0,0-1.211-4.455c-.067-.177-.35-.106-.289.08" transform="translate(-593.795 -629.379)" fill="#9ab6cc"/>
            <path id="Trazado_1016565" data-name="Trazado 1016565" d="M679.483,830.593a2.329,2.329,0,0,0,1.245.965c.4.1.964-.11.906-.614-.055-.478-.773-.6-1.141-.683s-.831-.058-.952.362a.194.194,0,0,0,.373.1c.06-.2.417-.1.55-.061s.871.181.7.458c-.09.141-.431.009-.526-.036a1.946,1.946,0,0,1-.276-.164,2.163,2.163,0,0,1-.523-.534c-.15-.213-.5-.01-.352.206" transform="translate(-596.755 -729.179)" fill="#9ab6cc"/>
          </g>
        </g>
      </g>
    </g>
  </g>
</svg>
