<svg xmlns="http://www.w3.org/2000/svg" xmlns:xlink="http://www.w3.org/1999/xlink" width="84" height="84" viewBox="0 0 84 84">
  <defs>
    <clipPath id="clip-path">
      <rect id="Rectángulo_462381" data-name="Rectángulo 462381" width="60.331" height="56.309" fill="#fff"/>
    </clipPath>
  </defs>
  <g id="Grupo_1195823" data-name="Grupo 1195823" transform="translate(-705.711 -10457.521)">
    <g id="Grupo_1195229" data-name="Grupo 1195229" transform="translate(8.495 476.602)">
      <g id="Grupo_1195228" data-name="Grupo 1195228" transform="translate(697.216 9980.92)" style="isolation: isolate">
        <g id="Grupo_1119665" data-name="Grupo 1119665">
          <rect id="Rectángulo_402006" data-name="Rectángulo 402006" width="84" height="84" rx="5" fill="#104936"/>
        </g>
      </g>
    </g>
    <g id="Grupo_1195696" data-name="Grupo 1195696" transform="translate(719.17 10472.08)">
      <g id="Grupo_1195695" data-name="Grupo 1195695" clip-path="url(#clip-path)">
        <path id="Trazado_1016566" data-name="Trazado 1016566" d="M59.326,24.132H45.976L44.8,6.972h0L44.408.94a1.006,1.006,0,0,0-1-.94H4.861a1.006,1.006,0,0,0-1,.94l-.4,6.033s0,0,0,0L2.73,17.966,0,55.229a1.006,1.006,0,0,0,1,1.079h17.5a1,1,0,0,0,.991-.838l4.637-27.339,4.639,27.339a1,1,0,0,0,.991.838h17.5a1.006,1.006,0,0,0,1-1.079l-.585-7.97H59.326a1,1,0,0,0,1.006-1.006V25.138a1,1,0,0,0-1.006-1.005M43.462,17.094H43.4a9.791,9.791,0,0,1-9.546-9.05h9ZM5.8,2.011H42.463l.263,4.022H5.539ZM22.247,8.044h3.771V18.7l-1.885,1.967L22.247,18.7Zm-16.841,0h9a9.791,9.791,0,0,1-9.546,9.05H4.8ZM17.656,54.3H2.088l2.576-35.2c.066,0,.131.011.2.011A11.806,11.806,0,0,0,16.417,8.044h3.82V19.1a1.009,1.009,0,0,0,.279.7l2.541,2.652Zm28.522,0H30.613l-5.4-31.845L27.754,19.8a1,1,0,0,0,.28-.7V8.044h3.815A11.806,11.806,0,0,0,43.4,19.1c.07,0,.14-.01.209-.011l.344,5.039H33.182a1,1,0,0,0-1.006,1.005V46.253a1,1,0,0,0,1.006,1.006H45.661Zm12.143-9.05H34.188v-19.1H58.32Z" transform="translate(0)" fill="#fff"/>
        <path id="Trazado_1016567" data-name="Trazado 1016567" d="M198.573,152.5l-2.721,2.721h-5.617a1.005,1.005,0,1,0,0,2.011h2.011v4.022a1.005,1.005,0,0,0,2.011,0v-4.022h2.011a1,1,0,0,0,.711-.295l1.3-1.3v5.617a1.005,1.005,0,0,0,2.011,0v-7.628l.416-.416h3.606v8.044a1.005,1.005,0,0,0,2.011,0v-8.044a1,1,0,0,0,.9-.556l2.011-4.022a1.006,1.006,0,0,0-1.8-.9L205.7,151.2H200.29a1.006,1.006,0,0,0-.711.295l-1,1,0,0" transform="translate(-153.031 -119.024)" fill="#fff"/>
      </g>
    </g>
  </g>
</svg>
