<svg xmlns="http://www.w3.org/2000/svg" xmlns:xlink="http://www.w3.org/1999/xlink" width="396" height="166.956" viewBox="0 0 396 166.956">
  <defs>
    <clipPath id="clip-path">
      <rect y="-5" width="396" height="166.956" fill="none"/>
    </clipPath>
    <clipPath id="clip-path-2">
      <rect id="Rectángulo_462194" data-name="Rectángulo 462194" width="396" height="173.956" fill="none"/>
    </clipPath>
    <clipPath id="clip-path-3">
      <rect id="Rectángulo_462193" data-name="Rectángulo 462193" width="396" height="392.749" fill="none"/>
    </clipPath>
    <clipPath id="clip-path-4">
      <rect id="Rectángulo_462131" data-name="Rectángulo 462131" width="0.607" height="7.219" fill="none"/>
    </clipPath>
  </defs>
  <g id="Grupo_1195823" data-name="Grupo 1195823" transform="translate(-1018 -11057.87)">
    <g id="Grupo_de_desplazamiento_1" data-name="Grupo de desplazamiento 1" transform="translate(1018 11062.87)" clip-path="url(#clip-path)" style="isolation: isolate">
      <g id="Grupo_1195327" data-name="Grupo 1195327">
        <g id="Grupo_1195326" data-name="Grupo 1195326" clip-path="url(#clip-path-2)">
          <g id="Grupo_1195325" data-name="Grupo 1195325" transform="translate(0 0)">
            <g id="Grupo_1195324" data-name="Grupo 1195324" clip-path="url(#clip-path-3)">
              <path id="Trazado_1015676" data-name="Trazado 1015676" d="M91.661,0S79.537,11.732,63.418,11.732,35.174,0,35.174,0L32.783,8.923C53.453,11.236,56.9,44.618,56.9,44.618H69.938S73.382,11.236,94.052,8.923Z" transform="translate(-21.221 0.001)" fill="#00586d"/>
              <path id="Trazado_1015677" data-name="Trazado 1015677" d="M77.809,64.3c-6.817,8.862-5.949,14.625-5.949,14.625H12.534S13.4,73.163,6.585,64.3C.463,56.343-.087,49.231.009,46.23a11.4,11.4,0,0,1,.13-1.511C7.516,28.025,6.532,10.167,5.758,3.2c0-.006,0-.012,0-.017,0-.035-.007-.07-.012-.1-.008-.069-.015-.138-.023-.2L13.953,0C14.427,19.788,26.891,35.64,42.2,35.64S69.966,19.788,70.44,0l8.232,2.879c-.777,6.716-1.913,24.879,5.581,41.84,0,0,1.656,9.051-6.445,19.582" transform="translate(0 0.001)" fill="#00586d"/>
              <path id="Trazado_1015678" data-name="Trazado 1015678" d="M63.9,37.906c16.168,0,29.391-16.423,30.374-37.163L92.139,0C91.665,19.788,79.2,35.639,63.9,35.639S36.126,19.788,35.651,0l-2.13.745C34.5,21.484,47.727,37.906,63.9,37.906" transform="translate(-21.698 0.001)" fill="#1795aa"/>
              <path id="Trazado_1015679" data-name="Trazado 1015679" d="M94.052,207.267H32.783a13.408,13.408,0,0,1,.972,5.825H93.08a13.408,13.408,0,0,1,.972-5.825" transform="translate(-21.221 -134.165)" fill="#1795aa"/>
              <path id="Trazado_1015680" data-name="Trazado 1015680" d="M86.222,345.312c0-39.1-10.349-54.813-10.349-54.813H16.556S6.207,306.215,6.207,345.312H43.963v-19.6a2.252,2.252,0,0,1,4.5,0v19.6Z" transform="translate(-4.018 -188.042)" fill="#adb3bb"/>
              <path id="Trazado_1015681" data-name="Trazado 1015681" d="M6.207,437.353H43.963v-4.664H6.257q-.049,2.274-.05,4.664" transform="translate(-4.018 -280.082)" fill="#8794ad"/>
              <path id="Trazado_1015682" data-name="Trazado 1015682" d="M126.027,432.689v4.664h37.756q0-2.39-.05-4.664Z" transform="translate(-81.578 -280.082)" fill="#8794ad"/>
              <rect id="Rectángulo_462129" data-name="Rectángulo 462129" width="59.317" height="7.219" transform="translate(12.538 95.238)" fill="#8794ad"/>
              <g id="Grupo_1195236" data-name="Grupo 1195236" transform="translate(13.181 95.238)" opacity="0.21">
                <g id="Grupo_1195235" data-name="Grupo 1195235">
                  <g id="Grupo_1195234" data-name="Grupo 1195234" clip-path="url(#clip-path-4)">
                    <rect id="Rectángulo_462130" data-name="Rectángulo 462130" width="0.607" height="7.219" transform="translate(0)"/>
                  </g>
                </g>
              </g>
              <g id="Grupo_1195239" data-name="Grupo 1195239" transform="translate(15.162 95.238)" opacity="0.21">
                <g id="Grupo_1195238" data-name="Grupo 1195238">
                  <g id="Grupo_1195237" data-name="Grupo 1195237" clip-path="url(#clip-path-4)">
                    <rect id="Rectángulo_462132" data-name="Rectángulo 462132" width="0.607" height="7.219"/>
                  </g>
                </g>
              </g>
              <g id="Grupo_1195242" data-name="Grupo 1195242" transform="translate(17.142 95.238)" opacity="0.21">
                <g id="Grupo_1195241" data-name="Grupo 1195241">
                  <g id="Grupo_1195240" data-name="Grupo 1195240" clip-path="url(#clip-path-4)">
                    <rect id="Rectángulo_462134" data-name="Rectángulo 462134" width="0.607" height="7.219" transform="translate(0)"/>
                  </g>
                </g>
              </g>
              <g id="Grupo_1195245" data-name="Grupo 1195245" transform="translate(19.122 95.238)" opacity="0.21">
                <g id="Grupo_1195244" data-name="Grupo 1195244">
                  <g id="Grupo_1195243" data-name="Grupo 1195243" clip-path="url(#clip-path-4)">
                    <rect id="Rectángulo_462136" data-name="Rectángulo 462136" width="0.607" height="7.219" transform="translate(0)"/>
                  </g>
                </g>
              </g>
              <g id="Grupo_1195248" data-name="Grupo 1195248" transform="translate(21.103 95.238)" opacity="0.21">
                <g id="Grupo_1195247" data-name="Grupo 1195247">
                  <g id="Grupo_1195246" data-name="Grupo 1195246" clip-path="url(#clip-path-4)">
                    <rect id="Rectángulo_462138" data-name="Rectángulo 462138" width="0.607" height="7.219" transform="translate(0)"/>
                  </g>
                </g>
              </g>
              <g id="Grupo_1195251" data-name="Grupo 1195251" transform="translate(23.083 95.238)" opacity="0.21">
                <g id="Grupo_1195250" data-name="Grupo 1195250">
                  <g id="Grupo_1195249" data-name="Grupo 1195249" clip-path="url(#clip-path-4)">
                    <rect id="Rectángulo_462140" data-name="Rectángulo 462140" width="0.607" height="7.219" transform="translate(0)"/>
                  </g>
                </g>
              </g>
              <g id="Grupo_1195254" data-name="Grupo 1195254" transform="translate(25.064 95.238)" opacity="0.21">
                <g id="Grupo_1195253" data-name="Grupo 1195253">
                  <g id="Grupo_1195252" data-name="Grupo 1195252" clip-path="url(#clip-path-4)">
                    <rect id="Rectángulo_462142" data-name="Rectángulo 462142" width="0.607" height="7.219" transform="translate(0)"/>
                  </g>
                </g>
              </g>
              <g id="Grupo_1195257" data-name="Grupo 1195257" transform="translate(27.044 95.238)" opacity="0.21">
                <g id="Grupo_1195256" data-name="Grupo 1195256">
                  <g id="Grupo_1195255" data-name="Grupo 1195255" clip-path="url(#clip-path-4)">
                    <rect id="Rectángulo_462144" data-name="Rectángulo 462144" width="0.607" height="7.219" transform="translate(0)"/>
                  </g>
                </g>
              </g>
              <g id="Grupo_1195260" data-name="Grupo 1195260" transform="translate(29.025 95.238)" opacity="0.21">
                <g id="Grupo_1195259" data-name="Grupo 1195259">
                  <g id="Grupo_1195258" data-name="Grupo 1195258" clip-path="url(#clip-path-4)">
                    <rect id="Rectángulo_462146" data-name="Rectángulo 462146" width="0.607" height="7.219" transform="translate(0)"/>
                  </g>
                </g>
              </g>
              <g id="Grupo_1195263" data-name="Grupo 1195263" transform="translate(31.005 95.238)" opacity="0.21">
                <g id="Grupo_1195262" data-name="Grupo 1195262">
                  <g id="Grupo_1195261" data-name="Grupo 1195261" clip-path="url(#clip-path-4)">
                    <rect id="Rectángulo_462148" data-name="Rectángulo 462148" width="0.607" height="7.219" transform="translate(0)"/>
                  </g>
                </g>
              </g>
              <g id="Grupo_1195266" data-name="Grupo 1195266" transform="translate(32.985 95.238)" opacity="0.21">
                <g id="Grupo_1195265" data-name="Grupo 1195265">
                  <g id="Grupo_1195264" data-name="Grupo 1195264" clip-path="url(#clip-path-4)">
                    <rect id="Rectángulo_462150" data-name="Rectángulo 462150" width="0.607" height="7.219" transform="translate(0)"/>
                  </g>
                </g>
              </g>
              <g id="Grupo_1195269" data-name="Grupo 1195269" transform="translate(34.966 95.238)" opacity="0.21">
                <g id="Grupo_1195268" data-name="Grupo 1195268">
                  <g id="Grupo_1195267" data-name="Grupo 1195267" clip-path="url(#clip-path-4)">
                    <rect id="Rectángulo_462152" data-name="Rectángulo 462152" width="0.607" height="7.219" transform="translate(0)"/>
                  </g>
                </g>
              </g>
              <g id="Grupo_1195272" data-name="Grupo 1195272" transform="translate(36.946 95.238)" opacity="0.21">
                <g id="Grupo_1195271" data-name="Grupo 1195271">
                  <g id="Grupo_1195270" data-name="Grupo 1195270" clip-path="url(#clip-path-4)">
                    <rect id="Rectángulo_462154" data-name="Rectángulo 462154" width="0.607" height="7.219"/>
                  </g>
                </g>
              </g>
              <g id="Grupo_1195275" data-name="Grupo 1195275" transform="translate(38.927 95.238)" opacity="0.21">
                <g id="Grupo_1195274" data-name="Grupo 1195274">
                  <g id="Grupo_1195273" data-name="Grupo 1195273" clip-path="url(#clip-path-4)">
                    <rect id="Rectángulo_462156" data-name="Rectángulo 462156" width="0.607" height="7.219"/>
                  </g>
                </g>
              </g>
              <g id="Grupo_1195278" data-name="Grupo 1195278" transform="translate(40.907 95.238)" opacity="0.21">
                <g id="Grupo_1195277" data-name="Grupo 1195277">
                  <g id="Grupo_1195276" data-name="Grupo 1195276" clip-path="url(#clip-path-4)">
                    <rect id="Rectángulo_462158" data-name="Rectángulo 462158" width="0.607" height="7.219"/>
                  </g>
                </g>
              </g>
              <g id="Grupo_1195281" data-name="Grupo 1195281" transform="translate(42.887 95.238)" opacity="0.21">
                <g id="Grupo_1195280" data-name="Grupo 1195280">
                  <g id="Grupo_1195279" data-name="Grupo 1195279" clip-path="url(#clip-path-4)">
                    <rect id="Rectángulo_462160" data-name="Rectángulo 462160" width="0.607" height="7.219"/>
                  </g>
                </g>
              </g>
              <g id="Grupo_1195284" data-name="Grupo 1195284" transform="translate(44.868 95.238)" opacity="0.21">
                <g id="Grupo_1195283" data-name="Grupo 1195283">
                  <g id="Grupo_1195282" data-name="Grupo 1195282" clip-path="url(#clip-path-4)">
                    <rect id="Rectángulo_462162" data-name="Rectángulo 462162" width="0.607" height="7.219"/>
                  </g>
                </g>
              </g>
              <g id="Grupo_1195287" data-name="Grupo 1195287" transform="translate(46.848 95.238)" opacity="0.21">
                <g id="Grupo_1195286" data-name="Grupo 1195286">
                  <g id="Grupo_1195285" data-name="Grupo 1195285" clip-path="url(#clip-path-4)">
                    <rect id="Rectángulo_462164" data-name="Rectángulo 462164" width="0.607" height="7.219"/>
                  </g>
                </g>
              </g>
              <g id="Grupo_1195290" data-name="Grupo 1195290" transform="translate(48.829 95.238)" opacity="0.21">
                <g id="Grupo_1195289" data-name="Grupo 1195289">
                  <g id="Grupo_1195288" data-name="Grupo 1195288" clip-path="url(#clip-path-4)">
                    <rect id="Rectángulo_462166" data-name="Rectángulo 462166" width="0.607" height="7.219"/>
                  </g>
                </g>
              </g>
              <g id="Grupo_1195293" data-name="Grupo 1195293" transform="translate(50.809 95.238)" opacity="0.21">
                <g id="Grupo_1195292" data-name="Grupo 1195292">
                  <g id="Grupo_1195291" data-name="Grupo 1195291" clip-path="url(#clip-path-4)">
                    <rect id="Rectángulo_462168" data-name="Rectángulo 462168" width="0.607" height="7.219"/>
                  </g>
                </g>
              </g>
              <g id="Grupo_1195296" data-name="Grupo 1195296" transform="translate(52.79 95.238)" opacity="0.21">
                <g id="Grupo_1195295" data-name="Grupo 1195295">
                  <g id="Grupo_1195294" data-name="Grupo 1195294" clip-path="url(#clip-path-4)">
                    <rect id="Rectángulo_462170" data-name="Rectángulo 462170" width="0.607" height="7.219"/>
                  </g>
                </g>
              </g>
              <g id="Grupo_1195299" data-name="Grupo 1195299" transform="translate(54.77 95.238)" opacity="0.21">
                <g id="Grupo_1195298" data-name="Grupo 1195298">
                  <g id="Grupo_1195297" data-name="Grupo 1195297" clip-path="url(#clip-path-4)">
                    <rect id="Rectángulo_462172" data-name="Rectángulo 462172" width="0.607" height="7.219"/>
                  </g>
                </g>
              </g>
              <g id="Grupo_1195302" data-name="Grupo 1195302" transform="translate(56.75 95.238)" opacity="0.21">
                <g id="Grupo_1195301" data-name="Grupo 1195301">
                  <g id="Grupo_1195300" data-name="Grupo 1195300" clip-path="url(#clip-path-4)">
                    <rect id="Rectángulo_462174" data-name="Rectángulo 462174" width="0.607" height="7.219"/>
                  </g>
                </g>
              </g>
              <g id="Grupo_1195305" data-name="Grupo 1195305" transform="translate(58.731 95.238)" opacity="0.21">
                <g id="Grupo_1195304" data-name="Grupo 1195304">
                  <g id="Grupo_1195303" data-name="Grupo 1195303" clip-path="url(#clip-path-4)">
                    <rect id="Rectángulo_462176" data-name="Rectángulo 462176" width="0.607" height="7.219"/>
                  </g>
                </g>
              </g>
              <g id="Grupo_1195308" data-name="Grupo 1195308" transform="translate(59.034 95.238)" opacity="0.21">
                <g id="Grupo_1195307" data-name="Grupo 1195307">
                  <g id="Grupo_1195306" data-name="Grupo 1195306" clip-path="url(#clip-path-4)">
                    <rect id="Rectángulo_462178" data-name="Rectángulo 462178" width="0.607" height="7.219"/>
                  </g>
                </g>
              </g>
              <g id="Grupo_1195311" data-name="Grupo 1195311" transform="translate(62.692 95.238)" opacity="0.21">
                <g id="Grupo_1195310" data-name="Grupo 1195310">
                  <g id="Grupo_1195309" data-name="Grupo 1195309" clip-path="url(#clip-path-4)">
                    <rect id="Rectángulo_462180" data-name="Rectángulo 462180" width="0.607" height="7.219"/>
                  </g>
                </g>
              </g>
              <g id="Grupo_1195314" data-name="Grupo 1195314" transform="translate(64.672 95.238)" opacity="0.21">
                <g id="Grupo_1195313" data-name="Grupo 1195313">
                  <g id="Grupo_1195312" data-name="Grupo 1195312" clip-path="url(#clip-path-4)">
                    <rect id="Rectángulo_462182" data-name="Rectángulo 462182" width="0.607" height="7.219"/>
                  </g>
                </g>
              </g>
              <g id="Grupo_1195317" data-name="Grupo 1195317" transform="translate(66.653 95.238)" opacity="0.21">
                <g id="Grupo_1195316" data-name="Grupo 1195316">
                  <g id="Grupo_1195315" data-name="Grupo 1195315" clip-path="url(#clip-path-4)">
                    <rect id="Rectángulo_462184" data-name="Rectángulo 462184" width="0.607" height="7.219"/>
                  </g>
                </g>
              </g>
              <g id="Grupo_1195320" data-name="Grupo 1195320" transform="translate(68.633 95.238)" opacity="0.21">
                <g id="Grupo_1195319" data-name="Grupo 1195319">
                  <g id="Grupo_1195318" data-name="Grupo 1195318" clip-path="url(#clip-path-4)">
                    <rect id="Rectángulo_462186" data-name="Rectángulo 462186" width="0.607" height="7.219"/>
                  </g>
                </g>
              </g>
              <g id="Grupo_1195323" data-name="Grupo 1195323" transform="translate(70.613 95.238)" opacity="0.21">
                <g id="Grupo_1195322" data-name="Grupo 1195322">
                  <g id="Grupo_1195321" data-name="Grupo 1195321" clip-path="url(#clip-path-4)">
                    <rect id="Rectángulo_462188" data-name="Rectángulo 462188" width="0.607" height="7.219"/>
                  </g>
                </g>
              </g>
              <path id="Trazado_1015683" data-name="Trazado 1015683" d="M945.733,41.99,898.616,5.571,904.586,0,951.7,36.417" transform="translate(-581.681 0.001)" fill="#935f07"/>
              <path id="Trazado_1015684" data-name="Trazado 1015684" d="M951.329,41.99,998.446,5.571,992.476,0,945.359,36.417" transform="translate(-611.938 0.001)" fill="#935f07"/>
              <path id="Trazado_1015685" data-name="Trazado 1015685" d="M954.566,65.6c-6.955,9.041-6.07,14.922-6.07,14.922H887.967s.885-5.88-6.07-14.922c-6.245-8.119-6.807-15.376-6.709-18.438a11.619,11.619,0,0,1,.133-1.542c7.526-17.032,6.522-35.252,5.732-42.356,0-.006,0-.012,0-.018,0-.036-.007-.072-.012-.107-.008-.071-.016-.14-.024-.208L889.415,0c.484,20.19,28.816,42.392,28.816,42.392S946.564,20.189,947.048,0l8.4,2.938c-.793,6.852-1.952,25.384,5.695,42.689,0,0,1.69,9.235-6.576,19.979" transform="translate(-566.51 0.001)" fill="#f59e0b"/>
              <path id="Trazado_1015686" data-name="Trazado 1015686" d="M971.138,211.47H908.627a13.674,13.674,0,0,1,.991,5.943h60.529a13.682,13.682,0,0,1,.991-5.943" transform="translate(-588.161 -136.886)" fill="#ffa539"/>
              <path id="Trazado_1015687" data-name="Trazado 1015687" d="M960.2,331.142q-.029.939-.073,1.894s-18.991,4.658-37.121,0l-.744-1.882-6.279-15.891-6.27,15.867-.009.023-.744,1.882c-18.131,4.658-37.122,0-37.122,0q-.043-.954-.072-1.894c0-.007,0-.014,0-.022-1.121-36.338,13.832-56.276,13.832-56.276h60.77s14.959,19.946,13.832,56.3" transform="translate(-564.261 -177.909)" fill="#6276f0"/>
              <rect id="Rectángulo_462190" data-name="Rectángulo 462190" width="60.77" height="7.502" transform="translate(321.337 89.434)" fill="#4455bf"/>
              <rect id="Rectángulo_462191" data-name="Rectángulo 462191" width="10.877" height="4.784" transform="translate(107.21 152.486)" fill="#5cdfe5"/>
              <rect id="Rectángulo_462192" data-name="Rectángulo 462192" width="10.877" height="4.784" transform="translate(131.019 152.486)" fill="#5cdfe5"/>
              <path id="Trazado_1015688" data-name="Trazado 1015688" d="M327.817,8.92c-.007-.024-.013-.048-.019-.073-.124-.472-.243-.905-.355-1.3-.019-.066-.037-.132-.055-.2q-.122-.422-.229-.778c-.024-.083-.048-.163-.073-.24q-.156-.506-.272-.858c-.011-.035-.023-.067-.033-.1l-.023-.067c-.01-.029-.019-.057-.029-.084s-.02-.061-.03-.09l-.014-.042c-.009-.028-.017-.054-.027-.079-.017-.051-.034-.1-.047-.135,0-.015-.01-.029-.014-.042l0-.008-.023-.066c0-.012-.008-.023-.012-.033s-.011-.031-.014-.04v0a.032.032,0,0,0,0-.007v0h0l-13.532.041H298.791l-13.532-.041h0v0l0,.007v0c0,.009-.008.022-.014.04s-.008.021-.012.033l-.024.066a.047.047,0,0,1,0,.008c-.005.013-.01.027-.015.042-.013.039-.029.084-.047.135-.009.025-.018.051-.027.079l-.014.042c-.011.029-.021.059-.03.09s-.018.055-.029.084l-.023.067c-.01.032-.022.065-.033.1q-.115.352-.272.858c-.024.077-.049.157-.073.24q-.108.356-.229.778c-.018.064-.036.13-.055.2-.112.393-.23.826-.355,1.3-.006.024-.012.048-.019.073-2.053,7.82-5.587,26.2-2.793,52.942,1.269,12.149,1.858,26.907,2.081,41.167v.016c.169,10.805.126,21.324.009,30.2.05,6.841.385,16.641,2.591,20.968a3.934,3.934,0,0,0,3.514,2.126h9.759a2.832,2.832,0,0,0,2.736-2.1c.5-1.851,1-5.3,1-11.651-.558-21.471-.978-62.257,2.259-99.054a.766.766,0,0,1,1.526,0c3.236,36.8,2.817,77.584,2.259,99.054,0,6.356.5,9.8,1,11.651a2.833,2.833,0,0,0,2.737,2.1h9.759a3.935,3.935,0,0,0,3.514-2.126c2.206-4.327,2.54-14.127,2.591-20.968-.117-8.877-.16-19.4.009-30.2v-.016c.222-14.26.812-29.018,2.081-41.167,2.793-26.74-.741-45.121-2.793-52.942" transform="translate(-181.346 -3.03)" fill="#2ed19b"/>
              <path id="Trazado_1015689" data-name="Trazado 1015689" d="M334.821,8.847c-.723-2.745-1.259-4.166-1.259-4.166l-13.532.041H305.813l-13.532-.041s-.535,1.421-1.259,4.166c-.006.024-.012.048-.019.073,0,.99,9.814,1.793,21.918,1.793s21.917-.8,21.918-1.793c-.007-.024-.013-.048-.019-.073" transform="translate(-188.368 -3.03)" fill="#5cdfe5"/>
              <path id="Trazado_1015690" data-name="Trazado 1015690" d="M315.25,0C303.846,0,294.6.757,294.6,1.691s9.245,1.693,20.649,1.693S335.9,2.626,335.9,1.691,326.655,0,315.25,0" transform="translate(-190.697 0.001)" fill="#0c8d93"/>
              <path id="Trazado_1015691" data-name="Trazado 1015691" d="M625.282,38.32s-5.832,2.86-20.488,2.86-20.488-2.86-20.488-2.86l-2.568,13.226L604.794,58.7l23.056-7.149Z" transform="translate(-376.563 -24.804)" fill="#152860"/>
              <path id="Trazado_1015692" data-name="Trazado 1015692" d="M627.262,9.766l-17.754.019-17.753-.04L589.02,19.823l.4.556,20.092,6.439L629.6,20.379l.4-.556Z" transform="translate(-381.277 -6.308)" fill="#152860"/>
              <path id="Trazado_1015693" data-name="Trazado 1015693" d="M601.651,165.748s-10.538,3.755-36.323,3.877q-.642,0-1.3,0t-1.3,0c-25.785-.122-36.323-3.877-36.323-3.877,5.31-31.244,5.689-54.6,3.628-73.925L518.763,48.485l24.779-10.164c3.613,7.033,9.76,11.476,19.19,11.846q.638.025,1.3.025t1.3-.025c9.431-.371,15.577-4.813,19.191-11.846L609.3,48.485,598.023,91.823c-2.06,19.321-1.682,42.682,3.628,73.925" transform="translate(-335.799 -24.805)" fill="#1e3a8a"/>
              <path id="Trazado_1015694" data-name="Trazado 1015694" d="M467.176,133.441l-3.29,65.892a24.724,24.724,0,0,0,16.1,0l6.9-61.453,7.622-27.4L483.241,67.138Z" transform="translate(-300.277 -43.459)" fill="#152860"/>
              <path id="Trazado_1015695" data-name="Trazado 1015695" d="M754.764,67.138,743.49,110.476l7.623,27.4,6.9,61.454a24.724,24.724,0,0,0,16.1,0l-3.29-65.892Z" transform="translate(-481.266 -43.459)" fill="#152860"/>
              <path id="Trazado_1015696" data-name="Trazado 1015696" d="M646.026,9.858V151.2q-.642,0-1.3,0t-1.3,0V9.858Z" transform="translate(-416.498 -6.381)" fill="#2d0f2b"/>
              <path id="Trazado_1015697" data-name="Trazado 1015697" d="M645.4,13.079v6.759a.6.6,0,0,0,1.2,0V13.079Z" transform="translate(-417.774 -8.466)" fill="#1e3a8a"/>
              <path id="Trazado_1015698" data-name="Trazado 1015698" d="M632.276,6.543c0,1-7.95,1.806-17.758,1.806s-17.757-.809-17.757-1.806,7.95-1.806,17.757-1.806,17.758.809,17.758,1.806" transform="translate(-386.288 -3.066)" fill="#2d0f2b"/>
            </g>
          </g>
        </g>
      </g>
    </g>
  </g>
</svg>
