<svg xmlns="http://www.w3.org/2000/svg" xmlns:xlink="http://www.w3.org/1999/xlink" width="292" height="143" viewBox="0 0 292 143">
  <defs>
    <clipPath id="clip-path">
      <rect id="Rectángulo_462450" data-name="Rectángulo 462450" width="93.691" height="132.198" fill="none"/>
    </clipPath>
    <clipPath id="clip-path-3">
      <rect id="Rectángulo_462448" data-name="Rectángulo 462448" width="24.137" height="35.331" fill="none"/>
    </clipPath>
    <clipPath id="clip-path-4">
      <rect id="Rectángulo_462454" data-name="Rectángulo 462454" width="97.026" height="132.198" fill="none"/>
    </clipPath>
    <clipPath id="clip-path-6">
      <rect id="Rectángulo_462452" data-name="Rectángulo 462452" width="24.996" height="36.589" fill="none"/>
    </clipPath>
  </defs>
  <g id="Grupo_1195824" data-name="Grupo 1195824" transform="translate(-601.711 -11365.508)">
    <g id="Grupo_1195817" data-name="Grupo 1195817" transform="translate(0 -1326.492)">
      <rect id="Rectángulo_462455" data-name="Rectángulo 462455" width="292" height="143" transform="translate(601.711 12692)" fill="#c0f1e1"/>
      <g id="Grupo_1195809" data-name="Grupo 1195809" transform="translate(762.55 12700)">
        <g id="Grupo_1195808" data-name="Grupo 1195808" transform="translate(0)" clip-path="url(#clip-path)">
          <g id="Grupo_1195807" data-name="Grupo 1195807">
            <g id="Grupo_1195806" data-name="Grupo 1195806" clip-path="url(#clip-path)">
              <path id="Trazado_1016607" data-name="Trazado 1016607" d="M93.691,159c0,5.359-20.973,9.7-46.845,9.7S0,164.363,0,159s20.973-9.7,46.846-9.7,46.845,4.344,46.845,9.7" transform="translate(0 -36.509)" fill="#d5c1ac"/>
              <path id="Trazado_1016608" data-name="Trazado 1016608" d="M45.969,104.778h5.946v5.758h-8Z" transform="translate(-10.738 -25.622)" fill="#6a9fba"/>
              <path id="Trazado_1016609" data-name="Trazado 1016609" d="M62.858,104.778h6.1v5.758h-8Z" transform="translate(-14.905 -25.622)" fill="#6a9fba"/>
              <path id="Trazado_1016610" data-name="Trazado 1016610" d="M83.193,150.141c.391-5.739.72-10.5.928-13.278.956-12.914-6.008-17.179-6.008-17.179-7.565-5.952-20.167-9.646-20.167-9.646H41.913l-13.527,4.781c-6.727,3.628-6.688,16.544-6.688,16.544l1.462,18.779Z" transform="translate(-5.306 -26.908)" fill="#f1a786"/>
              <path id="Trazado_1016611" data-name="Trazado 1016611" d="M35.138,151.879V128.992s1.469-10.309-9.684-11.847c0,0-9.482,2.813-10.821,19.207L13.5,151.879Z" transform="translate(-3.301 -28.646)" fill="#c21f29"/>
              <rect id="Rectángulo_462447" data-name="Rectángulo 462447" width="16.032" height="15.547" transform="translate(36.608 67.582)" fill="#f1a786"/>
              <path id="Trazado_1016612" data-name="Trazado 1016612" d="M59.379,101.337a18.158,18.158,0,0,1-10.922-5.2V89.457H64.489v12.031a28.793,28.793,0,0,1-5.11-.151" transform="translate(-11.849 -21.875)" fill="#d78874"/>
              <path id="Trazado_1016613" data-name="Trazado 1016613" d="M51.974,18.323c-5.321-.158-12.319.966-16.486,4.488a9.011,9.011,0,0,0-1.272,1.328,15.442,15.442,0,0,0-2.633,6.041c-.029.057-.066.111-.094.168a26.306,26.306,0,0,0-2.058,6.216c-.01.3-.02.6-.029.882-.084,2.473-.122,6.024,0,8.5.129,2.7.78,7.546.863,10.292a37.532,37.532,0,0,0,4.194,15.706c4.614,8.887,16.753,5.525,23.818,2.034,5.975-2.953,8.853-6.345,10.081-12.963,0,0,.713-3.84,1.593-8.575.826-4.441,1.8-9.673,2.467-13.275l.805-4.336s3.017-15.785-21.243-16.5" transform="translate(-7.17 -4.477)" fill="#f1a786"/>
              <path id="Trazado_1016614" data-name="Trazado 1016614" d="M81.771,56.913a4.1,4.1,0,0,1,6.621-.6c1.213,1.2,1.322,3.606,1.236,5.161a9.244,9.244,0,0,1-2.433,5.759s-4.438,4.983-7.056.718" transform="translate(-19.597 -13.422)" fill="#f1a786"/>
              <path id="Trazado_1016615" data-name="Trazado 1016615" d="M88.151,58.121a2.963,2.963,0,0,0-1.37-.4c-2.068-.144-3.734,3.318-1.669,3.933a1.354,1.354,0,0,1-.026,1.775c-.711.837-1.667,2.043-1.45,3.224a1.85,1.85,0,0,0,1.5,1.256c.518.137.62-.3.205-.515a2.351,2.351,0,0,1-.783-.7c-.019-.042-.042-.082-.063-.119a.522.522,0,0,1-.051-.088.847.847,0,0,1-.023-.514,1.187,1.187,0,0,0,1.6-.026c.391-.509.1-1.31.23-1.893a4.721,4.721,0,0,1,.477-1.16c.95-1.72-.761-2.007-.761-2.007a4.942,4.942,0,0,0-.627.053c-.865-.494.1-1.9.627-2.124a1.557,1.557,0,0,1,1.8.339,2.944,2.944,0,0,1,.574,1.977,6.977,6.977,0,0,1-.562,2.377c-.189.424-.424.923-.615,1.347-.216.481.3.69.516.209a14.7,14.7,0,0,0,1.472-3.908,3.1,3.1,0,0,0-1.006-3.034" transform="translate(-20.444 -14.113)" fill="#da9579"/>
              <path id="Trazado_1016616" data-name="Trazado 1016616" d="M41.066,44.36c-7.447-1.9-9.2,1.33-9.2,1.33a1.846,1.846,0,0,0-.4,1.086c.009.288.22.39.523.391a11.2,11.2,0,0,0,2.114-.514,9.168,9.168,0,0,1,5.349.391,4.037,4.037,0,0,0,.781.19,1.493,1.493,0,0,0,1.792-1.1,1.349,1.349,0,0,0-.963-1.772" transform="translate(-7.695 -10.701)" fill="#d6774b"/>
              <path id="Trazado_1016617" data-name="Trazado 1016617" d="M57.64,44.36c7.447-1.9,9.2,1.33,9.2,1.33a1.846,1.846,0,0,1,.4,1.086c-.008.288-.22.39-.523.391a11.17,11.17,0,0,1-2.114-.514,9.167,9.167,0,0,0-5.349.391,4.063,4.063,0,0,1-.781.19,1.491,1.491,0,0,1-1.791-1.1,1.349,1.349,0,0,1,.961-1.772" transform="translate(-13.848 -10.701)" fill="#d6774b"/>
              <path id="Trazado_1016618" data-name="Trazado 1016618" d="M50.81,67.263a28.49,28.49,0,0,1-3.924-.236c-3.3-1.342-.956-3.233-.748-5.368" transform="translate(-11.037 -15.078)" fill="none" stroke="#e59174" stroke-linecap="round" stroke-linejoin="round" stroke-width="1.5"/>
              <path id="Trazado_1016619" data-name="Trazado 1016619" d="M55.351,74.962c-.6,5.074-3.567,6.538-6.909,6.538-4.064,0-5.612-1.942-6.3-6.538Z" transform="translate(-10.305 -18.331)" fill="#d0816f"/>
              <path id="Trazado_1016620" data-name="Trazado 1016620" d="M55.547,75.278c-.6,5.074-2.958,6.538-6.3,6.538-4.065,0-5.613-1.942-6.3-6.538Z" transform="translate(-10.502 -18.408)" fill="#fff"/>
              <path id="Trazado_1016621" data-name="Trazado 1016621" d="M42.946,77.827l2.656.438-2.473.279Z" transform="translate(-10.502 -19.031)" fill="#d0816f"/>
              <path id="Trazado_1016622" data-name="Trazado 1016622" d="M59.082,77.835l.05-.008-.182.717-.077-.008q.113-.332.209-.7" transform="translate(-14.397 -19.031)" fill="#d0816f"/>
              <path id="Trazado_1016623" data-name="Trazado 1016623" d="M56.117,78.3v-.087l2.291-.379c-.064.246-.133.48-.209.7L56.117,78.3" transform="translate(-13.723 -19.034)" fill="#d0816f"/>
              <path id="Trazado_1016624" data-name="Trazado 1016624" d="M74.555,18.269s3.288,9.906-.7,24.009c0,0-5.948-3.036-6.852,6.582l-1.957-.151s1.294-15.238,1.3-15.254c.245-4.034-.159-9.534-4.214-11.66-4.369-2.291-11.712-2.888-15.278,1.145.4-.449-3.581-2.246-3.832-2.317-3.293-.935-7.887-.876-10.52,1.624-2.445,2.319-3.145,5.609-3.32,8.839,0,0-.313,5.769-.8,14.58,0,0-1.882-11.346-1.759-17.086,0,0-8.82-13.022,4.23-25.267-1.277,2.609,1,5.13,1,5.13S31.852,0,44.073,0a8.235,8.235,0,0,0-1.967,2.272S52.6-3.88,66.338,4.317c0,0,6.15,4.218,8.216,13.952" transform="translate(-5.797 0)" fill="#d6774b"/>
              <path id="Trazado_1016625" data-name="Trazado 1016625" d="M30.555,42.572c-.026-1.277-.039-2.556-.028-3.832a36.165,36.165,0,0,1,.122-3.864,13.789,13.789,0,0,1,.963-3.839,9.417,9.417,0,0,1,2.337-3.329,6.543,6.543,0,0,1,.805-.647,9.9,9.9,0,0,1,.894-.556,9.4,9.4,0,0,1,1.931-.75,12.064,12.064,0,0,1,4.064-.372,12.78,12.78,0,0,1,3.97.939l.9.428.918.53c.566.366,1.112.741,1.627,1.145l-1.222.118a9.023,9.023,0,0,1,3.333-2.3,11.9,11.9,0,0,1,3.847-.848,17.127,17.127,0,0,1,7.54,1.288,13.9,13.9,0,0,1,1.738.861,6.865,6.865,0,0,1,1.556,1.271,8.708,8.708,0,0,1,1.842,3.417,15.326,15.326,0,0,1,.527,3.726,21.733,21.733,0,0,1-.217,3.7,20.44,20.44,0,0,0-1.132-7.146,7.913,7.913,0,0,0-1.856-2.882,6.352,6.352,0,0,0-1.355-.963,12.469,12.469,0,0,0-1.6-.684,16.717,16.717,0,0,0-6.906-.9,11.228,11.228,0,0,0-3.3.783,7.24,7.24,0,0,0-2.659,1.872.9.9,0,0,1-1.207.129l-.016-.012c-.495-.371-.987-.735-1.49-1.066l-.73-.441-.819-.4a11.4,11.4,0,0,0-1.677-.559,12.777,12.777,0,0,0-1.753-.31,10.446,10.446,0,0,0-3.524.2,8.923,8.923,0,0,0-1.65.567c-.249.135-.529.26-.749.411a5.145,5.145,0,0,0-.715.512,7.2,7.2,0,0,0-1.224,1.256,9.666,9.666,0,0,0-.962,1.509,13.336,13.336,0,0,0-1.162,3.479A36.71,36.71,0,0,0,31,38.767c-.127,1.269-.278,2.537-.442,3.805" transform="translate(-7.464 -6.199)" fill="#b2664c"/>
              <path id="Trazado_1016626" data-name="Trazado 1016626" d="M64.389,53.3c-.01,1.526-.866,2.757-1.914,2.754s-1.89-1.25-1.88-2.777.865-2.76,1.914-2.754,1.888,1.25,1.88,2.777" transform="translate(-14.818 -12.354)" fill="#29180d"/>
              <path id="Trazado_1016627" data-name="Trazado 1016627" d="M64.1,52.764a.822.822,0,1,0,.82-.82.822.822,0,0,0-.82.82" transform="translate(-15.675 -12.702)" fill="#fff"/>
              <path id="Trazado_1016628" data-name="Trazado 1016628" d="M37.4,53.3c.012,1.526.867,2.757,1.916,2.754s1.889-1.25,1.878-2.777-.863-2.76-1.912-2.754S37.394,51.772,37.4,53.3" transform="translate(-9.146 -12.354)" fill="#29180d"/>
              <path id="Trazado_1016629" data-name="Trazado 1016629" d="M38.387,52.764a.821.821,0,1,1-.82-.82.821.821,0,0,1,.82.82" transform="translate(-8.985 -12.702)" fill="#fff"/>
              <path id="Trazado_1016630" data-name="Trazado 1016630" d="M83.761,150.141c.054-5.911.166-10.665.36-13.278.956-12.914-6.008-17.179-6.008-17.179-7.565-5.952-20.167-9.646-20.167-9.646l-11.462,13.24-4.57-13.24-13.527,4.781c-6.727,3.628-6.688,16.544-6.688,16.544l.492,18.779Z" transform="translate(-5.306 -26.908)" fill="#ceecfd"/>
              <g id="Grupo_1195805" data-name="Grupo 1195805" transform="translate(54.768 87.902)" opacity="0.5" style="mix-blend-mode: multiply;isolation: isolate">
                <g id="Grupo_1195804" data-name="Grupo 1195804">
                  <g id="Grupo_1195803" data-name="Grupo 1195803" clip-path="url(#clip-path-3)">
                    <path id="Trazado_1016631" data-name="Trazado 1016631" d="M74.226,151.686H96.182c.055-5.911.166-10.665.36-13.278.956-12.914-6.007-17.179-6.007-17.179a45.684,45.684,0,0,0-8.025-4.874c-.923.632-1.846,1.273-2.75,1.951a16.9,16.9,0,0,0-6.834,12.47,62.518,62.518,0,0,0,.264,16.7,28.334,28.334,0,0,0,1.036,4.207" transform="translate(-72.496 -116.355)" fill="#9fd7ec"/>
                  </g>
                </g>
              </g>
              <path id="Trazado_1016632" data-name="Trazado 1016632" d="M103.38,161.863a6.314,6.314,0,0,0-11.661,0Z" transform="translate(-22.429 -38.63)" fill="#f1a786"/>
              <path id="Trazado_1016633" data-name="Trazado 1016633" d="M80.148,152.377h24.022l-3.455-19.541s-2.84-13.849-12.986-13.654c0,0-12.078-.2-9.879,18.336Z" transform="translate(-18.972 -29.144)" fill="#c21f29"/>
              <path id="Trazado_1016634" data-name="Trazado 1016634" d="M50.927,123.278l-4.57-13.24L39.87,112.33Z" transform="translate(-9.75 -26.908)" fill="#bbe4fb"/>
              <path id="Trazado_1016635" data-name="Trazado 1016635" d="M43.333,104.778l-10.2,7.784,6.085,5.637,6.826-6.056Z" transform="translate(-8.102 -25.622)" fill="#89d1f7"/>
              <path id="Trazado_1016636" data-name="Trazado 1016636" d="M54.506,122.525,66.1,106.959,71.452,112Z" transform="translate(-13.329 -26.155)" fill="#bbe4fb"/>
              <path id="Trazado_1016637" data-name="Trazado 1016637" d="M69.473,104.778l8.284,7-6.776,7.453-7.91-6.224Z" transform="translate(-15.423 -25.622)" fill="#89d1f7"/>
            </g>
          </g>
        </g>
      </g>
      <g id="Grupo_1195816" data-name="Grupo 1195816" transform="translate(641.759 12700)">
        <g id="Grupo_1195815" data-name="Grupo 1195815" clip-path="url(#clip-path-4)">
          <g id="Grupo_1195814" data-name="Grupo 1195814">
            <g id="Grupo_1195813" data-name="Grupo 1195813" clip-path="url(#clip-path-4)">
              <path id="Trazado_1016638" data-name="Trazado 1016638" d="M97.027,153.332c0,5.55-21.72,10.049-48.513,10.049S0,158.882,0,153.332s21.721-10.049,48.514-10.049,48.513,4.5,48.513,10.049" transform="translate(0 -31.184)" fill="#d5c1ac"/>
              <path id="Trazado_1016639" data-name="Trazado 1016639" d="M75.2,97.784h-6.16v5.963h8.288Z" transform="translate(-15.026 -21.281)" fill="#6a9fba"/>
              <path id="Trazado_1016640" data-name="Trazado 1016640" d="M58.315,97.784H52v5.963h8.289Z" transform="translate(-11.317 -21.281)" fill="#6a9fba"/>
              <path id="Trazado_1016641" data-name="Trazado 1016641" d="M20.158,144.574c-.405-5.943-.747-10.869-.962-13.751-.99-13.374,6.223-17.791,6.223-17.791,7.834-6.164,20.884-9.989,20.884-9.989H62.908l14.006,4.951c6.966,3.758,6.928,17.133,6.928,17.133l-1.515,19.447Z" transform="translate(-4.157 -22.426)" fill="#f1a786"/>
              <path id="Trazado_1016642" data-name="Trazado 1016642" d="M85.567,145.912l-7.156-19.926s-2.349-11.717,8.228-16.626c0,0,12.128-3.131,14.307,17.688l.92,18.864Z" transform="translate(-17.017 -23.764)" fill="#2f95b3"/>
              <rect id="Rectángulo_462451" data-name="Rectángulo 462451" width="16.606" height="16.101" transform="translate(42.145 64.516)" fill="#f1a786"/>
              <path id="Trazado_1016643" data-name="Trazado 1016643" d="M59.162,94.766a18.822,18.822,0,0,0,11.312-5.382V82.463H53.869V94.922a29.84,29.84,0,0,0,5.293-.156" transform="translate(-11.724 -17.947)" fill="#d78874"/>
              <path id="Trazado_1016644" data-name="Trazado 1016644" d="M58.088,11.329c5.51-.164,12.756,1,17.074,4.648a9.413,9.413,0,0,1,1.317,1.375,16.013,16.013,0,0,1,2.726,6.257c.029.059.067.115.1.174a27.067,27.067,0,0,1,2.132,6.437q.016.471.032.913c.084,2.561.125,6.239,0,8.8-.136,2.8-.808,7.815-.9,10.659a38.809,38.809,0,0,1-4.343,16.265c-4.779,9.2-17.349,5.721-24.666,2.106C45.379,65.9,42.4,62.391,41.126,55.537c0,0-.738-3.977-1.648-8.881-.854-4.6-1.861-10.017-2.555-13.748-.5-2.679-.834-4.491-.834-4.491s-3.125-16.347,22-17.089" transform="translate(-7.827 -2.462)" fill="#f1a786"/>
              <path id="Trazado_1016645" data-name="Trazado 1016645" d="M43.435,51.277a55.97,55.97,0,0,0,1.026,6.813c.9,4.188,2.453,11.721,7.957,9.438,2.486-1.032,3-3.669,4.628-5.54,2.382-2.741,7.121-.433,9.819-.441,1.38,0,4.693-1.387,6.145.464,1.123,1.436,1.41,4.06,1.826,5.742a.472.472,0,0,0,.688.279c2.623-1.652,4.02-4.781,4.972-7.619.3-.884.563-1.781.805-2.684-.024.377-.042.738-.053,1.065a38.8,38.8,0,0,1-4.343,16.265c-4.779,9.2-17.35,5.722-24.666,2.107-6.187-3.058-9.167-6.572-10.44-13.425,0,0-.738-3.977-1.648-8.881-.349-1.872-.721-3.879-1.09-5.854,1.228.419,4.237.674,4.373,2.27" transform="translate(-8.501 -10.666)" fill="#884430"/>
              <path id="Trazado_1016646" data-name="Trazado 1016646" d="M79.085,37.388c7.71-1.966,9.528,1.377,9.528,1.377a1.927,1.927,0,0,1,.411,1.125c-.009.3-.229.4-.542.4a11.589,11.589,0,0,1-2.19-.533,9.491,9.491,0,0,0-5.539.405,4.2,4.2,0,0,1-.81.2,1.544,1.544,0,0,1-1.855-1.141,1.4,1.4,0,0,1,1-1.835" transform="translate(-16.984 -8.002)" fill="#884430"/>
              <path id="Trazado_1016647" data-name="Trazado 1016647" d="M62.815,37.388c-7.712-1.966-9.528,1.377-9.528,1.377a1.916,1.916,0,0,0-.411,1.125c.009.3.228.4.541.4a11.589,11.589,0,0,0,2.19-.533,9.5,9.5,0,0,1,5.541.405,4.159,4.159,0,0,0,.808.2,1.546,1.546,0,0,0,1.857-1.141,1.4,1.4,0,0,0-1-1.835" transform="translate(-11.508 -8.002)" fill="#884430"/>
              <path id="Trazado_1016648" data-name="Trazado 1016648" d="M70.9,60.468a29.508,29.508,0,0,0,4.064-.244c3.418-1.39.992-3.349.775-5.559" transform="translate(-15.43 -11.897)" fill="none" stroke="#e59174" stroke-linecap="round" stroke-linejoin="round" stroke-width="1.5"/>
              <path id="Trazado_1016649" data-name="Trazado 1016649" d="M63.924,67.967c.619,5.255,3.692,6.771,7.155,6.771,4.208,0,5.812-2.011,6.523-6.771Z" transform="translate(-13.912 -14.792)" fill="#d0816f"/>
              <path id="Trazado_1016650" data-name="Trazado 1016650" d="M63.924,68.284c.619,5.255,3.061,6.771,6.523,6.771,4.21,0,5.813-2.011,6.523-6.771Z" transform="translate(-13.912 -14.861)" fill="#fff"/>
              <path id="Trazado_1016651" data-name="Trazado 1016651" d="M79.835,70.832l-2.749.454,2.561.289Z" transform="translate(-16.777 -15.416)" fill="#d0816f"/>
              <path id="Trazado_1016652" data-name="Trazado 1016652" d="M64.382,70.84l-.052-.008.189.742.081-.009c-.077-.229-.151-.472-.218-.726" transform="translate(-14.001 -15.416)" fill="#d0816f"/>
              <path id="Trazado_1016653" data-name="Trazado 1016653" d="M66.77,71.325v-.09L64.4,70.842q.1.381.218.726l2.155-.243" transform="translate(-14.015 -15.418)" fill="#d0816f"/>
              <path id="Trazado_1016654" data-name="Trazado 1016654" d="M34.71,12.625s-3.5,10.078-1.427,25.687c0,0,6.16-3.145,7.094,6.817l2.028-.156s-1.34-15.782-1.34-15.8A15.2,15.2,0,0,1,45.429,17.1c5.377-5.088,14.427-4.474,14.427-4.474,12.164-.362,16.257,4.941,16.257,4.941,2.532,2.4,3.256,5.81,3.438,9.155,0,0,.323,5.973.824,15.1,0,0,.572-12.438.445-18.383-.185-8.651-.064-18.027-9.595-21.682-7.31-2.8-16.9-1.563-24.412-.929,0,0-8.461-.547-12.1,11.8" transform="translate(-7.101 0)" fill="#884430"/>
              <path id="Trazado_1016655" data-name="Trazado 1016655" d="M57.93,46.4c.011,1.581.9,2.857,1.982,2.853s1.957-1.294,1.948-2.875-.9-2.858-1.982-2.852S57.921,44.822,57.93,46.4" transform="translate(-12.608 -9.473)" fill="#29180d"/>
              <path id="Trazado_1016656" data-name="Trazado 1016656" d="M58.972,45.8a.85.85,0,1,1-.851-.849.851.851,0,0,1,.851.849" transform="translate(-12.464 -9.783)" fill="#fff"/>
              <path id="Trazado_1016657" data-name="Trazado 1016657" d="M85.052,46.4c-.01,1.581-.9,2.857-1.983,2.853s-1.956-1.294-1.947-2.875.9-2.858,1.98-2.852,1.957,1.294,1.949,2.874" transform="translate(-17.655 -9.473)" fill="#29180d"/>
              <path id="Trazado_1016658" data-name="Trazado 1016658" d="M84.631,45.8a.85.85,0,1,0,.85-.849.851.851,0,0,0-.85.849" transform="translate(-18.419 -9.783)" fill="#fff"/>
              <path id="Trazado_1016659" data-name="Trazado 1016659" d="M19.569,144.574c-.056-6.121-.173-11.045-.373-13.751-.99-13.374,6.223-17.791,6.223-17.791,7.834-6.164,20.884-9.989,20.884-9.989l11.87,13.711,4.736-13.711,14.006,4.951c6.966,3.758,6.928,17.133,6.928,17.133l-.512,19.447Z" transform="translate(-4.157 -22.426)" fill="#77c7df"/>
              <g id="Grupo_1195812" data-name="Grupo 1195812" transform="translate(14.946 85.56)" opacity="0.5" style="mix-blend-mode: multiply;isolation: isolate">
                <g id="Grupo_1195811" data-name="Grupo 1195811">
                  <g id="Grupo_1195810" data-name="Grupo 1195810" clip-path="url(#clip-path-6)">
                    <path id="Trazado_1016660" data-name="Trazado 1016660" d="M42.307,145.949H19.57c-.057-6.121-.173-11.045-.373-13.751-.99-13.374,6.222-17.791,6.222-17.791a47.281,47.281,0,0,1,8.311-5.047c.957.655,1.911,1.318,2.845,2.02a17.5,17.5,0,0,1,7.08,12.914,64.809,64.809,0,0,1-.274,17.3,29.247,29.247,0,0,1-1.074,4.357" transform="translate(-19.103 -109.361)" fill="#9fd7ec"/>
                  </g>
                </g>
              </g>
              <path id="Trazado_1016661" data-name="Trazado 1016661" d="M16.387,155.006a6.547,6.547,0,0,1,11.549-1.026l.661,1.026Z" transform="translate(-3.566 -32.858)" fill="#f1a786"/>
              <path id="Trazado_1016662" data-name="Trazado 1016662" d="M38.858,146.563H13.311L14.9,126.326s.818-14.439,13.45-14.14c0,0,11.277,0,11.014,19.565Z" transform="translate(-2.897 -24.415)" fill="#2f95b3"/>
              <path id="Trazado_1016663" data-name="Trazado 1016663" d="M69.041,116.755l4.736-13.711,6.714,2.373Z" transform="translate(-15.026 -22.426)" fill="#bbe4fb"/>
              <path id="Trazado_1016664" data-name="Trazado 1016664" d="M76.133,97.784,86.7,105.844l-6.3,5.837-7.07-6.271Z" transform="translate(-15.958 -21.281)" fill="#89d1f7"/>
              <path id="Trazado_1016665" data-name="Trazado 1016665" d="M64.159,116.085l-12-16.12-5.545,5.215Z" transform="translate(-10.144 -21.756)" fill="#bbe4fb"/>
              <path id="Trazado_1016666" data-name="Trazado 1016666" d="M49.614,97.784l-8.575,7.251,7.017,7.718,8.192-6.445Z" transform="translate(-8.932 -21.281)" fill="#89d1f7"/>
              <path id="Trazado_1016667" data-name="Trazado 1016667" d="M40.254,61.65a2.8,2.8,0,0,1-2.09,1.695c-1.6.32-3.042-.859-4.156-1.852a7.256,7.256,0,0,1-.861-.88,9.568,9.568,0,0,1-2.233-6.077c-.01-1.612.222-4.1,1.535-5.277,3.069-2.748,5.78.252,6.613,1.824a15.87,15.87,0,0,1,1.515,5.5,10.19,10.19,0,0,1-.322,5.07" transform="translate(-6.728 -10.477)" fill="#f1a786"/>
              <path id="Trazado_1016668" data-name="Trazado 1016668" d="M33.909,51.015a3.039,3.039,0,0,1,1.436-.349c2.145-.046,3.7,3.618,1.53,4.151a1.4,1.4,0,0,0-.059,1.839c.693.9,1.623,2.195,1.34,3.406a1.919,1.919,0,0,1-1.611,1.224c-.542.116-.628-.343-.188-.543a2.474,2.474,0,0,0,.847-.684c.021-.041.047-.082.069-.12a.522.522,0,0,0,.056-.088.872.872,0,0,0,.049-.532,1.228,1.228,0,0,1-1.655-.106c-.379-.547-.035-1.361-.145-1.97a4.872,4.872,0,0,0-.436-1.224c-.9-1.826.886-2.038.886-2.038a4.968,4.968,0,0,1,.646.085c.922-.467-.009-1.968-.544-2.227a1.609,1.609,0,0,0-1.882.261,3.049,3.049,0,0,0-.692,2.018,7.162,7.162,0,0,0,.464,2.486c.173.446.391.976.567,1.424.2.508-.345.7-.544.19A15.222,15.222,0,0,1,32.717,54.1a3.206,3.206,0,0,1,1.192-3.088" transform="translate(-7.116 -11.027)" fill="#da9579"/>
            </g>
          </g>
        </g>
      </g>
    </g>
  </g>
</svg>
