<svg xmlns="http://www.w3.org/2000/svg" xmlns:xlink="http://www.w3.org/1999/xlink" width="188" height="265" viewBox="0 0 188 265">
  <defs>
    <clipPath id="clip-path">
      <rect id="Rectángulo_462280" data-name="Rectángulo 462280" width="188" height="265" transform="translate(185.711 1597)" fill="#fff" stroke="#707070" stroke-width="1"/>
    </clipPath>
    <clipPath id="clip-path-2">
      <rect id="Rectángulo_462279" data-name="Rectángulo 462279" width="128.706" height="247.908" transform="translate(0 0)" fill="none"/>
    </clipPath>
  </defs>
  <g id="Grupo_1195828" data-name="Grupo 1195828" transform="translate(-185.711 -1597)">
    <g id="Enmascarar_grupo_1193133" data-name="Enmascarar grupo 1193133" clip-path="url(#clip-path)">
      <g id="Grupo_1195564" data-name="Grupo 1195564" transform="translate(217.618 1606.005)">
        <g id="Grupo_1195563" data-name="Grupo 1195563" transform="translate(0 -0.005)" clip-path="url(#clip-path-2)">
          <path id="Trazado_1016189" data-name="Trazado 1016189" d="M133.82,605.92,102.2,628.013s11.245,19.215,12.045,18.574c28.261-15.693,39.379-21.905,41.41-30.052,9.767-63.765-3.975-97.087-3.975-97.087l-18.449,2.778c.422,31.509,2.079,68.931.84,84.874Z" transform="translate(-84.549 -429.734)" fill="#2ed19b"/>
          <path id="Trazado_1016190" data-name="Trazado 1016190" d="M287.293,724.321h-.015a.333.333,0,0,1-.318-.347c.246-5.593.527-10.928.825-16.577.736-13.943,1.5-28.361,1.781-48.075a.332.332,0,0,1,.332-.328h0a.333.333,0,0,1,.328.337c-.285,19.726-1.046,34.151-1.782,48.1-.3,5.647-.579,10.982-.825,16.571a.332.332,0,0,1-.332.318" transform="translate(-237.4 -545.181)" fill="#131313"/>
          <path id="Trazado_1016191" data-name="Trazado 1016191" d="M53.072,1166.778l-12.568,7.9s.051,21.061,13.455,21.219l-1.086-8.419,9.347-6.01Z" transform="translate(-33.509 -965.268)" fill="#fff"/>
          <path id="Trazado_1016192" data-name="Trazado 1016192" d="M112.605,639.794a.426.426,0,0,1-.083-.008c-.3-.055-.915-.169-6.672-9.532-2.809-4.569-5.5-9.168-5.53-9.214a.332.332,0,0,1,.1-.44l32.368-22.615a.333.333,0,0,1,.381.545L101.05,620.969c.6,1.027,2.877,4.883,5.256,8.757,4.63,7.539,5.931,9.087,6.295,9.369,3.089-1.715,5.907-3.267,8.634-4.769,21.759-11.985,29.9-16.47,32.51-25.028,1.924-6.308,3.77-23.255,3.576-43.439-.128-13.291-1.321-38.057-7.882-54.587a.332.332,0,0,1,.618-.245c6.6,16.63,7.8,41.489,7.928,54.826.194,20.251-1.666,37.282-3.605,43.639-1.332,4.368-4.032,7.718-9.318,11.562-5.142,3.739-12.845,7.982-23.507,13.855-2.754,1.517-5.6,3.085-8.726,4.821a.407.407,0,0,1-.224.066" transform="translate(-82.957 -422.594)" fill="#131313"/>
          <path id="Trazado_1016193" data-name="Trazado 1016193" d="M22.334,1234.529s-11.859,1.567-13.2-21.059l-6.855,3.988s15.12,33.016,15.926,32.327c2-1.713,4.914-5.859,4.132-15.256" transform="translate(-1.883 -1003.895)" fill="#131313"/>
          <path id="Trazado_1016194" data-name="Trazado 1016194" d="M16.627,1209.762a.407.407,0,0,1-.088-.009c-.354-.076-1.012-.218-8.88-16.364C3.8,1185.478.068,1177.5.031,1177.421A.333.333,0,0,1,.155,1177L19.386,1164.9a.333.333,0,0,1,.354.563L.758,1177.4c.671,1.431,3.946,8.394,7.348,15.383,6.267,12.874,8.021,15.68,8.51,16.229,3.233-2.959,3.734-8.915,3.578-13.43A55.8,55.8,0,0,0,19,1186.133a.332.332,0,0,1,.133-.347l9.306-6.54a.332.332,0,0,1,.382.544L19.7,1186.2a57.031,57.031,0,0,1,1.159,9.351,30.741,30.741,0,0,1-.607,7.844,11.375,11.375,0,0,1-3.369,6.271.391.391,0,0,1-.256.094" transform="translate(0 -963.675)" fill="#131313"/>
          <path id="Trazado_1016195" data-name="Trazado 1016195" d="M53.577,1233.268h-.012a11.167,11.167,0,0,1-8.009-3.6,18.661,18.661,0,0,1-3.978-7.345,38.125,38.125,0,0,1-1.535-10.448.332.332,0,0,1,.332-.327h.006a.333.333,0,0,1,.327.338,37.394,37.394,0,0,0,1.51,10.255c2.087,6.746,5.913,10.268,11.372,10.466a.332.332,0,0,1-.012.665" transform="translate(-33.126 -1002.302)" fill="#131313"/>
          <path id="Trazado_1016196" data-name="Trazado 1016196" d="M225.174,1304.992l.282,9.93,8.144,2.368s-5.847,10.8-25.591,1.351c.271.043-.379-14.16-.379-14.16Z" transform="translate(-171.771 -1079.188)" fill="#fff"/>
          <path id="Trazado_1016197" data-name="Trazado 1016197" d="M161.549,548.709c2.183,26.159,4.3,60.388,4.362,87.84,6.226,1.349,21.992,1.562,21.938.552,0,0,13.682-96.937,7.856-132.418,0,0-9.526,1.982-23.935-6.941a38.888,38.888,0,0,0-9.514,14.319c-5.167,14.549-1.046,32.578-.707,36.648" transform="translate(-132.095 -411.778)" fill="#2ed19b"/>
          <path id="Trazado_1016198" data-name="Trazado 1016198" d="M236.409,1378.646s-5.173,11.672-25.32,1.394l-.064,7.814,36.271.267c-.452-2.559-2.405-5.4-10.887-9.475" transform="translate(-174.58 -1140.545)" fill="#131313"/>
          <path id="Trazado_1016199" data-name="Trazado 1016199" d="M242.895,1325.5h0l-36.266-.194a.332.332,0,0,1-.331-.323L205.7,1302.9a.332.332,0,0,1,.665-.018l.583,21.767,35.532.19c-1-4.092-5.843-6.879-9.8-8.512a50.359,50.359,0,0,0-8.88-2.669.333.333,0,0,1-.272-.314l-.382-9.616a.332.332,0,0,1,.664-.026l.371,9.354a51.49,51.49,0,0,1,8.742,2.653,26.193,26.193,0,0,1,6.553,3.716,9.687,9.687,0,0,1,3.742,5.69.332.332,0,0,1-.327.391" transform="translate(-170.178 -1077.596)" fill="#131313"/>
          <path id="Trazado_1016200" data-name="Trazado 1016200" d="M179.9,635.863c-1.152,0-2.172-.02-2.772-.035a82.484,82.484,0,0,1-12.861-1.156.333.333,0,0,1-.262-.313c-.571-15.108-.682-23.745-.78-31.365-.078-6.088-.146-11.345-.427-18.672l-3.217-38.552c-.163-1.688-.387-3.479-.623-5.377-.839-6.716-1.789-14.328-.691-22.153a37.978,37.978,0,0,1,11.7-22.942.332.332,0,0,1,.307-.083c.114.027,11.609,2.695,26.979-.13a.332.332,0,1,1,.12.654,79.561,79.561,0,0,1-19.5,1.146,55.1,55.1,0,0,1-7.574-.982c-14.477,14.01-12.284,31.574-10.682,44.409.237,1.9.462,3.7.626,5.4l3.218,38.564s0,.01,0,.015c.282,7.339.35,12.6.428,18.7.1,7.572.208,16.149.77,31.089a84.314,84.314,0,0,0,12.437,1.087c5.092.128,8.3-.1,8.858-.38.317-2.676,8.17-69.524,8.2-112.476-.008-.218-.08-3.205,2.176-4.594a.332.332,0,1,1,.349.566c-1.956,1.2-1.862,3.978-1.86,4.006,0,0,0,.01,0,.015-.016,22.813-2.249,52.225-4.12,72.881-2,22.062-4.017,39.1-4.093,39.74a.462.462,0,0,1-.174.338c-.587.5-3.9.6-6.533.6" transform="translate(-130.525 -409.576)" fill="#131313"/>
          <path id="Trazado_1016201" data-name="Trazado 1016201" d="M224.028,1382.807q-1.014,0-2.079-.107a35.939,35.939,0,0,1-12.3-3.954.332.332,0,1,1,.3-.594c9.927,5,16.165,4.383,19.651,2.988a10.5,10.5,0,0,0,5.224-4.239.333.333,0,0,1,.59.307,10.949,10.949,0,0,1-5.521,4.531,15.567,15.567,0,0,1-5.869,1.068" transform="translate(-173.294 -1138.953)" fill="#131313"/>
          <path id="Trazado_1016202" data-name="Trazado 1016202" d="M577.059,269.379c-.66-.675-1.286-1.377-1.914-2.085a55.567,55.567,0,0,1-4.464-5.471l.128-.106a16.8,16.8,0,0,1,2.752-5.309c-.2.236,3.1-4.983,4.191-4.544-.015.033,1.259.946-.254,4.086-.09.317,4.295-1.983,6.31-3.669.268-.231,2.688-2.729,3.493-1.488a14.094,14.094,0,0,1-4.588,5.445c.113-.086,2.18-.027,5.566-2.808.436-.329,3.181-2.761,2.447.681-.076.14,1.418.975,1.007,2.408a18.081,18.081,0,0,1-1.968,3.384c.765-.4,2.383-.7,2.4.273-.106,0-2.864,6.03-13.961,7.937,0,0-.43.477-1.143,1.266" transform="translate(-472.121 -207.194)" fill="#fff"/>
          <path id="Trazado_1016203" data-name="Trazado 1016203" d="M601.733,352.939a.332.332,0,0,1-.253-.548,6.044,6.044,0,0,1,.994-.782,6.169,6.169,0,0,0,.887-.685.333.333,0,0,1,.512.425,5.955,5.955,0,0,1-1.018.806,6.234,6.234,0,0,0-.867.667.332.332,0,0,1-.253.117" transform="translate(-497.535 -290.217)" fill="#131313"/>
          <path id="Trazado_1016204" data-name="Trazado 1016204" d="M612.634,309.8a.333.333,0,0,1-.043-.662A26.527,26.527,0,0,0,621.453,306c3.2-1.651,4.7-3.7,4.708-4.566,0-.215-.093-.266-.134-.288a.345.345,0,0,1-.058-.039,3.834,3.834,0,0,0-1.174.658,11.29,11.29,0,0,1-6.375,2.321h0a.332.332,0,0,1,0-.665,10.556,10.556,0,0,0,6.01-2.207c.887-.6,1.479-1,1.948-.637a.938.938,0,0,1,.454.863c-.011,1.235-1.79,3.459-5.068,5.151a27.117,27.117,0,0,1-9.08,3.209l-.044,0" transform="translate(-506.554 -248.546)" fill="#131313"/>
          <path id="Trazado_1016205" data-name="Trazado 1016205" d="M640.407,282.04a.333.333,0,0,1-.083-.654,12,12,0,0,0,2.966-1.126c2.752-1.335,4.23-3.687,4.4-4.933a.784.784,0,0,0-.118-.668l-.018-.018c-.2-.208-.712.03-1.372.636a16.329,16.329,0,0,1-4.464,3.054c-.628.3-1.287.588-1.856.8-.873.32-.961.277-1.072.223a.344.344,0,0,1-.188-.35.332.332,0,0,1,.373-.285,18,18,0,0,0,6.736-3.907l.014-.013c1.26-1.161,1.945-.983,2.3-.624a1.335,1.335,0,0,1,.324,1.247c-.229,1.647-2.073,4.13-4.763,5.435a12.7,12.7,0,0,1-3.1,1.176.333.333,0,0,1-.084.011" transform="translate(-528.312 -226.595)" fill="#131313"/>
          <path id="Trazado_1016206" data-name="Trazado 1016206" d="M631.27,267.076a.332.332,0,0,1-.1-.649,14.986,14.986,0,0,0,7.046-4.36,1.067,1.067,0,0,1,.181-.193c.871-.988.891-1.855.749-2.022l-.012-.015a.3.3,0,0,0-.213-.139c-.405-.055-1.192.546-2.026,1.181-.376.287-.8.612-1.25.923a15.8,15.8,0,0,1-5.919,2.909.332.332,0,1,1-.107-.656,15.352,15.352,0,0,0,5.632-2.789l.01-.007c.437-.3.841-.61,1.231-.908,1.068-.815,1.839-1.4,2.519-1.312a.963.963,0,0,1,.647.388c.429.515.242,1.781-.812,2.943a.321.321,0,0,1-.066.056l-.044.056a15.633,15.633,0,0,1-7.362,4.577.333.333,0,0,1-.1.016" transform="translate(-520.647 -214.293)" fill="#131313"/>
          <path id="Trazado_1016207" data-name="Trazado 1016207" d="M611.776,255.115a.333.333,0,0,1-.169-.619,18.518,18.518,0,0,0,4.137-3.38,4.833,4.833,0,0,0,1.635-2.788c-.013-.131-.062-.165-.081-.177a.325.325,0,0,1-.047-.039c-.029-.029-.174-.026-.516.194a14.325,14.325,0,0,0-1.436,1.167,21.126,21.126,0,0,1-2.62,2.057,16.243,16.243,0,0,1-4.593,2.565.332.332,0,0,1-.095-.658,16.463,16.463,0,0,0,4.308-2.453l.018-.012a20.561,20.561,0,0,0,2.544-2c1.283-1.124,2.214-1.94,2.84-1.351a.871.871,0,0,1,.339.642c.078.8-.635,2.1-1.815,3.311a19.155,19.155,0,0,1-4.282,3.5.332.332,0,0,1-.168.046" transform="translate(-502.752 -204.692)" fill="#131313"/>
          <path id="Trazado_1016208" data-name="Trazado 1016208" d="M569.81,266.56h-.027a.332.332,0,0,1-.305-.358c.206-2.583,1.829-4.429,3.4-6.215a18.137,18.137,0,0,0,2.521-3.354,1.183,1.183,0,0,1,1.485-.54,1.04,1.04,0,0,1,.628.614.338.338,0,0,1,.02.09c.155,2.063-.631,3.834-1.595,5.771a.332.332,0,0,1-.6-.3,10.506,10.506,0,0,0,1.53-5.374c-.046-.1-.112-.131-.267-.2a.526.526,0,0,0-.606.223l-.008.016a18.588,18.588,0,0,1-2.613,3.489c-1.567,1.783-3.047,3.467-3.235,5.829a.332.332,0,0,1-.331.306" transform="translate(-471.125 -211.789)" fill="#131313"/>
          <path id="Trazado_1016209" data-name="Trazado 1016209" d="M597.072,298.531a.332.332,0,0,1-.227-.576,4.845,4.845,0,0,0,1.72-4.212,5.087,5.087,0,0,0-.653-1.994.332.332,0,0,1,.559-.36,5.722,5.722,0,0,1,.755,2.281,5.508,5.508,0,0,1-1.927,4.773.332.332,0,0,1-.227.089" transform="translate(-493.679 -240.937)" fill="#131313"/>
          <path id="Trazado_1016210" data-name="Trazado 1016210" d="M68.987,87.793c5.349-5.787,3.121-13.975,2.6-16.507-.7-3.381-2.26-7.074-2.542-9.927a16.936,16.936,0,0,1,1.471-7.918l1.071-16.146A5.926,5.926,0,0,0,63.9,39.207c-1.569,2.5-1,5.7-1.074,8.653a18.762,18.762,0,0,1-8.787,15.221c-1.758,1.078-3.683,1.852-5.5,2.823A21.742,21.742,0,0,0,39.9,73.816a14.668,14.668,0,0,0-1.667,11.41c1.12,3.792,5.566,7.5,9.446,8.267,0,0,14.3,1.886,21.307-5.7" transform="translate(-31.205 -30.274)" fill="#623f04"/>
          <path id="Trazado_1016211" data-name="Trazado 1016211" d="M49.547,92.383c-2.105,0-3.5-.153-3.521-.155l-.027,0c-4.137-.813-8.579-4.7-9.7-8.5A14.892,14.892,0,0,1,38,72.052a22.037,22.037,0,0,1,8.765-8.037c.718-.383,1.462-.74,2.181-1.085a36.837,36.837,0,0,0,3.3-1.727,18.513,18.513,0,0,0,8.629-14.947c.018-.677,0-1.385-.016-2.069-.057-2.335-.116-4.75,1.141-6.752a6.256,6.256,0,0,1,8.13-2.024.332.332,0,1,1-.331.576,5.567,5.567,0,0,0-7.235,1.8c-1.151,1.832-1.094,4.145-1.04,6.382.017.693.035,1.409.016,2.1a19.1,19.1,0,0,1-8.946,15.5,37.3,37.3,0,0,1-3.364,1.76c-.713.342-1.45.7-2.156,1.073a21.374,21.374,0,0,0-8.5,7.787,14.226,14.226,0,0,0-1.635,11.147c1.058,3.581,5.258,7.256,9.177,8.032a40.17,40.17,0,0,0,8.118-.115c4.062-.475,9.624-1.841,13.051-5.65,3.131-3.481,4.012-8.438,2.619-14.734-.4-1.788-.9-3.417-1.392-4.992a36.784,36.784,0,0,1-1.284-4.86,18.622,18.622,0,0,1,1.378-9.53.332.332,0,1,1,.583.319,18.119,18.119,0,0,0-1.305,9.106,36.361,36.361,0,0,0,1.263,4.768c.494,1.588,1,3.23,1.406,5.046,1.442,6.519.508,11.675-2.776,15.324-3.569,3.966-9.3,5.379-13.482,5.866a41.358,41.358,0,0,1-4.747.268" transform="translate(-29.59 -28.679)" fill="#131313"/>
          <path id="Trazado_1016212" data-name="Trazado 1016212" d="M426.02,316.419l-14.955,14.657-2.005-5.558s-13.478,7.625-13.553,7.678c-.2,14.67,7.717,18.143,8.2,18.369,7.658,3.986,18.326-11.192,18.265-11.115,1.5-1.858,6.4-11.934,10.032-17.244-2.659-2.923-3.433-3.761-5.979-6.786" transform="translate(-327.198 -261.771)" fill="#fff"/>
          <path id="Trazado_1016213" data-name="Trazado 1016213" d="M215.82,53.129s2.774,15.91-6.861,16.35l-3.114-.514s-1.559,8.171,6.265,9.433c.03.439,8.256.156,10.626,3.857-.8.231-19.6,7.066-42.64-2.036,0,0,2.881-2.462,9.293-3.271-.019-.092,6.431,1.289,6.427-4.032-.39-.15-.01-13.114-.01-13.114s-3.928.641-3.953-4.514c.054-.328,1.1-4.38,5.6-1.733,0,0,8.356.175,10.858-10.224-.253-.057,7.687.879,7.511,9.8" transform="translate(-148.993 -35.845)" fill="#fff"/>
          <path id="Trazado_1016214" data-name="Trazado 1016214" d="M152.029,258.9s4.916,4.307,8.015,17.21c-.344.36-8.542,7.988-12.783,9.265,0,0-2.513,13.381-1.6,16.774-1.218.733-21.183,5.037-30.408-4.724,0,0,1.347-16.035-.735-21.723l-5.6,6.353s-13.736.221-14.639-7.035c4.094-8.683,7.284-16.074,14.821-18.089,0,0,17.871,7.974,42.926,1.969" transform="translate(-77.999 -212.56)" fill="#334155"/>
          <path id="Trazado_1016215" data-name="Trazado 1016215" d="M226,30.013c-15.748-4.45-10.071-26.543,4.8-27.952,15.635-1.481,23.63,11.077,15.383,18.668,0,0,.715-10.471-7.689-11.639.644.154-3.206,10.619-11.154,10.621.262-.038-5.279-4.45-5.34,2.61-.36.465,1,3.616,3.992,3.239,0,.223,0,4.45,0,4.45" transform="translate(-179.185 -1.605)" fill="#935f07"/>
          <path id="Trazado_1016216" data-name="Trazado 1016216" d="M310.33,99.463a11.183,11.183,0,0,1-7.447-3.139.332.332,0,0,1,.461-.479,10.39,10.39,0,0,0,7.1,2.952A5.777,5.777,0,0,0,315,96.719c3.217-3.9,2.332-12.426,1.518-17.163a.333.333,0,0,1,.655-.113c1.018,5.924,1.555,13.8-1.661,17.7a6.409,6.409,0,0,1-5.049,2.318c-.014,0-.059,0-.132,0" transform="translate(-250.489 -65.494)" fill="#131313"/>
          <path id="Trazado_1016217" data-name="Trazado 1016217" d="M250.023,102.818a3.944,3.944,0,0,1-2.788-.956,4.787,4.787,0,0,1-1.158-3.915,3.984,3.984,0,0,1,.622-1.729,2.579,2.579,0,0,1,1.905-1.265c1.662-.173,3.269,1.393,3.337,1.46a.332.332,0,0,1-.467.473c-.022-.021-1.458-1.414-2.8-1.272a1.924,1.924,0,0,0-1.418.969,3.319,3.319,0,0,0-.517,1.439,4.13,4.13,0,0,0,.95,3.351c.8.743,2.064.955,3.755.631a.332.332,0,1,1,.126.653,8.234,8.234,0,0,1-1.545.159" transform="translate(-203.546 -78.543)" fill="#131313"/>
          <path id="Trazado_1016218" data-name="Trazado 1016218" d="M260.532,110.16a.332.332,0,0,1-.3-.187c-.061-.073-.332-.357-1.543-1.433-.8-.709-1.607-1.408-1.615-1.415a.332.332,0,0,1,.435-.5c.008.007.82.709,1.621,1.421,1.726,1.533,1.728,1.594,1.733,1.775a.332.332,0,0,1-.322.342h-.01" transform="translate(-212.581 -88.141)" fill="#131313"/>
          <path id="Trazado_1016219" data-name="Trazado 1016219" d="M262.17,116.549a.333.333,0,0,1-.274-.52l.776-1.133a.332.332,0,1,1,.549.376l-.776,1.133a.332.332,0,0,1-.275.145" transform="translate(-216.617 -94.932)" fill="#131313"/>
          <path id="Trazado_1016220" data-name="Trazado 1016220" d="M311.061,99.647a.333.333,0,0,1-.183-.611,5.1,5.1,0,0,1,5.021-.456.332.332,0,0,1-.309.589,4.435,4.435,0,0,0-4.347.423.331.331,0,0,1-.182.055" transform="translate(-257.063 -81.178)" fill="#131313"/>
          <path id="Trazado_1016221" data-name="Trazado 1016221" d="M357.958,103.808a.332.332,0,0,1-.184-.609c.006,0,.643-.428,1.244-.856a.8.8,0,0,0,.335-.592.775.775,0,0,0-.231-.617,6.816,6.816,0,0,1-2.214-4.561s0-.008,0-.013A2.953,2.953,0,0,1,358,94.108a4.054,4.054,0,0,1,3.113-.407.333.333,0,0,1-.175.642,3.442,3.442,0,0,0-2.545.3,2.327,2.327,0,0,0-.818,1.926,6.15,6.15,0,0,0,2.013,4.086,1.439,1.439,0,0,1,.43,1.145,1.463,1.463,0,0,1-.612,1.083c-.61.435-1.255.864-1.262.868a.33.33,0,0,1-.184.056" transform="translate(-295.267 -77.398)" fill="#131313"/>
          <path id="Trazado_1016222" data-name="Trazado 1016222" d="M322.423,114.774c.009.677.329,1.222.716,1.217s.693-.557.685-1.234-.329-1.222-.716-1.217-.693.558-.685,1.235" transform="translate(-266.739 -93.93)" fill="#131313"/>
          <path id="Trazado_1016223" data-name="Trazado 1016223" d="M369.822,109.163c.008.677.329,1.222.716,1.217s.693-.557.685-1.234-.329-1.222-.716-1.217-.694.558-.685,1.234" transform="translate(-305.951 -89.288)" fill="#131313"/>
          <path id="Trazado_1016224" data-name="Trazado 1016224" d="M224.405,28.736a.337.337,0,0,1-.091-.013,13.133,13.133,0,0,1-7.731-5.429,13,13,0,0,1-1.859-8.252,17.007,17.007,0,0,1,4.342-9.795A15.417,15.417,0,0,1,229.178.12a22.544,22.544,0,0,1,11.5,1.67,13.33,13.33,0,0,1,6.533,6.031,9.691,9.691,0,0,1,.873,5.928,11.46,11.46,0,0,1-3.124,5.932.332.332,0,0,1-.484-.456c3.168-3.357,3.947-7.407,2.137-11.112C244.066,2.9,237.247.024,229.24.783c-8.225.779-13.276,7.96-13.854,14.32s2.829,11.206,9.109,12.981a.332.332,0,0,1-.09.652" transform="translate(-177.588 0.005)" fill="#131313"/>
          <path id="Trazado_1016225" data-name="Trazado 1016225" d="M228.328,366.449c-7.715,0-13.724-2.14-17.942-6.406a.332.332,0,0,1-.1-.242c.028-1.2.087-2.6.149-4.072.258-6.121.612-14.5-.87-19.3a.333.333,0,0,1,.635-.2c1.516,4.906,1.159,13.355.9,19.524-.06,1.415-.116,2.754-.146,3.917,6.111,6.088,16.1,7.635,29.708,4.6-.416-4.326,1.3-16.155,2.251-19.228a.339.339,0,0,1,.036-.078c2.033-3.238,2.682-6.353,1.875-9.01a6.885,6.885,0,0,0-1.813-3.034.332.332,0,1,1,.431-.506,7.471,7.471,0,0,1,2.018,3.347c.6,1.979.754,5.235-1.925,9.52-.966,3.172-2.7,15.243-2.18,19.205a.333.333,0,0,1-.256.368,58.149,58.149,0,0,1-12.776,1.591" transform="translate(-173.363 -274.94)" fill="#131313"/>
          <path id="Trazado_1016226" data-name="Trazado 1016226" d="M354.216,226.154a.332.332,0,0,1-.3-.191A64.187,64.187,0,0,1,351,217.828c-2.246-7.223-4.569-14.691-11.455-16.679-.881-.254-3.635-.767-3.663-.772-.712-.15-1.468-.289-2.387-.437a8.108,8.108,0,0,1-4.271-2.066c-1.817-1.752-2.582-4.352-2.272-7.726a.332.332,0,1,1,.662.061c-.661,7.208,3.967,8.747,5.988,9.075.93.151,1.7.291,2.41.442.107.02,2.806.522,3.718.785,7.231,2.087,9.607,9.73,11.906,17.121a63.753,63.753,0,0,0,2.886,8.05.332.332,0,0,1-.3.474" transform="translate(-270.426 -157.057)" fill="#131313"/>
          <path id="Trazado_1016227" data-name="Trazado 1016227" d="M242.153,154.507a.332.332,0,0,1-.018-.664c.13-.007.274-.012.427-.017,1.56-.052,3.919-.132,3.987-3.173l-.01-13.532a.332.332,0,0,1,.332-.333h0a.332.332,0,0,1,.332.332l.01,13.539c-.082,3.678-3.04,3.777-4.629,3.831-.148.005-.286.01-.412.017h-.019" transform="translate(-200.057 -113.162)" fill="#131313"/>
          <path id="Trazado_1016228" data-name="Trazado 1016228" d="M277.27,52.7a.333.333,0,0,1-.045-.662,12.1,12.1,0,0,0,9.067-5.65,13.09,13.09,0,0,0,1.8-4.684.332.332,0,0,1,.66.084,13.5,13.5,0,0,1-1.883,4.927,12.844,12.844,0,0,1-9.555,5.981.347.347,0,0,1-.046,0" transform="translate(-229.109 -34.263)" fill="#131313"/>
          <path id="Trazado_1016229" data-name="Trazado 1016229" d="M348.893,48.6a.333.333,0,0,1-.328-.282,6.9,6.9,0,0,0-3.65-5.049,10.781,10.781,0,0,0-3.119-1.194.332.332,0,0,1,.115-.655,11.244,11.244,0,0,1,3.317,1.262,7.635,7.635,0,0,1,3.994,5.535.333.333,0,0,1-.279.379.337.337,0,0,1-.051,0" transform="translate(-282.538 -34.263)" fill="#131313"/>
          <path id="Trazado_1016230" data-name="Trazado 1016230" d="M474.244,332.13a.333.333,0,0,1-.249-.552,184.763,184.763,0,0,1,16.412-16.418.333.333,0,0,1,.434.5,184.026,184.026,0,0,0-16.348,16.354.332.332,0,0,1-.25.113" transform="translate(-392.064 -260.662)" fill="#131313"/>
          <path id="Trazado_1016231" data-name="Trazado 1016231" d="M403.526,387.275a9.29,9.29,0,0,1-7.566-4.226c-2.582-3.637-3.621-8.172-4.3-12.128-.12-.7-.233-1.44-.335-2.194a.332.332,0,1,1,.659-.089c.1.747.213,1.477.332,2.171.664,3.882,1.68,8.327,4.185,11.856a8.4,8.4,0,0,0,7.854,3.9c4.427-.467,7.523-4.029,10.255-7.172,1.89-2.175,6.276-9.555,9.478-14.944,1.551-2.609,2.89-4.863,3.571-5.9a.333.333,0,0,1,.555.366c-.673,1.02-2.008,3.268-3.555,5.87-3.215,5.411-7.618,12.821-9.548,15.041-2.812,3.236-6,6.9-10.687,7.4a8.543,8.543,0,0,1-.9.048" transform="translate(-323.739 -296.505)" fill="#131313"/>
          <path id="Trazado_1016232" data-name="Trazado 1016232" d="M329.775,154.145c.356.032.679.13.74.334.05.168-.082.408-.294.639a4.037,4.037,0,0,1-.786.628c-1.539,1.148-4.159,1-4.633-1.5-.189-.932.194-1.923.993-1.742,1.037.206,2.088,1.465,3.98,1.636" transform="translate(-268.667 -126.151)" fill="#131313"/>
          <path id="Trazado_1016233" data-name="Trazado 1016233" d="M326.422,164.713a1.2,1.2,0,0,0-.178.151,2.553,2.553,0,0,0,2.921,1.446,1.86,1.86,0,0,0-.427-1.056,1.8,1.8,0,0,0-2.316-.542" transform="translate(-269.9 -136.074)" fill="#fff"/>
          <path id="Trazado_1016234" data-name="Trazado 1016234" d="M326.432,155.468a3.042,3.042,0,0,1-1.1-.2,2.741,2.741,0,0,1-1.682-2.156,2,2,0,0,1,.4-1.788,1,1,0,0,1,.947-.259,4.454,4.454,0,0,1,1.328.618,5.541,5.541,0,0,0,2.423.935c.565.051.9.238.994.554a1,1,0,0,1-.354.93,4.111,4.111,0,0,1-.805.649,3.651,3.651,0,0,1-2.148.717m-1.687-3.766a.318.318,0,0,0-.233.1,1.407,1.407,0,0,0-.212,1.185,2.075,2.075,0,0,0,1.27,1.664,2.848,2.848,0,0,0,2.623-.437l.02-.014a3.482,3.482,0,0,0,.684-.544.957.957,0,0,0,.193-.278,1.107,1.107,0,0,0-.4-.093,6.176,6.176,0,0,1-2.7-1.026,3.965,3.965,0,0,0-1.125-.539.491.491,0,0,0-.111-.014" transform="translate(-267.708 -124.951)" fill="#131313"/>
          <path id="Trazado_1016235" data-name="Trazado 1016235" d="M202.639,260.041a72.645,72.645,0,0,1-8.347-.474,63.4,63.4,0,0,1-15.911-3.915.333.333,0,0,1,.243-.619,68.312,68.312,0,0,0,29.406,4.152,66.5,66.5,0,0,0,13.3-2.192.332.332,0,0,1,.195.636,67.156,67.156,0,0,1-13.43,2.218q-2.741.195-5.458.195" transform="translate(-147.399 -210.967)" fill="#131313"/>
          <path id="Trazado_1016236" data-name="Trazado 1016236" d="M399.449,377.072a.333.333,0,0,1-.134-.637,41.611,41.611,0,0,0,12.358-8.957.332.332,0,1,1,.494.445,42.324,42.324,0,0,1-12.584,9.12.333.333,0,0,1-.134.028" transform="translate(-330.187 -303.921)" fill="#131313"/>
          <path id="Trazado_1016237" data-name="Trazado 1016237" d="M241.718,523.418a15.325,15.325,0,0,0-6.69.422c-1.361.365,5.482,3.624,5.482,3.624,5.6.1,7.79-2.664,7.85-2.91-.575-2.142-6.61-.8-6.642-1.135" transform="translate(-194.289 -432.848)" fill="#fff"/>
          <path id="Trazado_1016238" data-name="Trazado 1016238" d="M266.988,527.043a.333.333,0,0,1-.055-.66c3.588-.6,6.193-1.393,7.148-2.161a.707.707,0,0,0-.478-1.258c-.828.042-1.609.071-2.32.088a.332.332,0,0,1-.016-.665c.705-.017,1.48-.046,2.3-.088a1.372,1.372,0,0,1,.928,2.44c-1.056.85-3.7,1.667-7.455,2.3a.332.332,0,0,1-.056,0" transform="translate(-220.603 -432.093)" fill="#131313"/>
          <path id="Trazado_1016239" data-name="Trazado 1016239" d="M230.381,524.116a.333.333,0,0,1-.179-.613c2.73-1.734,5.056-1.61,7.75-1.468.961.051,1.955.1,3.028.072a.333.333,0,0,1,.019.665c-1.1.032-2.108-.022-3.082-.073-2.58-.136-4.808-.255-7.359,1.365a.331.331,0,0,1-.178.052" transform="translate(-190.317 -431.814)" fill="#131313"/>
          <path id="Trazado_1016240" data-name="Trazado 1016240" d="M60.077,271.824a.333.333,0,0,1-.315-.438c.118-.351.251-.756.4-1.208,2.071-6.286,6.922-21.007,14.047-27.551a26.1,26.1,0,0,1,17.313-7.09.333.333,0,0,1,0,.665,25.428,25.428,0,0,0-16.863,6.914c-7,6.428-11.81,21.033-13.866,27.27-.15.454-.283.86-.4,1.212a.333.333,0,0,1-.315.227" transform="translate(-49.426 -194.857)" fill="#131313"/>
          <path id="Trazado_1016241" data-name="Trazado 1016241" d="M400.572,351.08a.333.333,0,0,1-.332-.325,25.3,25.3,0,0,1,.424-5.709.34.34,0,0,1,.036-.078c2.024-3.222,2.676-6.325,1.886-8.974a6.955,6.955,0,0,0-1.824-3.071.332.332,0,0,1,.432-.506,7.472,7.472,0,0,1,2.018,3.347c.6,1.979.753,5.235-1.924,9.519a25.775,25.775,0,0,0-.383,5.457.333.333,0,0,1-.325.34h-.007" transform="translate(-331.11 -274.94)" fill="#fff"/>
          <path id="Trazado_1016242" data-name="Trazado 1016242" d="M204.325,354.22a.332.332,0,0,1-.33-.292,13.5,13.5,0,0,0-.786-3.166.332.332,0,1,1,.6-.283,13.884,13.884,0,0,1,.844,3.368.332.332,0,0,1-.289.371l-.041,0" transform="translate(-168.088 -289.79)" fill="#fff"/>
          <rect id="Rectángulo_462276" data-name="Rectángulo 462276" width="127.254" height="32.635" transform="matrix(0.701, -0.713, 0.713, 0.701, 15.903, 108.778)" fill="#f59e0b"/>
          <path id="Trazado_1016243" data-name="Trazado 1016243" d="M113.766,216.681a.331.331,0,0,1-.233-.1L90.256,193.711a.333.333,0,0,1,0-.47l89.194-90.764a.332.332,0,0,1,.47,0l23.277,22.874a.332.332,0,0,1,0,.47L114,216.581a.332.332,0,0,1-.237.1M90.96,193.47l22.8,22.408,88.728-90.289-22.8-22.408Z" transform="translate(-74.586 -84.696)" fill="#131313"/>
          <rect id="Rectángulo_462277" data-name="Rectángulo 462277" width="7.813" height="16.739" transform="matrix(0.701, -0.713, 0.713, 0.701, 110.781, 23.57)" fill="#aaa"/>
          <path id="Trazado_1016244" data-name="Trazado 1016244" d="M651.787,120.247a.332.332,0,0,1-.233-.1l-11.939-11.733a.333.333,0,0,1,0-.47l5.476-5.573a.333.333,0,0,1,.234-.1.327.327,0,0,1,.236.1L657.5,114.1a.332.332,0,0,1,0,.47l-5.476,5.573a.333.333,0,0,1-.234.1Zm-11.469-12.069,11.465,11.267,5.01-5.1-11.465-11.267Z" transform="translate(-529.067 -84.611)" fill="#131313"/>
          <rect id="Rectángulo_462278" data-name="Rectángulo 462278" width="7.813" height="16.739" transform="translate(16.081 119.937) rotate(-45.5)" fill="#aaa"/>
          <path id="Trazado_1016245" data-name="Trazado 1016245" d="M103.456,678.231a.332.332,0,0,1-.233-.1L91.284,666.4a.333.333,0,0,1,0-.47l5.476-5.573a.333.333,0,0,1,.234-.1h0a.332.332,0,0,1,.233.1l11.939,11.733a.332.332,0,0,1,0,.47l-5.476,5.573a.331.331,0,0,1-.237.1M91.987,666.162l11.465,11.267,5.01-5.1L97,661.064Z" transform="translate(-75.436 -546.229)" fill="#131313"/>
          <path id="Trazado_1016246" data-name="Trazado 1016246" d="M193.949,321.957l57.326-82.218,37.551-2.991-89.194,90.764Z" transform="translate(-160.452 -195.86)" fill="#f59e0b"/>
          <path id="Trazado_1016247" data-name="Trazado 1016247" d="M198.039,326.252a.331.331,0,0,1-.232-.095l-5.684-5.555a.333.333,0,0,1-.04-.428l57.326-82.218a.333.333,0,0,1,.246-.141l37.551-2.991a.332.332,0,0,1,.264.564l-89.194,90.764a.331.331,0,0,1-.237.1m-5.25-5.928,5.245,5.127,88.337-89.892-36.507,2.908Z" transform="translate(-158.859 -194.267)" fill="#131313"/>
          <path id="Trazado_1016248" data-name="Trazado 1016248" d="M525.878,239.74s11.875,8.18,12.493,30.9c11.787-11.38,22.467-22.733,25.058-33.893Z" transform="translate(-435.056 -195.86)" fill="#f59e0b"/>
          <path id="Trazado_1016249" data-name="Trazado 1016249" d="M536.779,269.38a.332.332,0,0,1-.332-.323c-.317-11.64-3.658-19.351-6.406-23.769a24.7,24.7,0,0,0-5.943-6.868.333.333,0,0,1,.162-.6l37.551-2.991a.333.333,0,0,1,.35.407c-1.2,5.164-4.191,10.723-9.144,16.994a181.239,181.239,0,0,1-16.007,17.062.333.333,0,0,1-.231.093M525.162,238.41a27.571,27.571,0,0,1,5.421,6.49,40.253,40.253,0,0,1,4.3,9.637,54.815,54.815,0,0,1,2.2,13.751c10.4-10.063,21.517-21.643,24.32-32.765Z" transform="translate(-433.464 -194.266)" fill="#131313"/>
          <path id="Trazado_1016250" data-name="Trazado 1016250" d="M89.238,386.187s4.632-2.022,8.94-1.175c.032.339,6.067-1.007,6.642,1.135-.06.246-2.254,3.007-7.85,2.91l-13.319,7s-12.527-5.345-16.2-9.128c-.106-.091-10.413-6.426-6.09-18.161-.311.256,4.433-12.967,4.433-12.967s10.364,7.35,15.553,7.265c-.031.046-5.63,7.94-5.564,11.174-.242.269,13.451,11.94,13.451,11.94" transform="translate(-49.891 -294.356)" fill="#fff"/>
          <path id="Trazado_1016251" data-name="Trazado 1016251" d="M275.627,527.611a.333.333,0,0,1-.055-.66c3.915-.66,5.7-1.576,6.514-2.229a.707.707,0,0,0-.478-1.258c-.829.042-1.609.071-2.32.088a.333.333,0,1,1-.016-.665c.7-.017,1.48-.046,2.3-.087a1.372,1.372,0,0,1,.928,2.44c-1.269,1.021-3.564,1.817-6.821,2.367a.346.346,0,0,1-.056,0" transform="translate(-227.75 -432.507)" fill="#131313"/>
          <path id="Trazado_1016252" data-name="Trazado 1016252" d="M150.82,463.524a.33.33,0,0,1-.205-.071c-.568-.45-13.93-11.053-15.818-14.056a.333.333,0,1,1,.563-.354c1.7,2.711,13.73,12.344,15.462,13.724.7-.5,3.037-1.753,8.327-1.178l.039.007a19.56,19.56,0,0,0,3.81.145.333.333,0,0,1,.016.665,19.952,19.952,0,0,1-3.956-.158c-6.009-.649-7.985,1.164-8,1.182a.336.336,0,0,1-.233.093" transform="translate(-111.474 -371.361)" fill="#131313"/>
          <path id="Trazado_1016253" data-name="Trazado 1016253" d="M147.728,377.513a.333.333,0,0,1-.323-.411c.977-4.031,4.258-9.57,10.326-17.432a.333.333,0,1,1,.526.406c-5.927,7.679-9.265,13.3-10.206,17.182a.332.332,0,0,1-.323.254" transform="translate(-121.939 -297.445)" fill="#131313"/>
          <path id="Trazado_1016254" data-name="Trazado 1016254" d="M79.944,464.231a.331.331,0,0,1-.11-.019,53.837,53.837,0,0,1-12.083-6.4,26.845,26.845,0,0,1-7.534-7.822,14.13,14.13,0,0,1-1.729-10.8.332.332,0,0,1,.647.155c-1.548,6.44,1.479,12.468,9,17.916a53.121,53.121,0,0,0,11.924,6.323.332.332,0,0,1-.11.646" transform="translate(-48.052 -363.128)" fill="#131313"/>
          <path id="Trazado_1016255" data-name="Trazado 1016255" d="M202.478,544.19s13.824.64,13.37,3.794a10.9,10.9,0,0,1-8.076.053c.206.029,10.086,1.779,9.221,5.147-.429.443-2.188.561-3.211.27.325.093,3.833,1.425,1.487,2.777-.212-.067-9.2-1.387-9.2-1.387s5.7,2.513,4.789,4.429c-.268.148-7.141-1.048-9.189-2.4-.154-.062-13.826-6.333-13.826-6.333l7.484-7.211Z" transform="translate(-155.4 -449.489)" fill="#fff"/>
          <path id="Trazado_1016256" data-name="Trazado 1016256" d="M205.794,591.453c-1.247,0-3.283-.715-6.147-1.763a168.584,168.584,0,0,1-16.728-7.513.332.332,0,0,1,.3-.593,167.852,167.852,0,0,0,16.656,7.481c2.788,1.02,5.672,2.075,6.48,1.618a.369.369,0,0,0,.186-.252c-.009-.427-.187-1.076-6.243-4.46a.332.332,0,1,1,.324-.58,42.148,42.148,0,0,1,5.634,3.523c.871.727.945,1.13.95,1.547a.323.323,0,0,1-.006.067,1.044,1.044,0,0,1-.518.734,1.8,1.8,0,0,1-.888.19" transform="translate(-151.176 -481.11)" fill="#131313"/>
          <path id="Trazado_1016257" data-name="Trazado 1016257" d="M293.356,592.184a23.216,23.216,0,0,1-5.793-1.1l-3.882-1.071a.333.333,0,1,1,.177-.641l3.884,1.072c4.921,1.408,6.409,1.134,6.858.845a.458.458,0,0,0,.227-.332c.08-.458-.339-1.058-1.292-1.333-3.382-.975-9.1-2.559-9.161-2.575a.332.332,0,0,1,.177-.641c.057.016,5.783,1.6,9.168,2.577,1.391.4,1.889,1.359,1.764,2.078a1.119,1.119,0,0,1-.523.785,3.017,3.017,0,0,1-1.6.337" transform="translate(-234.487 -485.12)" fill="#131313"/>
          <path id="Trazado_1016258" data-name="Trazado 1016258" d="M299.656,573.866a5.969,5.969,0,0,1-1.155-.126.332.332,0,0,1,.13-.652c1.223.244,1.978.051,2.067-.255a1.242,1.242,0,0,0-.113-1.021c-.83-1.433-4.438-2.3-7.337-3-1.365-.328-2.654-.638-3.621-.982a.333.333,0,1,1,.223-.626c.934.333,2.206.639,3.553.962,3.18.764,6.784,1.63,7.757,3.309a1.9,1.9,0,0,1,.176,1.541c-.161.553-.766.847-1.68.847" transform="translate(-239.424 -469.23)" fill="#131313"/>
          <path id="Trazado_1016259" data-name="Trazado 1016259" d="M282.082,551.54a40.876,40.876,0,0,1-5.243-.536c-.975-.14-1.9-.273-2.632-.341a.332.332,0,1,1,.061-.662c.753.07,1.682.2,2.665.345,2.595.373,6.149.884,7.032.164a.4.4,0,0,0,.163-.3.322.322,0,0,1,.005-.042.345.345,0,0,0-.091-.288c-1.187-1.553-9.835-2.547-13.067-2.8a.332.332,0,0,1,.052-.663c1.22.1,11.962.99,13.543,3.059a1.009,1.009,0,0,1,.22.795,1.069,1.069,0,0,1-.405.759,3.76,3.76,0,0,1-2.3.515" transform="translate(-223.923 -452.041)" fill="#131313"/>
          <path id="Trazado_1016260" data-name="Trazado 1016260" d="M107.765,363.1h-.014c-3.765-.151-7.72-2.021-10.375-3.563a40.692,40.692,0,0,1-4.9-3.334.333.333,0,0,1,.423-.513c.078.065,7.918,6.466,14.878,6.745a.333.333,0,0,1-.013.665" transform="translate(-76.406 -294.194)" fill="#131313"/>
        </g>
      </g>
    </g>
  </g>
</svg>
