<svg xmlns="http://www.w3.org/2000/svg" xmlns:xlink="http://www.w3.org/1999/xlink" width="107" height="107" viewBox="0 0 107 107">
  <defs>
    <clipPath id="clip-path">
      <rect id="Rectángulo_461829" data-name="Rectángulo 461829" width="53.29" height="60.903" fill="none"/>
    </clipPath>
  </defs>
  <g id="Grupo_1195825" data-name="Grupo 1195825" transform="translate(-186 -7528.247)">
    <g id="Grupo_1194859" data-name="Grupo 1194859" transform="translate(-104 198.5)">
      <g id="Grupo_156312" data-name="Grupo 156312" transform="translate(1.332 2881.311)">
        <path id="Elipse_5845" data-name="Elipse 5845" d="M53.5,0A53.5,53.5,0,1,1,0,53.5,53.5,53.5,0,0,1,53.5,0Z" transform="translate(288.668 4448.437)" fill="#fce2b5"/>
      </g>
      <g id="Grupo_1194856" data-name="Grupo 1194856" transform="translate(312.913 7352.822)">
        <rect id="Rectángulo_461828" data-name="Rectángulo 461828" width="15.226" height="58.999" transform="translate(37.113 0.952)" fill="#fce2b5"/>
        <g id="Grupo_1194855" data-name="Grupo 1194855">
          <g id="Grupo_1194854" data-name="Grupo 1194854" clip-path="url(#clip-path)">
            <path id="Trazado_1015071" data-name="Trazado 1015071" d="M115.119,165.959v-5.71h3.727l.155-.761a3.807,3.807,0,0,1,7.461,0l.155.761h3.727v5.71Z" transform="translate(-78.006 -106.008)" fill="#ffcd7d"/>
            <path id="Trazado_1015072" data-name="Trazado 1015072" d="M7.71,61.951l.973-3.891A32.108,32.108,0,0,0,2.952,30.549,32.838,32.838,0,0,0,3.878,5.42L2.952,2.952H20.081a14.237,14.237,0,0,0,13.7,10.468h.57V61.951Z" transform="translate(-2 -2)" fill="#ffe6dc"/>
            <path id="Trazado_1015073" data-name="Trazado 1015073" d="M21.695,66.146A35.667,35.667,0,0,0,16.412,38.06a36.79,36.79,0,0,0,1.035-23.3h9.1A18.057,18.057,0,0,0,39.67,24.932V66.146Z" transform="translate(-11.121 -10.001)" fill="#cca266"/>
            <path id="Trazado_1015074" data-name="Trazado 1015074" d="M128.345,0H113.12a.951.951,0,0,0-.952.951v59a.951.951,0,0,0,.952.952h15.226a.951.951,0,0,0,.952-.952v-59A.951.951,0,0,0,128.345,0m-.952,1.9V53.29h-2a4.759,4.759,0,0,0-9.325,0h-2V47.581h2.855a.952.952,0,0,0,0-1.9h-2.855V41.871h4.758a.952.952,0,1,0,0-1.9h-4.758V36.162h2.855a.952.952,0,0,0,0-1.9h-2.855V30.452h4.758a.952.952,0,1,0,0-1.9h-4.758V24.742h2.855a.952.952,0,0,0,0-1.9h-2.855V19.033h4.758a.952.952,0,1,0,0-1.9h-4.758V13.323h2.855a.952.952,0,0,0,0-1.9h-2.855V7.614h4.758a.952.952,0,1,0,0-1.9h-4.758V1.9Zm0,57.1H114.071V55.194h2.855a.951.951,0,0,0,.951-.952,2.855,2.855,0,0,1,5.71,0,.951.951,0,0,0,.952.952h2.855Z" transform="translate(-76.007 -0.001)" fill="#393e4c"/>
            <path id="Trazado_1015075" data-name="Trazado 1015075" d="M32.355,10.469h-.57A13.284,13.284,0,0,1,19,.7a.952.952,0,0,0-.918-.7H.952A.952.952,0,0,0,.061,1.287L.986,3.755a31.875,31.875,0,0,1-.9,24.395.953.953,0,0,0,.11.979A31.163,31.163,0,0,1,5.76,55.83l-.973,3.891A.951.951,0,0,0,5.71,60.9H32.355a.951.951,0,0,0,.952-.952V11.42a.951.951,0,0,0-.952-.952M31.4,59H6.929l.677-2.709A33.041,33.041,0,0,0,2.051,28.425,33.8,33.8,0,0,0,2.769,3.086L2.326,1.9H17.373A15.2,15.2,0,0,0,31.4,12.367Z" transform="translate(0 -0.001)" fill="#393e4c"/>
            <path id="Trazado_1015076" data-name="Trazado 1015076" d="M25.415,12.36a.953.953,0,0,0-.864-.553h-9.1a.952.952,0,0,0-.915,1.214,35.836,35.836,0,0,1-1.008,22.7.949.949,0,0,0,.1.875,34.727,34.727,0,0,1,5.143,27.344.951.951,0,0,0,.928,1.161H37.669a.951.951,0,0,0,.952-.952V22.932a.952.952,0,0,0-.78-.936A17.1,17.1,0,0,1,25.415,12.36m11.3,50.834H28.153V60.339a.952.952,0,1,0-1.9,0v2.855H20.866a36.565,36.565,0,0,0-5.391-27.254A37.778,37.778,0,0,0,16.688,13.71h7.265a18.9,18.9,0,0,0,2.3,3.53v5.034a.952.952,0,1,0,1.9,0V19.232a19,19,0,0,0,8.564,4.476Z" transform="translate(-9.121 -8.001)" fill="#393e4c"/>
            <path id="Trazado_1015077" data-name="Trazado 1015077" d="M54.084,53.132a.951.951,0,0,0-.952.952v1.9a.952.952,0,0,0,1.9,0v-1.9a.951.951,0,0,0-.952-.952" transform="translate(-36.003 -36.003)" fill="#393e4c"/>
            <path id="Trazado_1015078" data-name="Trazado 1015078" d="M54.084,70.842a.951.951,0,0,0-.952.952v1.9a.952.952,0,1,0,1.9,0v-1.9a.951.951,0,0,0-.952-.952" transform="translate(-36.003 -48.004)" fill="#393e4c"/>
            <path id="Trazado_1015079" data-name="Trazado 1015079" d="M54.084,88.553a.951.951,0,0,0-.952.952v1.9a.952.952,0,1,0,1.9,0V89.5a.951.951,0,0,0-.952-.952" transform="translate(-36.003 -60.005)" fill="#393e4c"/>
            <path id="Trazado_1015080" data-name="Trazado 1015080" d="M54.084,106.264a.951.951,0,0,0-.952.952v1.9a.952.952,0,1,0,1.9,0v-1.9a.951.951,0,0,0-.952-.952" transform="translate(-36.003 -72.006)" fill="#393e4c"/>
            <path id="Trazado_1015081" data-name="Trazado 1015081" d="M54.084,123.974a.951.951,0,0,0-.952.952v1.9a.952.952,0,1,0,1.9,0v-1.9a.951.951,0,0,0-.952-.952" transform="translate(-36.003 -84.007)" fill="#393e4c"/>
            <path id="Trazado_1015082" data-name="Trazado 1015082" d="M54.084,141.685a.951.951,0,0,0-.952.952v1.9a.952.952,0,0,0,1.9,0v-1.9a.951.951,0,0,0-.952-.952" transform="translate(-36.003 -96.008)" fill="#393e4c"/>
            <path id="Trazado_1015083" data-name="Trazado 1015083" d="M35.325,85.6h-1.9a.952.952,0,0,0,0,1.9h1.9a.952.952,0,0,0,0-1.9" transform="translate(-22.002 -58.004)" fill="#393e4c"/>
            <path id="Trazado_1015084" data-name="Trazado 1015084" d="M68.843,87.5h1.9a.952.952,0,0,0,0-1.9h-1.9a.952.952,0,0,0,0,1.9" transform="translate(-46.004 -58.004)" fill="#393e4c"/>
            <path id="Trazado_1015085" data-name="Trazado 1015085" d="M70.746,129.878h-1.9a.952.952,0,0,0,0,1.9h1.9a.952.952,0,0,0,0-1.9" transform="translate(-46.004 -88.007)" fill="#393e4c"/>
            <path id="Trazado_1015086" data-name="Trazado 1015086" d="M136.733,165.3c.525,0,.952.213.952.476s-.426.476-.952.476-.952-.213-.952-.476.426-.476.952-.476" transform="translate(-92.007 -112.009)" fill="#393e4c"/>
          </g>
        </g>
      </g>
    </g>
  </g>
</svg>
