<svg xmlns="http://www.w3.org/2000/svg" xmlns:xlink="http://www.w3.org/1999/xlink" width="107" height="107" viewBox="0 0 107 107">
  <defs>
    <clipPath id="clip-path">
      <rect id="Rectángulo_461830" data-name="Rectángulo 461830" width="63.669" height="69.937" fill="none"/>
    </clipPath>
  </defs>
  <g id="Grupo_1195823" data-name="Grupo 1195823" transform="translate(-1357 -7752.811)">
    <g id="Grupo_1194860" data-name="Grupo 1194860" transform="translate(1067 100.563)">
      <g id="Grupo_156312" data-name="Grupo 156312" transform="translate(1.332 3203.811)">
        <path id="Elipse_5845" data-name="Elipse 5845" d="M53.5,0A53.5,53.5,0,1,1,0,53.5,53.5,53.5,0,0,1,53.5,0Z" transform="translate(288.668 4448.437)" fill="#fce2b5"/>
      </g>
      <g id="Grupo_1194858" data-name="Grupo 1194858" transform="translate(311.076 7669.247)">
        <g id="Grupo_1194857" data-name="Grupo 1194857" clip-path="url(#clip-path)">
          <path id="Trazado_1015087" data-name="Trazado 1015087" d="M13.953,162.521H67.984a2.052,2.052,0,0,0,2.046-2.046v-4.063a2.052,2.052,0,0,0-2.046-2.046H13.953a2.052,2.052,0,0,0-2.046,2.046v4.063a2.052,2.052,0,0,0,2.046,2.046" transform="translate(-7.419 -96.184)" fill="#ffbf31" fill-rule="evenodd"/>
          <path id="Trazado_1015088" data-name="Trazado 1015088" d="M8.272,160.863H3.925a1.114,1.114,0,0,1-1.111-1.111V148.74a1.114,1.114,0,0,1,1.111-1.111H8.272a1.114,1.114,0,0,1,1.111,1.111v11.012a1.114,1.114,0,0,1-1.111,1.111" transform="translate(-1.753 -91.986)" fill="#2ed19b" fill-rule="evenodd"/>
          <path id="Trazado_1015089" data-name="Trazado 1015089" d="M61.434,5.631H57.879c-1.628,4.538-5.238,6.812-10.377,7.331v7.014c3.481,0,6.3,3.179,6.3,7.1a7.606,7.606,0,0,1-1.6,4.722C46.671,38.8,46.955,44.278,53.5,51.869H69.368C75.913,44.278,76.2,38.8,70.658,31.8a7.6,7.6,0,0,1-1.6-4.722c0-3.922,2.822-7.1,6.3-7.1V12.962c-5.14-.519-8.75-2.793-10.377-7.331Z" transform="translate(-29.598 -3.509)" fill="#cca266" fill-rule="evenodd"/>
          <path id="Trazado_1015090" data-name="Trazado 1015090" d="M6.593,6.328V1.06A1.06,1.06,0,0,1,7.652,0H12.92a1.059,1.059,0,1,1,0,2.119H8.712V6.328a1.059,1.059,0,0,1-2.119,0m0,43.1V44.156a1.059,1.059,0,1,1,2.119,0v4.209H12.92a1.059,1.059,0,1,1,0,2.119H7.652a1.059,1.059,0,0,1-1.059-1.06m43.1,0a1.06,1.06,0,0,1,1.06-1.059h4.209V44.156a1.06,1.06,0,0,1,2.12,0v5.268a1.06,1.06,0,0,1-1.06,1.06H50.748a1.06,1.06,0,0,1-1.06-1.06m0-48.364A1.06,1.06,0,0,1,50.748,0h5.268a1.06,1.06,0,0,1,1.06,1.06V6.328a1.06,1.06,0,0,1-2.12,0V2.119H50.748a1.06,1.06,0,0,1-1.06-1.059M30.775,28.416v-.842a1.059,1.059,0,0,1,2.119,0v.842a1.059,1.059,0,0,1-2.119,0m0,5.14v-.842a1.059,1.059,0,1,1,2.119,0v.842a1.059,1.059,0,1,1-2.119,0m-1.57-5.561a1.06,1.06,0,0,1-1.06,1.059H27.3a1.059,1.059,0,1,1,0-2.119h.842a1.059,1.059,0,0,1,1.06,1.059m2.629,16.9a1.06,1.06,0,0,1-1.059-1.06V43a1.059,1.059,0,1,1,2.119,0v.842A1.06,1.06,0,0,1,31.834,44.9Zm-1.059-6.2v-.842a1.059,1.059,0,0,1,2.119,0V38.7a1.059,1.059,0,1,1-2.119,0Zm3.689-10.7a1.059,1.059,0,0,1,1.06-1.059h.842a1.059,1.059,0,1,1,0,2.119h-.842a1.06,1.06,0,0,1-1.06-1.059m-3.689-4.72v-.842a1.059,1.059,0,0,1,2.119,0v.842a1.059,1.059,0,1,1-2.119,0Zm0-15.424V7.008a1.059,1.059,0,1,1,2.119,0V7.85a1.059,1.059,0,0,1-2.119,0Zm0,5.141v-.842a1.059,1.059,0,1,1,2.119,0v.842a1.059,1.059,0,1,1-2.119,0Zm0,5.141V17.29a1.059,1.059,0,1,1,2.119,0v.842a1.059,1.059,0,0,1-2.119,0ZM61.549,64.292a.987.987,0,0,1-.986.986H55.815V63.953a1.06,1.06,0,0,0-2.12,0v1.325H47.96v-3.32a1.059,1.059,0,1,0-2.119,0v3.32H40.105V63.953a1.06,1.06,0,0,0-2.12,0v1.325H32.251v-3.32a1.06,1.06,0,0,0-2.12,0v3.32H24.4V63.953a1.059,1.059,0,1,0-2.119,0v1.325H16.543v-3.32a1.059,1.059,0,1,0-2.119,0v3.32H8.688V59.241H60.563a.988.988,0,0,1,.986.988v4.063ZM6.568,67.766a.055.055,0,0,1-.051.051H2.17a.054.054,0,0,1-.05-.051V56.754a.054.054,0,0,1,.05-.052H6.517a.055.055,0,0,1,.051.052ZM23.442,28.948c-5.165,6.533-4.935,11.376.948,18.353H39.278c5.883-6.977,6.113-11.82.949-18.353A8.693,8.693,0,0,1,38.4,23.569c0-4.1,2.743-7.507,6.3-8.077v-5.1c-4.962-.733-8.335-3.153-10.043-7.207H29C27.3,7.237,23.924,9.657,18.962,10.39v5.1c3.56.571,6.3,3.976,6.3,8.078A8.693,8.693,0,0,1,23.442,28.948ZM60.563,57.122H32.894v-7.7h6.873a1.06,1.06,0,0,0,.8-.367c6.852-7.947,7.223-13.953,1.319-21.42a6.555,6.555,0,0,1-1.366-4.063c0-3.332,2.351-6.043,5.243-6.043a1.059,1.059,0,0,0,1.059-1.06V9.453A1.059,1.059,0,0,0,45.872,8.4c-4.962-.5-8.064-2.67-9.485-6.635a1.061,1.061,0,0,0-1-.7H28.28a1.058,1.058,0,0,0-1,.7C25.861,5.729,22.759,7.9,17.8,8.4a1.059,1.059,0,0,0-.954,1.054v7.013a1.059,1.059,0,0,0,1.059,1.06c2.892,0,5.243,2.711,5.243,6.043a6.554,6.554,0,0,1-1.366,4.063c-5.9,7.467-5.533,13.473,1.319,21.42a1.059,1.059,0,0,0,.8.367h6.874v7.7H8.688v-.367a2.174,2.174,0,0,0-2.171-2.171H2.17A2.173,2.173,0,0,0,0,56.754V67.766a2.173,2.173,0,0,0,2.17,2.17H6.517a2.174,2.174,0,0,0,2.171-2.17V67.4H60.563a3.109,3.109,0,0,0,3.106-3.105V60.229A3.109,3.109,0,0,0,60.563,57.122Z" fill="#1e2f3f" fill-rule="evenodd"/>
        </g>
      </g>
    </g>
  </g>
</svg>
