<svg xmlns="http://www.w3.org/2000/svg" xmlns:xlink="http://www.w3.org/1999/xlink" width="84.289" height="84.289" viewBox="0 0 84.289 84.289">
  <defs>
    <clipPath id="clip-path">
      <rect id="Rectángulo_461825" data-name="Rectángulo 461825" width="50.454" height="59.733" fill="#fff"/>
    </clipPath>
  </defs>
  <g id="Grupo_1195826" data-name="Grupo 1195826" transform="translate(-705.711 -616.902)">
    <g id="Grupo_1195825" data-name="Grupo 1195825">
      <g id="Grupo_1194848" data-name="Grupo 1194848" transform="translate(2.971 2.711)">
        <g id="Grupo_1194733" data-name="Grupo 1194733" transform="translate(702.74 614.191)" style="isolation: isolate">
          <g id="Grupo_1119665" data-name="Grupo 1119665" transform="translate(0 0)">
            <rect id="Rectángulo_402006" data-name="Rectángulo 402006" width="84.289" height="84.289" rx="5" transform="translate(0 0)" fill="#104936"/>
          </g>
        </g>
        <g id="Grupo_1194847" data-name="Grupo 1194847" transform="translate(719.658 626.469)">
          <g id="Grupo_1194846" data-name="Grupo 1194846" clip-path="url(#clip-path)">
            <path id="Trazado_1015016" data-name="Trazado 1015016" d="M94.945,82.179a1.394,1.394,0,0,0-.115.1.873.873,0,0,0-.472.775.86.86,0,0,0,.027.21,1.468,1.468,0,0,0,0,.186l1.174,13.8a1.447,1.447,0,0,0,1.451,1.332h22.736a1.458,1.458,0,0,0,1.457-1.456V61.075a1.455,1.455,0,0,0-1.192-1.432,10.091,10.091,0,0,1-4.082-1.746,7.4,7.4,0,0,1-2.922-6.07,1.437,1.437,0,0,0-.614-1.152,1.467,1.467,0,0,0-1.3-.194L102.55,53.3a.874.874,0,0,0,.548,1.66l8.179-2.7a9.113,9.113,0,0,0,3.6,7.031c.051.039.1.074.155.112v1.582a.874.874,0,1,0,1.747,0v-.557a12.22,12.22,0,0,0,2.677.886v6.212h-2.076a.87.87,0,0,0-.6.241V64.84a.874.874,0,1,0-1.747,0v3.854a.873.873,0,0,0,1.7.288.87.87,0,0,0,.651.293h2.076v12.94a.873.873,0,0,0,0,1.68V96.836h-2.677V95.671a.874.874,0,1,0-1.747,0v1.165H97.281l-1.1-12.907h3.126a.874.874,0,1,0,0-1.747H97.458A9.115,9.115,0,0,0,99.6,75.87a9.722,9.722,0,0,0-3.751-6.595H97a.874.874,0,0,0,0-1.748H93.531l-3.045-8.4,7.458-2.461A.874.874,0,0,0,97.4,55l-7.743,2.556a1.455,1.455,0,0,0-.912,1.879l3.276,9.04c.016.043.033.085.052.126a.872.872,0,0,0,.561.621c.03.018.06.036.092.052.8.409,4.8,2.654,5.134,6.753a7.363,7.363,0,0,1-2.91,6.15" transform="translate(-78.289 -44.516)" fill="#fff"/>
            <path id="Trazado_1015017" data-name="Trazado 1015017" d="M281.351,301.069H277.86a.874.874,0,1,0,0,1.747h3.491V303a.874.874,0,0,0,1.748,0v-3.854a.874.874,0,0,0-1.748,0Z" transform="translate(-244.608 -263.403)" fill="#fff"/>
            <path id="Trazado_1015018" data-name="Trazado 1015018" d="M315.2,364.206a.874.874,0,0,0-.874.874v3.854a.874.874,0,0,0,1.748,0V365.08a.874.874,0,0,0-.874-.874" transform="translate(-277.586 -321.632)" fill="#fff"/>
            <path id="Trazado_1015019" data-name="Trazado 1015019" d="M315.2,237.932a.873.873,0,0,0,.874-.874V233.2a.874.874,0,0,0-1.748,0v3.854a.874.874,0,0,0,.874.874" transform="translate(-277.586 -205.173)" fill="#fff"/>
            <path id="Trazado_1015020" data-name="Trazado 1015020" d="M192.381,196.857H188.3a.874.874,0,0,0,0,1.748h4.077a.874.874,0,0,0,0-1.748" transform="translate(-165.52 -173.845)" fill="#fff"/>
            <path id="Trazado_1015021" data-name="Trazado 1015021" d="M262.143,196.857h-4.077a.874.874,0,0,0,0,1.748h4.077a.874.874,0,0,0,0-1.748" transform="translate(-227.128 -173.845)" fill="#fff"/>
            <path id="Trazado_1015022" data-name="Trazado 1015022" d="M207.228,323.095a.874.874,0,0,0,.874.874h4.077a.874.874,0,0,0,0-1.747H208.1a.873.873,0,0,0-.874.874" transform="translate(-183.004 -284.555)" fill="#fff"/>
            <path id="Trazado_1015023" data-name="Trazado 1015023" d="M49.581,30.853a.873.873,0,0,0,.874-.874V1.806A1.807,1.807,0,0,0,48.649,0H8.179L8.134,0H8.106A.929.929,0,0,0,7.994.02L7.976.025a.8.8,0,0,0-.093.028l-.028.01a.9.9,0,0,0-.1.048l-.01.006a.95.95,0,0,0-.087.058L7.629.2a.893.893,0,0,0-.087.079L.237,8.031a.906.906,0,0,0-.072.089L.15,8.143a.982.982,0,0,0-.057.1l-.006.014a.725.725,0,0,0-.037.091c0,.009-.006.017-.009.025a.812.812,0,0,0-.026.106c0,.006,0,.013,0,.02A.932.932,0,0,0,0,8.587c0,.009,0,.018,0,.027s0,.011,0,.016v49.3a1.808,1.808,0,0,0,1.806,1.806H48.649a1.808,1.808,0,0,0,1.806-1.806V35.371a.874.874,0,0,0-1.747,0V57.928a.059.059,0,0,1-.058.058H1.806a.059.059,0,0,1-.058-.058V9.5H7.6A1.458,1.458,0,0,0,9.053,8.048v-6.3h39.6a.058.058,0,0,1,.058.058V29.98a.874.874,0,0,0,.874.874M7.3,7.757H2.9L7.3,3.076Z" fill="#fff"/>
            <path id="Trazado_1015024" data-name="Trazado 1015024" d="M378.024,322.222h-1.713a.874.874,0,1,0,0,1.747h1.713a.874.874,0,1,0,0-1.747" transform="translate(-331.55 -284.556)" fill="#fff"/>
            <path id="Trazado_1015025" data-name="Trazado 1015025" d="M378.024,447.586h-1.713a.874.874,0,1,0,0,1.747h1.713a.874.874,0,1,0,0-1.747" transform="translate(-331.55 -395.265)" fill="#fff"/>
            <path id="Trazado_1015026" data-name="Trazado 1015026" d="M378.024,129.9h-1.713a.874.874,0,1,0,0,1.748h1.713a.874.874,0,0,0,0-1.748" transform="translate(-331.55 -114.717)" fill="#fff"/>
            <path id="Trazado_1015027" data-name="Trazado 1015027" d="M378.024,48.468h-1.713a.874.874,0,1,0,0,1.747h1.713a.874.874,0,1,0,0-1.747" transform="translate(-331.55 -42.802)" fill="#fff"/>
            <path id="Trazado_1015028" data-name="Trazado 1015028" d="M31.1,395.521h7.466a.874.874,0,1,0,0-1.747H31.1a.874.874,0,1,0,0,1.747" transform="translate(-26.695 -347.744)" fill="#fff"/>
            <path id="Trazado_1015029" data-name="Trazado 1015029" d="M31.1,422.425h5.325a.874.874,0,1,0,0-1.747H31.1a.874.874,0,1,0,0,1.747" transform="translate(-26.695 -371.503)" fill="#fff"/>
            <path id="Trazado_1015030" data-name="Trazado 1015030" d="M31.1,449.333h9.674a.874.874,0,1,0,0-1.747H31.1a.874.874,0,1,0,0,1.747" transform="translate(-26.695 -395.265)" fill="#fff"/>
          </g>
        </g>
      </g>
    </g>
  </g>
</svg>
