<svg xmlns="http://www.w3.org/2000/svg" xmlns:xlink="http://www.w3.org/1999/xlink" width="605.401" height="616.687" viewBox="0 0 605.401 616.687">
  <defs>
    <clipPath id="clip-path">
      <rect id="Rectángulo_461850" data-name="Rectángulo 461850" width="605.401" height="616.687" fill="none"/>
    </clipPath>
  </defs>
  <g id="Grupo_1195827" data-name="Grupo 1195827" transform="translate(-496.599 -12540.457)">
    <g id="Grupo_1194915" data-name="Grupo 1194915" transform="translate(496.599 12540.457)">
      <g id="Grupo_1194914" data-name="Grupo 1194914" clip-path="url(#clip-path)">
        <path id="Trazado_1015171" data-name="Trazado 1015171" d="M38.793,178.63s75.227-18.11,73.833-83.585L238,140.32S194.122,333.959,281.19,337.441c95.125,3.8,36.759-239.606,39.006-228.466L459.5,62.307s34.828,29.952,75.227,27.862V571.48H281.886L132.826,588.2H38.793Z" transform="translate(-11.522 -18.506)" fill="none" stroke="#9d9d9c" stroke-miterlimit="10" stroke-width="2.25"/>
        <line id="Línea_3680" data-name="Línea 3680" x2="495.937" transform="translate(27.271 318.239)" fill="none" stroke="#9d9d9c" stroke-miterlimit="10" stroke-width="2.25"/>
        <line id="Línea_3681" data-name="Línea 3681" y1="231.252" transform="translate(270.365 321.722)" fill="none" stroke="#9d9d9c" stroke-miterlimit="10" stroke-width="2.25"/>
        <line id="Línea_3682" data-name="Línea 3682" y1="231.252" transform="translate(119.215 321.722)" fill="none" stroke="#9d9d9c" stroke-miterlimit="10" stroke-width="2.25"/>
        <line id="Línea_3683" data-name="Línea 3683" x2="243.093" transform="translate(27.271 552.974)" fill="none" stroke="#9d9d9c" stroke-miterlimit="10" stroke-width="2.25"/>
        <path id="Trazado_1015172" data-name="Trazado 1015172" d="M38.793,440.882s48.293-41.792,91.944,0" transform="translate(-11.522 -125.428)" fill="none" stroke="#9d9d9c" stroke-miterlimit="10" stroke-width="2.25" stroke-dasharray="7.253 7.253"/>
        <path id="Trazado_1015173" data-name="Trazado 1015173" d="M175.1,440.882s48.294-41.792,91.944,0" transform="translate(-52.004 -125.428)" fill="none" stroke="#9d9d9c" stroke-miterlimit="10" stroke-width="2.25" stroke-dasharray="7.253 7.253"/>
        <path id="Trazado_1015174" data-name="Trazado 1015174" d="M305.883,452.692c22.914,45.508,54.634.7,54.634.7" transform="translate(-90.849 -134.453)" fill="none" stroke="#9d9d9c" stroke-miterlimit="10" stroke-width="2.25" stroke-dasharray="7.253 7.253"/>
        <path id="Trazado_1015175" data-name="Trazado 1015175" d="M298.366,167.4s-37.309,33.853-3.875,94.22" transform="translate(-83.332 -49.719)" fill="none" stroke="#9d9d9c" stroke-miterlimit="10" stroke-width="2.25" stroke-dasharray="7.253 7.253"/>
        <path id="Trazado_1015176" data-name="Trazado 1015176" d="M294.927,316.619s-32.5,36.547,0,89.785" transform="translate(-83.305 -94.038)" fill="none" stroke="#9d9d9c" stroke-miterlimit="10" stroke-width="2.25" stroke-dasharray="7.253 7.253"/>
        <path id="Trazado_1015177" data-name="Trazado 1015177" d="M466.169,402.821s35.756-50.615,0-108.66" transform="translate(-138.456 -87.368)" fill="none" stroke="#9d9d9c" stroke-miterlimit="10" stroke-width="2.25" stroke-dasharray="7.253 7.253"/>
        <path id="Trazado_1015178" data-name="Trazado 1015178" d="M388.884,457.646c0,2.089,26.106,39.7,49.97,0" transform="translate(-115.501 -135.924)" fill="none" stroke="#9d9d9c" stroke-miterlimit="10" stroke-width="2.25" stroke-dasharray="7.253 7.253"/>
        <path id="Trazado_1015179" data-name="Trazado 1015179" d="M38.793,457.646S67.583,486.2,99.16,488.062" transform="translate(-11.522 -135.924)" fill="none" stroke="#9d9d9c" stroke-miterlimit="10" stroke-width="2.25"/>
        <path id="Trazado_1015180" data-name="Trazado 1015180" d="M218.463,488.062c1.393-.465,35.439-7.542,58.045-30.416" transform="translate(-64.885 -135.924)" fill="none" stroke="#9d9d9c" stroke-miterlimit="10" stroke-width="2.25"/>
        <path id="Trazado_1015181" data-name="Trazado 1015181" d="M466.169,457.646s18.11,20.664,67.333,24.843" transform="translate(-138.456 -135.924)" fill="none" stroke="#9d9d9c" stroke-miterlimit="10" stroke-width="2.25"/>
        <path id="Trazado_1015182" data-name="Trazado 1015182" d="M650.462,481.8s33.434-.929,65.939-26.468" transform="translate(-193.192 -135.238)" fill="none" stroke="#9d9d9c" stroke-miterlimit="10" stroke-width="2.25"/>
        <path id="Trazado_1015183" data-name="Trazado 1015183" d="M499.564,51.739S449.413,68.92,436.411,101.89l-7.894-30.648s72.441,62.689,26,144.88" transform="translate(-127.273 -15.367)" fill="none" stroke="#9d9d9c" stroke-miterlimit="10" stroke-width="2.25" stroke-dasharray="7.253 7.253"/>
        <path id="Trazado_1015184" data-name="Trazado 1015184" d="M569.875,41.188s27.4-11.609,45.043,10.216" transform="translate(-169.257 -11.317)" fill="none" stroke="#9d9d9c" stroke-miterlimit="10" stroke-width="2.25"/>
        <path id="Trazado_1015185" data-name="Trazado 1015185" d="M1.142,175.922s8.823,31.112,24.147,36.452" transform="translate(-0.339 -52.25)" fill="none" stroke="#9d9d9c" stroke-miterlimit="10" stroke-width="2.3"/>
        <path id="Trazado_1015186" data-name="Trazado 1015186" d="M1.142,137.015s2.322-19.5,26.468-31.112" transform="translate(-0.339 -31.454)" fill="none" stroke="#9d9d9c" stroke-miterlimit="10" stroke-width="2.3"/>
        <path id="Trazado_1015187" data-name="Trazado 1015187" d="M57.832,68.9c-1.393-.465-14.4,6.5-19.039,23.682" transform="translate(-11.522 -20.458)" fill="none" stroke="#9d9d9c" stroke-miterlimit="10" stroke-width="2.3"/>
        <path id="Trazado_1015188" data-name="Trazado 1015188" d="M112.775,68.882s15.789,4.2,19.968,23.7" transform="translate(-33.495 -20.458)" fill="none" stroke="#9d9d9c" stroke-miterlimit="10" stroke-width="2.3"/>
        <path id="Trazado_1015189" data-name="Trazado 1015189" d="M179.236,68.882c-1.857,1.414-22.754,7.452-33.434,23.7" transform="translate(-43.304 -20.458)" fill="none" stroke="#9d9d9c" stroke-miterlimit="10" stroke-width="2.3"/>
        <path id="Trazado_1015190" data-name="Trazado 1015190" d="M236.958,75.518S249.031,79.7,264.82,94.557" transform="translate(-70.378 -22.429)" fill="none" stroke="#9d9d9c" stroke-miterlimit="10" stroke-width="2.3"/>
        <path id="Trazado_1015191" data-name="Trazado 1015191" d="M308.509,98.056l21.36-18.574-23.986,58.974" transform="translate(-90.85 -23.607)" fill="none" stroke="#9d9d9c" stroke-miterlimit="10" stroke-width="2.3"/>
        <path id="Trazado_1015192" data-name="Trazado 1015192" d="M641.214,51.347s13-14.992,13-13.3-13,47.664-13,47.664V57.286" transform="translate(-190.445 -11.261)" fill="none" stroke="#9d9d9c" stroke-linecap="round" stroke-linejoin="round" stroke-width="2.3"/>
        <path id="Trazado_1015193" data-name="Trazado 1015193" d="M748.884,89.7c.465-1.857,13.466-10.216,13.466-10.216L748.884,98.056" transform="translate(-222.424 -23.607)" fill="none" stroke="#9d9d9c" stroke-linecap="round" stroke-linejoin="round" stroke-width="2.3"/>
        <path id="Trazado_1015194" data-name="Trazado 1015194" d="M519.871,131.907s10.216-6.037,14.86-26H38.793v85.675" transform="translate(-11.522 -31.454)" fill="none" stroke="#9d9d9c" stroke-miterlimit="10" stroke-width="2.3"/>
        <path id="Trazado_1015195" data-name="Trazado 1015195" d="M647.715,123.085s-6.5-5.573-6.5-17.181" transform="translate(-190.445 -31.454)" fill="none" stroke="#9d9d9c" stroke-miterlimit="10" stroke-width="2.3"/>
        <path id="Trazado_1015196" data-name="Trazado 1015196" d="M25.446,779.115l-14.4-10.681,17.181,26" transform="translate(-3.282 -228.231)" fill="none" stroke="#9d9d9c" stroke-miterlimit="10" stroke-width="2.3"/>
        <path id="Trazado_1015197" data-name="Trazado 1015197" d="M38.793,823.1v26.933" transform="translate(-11.522 -244.33)" fill="none" stroke="#9d9d9c" stroke-miterlimit="10" stroke-width="2.25"/>
        <path id="Trazado_1015198" data-name="Trazado 1015198" d="M744.26,823.1v26.933" transform="translate(-221.051 -244.33)" fill="none" stroke="#9d9d9c" stroke-miterlimit="10" stroke-width="2.25"/>
        <line id="Línea_3684" data-name="Línea 3684" x2="222.429" transform="translate(27.271 592.24)" fill="none" stroke="#9d9d9c" stroke-miterlimit="10" stroke-width="2.25" stroke-dasharray="7.253 7.253"/>
        <line id="Línea_3685" data-name="Línea 3685" x2="211.284" transform="translate(311.925 592.24)" fill="none" stroke="#9d9d9c" stroke-miterlimit="10" stroke-width="2.25" stroke-dasharray="7.253 7.253"/>
        <path id="Trazado_1015199" data-name="Trazado 1015199" d="M848.941,786.93H822.008" transform="translate(-244.005 -233.724)" fill="none" stroke="#9d9d9c" stroke-miterlimit="10" stroke-width="2.25"/>
        <line id="Línea_3686" data-name="Línea 3686" y2="179.022" transform="translate(591.47 374.184)" fill="none" stroke="#9d9d9c" stroke-miterlimit="10" stroke-width="2.25" stroke-dasharray="7.253 7.253"/>
        <path id="Trazado_1015200" data-name="Trazado 1015200" d="M822.008,111.122h26.933" transform="translate(-244.005 -33.004)" fill="none" stroke="#9d9d9c" stroke-miterlimit="10" stroke-width="2.208"/>
        <line id="Línea_3687" data-name="Línea 3687" y1="189.355" transform="translate(591.47 78.118)" fill="none" stroke="#9d9d9c" stroke-miterlimit="10" stroke-width="2.208" stroke-dasharray="7.116 7.116"/>
        <path id="Trazado_1015201" data-name="Trazado 1015201" d="M773.507,111.122H800.44" transform="translate(-229.599 -33.004)" fill="none" stroke="#9d9d9c" stroke-miterlimit="10" stroke-width="2.25"/>
        <line id="Línea_3688" data-name="Línea 3688" y1="109.032" transform="translate(557.374 78.118)" fill="none" stroke="#9d9d9c" stroke-miterlimit="10" stroke-width="2.25" stroke-dasharray="7.253 7.253"/>
        <path id="Trazado_1015202" data-name="Trazado 1015202" d="M800.44,452.692H773.507" transform="translate(-229.599 -134.453)" fill="none" stroke="#9d9d9c" stroke-miterlimit="10" stroke-width="2.03"/>
        <line id="Línea_3689" data-name="Línea 3689" y2="88.789" transform="translate(557.374 229.45)" fill="none" stroke="#9d9d9c" stroke-miterlimit="10" stroke-width="2.03" stroke-dasharray="6.545 6.545"/>
        <path id="Trazado_1015203" data-name="Trazado 1015203" d="M238.459,380.478l-4.8,7.348h8.359Z" transform="translate(-69.397 -113.005)" fill="none" stroke="#9d9d9c" stroke-miterlimit="10" stroke-width="2.25"/>
        <path id="Trazado_1015204" data-name="Trazado 1015204" d="M532.073,375.252l-4.8,7.348h8.359Z" transform="translate(-156.603 -111.453)" fill="none" stroke="#9d9d9c" stroke-miterlimit="10" stroke-width="2.25"/>
        <path id="Trazado_1015205" data-name="Trazado 1015205" d="M405.232,457.646l-4.8,7.348h8.359Z" transform="translate(-118.93 -135.924)" fill="none" stroke="#9d9d9c" stroke-miterlimit="10" stroke-width="2.25"/>
        <path id="Trazado_1015206" data-name="Trazado 1015206" d="M445.024,456.655l-4.8,7.348h8.359Z" transform="translate(-130.748 -135.63)" fill="none" stroke="#9d9d9c" stroke-miterlimit="10" stroke-width="2.25"/>
      </g>
    </g>
    <path id="Trazado_1016893" data-name="Trazado 1016893" d="M14.209-.732A10.267,10.267,0,0,1,9.375.293a7.8,7.8,0,0,1-5.981-2.4A8.873,8.873,0,0,1,1.147-8.423,9.3,9.3,0,0,1,3.674-15.21,8.576,8.576,0,0,1,10.083-17.8a10.275,10.275,0,0,1,4.126.72v2.185a8.367,8.367,0,0,0-4.15-1.05A6.369,6.369,0,0,0,5.17-13.928,7.588,7.588,0,0,0,3.3-8.545a7.22,7.22,0,0,0,1.752,5.1,5.96,5.96,0,0,0,4.6,1.9,8.622,8.622,0,0,0,4.565-1.172Zm19.3-14.917H26.672v6.055H33v1.843H26.672V0H24.622V-17.5h8.887Z" transform="translate(506.591 12812.176)"/>
    <path id="Trazado_1016894" data-name="Trazado 1016894" d="M14.209-.732A10.267,10.267,0,0,1,9.375.293a7.8,7.8,0,0,1-5.981-2.4A8.873,8.873,0,0,1,1.147-8.423,9.3,9.3,0,0,1,3.674-15.21,8.576,8.576,0,0,1,10.083-17.8a10.275,10.275,0,0,1,4.126.72v2.185a8.367,8.367,0,0,0-4.15-1.05A6.369,6.369,0,0,0,5.17-13.928,7.588,7.588,0,0,0,3.3-8.545a7.22,7.22,0,0,0,1.752,5.1,5.96,5.96,0,0,0,4.6,1.9,8.622,8.622,0,0,0,4.565-1.172ZM38.171,0H35.9L34.045-4.907H26.624L24.878,0H22.6l6.714-17.5h2.124Zm-4.8-6.75-2.747-7.458a7.142,7.142,0,0,1-.269-1.172H30.31a6.538,6.538,0,0,1-.281,1.172L27.307-6.75Z" transform="translate(1001.585 12812.176)"/>
    <path id="Trazado_1016895" data-name="Trazado 1016895" d="M10.774,0H9.23L7.969-3.337H2.922L1.735,0H.183L4.748-11.9H6.192ZM7.512-4.59,5.645-9.662a4.856,4.856,0,0,1-.183-.8H5.429a4.446,4.446,0,0,1-.191.8L3.387-4.59ZM24.089-6a11.693,11.693,0,0,1-.27,2.648,6.17,6.17,0,0,1-.78,1.947A3.512,3.512,0,0,1,21.785-.2,3.431,3.431,0,0,1,20.1.208a3.2,3.2,0,0,1-1.6-.394,3.349,3.349,0,0,1-1.183-1.15,5.827,5.827,0,0,1-.73-1.855,11.472,11.472,0,0,1-.249-2.519A12.985,12.985,0,0,1,16.6-8.467a6.3,6.3,0,0,1,.768-2,3.417,3.417,0,0,1,1.258-1.22,3.531,3.531,0,0,1,1.722-.411Q24.089-12.1,24.089-6Zm-1.395.133q0-5.08-2.416-5.08-2.548,0-2.548,5.171,0,4.823,2.5,4.823Q22.694-.955,22.694-5.869ZM26.637.183a.881.881,0,0,1-.652-.274.9.9,0,0,1-.27-.656.916.916,0,0,1,.27-.66.875.875,0,0,1,.652-.278.9.9,0,0,1,.664.278.908.908,0,0,1,.274.66.9.9,0,0,1-.274.656A.9.9,0,0,1,26.637.183Zm9.878-3.818a4.006,4.006,0,0,1-.3,1.577,3.448,3.448,0,0,1-.851,1.212,3.81,3.81,0,0,1-1.332.78A5.21,5.21,0,0,1,32.3.208a4.792,4.792,0,0,1-2.465-.5V-1.735a4.533,4.533,0,0,0,2.482.78,3.359,3.359,0,0,0,1.166-.191,2.591,2.591,0,0,0,.884-.531,2.275,2.275,0,0,0,.56-.822,2.782,2.782,0,0,0,.2-1.054,2.258,2.258,0,0,0-.78-1.822,3.422,3.422,0,0,0-2.266-.66q-.241,0-.506.008t-.531.021q-.266.012-.519.029t-.461.042l.407-5.968h5.5v1.229H31.643L31.4-7.18q.266-.017.564-.029t.531-.012a5.342,5.342,0,0,1,1.693.249,3.588,3.588,0,0,1,1.266.71,2.976,2.976,0,0,1,.789,1.129A3.971,3.971,0,0,1,36.515-3.636Z" transform="translate(541.42 12593.958)"/>
    <path id="Trazado_1016896" data-name="Trazado 1016896" d="M1.561,0V-11.9H4.947a3.7,3.7,0,0,1,2.449.755,2.441,2.441,0,0,1,.9,1.967,2.9,2.9,0,0,1-.548,1.76A2.954,2.954,0,0,1,6.242-6.358v.033a3.028,3.028,0,0,1,1.926.909,2.8,2.8,0,0,1,.722,2,3.112,3.112,0,0,1-1.1,2.474A4.078,4.078,0,0,1,5.03,0ZM2.955-10.642V-6.8H4.383a2.711,2.711,0,0,0,1.8-.552A1.922,1.922,0,0,0,6.84-8.907q0-1.735-2.283-1.735Zm0,5.1v4.283H4.848a2.836,2.836,0,0,0,1.905-.581,1.99,1.99,0,0,0,.677-1.594q0-2.108-2.872-2.108ZM20.412,0H19.05V-10.285a3.151,3.151,0,0,1-.461.361,7.509,7.509,0,0,1-.681.4q-.378.2-.8.374a5.791,5.791,0,0,1-.818.274v-1.378a7.914,7.914,0,0,0,.95-.336q.5-.212.988-.473t.917-.548a7.282,7.282,0,0,0,.747-.56h.515Z" transform="translate(636.447 12593.958)"/>
    <path id="Trazado_1016897" data-name="Trazado 1016897" d="M8.467-6A11.693,11.693,0,0,1,8.2-3.354a6.17,6.17,0,0,1-.78,1.947A3.512,3.512,0,0,1,6.163-.2,3.431,3.431,0,0,1,4.474.208a3.2,3.2,0,0,1-1.6-.394,3.349,3.349,0,0,1-1.183-1.15,5.827,5.827,0,0,1-.73-1.855A11.472,11.472,0,0,1,.714-5.711,12.985,12.985,0,0,1,.975-8.467a6.3,6.3,0,0,1,.768-2A3.417,3.417,0,0,1,3-11.692,3.531,3.531,0,0,1,4.723-12.1Q8.467-12.1,8.467-6Zm-1.395.133q0-5.08-2.416-5.08-2.548,0-2.548,5.171,0,4.823,2.5,4.823Q7.072-.955,7.072-5.869Zm10,2.5a3.47,3.47,0,0,1-.3,1.465,3.235,3.235,0,0,1-.855,1.129,3.946,3.946,0,0,1-1.324.726,5.355,5.355,0,0,1-1.7.257A4.945,4.945,0,0,1,10.185-.44V-1.9a4.336,4.336,0,0,0,2.756.946,3.745,3.745,0,0,0,1.125-.158,2.522,2.522,0,0,0,.863-.457,2.028,2.028,0,0,0,.556-.722,2.255,2.255,0,0,0,.2-.955q0-2.333-3.32-2.333h-.988V-6.732h.938q2.938,0,2.938-2.191,0-2.025-2.241-2.025a3.816,3.816,0,0,0-2.366.847v-1.32a5.172,5.172,0,0,1,2.706-.681A4.158,4.158,0,0,1,14.7-11.9a3.1,3.1,0,0,1,1.038.581,2.575,2.575,0,0,1,.668.9,2.767,2.767,0,0,1,.237,1.154,2.906,2.906,0,0,1-2.374,3.021v.033a3.755,3.755,0,0,1,1.121.295,2.99,2.99,0,0,1,.888.594,2.646,2.646,0,0,1,.585.859A2.743,2.743,0,0,1,17.075-3.37Z" transform="translate(628.328 12677.228)"/>
    <path id="Trazado_1016898" data-name="Trazado 1016898" d="M10.774,0H9.23L7.969-3.337H2.922L1.735,0H.183L4.748-11.9H6.192ZM7.512-4.59,5.645-9.662a4.856,4.856,0,0,1-.183-.8H5.429a4.446,4.446,0,0,1-.191.8L3.387-4.59Z" transform="translate(738.891 12585.153)"/>
    <path id="Trazado_1016899" data-name="Trazado 1016899" d="M7.911-3.37a3.47,3.47,0,0,1-.3,1.465A3.235,3.235,0,0,1,6.753-.776,3.946,3.946,0,0,1,5.429-.05a5.355,5.355,0,0,1-1.7.257A4.945,4.945,0,0,1,1.021-.44V-1.9a4.336,4.336,0,0,0,2.756.946A3.745,3.745,0,0,0,4.9-1.112a2.522,2.522,0,0,0,.863-.457,2.028,2.028,0,0,0,.556-.722,2.255,2.255,0,0,0,.2-.955q0-2.333-3.32-2.333H2.208V-6.732h.938q2.938,0,2.938-2.191,0-2.025-2.241-2.025a3.816,3.816,0,0,0-2.366.847v-1.32A5.172,5.172,0,0,1,4.184-12.1a4.158,4.158,0,0,1,1.353.208,3.1,3.1,0,0,1,1.038.581,2.575,2.575,0,0,1,.668.9,2.767,2.767,0,0,1,.237,1.154A2.906,2.906,0,0,1,5.1-6.242v.033a3.755,3.755,0,0,1,1.121.295,2.99,2.99,0,0,1,.888.594,2.646,2.646,0,0,1,.585.859A2.743,2.743,0,0,1,7.911-3.37Z" transform="translate(739.189 12604.837)"/>
    <path id="Trazado_1016900" data-name="Trazado 1016900" d="M6.01,0H4.648V-10.285a3.151,3.151,0,0,1-.461.361,7.51,7.51,0,0,1-.681.4q-.378.2-.8.374a5.791,5.791,0,0,1-.818.274v-1.378a7.914,7.914,0,0,0,.95-.336q.5-.212.988-.473t.917-.548a7.282,7.282,0,0,0,.747-.56H6.01Z" transform="translate(761.176 12595.329)"/>
    <path id="Trazado_1016901" data-name="Trazado 1016901" d="M6.01,0H4.648V-10.285a3.151,3.151,0,0,1-.461.361,7.51,7.51,0,0,1-.681.4q-.378.2-.8.374a5.791,5.791,0,0,1-.818.274v-1.378a7.914,7.914,0,0,0,.95-.336q.5-.212.988-.473t.917-.548a7.282,7.282,0,0,0,.747-.56H6.01Zm5.005.183a.881.881,0,0,1-.652-.274.9.9,0,0,1-.27-.656.916.916,0,0,1,.27-.66.875.875,0,0,1,.652-.278.9.9,0,0,1,.664.278.908.908,0,0,1,.274.66.9.9,0,0,1-.274.656A.9.9,0,0,1,11.015.183Zm9.878-3.818a4.006,4.006,0,0,1-.3,1.577,3.448,3.448,0,0,1-.851,1.212,3.81,3.81,0,0,1-1.332.78,5.21,5.21,0,0,1-1.735.274,4.792,4.792,0,0,1-2.465-.5V-1.735a4.533,4.533,0,0,0,2.482.78,3.359,3.359,0,0,0,1.166-.191,2.591,2.591,0,0,0,.884-.531A2.275,2.275,0,0,0,19.3-2.5a2.782,2.782,0,0,0,.2-1.054,2.258,2.258,0,0,0-.78-1.822,3.422,3.422,0,0,0-2.266-.66q-.241,0-.506.008t-.531.021q-.266.012-.519.029t-.461.042l.407-5.968h5.5v1.229H16.021L15.78-7.18q.266-.017.564-.029t.531-.012a5.342,5.342,0,0,1,1.693.249,3.588,3.588,0,0,1,1.266.71,2.976,2.976,0,0,1,.789,1.129A3.971,3.971,0,0,1,20.893-3.636Z" transform="translate(789.103 12590.004)"/>
    <path id="Trazado_1016902" data-name="Trazado 1016902" d="M8.467-6A11.693,11.693,0,0,1,8.2-3.354a6.17,6.17,0,0,1-.78,1.947A3.512,3.512,0,0,1,6.163-.2,3.431,3.431,0,0,1,4.474.208a3.2,3.2,0,0,1-1.6-.394,3.349,3.349,0,0,1-1.183-1.15,5.827,5.827,0,0,1-.73-1.855A11.472,11.472,0,0,1,.714-5.711,12.985,12.985,0,0,1,.975-8.467a6.3,6.3,0,0,1,.768-2A3.417,3.417,0,0,1,3-11.692,3.531,3.531,0,0,1,4.723-12.1Q8.467-12.1,8.467-6Zm-1.395.133q0-5.08-2.416-5.08-2.548,0-2.548,5.171,0,4.823,2.5,4.823Q7.072-.955,7.072-5.869Z" transform="translate(880.755 12575.82)"/>
    <path id="Trazado_1016903" data-name="Trazado 1016903" d="M7.911-3.37a3.47,3.47,0,0,1-.3,1.465A3.235,3.235,0,0,1,6.753-.776,3.946,3.946,0,0,1,5.429-.05a5.355,5.355,0,0,1-1.7.257A4.945,4.945,0,0,1,1.021-.44V-1.9a4.336,4.336,0,0,0,2.756.946A3.745,3.745,0,0,0,4.9-1.112a2.522,2.522,0,0,0,.863-.457,2.028,2.028,0,0,0,.556-.722,2.255,2.255,0,0,0,.2-.955q0-2.333-3.32-2.333H2.208V-6.732h.938q2.938,0,2.938-2.191,0-2.025-2.241-2.025a3.816,3.816,0,0,0-2.366.847v-1.32A5.172,5.172,0,0,1,4.184-12.1a4.158,4.158,0,0,1,1.353.208,3.1,3.1,0,0,1,1.038.581,2.575,2.575,0,0,1,.668.9,2.767,2.767,0,0,1,.237,1.154A2.906,2.906,0,0,1,5.1-6.242v.033a3.755,3.755,0,0,1,1.121.295,2.99,2.99,0,0,1,.888.594,2.646,2.646,0,0,1,.585.859A2.743,2.743,0,0,1,7.911-3.37Zm3.1,3.553a.881.881,0,0,1-.652-.274.9.9,0,0,1-.27-.656.916.916,0,0,1,.27-.66.875.875,0,0,1,.652-.278.9.9,0,0,1,.664.278.908.908,0,0,1,.274.66.9.9,0,0,1-.274.656A.9.9,0,0,1,11.015.183Zm10.218-11.3q-.274.473-.66,1.179t-.818,1.585q-.432.88-.88,1.893t-.838,2.092q-.39,1.079-.685,2.187A16.272,16.272,0,0,0,16.925,0H15.464a16.552,16.552,0,0,1,.461-2.171q.311-1.108.706-2.175T17.465-6.4q.44-.988.855-1.818t.76-1.465q.344-.635.552-.992H13.663V-11.9h7.57ZM23.865-6.84a.881.881,0,0,1-.652-.274.9.9,0,0,1-.27-.656.874.874,0,0,1,.27-.647.9.9,0,0,1,.652-.266.919.919,0,0,1,.664.266.868.868,0,0,1,.274.647.9.9,0,0,1-.274.656A.9.9,0,0,1,23.865-6.84Zm0,7.022a.881.881,0,0,1-.652-.274.9.9,0,0,1-.27-.656.916.916,0,0,1,.27-.66.875.875,0,0,1,.652-.278.9.9,0,0,1,.664.278.908.908,0,0,1,.274.66.9.9,0,0,1-.274.656A.9.9,0,0,1,23.865.183ZM36.474,0H34.93L33.668-3.337H28.621L27.434,0H25.882l4.565-11.9h1.444ZM33.211-4.59,31.344-9.662a4.856,4.856,0,0,1-.183-.8h-.033a4.446,4.446,0,0,1-.191.8L29.086-4.59Z" transform="translate(970.544 12654.292)"/>
    <path id="Trazado_1016904" data-name="Trazado 1016904" d="M8.467-6A11.693,11.693,0,0,1,8.2-3.354a6.17,6.17,0,0,1-.78,1.947A3.512,3.512,0,0,1,6.163-.2,3.431,3.431,0,0,1,4.474.208a3.2,3.2,0,0,1-1.6-.394,3.349,3.349,0,0,1-1.183-1.15,5.827,5.827,0,0,1-.73-1.855A11.472,11.472,0,0,1,.714-5.711,12.985,12.985,0,0,1,.975-8.467a6.3,6.3,0,0,1,.768-2A3.417,3.417,0,0,1,3-11.692,3.531,3.531,0,0,1,4.723-12.1Q8.467-12.1,8.467-6Zm-1.395.133q0-5.08-2.416-5.08-2.548,0-2.548,5.171,0,4.823,2.5,4.823Q7.072-.955,7.072-5.869ZM11.015.183a.881.881,0,0,1-.652-.274.9.9,0,0,1-.27-.656.916.916,0,0,1,.27-.66.875.875,0,0,1,.652-.278.9.9,0,0,1,.664.278.908.908,0,0,1,.274.66.9.9,0,0,1-.274.656A.9.9,0,0,1,11.015.183ZM20.76-3.37a3.47,3.47,0,0,1-.3,1.465A3.235,3.235,0,0,1,19.6-.776a3.946,3.946,0,0,1-1.324.726,5.355,5.355,0,0,1-1.7.257A4.945,4.945,0,0,1,13.871-.44V-1.9a4.336,4.336,0,0,0,2.756.946,3.745,3.745,0,0,0,1.125-.158,2.522,2.522,0,0,0,.863-.457,2.028,2.028,0,0,0,.556-.722,2.255,2.255,0,0,0,.2-.955q0-2.333-3.32-2.333h-.988V-6.732H16q2.938,0,2.938-2.191,0-2.025-2.241-2.025a3.816,3.816,0,0,0-2.366.847v-1.32a5.172,5.172,0,0,1,2.706-.681,4.158,4.158,0,0,1,1.353.208,3.1,3.1,0,0,1,1.038.581,2.575,2.575,0,0,1,.668.9,2.767,2.767,0,0,1,.237,1.154,2.906,2.906,0,0,1-2.374,3.021v.033a3.755,3.755,0,0,1,1.121.295,2.99,2.99,0,0,1,.888.594,2.646,2.646,0,0,1,.585.859A2.743,2.743,0,0,1,20.76-3.37Z" transform="translate(1039.754 12601.356)"/>
    <g id="Grupo_1194917" data-name="Grupo 1194917" transform="translate(496.599 12540.457)">
      <g id="Grupo_1194916" data-name="Grupo 1194916" clip-path="url(#clip-path)">
        <path id="Trazado_1015207" data-name="Trazado 1015207" d="M64.241,251.445l-3.87,8.049H68.42Z" transform="translate(-17.931 -74.681)"/>
        <path id="Trazado_1015208" data-name="Trazado 1015208" d="M122.81,251.445l-3.87,8.049h8.049Z" transform="translate(-35.326 -74.681)"/>
        <path id="Trazado_1015209" data-name="Trazado 1015209" d="M174.553,181.867l-3.87,8.049h8.049Z" transform="translate(-50.694 -54.016)"/>
        <path id="Trazado_1015210" data-name="Trazado 1015210" d="M41.876,235.653s15.478,19.5,35.292-4.025" transform="translate(-12.437 -68.795)" fill="none" stroke="#9d9d9c" stroke-miterlimit="10" stroke-width="2.25" stroke-dasharray="7.253 7.253"/>
        <path id="Trazado_1015211" data-name="Trazado 1015211" d="M97.8,234.413s15.169,20.842,30.493,0" transform="translate(-29.048 -69.622)" fill="none" stroke="#9d9d9c" stroke-miterlimit="10" stroke-width="2.25" stroke-dasharray="7.253 7.253"/>
        <path id="Trazado_1015212" data-name="Trazado 1015212" d="M113.979,187.591H150.2l-18.111,29.719-23.6-27.852" transform="translate(-32.222 -55.716)" fill="none" stroke="#9d9d9c" stroke-miterlimit="10" stroke-width="2.3"/>
        <path id="Trazado_1015213" data-name="Trazado 1015213" d="M43.638,229.809c1.548-.309,69.189,0,69.189,0" transform="translate(-12.961 -68.214)" fill="#d9dad8"/>
        <line id="Línea_3690" data-name="Línea 3690" y2="114.233" transform="translate(215.034 76.307)" fill="none" stroke="#9d9d9c" stroke-miterlimit="10" stroke-width="2.3"/>
        <line id="Línea_3691" data-name="Línea 3691" y2="114.233" transform="translate(324.519 76.307)" fill="none" stroke="#9d9d9c" stroke-miterlimit="10" stroke-width="2.3"/>
        <line id="Línea_3692" data-name="Línea 3692" x2="17.026" transform="translate(239.02 49.848)" fill="none" stroke="#9d9d9c" stroke-miterlimit="10" stroke-width="2.25"/>
        <text id="A" transform="translate(468.805 14.054)" font-size="17" font-family="SegoeUI, Segoe UI"><tspan x="0" y="0">A</tspan></text>
      </g>
    </g>
    <path id="Trazado_1016905" data-name="Trazado 1016905" d="M7.911-3.37a3.47,3.47,0,0,1-.3,1.465A3.235,3.235,0,0,1,6.753-.776,3.946,3.946,0,0,1,5.429-.05a5.355,5.355,0,0,1-1.7.257A4.945,4.945,0,0,1,1.021-.44V-1.9a4.336,4.336,0,0,0,2.756.946A3.745,3.745,0,0,0,4.9-1.112a2.522,2.522,0,0,0,.863-.457,2.028,2.028,0,0,0,.556-.722,2.255,2.255,0,0,0,.2-.955q0-2.333-3.32-2.333H2.208V-6.732h.938q2.938,0,2.938-2.191,0-2.025-2.241-2.025a3.816,3.816,0,0,0-2.366.847v-1.32A5.172,5.172,0,0,1,4.184-12.1a4.158,4.158,0,0,1,1.353.208,3.1,3.1,0,0,1,1.038.581,2.575,2.575,0,0,1,.668.9,2.767,2.767,0,0,1,.237,1.154A2.906,2.906,0,0,1,5.1-6.242v.033a3.755,3.755,0,0,1,1.121.295,2.99,2.99,0,0,1,.888.594,2.646,2.646,0,0,1,.585.859A2.743,2.743,0,0,1,7.911-3.37Z" transform="translate(965.709 12574.194)"/>
    <g id="Grupo_1194919" data-name="Grupo 1194919" transform="translate(496.599 12540.457)">
      <g id="Grupo_1194918" data-name="Grupo 1194918" clip-path="url(#clip-path)">
        <line id="Línea_3693" data-name="Línea 3693" x2="17.026" transform="translate(465.54 19.191)" fill="none" stroke="#9d9d9c" stroke-miterlimit="10" stroke-width="2.25"/>
      </g>
    </g>
    <path id="Trazado_1016906" data-name="Trazado 1016906" d="M10.774,0H9.23L7.969-3.337H2.922L1.735,0H.183L4.748-11.9H6.192ZM7.512-4.59,5.645-9.662a4.856,4.856,0,0,1-.183-.8H5.429a4.446,4.446,0,0,1-.191.8L3.387-4.59Z" transform="translate(876.478 12633.243)"/>
    <path id="Trazado_1016907" data-name="Trazado 1016907" d="M7.911-3.37a3.47,3.47,0,0,1-.3,1.465A3.235,3.235,0,0,1,6.753-.776,3.946,3.946,0,0,1,5.429-.05a5.355,5.355,0,0,1-1.7.257A4.945,4.945,0,0,1,1.021-.44V-1.9a4.336,4.336,0,0,0,2.756.946A3.745,3.745,0,0,0,4.9-1.112a2.522,2.522,0,0,0,.863-.457,2.028,2.028,0,0,0,.556-.722,2.255,2.255,0,0,0,.2-.955q0-2.333-3.32-2.333H2.208V-6.732h.938q2.938,0,2.938-2.191,0-2.025-2.241-2.025a3.816,3.816,0,0,0-2.366.847v-1.32A5.172,5.172,0,0,1,4.184-12.1a4.158,4.158,0,0,1,1.353.208,3.1,3.1,0,0,1,1.038.581,2.575,2.575,0,0,1,.668.9,2.767,2.767,0,0,1,.237,1.154A2.906,2.906,0,0,1,5.1-6.242v.033a3.755,3.755,0,0,1,1.121.295,2.99,2.99,0,0,1,.888.594,2.646,2.646,0,0,1,.585.859A2.743,2.743,0,0,1,7.911-3.37Z" transform="translate(876.776 12652.927)"/>
    <g id="Grupo_1194921" data-name="Grupo 1194921" transform="translate(496.599 12540.457)">
      <g id="Grupo_1194920" data-name="Grupo 1194920" clip-path="url(#clip-path)">
        <line id="Línea_3694" data-name="Línea 3694" x2="17.026" transform="translate(376.615 97.923)" fill="none" stroke="#9d9d9c" stroke-miterlimit="10" stroke-width="2.25"/>
      </g>
    </g>
    <path id="Trazado_1016908" data-name="Trazado 1016908" d="M2.781-4.234V0H1.469V-11.2H4.547a4.063,4.063,0,0,1,2.785.875A3.124,3.124,0,0,1,8.32-7.859a3.4,3.4,0,0,1-1.1,2.609A4.194,4.194,0,0,1,4.258-4.234Zm0-5.781v4.594H4.156A3.074,3.074,0,0,0,6.23-6.043,2.2,2.2,0,0,0,6.945-7.8q0-2.219-2.625-2.219Z" transform="translate(953.488 12643.939)"/>
    <path id="Trazado_1016909" data-name="Trazado 1016909" d="M6.408-8.782a2.461,2.461,0,0,0-.17-.955,1.891,1.891,0,0,0-.465-.677,1.9,1.9,0,0,0-.693-.4,2.714,2.714,0,0,0-.863-.133,2.855,2.855,0,0,0-.78.108,3.793,3.793,0,0,0-.743.3,4.57,4.57,0,0,0-.7.457A5.037,5.037,0,0,0,1.37-9.5v-1.461a4.07,4.07,0,0,1,1.282-.851A4.515,4.515,0,0,1,4.383-12.1a4.178,4.178,0,0,1,1.353.212,3.1,3.1,0,0,1,1.079.618,2.859,2.859,0,0,1,.718,1A3.388,3.388,0,0,1,7.794-8.9,4.7,4.7,0,0,1,7.633-7.62a3.953,3.953,0,0,1-.49,1.079,5.207,5.207,0,0,1-.826.971,11.7,11.7,0,0,1-1.17.946q-.838.6-1.382,1.021A6.11,6.11,0,0,0,2.9-2.81a2.3,2.3,0,0,0-.448.739,2.582,2.582,0,0,0-.129.851H8.251V0H.9V-.589a4.911,4.911,0,0,1,.166-1.345,3.492,3.492,0,0,1,.548-1.1,6.127,6.127,0,0,1,1-1.046q.618-.523,1.515-1.179a9.577,9.577,0,0,0,1.083-.888A4.618,4.618,0,0,0,5.918-7,3.041,3.041,0,0,0,6.3-7.857,3.7,3.7,0,0,0,6.408-8.782ZM17.631-6a11.693,11.693,0,0,1-.27,2.648,6.17,6.17,0,0,1-.78,1.947A3.512,3.512,0,0,1,15.327-.2a3.431,3.431,0,0,1-1.689.411,3.2,3.2,0,0,1-1.6-.394,3.349,3.349,0,0,1-1.183-1.15,5.827,5.827,0,0,1-.73-1.855,11.472,11.472,0,0,1-.249-2.519,12.985,12.985,0,0,1,.261-2.756,6.3,6.3,0,0,1,.768-2,3.417,3.417,0,0,1,1.258-1.22,3.531,3.531,0,0,1,1.722-.411Q17.631-12.1,17.631-6Zm-1.395.133q0-5.08-2.416-5.08-2.548,0-2.548,5.171,0,4.823,2.5,4.823Q16.236-.955,16.236-5.869Z" transform="translate(949.27 12664.623)"/>
    <g id="Grupo_1194923" data-name="Grupo 1194923" transform="translate(496.599 12540.457)">
      <g id="Grupo_1194922" data-name="Grupo 1194922" clip-path="url(#clip-path)">
        <line id="Línea_3695" data-name="Línea 3695" x2="17.026" transform="translate(453.224 109.619)" fill="none" stroke="#9d9d9c" stroke-miterlimit="10" stroke-width="2.25"/>
      </g>
    </g>
    <path id="Trazado_1016910" data-name="Trazado 1016910" d="M2.781-4.234V0H1.469V-11.2H4.547a4.063,4.063,0,0,1,2.785.875A3.124,3.124,0,0,1,8.32-7.859a3.4,3.4,0,0,1-1.1,2.609A4.194,4.194,0,0,1,4.258-4.234Zm0-5.781v4.594H4.156A3.074,3.074,0,0,0,6.23-6.043,2.2,2.2,0,0,0,6.945-7.8q0-2.219-2.625-2.219Z" transform="translate(906.587 12882.964)"/>
    <path id="Trazado_1016911" data-name="Trazado 1016911" d="M8.467-6A11.693,11.693,0,0,1,8.2-3.354a6.17,6.17,0,0,1-.78,1.947A3.512,3.512,0,0,1,6.163-.2,3.431,3.431,0,0,1,4.474.208a3.2,3.2,0,0,1-1.6-.394,3.349,3.349,0,0,1-1.183-1.15,5.827,5.827,0,0,1-.73-1.855A11.472,11.472,0,0,1,.714-5.711,12.985,12.985,0,0,1,.975-8.467a6.3,6.3,0,0,1,.768-2A3.417,3.417,0,0,1,3-11.692,3.531,3.531,0,0,1,4.723-12.1Q8.467-12.1,8.467-6Zm-1.395.133q0-5.08-2.416-5.08-2.548,0-2.548,5.171,0,4.823,2.5,4.823Q7.072-.955,7.072-5.869Z" transform="translate(906.903 12903.647)"/>
    <path id="Trazado_1016912" data-name="Trazado 1016912" d="M8.384-11.115q-.274.473-.66,1.179T6.906-8.351q-.432.88-.88,1.893T5.188-4.366Q4.8-3.287,4.5-2.179A16.272,16.272,0,0,0,4.076,0H2.615a16.552,16.552,0,0,1,.461-2.171q.311-1.108.706-2.175T4.615-6.4q.44-.988.855-1.818t.76-1.465q.344-.635.552-.992H.813V-11.9h7.57Z" transform="translate(927.571 12893.015)"/>
    <path id="Trazado_1016913" data-name="Trazado 1016913" d="M9.662-.5A6.982,6.982,0,0,1,6.375.2,5.3,5.3,0,0,1,2.308-1.436,6.034,6.034,0,0,1,.78-5.728,6.324,6.324,0,0,1,2.5-10.343,5.832,5.832,0,0,1,6.856-12.1a6.987,6.987,0,0,1,2.806.49v1.486a5.69,5.69,0,0,0-2.822-.714,4.331,4.331,0,0,0-3.324,1.37A5.16,5.16,0,0,0,2.241-5.811,4.909,4.909,0,0,0,3.432-2.345,4.053,4.053,0,0,0,6.558-1.054a5.863,5.863,0,0,0,3.1-.8ZM18.735-3.91h-6A3.179,3.179,0,0,0,13.5-1.718a2.633,2.633,0,0,0,2.009.772,4.176,4.176,0,0,0,2.64-.946V-.614A4.933,4.933,0,0,1,15.182.2,3.593,3.593,0,0,1,12.352-.959a4.74,4.74,0,0,1-1.029-3.258A4.648,4.648,0,0,1,12.447-7.45,3.606,3.606,0,0,1,15.24-8.7,3.2,3.2,0,0,1,17.822-7.62a4.5,4.5,0,0,1,.913,3ZM17.34-5.063A2.77,2.77,0,0,0,16.772-6.9a1.937,1.937,0,0,0-1.556-.656,2.2,2.2,0,0,0-1.635.689,3.127,3.127,0,0,0-.83,1.8ZM27.849,0H26.488V-4.848q0-2.706-1.976-2.706a2.143,2.143,0,0,0-1.689.768,2.846,2.846,0,0,0-.668,1.938V0H20.793V-8.5h1.361v1.411h.033A3.068,3.068,0,0,1,24.977-8.7a2.6,2.6,0,0,1,2.133.9,4.012,4.012,0,0,1,.739,2.6Zm6.508-.083a2.625,2.625,0,0,1-1.27.266q-2.233,0-2.233-2.49v-5.03H29.393V-8.5h1.461v-2.075l1.361-.44V-8.5h2.142v1.162H32.215v4.79a1.986,1.986,0,0,0,.291,1.22,1.159,1.159,0,0,0,.963.365,1.431,1.431,0,0,0,.888-.282Zm6.25-7.039A1.665,1.665,0,0,0,39.578-7.4a1.737,1.737,0,0,0-1.457.822,3.8,3.8,0,0,0-.585,2.241V0H36.175V-8.5h1.361v1.751h.033a2.968,2.968,0,0,1,.888-1.4,2.025,2.025,0,0,1,1.336-.5,2.222,2.222,0,0,1,.813.116ZM45.485.2A3.943,3.943,0,0,1,42.476-.992,4.412,4.412,0,0,1,41.351-4.15,4.6,4.6,0,0,1,42.521-7.5a4.208,4.208,0,0,1,3.163-1.2,3.812,3.812,0,0,1,2.968,1.17,4.641,4.641,0,0,1,1.067,3.246,4.567,4.567,0,0,1-1.15,3.258A4.028,4.028,0,0,1,45.485.2Zm.1-7.753a2.589,2.589,0,0,0-2.075.892A3.665,3.665,0,0,0,42.745-4.2a3.466,3.466,0,0,0,.772,2.382,2.624,2.624,0,0,0,2.067.872,2.489,2.489,0,0,0,2.03-.855,3.71,3.71,0,0,0,.71-2.432,3.774,3.774,0,0,0-.71-2.457A2.478,2.478,0,0,0,45.584-7.554ZM62.634,0H61.273V-1.328H61.24A2.85,2.85,0,0,1,58.625.2a2.794,2.794,0,0,1-1.988-.672,2.329,2.329,0,0,1-.718-1.785q0-2.382,2.806-2.772l2.548-.357q0-2.167-1.751-2.167a4.184,4.184,0,0,0-2.772,1.046V-7.9a5.268,5.268,0,0,1,2.889-.8q3,0,3,3.171ZM61.273-4.3l-2.05.282a3.329,3.329,0,0,0-1.428.469,1.353,1.353,0,0,0-.481,1.191,1.3,1.3,0,0,0,.444,1.017,1.716,1.716,0,0,0,1.183.394,2.185,2.185,0,0,0,1.673-.71,2.536,2.536,0,0,0,.66-1.8ZM69.142-.083a2.625,2.625,0,0,1-1.27.266q-2.233,0-2.233-2.49v-5.03H64.178V-8.5h1.461v-2.075L67-11.015V-8.5h2.142v1.162H67v4.79a1.986,1.986,0,0,0,.291,1.22,1.159,1.159,0,0,0,.963.365,1.431,1.431,0,0,0,.888-.282Zm6.25-7.039A1.665,1.665,0,0,0,74.363-7.4a1.737,1.737,0,0,0-1.457.822,3.8,3.8,0,0,0-.585,2.241V0H70.96V-8.5h1.361v1.751h.033a2.968,2.968,0,0,1,.888-1.4,2.025,2.025,0,0,1,1.336-.5,2.222,2.222,0,0,1,.813.116ZM82.954,0H81.593V-1.328H81.56A2.85,2.85,0,0,1,78.945.2a2.794,2.794,0,0,1-1.988-.672,2.329,2.329,0,0,1-.718-1.785q0-2.382,2.806-2.772l2.548-.357q0-2.167-1.751-2.167a4.184,4.184,0,0,0-2.772,1.046V-7.9a5.268,5.268,0,0,1,2.889-.8q3,0,3,3.171ZM81.593-4.3l-2.05.282a3.329,3.329,0,0,0-1.428.469,1.353,1.353,0,0,0-.481,1.191,1.3,1.3,0,0,0,.444,1.017,1.716,1.716,0,0,0,1.183.394,2.185,2.185,0,0,0,1.673-.71,2.536,2.536,0,0,0,.66-1.8ZM85-.307V-1.768a4.029,4.029,0,0,0,2.449.822q1.793,0,1.793-1.2a1.037,1.037,0,0,0-.154-.577,1.53,1.53,0,0,0-.415-.419,3.2,3.2,0,0,0-.614-.328q-.353-.145-.76-.3a9.782,9.782,0,0,1-.992-.452,3,3,0,0,1-.714-.515,1.915,1.915,0,0,1-.432-.652,2.305,2.305,0,0,1-.145-.855A2.031,2.031,0,0,1,85.3-7.3a2.429,2.429,0,0,1,.73-.772,3.406,3.406,0,0,1,1.042-.469A4.621,4.621,0,0,1,88.275-8.7a4.877,4.877,0,0,1,1.976.382v1.378a3.85,3.85,0,0,0-2.158-.614,2.523,2.523,0,0,0-.689.087,1.687,1.687,0,0,0-.527.245,1.131,1.131,0,0,0-.34.378,1,1,0,0,0-.12.486,1.165,1.165,0,0,0,.12.556,1.224,1.224,0,0,0,.353.4,2.7,2.7,0,0,0,.564.315q.332.141.755.307a10.513,10.513,0,0,1,1.013.444,3.473,3.473,0,0,1,.764.515,2.011,2.011,0,0,1,.486.66,2.128,2.128,0,0,1,.17.888,2.094,2.094,0,0,1-.278,1.1,2.383,2.383,0,0,1-.743.772A3.4,3.4,0,0,1,88.549.05,5.287,5.287,0,0,1,87.279.2,4.822,4.822,0,0,1,85-.307Z" transform="translate(1083.354 12816.492) rotate(90)"/>
    <g id="Grupo_1194925" data-name="Grupo 1194925" transform="translate(496.599 12540.457)">
      <g id="Grupo_1194924" data-name="Grupo 1194924" clip-path="url(#clip-path)">
        <line id="Línea_3696" data-name="Línea 3696" x2="17.026" transform="translate(406.324 348.643)" fill="none" stroke="#9d9d9c" stroke-miterlimit="10" stroke-width="2.25"/>
      </g>
    </g>
    <path id="Trazado_1016914" data-name="Trazado 1016914" d="M2.781-4.234V0H1.469V-11.2H4.547a4.063,4.063,0,0,1,2.785.875A3.124,3.124,0,0,1,8.32-7.859a3.4,3.4,0,0,1-1.1,2.609A4.194,4.194,0,0,1,4.258-4.234Zm0-5.781v4.594H4.156A3.074,3.074,0,0,0,6.23-6.043,2.2,2.2,0,0,0,6.945-7.8q0-2.219-2.625-2.219Z" transform="translate(599.528 12889)"/>
    <path id="Trazado_1016915" data-name="Trazado 1016915" d="M8.483-3.777a4.409,4.409,0,0,1-.282,1.6,3.851,3.851,0,0,1-.78,1.262,3.486,3.486,0,0,1-1.187.826A3.759,3.759,0,0,1,4.74.208,3.4,3.4,0,0,1,3.134-.166a3.4,3.4,0,0,1-1.2-1.075,5.156,5.156,0,0,1-.751-1.714A9.286,9.286,0,0,1,.921-5.238a10.727,10.727,0,0,1,.344-2.818,6.846,6.846,0,0,1,.979-2.167,4.515,4.515,0,0,1,1.531-1.39,4.1,4.1,0,0,1,2-.49,4.818,4.818,0,0,1,1.976.34v1.287a4.2,4.2,0,0,0-1.942-.473,2.894,2.894,0,0,0-1.436.357,3.3,3.3,0,0,0-1.1,1.009,4.919,4.919,0,0,0-.7,1.573,7.981,7.981,0,0,0-.245,2.05h.033A2.858,2.858,0,0,1,5.08-7.446a3.573,3.573,0,0,1,1.407.266,3.038,3.038,0,0,1,1.071.751,3.382,3.382,0,0,1,.685,1.158A4.408,4.408,0,0,1,8.483-3.777ZM7.089-3.6a3.7,3.7,0,0,0-.158-1.121,2.431,2.431,0,0,0-.452-.847,1.951,1.951,0,0,0-.726-.535,2.444,2.444,0,0,0-.979-.187,2.293,2.293,0,0,0-.938.191,2.336,2.336,0,0,0-.747.519,2.4,2.4,0,0,0-.494.764,2.418,2.418,0,0,0-.178.926,3.692,3.692,0,0,0,.174,1.15,2.97,2.97,0,0,0,.49.934,2.329,2.329,0,0,0,.751.627A2.052,2.052,0,0,0,4.8-.955a2.215,2.215,0,0,0,.938-.2,2.093,2.093,0,0,0,.722-.544,2.517,2.517,0,0,0,.465-.834A3.306,3.306,0,0,0,7.089-3.6Z" transform="translate(599.845 12909.684)"/>
    <path id="Trazado_1016916" data-name="Trazado 1016916" d="M8.043-3.636a4.006,4.006,0,0,1-.3,1.577A3.448,3.448,0,0,1,6.894-.847a3.81,3.81,0,0,1-1.332.78A5.21,5.21,0,0,1,3.827.208a4.792,4.792,0,0,1-2.465-.5V-1.735a4.533,4.533,0,0,0,2.482.78A3.359,3.359,0,0,0,5.01-1.146a2.591,2.591,0,0,0,.884-.531,2.275,2.275,0,0,0,.56-.822,2.782,2.782,0,0,0,.2-1.054,2.258,2.258,0,0,0-.78-1.822A3.422,3.422,0,0,0,3.6-6.035q-.241,0-.506.008t-.531.021q-.266.012-.519.029t-.461.042L1.992-11.9H7.5v1.229H3.171L2.93-7.18q.266-.017.564-.029t.531-.012a5.342,5.342,0,0,1,1.693.249,3.588,3.588,0,0,1,1.266.71,2.976,2.976,0,0,1,.789,1.129A3.971,3.971,0,0,1,8.043-3.636Zm3.744,1.743L10.459,2.191H9.488l.971-4.084Zm9.106-1.743a4.006,4.006,0,0,1-.3,1.577,3.448,3.448,0,0,1-.851,1.212,3.81,3.81,0,0,1-1.332.78,5.21,5.21,0,0,1-1.735.274,4.792,4.792,0,0,1-2.465-.5V-1.735a4.533,4.533,0,0,0,2.482.78,3.359,3.359,0,0,0,1.166-.191,2.591,2.591,0,0,0,.884-.531A2.275,2.275,0,0,0,19.3-2.5a2.782,2.782,0,0,0,.2-1.054,2.258,2.258,0,0,0-.78-1.822,3.422,3.422,0,0,0-2.266-.66q-.241,0-.506.008t-.531.021q-.266.012-.519.029t-.461.042l.407-5.968h5.5v1.229H16.021L15.78-7.18q.266-.017.564-.029t.531-.012a5.342,5.342,0,0,1,1.693.249,3.588,3.588,0,0,1,1.266.71,2.976,2.976,0,0,1,.789,1.129A3.971,3.971,0,0,1,20.893-3.636Z" transform="translate(616.752 12901.125)"/>
    <g id="Grupo_1194927" data-name="Grupo 1194927" transform="translate(496.599 12540.457)">
      <g id="Grupo_1194926" data-name="Grupo 1194926" clip-path="url(#clip-path)">
        <line id="Línea_3697" data-name="Línea 3697" x2="17.026" transform="translate(99.265 354.68)" fill="none" stroke="#9d9d9c" stroke-miterlimit="10" stroke-width="2.25"/>
      </g>
    </g>
    <path id="Trazado_1016917" data-name="Trazado 1016917" d="M2.781-4.234V0H1.469V-11.2H4.547a4.063,4.063,0,0,1,2.785.875A3.124,3.124,0,0,1,8.32-7.859a3.4,3.4,0,0,1-1.1,2.609A4.194,4.194,0,0,1,4.258-4.234Zm0-5.781v4.594H4.156A3.074,3.074,0,0,0,6.23-6.043,2.2,2.2,0,0,0,6.945-7.8q0-2.219-2.625-2.219Z" transform="translate(760.589 13130.717)"/>
    <g id="Grupo_1194929" data-name="Grupo 1194929" transform="translate(496.599 12540.457)">
      <g id="Grupo_1194928" data-name="Grupo 1194928" clip-path="url(#clip-path)">
        <text id="_2" data-name="2" transform="translate(264.308 610.943)" font-size="17" font-family="SegoeUI, Segoe UI"><tspan x="0" y="0">2</tspan></text>
      </g>
    </g>
    <path id="Trazado_1016918" data-name="Trazado 1016918" d="M6.01,0H4.648V-10.285a3.151,3.151,0,0,1-.461.361,7.51,7.51,0,0,1-.681.4q-.378.2-.8.374a5.791,5.791,0,0,1-.818.274v-1.378a7.914,7.914,0,0,0,.95-.336q.5-.212.988-.473t.917-.548a7.282,7.282,0,0,0,.747-.56H6.01ZM17.631-6a11.693,11.693,0,0,1-.27,2.648,6.17,6.17,0,0,1-.78,1.947A3.512,3.512,0,0,1,15.327-.2a3.431,3.431,0,0,1-1.689.411,3.2,3.2,0,0,1-1.6-.394,3.349,3.349,0,0,1-1.183-1.15,5.827,5.827,0,0,1-.73-1.855,11.472,11.472,0,0,1-.249-2.519,12.985,12.985,0,0,1,.261-2.756,6.3,6.3,0,0,1,.768-2,3.417,3.417,0,0,1,1.258-1.22,3.531,3.531,0,0,1,1.722-.411Q17.631-12.1,17.631-6Zm-1.395.133q0-5.08-2.416-5.08-2.548,0-2.548,5.171,0,4.823,2.5,4.823Q16.236-.955,16.236-5.869Z" transform="translate(779.594 13142.849)"/>
    <g id="Grupo_1194931" data-name="Grupo 1194931" transform="translate(496.599 12540.457)">
      <g id="Grupo_1194930" data-name="Grupo 1194930" clip-path="url(#clip-path)">
        <line id="Línea_3698" data-name="Línea 3698" x2="17.026" transform="translate(260.326 596.396)" fill="none" stroke="#9d9d9c" stroke-miterlimit="10" stroke-width="2.25"/>
      </g>
    </g>
    <path id="Trazado_1016919" data-name="Trazado 1016919" d="M2.781-4.234V0H1.469V-11.2H4.547a4.063,4.063,0,0,1,2.785.875A3.124,3.124,0,0,1,8.32-7.859a3.4,3.4,0,0,1-1.1,2.609A4.194,4.194,0,0,1,4.258-4.234Zm0-5.781v4.594H4.156A3.074,3.074,0,0,0,6.23-6.043,2.2,2.2,0,0,0,6.945-7.8q0-2.219-2.625-2.219Z" transform="translate(1040.197 12747.347)"/>
    <path id="Trazado_1016920" data-name="Trazado 1016920" d="M8.483-3.777a4.409,4.409,0,0,1-.282,1.6,3.851,3.851,0,0,1-.78,1.262,3.486,3.486,0,0,1-1.187.826A3.759,3.759,0,0,1,4.74.208,3.4,3.4,0,0,1,3.134-.166a3.4,3.4,0,0,1-1.2-1.075,5.156,5.156,0,0,1-.751-1.714A9.286,9.286,0,0,1,.921-5.238a10.727,10.727,0,0,1,.344-2.818,6.846,6.846,0,0,1,.979-2.167,4.515,4.515,0,0,1,1.531-1.39,4.1,4.1,0,0,1,2-.49,4.818,4.818,0,0,1,1.976.34v1.287a4.2,4.2,0,0,0-1.942-.473,2.894,2.894,0,0,0-1.436.357,3.3,3.3,0,0,0-1.1,1.009,4.919,4.919,0,0,0-.7,1.573,7.981,7.981,0,0,0-.245,2.05h.033A2.858,2.858,0,0,1,5.08-7.446a3.573,3.573,0,0,1,1.407.266,3.038,3.038,0,0,1,1.071.751,3.382,3.382,0,0,1,.685,1.158A4.408,4.408,0,0,1,8.483-3.777ZM7.089-3.6a3.7,3.7,0,0,0-.158-1.121,2.431,2.431,0,0,0-.452-.847,1.951,1.951,0,0,0-.726-.535,2.444,2.444,0,0,0-.979-.187,2.293,2.293,0,0,0-.938.191,2.336,2.336,0,0,0-.747.519,2.4,2.4,0,0,0-.494.764,2.418,2.418,0,0,0-.178.926,3.692,3.692,0,0,0,.174,1.15,2.97,2.97,0,0,0,.49.934,2.329,2.329,0,0,0,.751.627A2.052,2.052,0,0,0,4.8-.955a2.215,2.215,0,0,0,.938-.2,2.093,2.093,0,0,0,.722-.544,2.517,2.517,0,0,0,.465-.834A3.306,3.306,0,0,0,7.089-3.6Z" transform="translate(1040.514 12768.03)"/>
    <g id="Grupo_1194933" data-name="Grupo 1194933" transform="translate(496.599 12540.457)">
      <g id="Grupo_1194932" data-name="Grupo 1194932" clip-path="url(#clip-path)">
        <line id="Línea_3699" data-name="Línea 3699" x2="17.026" transform="translate(540.348 213.027)" fill="none" stroke="#9d9d9c" stroke-miterlimit="10" stroke-width="2.25"/>
        <path id="Trazado_1015214" data-name="Trazado 1015214" d="M444.04,125.877c1.625-.465,60.135.7,60.135.7l-35.524-11.269" transform="translate(-131.883 -34.246)" fill="none" stroke="#9d9d9c" stroke-miterlimit="10" stroke-width="2.25"/>
      </g>
    </g>
  </g>
</svg>
