<svg xmlns="http://www.w3.org/2000/svg" xmlns:xlink="http://www.w3.org/1999/xlink" width="1178.31" height="371.821" viewBox="0 0 1178.31 371.821">
  <defs>
    <clipPath id="clip-path">
      <rect x="-1" width="1178.31" height="371.821" fill="none"/>
    </clipPath>
    <clipPath id="clip-path-2">
      <rect id="Rectángulo_461776" data-name="Rectángulo 461776" width="1176.31" height="531.821" fill="none"/>
    </clipPath>
    <clipPath id="clip-path-3">
      <path id="Rectángulo_461777" data-name="Rectángulo 461777" d="M15.982,0H261.393a15.981,15.981,0,0,1,15.981,15.981V355a15.982,15.982,0,0,1-15.982,15.982H15.982A15.982,15.982,0,0,1,0,355V15.982A15.982,15.982,0,0,1,15.982,0Z" fill="none"/>
    </clipPath>
    <clipPath id="clip-path-5">
      <path id="Rectángulo_461780" data-name="Rectángulo 461780" d="M15.981,0H261.393a15.981,15.981,0,0,1,15.981,15.981V355a15.982,15.982,0,0,1-15.982,15.982H15.982A15.982,15.982,0,0,1,0,355V15.981A15.981,15.981,0,0,1,15.981,0Z" fill="none"/>
    </clipPath>
    <clipPath id="clip-path-7">
      <path id="Rectángulo_461783" data-name="Rectángulo 461783" d="M15.981,0H261.393a15.981,15.981,0,0,1,15.981,15.981V355a15.981,15.981,0,0,1-15.981,15.981H15.982A15.982,15.982,0,0,1,0,355V15.981A15.981,15.981,0,0,1,15.981,0Z" fill="none"/>
    </clipPath>
    <clipPath id="clip-path-8">
      <rect width="1177.31" height="371.821" fill="none"/>
    </clipPath>
    <clipPath id="clip-path-10">
      <path id="Rectángulo_461785" data-name="Rectángulo 461785" d="M15.982,0H261.393a15.981,15.981,0,0,1,15.981,15.981V355a15.981,15.981,0,0,1-15.981,15.981H15.982A15.982,15.982,0,0,1,0,355V15.982A15.982,15.982,0,0,1,15.982,0Z" fill="none"/>
    </clipPath>
  </defs>
  <g id="Grupo_1195841" data-name="Grupo 1195841" transform="translate(-210.711 -3621.521)">
    <g id="Grupo_1195840" data-name="Grupo 1195840">
      <g id="Grupo_1195839" data-name="Grupo 1195839">
        <g id="Grupo_1195838" data-name="Grupo 1195838">
          <g id="Grupo_1195837" data-name="Grupo 1195837">
            <g id="Grupo_1195836" data-name="Grupo 1195836">
              <g id="Grupo_1195835" data-name="Grupo 1195835">
                <g id="Grupo_1195834" data-name="Grupo 1195834">
                  <g id="Grupo_1195833" data-name="Grupo 1195833">
                    <g id="Grupo_1195832" data-name="Grupo 1195832">
                      <g id="Grupo_1195831" data-name="Grupo 1195831">
                        <g id="Grupo_de_desplazamiento_2" data-name="Grupo de desplazamiento 2" transform="translate(211.711 3621.521)" clip-path="url(#clip-path)" style="isolation: isolate">
                          <g id="Grupo_1195830" data-name="Grupo 1195830" transform="translate(-211.711 -3621.521)">
                            <g id="Grupo_1195829" data-name="Grupo 1195829">
                              <g id="Grupo_1195828" data-name="Grupo 1195828">
                                <g id="Grupo_1195827" data-name="Grupo 1195827">
                                  <g id="Grupo_1194793" data-name="Grupo 1194793" transform="translate(211.711 3621.521)" clip-path="url(#clip-path-2)">
                                    <path id="Trazado_1014758" data-name="Trazado 1014758" d="M267.834,370.981H9.541A9.541,9.541,0,0,1,0,361.44V9.54A9.541,9.541,0,0,1,9.541,0H267.834a9.54,9.54,0,0,1,9.54,9.54v351.9a9.54,9.54,0,0,1-9.54,9.54" fill="#e8ebf3"/>
                                  </g>
                                  <g id="Grupo_1194795" data-name="Grupo 1194795" transform="translate(211.711 3621.521)" clip-path="url(#clip-path-3)">
                                    <path id="Trazado_1014759" data-name="Trazado 1014759" d="M261.395,548.808c-.531-.713-2.525-.892-3.4-1.021-.927-.136-2.82.15-3.744,0A36.656,36.656,0,0,1,247.1,545.4c-3.532-1.648-15.957-9.217-19.288-10.526-2.445-.961-7.647-2.6-9.53-4.425-1.906-1.851-4.585-8.468-5.481-10.773a6.876,6.876,0,0,1-.411-1.613L196.213,392.355a6.961,6.961,0,0,0-.167-.857l-7.672-29.424c.078.029.155.063.232.084,3.718.956,6.064-3.334,6.883-5.173a6.7,6.7,0,0,0,.467-1.5,69.88,69.88,0,0,0-.14-25.055c-2.723-13.5.34-33.808-1.7-49.465s-9.19-27.911-8.168-56.842-8.509-59.906-13.956-67.054-10.253-9.387-14.636-10.211c-3.349-.63-13.615-.681-13.615-.681H132.483a6.762,6.762,0,0,1-3-.686c-1.6-.79-3.787-2.264-3.787-4.419,0-3.4-1.021-5.105,3.063-7.829s10.552-3.234,10.722-5.616-2.042-23.741-12.934-31.229-21.784-1.532-21.784-1.532-13.445,7.318-11.4,23.146,11.4,12.594,12.423,20.082-4.169,8.679-5.871,9.02c-1.521.3-17.789,2.036-21.232,2.4a6.953,6.953,0,0,1-1.069.035c-2.442-.116-14.956.139-30.2,15.689C32.739,180.2,15.28,203.775,10.75,209.984a6.746,6.746,0,0,0-.225,7.773q.14.2.3.4c2.553,3.233,66.006,73.12,66.006,73.12l.007-.03c-3.79,21.593-7.31,54.1-2.873,87.51,4.995,37.611,9,105.005,8.85,147.608-.035,9.687-1.543,16.689-2.3,23.145-1.054,9-2.747,12.279-1.446,15.658.482,1.255,3.14,2.662,4.425,3.063,4.224,1.319,13.415,1.11,17.7,0,1.7-.439,6.093-2.2,7.063-3.659,2.178-3.281-.149-11.505-.71-15.4-.718-4.988-2.242-14.715-2.609-19.742-1.384-18.958,4.425-75.9,4.425-75.9L121.27,334.711c.749-7.472,11.221-8.51,13.421-1.329l58.126,189.7a6.862,6.862,0,0,1,.3,1.869c.028,1.3.06,3.541-.024,4.479-.257,2.843-2.183,8.382-2.042,11.232.092,1.856-.647,5.219,2.042,7.148,6.807,4.881,14.892,3.656,17.359,3.744,2.387.085,7.15.477,9.53.681,8.859.759,26.435,1.336,27.8,1.336s6.133-.162,8.169-.34c1.366-.12,4.538.347,5.446-.681a4.185,4.185,0,0,0,0-3.744M85.087,260.627a6.876,6.876,0,0,1-7.69,3.524c-3.539-.833-7.7-1.926-8.369-2.592-.961-.962-23.433-29.2-32.064-40.054a6.869,6.869,0,0,1-.056-8.485c8.172-10.558,29.3-36.962,36.375-37.234,8.85-.34,20.763,45.27,22.125,54.8.995,6.966-6.314,22.3-10.32,30.042m67.5-39.573c-.568-6.785.105-22.865,1.021-29.613.416-3.062,2.945-11.845,3.054-12.218q.343.511.69.986c7.077,9.65,15.673,68.846,16.6,75.328a6.686,6.686,0,0,1,.063,1.156c-1.237,40.57,9.881,72.636,8.217,80.334-.06.279-.113.573-.159.872L154.859,233.534s-2.009-9.371-2.27-12.48" transform="translate(-3.788 -37.326)" fill="#f5b0a6"/>
                                    <path id="Trazado_1014760" data-name="Trazado 1014760" d="M153.807,257.33c-.679-7.461-.065-23.205.851-29.953.416-3.062,1.59-11.249,1.7-11.623.229.341.967,2.069,1.112,2.433C163,232.058,171.6,288.038,171.6,288.038a120.952,120.952,0,0,1,17.944-9.6s-.663-12.734-.851-19.061c-.851-28.421-10.211-60.586-15.657-67.734s-11.256-10.029-15.712-10.211c-4.653-.191-14.354-.033-14.354-.033-3.914,13.434-31.542,11.436-41.923,9.9-9.626-1.42-10.909-6.528-11.047-7.265a70.323,70.323,0,0,1-12.78-.1s-14.976-.977-32,16.382-35.683,46.96-35.683,46.96a7.03,7.03,0,0,0,1.191,6.638c2.553,3.233,22.805-.851,22.805-.851s30.918-38.962,39.768-39.3c8.363-.322,17.481,38.1,19.608,50.367l61.067-5.347c-.078-.552-.141-1.051-.178-1.452" transform="translate(-3.701 -73.081)" fill="#a5b0d0"/>
                                    <path id="Trazado_1014761" data-name="Trazado 1014761" d="M186.773,100.28l-13.313,7.311-4.536-5.218s-4.994,4.084-4.994,8.85-1.109,16.929-5.66,20.15c0,0-16.034-9.31-15.579-23.832s9.779-23.094,22.67-23.776c11.714-.618,20.807,3.858,26.027,13.388Z" transform="translate(-57.503 -33.736)" fill="#623f04"/>
                                    <path id="Trazado_1014762" data-name="Trazado 1014762" d="M98.071,57.3c-.644,3.907-1.048,14.066,7.68,16.238s14.723,15.521,22.289,4.594,11.942-9.85,8.294-18.017-4.648-20.433-15.37-21.524S99.715,47.31,98.071,57.3" transform="translate(-39.404 -15.521)" fill="#623f04"/>
                                    <path id="Trazado_1014763" data-name="Trazado 1014763" d="M170.932,131.63c1.113,3.46,4.1,5.59,6.681,4.759s3.763-4.307,2.646-7.766-4.1-5.59-6.683-4.759-3.763,4.307-2.645,7.766" transform="translate(-68.719 -49.847)" fill="#e89289"/>
                                    <path id="Trazado_1014764" data-name="Trazado 1014764" d="M181.606,143.251a7.942,7.942,0,1,1-7.942-7.942,7.941,7.941,0,0,1,7.942,7.942" transform="translate(-66.79 -54.532)" fill="#1e3a8a"/>
                                    <path id="Trazado_1014765" data-name="Trazado 1014765" d="M105.909,445.236h121.8L196.764,325.643s-3.174-10.207-3.8-14.574L131.9,316.416c.124.714.229,1.356.3,1.88,1.361,9.53-10.724,35.048-10.724,35.048s-9.446,23.976-15.571,91.892" transform="translate(-42.683 -125.367)" fill="#25a77c"/>
                                    <path id="Trazado_1014766" data-name="Trazado 1014766" d="M338.056,305.83H351.7l2.842-6.821,6.822,6.821h22.169s14.966,42.6,14.779,63.665c-.19,21.411.2,87.539.2,87.539H338.056Z" transform="translate(-136.243 -120.507)" fill="none" stroke="#000" stroke-miterlimit="10" stroke-width="1.5"/>
                                    <path id="Trazado_1014767" data-name="Trazado 1014767" d="M407.565,317.417c.027.108.265,1.18.654,2.938" transform="translate(-164.257 -127.925)" fill="none" stroke="#000" stroke-miterlimit="10" stroke-width="1.5"/>
                                    <path id="Trazado_1014768" data-name="Trazado 1014768" d="M410.781,331.955c3.1,14.1,8.881,40.4,8.881,40.4v84.821" transform="translate(-165.553 -133.785)" fill="none" stroke="#000" stroke-miterlimit="10" stroke-width="1.5" stroke-dasharray="9.831 9.831"/>
                                    <path id="Trazado_1014769" data-name="Trazado 1014769" d="M423.623,546.609v3.012h-3.012" transform="translate(-169.515 -220.294)" fill="none" stroke="#000" stroke-miterlimit="10" stroke-width="1.5"/>
                                    <line id="Línea_3599" data-name="Línea 3599" x1="35.464" transform="translate(209.185 329.327)" fill="none" stroke="#000" stroke-miterlimit="10" stroke-width="1.5" stroke-dasharray="10.801 10.801"/>
                                    <line id="Línea_3600" data-name="Línea 3600" x1="3.012" transform="translate(202.95 329.327)" fill="none" stroke="#000" stroke-miterlimit="10" stroke-width="1.5"/>
                                    <path id="Trazado_1014770" data-name="Trazado 1014770" d="M233.215,306.667a182.133,182.133,0,0,0-23.636-1.8.379.379,0,0,0-.386.377v1.829a.378.378,0,0,0,.371.374c19.753.367,31.426,2.914,33.586,4.624a.368.368,0,0,1,0,.573c-2.16,1.71-13.832,4.256-33.586,4.624a.377.377,0,0,0-.371.374v1.829a.378.378,0,0,0,.386.377,182.251,182.251,0,0,0,23.636-1.8c11.371-1.773,12.829-3.973,12.829-5.693s-1.458-3.92-12.829-5.693" transform="translate(-84.309 -122.868)" fill="#1f2733"/>
                                    <path id="Trazado_1014771" data-name="Trazado 1014771" d="M149.776,306.67c-2.226.347-4.068.71-5.6,1.084a.537.537,0,0,0-.264.89l1.2,1.285a.524.524,0,0,0,.5.158c5.594-1.238,14.915-2.383,27.582-2.63a.54.54,0,0,0,.531-.535v-1.505a.542.542,0,0,0-.552-.539,181.532,181.532,0,0,0-23.4,1.793" transform="translate(-57.942 -122.871)" fill="#1f2733"/>
                                    <path id="Trazado_1014772" data-name="Trazado 1014772" d="M135.175,317.348a1.112,1.112,0,0,1,.094-.1l-1.6.2a.887.887,0,0,0-.618,1.393c1.032,1.393,4.055,2.911,12.335,4.2a180.4,180.4,0,0,0,23.042,1.786.9.9,0,0,0,.913-.892v-.8a.894.894,0,0,0-.878-.888c-20.535-.429-32.183-3.219-33.293-4.9" transform="translate(-53.556 -127.857)" fill="#1f2733"/>
                                    <line id="Línea_3601" data-name="Línea 3601" x2="31.543" transform="translate(165.433 189.492)"/>
                                    <line id="Línea_3602" data-name="Línea 3602" x2="29.601" transform="translate(165.433 189.492)" fill="none" stroke="#000" stroke-miterlimit="10" stroke-width="3"/>
                                    <path id="Trazado_1014773" data-name="Trazado 1014773" d="M315.935,319.8l-1.221-1.312,6.468-6.012-6.468-6.013,1.221-1.312,7.877,7.324Z" transform="translate(-126.836 -122.982)"/>
                                    <path id="Trazado_1014774" data-name="Trazado 1014774" d="M137.31,259.216s12.421,5.289,25.434,2.922-18.928,16.6-25.434-2.922" transform="translate(-55.339 -104.469)" fill="#8c9cc4"/>
                                    <path id="Trazado_1014775" data-name="Trazado 1014775" d="M232.82,257.215s-12.421,5.289-25.434,2.923,18.928,16.6,25.434-2.923" transform="translate(-82.337 -103.663)" fill="#8c9cc4"/>
                                  </g>
                                  <g id="Grupo_1194797" data-name="Grupo 1194797" transform="translate(211.711 3621.521)" clip-path="url(#clip-path-2)">
                                    <rect id="Rectángulo_461778" data-name="Rectángulo 461778" width="39.945" height="4.145" transform="translate(202.41 186.119)" fill="#25a77c"/>
                                    <path id="Trazado_1014776" data-name="Trazado 1014776" d="M775.135,370.981H516.842a9.541,9.541,0,0,1-9.541-9.54V9.54A9.541,9.541,0,0,1,516.842,0H775.135a9.54,9.54,0,0,1,9.54,9.54v351.9a9.54,9.54,0,0,1-9.54,9.54" transform="translate(-204.452)" fill="#e8ebf3"/>
                                  </g>
                                  <g id="Grupo_1194799" data-name="Grupo 1194799" transform="translate(514.561 3621.521)" clip-path="url(#clip-path-5)">
                                    <path id="Trazado_1014777" data-name="Trazado 1014777" d="M768.7,548.808c-.531-.713-2.525-.892-3.4-1.021-.927-.136-2.82.15-3.744,0A36.656,36.656,0,0,1,754.4,545.4c-3.532-1.648-15.957-9.217-19.288-10.526-2.445-.961-7.647-2.6-9.531-4.425-1.906-1.851-4.584-8.468-5.48-10.773a6.876,6.876,0,0,1-.411-1.613L703.515,392.355a6.964,6.964,0,0,0-.167-.857l-7.672-29.424c.078.029.155.063.232.084,3.718.956,6.064-3.334,6.883-5.173a6.7,6.7,0,0,0,.467-1.5,69.878,69.878,0,0,0-.14-25.055c-2.723-13.5.34-33.808-1.7-49.465s-9.19-27.911-8.169-56.842-8.509-59.906-13.955-67.054-10.253-9.387-14.636-10.211c-3.349-.63-13.615-.681-13.615-.681H639.785a6.761,6.761,0,0,1-3-.686c-1.6-.79-3.787-2.264-3.787-4.419,0-3.4-1.021-5.105,3.063-7.829s10.552-3.234,10.722-5.616-2.042-23.741-12.934-31.229-21.784-1.532-21.784-1.532-13.445,7.318-11.4,23.146,11.4,12.594,12.423,20.082-4.169,8.679-5.871,9.02c-1.521.3-17.789,2.036-21.232,2.4a6.953,6.953,0,0,1-1.069.035c-2.442-.116-14.955.139-30.2,15.689-14.675,14.969-32.134,38.542-36.664,44.751a6.746,6.746,0,0,0-.225,7.773q.14.2.3.4c2.553,3.233,66.006,73.12,66.006,73.12l.007-.03c-3.79,21.593-7.31,54.1-2.873,87.51,4.995,37.611,9,105.005,8.85,147.608-.035,9.687-1.543,16.689-2.3,23.145-1.054,9-2.747,12.279-1.446,15.658.482,1.255,3.14,2.662,4.425,3.063,4.224,1.319,13.415,1.11,17.7,0,1.7-.439,6.093-2.2,7.063-3.659,2.178-3.281-.149-11.505-.71-15.4-.718-4.988-2.242-14.715-2.609-19.742-1.384-18.958,4.425-75.9,4.425-75.9l11.909-118.818c.749-7.472,11.221-8.51,13.421-1.329l58.125,189.7a6.863,6.863,0,0,1,.3,1.869c.028,1.3.06,3.541-.024,4.479-.257,2.843-2.183,8.382-2.042,11.232.092,1.856-.647,5.219,2.042,7.148,6.806,4.881,14.892,3.656,17.359,3.744,2.387.085,7.15.477,9.53.681,8.859.759,26.435,1.336,27.8,1.336s6.133-.162,8.169-.34c1.366-.12,4.538.347,5.446-.681a4.185,4.185,0,0,0,0-3.744M592.389,260.627a6.876,6.876,0,0,1-7.69,3.524c-3.539-.833-7.7-1.926-8.369-2.592-.961-.962-23.433-29.2-32.064-40.054a6.869,6.869,0,0,1-.056-8.485c8.172-10.558,29.3-36.962,36.375-37.234,8.85-.34,20.763,45.27,22.125,54.8.995,6.966-6.314,22.3-10.32,30.042m67.5-39.573c-.568-6.785.105-22.865,1.021-29.613.416-3.062,2.945-11.845,3.054-12.218q.343.511.69.986c7.077,9.65,15.673,68.846,16.6,75.328a6.683,6.683,0,0,1,.063,1.156c-1.237,40.57,9.881,72.636,8.217,80.334-.06.279-.113.573-.16.872L662.161,233.534s-2.009-9.371-2.27-12.48" transform="translate(-511.09 -37.326)" fill="#f5b0a6"/>
                                    <path id="Trazado_1014778" data-name="Trazado 1014778" d="M661.109,257.33c-.679-7.461-.065-23.205.851-29.953.416-3.062,1.59-11.249,1.7-11.623.229.341.967,2.069,1.112,2.433,5.531,13.87,14.136,69.851,14.136,69.851a120.953,120.953,0,0,1,17.944-9.6s-.663-12.734-.851-19.061c-.851-28.421-10.211-60.586-15.657-67.734s-11.256-10.029-15.712-10.211c-4.654-.191-14.354-.033-14.354-.033-3.914,13.434-31.542,11.436-41.923,9.9-9.626-1.42-10.909-6.528-11.047-7.265a70.324,70.324,0,0,1-12.78-.1s-14.976-.977-32,16.382-35.683,46.96-35.683,46.96a7.031,7.031,0,0,0,1.191,6.638c2.553,3.233,22.805-.851,22.805-.851s30.918-38.962,39.768-39.3c8.363-.322,17.481,38.1,19.608,50.367l61.067-5.347c-.078-.552-.141-1.051-.178-1.452" transform="translate(-511.003 -73.081)" fill="#a5b0d0"/>
                                    <path id="Trazado_1014779" data-name="Trazado 1014779" d="M694.074,100.28l-13.314,7.311-4.536-5.218s-4.993,4.084-4.993,8.85-1.11,16.929-5.661,20.15c0,0-16.033-9.31-15.579-23.832s9.78-23.094,22.671-23.776c11.713-.618,20.807,3.858,26.026,13.388Z" transform="translate(-564.805 -33.736)" fill="#623f04"/>
                                    <path id="Trazado_1014780" data-name="Trazado 1014780" d="M605.373,57.3c-.643,3.907-1.048,14.066,7.68,16.238s14.723,15.521,22.289,4.594,11.942-9.85,8.294-18.017-4.648-20.433-15.37-21.524S607.017,47.31,605.373,57.3" transform="translate(-546.706 -15.521)" fill="#623f04"/>
                                    <path id="Trazado_1014781" data-name="Trazado 1014781" d="M678.233,131.63c1.113,3.46,4.1,5.59,6.681,4.759s3.763-4.307,2.646-7.766-4.1-5.59-6.683-4.759-3.763,4.307-2.645,7.766" transform="translate(-576.021 -49.847)" fill="#e89289"/>
                                    <path id="Trazado_1014782" data-name="Trazado 1014782" d="M688.908,143.251a7.942,7.942,0,1,1-7.942-7.942,7.941,7.941,0,0,1,7.942,7.942" transform="translate(-574.092 -54.532)" fill="#1e3a8a"/>
                                    <path id="Trazado_1014783" data-name="Trazado 1014783" d="M613.211,445.236h121.8L704.066,325.643s-3.174-10.207-3.8-14.574L639.2,316.416c.124.714.229,1.356.3,1.88,1.361,9.53-10.724,35.048-10.724,35.048s-9.446,23.976-15.571,91.892" transform="translate(-549.985 -125.367)" fill="#25a77c"/>
                                    <path id="Trazado_1014784" data-name="Trazado 1014784" d="M853.362,305.83H867l2.842-6.821,6.822,6.821h22.169s14.966,42.6,14.779,63.665c-.19,21.411.2,87.539.2,87.539H853.362Z" transform="translate(-646.771 -120.507)" fill="none" stroke="#000" stroke-miterlimit="10" stroke-width="1.5"/>
                                    <line id="Línea_3603" data-name="Línea 3603" x2="3.012" transform="translate(209.731 190.264)" fill="none" stroke="#000" stroke-miterlimit="10" stroke-width="1.5"/>
                                    <path id="Trazado_1014785" data-name="Trazado 1014785" d="M877.357,315.488h3.012v-4.773l2.121,2.139" transform="translate(-656.441 -125.224)" fill="none" stroke="#000" stroke-miterlimit="10" stroke-width="1.5"/>
                                    <path id="Trazado_1014786" data-name="Trazado 1014786" d="M886.777,315.128l2.12,2.139,3.009-.119" transform="translate(-660.238 -127.003)" fill="none" stroke="#000" stroke-miterlimit="10" stroke-width="1.5"/>
                                    <line id="Línea_3604" data-name="Línea 3604" y1="0.266" x2="6.704" transform="translate(236.138 189.7)" fill="none" stroke="#000" stroke-miterlimit="10" stroke-width="1.5" stroke-dasharray="7.493 7.493"/>
                                    <path id="Trazado_1014787" data-name="Trazado 1014787" d="M917.831,317.537l3.009-.119c.027.107.265,1.179.654,2.938" transform="translate(-672.753 -127.926)" fill="none" stroke="#000" stroke-miterlimit="10" stroke-width="1.5"/>
                                    <path id="Trazado_1014788" data-name="Trazado 1014788" d="M926.087,331.955c3.1,14.1,8.881,40.4,8.881,40.4v84.821" transform="translate(-676.081 -133.785)" fill="none" stroke="#000" stroke-miterlimit="10" stroke-width="1.5" stroke-dasharray="9.831 9.831"/>
                                    <path id="Trazado_1014789" data-name="Trazado 1014789" d="M938.93,546.609v3.012h-3.012" transform="translate(-680.043 -220.294)" fill="none" stroke="#000" stroke-miterlimit="10" stroke-width="1.5"/>
                                    <line id="Línea_3605" data-name="Línea 3605" x1="35.464" transform="translate(213.964 329.327)" fill="none" stroke="#000" stroke-miterlimit="10" stroke-width="1.5" stroke-dasharray="10.801 10.801"/>
                                    <line id="Línea_3606" data-name="Línea 3606" x1="3.012" transform="translate(207.728 329.327)" fill="none" stroke="#000" stroke-miterlimit="10" stroke-width="1.5"/>
                                    <line id="Línea_3607" data-name="Línea 3607" y1="125.803" x2="3.431" transform="translate(92.558 192.893)"/>
                                    <line id="Línea_3608" data-name="Línea 3608" y1="122.231" x2="3.334" transform="translate(92.607 194.679)" fill="none" stroke="#000" stroke-miterlimit="10" stroke-width="2.76"/>
                                    <path id="Trazado_1014790" data-name="Trazado 1014790" d="M664.866,521.038l-1.175-1.156-5.69,5.8-5.366-6.1-1.237,1.091,6.538,7.426Z" transform="translate(-565.375 -209.401)"/>
                                    <path id="Trazado_1014791" data-name="Trazado 1014791" d="M669.952,330.541l-1.237,1.091-5.365-6.1-5.691,5.8-1.175-1.156,6.933-7.059Z" transform="translate(-567.425 -130.222)"/>
                                    <line id="Línea_3609" data-name="Línea 3609" y1="149.917" transform="translate(194.897 186.119)"/>
                                    <line id="Línea_3610" data-name="Línea 3610" y1="146.033" transform="translate(194.897 188.061)" fill="none" stroke="#000" stroke-miterlimit="10" stroke-width="3"/>
                                    <path id="Trazado_1014792" data-name="Trazado 1014792" d="M836.154,548.875l-1.312-1.221-6.012,6.468-6.013-6.468-1.312,1.221,7.324,7.876Z" transform="translate(-633.933 -220.715)"/>
                                    <path id="Trazado_1014793" data-name="Trazado 1014793" d="M836.154,319.645l-1.312,1.221-6.012-6.468-6.013,6.468-1.312-1.221,7.324-7.876Z" transform="translate(-633.933 -125.649)"/>
                                    <path id="Trazado_1014794" data-name="Trazado 1014794" d="M644.612,260.9s12.421,5.289,25.434,2.922-18.928,16.6-25.434-2.922" transform="translate(-562.641 -105.147)" fill="#8c9cc4"/>
                                    <path id="Trazado_1014795" data-name="Trazado 1014795" d="M740.122,258.9s-12.421,5.289-25.434,2.922,18.928,16.6,25.434-2.922" transform="translate(-589.639 -104.34)" fill="#8c9cc4"/>
                                  </g>
                                  <path id="Trazado_1016851" data-name="Trazado 1016851" d="M12.578-4.814a5.193,5.193,0,0,1-.8,2.622A4.833,4.833,0,0,1,9.722-.43,7,7,0,0,1,6.7.2,5.584,5.584,0,0,1,2.285-1.631,7.54,7.54,0,0,1,.674-6.787v-.7A8.607,8.607,0,0,1,1.4-11.147,5.513,5.513,0,0,1,3.5-13.569a5.844,5.844,0,0,1,3.164-.854,6.129,6.129,0,0,1,4.16,1.362,5.383,5.383,0,0,1,1.787,3.755H9.189a2.547,2.547,0,0,0-.654-1.865,2.691,2.691,0,0,0-1.875-.566,2.048,2.048,0,0,0-1.875.957A6.151,6.151,0,0,0,4.16-7.725v1.006a6.806,6.806,0,0,0,.571,3.252A2.091,2.091,0,0,0,6.7-2.49a2.632,2.632,0,0,0,1.807-.557A2.363,2.363,0,0,0,9.17-4.814Zm1.055-.566A6.236,6.236,0,0,1,14.248-8.2a4.4,4.4,0,0,1,1.768-1.9,5.323,5.323,0,0,1,2.705-.664,4.858,4.858,0,0,1,3.74,1.47,5.64,5.64,0,0,1,1.367,4v.117a5.472,5.472,0,0,1-1.372,3.921A4.871,4.871,0,0,1,18.74.2a4.927,4.927,0,0,1-3.623-1.353,5.29,5.29,0,0,1-1.475-3.667Zm3.291.205a3.932,3.932,0,0,0,.459,2.148,1.529,1.529,0,0,0,1.357.684q1.758,0,1.8-2.705v-.332q0-2.842-1.816-2.842-1.65,0-1.787,2.451ZM28.3-10.566l.107,1.24a3.583,3.583,0,0,1,3.018-1.436,3.015,3.015,0,0,1,2.466.986,4.7,4.7,0,0,1,.845,2.969V0h-3.3V-6.67a1.783,1.783,0,0,0-.322-1.177,1.491,1.491,0,0,0-1.172-.376,1.569,1.569,0,0,0-1.436.762V0H25.215V-10.566Zm12.09-2.627v2.627h1.738v2.285H40.391v4.834a1.234,1.234,0,0,0,.215.83,1.152,1.152,0,0,0,.85.234,4.828,4.828,0,0,0,.82-.059V-.088A6.074,6.074,0,0,1,40.42.2a3.448,3.448,0,0,1-2.51-.8A3.282,3.282,0,0,1,37.1-3.037V-8.281H35.752v-2.285H37.1v-2.627Zm2.324,7.813A6.236,6.236,0,0,1,43.33-8.2,4.4,4.4,0,0,1,45.1-10.1a5.323,5.323,0,0,1,2.705-.664,4.858,4.858,0,0,1,3.74,1.47,5.64,5.64,0,0,1,1.367,4v.117a5.472,5.472,0,0,1-1.372,3.921A4.871,4.871,0,0,1,47.822.2,4.927,4.927,0,0,1,44.2-1.157a5.29,5.29,0,0,1-1.475-3.667Zm3.291.205a3.932,3.932,0,0,0,.459,2.148,1.529,1.529,0,0,0,1.357.684q1.758,0,1.8-2.705v-.332q0-2.842-1.816-2.842-1.65,0-1.787,2.451ZM60.752-7.588l-1.084-.078a1.947,1.947,0,0,0-1.992.977V0H54.385V-10.566h3.086l.107,1.357a2.548,2.548,0,0,1,2.314-1.553,3.209,3.209,0,0,1,.918.117Zm4.209-2.979.107,1.24a3.583,3.583,0,0,1,3.018-1.436,3.015,3.015,0,0,1,2.466.986A4.7,4.7,0,0,1,71.4-6.807V0H68.1V-6.67a1.783,1.783,0,0,0-.322-1.177A1.491,1.491,0,0,0,66.6-8.223a1.569,1.569,0,0,0-1.436.762V0H61.875V-10.566ZM72.8-5.381A6.236,6.236,0,0,1,73.418-8.2a4.4,4.4,0,0,1,1.768-1.9,5.323,5.323,0,0,1,2.705-.664,4.858,4.858,0,0,1,3.74,1.47,5.64,5.64,0,0,1,1.367,4v.117a5.472,5.472,0,0,1-1.372,3.921A4.871,4.871,0,0,1,77.91.2a4.927,4.927,0,0,1-3.623-1.353,5.29,5.29,0,0,1-1.475-3.667Zm3.291.205a3.932,3.932,0,0,0,.459,2.148,1.529,1.529,0,0,0,1.357.684q1.758,0,1.8-2.705v-.332q0-2.842-1.816-2.842-1.65,0-1.787,2.451Z" transform="translate(377.589 3668.586)" fill="#12263f"/>
                                  <path id="Trazado_1016852" data-name="Trazado 1016852" d="M.508-5.361A6.455,6.455,0,0,1,1.592-9.316a3.568,3.568,0,0,1,3.027-1.445A3.035,3.035,0,0,1,7-9.648V-15h3.3V0H7.344L7.178-1.133A3.116,3.116,0,0,1,4.6.2,3.562,3.562,0,0,1,1.611-1.25,6.659,6.659,0,0,1,.508-5.361ZM3.8-5.156q0,2.813,1.641,2.813A1.62,1.62,0,0,0,7-3.262V-7.285a1.576,1.576,0,0,0-1.543-.937q-1.523,0-1.65,2.461ZM17.285.2a5.432,5.432,0,0,1-3.936-1.45,5.008,5.008,0,0,1-1.5-3.774V-5.3a6.489,6.489,0,0,1,.6-2.861A4.395,4.395,0,0,1,14.2-10.083a5.292,5.292,0,0,1,2.734-.679A4.574,4.574,0,0,1,20.449-9.38a5.43,5.43,0,0,1,1.289,3.853v1.279H15.2a2.372,2.372,0,0,0,.771,1.4,2.3,2.3,0,0,0,1.543.508,2.958,2.958,0,0,0,2.441-1.094l1.5,1.777A4.2,4.2,0,0,1,19.712-.308,5.891,5.891,0,0,1,17.285.2Zm-.371-8.418q-1.445,0-1.719,1.914h3.32v-.254a1.63,1.63,0,0,0-.4-1.226A1.593,1.593,0,0,0,16.914-8.223Zm15.6,5.879a1.464,1.464,0,0,0,1.074-.376,1.379,1.379,0,0,0,.371-1.05h3.086A3.653,3.653,0,0,1,35.8-.918,4.631,4.631,0,0,1,32.588.2,4.689,4.689,0,0,1,28.955-1.25a5.7,5.7,0,0,1-1.328-4v-.137a6.436,6.436,0,0,1,.591-2.827,4.3,4.3,0,0,1,1.7-1.885,5.081,5.081,0,0,1,2.637-.659A4.573,4.573,0,0,1,35.83-9.619a4.053,4.053,0,0,1,1.211,3.1H33.955a1.807,1.807,0,0,0-.4-1.26,1.382,1.382,0,0,0-1.074-.439q-1.279,0-1.494,1.631a11.508,11.508,0,0,0-.068,1.426A4.52,4.52,0,0,0,31.3-2.959,1.319,1.319,0,0,0,32.51-2.344ZM41.9,0H38.6V-10.566h3.3Zm-3.5-13.291a1.469,1.469,0,0,1,.508-1.152,1.916,1.916,0,0,1,1.318-.449,1.916,1.916,0,0,1,1.318.449,1.469,1.469,0,0,1,.508,1.152,1.469,1.469,0,0,1-.508,1.152,1.916,1.916,0,0,1-1.318.449,1.916,1.916,0,0,1-1.318-.449A1.469,1.469,0,0,1,38.408-13.291Zm8.545,2.725.107,1.24a3.583,3.583,0,0,1,3.018-1.436,3.015,3.015,0,0,1,2.466.986,4.7,4.7,0,0,1,.845,2.969V0h-3.3V-6.67a1.783,1.783,0,0,0-.322-1.177,1.491,1.491,0,0,0-1.172-.376,1.569,1.569,0,0,0-1.436.762V0H43.867V-10.566Zm12.09-2.627v2.627h1.738v2.285H59.043v4.834a1.234,1.234,0,0,0,.215.83,1.152,1.152,0,0,0,.85.234,4.828,4.828,0,0,0,.82-.059V-.088A6.074,6.074,0,0,1,59.072.2a3.448,3.448,0,0,1-2.51-.8,3.282,3.282,0,0,1-.811-2.432V-8.281H54.4v-2.285h1.348v-2.627ZM68.369-1.143A3.393,3.393,0,0,1,65.547.2,3.328,3.328,0,0,1,62.915-.815a4.251,4.251,0,0,1-.894-2.905v-6.846h3.291V-3.7a1.183,1.183,0,0,0,1.318,1.357,1.72,1.72,0,0,0,1.611-.811v-7.412h3.311V0H68.467ZM79.746-7.588l-1.084-.078a1.947,1.947,0,0,0-1.992.977V0H73.379V-10.566h3.086l.107,1.357a2.548,2.548,0,0,1,2.314-1.553,3.209,3.209,0,0,1,.918.117ZM86.592,0a3.716,3.716,0,0,1-.312-.947A3.06,3.06,0,0,1,83.74.2a3.749,3.749,0,0,1-2.539-.9,2.875,2.875,0,0,1-1.045-2.271,2.955,2.955,0,0,1,1.27-2.6,6.468,6.468,0,0,1,3.691-.879h1.016v-.559q0-1.462-1.26-1.462A1.03,1.03,0,0,0,83.7-7.319H80.41a2.95,2.95,0,0,1,1.3-2.487,5.479,5.479,0,0,1,3.325-.956,4.8,4.8,0,0,1,3.193.986,3.429,3.429,0,0,1,1.2,2.705v4.678a4.79,4.79,0,0,0,.449,2.227V0ZM84.531-2.148a1.836,1.836,0,0,0,1.021-.264,1.653,1.653,0,0,0,.581-.6V-4.7h-.957q-1.719,0-1.719,1.543a.942.942,0,0,0,.3.728A1.1,1.1,0,0,0,84.531-2.148Z" transform="translate(377.589 3691.689)" fill="#12263f"/>
                                  <path id="Trazado_1016853" data-name="Trazado 1016853" d="M4.5-2.637h5.967V0H1.074V-14.219H4.5ZM17.715,0A3.716,3.716,0,0,1,17.4-.947,3.06,3.06,0,0,1,14.863.2a3.749,3.749,0,0,1-2.539-.9,2.875,2.875,0,0,1-1.045-2.271,2.955,2.955,0,0,1,1.27-2.6,6.468,6.468,0,0,1,3.691-.879h1.016v-.559q0-1.462-1.26-1.462a1.03,1.03,0,0,0-1.172,1.158H11.533a2.95,2.95,0,0,1,1.3-2.487,5.479,5.479,0,0,1,3.325-.956,4.8,4.8,0,0,1,3.193.986,3.429,3.429,0,0,1,1.2,2.705v4.678a4.79,4.79,0,0,0,.449,2.227V0ZM15.654-2.148a1.836,1.836,0,0,0,1.021-.264,1.653,1.653,0,0,0,.581-.6V-4.7H16.3q-1.719,0-1.719,1.543a.942.942,0,0,0,.3.728A1.1,1.1,0,0,0,15.654-2.148ZM28.77-7.588l-1.084-.078a1.947,1.947,0,0,0-1.992.977V0H22.4V-10.566h3.086L25.6-9.209a2.548,2.548,0,0,1,2.314-1.553,3.209,3.209,0,0,1,.918.117Zm.8,2.227A7.134,7.134,0,0,1,30.1-8.193a4.245,4.245,0,0,1,1.514-1.9,3.99,3.99,0,0,1,2.295-.669,3.173,3.173,0,0,1,2.578,1.113l.117-.918H39.59V-.4a4.455,4.455,0,0,1-.649,2.427,4.167,4.167,0,0,1-1.88,1.582,6.91,6.91,0,0,1-2.852.552,5.961,5.961,0,0,1-2.251-.439,4.063,4.063,0,0,1-1.665-1.143L31.67.645a3.018,3.018,0,0,0,2.422,1.084A1.96,1.96,0,0,0,36.279-.518V-.85A3.09,3.09,0,0,1,33.887.2a3.819,3.819,0,0,1-3.125-1.479,6.13,6.13,0,0,1-1.191-3.96Zm3.3.205A3.759,3.759,0,0,0,33.359-3.1a1.541,1.541,0,0,0,1.367.757,1.748,1.748,0,0,0,1.553-.713V-7.5a1.7,1.7,0,0,0-1.533-.723,1.551,1.551,0,0,0-1.377.786A4.287,4.287,0,0,0,32.871-5.156Zm8.174-.225A6.236,6.236,0,0,1,41.66-8.2a4.4,4.4,0,0,1,1.768-1.9,5.323,5.323,0,0,1,2.705-.664,4.858,4.858,0,0,1,3.74,1.47,5.64,5.64,0,0,1,1.367,4v.117a5.472,5.472,0,0,1-1.372,3.921A4.871,4.871,0,0,1,46.152.2a4.927,4.927,0,0,1-3.623-1.353,5.29,5.29,0,0,1-1.475-3.667Zm3.291.205a3.932,3.932,0,0,0,.459,2.148,1.529,1.529,0,0,0,1.357.684q1.758,0,1.8-2.705v-.332q0-2.842-1.816-2.842-1.65,0-1.787,2.451Z" transform="translate(683.395 3668.586)" fill="#12263f"/>
                                  <path id="Trazado_1016854" data-name="Trazado 1016854" d="M.508-5.361A6.455,6.455,0,0,1,1.592-9.316a3.568,3.568,0,0,1,3.027-1.445A3.035,3.035,0,0,1,7-9.648V-15h3.3V0H7.344L7.178-1.133A3.116,3.116,0,0,1,4.6.2,3.562,3.562,0,0,1,1.611-1.25,6.659,6.659,0,0,1,.508-5.361ZM3.8-5.156q0,2.813,1.641,2.813A1.62,1.62,0,0,0,7-3.262V-7.285a1.576,1.576,0,0,0-1.543-.937q-1.523,0-1.65,2.461ZM17.285.2a5.432,5.432,0,0,1-3.936-1.45,5.008,5.008,0,0,1-1.5-3.774V-5.3a6.489,6.489,0,0,1,.6-2.861A4.395,4.395,0,0,1,14.2-10.083a5.292,5.292,0,0,1,2.734-.679A4.574,4.574,0,0,1,20.449-9.38a5.43,5.43,0,0,1,1.289,3.853v1.279H15.2a2.372,2.372,0,0,0,.771,1.4,2.3,2.3,0,0,0,1.543.508,2.958,2.958,0,0,0,2.441-1.094l1.5,1.777A4.2,4.2,0,0,1,19.712-.308,5.891,5.891,0,0,1,17.285.2Zm-.371-8.418q-1.445,0-1.719,1.914h3.32v-.254a1.63,1.63,0,0,0-.4-1.226A1.593,1.593,0,0,0,16.914-8.223ZM28.77,0V-8.281H27.236v-2.285H28.77v-.84a3.651,3.651,0,0,1,1.064-2.8,4.206,4.206,0,0,1,2.988-1A6.544,6.544,0,0,1,34.365-15l.01,2.422a3.007,3.007,0,0,0-.811-.088q-1.494,0-1.494,1.289v.811h2.061v2.285H32.07V0ZM41.24,0a3.716,3.716,0,0,1-.312-.947A3.06,3.06,0,0,1,38.389.2a3.749,3.749,0,0,1-2.539-.9A2.875,2.875,0,0,1,34.8-2.979a2.955,2.955,0,0,1,1.27-2.6,6.468,6.468,0,0,1,3.691-.879h1.016v-.559q0-1.462-1.26-1.462A1.03,1.03,0,0,0,38.35-7.319H35.059a2.95,2.95,0,0,1,1.3-2.487,5.479,5.479,0,0,1,3.325-.956,4.8,4.8,0,0,1,3.193.986,3.429,3.429,0,0,1,1.2,2.705v4.678a4.79,4.79,0,0,0,.449,2.227V0ZM39.18-2.148A1.836,1.836,0,0,0,40.2-2.412a1.653,1.653,0,0,0,.581-.6V-4.7h-.957q-1.719,0-1.719,1.543a.942.942,0,0,0,.3.728A1.1,1.1,0,0,0,39.18-2.148ZM49.375,0h-3.3V-15h3.3Zm1.611-5.361A6.455,6.455,0,0,1,52.07-9.316,3.568,3.568,0,0,1,55.1-10.762,3.035,3.035,0,0,1,57.48-9.648V-15h3.3V0H57.822l-.166-1.133A3.116,3.116,0,0,1,55.078.2,3.562,3.562,0,0,1,52.09-1.25,6.659,6.659,0,0,1,50.986-5.361Zm3.291.205q0,2.813,1.641,2.813a1.62,1.62,0,0,0,1.563-.918V-7.285a1.576,1.576,0,0,0-1.543-.937q-1.523,0-1.65,2.461ZM68.6,0a3.716,3.716,0,0,1-.312-.947A3.06,3.06,0,0,1,65.752.2a3.749,3.749,0,0,1-2.539-.9,2.875,2.875,0,0,1-1.045-2.271,2.955,2.955,0,0,1,1.27-2.6,6.468,6.468,0,0,1,3.691-.879h1.016v-.559q0-1.462-1.26-1.462a1.03,1.03,0,0,0-1.172,1.158H62.422a2.95,2.95,0,0,1,1.3-2.487,5.479,5.479,0,0,1,3.325-.956,4.8,4.8,0,0,1,3.193.986,3.429,3.429,0,0,1,1.2,2.705v4.678a4.79,4.79,0,0,0,.449,2.227V0ZM66.543-2.148a1.836,1.836,0,0,0,1.021-.264,1.653,1.653,0,0,0,.581-.6V-4.7h-.957q-1.719,0-1.719,1.543a.942.942,0,0,0,.3.728A1.1,1.1,0,0,0,66.543-2.148Z" transform="translate(683.395 3691.689)" fill="#12263f"/>
                                  <g id="Grupo_1194801" data-name="Grupo 1194801" transform="translate(211.711 3621.521)" clip-path="url(#clip-path-2)">
                                    <path id="Trazado_1014796" data-name="Trazado 1014796" d="M1274.387,370.981H1016.094a9.541,9.541,0,0,1-9.541-9.54V9.54A9.541,9.541,0,0,1,1016.094,0h258.293a9.54,9.54,0,0,1,9.54,9.54v351.9a9.54,9.54,0,0,1-9.54,9.54" transform="translate(-405.661)" fill="#e8ebf3"/>
                                  </g>
                                  <g id="Grupo_1194803" data-name="Grupo 1194803" transform="translate(812.604 3621.521)" clip-path="url(#clip-path-7)">
                                    <path id="Trazado_1014797" data-name="Trazado 1014797" d="M1267.948,548.808c-.531-.713-2.525-.892-3.4-1.021-.927-.136-2.82.15-3.744,0a36.657,36.657,0,0,1-7.148-2.383c-3.532-1.648-15.957-9.217-19.288-10.526-2.445-.961-7.647-2.6-9.53-4.425-1.906-1.851-4.585-8.468-5.481-10.773a6.876,6.876,0,0,1-.411-1.613l-16.177-125.711a6.953,6.953,0,0,0-.167-.857l-7.672-29.424c.078.029.154.063.232.084,3.718.956,6.064-3.334,6.883-5.173a6.7,6.7,0,0,0,.467-1.5,69.882,69.882,0,0,0-.14-25.055c-2.723-13.5.34-33.808-1.7-49.465s-9.19-27.911-8.169-56.842-8.509-59.906-13.955-67.054-10.253-9.387-14.636-10.211c-3.349-.63-13.615-.681-13.615-.681h-11.257a6.763,6.763,0,0,1-3-.686c-1.6-.79-3.787-2.264-3.787-4.419,0-3.4-1.021-5.105,3.063-7.829s10.552-3.234,10.722-5.616S1144,103.881,1133.1,96.393s-21.784-1.532-21.784-1.532-13.445,7.318-11.4,23.146,11.4,12.594,12.423,20.082-4.169,8.679-5.871,9.02c-1.521.3-17.79,2.036-21.232,2.4a6.952,6.952,0,0,1-1.069.035c-2.442-.116-14.956.139-30.2,15.689-14.675,14.969-32.134,38.542-36.664,44.751a6.746,6.746,0,0,0-.225,7.773q.14.2.3.4c2.553,3.233,66.006,73.12,66.006,73.12l.006-.03c-3.79,21.593-7.31,54.1-2.873,87.51,4.995,37.611,9,105.005,8.85,147.608-.035,9.687-1.543,16.689-2.3,23.145-1.054,9-2.747,12.279-1.446,15.658.482,1.255,3.14,2.662,4.425,3.063,4.224,1.319,13.415,1.11,17.7,0,1.7-.439,6.093-2.2,7.063-3.659,2.178-3.281-.149-11.505-.71-15.4-.718-4.988-2.242-14.715-2.609-19.742-1.385-18.958,4.425-75.9,4.425-75.9l11.909-118.818c.749-7.472,11.221-8.51,13.421-1.329l58.126,189.7a6.865,6.865,0,0,1,.3,1.869c.028,1.3.06,3.541-.024,4.479-.257,2.843-2.183,8.382-2.042,11.232.092,1.856-.647,5.219,2.042,7.148,6.806,4.881,14.892,3.656,17.359,3.744,2.387.085,7.151.477,9.53.681,8.859.759,26.436,1.336,27.8,1.336s6.133-.162,8.169-.34c1.366-.12,4.538.347,5.446-.681a4.185,4.185,0,0,0,0-3.744M1091.64,260.627a6.876,6.876,0,0,1-7.69,3.524c-3.539-.833-7.7-1.926-8.369-2.592-.961-.962-23.433-29.2-32.064-40.054a6.869,6.869,0,0,1-.056-8.485c8.172-10.558,29.3-36.962,36.375-37.234,8.85-.34,20.763,45.27,22.125,54.8.995,6.966-6.314,22.3-10.32,30.042m67.5-39.573c-.568-6.785.105-22.865,1.022-29.613.415-3.062,2.945-11.845,3.053-12.218q.343.511.69.986c7.077,9.65,15.672,68.846,16.6,75.328a6.683,6.683,0,0,1,.063,1.156c-1.237,40.57,9.881,72.636,8.217,80.334-.06.279-.113.573-.16.872l-27.212-104.365s-2.009-9.371-2.27-12.48" transform="translate(-1010.342 -37.326)" fill="#f5b0a6"/>
                                    <path id="Trazado_1014798" data-name="Trazado 1014798" d="M1160.361,257.33c-.679-7.461-.065-23.205.851-29.953.416-3.062,1.59-11.249,1.7-11.623.228.341.967,2.069,1.111,2.433,5.531,13.87,14.137,69.851,14.137,69.851a120.931,120.931,0,0,1,17.944-9.6s-.663-12.734-.851-19.061c-.851-28.421-10.211-60.586-15.657-67.734s-11.257-10.029-15.713-10.211c-4.653-.191-14.353-.033-14.353-.033-3.914,13.434-31.543,11.436-41.923,9.9-9.626-1.42-10.909-6.528-11.047-7.265a70.33,70.33,0,0,1-12.78-.1s-14.976-.977-31.995,16.382-35.683,46.96-35.683,46.96a7.031,7.031,0,0,0,1.191,6.638c2.553,3.233,22.805-.851,22.805-.851s30.918-38.962,39.768-39.3c8.363-.322,17.481,38.1,19.608,50.367l61.068-5.347c-.078-.552-.141-1.051-.178-1.452" transform="translate(-1010.255 -73.081)" fill="#a5b0d0"/>
                                    <path id="Trazado_1014799" data-name="Trazado 1014799" d="M1193.326,100.28l-13.313,7.311-4.537-5.218s-4.994,4.084-4.994,8.85-1.109,16.929-5.66,20.15c0,0-16.034-9.31-15.579-23.832s9.779-23.094,22.67-23.776c11.714-.618,20.806,3.858,26.026,13.388Z" transform="translate(-1064.057 -33.736)" fill="#623f04"/>
                                    <path id="Trazado_1014800" data-name="Trazado 1014800" d="M1104.625,57.3c-.643,3.907-1.048,14.066,7.68,16.238s14.723,15.521,22.289,4.594,11.942-9.85,8.294-18.017-4.648-20.433-15.37-21.524-21.25,8.717-22.893,18.709" transform="translate(-1045.958 -15.521)" fill="#623f04"/>
                                    <path id="Trazado_1014801" data-name="Trazado 1014801" d="M1177.485,131.63c1.113,3.46,4.1,5.59,6.681,4.759s3.763-4.307,2.646-7.766-4.1-5.59-6.682-4.759-3.763,4.307-2.645,7.766" transform="translate(-1075.273 -49.847)" fill="#e89289"/>
                                    <path id="Trazado_1014802" data-name="Trazado 1014802" d="M1188.16,143.251a7.942,7.942,0,1,1-7.942-7.942,7.941,7.941,0,0,1,7.942,7.942" transform="translate(-1073.344 -54.532)" fill="#1e3a8a"/>
                                    <path id="Trazado_1014803" data-name="Trazado 1014803" d="M1112.463,445.236h121.8l-30.946-119.592s-3.173-10.207-3.8-14.574l-61.068,5.347c.124.714.229,1.356.3,1.88,1.361,9.53-10.724,35.048-10.724,35.048s-9.446,23.976-15.571,91.892" transform="translate(-1049.237 -125.367)" fill="#25a77c"/>
                                    <path id="Trazado_1014804" data-name="Trazado 1014804" d="M1352.614,305.83h13.643l2.842-6.821,6.822,6.821h22.169s14.966,42.6,14.779,63.665c-.19,21.411.2,87.539.2,87.539h-60.458Z" transform="translate(-1146.023 -120.507)" fill="none" stroke="#000" stroke-miterlimit="10" stroke-width="1.5"/>
                                    <line id="Línea_3611" data-name="Línea 3611" x2="3.012" transform="translate(209.731 190.264)" fill="none" stroke="#000" stroke-miterlimit="10" stroke-width="1.5"/>
                                    <path id="Trazado_1014805" data-name="Trazado 1014805" d="M1376.608,315.488h3.012v-4.773l2.121,2.139" transform="translate(-1155.693 -125.224)" fill="none" stroke="#000" stroke-miterlimit="10" stroke-width="1.5"/>
                                    <path id="Trazado_1014806" data-name="Trazado 1014806" d="M1386.028,315.128l2.121,2.139,3.009-.119" transform="translate(-1159.49 -127.003)" fill="none" stroke="#000" stroke-miterlimit="10" stroke-width="1.5"/>
                                    <line id="Línea_3612" data-name="Línea 3612" y1="0.266" x2="6.704" transform="translate(236.138 189.7)" fill="none" stroke="#000" stroke-miterlimit="10" stroke-width="1.5" stroke-dasharray="7.493 7.493"/>
                                    <path id="Trazado_1014807" data-name="Trazado 1014807" d="M1417.082,317.537l3.009-.119c.027.107.265,1.179.654,2.938" transform="translate(-1172.005 -127.926)" fill="none" stroke="#000" stroke-miterlimit="10" stroke-width="1.5"/>
                                    <path id="Trazado_1014808" data-name="Trazado 1014808" d="M1425.339,331.955c3.1,14.1,8.881,40.4,8.881,40.4v84.821" transform="translate(-1175.333 -133.785)" fill="none" stroke="#000" stroke-miterlimit="10" stroke-width="1.5" stroke-dasharray="9.831 9.831"/>
                                    <path id="Trazado_1014809" data-name="Trazado 1014809" d="M1438.182,546.609v3.012h-3.012" transform="translate(-1179.295 -220.294)" fill="none" stroke="#000" stroke-miterlimit="10" stroke-width="1.5"/>
                                    <line id="Línea_3613" data-name="Línea 3613" x1="35.464" transform="translate(213.963 329.327)" fill="none" stroke="#000" stroke-miterlimit="10" stroke-width="1.5" stroke-dasharray="10.801 10.801"/>
                                    <line id="Línea_3614" data-name="Línea 3614" x1="3.012" transform="translate(207.728 329.327)" fill="none" stroke="#000" stroke-miterlimit="10" stroke-width="1.5"/>
                                    <path id="Trazado_1014810" data-name="Trazado 1014810" d="M1248.2,379.559a228.435,228.435,0,0,0-29.632-2.254.475.475,0,0,0-.484.473v2.292a.474.474,0,0,0,.466.469c24.764.461,39.4,3.654,42.1,5.8a.462.462,0,0,1,0,.719c-2.708,2.144-17.341,5.336-42.1,5.8a.474.474,0,0,0-.466.469v2.292a.475.475,0,0,0,.484.473,228.43,228.43,0,0,0,29.632-2.254c14.256-2.223,16.084-4.981,16.084-7.137s-1.828-4.914-16.084-7.137" transform="translate(-1091.803 -152.061)" fill="#1f2733"/>
                                    <path id="Trazado_1014811" data-name="Trazado 1014811" d="M1143.589,379.563c-2.79.435-5.1.891-7.016,1.358a.673.673,0,0,0-.332,1.116l1.506,1.611a.658.658,0,0,0,.628.2c7.013-1.553,18.7-2.987,34.579-3.3a.678.678,0,0,0,.666-.672v-1.886a.679.679,0,0,0-.692-.676,227.513,227.513,0,0,0-29.341,2.248" transform="translate(-1058.747 -152.065)" fill="#1f2733"/>
                                    <path id="Trazado_1014812" data-name="Trazado 1014812" d="M1125.284,392.95a1.534,1.534,0,0,1,.118-.128c-.636.079-1.329.166-2,.251a1.112,1.112,0,0,0-.776,1.746c1.294,1.747,5.085,3.649,15.465,5.267a226.121,226.121,0,0,0,28.888,2.239,1.122,1.122,0,0,0,1.144-1.118v-1a1.12,1.12,0,0,0-1.1-1.113c-25.744-.538-40.347-4.036-41.739-6.142" transform="translate(-1053.248 -158.315)" fill="#1f2733"/>
                                    <line id="Línea_3615" data-name="Línea 3615" x2="31.543" transform="translate(172.101 234.298)"/>
                                    <line id="Línea_3616" data-name="Línea 3616" x2="29.601" transform="translate(172.101 234.298)" fill="none" stroke="#000" stroke-miterlimit="10" stroke-width="3"/>
                                    <path id="Trazado_1014813" data-name="Trazado 1014813" d="M1333.659,394.853l-1.221-1.312,6.468-6.012-6.468-6.013,1.221-1.312,7.877,7.324Z" transform="translate(-1137.892 -153.23)"/>
                                    <rect id="Rectángulo_461782" data-name="Rectángulo 461782" width="49.304" height="2.978" transform="translate(206.591 240.213)" fill="#25a77c"/>
                                    <path id="Trazado_1014814" data-name="Trazado 1014814" d="M1143.326,261.858s12.422,5.289,25.434,2.922-18.928,16.6-25.434-2.922" transform="translate(-1061.676 -105.534)" fill="#8c9cc4"/>
                                    <path id="Trazado_1014815" data-name="Trazado 1014815" d="M1238.836,259.857s-12.422,5.289-25.434,2.922,18.928,16.6,25.434-2.922" transform="translate(-1088.674 -104.728)" fill="#8c9cc4"/>
                                  </g>
                                  <path id="Trazado_1016855" data-name="Trazado 1016855" d="M12.578-4.814a5.193,5.193,0,0,1-.8,2.622A4.833,4.833,0,0,1,9.722-.43,7,7,0,0,1,6.7.2,5.584,5.584,0,0,1,2.285-1.631,7.54,7.54,0,0,1,.674-6.787v-.7A8.607,8.607,0,0,1,1.4-11.147,5.513,5.513,0,0,1,3.5-13.569a5.844,5.844,0,0,1,3.164-.854,6.129,6.129,0,0,1,4.16,1.362,5.383,5.383,0,0,1,1.787,3.755H9.189a2.547,2.547,0,0,0-.654-1.865,2.691,2.691,0,0,0-1.875-.566,2.048,2.048,0,0,0-1.875.957A6.151,6.151,0,0,0,4.16-7.725v1.006a6.806,6.806,0,0,0,.571,3.252A2.091,2.091,0,0,0,6.7-2.49a2.632,2.632,0,0,0,1.807-.557A2.363,2.363,0,0,0,9.17-4.814Zm1.055-.566A6.236,6.236,0,0,1,14.248-8.2a4.4,4.4,0,0,1,1.768-1.9,5.323,5.323,0,0,1,2.705-.664,4.858,4.858,0,0,1,3.74,1.47,5.64,5.64,0,0,1,1.367,4v.117a5.472,5.472,0,0,1-1.372,3.921A4.871,4.871,0,0,1,18.74.2a4.927,4.927,0,0,1-3.623-1.353,5.29,5.29,0,0,1-1.475-3.667Zm3.291.205a3.932,3.932,0,0,0,.459,2.148,1.529,1.529,0,0,0,1.357.684q1.758,0,1.8-2.705v-.332q0-2.842-1.816-2.842-1.65,0-1.787,2.451ZM28.3-10.566l.107,1.24a3.583,3.583,0,0,1,3.018-1.436,3.015,3.015,0,0,1,2.466.986,4.7,4.7,0,0,1,.845,2.969V0h-3.3V-6.67a1.783,1.783,0,0,0-.322-1.177,1.491,1.491,0,0,0-1.172-.376,1.569,1.569,0,0,0-1.436.762V0H25.215V-10.566Zm12.09-2.627v2.627h1.738v2.285H40.391v4.834a1.234,1.234,0,0,0,.215.83,1.152,1.152,0,0,0,.85.234,4.828,4.828,0,0,0,.82-.059V-.088A6.074,6.074,0,0,1,40.42.2a3.448,3.448,0,0,1-2.51-.8A3.282,3.282,0,0,1,37.1-3.037V-8.281H35.752v-2.285H37.1v-2.627Zm2.324,7.813A6.236,6.236,0,0,1,43.33-8.2,4.4,4.4,0,0,1,45.1-10.1a5.323,5.323,0,0,1,2.705-.664,4.858,4.858,0,0,1,3.74,1.47,5.64,5.64,0,0,1,1.367,4v.117a5.472,5.472,0,0,1-1.372,3.921A4.871,4.871,0,0,1,47.822.2,4.927,4.927,0,0,1,44.2-1.157a5.29,5.29,0,0,1-1.475-3.667Zm3.291.205a3.932,3.932,0,0,0,.459,2.148,1.529,1.529,0,0,0,1.357.684q1.758,0,1.8-2.705v-.332q0-2.842-1.816-2.842-1.65,0-1.787,2.451ZM60.752-7.588l-1.084-.078a1.947,1.947,0,0,0-1.992.977V0H54.385V-10.566h3.086l.107,1.357a2.548,2.548,0,0,1,2.314-1.553,3.209,3.209,0,0,1,.918.117Zm4.209-2.979.107,1.24a3.583,3.583,0,0,1,3.018-1.436,3.015,3.015,0,0,1,2.466.986A4.7,4.7,0,0,1,71.4-6.807V0H68.1V-6.67a1.783,1.783,0,0,0-.322-1.177A1.491,1.491,0,0,0,66.6-8.223a1.569,1.569,0,0,0-1.436.762V0H61.875V-10.566ZM72.8-5.381A6.236,6.236,0,0,1,73.418-8.2a4.4,4.4,0,0,1,1.768-1.9,5.323,5.323,0,0,1,2.705-.664,4.858,4.858,0,0,1,3.74,1.47,5.64,5.64,0,0,1,1.367,4v.117a5.472,5.472,0,0,1-1.372,3.921A4.871,4.871,0,0,1,77.91.2a4.927,4.927,0,0,1-3.623-1.353,5.29,5.29,0,0,1-1.475-3.667Zm3.291.205a3.932,3.932,0,0,0,.459,2.148,1.529,1.529,0,0,0,1.357.684q1.758,0,1.8-2.705v-.332q0-2.842-1.816-2.842-1.65,0-1.787,2.451Z" transform="translate(970.791 3668.586)" fill="#12263f"/>
                                  <path id="Trazado_1016856" data-name="Trazado 1016856" d="M.508-5.361A6.455,6.455,0,0,1,1.592-9.316a3.568,3.568,0,0,1,3.027-1.445A3.035,3.035,0,0,1,7-9.648V-15h3.3V0H7.344L7.178-1.133A3.116,3.116,0,0,1,4.6.2,3.562,3.562,0,0,1,1.611-1.25,6.659,6.659,0,0,1,.508-5.361ZM3.8-5.156q0,2.813,1.641,2.813A1.62,1.62,0,0,0,7-3.262V-7.285a1.576,1.576,0,0,0-1.543-.937q-1.523,0-1.65,2.461ZM17.285.2a5.432,5.432,0,0,1-3.936-1.45,5.008,5.008,0,0,1-1.5-3.774V-5.3a6.489,6.489,0,0,1,.6-2.861A4.395,4.395,0,0,1,14.2-10.083a5.292,5.292,0,0,1,2.734-.679A4.574,4.574,0,0,1,20.449-9.38a5.43,5.43,0,0,1,1.289,3.853v1.279H15.2a2.372,2.372,0,0,0,.771,1.4,2.3,2.3,0,0,0,1.543.508,2.958,2.958,0,0,0,2.441-1.094l1.5,1.777A4.2,4.2,0,0,1,19.712-.308,5.891,5.891,0,0,1,17.285.2Zm-.371-8.418q-1.445,0-1.719,1.914h3.32v-.254a1.63,1.63,0,0,0-.4-1.226A1.593,1.593,0,0,0,16.914-8.223Zm15.6,5.879a1.464,1.464,0,0,0,1.074-.376,1.379,1.379,0,0,0,.371-1.05h3.086A3.653,3.653,0,0,1,35.8-.918,4.631,4.631,0,0,1,32.588.2,4.689,4.689,0,0,1,28.955-1.25a5.7,5.7,0,0,1-1.328-4v-.137a6.436,6.436,0,0,1,.591-2.827,4.3,4.3,0,0,1,1.7-1.885,5.081,5.081,0,0,1,2.637-.659A4.573,4.573,0,0,1,35.83-9.619a4.053,4.053,0,0,1,1.211,3.1H33.955a1.807,1.807,0,0,0-.4-1.26,1.382,1.382,0,0,0-1.074-.439q-1.279,0-1.494,1.631a11.508,11.508,0,0,0-.068,1.426A4.52,4.52,0,0,0,31.3-2.959,1.319,1.319,0,0,0,32.51-2.344ZM44.385,0a3.716,3.716,0,0,1-.312-.947A3.06,3.06,0,0,1,41.533.2a3.749,3.749,0,0,1-2.539-.9,2.875,2.875,0,0,1-1.045-2.271,2.955,2.955,0,0,1,1.27-2.6,6.468,6.468,0,0,1,3.691-.879h1.016v-.559q0-1.462-1.26-1.462a1.03,1.03,0,0,0-1.172,1.158H38.2a2.95,2.95,0,0,1,1.3-2.487,5.479,5.479,0,0,1,3.325-.956,4.8,4.8,0,0,1,3.193.986,3.429,3.429,0,0,1,1.2,2.705v4.678a4.79,4.79,0,0,0,.449,2.227V0ZM42.324-2.148a1.836,1.836,0,0,0,1.021-.264,1.653,1.653,0,0,0,.581-.6V-4.7h-.957q-1.719,0-1.719,1.543a.942.942,0,0,0,.3.728A1.1,1.1,0,0,0,42.324-2.148Zm6.309-3.213a6.455,6.455,0,0,1,1.084-3.955,3.568,3.568,0,0,1,3.027-1.445,3.035,3.035,0,0,1,2.383,1.113V-15h3.3V0H55.469L55.3-1.133A3.116,3.116,0,0,1,52.725.2,3.562,3.562,0,0,1,49.736-1.25,6.659,6.659,0,0,1,48.633-5.361Zm3.291.205q0,2.813,1.641,2.813a1.62,1.62,0,0,0,1.563-.918V-7.285a1.576,1.576,0,0,0-1.543-.937q-1.523,0-1.65,2.461ZM65.41.2a5.432,5.432,0,0,1-3.936-1.45,5.008,5.008,0,0,1-1.5-3.774V-5.3a6.489,6.489,0,0,1,.6-2.861,4.395,4.395,0,0,1,1.753-1.919,5.292,5.292,0,0,1,2.734-.679A4.574,4.574,0,0,1,68.574-9.38a5.43,5.43,0,0,1,1.289,3.853v1.279H63.32a2.372,2.372,0,0,0,.771,1.4,2.3,2.3,0,0,0,1.543.508,2.958,2.958,0,0,0,2.441-1.094l1.5,1.777A4.2,4.2,0,0,1,67.837-.308,5.891,5.891,0,0,1,65.41.2Zm-.371-8.418q-1.445,0-1.719,1.914h3.32v-.254a1.63,1.63,0,0,0-.4-1.226A1.593,1.593,0,0,0,65.039-8.223Zm12.539.635-1.084-.078a1.947,1.947,0,0,0-1.992.977V0H71.211V-10.566H74.3L74.4-9.209a2.548,2.548,0,0,1,2.314-1.553,3.209,3.209,0,0,1,.918.117ZM84.424,0a3.716,3.716,0,0,1-.312-.947A3.06,3.06,0,0,1,81.572.2a3.749,3.749,0,0,1-2.539-.9,2.875,2.875,0,0,1-1.045-2.271,2.955,2.955,0,0,1,1.27-2.6,6.468,6.468,0,0,1,3.691-.879h1.016v-.559q0-1.462-1.26-1.462a1.03,1.03,0,0,0-1.172,1.158H78.242a2.95,2.95,0,0,1,1.3-2.487,5.479,5.479,0,0,1,3.325-.956,4.8,4.8,0,0,1,3.193.986,3.429,3.429,0,0,1,1.2,2.705v4.678a4.79,4.79,0,0,0,.449,2.227V0ZM82.363-2.148a1.836,1.836,0,0,0,1.021-.264,1.653,1.653,0,0,0,.581-.6V-4.7h-.957q-1.719,0-1.719,1.543a.942.942,0,0,0,.3.728A1.1,1.1,0,0,0,82.363-2.148Z" transform="translate(970.791 3687.689)" fill="#12263f"/>
                                  <g id="Grupo_1195826" data-name="Grupo 1195826">
                                    <g id="Grupo_1195825" data-name="Grupo 1195825">
                                      <g id="Grupo_1195824" data-name="Grupo 1195824">
                                        <g id="Grupo_1195823" data-name="Grupo 1195823">
                                          <g id="Grupo_1195822" data-name="Grupo 1195822">
                                            <g id="Grupo_de_desplazamiento_1" data-name="Grupo de desplazamiento 1" transform="translate(211.711 3621.521)" clip-path="url(#clip-path-8)" style="isolation: isolate">
                                              <g id="Grupo_1194805" data-name="Grupo 1194805" clip-path="url(#clip-path-2)">
                                                <path id="Trazado_1014816" data-name="Trazado 1014816" d="M1773.639,370.981H1515.346a9.541,9.541,0,0,1-9.541-9.54V9.54A9.541,9.541,0,0,1,1515.346,0h258.293a9.54,9.54,0,0,1,9.54,9.54v351.9a9.54,9.54,0,0,1-9.54,9.54" transform="translate(-606.869)" fill="#e8ebf3"/>
                                              </g>
                                            </g>
                                          </g>
                                        </g>
                                      </g>
                                    </g>
                                  </g>
                                  <g id="Grupo_1194807" data-name="Grupo 1194807" transform="translate(1110.646 3621.521)" clip-path="url(#clip-path-10)">
                                    <path id="Trazado_1014817" data-name="Trazado 1014817" d="M1767.2,548.808c-.531-.713-2.525-.892-3.4-1.021-.927-.136-2.82.15-3.744,0a36.66,36.66,0,0,1-7.148-2.383c-3.532-1.648-15.957-9.217-19.288-10.526-2.445-.961-7.647-2.6-9.53-4.425-1.906-1.851-4.585-8.468-5.481-10.773a6.877,6.877,0,0,1-.411-1.613l-16.177-125.711a6.93,6.93,0,0,0-.167-.857l-7.672-29.424c.078.029.155.063.232.084,3.718.956,6.063-3.334,6.883-5.173a6.7,6.7,0,0,0,.467-1.5,69.878,69.878,0,0,0-.14-25.055c-2.723-13.5.34-33.808-1.7-49.465s-9.19-27.911-8.169-56.842-8.509-59.906-13.955-67.054-10.252-9.387-14.636-10.211c-3.349-.63-13.615-.681-13.615-.681h-11.257a6.762,6.762,0,0,1-3-.686c-1.6-.79-3.787-2.264-3.787-4.419,0-3.4-1.021-5.105,3.063-7.829s10.552-3.234,10.722-5.616-2.042-23.741-12.934-31.229-21.784-1.532-21.784-1.532-13.445,7.318-11.4,23.146,11.4,12.594,12.423,20.082-4.169,8.679-5.871,9.02c-1.521.3-17.789,2.036-21.231,2.4a6.956,6.956,0,0,1-1.069.035c-2.442-.116-14.955.139-30.2,15.689-14.675,14.969-32.134,38.542-36.664,44.751a6.747,6.747,0,0,0-.225,7.773q.14.2.3.4c2.553,3.233,66.006,73.12,66.006,73.12l.007-.03c-3.79,21.593-7.31,54.1-2.873,87.51,4.995,37.611,9,105.005,8.85,147.608-.035,9.687-1.543,16.689-2.3,23.145-1.054,9-2.747,12.279-1.446,15.658.482,1.255,3.14,2.662,4.425,3.063,4.224,1.319,13.415,1.11,17.7,0,1.7-.439,6.093-2.2,7.063-3.659,2.178-3.281-.149-11.505-.71-15.4-.718-4.988-2.242-14.715-2.609-19.742-1.385-18.958,4.425-75.9,4.425-75.9l11.909-118.818c.749-7.472,11.221-8.51,13.421-1.329l58.125,189.7a6.855,6.855,0,0,1,.3,1.869c.028,1.3.06,3.541-.024,4.479-.257,2.843-2.183,8.382-2.042,11.232.092,1.856-.647,5.219,2.042,7.148,6.806,4.881,14.892,3.656,17.359,3.744,2.387.085,7.151.477,9.53.681,8.859.759,26.435,1.336,27.8,1.336s6.133-.162,8.169-.34c1.367-.12,4.538.347,5.446-.681a4.185,4.185,0,0,0,0-3.744M1590.892,260.627a6.876,6.876,0,0,1-7.69,3.524c-3.539-.833-7.7-1.926-8.369-2.592-.961-.962-23.433-29.2-32.064-40.054a6.869,6.869,0,0,1-.055-8.485c8.172-10.558,29.3-36.962,36.375-37.234,8.849-.34,20.763,45.27,22.125,54.8.995,6.966-6.314,22.3-10.32,30.042m67.5-39.573c-.568-6.785.105-22.865,1.021-29.613.416-3.062,2.945-11.845,3.053-12.218q.343.511.69.986c7.077,9.65,15.672,68.846,16.6,75.328a6.683,6.683,0,0,1,.063,1.156c-1.237,40.57,9.881,72.636,8.217,80.334-.06.279-.114.573-.16.872l-27.212-104.365s-2.009-9.371-2.27-12.48" transform="translate(-1509.593 -37.326)" fill="#f5b0a6"/>
                                    <path id="Trazado_1014818" data-name="Trazado 1014818" d="M1659.612,257.33c-.679-7.461-.065-23.205.851-29.953.416-3.062,1.59-11.249,1.7-11.623.229.341.967,2.069,1.112,2.433,5.531,13.87,14.136,69.851,14.136,69.851a120.952,120.952,0,0,1,17.944-9.6s-.663-12.734-.851-19.061c-.851-28.421-10.211-60.586-15.657-67.734s-11.256-10.029-15.712-10.211c-4.653-.191-14.354-.033-14.354-.033-3.914,13.434-31.542,11.436-41.923,9.9-9.626-1.42-10.909-6.528-11.047-7.265a70.331,70.331,0,0,1-12.78-.1s-14.976-.977-31.995,16.382-35.683,46.96-35.683,46.96a7.03,7.03,0,0,0,1.191,6.638c2.553,3.233,22.805-.851,22.805-.851s30.918-38.962,39.768-39.3c8.363-.322,17.481,38.1,19.608,50.367l61.068-5.347c-.078-.552-.141-1.051-.178-1.452" transform="translate(-1509.506 -73.081)" fill="#a5b0d0"/>
                                    <path id="Trazado_1014819" data-name="Trazado 1014819" d="M1692.578,100.28l-13.313,7.311-4.536-5.218s-4.994,4.084-4.994,8.85-1.109,16.929-5.66,20.15c0,0-16.034-9.31-15.579-23.832s9.779-23.094,22.67-23.776c11.714-.618,20.806,3.858,26.026,13.388Z" transform="translate(-1563.308 -33.736)" fill="#623f04"/>
                                    <path id="Trazado_1014820" data-name="Trazado 1014820" d="M1603.876,57.3c-.644,3.907-1.048,14.066,7.68,16.238s14.723,15.521,22.289,4.594,11.942-9.85,8.294-18.017-4.648-20.433-15.37-21.524-21.25,8.717-22.893,18.709" transform="translate(-1545.209 -15.521)" fill="#623f04"/>
                                    <path id="Trazado_1014821" data-name="Trazado 1014821" d="M1676.737,131.63c1.113,3.46,4.1,5.59,6.681,4.759s3.763-4.307,2.646-7.766-4.1-5.59-6.683-4.759-3.763,4.307-2.645,7.766" transform="translate(-1574.524 -49.847)" fill="#e89289"/>
                                    <path id="Trazado_1014822" data-name="Trazado 1014822" d="M1687.411,143.251a7.942,7.942,0,1,1-7.942-7.942,7.941,7.941,0,0,1,7.942,7.942" transform="translate(-1572.594 -54.532)" fill="#1e3a8a"/>
                                    <path id="Trazado_1014823" data-name="Trazado 1014823" d="M1611.714,445.236h121.8l-30.946-119.592s-3.174-10.207-3.8-14.574l-61.068,5.347c.124.714.229,1.356.3,1.88,1.361,9.53-10.724,35.048-10.724,35.048s-9.446,23.976-15.571,91.892" transform="translate(-1548.488 -125.367)" fill="#25a77c"/>
                                    <path id="Trazado_1014824" data-name="Trazado 1014824" d="M1851.866,305.83h13.642l2.842-6.821,6.822,6.821h22.169s14.966,42.6,14.779,63.665c-.19,21.411.2,87.539.2,87.539h-60.459Z" transform="translate(-1645.275 -120.507)" fill="none" stroke="#000" stroke-miterlimit="10" stroke-width="1.5"/>
                                    <line id="Línea_3617" data-name="Línea 3617" x2="3.012" transform="translate(209.731 190.264)" fill="none" stroke="#000" stroke-miterlimit="10" stroke-width="1.5"/>
                                    <path id="Trazado_1014825" data-name="Trazado 1014825" d="M1875.86,315.488h3.012v-4.773l2.121,2.139" transform="translate(-1654.945 -125.224)" fill="none" stroke="#000" stroke-miterlimit="10" stroke-width="1.5"/>
                                    <path id="Trazado_1014826" data-name="Trazado 1014826" d="M1885.28,315.128l2.12,2.139,3.01-.119" transform="translate(-1658.741 -127.003)" fill="none" stroke="#000" stroke-miterlimit="10" stroke-width="1.5"/>
                                    <line id="Línea_3618" data-name="Línea 3618" y1="0.266" x2="6.704" transform="translate(236.138 189.7)" fill="none" stroke="#000" stroke-miterlimit="10" stroke-width="1.5" stroke-dasharray="7.493 7.493"/>
                                    <path id="Trazado_1014827" data-name="Trazado 1014827" d="M1916.334,317.537l3.009-.119c.027.107.265,1.179.654,2.938" transform="translate(-1671.256 -127.926)" fill="none" stroke="#000" stroke-miterlimit="10" stroke-width="1.5"/>
                                    <path id="Trazado_1014828" data-name="Trazado 1014828" d="M1924.591,331.955c3.1,14.1,8.881,40.4,8.881,40.4v84.821" transform="translate(-1674.584 -133.785)" fill="none" stroke="#000" stroke-miterlimit="10" stroke-width="1.5" stroke-dasharray="9.831 9.831"/>
                                    <path id="Trazado_1014829" data-name="Trazado 1014829" d="M1937.433,546.609v3.012h-3.012" transform="translate(-1678.546 -220.294)" fill="none" stroke="#000" stroke-miterlimit="10" stroke-width="1.5"/>
                                    <line id="Línea_3619" data-name="Línea 3619" x1="35.464" transform="translate(213.964 329.327)" fill="none" stroke="#000" stroke-miterlimit="10" stroke-width="1.5" stroke-dasharray="10.801 10.801"/>
                                    <line id="Línea_3620" data-name="Línea 3620" x1="3.012" transform="translate(207.728 329.327)" fill="none" stroke="#000" stroke-miterlimit="10" stroke-width="1.5"/>
                                    <line id="Línea_3621" data-name="Línea 3621" x2="16.68" transform="translate(207.591 212.412)"/>
                                    <line id="Línea_3622" data-name="Línea 3622" x2="15.267" transform="translate(207.591 212.412)" fill="none" stroke="#000" stroke-miterlimit="10" stroke-width="2.182"/>
                                    <path id="Trazado_1014830" data-name="Trazado 1014830" d="M1871.286,357.543l-.888-.954,4.7-4.371-4.7-4.372.888-.954,5.727,5.326Z" transform="translate(-1652.743 -139.804)"/>
                                    <line id="Línea_3623" data-name="Línea 3623" y2="37.459" transform="translate(224.271 178.502)" fill="none" stroke="#000" stroke-miterlimit="10" stroke-width="1.5"/>
                                    <path id="Trazado_1014831" data-name="Trazado 1014831" d="M1643.276,257.779s12.422,5.289,25.434,2.923-18.928,16.6-25.434-2.923" transform="translate(-1561.208 -103.89)" fill="#8c9cc4"/>
                                    <path id="Trazado_1014832" data-name="Trazado 1014832" d="M1738.786,255.778s-12.421,5.289-25.435,2.922,18.928,16.6,25.435-2.922" transform="translate(-1588.207 -103.084)" fill="#8c9cc4"/>
                                    <line id="Línea_3624" data-name="Línea 3624" y2="92.275" transform="translate(96.269 144.981)" fill="none" stroke="#000" stroke-miterlimit="10" stroke-width="1.5" stroke-dasharray="10.091 10.091"/>
                                    <line id="Línea_3625" data-name="Línea 3625" y2="92.275" transform="translate(138.09 144.981)" fill="none" stroke="#000" stroke-miterlimit="10" stroke-width="1.5" stroke-dasharray="10.091 10.091"/>
                                    <line id="Línea_3626" data-name="Línea 3626" x2="16.68" transform="translate(121.261 155.037)"/>
                                    <line id="Línea_3627" data-name="Línea 3627" x2="15.267" transform="translate(121.261 155.037)" fill="none" stroke="#000" stroke-miterlimit="10" stroke-width="2.182"/>
                                    <path id="Trazado_1014833" data-name="Trazado 1014833" d="M1726.675,261.433l-.888-.954,4.7-4.371-4.7-4.372.888-.954,5.727,5.326Z" transform="translate(-1594.462 -101.07)"/>
                                    <line id="Línea_3628" data-name="Línea 3628" x2="16.68" transform="translate(121.261 222.468)"/>
                                    <line id="Línea_3629" data-name="Línea 3629" x2="15.267" transform="translate(121.261 222.468)" fill="none" stroke="#000" stroke-miterlimit="10" stroke-width="2.182"/>
                                    <path id="Trazado_1014834" data-name="Trazado 1014834" d="M1726.675,374.387l-.888-.954,4.7-4.371-4.7-4.372.888-.954,5.727,5.326Z" transform="translate(-1594.462 -146.593)"/>
                                    <line id="Línea_3630" data-name="Línea 3630" x1="16.68" transform="translate(96.205 155.037)"/>
                                    <line id="Línea_3631" data-name="Línea 3631" x1="15.267" transform="translate(97.617 155.037)" fill="none" stroke="#000" stroke-miterlimit="10" stroke-width="2.182"/>
                                    <path id="Trazado_1014835" data-name="Trazado 1014835" d="M1672.685,250.78l.888.954-4.7,4.371,4.7,4.372-.888.954-5.727-5.326Z" transform="translate(-1570.753 -101.069)"/>
                                    <line id="Línea_3632" data-name="Línea 3632" x1="16.68" transform="translate(96.205 222.468)"/>
                                    <line id="Línea_3633" data-name="Línea 3633" x1="15.267" transform="translate(97.617 222.468)" fill="none" stroke="#000" stroke-miterlimit="10" stroke-width="2.182"/>
                                    <path id="Trazado_1014836" data-name="Trazado 1014836" d="M1672.685,363.734l.888.954-4.7,4.371,4.7,4.372-.888.954-5.727-5.326Z" transform="translate(-1570.753 -146.592)"/>
                                  </g>
                                  <path id="Trazado_1016857" data-name="Trazado 1016857" d="M8.408-3.779a1.408,1.408,0,0,0-.532-1.172,6.615,6.615,0,0,0-1.87-.869,17.941,17.941,0,0,1-2.187-.869Q1.055-8.047,1.055-10.42A3.345,3.345,0,0,1,1.743-12.5a4.453,4.453,0,0,1,1.948-1.406,7.582,7.582,0,0,1,2.832-.5,6.632,6.632,0,0,1,2.749.547,4.352,4.352,0,0,1,1.89,1.558A4.068,4.068,0,0,1,11.836-10H8.418a1.719,1.719,0,0,0-.532-1.348,2.075,2.075,0,0,0-1.44-.479A2.339,2.339,0,0,0,5-11.421a1.243,1.243,0,0,0-.532,1.03,1.252,1.252,0,0,0,.586.991,7.389,7.389,0,0,0,2.061.918A12.623,12.623,0,0,1,9.531-7.461a4.07,4.07,0,0,1,2.3,3.662A3.472,3.472,0,0,1,10.43-.869,6.255,6.255,0,0,1,6.572.2a7.653,7.653,0,0,1-3.13-.62,4.719,4.719,0,0,1-2.109-1.7A4.428,4.428,0,0,1,.625-4.609H4.063a2.181,2.181,0,0,0,.591,1.685,2.793,2.793,0,0,0,1.919.542,2.206,2.206,0,0,0,1.343-.366A1.209,1.209,0,0,0,8.408-3.779ZM18.555.2a5.432,5.432,0,0,1-3.936-1.45,5.008,5.008,0,0,1-1.5-3.774V-5.3a6.489,6.489,0,0,1,.6-2.861,4.395,4.395,0,0,1,1.753-1.919,5.292,5.292,0,0,1,2.734-.679A4.574,4.574,0,0,1,21.719-9.38a5.43,5.43,0,0,1,1.289,3.853v1.279H16.465a2.372,2.372,0,0,0,.771,1.4,2.3,2.3,0,0,0,1.543.508,2.958,2.958,0,0,0,2.441-1.094l1.5,1.777A4.2,4.2,0,0,1,20.981-.308,5.891,5.891,0,0,1,18.555.2Zm-.371-8.418q-1.445,0-1.719,1.914h3.32v-.254a1.63,1.63,0,0,0-.4-1.226A1.593,1.593,0,0,0,18.184-8.223ZM34.141-5.205a6.372,6.372,0,0,1-1.108,3.931A3.554,3.554,0,0,1,30.039.2,3.046,3.046,0,0,1,27.646-.869V4.063H24.355V-10.566h3.076l.1.977a3.046,3.046,0,0,1,2.49-1.172,3.582,3.582,0,0,1,3.037,1.44,6.45,6.45,0,0,1,1.084,3.96ZM30.85-5.41q0-2.812-1.641-2.812a1.549,1.549,0,0,0-1.562.84v4.16a1.6,1.6,0,0,0,1.582.879q1.572,0,1.621-2.715ZM41.543,0a3.716,3.716,0,0,1-.312-.947A3.06,3.06,0,0,1,38.691.2a3.749,3.749,0,0,1-2.539-.9,2.875,2.875,0,0,1-1.045-2.271,2.955,2.955,0,0,1,1.27-2.6,6.468,6.468,0,0,1,3.691-.879h1.016v-.559q0-1.462-1.26-1.462a1.03,1.03,0,0,0-1.172,1.158H35.361a2.95,2.95,0,0,1,1.3-2.487,5.479,5.479,0,0,1,3.325-.956,4.8,4.8,0,0,1,3.193.986,3.429,3.429,0,0,1,1.2,2.705v4.678a4.79,4.79,0,0,0,.449,2.227V0ZM39.482-2.148A1.836,1.836,0,0,0,40.5-2.412a1.653,1.653,0,0,0,.581-.6V-4.7h-.957q-1.719,0-1.719,1.543a.942.942,0,0,0,.3.728A1.1,1.1,0,0,0,39.482-2.148ZM52.6-7.588l-1.084-.078a1.947,1.947,0,0,0-1.992.977V0H46.23V-10.566h3.086l.107,1.357a2.548,2.548,0,0,1,2.314-1.553,3.209,3.209,0,0,1,.918.117ZM59.443,0a3.716,3.716,0,0,1-.312-.947A3.06,3.06,0,0,1,56.592.2a3.749,3.749,0,0,1-2.539-.9,2.875,2.875,0,0,1-1.045-2.271,2.955,2.955,0,0,1,1.27-2.6,6.468,6.468,0,0,1,3.691-.879h1.016v-.559q0-1.462-1.26-1.462a1.03,1.03,0,0,0-1.172,1.158H53.262a2.95,2.95,0,0,1,1.3-2.487,5.479,5.479,0,0,1,3.325-.956,4.8,4.8,0,0,1,3.193.986,3.429,3.429,0,0,1,1.2,2.705v4.678a4.79,4.79,0,0,0,.449,2.227V0ZM57.383-2.148A1.836,1.836,0,0,0,58.4-2.412a1.653,1.653,0,0,0,.581-.6V-4.7h-.957q-1.719,0-1.719,1.543a.942.942,0,0,0,.3.728A1.1,1.1,0,0,0,57.383-2.148Zm11.191-.2a1.464,1.464,0,0,0,1.074-.376,1.379,1.379,0,0,0,.371-1.05h3.086A3.653,3.653,0,0,1,71.86-.918,4.631,4.631,0,0,1,68.652.2,4.689,4.689,0,0,1,65.02-1.25a5.7,5.7,0,0,1-1.328-4v-.137a6.436,6.436,0,0,1,.591-2.827,4.3,4.3,0,0,1,1.7-1.885,5.081,5.081,0,0,1,2.637-.659,4.573,4.573,0,0,1,3.271,1.143,4.053,4.053,0,0,1,1.211,3.1H70.02a1.806,1.806,0,0,0-.4-1.26,1.382,1.382,0,0,0-1.074-.439q-1.279,0-1.494,1.631a11.508,11.508,0,0,0-.068,1.426,4.52,4.52,0,0,0,.381,2.207A1.319,1.319,0,0,0,68.574-2.344ZM77.969,0h-3.3V-10.566h3.3Zm-3.5-13.291a1.469,1.469,0,0,1,.508-1.152,1.916,1.916,0,0,1,1.318-.449,1.916,1.916,0,0,1,1.318.449,1.469,1.469,0,0,1,.508,1.152,1.469,1.469,0,0,1-.508,1.152,1.916,1.916,0,0,1-1.318.449,1.916,1.916,0,0,1-1.318-.449A1.469,1.469,0,0,1,74.473-13.291Zm5.107,7.91A6.236,6.236,0,0,1,80.2-8.2a4.4,4.4,0,0,1,1.768-1.9,5.323,5.323,0,0,1,2.705-.664,4.858,4.858,0,0,1,3.74,1.47,5.64,5.64,0,0,1,1.367,4v.117A5.472,5.472,0,0,1,88.4-1.255,4.871,4.871,0,0,1,84.688.2a4.927,4.927,0,0,1-3.623-1.353A5.29,5.29,0,0,1,79.59-4.824Zm3.291.205a3.932,3.932,0,0,0,.459,2.148,1.529,1.529,0,0,0,1.357.684q1.758,0,1.8-2.705v-.332q0-2.842-1.816-2.842-1.65,0-1.787,2.451ZM85.117-15h3.477l-2.715,3.066-2.686,0Zm9.131,4.434.107,1.24a3.583,3.583,0,0,1,3.018-1.436,3.015,3.015,0,0,1,2.466.986,4.7,4.7,0,0,1,.845,2.969V0h-3.3V-6.67a1.783,1.783,0,0,0-.322-1.177,1.491,1.491,0,0,0-1.172-.376,1.569,1.569,0,0,0-1.436.762V0H91.162V-10.566Z" transform="translate(1263.835 3668.586)" fill="#12263f"/>
                                  <path id="Trazado_1016858" data-name="Trazado 1016858" d="M.508-5.361A6.455,6.455,0,0,1,1.592-9.316a3.568,3.568,0,0,1,3.027-1.445A3.035,3.035,0,0,1,7-9.648V-15h3.3V0H7.344L7.178-1.133A3.116,3.116,0,0,1,4.6.2,3.562,3.562,0,0,1,1.611-1.25,6.659,6.659,0,0,1,.508-5.361ZM3.8-5.156q0,2.813,1.641,2.813A1.62,1.62,0,0,0,7-3.262V-7.285a1.576,1.576,0,0,0-1.543-.937q-1.523,0-1.65,2.461ZM17.285.2a5.432,5.432,0,0,1-3.936-1.45,5.008,5.008,0,0,1-1.5-3.774V-5.3a6.489,6.489,0,0,1,.6-2.861A4.395,4.395,0,0,1,14.2-10.083a5.292,5.292,0,0,1,2.734-.679A4.574,4.574,0,0,1,20.449-9.38a5.43,5.43,0,0,1,1.289,3.853v1.279H15.2a2.372,2.372,0,0,0,.771,1.4,2.3,2.3,0,0,0,1.543.508,2.958,2.958,0,0,0,2.441-1.094l1.5,1.777A4.2,4.2,0,0,1,19.712-.308,5.891,5.891,0,0,1,17.285.2Zm-.371-8.418q-1.445,0-1.719,1.914h3.32v-.254a1.63,1.63,0,0,0-.4-1.226A1.593,1.593,0,0,0,16.914-8.223ZM26.533,0h-3.3V-15h3.3ZM43.35-5.2A6.44,6.44,0,0,1,42.275-1.2,3.6,3.6,0,0,1,39.248.2a3.122,3.122,0,0,1-2.6-1.279L36.514,0H33.564V-15h3.291v5.283a3.013,3.013,0,0,1,2.373-1.045,3.6,3.6,0,0,1,3.047,1.416A6.473,6.473,0,0,1,43.35-5.361Zm-3.3-.21a4.3,4.3,0,0,0-.405-2.169A1.366,1.366,0,0,0,38.4-8.223a1.576,1.576,0,0,0-1.543.848v4.192a1.585,1.585,0,0,0,1.563.838,1.4,1.4,0,0,0,1.475-1.131A8.121,8.121,0,0,0,40.049-5.405ZM51.094-1.143A3.393,3.393,0,0,1,48.271.2,3.328,3.328,0,0,1,45.64-.815a4.251,4.251,0,0,1-.894-2.905v-6.846h3.291V-3.7a1.183,1.183,0,0,0,1.318,1.357,1.72,1.72,0,0,0,1.611-.811v-7.412h3.311V0H51.191ZM61.611-2.969a.76.76,0,0,0-.439-.674A6.685,6.685,0,0,0,59.5-4.17a7.615,7.615,0,0,1-2.031-.718A3.4,3.4,0,0,1,56.25-5.967a2.577,2.577,0,0,1-.42-1.455,2.92,2.92,0,0,1,1.2-2.4,4.948,4.948,0,0,1,3.145-.942,5.482,5.482,0,0,1,3.359.947,2.962,2.962,0,0,1,1.27,2.49H61.5q0-1.27-1.338-1.27a1.326,1.326,0,0,0-.869.288.892.892,0,0,0-.352.718.819.819,0,0,0,.43.713,4.06,4.06,0,0,0,1.372.449,11.857,11.857,0,0,1,1.655.42,3.007,3.007,0,0,1,2.383,2.939A2.767,2.767,0,0,1,63.5-.713,5.632,5.632,0,0,1,60.176.2a5.747,5.747,0,0,1-2.422-.488,4.05,4.05,0,0,1-1.66-1.328,3.007,3.007,0,0,1-.6-1.768h3.076a1.272,1.272,0,0,0,.488,1.069,2.009,2.009,0,0,0,1.2.337,1.58,1.58,0,0,0,1.011-.273A.875.875,0,0,0,61.611-2.969Zm8.545-10.225v2.627h1.738v2.285H70.156v4.834a1.234,1.234,0,0,0,.215.83,1.152,1.152,0,0,0,.85.234,4.828,4.828,0,0,0,.82-.059V-.088A6.074,6.074,0,0,1,70.186.2a3.448,3.448,0,0,1-2.51-.8,3.282,3.282,0,0,1-.811-2.432V-8.281H65.518v-2.285h1.348v-2.627ZM72.48-5.381A6.236,6.236,0,0,1,73.1-8.2a4.4,4.4,0,0,1,1.768-1.9,5.323,5.323,0,0,1,2.705-.664,4.858,4.858,0,0,1,3.74,1.47,5.64,5.64,0,0,1,1.367,4v.117A5.472,5.472,0,0,1,81.3-1.255,4.871,4.871,0,0,1,77.588.2a4.927,4.927,0,0,1-3.623-1.353A5.29,5.29,0,0,1,72.49-4.824Zm3.291.205a3.932,3.932,0,0,0,.459,2.148,1.529,1.529,0,0,0,1.357.684q1.758,0,1.8-2.705v-.332q0-2.842-1.816-2.842-1.65,0-1.787,2.451Z" transform="translate(1263.835 3690.689)" fill="#12263f"/>
                                </g>
                              </g>
                            </g>
                          </g>
                        </g>
                      </g>
                    </g>
                  </g>
                </g>
              </g>
            </g>
          </g>
        </g>
      </g>
    </g>
  </g>
</svg>
