<svg xmlns="http://www.w3.org/2000/svg" xmlns:xlink="http://www.w3.org/1999/xlink" width="741.616" height="257.633" viewBox="0 0 741.616 257.633">
  <defs>
    <clipPath id="clip-path">
      <rect id="Rectángulo_461791" data-name="Rectángulo 461791" width="741.616" height="257.633" fill="none"/>
    </clipPath>
  </defs>
  <g id="Grupo_1195822" data-name="Grupo 1195822" transform="translate(-428.711 -4263)">
    <path id="Trazado_1016851" data-name="Trazado 1016851" d="M15.938-11.3a22.011,22.011,0,0,1-.508,4.984,11.614,11.614,0,0,1-1.469,3.664A6.61,6.61,0,0,1,11.6-.383a6.459,6.459,0,0,1-3.18.773A6.032,6.032,0,0,1,5.414-.352,6.3,6.3,0,0,1,3.188-2.516,10.968,10.968,0,0,1,1.813-6.008a21.594,21.594,0,0,1-.469-4.742,24.443,24.443,0,0,1,.492-5.187,11.865,11.865,0,0,1,1.445-3.773,6.433,6.433,0,0,1,2.367-2.3,6.646,6.646,0,0,1,3.242-.773Q15.937-22.781,15.938-11.3Zm-2.625.25q0-9.562-4.547-9.562-4.8,0-4.8,9.734,0,9.078,4.7,9.078Q13.312-1.8,13.313-11.047ZM40.063,0H37.5V-2.5h-.062A5.365,5.365,0,0,1,32.516.375,5.26,5.26,0,0,1,28.773-.891,4.385,4.385,0,0,1,27.422-4.25q0-4.484,5.281-5.219l4.8-.672q0-4.078-3.3-4.078a7.877,7.877,0,0,0-5.219,1.969v-2.625a9.915,9.915,0,0,1,5.438-1.5q5.641,0,5.641,5.969ZM37.5-8.094l-3.859.531a6.266,6.266,0,0,0-2.687.883,2.546,2.546,0,0,0-.906,2.242,2.442,2.442,0,0,0,.836,1.914,3.23,3.23,0,0,0,2.227.742,4.113,4.113,0,0,0,3.148-1.336A4.773,4.773,0,0,0,37.5-6.5ZM62.375,0H59.813V-19.359a5.931,5.931,0,0,1-.867.68,14.135,14.135,0,0,1-1.281.758q-.711.375-1.5.7a10.9,10.9,0,0,1-1.539.516V-19.3a14.9,14.9,0,0,0,1.789-.633q.945-.4,1.859-.891T60-21.852a13.707,13.707,0,0,0,1.406-1.055h.969Zm18-16.531a4.633,4.633,0,0,0-.32-1.8A3.559,3.559,0,0,0,79.18-19.6a3.585,3.585,0,0,0-1.3-.758,5.109,5.109,0,0,0-1.625-.25,5.375,5.375,0,0,0-1.469.2,7.14,7.14,0,0,0-1.4.563,8.6,8.6,0,0,0-1.312.859,9.481,9.481,0,0,0-1.18,1.109v-2.75a7.661,7.661,0,0,1,2.414-1.6,8.5,8.5,0,0,1,3.258-.555,7.865,7.865,0,0,1,2.547.4,5.839,5.839,0,0,1,2.031,1.164,5.381,5.381,0,0,1,1.352,1.891,6.377,6.377,0,0,1,.492,2.578,8.841,8.841,0,0,1-.3,2.406,7.441,7.441,0,0,1-.922,2.031A9.8,9.8,0,0,1,80.2-10.484,22.022,22.022,0,0,1,78-8.7q-1.578,1.125-2.6,1.922a11.5,11.5,0,0,0-1.625,1.492A4.33,4.33,0,0,0,72.93-3.9a4.861,4.861,0,0,0-.242,1.6H83.844V0H70.016V-1.109a9.245,9.245,0,0,1,.313-2.531,6.573,6.573,0,0,1,1.031-2.078,11.533,11.533,0,0,1,1.883-1.969q1.164-.984,2.852-2.219a18.028,18.028,0,0,0,2.039-1.672,8.692,8.692,0,0,0,1.32-1.594,5.724,5.724,0,0,0,.711-1.617A6.973,6.973,0,0,0,80.375-16.531ZM119.641,0h-2.562V-9.187a6.931,6.931,0,0,0-.82-3.844,3.111,3.111,0,0,0-2.758-1.187,3.415,3.415,0,0,0-2.789,1.5,5.738,5.738,0,0,0-1.148,3.594V0H107V-9.5q0-4.719-3.641-4.719a3.372,3.372,0,0,0-2.781,1.414,5.845,5.845,0,0,0-1.094,3.68V0H96.922V-16h2.563v2.531h.063a5.436,5.436,0,0,1,4.969-2.906,4.633,4.633,0,0,1,2.859.914,4.6,4.6,0,0,1,1.672,2.4,5.71,5.71,0,0,1,5.313-3.312q5.281,0,5.281,6.516Zm17.7-7.359h-11.3a5.984,5.984,0,0,0,1.438,4.125,4.956,4.956,0,0,0,3.781,1.453,7.862,7.862,0,0,0,4.969-1.781v2.406A9.286,9.286,0,0,1,130.656.375a6.763,6.763,0,0,1-5.328-2.18,8.922,8.922,0,0,1-1.937-6.133,8.749,8.749,0,0,1,2.117-6.086,6.789,6.789,0,0,1,5.258-2.352,6.015,6.015,0,0,1,4.859,2.031A8.469,8.469,0,0,1,137.344-8.7Zm-2.625-2.172a5.214,5.214,0,0,0-1.07-3.453,3.647,3.647,0,0,0-2.93-1.234,4.139,4.139,0,0,0-3.078,1.3,5.885,5.885,0,0,0-1.562,3.391ZM140.25-.578v-2.75a7.583,7.583,0,0,0,4.609,1.547q3.375,0,3.375-2.25a1.952,1.952,0,0,0-.289-1.086,2.881,2.881,0,0,0-.781-.789,6.014,6.014,0,0,0-1.156-.617q-.664-.273-1.43-.57a18.413,18.413,0,0,1-1.867-.852,5.641,5.641,0,0,1-1.344-.969,3.6,3.6,0,0,1-.812-1.227,4.339,4.339,0,0,1-.273-1.609,3.823,3.823,0,0,1,.516-1.992,4.572,4.572,0,0,1,1.375-1.453,6.412,6.412,0,0,1,1.961-.883,8.7,8.7,0,0,1,2.273-.3,9.18,9.18,0,0,1,3.719.719v2.594a7.247,7.247,0,0,0-4.062-1.156,4.749,4.749,0,0,0-1.3.164,3.175,3.175,0,0,0-.992.461,2.129,2.129,0,0,0-.641.711,1.873,1.873,0,0,0-.227.914,2.192,2.192,0,0,0,.227,1.047,2.3,2.3,0,0,0,.664.75,5.076,5.076,0,0,0,1.063.594q.625.266,1.422.578a19.79,19.79,0,0,1,1.906.836,6.538,6.538,0,0,1,1.438.969,3.786,3.786,0,0,1,.914,1.242,4.006,4.006,0,0,1,.32,1.672,3.942,3.942,0,0,1-.523,2.063,4.486,4.486,0,0,1-1.4,1.453,6.4,6.4,0,0,1-2.016.859,9.952,9.952,0,0,1-2.391.281A9.078,9.078,0,0,1,140.25-.578Zm27.406-6.781h-11.3A5.984,5.984,0,0,0,157.8-3.234a4.956,4.956,0,0,0,3.781,1.453,7.862,7.862,0,0,0,4.969-1.781v2.406A9.286,9.286,0,0,1,160.969.375a6.763,6.763,0,0,1-5.328-2.18A8.921,8.921,0,0,1,153.7-7.937a8.749,8.749,0,0,1,2.117-6.086,6.789,6.789,0,0,1,5.258-2.352,6.015,6.015,0,0,1,4.859,2.031A8.469,8.469,0,0,1,167.656-8.7Zm-2.625-2.172a5.214,5.214,0,0,0-1.07-3.453,3.647,3.647,0,0,0-2.93-1.234,4.139,4.139,0,0,0-3.078,1.3,5.885,5.885,0,0,0-1.562,3.391Zm5.531,8.953v-2.75a7.583,7.583,0,0,0,4.609,1.547q3.375,0,3.375-2.25a1.952,1.952,0,0,0-.289-1.086,2.881,2.881,0,0,0-.781-.789,6.014,6.014,0,0,0-1.156-.617q-.664-.273-1.43-.57a18.413,18.413,0,0,1-1.867-.852,5.641,5.641,0,0,1-1.344-.969,3.6,3.6,0,0,1-.812-1.227,4.339,4.339,0,0,1-.273-1.609,3.823,3.823,0,0,1,.516-1.992,4.572,4.572,0,0,1,1.375-1.453,6.412,6.412,0,0,1,1.961-.883,8.7,8.7,0,0,1,2.273-.3,9.18,9.18,0,0,1,3.719.719v2.594a7.247,7.247,0,0,0-4.062-1.156,4.749,4.749,0,0,0-1.3.164,3.175,3.175,0,0,0-.992.461,2.129,2.129,0,0,0-.641.711,1.873,1.873,0,0,0-.227.914,2.192,2.192,0,0,0,.227,1.047,2.3,2.3,0,0,0,.664.75,5.076,5.076,0,0,0,1.063.594q.625.266,1.422.578a19.79,19.79,0,0,1,1.906.836,6.538,6.538,0,0,1,1.438.969,3.786,3.786,0,0,1,.914,1.242,4.006,4.006,0,0,1,.32,1.672,3.942,3.942,0,0,1-.523,2.063,4.486,4.486,0,0,1-1.4,1.453,6.4,6.4,0,0,1-2.016.859,9.952,9.952,0,0,1-2.391.281A9.078,9.078,0,0,1,170.563-.578Z" transform="translate(499.079 4333.669)" fill="#334155"/>
    <path id="Trazado_1016852" data-name="Trazado 1016852" d="M11.313,0H8.75V-19.359a5.931,5.931,0,0,1-.867.68,14.135,14.135,0,0,1-1.281.758q-.711.375-1.5.7a10.9,10.9,0,0,1-1.539.516V-19.3a14.9,14.9,0,0,0,1.789-.633q.945-.4,1.859-.891t1.727-1.031a13.707,13.707,0,0,0,1.406-1.055h.969Zm28.75,0H37.5V-2.5h-.062A5.365,5.365,0,0,1,32.516.375,5.26,5.26,0,0,1,28.773-.891,4.385,4.385,0,0,1,27.422-4.25q0-4.484,5.281-5.219l4.8-.672q0-4.078-3.3-4.078a7.877,7.877,0,0,0-5.219,1.969v-2.625a9.915,9.915,0,0,1,5.438-1.5q5.641,0,5.641,5.969ZM37.5-8.094l-3.859.531a6.266,6.266,0,0,0-2.687.883,2.546,2.546,0,0,0-.906,2.242,2.442,2.442,0,0,0,.836,1.914,3.23,3.23,0,0,0,2.227.742,4.113,4.113,0,0,0,3.148-1.336A4.773,4.773,0,0,0,37.5-6.5ZM62.375,0H59.813V-19.359a5.931,5.931,0,0,1-.867.68,14.135,14.135,0,0,1-1.281.758q-.711.375-1.5.7a10.9,10.9,0,0,1-1.539.516V-19.3a14.9,14.9,0,0,0,1.789-.633q.945-.4,1.859-.891T60-21.852a13.707,13.707,0,0,0,1.406-1.055h.969ZM81.594-22.406v14.8h2.875v2.344H81.594V0H79.063V-5.266H68.531V-7.484Q70-9.141,71.5-11.023t2.867-3.82q1.367-1.937,2.531-3.867a35.343,35.343,0,0,0,1.961-3.7ZM71.422-7.609h7.641V-18.578q-1.172,2.047-2.219,3.656T74.852-12q-.945,1.313-1.8,2.375T71.422-7.609ZM108.375,0h-2.562V-2.5h-.062A5.365,5.365,0,0,1,100.828.375,5.26,5.26,0,0,1,97.086-.891,4.385,4.385,0,0,1,95.734-4.25q0-4.484,5.281-5.219l4.8-.672q0-4.078-3.3-4.078A7.877,7.877,0,0,0,97.3-12.25v-2.625a9.915,9.915,0,0,1,5.438-1.5q5.641,0,5.641,5.969Zm-2.562-8.094-3.859.531a6.266,6.266,0,0,0-2.687.883,2.546,2.546,0,0,0-.906,2.242A2.442,2.442,0,0,0,99.2-2.523a3.23,3.23,0,0,0,2.227.742,4.113,4.113,0,0,0,3.148-1.336A4.773,4.773,0,0,0,105.813-6.5ZM126.484,0h-2.562V-9.125q0-5.094-3.719-5.094a4.034,4.034,0,0,0-3.18,1.445,5.357,5.357,0,0,0-1.258,3.648V0H113.2V-16h2.563v2.656h.063a5.775,5.775,0,0,1,5.25-3.031,4.9,4.9,0,0,1,4.016,1.7,7.552,7.552,0,0,1,1.391,4.9ZM124.8-22.781a4.469,4.469,0,0,1-.75,2.68,2.376,2.376,0,0,1-2.031,1.039,5.243,5.243,0,0,1-2.531-.812,4.287,4.287,0,0,0-1.859-.672q-1.375,0-1.375,1.766h-1.469a4.383,4.383,0,0,1,.75-2.68,2.461,2.461,0,0,1,2.094-1.008,4.572,4.572,0,0,1,2.328.813,4.086,4.086,0,0,0,2,.688q1.313,0,1.313-1.812ZM138,.375a7.422,7.422,0,0,1-5.664-2.242,8.305,8.305,0,0,1-2.117-5.945,8.652,8.652,0,0,1,2.2-6.3,7.92,7.92,0,0,1,5.953-2.266,7.176,7.176,0,0,1,5.586,2.2,8.735,8.735,0,0,1,2.008,6.109A8.6,8.6,0,0,1,143.8-1.93,7.583,7.583,0,0,1,138,.375Zm.188-14.594a4.874,4.874,0,0,0-3.906,1.68,6.9,6.9,0,0,0-1.437,4.633A6.524,6.524,0,0,0,134.3-3.422a4.939,4.939,0,0,0,3.891,1.641,4.685,4.685,0,0,0,3.82-1.609,6.984,6.984,0,0,0,1.336-4.578,7.1,7.1,0,0,0-1.336-4.625A4.664,4.664,0,0,0,138.188-14.219ZM149.094-.578v-2.75A7.583,7.583,0,0,0,153.7-1.781q3.375,0,3.375-2.25a1.952,1.952,0,0,0-.289-1.086,2.881,2.881,0,0,0-.781-.789,6.014,6.014,0,0,0-1.156-.617q-.664-.273-1.43-.57a18.413,18.413,0,0,1-1.867-.852,5.641,5.641,0,0,1-1.344-.969,3.6,3.6,0,0,1-.812-1.227,4.339,4.339,0,0,1-.273-1.609,3.823,3.823,0,0,1,.516-1.992,4.572,4.572,0,0,1,1.375-1.453,6.412,6.412,0,0,1,1.961-.883,8.7,8.7,0,0,1,2.273-.3,9.18,9.18,0,0,1,3.719.719v2.594a7.247,7.247,0,0,0-4.062-1.156,4.749,4.749,0,0,0-1.3.164,3.175,3.175,0,0,0-.992.461,2.129,2.129,0,0,0-.641.711,1.873,1.873,0,0,0-.227.914,2.192,2.192,0,0,0,.227,1.047,2.3,2.3,0,0,0,.664.75,5.076,5.076,0,0,0,1.063.594q.625.266,1.422.578a19.79,19.79,0,0,1,1.906.836,6.538,6.538,0,0,1,1.438.969,3.786,3.786,0,0,1,.914,1.242,4.006,4.006,0,0,1,.32,1.672,3.942,3.942,0,0,1-.523,2.063,4.486,4.486,0,0,1-1.4,1.453,6.4,6.4,0,0,1-2.016.859,9.952,9.952,0,0,1-2.391.281A9.078,9.078,0,0,1,149.094-.578Z" transform="translate(499.079 4378.661)" fill="#334155"/>
    <path id="Trazado_1016853" data-name="Trazado 1016853" d="M11.313,0H8.75V-19.359a5.931,5.931,0,0,1-.867.68,14.135,14.135,0,0,1-1.281.758q-.711.375-1.5.7a10.9,10.9,0,0,1-1.539.516V-19.3a14.9,14.9,0,0,0,1.789-.633q.945-.4,1.859-.891t1.727-1.031a13.707,13.707,0,0,0,1.406-1.055h.969ZM32.391-6.844a7.541,7.541,0,0,1-.562,2.969,6.491,6.491,0,0,1-1.6,2.281A7.171,7.171,0,0,1,27.719-.125a9.808,9.808,0,0,1-3.266.516,9.021,9.021,0,0,1-4.641-.937V-3.266A8.533,8.533,0,0,0,24.484-1.8a6.322,6.322,0,0,0,2.2-.359,4.878,4.878,0,0,0,1.664-1A4.282,4.282,0,0,0,29.4-4.7a5.236,5.236,0,0,0,.367-1.984,4.251,4.251,0,0,0-1.469-3.43,6.441,6.441,0,0,0-4.266-1.242q-.453,0-.953.016t-1,.039q-.5.023-.977.055t-.867.078L21-22.406H31.359v2.313H23.219l-.453,6.578q.5-.031,1.063-.055t1-.023a10.056,10.056,0,0,1,3.188.469A6.753,6.753,0,0,1,30.4-11.789a5.6,5.6,0,0,1,1.484,2.125A7.474,7.474,0,0,1,32.391-6.844ZM57.313,0H54.75V-2.5h-.062A5.365,5.365,0,0,1,49.766.375,5.26,5.26,0,0,1,46.023-.891,4.385,4.385,0,0,1,44.672-4.25q0-4.484,5.281-5.219l4.8-.672q0-4.078-3.3-4.078a7.877,7.877,0,0,0-5.219,1.969v-2.625a9.915,9.915,0,0,1,5.438-1.5q5.641,0,5.641,5.969ZM54.75-8.094l-3.859.531A6.266,6.266,0,0,0,48.2-6.68,2.546,2.546,0,0,0,47.3-4.437a2.442,2.442,0,0,0,.836,1.914,3.23,3.23,0,0,0,2.227.742,4.113,4.113,0,0,0,3.148-1.336A4.773,4.773,0,0,0,54.75-6.5ZM79.625,0H77.063V-19.359a5.931,5.931,0,0,1-.867.68,14.135,14.135,0,0,1-1.281.758q-.711.375-1.5.7a10.9,10.9,0,0,1-1.539.516V-19.3a14.9,14.9,0,0,0,1.789-.633q.945-.4,1.859-.891t1.727-1.031a13.708,13.708,0,0,0,1.406-1.055h.969Zm21.719-20.922q-.516.891-1.242,2.219t-1.539,2.984q-.812,1.656-1.656,3.563T95.328-8.219Q94.594-6.187,94.039-4.1a30.63,30.63,0,0,0-.8,4.1h-2.75a31.158,31.158,0,0,1,.867-4.086q.586-2.086,1.328-4.094t1.57-3.867q.828-1.859,1.609-3.422t1.43-2.758q.648-1.2,1.039-1.867H87.094v-2.312h14.25ZM125.625,0h-2.562V-2.5H123A5.365,5.365,0,0,1,118.078.375a5.26,5.26,0,0,1-3.742-1.266,4.385,4.385,0,0,1-1.352-3.359q0-4.484,5.281-5.219l4.8-.672q0-4.078-3.3-4.078a7.877,7.877,0,0,0-5.219,1.969v-2.625a9.915,9.915,0,0,1,5.438-1.5q5.641,0,5.641,5.969Zm-2.562-8.094-3.859.531a6.266,6.266,0,0,0-2.687.883,2.546,2.546,0,0,0-.906,2.242,2.442,2.442,0,0,0,.836,1.914,3.23,3.23,0,0,0,2.227.742,4.113,4.113,0,0,0,3.148-1.336A4.773,4.773,0,0,0,123.063-6.5ZM143.734,0h-2.562V-9.125q0-5.094-3.719-5.094a4.034,4.034,0,0,0-3.18,1.445,5.357,5.357,0,0,0-1.258,3.648V0h-2.562V-16h2.563v2.656h.063a5.775,5.775,0,0,1,5.25-3.031,4.9,4.9,0,0,1,4.016,1.7,7.552,7.552,0,0,1,1.391,4.9Zm-1.687-22.781a4.469,4.469,0,0,1-.75,2.68,2.376,2.376,0,0,1-2.031,1.039,5.243,5.243,0,0,1-2.531-.812,4.287,4.287,0,0,0-1.859-.672q-1.375,0-1.375,1.766h-1.469a4.383,4.383,0,0,1,.75-2.68,2.461,2.461,0,0,1,2.094-1.008,4.572,4.572,0,0,1,2.328.813,4.086,4.086,0,0,0,2,.688q1.313,0,1.313-1.812ZM155.25.375a7.422,7.422,0,0,1-5.664-2.242,8.305,8.305,0,0,1-2.117-5.945,8.652,8.652,0,0,1,2.2-6.3,7.92,7.92,0,0,1,5.953-2.266,7.176,7.176,0,0,1,5.586,2.2,8.735,8.735,0,0,1,2.008,6.109,8.6,8.6,0,0,1-2.164,6.133A7.583,7.583,0,0,1,155.25.375Zm.188-14.594a4.874,4.874,0,0,0-3.906,1.68,6.9,6.9,0,0,0-1.437,4.633,6.524,6.524,0,0,0,1.453,4.484,4.939,4.939,0,0,0,3.891,1.641,4.685,4.685,0,0,0,3.82-1.609,6.984,6.984,0,0,0,1.336-4.578,7.1,7.1,0,0,0-1.336-4.625A4.664,4.664,0,0,0,155.438-14.219ZM166.344-.578v-2.75a7.583,7.583,0,0,0,4.609,1.547q3.375,0,3.375-2.25a1.952,1.952,0,0,0-.289-1.086,2.881,2.881,0,0,0-.781-.789,6.014,6.014,0,0,0-1.156-.617q-.664-.273-1.43-.57a18.413,18.413,0,0,1-1.867-.852,5.641,5.641,0,0,1-1.344-.969,3.6,3.6,0,0,1-.812-1.227,4.339,4.339,0,0,1-.273-1.609,3.823,3.823,0,0,1,.516-1.992,4.572,4.572,0,0,1,1.375-1.453,6.412,6.412,0,0,1,1.961-.883,8.7,8.7,0,0,1,2.273-.3,9.18,9.18,0,0,1,3.719.719v2.594a7.247,7.247,0,0,0-4.062-1.156,4.749,4.749,0,0,0-1.3.164,3.175,3.175,0,0,0-.992.461,2.129,2.129,0,0,0-.641.711,1.873,1.873,0,0,0-.227.914,2.192,2.192,0,0,0,.227,1.047,2.3,2.3,0,0,0,.664.75,5.076,5.076,0,0,0,1.063.594q.625.266,1.422.578a19.79,19.79,0,0,1,1.906.836,6.538,6.538,0,0,1,1.438.969,3.786,3.786,0,0,1,.914,1.242,4.006,4.006,0,0,1,.32,1.672,3.942,3.942,0,0,1-.523,2.063,4.486,4.486,0,0,1-1.4,1.453,6.4,6.4,0,0,1-2.016.859,9.952,9.952,0,0,1-2.391.281A9.078,9.078,0,0,1,166.344-.578Z" transform="translate(499.079 4423.653)" fill="#334155"/>
    <path id="Trazado_1016854" data-name="Trazado 1016854" d="M20.281,0H17.375L15-6.281H5.5L3.266,0H.344L8.938-22.406h2.719ZM14.141-8.641l-3.516-9.547a9.141,9.141,0,0,1-.344-1.5h-.062a8.369,8.369,0,0,1-.359,1.5L6.375-8.641ZM34.625-2.312h-.062V7.359H32V-16h2.563v2.813h.063a6.059,6.059,0,0,1,5.531-3.187,5.859,5.859,0,0,1,4.828,2.148,8.9,8.9,0,0,1,1.734,5.758,9.917,9.917,0,0,1-1.953,6.43A6.5,6.5,0,0,1,39.422.375,5.353,5.353,0,0,1,34.625-2.312Zm-.062-6.453v2.234a4.757,4.757,0,0,0,1.289,3.367,4.28,4.28,0,0,0,3.273,1.383,4.289,4.289,0,0,0,3.648-1.781,8.172,8.172,0,0,0,1.32-4.953A6.451,6.451,0,0,0,42.859-12.7a4.085,4.085,0,0,0-3.344-1.516,4.54,4.54,0,0,0-3.594,1.555A5.708,5.708,0,0,0,34.563-8.766ZM62.266,0H59.7V-2.5h-.062A5.365,5.365,0,0,1,54.719.375,5.26,5.26,0,0,1,50.977-.891,4.385,4.385,0,0,1,49.625-4.25q0-4.484,5.281-5.219l4.8-.672q0-4.078-3.3-4.078a7.877,7.877,0,0,0-5.219,1.969v-2.625a9.915,9.915,0,0,1,5.438-1.5q5.641,0,5.641,5.969ZM59.7-8.094l-3.859.531a6.266,6.266,0,0,0-2.687.883,2.546,2.546,0,0,0-.906,2.242,2.442,2.442,0,0,0,.836,1.914,3.23,3.23,0,0,0,2.227.742,4.113,4.113,0,0,0,3.148-1.336A4.773,4.773,0,0,0,59.7-6.5Zm15.734-5.312a3.133,3.133,0,0,0-1.937-.516,3.27,3.27,0,0,0-2.742,1.547,7.152,7.152,0,0,0-1.1,4.219V0H67.094V-16h2.563v3.3h.063a5.587,5.587,0,0,1,1.672-2.633,3.812,3.812,0,0,1,2.516-.945,4.183,4.183,0,0,1,1.531.219ZM85.9-.156a4.941,4.941,0,0,1-2.391.5q-4.2,0-4.2-4.687v-9.469h-2.75V-16H79.3v-3.906l2.563-.828V-16H85.9v2.188H81.865V-4.8a3.737,3.737,0,0,0,.547,2.3,2.182,2.182,0,0,0,1.813.688A2.694,2.694,0,0,0,85.9-2.344Zm4.734-19.906a1.624,1.624,0,0,1-1.172-.469,1.582,1.582,0,0,1-.484-1.187,1.608,1.608,0,0,1,.484-1.2,1.61,1.61,0,0,1,1.172-.477,1.655,1.655,0,0,1,1.2.477,1.6,1.6,0,0,1,.492,1.2,1.584,1.584,0,0,1-.492,1.172A1.641,1.641,0,0,1,90.631-20.062ZM91.881,0H89.318V-16h2.563Zm13.531-13.406a3.133,3.133,0,0,0-1.937-.516,3.27,3.27,0,0,0-2.742,1.547,7.152,7.152,0,0,0-1.1,4.219V0H97.068V-16h2.563v3.3h.063a5.587,5.587,0,0,1,1.672-2.633,3.812,3.812,0,0,1,2.516-.945,4.183,4.183,0,0,1,1.531.219ZM130.615,0h-2.562V-2.719h-.062a5.915,5.915,0,0,1-5.5,3.094,5.976,5.976,0,0,1-4.82-2.148,8.814,8.814,0,0,1-1.8-5.852,9.589,9.589,0,0,1,2-6.359,6.6,6.6,0,0,1,5.328-2.391,5.129,5.129,0,0,1,4.8,2.594h.062v-9.906h2.563Zm-2.562-7.234V-9.594a4.577,4.577,0,0,0-1.281-3.281,4.3,4.3,0,0,0-3.25-1.344,4.425,4.425,0,0,0-3.687,1.719,7.532,7.532,0,0,0-1.344,4.75,6.774,6.774,0,0,0,1.289,4.367,4.213,4.213,0,0,0,3.461,1.6,4.377,4.377,0,0,0,3.477-1.547A5.763,5.763,0,0,0,128.053-7.234Zm20.609-.125h-11.3A5.984,5.984,0,0,0,138.8-3.234a4.956,4.956,0,0,0,3.781,1.453,7.862,7.862,0,0,0,4.969-1.781v2.406A9.286,9.286,0,0,1,141.975.375a6.763,6.763,0,0,1-5.328-2.18,8.921,8.921,0,0,1-1.937-6.133,8.749,8.749,0,0,1,2.117-6.086,6.789,6.789,0,0,1,5.258-2.352,6.015,6.015,0,0,1,4.859,2.031A8.469,8.469,0,0,1,148.662-8.7Zm-2.625-2.172a5.214,5.214,0,0,0-1.07-3.453,3.647,3.647,0,0,0-2.93-1.234,4.139,4.139,0,0,0-3.078,1.3A5.885,5.885,0,0,0,137.4-9.531ZM163.865,0H161.3V-23.687h2.563ZM175.74.375a7.422,7.422,0,0,1-5.664-2.242,8.305,8.305,0,0,1-2.117-5.945,8.652,8.652,0,0,1,2.2-6.3,7.92,7.92,0,0,1,5.953-2.266,7.176,7.176,0,0,1,5.586,2.2,8.735,8.735,0,0,1,2.008,6.109,8.6,8.6,0,0,1-2.164,6.133A7.583,7.583,0,0,1,175.74.375Zm.188-14.594a4.874,4.874,0,0,0-3.906,1.68,6.9,6.9,0,0,0-1.437,4.633,6.524,6.524,0,0,0,1.453,4.484,4.939,4.939,0,0,0,3.891,1.641,4.685,4.685,0,0,0,3.82-1.609,6.984,6.984,0,0,0,1.336-4.578,7.1,7.1,0,0,0-1.336-4.625A4.664,4.664,0,0,0,175.928-14.219ZM186.834-.578v-2.75a7.583,7.583,0,0,0,4.609,1.547q3.375,0,3.375-2.25a1.952,1.952,0,0,0-.289-1.086,2.881,2.881,0,0,0-.781-.789,6.014,6.014,0,0,0-1.156-.617q-.664-.273-1.43-.57a18.413,18.413,0,0,1-1.867-.852,5.641,5.641,0,0,1-1.344-.969,3.6,3.6,0,0,1-.812-1.227,4.339,4.339,0,0,1-.273-1.609,3.823,3.823,0,0,1,.516-1.992,4.572,4.572,0,0,1,1.375-1.453,6.412,6.412,0,0,1,1.961-.883,8.7,8.7,0,0,1,2.273-.3,9.18,9.18,0,0,1,3.719.719v2.594a7.247,7.247,0,0,0-4.062-1.156,4.749,4.749,0,0,0-1.3.164,3.175,3.175,0,0,0-.992.461,2.129,2.129,0,0,0-.641.711,1.873,1.873,0,0,0-.227.914,2.192,2.192,0,0,0,.227,1.047,2.3,2.3,0,0,0,.664.75,5.076,5.076,0,0,0,1.063.594q.625.266,1.422.578a19.79,19.79,0,0,1,1.906.836,6.538,6.538,0,0,1,1.438.969,3.786,3.786,0,0,1,.914,1.242,4.006,4.006,0,0,1,.32,1.672,3.942,3.942,0,0,1-.523,2.063,4.486,4.486,0,0,1-1.4,1.453,6.4,6.4,0,0,1-2.016.859,9.952,9.952,0,0,1-2.391.281A9.078,9.078,0,0,1,186.834-.578ZM218.865,0H216.3V-19.359a5.932,5.932,0,0,1-.867.68,14.135,14.135,0,0,1-1.281.758q-.711.375-1.5.7a10.9,10.9,0,0,1-1.539.516V-19.3a14.9,14.9,0,0,0,1.789-.633q.945-.4,1.859-.891t1.727-1.031a13.706,13.706,0,0,0,1.406-1.055h.969Zm7.344-6.25a5.962,5.962,0,0,1,.281-1.789,6.48,6.48,0,0,1,.8-1.68,6.659,6.659,0,0,1,1.3-1.422,6.183,6.183,0,0,1,1.758-1.016,6.643,6.643,0,0,1-2.312-2.086,4.933,4.933,0,0,1-.859-2.82,5.441,5.441,0,0,1,.477-2.281,5.5,5.5,0,0,1,1.32-1.812,6.1,6.1,0,0,1,2-1.2,7.121,7.121,0,0,1,2.5-.43,7.052,7.052,0,0,1,2.516.438,6.211,6.211,0,0,1,2,1.2,5.4,5.4,0,0,1,1.313,1.813,5.48,5.48,0,0,1,.469,2.266,4.933,4.933,0,0,1-.859,2.82,6.726,6.726,0,0,1-2.281,2.086,6.127,6.127,0,0,1,1.734,1.016,6.757,6.757,0,0,1,1.289,1.422,6.48,6.48,0,0,1,.8,1.68,5.962,5.962,0,0,1,.281,1.789,6.654,6.654,0,0,1-.531,2.688,6.005,6.005,0,0,1-1.492,2.086,6.889,6.889,0,0,1-2.3,1.352,8.585,8.585,0,0,1-2.945.484,8.471,8.471,0,0,1-2.922-.484,6.994,6.994,0,0,1-2.3-1.352,6.046,6.046,0,0,1-1.508-2.086A6.571,6.571,0,0,1,226.209-6.25Zm2.781-.219a5.293,5.293,0,0,0,.32,1.891,4.076,4.076,0,0,0,.906,1.438,3.956,3.956,0,0,0,1.422.914,5.137,5.137,0,0,0,1.852.32,4.878,4.878,0,0,0,1.813-.328,4.224,4.224,0,0,0,1.43-.922,4.145,4.145,0,0,0,.938-1.437,5.028,5.028,0,0,0,.336-1.875,4.79,4.79,0,0,0-.32-1.758,4.4,4.4,0,0,0-.914-1.445,4.294,4.294,0,0,0-1.422-.984,4.625,4.625,0,0,0-1.859-.359,4.676,4.676,0,0,0-1.789.336,4.281,4.281,0,0,0-1.422.938,4.342,4.342,0,0,0-.945,1.438A4.782,4.782,0,0,0,228.99-6.469Zm.8-10.391a3.734,3.734,0,0,0,.289,1.477,3.72,3.72,0,0,0,.8,1.188,3.744,3.744,0,0,0,1.18.8,3.6,3.6,0,0,0,1.438.289,3.571,3.571,0,0,0,1.445-.3,3.735,3.735,0,0,0,1.18-.8,3.9,3.9,0,0,0,.8-1.187,3.61,3.61,0,0,0,.3-1.461,3.831,3.831,0,0,0-.289-1.5,3.671,3.671,0,0,0-.789-1.187,3.693,3.693,0,0,0-1.18-.789,3.694,3.694,0,0,0-1.461-.289,3.728,3.728,0,0,0-1.508.3,3.643,3.643,0,0,0-1.172.8,3.518,3.518,0,0,0-.758,1.2A4.04,4.04,0,0,0,229.787-16.859ZM264.865,0H262.3V-2.5h-.062A5.365,5.365,0,0,1,257.318.375a5.26,5.26,0,0,1-3.742-1.266,4.385,4.385,0,0,1-1.352-3.359q0-4.484,5.281-5.219l4.8-.672q0-4.078-3.3-4.078a7.877,7.877,0,0,0-5.219,1.969v-2.625a9.915,9.915,0,0,1,5.437-1.5q5.641,0,5.641,5.969ZM262.3-8.094l-3.859.531a6.266,6.266,0,0,0-2.687.883,2.546,2.546,0,0,0-.906,2.242,2.442,2.442,0,0,0,.836,1.914,3.23,3.23,0,0,0,2.227.742,4.113,4.113,0,0,0,3.148-1.336A4.773,4.773,0,0,0,262.3-6.5ZM282.975,0h-2.562V-9.125q0-5.094-3.719-5.094a4.034,4.034,0,0,0-3.18,1.445,5.357,5.357,0,0,0-1.258,3.648V0h-2.562V-16h2.563v2.656h.063a5.775,5.775,0,0,1,5.25-3.031,4.9,4.9,0,0,1,4.016,1.7,7.552,7.552,0,0,1,1.391,4.9Zm-1.687-22.781a4.469,4.469,0,0,1-.75,2.68,2.376,2.376,0,0,1-2.031,1.039,5.243,5.243,0,0,1-2.531-.812,4.287,4.287,0,0,0-1.859-.672q-1.375,0-1.375,1.766h-1.469a4.383,4.383,0,0,1,.75-2.68,2.461,2.461,0,0,1,2.094-1.008,4.572,4.572,0,0,1,2.328.813,4.086,4.086,0,0,0,2,.688q1.313,0,1.313-1.812ZM294.49.375a7.422,7.422,0,0,1-5.664-2.242,8.305,8.305,0,0,1-2.117-5.945,8.652,8.652,0,0,1,2.2-6.3,7.92,7.92,0,0,1,5.953-2.266,7.176,7.176,0,0,1,5.586,2.2,8.735,8.735,0,0,1,2.008,6.109A8.6,8.6,0,0,1,300.3-1.93,7.583,7.583,0,0,1,294.49.375Zm.188-14.594a4.874,4.874,0,0,0-3.906,1.68,6.9,6.9,0,0,0-1.437,4.633,6.524,6.524,0,0,0,1.453,4.484,4.939,4.939,0,0,0,3.891,1.641,4.685,4.685,0,0,0,3.82-1.609,6.984,6.984,0,0,0,1.336-4.578,7.1,7.1,0,0,0-1.336-4.625A4.664,4.664,0,0,0,294.678-14.219ZM305.584-.578v-2.75a7.583,7.583,0,0,0,4.609,1.547q3.375,0,3.375-2.25a1.952,1.952,0,0,0-.289-1.086,2.881,2.881,0,0,0-.781-.789,6.013,6.013,0,0,0-1.156-.617q-.664-.273-1.43-.57a18.413,18.413,0,0,1-1.867-.852,5.641,5.641,0,0,1-1.344-.969,3.6,3.6,0,0,1-.812-1.227,4.34,4.34,0,0,1-.273-1.609,3.823,3.823,0,0,1,.516-1.992,4.572,4.572,0,0,1,1.375-1.453,6.412,6.412,0,0,1,1.961-.883,8.7,8.7,0,0,1,2.273-.3,9.18,9.18,0,0,1,3.719.719v2.594a7.247,7.247,0,0,0-4.062-1.156,4.749,4.749,0,0,0-1.3.164,3.175,3.175,0,0,0-.992.461,2.129,2.129,0,0,0-.641.711,1.873,1.873,0,0,0-.227.914,2.192,2.192,0,0,0,.227,1.047,2.3,2.3,0,0,0,.664.75,5.076,5.076,0,0,0,1.063.594q.625.266,1.422.578a19.788,19.788,0,0,1,1.906.836,6.538,6.538,0,0,1,1.438.969,3.785,3.785,0,0,1,.914,1.242,4.006,4.006,0,0,1,.32,1.672,3.942,3.942,0,0,1-.523,2.063,4.486,4.486,0,0,1-1.4,1.453,6.405,6.405,0,0,1-2.016.859,9.952,9.952,0,0,1-2.391.281A9.078,9.078,0,0,1,305.584-.578Z" transform="translate(499.079 4468.645)" fill="#334155"/>
    <path id="Trazado_1016855" data-name="Trazado 1016855" d="M16.188-20.031H9.719V0H7.094V-20.031H.641v-2.375H16.188ZM29.052,0H26.49V-2.5h-.062A5.365,5.365,0,0,1,21.506.375,5.26,5.26,0,0,1,17.763-.891,4.385,4.385,0,0,1,16.412-4.25q0-4.484,5.281-5.219l4.8-.672q0-4.078-3.3-4.078a7.877,7.877,0,0,0-5.219,1.969v-2.625a9.915,9.915,0,0,1,5.438-1.5q5.641,0,5.641,5.969ZM26.49-8.094l-3.859.531a6.266,6.266,0,0,0-2.687.883,2.546,2.546,0,0,0-.906,2.242,2.442,2.442,0,0,0,.836,1.914,3.23,3.23,0,0,0,2.227.742,4.113,4.113,0,0,0,3.148-1.336A4.773,4.773,0,0,0,26.49-6.5ZM36.443,0H33.881V-23.687h2.563Zm7.75,0H41.631V-23.687h2.563ZM60.834,0H58.271V-2.5h-.062A5.365,5.365,0,0,1,53.287.375,5.26,5.26,0,0,1,49.545-.891,4.385,4.385,0,0,1,48.193-4.25q0-4.484,5.281-5.219l4.8-.672q0-4.078-3.3-4.078a7.877,7.877,0,0,0-5.219,1.969v-2.625a9.915,9.915,0,0,1,5.438-1.5q5.641,0,5.641,5.969ZM58.271-8.094l-3.859.531a6.266,6.266,0,0,0-2.687.883,2.546,2.546,0,0,0-.906,2.242,2.442,2.442,0,0,0,.836,1.914,3.23,3.23,0,0,0,2.227.742,4.113,4.113,0,0,0,3.148-1.336A4.773,4.773,0,0,0,58.271-6.5ZM64.693-.578v-2.75A7.583,7.583,0,0,0,69.3-1.781q3.375,0,3.375-2.25a1.952,1.952,0,0,0-.289-1.086,2.881,2.881,0,0,0-.781-.789,6.013,6.013,0,0,0-1.156-.617q-.664-.273-1.43-.57a18.413,18.413,0,0,1-1.867-.852,5.641,5.641,0,0,1-1.344-.969A3.6,3.6,0,0,1,65-10.141a4.339,4.339,0,0,1-.273-1.609,3.823,3.823,0,0,1,.516-1.992A4.572,4.572,0,0,1,66.615-15.2a6.412,6.412,0,0,1,1.961-.883,8.7,8.7,0,0,1,2.273-.3,9.18,9.18,0,0,1,3.719.719v2.594a7.247,7.247,0,0,0-4.062-1.156,4.749,4.749,0,0,0-1.3.164,3.175,3.175,0,0,0-.992.461,2.129,2.129,0,0,0-.641.711,1.873,1.873,0,0,0-.227.914,2.192,2.192,0,0,0,.227,1.047,2.3,2.3,0,0,0,.664.75,5.076,5.076,0,0,0,1.063.594q.625.266,1.422.578a19.789,19.789,0,0,1,1.906.836,6.538,6.538,0,0,1,1.438.969,3.785,3.785,0,0,1,.914,1.242,4.006,4.006,0,0,1,.32,1.672,3.942,3.942,0,0,1-.523,2.063,4.486,4.486,0,0,1-1.4,1.453,6.405,6.405,0,0,1-2.016.859,9.952,9.952,0,0,1-2.391.281A9.078,9.078,0,0,1,64.693-.578ZM90.631-2.312h-.062V0H88.006V-23.687h2.563v10.5h.063a6.059,6.059,0,0,1,5.531-3.187,5.864,5.864,0,0,1,4.82,2.148,8.871,8.871,0,0,1,1.742,5.758,9.917,9.917,0,0,1-1.953,6.43A6.5,6.5,0,0,1,95.427.375,5.263,5.263,0,0,1,90.631-2.312Zm-.062-6.453v2.234a4.757,4.757,0,0,0,1.289,3.367,4.28,4.28,0,0,0,3.273,1.383,4.289,4.289,0,0,0,3.648-1.781,8.172,8.172,0,0,0,1.32-4.953A6.451,6.451,0,0,0,98.865-12.7a4.085,4.085,0,0,0-3.344-1.516,4.54,4.54,0,0,0-3.594,1.555A5.708,5.708,0,0,0,90.568-8.766Zm29.109,1.406h-11.3a5.984,5.984,0,0,0,1.438,4.125A4.956,4.956,0,0,0,113.6-1.781a7.861,7.861,0,0,0,4.969-1.781v2.406A9.286,9.286,0,0,1,112.99.375a6.763,6.763,0,0,1-5.328-2.18,8.922,8.922,0,0,1-1.937-6.133,8.749,8.749,0,0,1,2.117-6.086,6.789,6.789,0,0,1,5.258-2.352,6.015,6.015,0,0,1,4.859,2.031A8.469,8.469,0,0,1,119.677-8.7Zm-2.625-2.172a5.214,5.214,0,0,0-1.07-3.453,3.647,3.647,0,0,0-2.93-1.234,4.139,4.139,0,0,0-3.078,1.3,5.885,5.885,0,0,0-1.562,3.391Zm9.125,7.219h-.062V0h-2.562V-23.687h2.563v10.5h.063a6.059,6.059,0,0,1,5.531-3.187,5.864,5.864,0,0,1,4.82,2.148,8.871,8.871,0,0,1,1.742,5.758,9.917,9.917,0,0,1-1.953,6.43A6.5,6.5,0,0,1,130.974.375,5.263,5.263,0,0,1,126.177-2.312Zm-.062-6.453v2.234A4.757,4.757,0,0,0,127.4-3.164a4.28,4.28,0,0,0,3.273,1.383,4.289,4.289,0,0,0,3.648-1.781,8.172,8.172,0,0,0,1.32-4.953,6.451,6.451,0,0,0-1.234-4.187,4.085,4.085,0,0,0-3.344-1.516,4.54,4.54,0,0,0-3.594,1.555A5.708,5.708,0,0,0,126.115-8.766Zm29.109,1.406h-11.3a5.984,5.984,0,0,0,1.438,4.125,4.956,4.956,0,0,0,3.781,1.453,7.862,7.862,0,0,0,4.969-1.781v2.406A9.286,9.286,0,0,1,148.537.375a6.763,6.763,0,0,1-5.328-2.18,8.921,8.921,0,0,1-1.937-6.133,8.749,8.749,0,0,1,2.117-6.086,6.789,6.789,0,0,1,5.258-2.352,6.015,6.015,0,0,1,4.859,2.031A8.469,8.469,0,0,1,155.224-8.7ZM152.6-9.531a5.214,5.214,0,0,0-1.07-3.453,3.647,3.647,0,0,0-2.93-1.234,4.139,4.139,0,0,0-3.078,1.3,5.885,5.885,0,0,0-1.562,3.391Zm-.406-14.625L148.1-19.031h-1.984l3.484-5.125Z" transform="translate(903.335 4333.637)" fill="#334155"/>
    <path id="Trazado_1016856" data-name="Trazado 1016856" d="M16.188-20.031H9.719V0H7.094V-20.031H.641v-2.375H16.188ZM29.052,0H26.49V-2.5h-.062A5.365,5.365,0,0,1,21.506.375,5.26,5.26,0,0,1,17.763-.891,4.385,4.385,0,0,1,16.412-4.25q0-4.484,5.281-5.219l4.8-.672q0-4.078-3.3-4.078a7.877,7.877,0,0,0-5.219,1.969v-2.625a9.915,9.915,0,0,1,5.438-1.5q5.641,0,5.641,5.969ZM26.49-8.094l-3.859.531a6.266,6.266,0,0,0-2.687.883,2.546,2.546,0,0,0-.906,2.242,2.442,2.442,0,0,0,.836,1.914,3.23,3.23,0,0,0,2.227.742,4.113,4.113,0,0,0,3.148-1.336A4.773,4.773,0,0,0,26.49-6.5ZM36.443,0H33.881V-23.687h2.563Zm7.75,0H41.631V-23.687h2.563ZM60.834,0H58.271V-2.5h-.062A5.365,5.365,0,0,1,53.287.375,5.26,5.26,0,0,1,49.545-.891,4.385,4.385,0,0,1,48.193-4.25q0-4.484,5.281-5.219l4.8-.672q0-4.078-3.3-4.078a7.877,7.877,0,0,0-5.219,1.969v-2.625a9.915,9.915,0,0,1,5.438-1.5q5.641,0,5.641,5.969ZM58.271-8.094l-3.859.531a6.266,6.266,0,0,0-2.687.883,2.546,2.546,0,0,0-.906,2.242,2.442,2.442,0,0,0,.836,1.914,3.23,3.23,0,0,0,2.227.742,4.113,4.113,0,0,0,3.148-1.336A4.773,4.773,0,0,0,58.271-6.5ZM64.693-.578v-2.75A7.583,7.583,0,0,0,69.3-1.781q3.375,0,3.375-2.25a1.952,1.952,0,0,0-.289-1.086,2.881,2.881,0,0,0-.781-.789,6.013,6.013,0,0,0-1.156-.617q-.664-.273-1.43-.57a18.413,18.413,0,0,1-1.867-.852,5.641,5.641,0,0,1-1.344-.969A3.6,3.6,0,0,1,65-10.141a4.339,4.339,0,0,1-.273-1.609,3.823,3.823,0,0,1,.516-1.992A4.572,4.572,0,0,1,66.615-15.2a6.412,6.412,0,0,1,1.961-.883,8.7,8.7,0,0,1,2.273-.3,9.18,9.18,0,0,1,3.719.719v2.594a7.247,7.247,0,0,0-4.062-1.156,4.749,4.749,0,0,0-1.3.164,3.175,3.175,0,0,0-.992.461,2.129,2.129,0,0,0-.641.711,1.873,1.873,0,0,0-.227.914,2.192,2.192,0,0,0,.227,1.047,2.3,2.3,0,0,0,.664.75,5.076,5.076,0,0,0,1.063.594q.625.266,1.422.578a19.789,19.789,0,0,1,1.906.836,6.538,6.538,0,0,1,1.438.969,3.785,3.785,0,0,1,.914,1.242,4.006,4.006,0,0,1,.32,1.672,3.942,3.942,0,0,1-.523,2.063,4.486,4.486,0,0,1-1.4,1.453,6.405,6.405,0,0,1-2.016.859,9.952,9.952,0,0,1-2.391.281A9.078,9.078,0,0,1,64.693-.578ZM89.318-20.062a1.624,1.624,0,0,1-1.172-.469,1.582,1.582,0,0,1-.484-1.187,1.608,1.608,0,0,1,.484-1.2,1.61,1.61,0,0,1,1.172-.477,1.655,1.655,0,0,1,1.2.477,1.6,1.6,0,0,1,.492,1.2,1.584,1.584,0,0,1-.492,1.172A1.641,1.641,0,0,1,89.318-20.062ZM90.568,0H88.006V-16h2.563Zm18.469,0h-2.562V-9.125q0-5.094-3.719-5.094a4.034,4.034,0,0,0-3.18,1.445,5.357,5.357,0,0,0-1.258,3.648V0H95.756V-16h2.563v2.656h.063a5.775,5.775,0,0,1,5.25-3.031,4.9,4.9,0,0,1,4.016,1.7,7.552,7.552,0,0,1,1.391,4.9Zm12.734-21.437a3.413,3.413,0,0,0-1.7-.422q-2.687,0-2.687,3.391V-16h3.75v2.188h-3.75V0h-2.547V-13.812H112.1V-16h2.734v-2.594a5.39,5.39,0,0,1,1.453-3.977,4.906,4.906,0,0,1,3.625-1.461,5.021,5.021,0,0,1,1.859.281ZM135.334,0h-2.562V-2.5h-.062A5.365,5.365,0,0,1,127.787.375a5.26,5.26,0,0,1-3.742-1.266,4.385,4.385,0,0,1-1.352-3.359q0-4.484,5.281-5.219l4.8-.672q0-4.078-3.3-4.078a7.877,7.877,0,0,0-5.219,1.969v-2.625a9.915,9.915,0,0,1,5.437-1.5q5.641,0,5.641,5.969Zm-2.562-8.094-3.859.531a6.266,6.266,0,0,0-2.687.883,2.546,2.546,0,0,0-.906,2.242,2.442,2.442,0,0,0,.836,1.914,3.23,3.23,0,0,0,2.227.742,4.113,4.113,0,0,0,3.148-1.336A4.773,4.773,0,0,0,132.771-6.5ZM153.443,0h-2.562V-9.125q0-5.094-3.719-5.094a4.034,4.034,0,0,0-3.18,1.445,5.357,5.357,0,0,0-1.258,3.648V0h-2.562V-16h2.563v2.656h.063a5.775,5.775,0,0,1,5.25-3.031,4.9,4.9,0,0,1,4.016,1.7,7.552,7.552,0,0,1,1.391,4.9Zm12.25-.156a4.941,4.941,0,0,1-2.391.5q-4.2,0-4.2-4.687v-9.469h-2.75V-16h2.75v-3.906l2.563-.828V-16h4.031v2.188h-4.031V-4.8a3.738,3.738,0,0,0,.547,2.3,2.182,2.182,0,0,0,1.813.688,2.694,2.694,0,0,0,1.672-.531Zm4.734-19.906a1.624,1.624,0,0,1-1.172-.469,1.582,1.582,0,0,1-.484-1.187,1.608,1.608,0,0,1,.484-1.2,1.61,1.61,0,0,1,1.172-.477,1.655,1.655,0,0,1,1.2.477,1.6,1.6,0,0,1,.492,1.2,1.584,1.584,0,0,1-.492,1.172A1.641,1.641,0,0,1,170.427-20.062ZM171.677,0h-2.562V-16h2.563Zm7.75,0h-2.562V-23.687h2.563Zm18.047-7.359h-11.3a5.984,5.984,0,0,0,1.438,4.125A4.956,4.956,0,0,0,191.4-1.781a7.862,7.862,0,0,0,4.969-1.781v2.406A9.286,9.286,0,0,1,190.787.375a6.763,6.763,0,0,1-5.328-2.18,8.921,8.921,0,0,1-1.937-6.133,8.749,8.749,0,0,1,2.117-6.086,6.789,6.789,0,0,1,5.258-2.352,6.015,6.015,0,0,1,4.859,2.031A8.469,8.469,0,0,1,197.474-8.7Zm-2.625-2.172a5.214,5.214,0,0,0-1.07-3.453,3.647,3.647,0,0,0-2.93-1.234,4.139,4.139,0,0,0-3.078,1.3,5.885,5.885,0,0,0-1.562,3.391Zm5.531,8.953v-2.75a7.583,7.583,0,0,0,4.609,1.547q3.375,0,3.375-2.25a1.952,1.952,0,0,0-.289-1.086,2.881,2.881,0,0,0-.781-.789,6.014,6.014,0,0,0-1.156-.617q-.664-.273-1.43-.57a18.413,18.413,0,0,1-1.867-.852,5.641,5.641,0,0,1-1.344-.969,3.6,3.6,0,0,1-.812-1.227,4.339,4.339,0,0,1-.273-1.609,3.823,3.823,0,0,1,.516-1.992A4.572,4.572,0,0,1,202.3-15.2a6.412,6.412,0,0,1,1.961-.883,8.7,8.7,0,0,1,2.273-.3,9.18,9.18,0,0,1,3.719.719v2.594a7.247,7.247,0,0,0-4.062-1.156,4.749,4.749,0,0,0-1.3.164,3.175,3.175,0,0,0-.992.461,2.129,2.129,0,0,0-.641.711,1.873,1.873,0,0,0-.227.914,2.192,2.192,0,0,0,.227,1.047,2.3,2.3,0,0,0,.664.75,5.076,5.076,0,0,0,1.063.594q.625.266,1.422.578a19.79,19.79,0,0,1,1.906.836,6.538,6.538,0,0,1,1.438.969,3.786,3.786,0,0,1,.914,1.242,4.006,4.006,0,0,1,.32,1.672,3.942,3.942,0,0,1-.523,2.063,4.486,4.486,0,0,1-1.4,1.453,6.4,6.4,0,0,1-2.016.859,9.952,9.952,0,0,1-2.391.281A9.078,9.078,0,0,1,200.381-.578Z" transform="translate(903.335 4378.629)" fill="#334155"/>
    <path id="Trazado_1016857" data-name="Trazado 1016857" d="M16.188-20.031H9.719V0H7.094V-20.031H.641v-2.375H16.188ZM29.052,0H26.49V-2.5h-.062A5.365,5.365,0,0,1,21.506.375,5.26,5.26,0,0,1,17.763-.891,4.385,4.385,0,0,1,16.412-4.25q0-4.484,5.281-5.219l4.8-.672q0-4.078-3.3-4.078a7.877,7.877,0,0,0-5.219,1.969v-2.625a9.915,9.915,0,0,1,5.438-1.5q5.641,0,5.641,5.969ZM26.49-8.094l-3.859.531a6.266,6.266,0,0,0-2.687.883,2.546,2.546,0,0,0-.906,2.242,2.442,2.442,0,0,0,.836,1.914,3.23,3.23,0,0,0,2.227.742,4.113,4.113,0,0,0,3.148-1.336A4.773,4.773,0,0,0,26.49-6.5ZM36.443,0H33.881V-23.687h2.563Zm7.75,0H41.631V-23.687h2.563ZM60.834,0H58.271V-2.5h-.062A5.365,5.365,0,0,1,53.287.375,5.26,5.26,0,0,1,49.545-.891,4.385,4.385,0,0,1,48.193-4.25q0-4.484,5.281-5.219l4.8-.672q0-4.078-3.3-4.078a7.877,7.877,0,0,0-5.219,1.969v-2.625a9.915,9.915,0,0,1,5.438-1.5q5.641,0,5.641,5.969ZM58.271-8.094l-3.859.531a6.266,6.266,0,0,0-2.687.883,2.546,2.546,0,0,0-.906,2.242,2.442,2.442,0,0,0,.836,1.914,3.23,3.23,0,0,0,2.227.742,4.113,4.113,0,0,0,3.148-1.336A4.773,4.773,0,0,0,58.271-6.5ZM64.693-.578v-2.75A7.583,7.583,0,0,0,69.3-1.781q3.375,0,3.375-2.25a1.952,1.952,0,0,0-.289-1.086,2.881,2.881,0,0,0-.781-.789,6.013,6.013,0,0,0-1.156-.617q-.664-.273-1.43-.57a18.413,18.413,0,0,1-1.867-.852,5.641,5.641,0,0,1-1.344-.969A3.6,3.6,0,0,1,65-10.141a4.339,4.339,0,0,1-.273-1.609,3.823,3.823,0,0,1,.516-1.992A4.572,4.572,0,0,1,66.615-15.2a6.412,6.412,0,0,1,1.961-.883,8.7,8.7,0,0,1,2.273-.3,9.18,9.18,0,0,1,3.719.719v2.594a7.247,7.247,0,0,0-4.062-1.156,4.749,4.749,0,0,0-1.3.164,3.175,3.175,0,0,0-.992.461,2.129,2.129,0,0,0-.641.711,1.873,1.873,0,0,0-.227.914,2.192,2.192,0,0,0,.227,1.047,2.3,2.3,0,0,0,.664.75,5.076,5.076,0,0,0,1.063.594q.625.266,1.422.578a19.789,19.789,0,0,1,1.906.836,6.538,6.538,0,0,1,1.438.969,3.785,3.785,0,0,1,.914,1.242,4.006,4.006,0,0,1,.32,1.672,3.942,3.942,0,0,1-.523,2.063,4.486,4.486,0,0,1-1.4,1.453,6.405,6.405,0,0,1-2.016.859,9.952,9.952,0,0,1-2.391.281A9.078,9.078,0,0,1,64.693-.578ZM90.568-.672A10.028,10.028,0,0,1,88.982,5.4a5.316,5.316,0,0,1-4.539,2.133,4.818,4.818,0,0,1-2.125-.5V4.641a4.24,4.24,0,0,0,2.188.7q3.5,0,3.5-5.594V-16h2.563Zm-1.25-19.391a1.624,1.624,0,0,1-1.172-.469,1.582,1.582,0,0,1-.484-1.187,1.608,1.608,0,0,1,.484-1.2,1.61,1.61,0,0,1,1.172-.477,1.655,1.655,0,0,1,1.2.477,1.6,1.6,0,0,1,.492,1.2,1.584,1.584,0,0,1-.492,1.172A1.641,1.641,0,0,1,89.318-20.062ZM102.443.375a7.422,7.422,0,0,1-5.664-2.242,8.305,8.305,0,0,1-2.117-5.945,8.652,8.652,0,0,1,2.2-6.3,7.92,7.92,0,0,1,5.953-2.266,7.176,7.176,0,0,1,5.586,2.2,8.735,8.735,0,0,1,2.008,6.109,8.6,8.6,0,0,1-2.164,6.133A7.583,7.583,0,0,1,102.443.375Zm.188-14.594a4.874,4.874,0,0,0-3.906,1.68,6.9,6.9,0,0,0-1.437,4.633A6.524,6.524,0,0,0,98.74-3.422a4.939,4.939,0,0,0,3.891,1.641,4.685,4.685,0,0,0,3.82-1.609,6.984,6.984,0,0,0,1.336-4.578,7.1,7.1,0,0,0-1.336-4.625A4.664,4.664,0,0,0,102.631-14.219Zm3.75-9.937-4.094,5.125H100.3l3.484-5.125ZM126.892-16,120.517,0H118l-6.062-16h2.813l4.063,11.625a10.434,10.434,0,0,1,.563,2.234h.063a10.566,10.566,0,0,1,.5-2.172L124.189-16Zm15.417,8.641h-11.3a5.984,5.984,0,0,0,1.438,4.125,4.956,4.956,0,0,0,3.781,1.453A7.862,7.862,0,0,0,141.2-3.562v2.406A9.286,9.286,0,0,1,135.622.375a6.763,6.763,0,0,1-5.328-2.18,8.921,8.921,0,0,1-1.937-6.133,8.749,8.749,0,0,1,2.117-6.086,6.789,6.789,0,0,1,5.258-2.352,6.015,6.015,0,0,1,4.859,2.031A8.469,8.469,0,0,1,142.309-8.7Zm-2.625-2.172a5.214,5.214,0,0,0-1.07-3.453,3.647,3.647,0,0,0-2.93-1.234,4.139,4.139,0,0,0-3.078,1.3,5.885,5.885,0,0,0-1.562,3.391ZM159.465,0H156.9V-9.125q0-5.094-3.719-5.094A4.034,4.034,0,0,0,150-12.773a5.357,5.357,0,0,0-1.258,3.648V0h-2.562V-16h2.563v2.656h.063a5.775,5.775,0,0,1,5.25-3.031,4.9,4.9,0,0,1,4.016,1.7,7.552,7.552,0,0,1,1.391,4.9Zm17.688-7.359h-11.3a5.984,5.984,0,0,0,1.438,4.125,4.956,4.956,0,0,0,3.781,1.453,7.862,7.862,0,0,0,4.969-1.781v2.406A9.286,9.286,0,0,1,170.465.375a6.763,6.763,0,0,1-5.328-2.18A8.921,8.921,0,0,1,163.2-7.937a8.749,8.749,0,0,1,2.117-6.086,6.789,6.789,0,0,1,5.258-2.352,6.015,6.015,0,0,1,4.859,2.031A8.469,8.469,0,0,1,177.153-8.7Zm-2.625-2.172a5.214,5.214,0,0,0-1.07-3.453,3.647,3.647,0,0,0-2.93-1.234,4.139,4.139,0,0,0-3.078,1.3,5.885,5.885,0,0,0-1.562,3.391Zm5.531,8.953v-2.75a7.583,7.583,0,0,0,4.609,1.547q3.375,0,3.375-2.25a1.952,1.952,0,0,0-.289-1.086,2.881,2.881,0,0,0-.781-.789,6.014,6.014,0,0,0-1.156-.617q-.664-.273-1.43-.57a18.413,18.413,0,0,1-1.867-.852,5.641,5.641,0,0,1-1.344-.969,3.6,3.6,0,0,1-.812-1.227,4.339,4.339,0,0,1-.273-1.609,3.823,3.823,0,0,1,.516-1.992,4.572,4.572,0,0,1,1.375-1.453,6.412,6.412,0,0,1,1.961-.883,8.7,8.7,0,0,1,2.273-.3,9.18,9.18,0,0,1,3.719.719v2.594a7.247,7.247,0,0,0-4.062-1.156,4.749,4.749,0,0,0-1.3.164,3.175,3.175,0,0,0-.992.461,2.129,2.129,0,0,0-.641.711,1.873,1.873,0,0,0-.227.914,2.192,2.192,0,0,0,.227,1.047,2.3,2.3,0,0,0,.664.75,5.076,5.076,0,0,0,1.063.594q.625.266,1.422.578A19.79,19.79,0,0,1,188-8.164a6.538,6.538,0,0,1,1.438.969,3.786,3.786,0,0,1,.914,1.242,4.006,4.006,0,0,1,.32,1.672,3.942,3.942,0,0,1-.523,2.063,4.486,4.486,0,0,1-1.4,1.453,6.4,6.4,0,0,1-2.016.859,9.952,9.952,0,0,1-2.391.281A9.078,9.078,0,0,1,180.059-.578Z" transform="translate(903.335 4423.621)" fill="#334155"/>
    <path id="Trazado_1016858" data-name="Trazado 1016858" d="M16.188-20.031H9.719V0H7.094V-20.031H.641v-2.375H16.188ZM29.052,0H26.49V-2.5h-.062A5.365,5.365,0,0,1,21.506.375,5.26,5.26,0,0,1,17.763-.891,4.385,4.385,0,0,1,16.412-4.25q0-4.484,5.281-5.219l4.8-.672q0-4.078-3.3-4.078a7.877,7.877,0,0,0-5.219,1.969v-2.625a9.915,9.915,0,0,1,5.438-1.5q5.641,0,5.641,5.969ZM26.49-8.094l-3.859.531a6.266,6.266,0,0,0-2.687.883,2.546,2.546,0,0,0-.906,2.242,2.442,2.442,0,0,0,.836,1.914,3.23,3.23,0,0,0,2.227.742,4.113,4.113,0,0,0,3.148-1.336A4.773,4.773,0,0,0,26.49-6.5ZM36.443,0H33.881V-23.687h2.563Zm7.75,0H41.631V-23.687h2.563ZM60.834,0H58.271V-2.5h-.062A5.365,5.365,0,0,1,53.287.375,5.26,5.26,0,0,1,49.545-.891,4.385,4.385,0,0,1,48.193-4.25q0-4.484,5.281-5.219l4.8-.672q0-4.078-3.3-4.078a7.877,7.877,0,0,0-5.219,1.969v-2.625a9.915,9.915,0,0,1,5.438-1.5q5.641,0,5.641,5.969ZM58.271-8.094l-3.859.531a6.266,6.266,0,0,0-2.687.883,2.546,2.546,0,0,0-.906,2.242,2.442,2.442,0,0,0,.836,1.914,3.23,3.23,0,0,0,2.227.742,4.113,4.113,0,0,0,3.148-1.336A4.773,4.773,0,0,0,58.271-6.5ZM64.693-.578v-2.75A7.583,7.583,0,0,0,69.3-1.781q3.375,0,3.375-2.25a1.952,1.952,0,0,0-.289-1.086,2.881,2.881,0,0,0-.781-.789,6.013,6.013,0,0,0-1.156-.617q-.664-.273-1.43-.57a18.413,18.413,0,0,1-1.867-.852,5.641,5.641,0,0,1-1.344-.969A3.6,3.6,0,0,1,65-10.141a4.339,4.339,0,0,1-.273-1.609,3.823,3.823,0,0,1,.516-1.992A4.572,4.572,0,0,1,66.615-15.2a6.412,6.412,0,0,1,1.961-.883,8.7,8.7,0,0,1,2.273-.3,9.18,9.18,0,0,1,3.719.719v2.594a7.247,7.247,0,0,0-4.062-1.156,4.749,4.749,0,0,0-1.3.164,3.175,3.175,0,0,0-.992.461,2.129,2.129,0,0,0-.641.711,1.873,1.873,0,0,0-.227.914,2.192,2.192,0,0,0,.227,1.047,2.3,2.3,0,0,0,.664.75,5.076,5.076,0,0,0,1.063.594q.625.266,1.422.578a19.789,19.789,0,0,1,1.906.836,6.538,6.538,0,0,1,1.438.969,3.785,3.785,0,0,1,.914,1.242,4.006,4.006,0,0,1,.32,1.672,3.942,3.942,0,0,1-.523,2.063,4.486,4.486,0,0,1-1.4,1.453,6.405,6.405,0,0,1-2.016.859,9.952,9.952,0,0,1-2.391.281A9.078,9.078,0,0,1,64.693-.578ZM99.459,0H96.9V-2.5h-.062A5.365,5.365,0,0,1,91.912.375,5.26,5.26,0,0,1,88.17-.891,4.385,4.385,0,0,1,86.818-4.25q0-4.484,5.281-5.219l4.8-.672q0-4.078-3.3-4.078a7.877,7.877,0,0,0-5.219,1.969v-2.625a9.915,9.915,0,0,1,5.438-1.5q5.641,0,5.641,5.969ZM96.9-8.094l-3.859.531a6.266,6.266,0,0,0-2.687.883,2.546,2.546,0,0,0-.906,2.242,2.442,2.442,0,0,0,.836,1.914,3.23,3.23,0,0,0,2.227.742,4.113,4.113,0,0,0,3.148-1.336A4.773,4.773,0,0,0,96.9-6.5ZM117.943,0h-2.562V-2.719h-.062a5.915,5.915,0,0,1-5.5,3.094A5.976,5.976,0,0,1,105-1.773a8.814,8.814,0,0,1-1.8-5.852,9.589,9.589,0,0,1,2-6.359,6.6,6.6,0,0,1,5.328-2.391,5.129,5.129,0,0,1,4.8,2.594h.063v-9.906h2.563Zm-2.562-7.234V-9.594a4.577,4.577,0,0,0-1.281-3.281,4.3,4.3,0,0,0-3.25-1.344,4.425,4.425,0,0,0-3.687,1.719,7.532,7.532,0,0,0-1.344,4.75,6.774,6.774,0,0,0,1.289,4.367,4.213,4.213,0,0,0,3.461,1.6,4.377,4.377,0,0,0,3.477-1.547A5.763,5.763,0,0,0,115.381-7.234ZM136.068,0h-2.562V-2.531h-.062A5.262,5.262,0,0,1,128.506.375q-5.719,0-5.719-6.812V-16h2.547v9.156q0,5.063,3.875,5.063a3.92,3.92,0,0,0,3.086-1.383,5.291,5.291,0,0,0,1.211-3.617V-16h2.563ZM143.8,0H141.24V-23.687H143.8Zm12.609-.156a4.941,4.941,0,0,1-2.391.5q-4.2,0-4.2-4.687v-9.469h-2.75V-16h2.75v-3.906l2.563-.828V-16h4.031v2.188h-4.031V-4.8a3.738,3.738,0,0,0,.547,2.3,2.182,2.182,0,0,0,1.813.688,2.694,2.694,0,0,0,1.672-.531Zm10.109.531a7.422,7.422,0,0,1-5.664-2.242,8.305,8.305,0,0,1-2.117-5.945,8.652,8.652,0,0,1,2.2-6.3,7.92,7.92,0,0,1,5.953-2.266,7.176,7.176,0,0,1,5.586,2.2,8.735,8.735,0,0,1,2.008,6.109,8.6,8.6,0,0,1-2.164,6.133A7.583,7.583,0,0,1,166.521.375Zm.188-14.594a4.874,4.874,0,0,0-3.906,1.68,6.9,6.9,0,0,0-1.437,4.633,6.524,6.524,0,0,0,1.453,4.484,4.939,4.939,0,0,0,3.891,1.641,4.685,4.685,0,0,0,3.82-1.609,6.984,6.984,0,0,0,1.336-4.578,7.1,7.1,0,0,0-1.336-4.625A4.664,4.664,0,0,0,166.709-14.219ZM177.615-.578v-2.75a7.583,7.583,0,0,0,4.609,1.547q3.375,0,3.375-2.25a1.952,1.952,0,0,0-.289-1.086,2.881,2.881,0,0,0-.781-.789,6.014,6.014,0,0,0-1.156-.617q-.664-.273-1.43-.57a18.413,18.413,0,0,1-1.867-.852,5.641,5.641,0,0,1-1.344-.969,3.6,3.6,0,0,1-.812-1.227,4.339,4.339,0,0,1-.273-1.609,3.823,3.823,0,0,1,.516-1.992,4.572,4.572,0,0,1,1.375-1.453,6.412,6.412,0,0,1,1.961-.883,8.7,8.7,0,0,1,2.273-.3,9.18,9.18,0,0,1,3.719.719v2.594a7.247,7.247,0,0,0-4.062-1.156,4.749,4.749,0,0,0-1.3.164,3.175,3.175,0,0,0-.992.461,2.129,2.129,0,0,0-.641.711,1.873,1.873,0,0,0-.227.914,2.192,2.192,0,0,0,.227,1.047,2.3,2.3,0,0,0,.664.75,5.076,5.076,0,0,0,1.063.594q.625.266,1.422.578a19.79,19.79,0,0,1,1.906.836,6.538,6.538,0,0,1,1.438.969,3.786,3.786,0,0,1,.914,1.242,4.006,4.006,0,0,1,.32,1.672,3.942,3.942,0,0,1-.523,2.063,4.486,4.486,0,0,1-1.4,1.453,6.4,6.4,0,0,1-2.016.859A9.952,9.952,0,0,1,181.9.375,9.078,9.078,0,0,1,177.615-.578Z" transform="translate(903.335 4468.613)" fill="#334155"/>
    <path id="Trazado_1016859" data-name="Trazado 1016859" d="M0,0H213.027V5.945H0Z" transform="translate(683.008 4327.723)" fill="#2ed19b"/>
    <path id="Trazado_1016860" data-name="Trazado 1016860" d="M0,0H213.027V5.945H0Z" transform="translate(683.008 4372.31)" fill="#2ed19b"/>
    <path id="Trazado_1016861" data-name="Trazado 1016861" d="M0,0H213.027V5.945H0Z" transform="translate(683.008 4416.898)" fill="#2ed19b"/>
    <path id="Trazado_1016862" data-name="Trazado 1016862" d="M0,0H70.031V5.945H0Z" transform="translate(826.004 4463.136)" fill="#2ed19b"/>
    <g id="Grupo_1194810" data-name="Grupo 1194810" transform="translate(428.711 4263)">
      <g id="Grupo_1194809" data-name="Grupo 1194809" clip-path="url(#clip-path)">
        <path id="Rectángulo_461790" data-name="Rectángulo 461790" d="M19.833,0H719.784a19.832,19.832,0,0,1,19.832,19.832V235.8a19.832,19.832,0,0,1-19.832,19.832H19.833A19.833,19.833,0,0,1,0,235.8V19.833A19.833,19.833,0,0,1,19.833,0Z" transform="translate(1 1)" fill="none" stroke="#a5b0d0" stroke-miterlimit="10" stroke-width="2"/>
      </g>
    </g>
  </g>
</svg>
