<svg xmlns="http://www.w3.org/2000/svg" xmlns:xlink="http://www.w3.org/1999/xlink" width="84" height="84" viewBox="0 0 84 84">
  <defs>
    <clipPath id="clip-path">
      <rect id="Rectángulo_461826" data-name="Rectángulo 461826" width="64" height="64" transform="translate(0 -0.074)" fill="none"/>
    </clipPath>
  </defs>
  <g id="Grupo_1195822" data-name="Grupo 1195822" transform="translate(-707.021 -6699.661)">
    <g id="Grupo_1194818" data-name="Grupo 1194818" transform="translate(1.021 5020.741)">
      <g id="Grupo_1119665" data-name="Grupo 1119665" transform="translate(534.111 -3840.08)">
        <rect id="Rectángulo_402006" data-name="Rectángulo 402006" width="84" height="84" rx="5" transform="translate(171.889 5519)" fill="#c1c5cb"/>
      </g>
    </g>
    <g id="Grupo_1194850" data-name="Grupo 1194850" transform="translate(715.711 6709.039)">
      <g id="Grupo_1194849" data-name="Grupo 1194849" transform="translate(0 0.035)" clip-path="url(#clip-path)">
        <path id="Trazado_1015031" data-name="Trazado 1015031" d="M31.977,62.887V11.725a1.066,1.066,0,0,0-.646-.98c-.071-.03-7.1-3.11-10.1-10.1A1.066,1.066,0,0,0,19.915.055L7.125,4.318a1.066,1.066,0,0,0-.68,1.329A31.553,31.553,0,0,1,7.6,14.763c-.167,6.519-2.556,11.291-7.1,14.184a1.066,1.066,0,0,0-.474,1.1c.369,1.9.805,3.781,1.227,5.6,1,4.337,1.952,8.433,1.952,12.313A43.273,43.273,0,0,1,1.13,62.527a1.066,1.066,0,0,0,1,1.426H30.912a1.066,1.066,0,0,0,1.066-1.066M29.846,47.963H27.714a1.066,1.066,0,1,0,0,2.132h2.132V61.821H19.187V59.689a1.066,1.066,0,0,0-2.132,0v2.132H3.606A48.018,48.018,0,0,0,5.331,47.965c0-4.123-.974-8.335-2.006-12.794-.365-1.58-.742-3.206-1.073-4.835,4.718-3.293,7.3-8.641,7.476-15.519a34.141,34.141,0,0,0-.973-8.794L19.683,2.38A23.385,23.385,0,0,0,29.846,12.4Z" transform="translate(0 -0.024)"/>
        <path id="Trazado_1015032" data-name="Trazado 1015032" d="M285.376,16.711a46.458,46.458,0,0,1-6.233-5.2,11.368,11.368,0,0,0-16.43,0,46.641,46.641,0,0,1-6.233,5.2,1.066,1.066,0,0,0-.465,1.032l4.263,30.91a1.066,1.066,0,0,0,1.056.92h19.186a1.066,1.066,0,0,0,1.056-.92l4.263-30.91a1.066,1.066,0,0,0-.465-1.032m-5.784,30.731H262.264L258.217,18.1a49.189,49.189,0,0,0,6-5.078,9.238,9.238,0,0,1,13.414,0,49.186,49.186,0,0,0,6,5.078Z" transform="translate(-221.897 -6.962)"/>
        <path id="Trazado_1015033" data-name="Trazado 1015033" d="M129.072,44.268a1.066,1.066,0,0,0,1.066-1.066V41.071a1.066,1.066,0,0,0-2.132,0V43.2a1.066,1.066,0,0,0,1.066,1.066" transform="translate(-110.951 -34.699)"/>
        <path id="Trazado_1015034" data-name="Trazado 1015034" d="M361.072,44.268a1.066,1.066,0,0,0,1.066-1.066V41.071a1.066,1.066,0,1,0-2.132,0V43.2a1.066,1.066,0,0,0,1.066,1.066" transform="translate(-312.041 -34.699)"/>
        <path id="Trazado_1015035" data-name="Trazado 1015035" d="M361.072,112.005a1.066,1.066,0,0,0-1.066,1.066V115.2a1.066,1.066,0,1,0,2.132,0v-2.132a1.066,1.066,0,0,0-1.066-1.066" transform="translate(-312.041 -97.106)"/>
        <path id="Trazado_1015036" data-name="Trazado 1015036" d="M361.072,160.005a1.066,1.066,0,0,0-1.066,1.066V163.2a1.066,1.066,0,1,0,2.132,0v-2.132a1.066,1.066,0,0,0-1.066-1.066" transform="translate(-312.041 -138.711)"/>
        <path id="Trazado_1015037" data-name="Trazado 1015037" d="M361.072,208.005a1.066,1.066,0,0,0-1.066,1.066V211.2a1.066,1.066,0,1,0,2.132,0v-2.132a1.066,1.066,0,0,0-1.066-1.066" transform="translate(-312.041 -180.316)"/>
        <path id="Trazado_1015038" data-name="Trazado 1015038" d="M361.072,256.005a1.066,1.066,0,0,0-1.066,1.066V259.2a1.066,1.066,0,0,0,2.132,0v-2.132a1.066,1.066,0,0,0-1.066-1.066" transform="translate(-312.041 -221.92)"/>
        <path id="Trazado_1015039" data-name="Trazado 1015039" d="M36.269,233.071a1.066,1.066,0,0,0-1.066-1.066H33.072a1.066,1.066,0,1,0,0,2.132H35.2a1.066,1.066,0,0,0,1.066-1.066" transform="translate(-27.742 -201.118)"/>
        <path id="Trazado_1015040" data-name="Trazado 1015040" d="M339.2,408.005h-2.132a1.066,1.066,0,0,0,0,2.132H339.2a1.066,1.066,0,1,0,0-2.132" transform="translate(-291.238 -353.669)"/>
        <path id="Trazado_1015041" data-name="Trazado 1015041" d="M385.072,410.137H387.2a1.066,1.066,0,1,0,0-2.132h-2.132a1.066,1.066,0,1,0,0,2.132" transform="translate(-332.843 -353.669)"/>
        <path id="Trazado_1015042" data-name="Trazado 1015042" d="M299.719,361.071a1.066,1.066,0,0,0-1.066-1.066H273.072a1.066,1.066,0,0,0-1.066,1.066v12.791a1.066,1.066,0,0,0,1.066,1.066h25.581a1.066,1.066,0,0,0,1.066-1.066Zm-2.132,5.329h-3.2a1.066,1.066,0,0,0,0,2.132h3.2V372.8H286.928v-2.132a1.066,1.066,0,1,0-2.132,0V372.8H274.138v-4.263h3.2a1.066,1.066,0,0,0,0-2.132h-3.2v-4.263H284.8V363.2a1.066,1.066,0,0,0,2.132,0v-1.066h10.659Z" transform="translate(-235.766 -312.064)"/>
        <path id="Trazado_1015043" data-name="Trazado 1015043" d="M290.138,80h-1.066a1.066,1.066,0,1,0,0,2.132h1.066a1.066,1.066,0,1,0,0-2.132" transform="translate(-249.634 -69.369)"/>
        <path id="Trazado_1015044" data-name="Trazado 1015044" d="M331.2,80h-2.132a1.066,1.066,0,1,0,0,2.132H331.2a1.066,1.066,0,1,0,0-2.132" transform="translate(-284.304 -69.369)"/>
        <path id="Trazado_1015045" data-name="Trazado 1015045" d="M379.2,80h-2.132a1.066,1.066,0,1,0,0,2.132H379.2a1.066,1.066,0,1,0,0-2.132" transform="translate(-325.909 -69.369)"/>
        <path id="Trazado_1015046" data-name="Trazado 1015046" d="M425.072,82.137h1.066a1.066,1.066,0,0,0,0-2.132h-1.066a1.066,1.066,0,1,0,0,2.132" transform="translate(-367.514 -69.369)"/>
        <path id="Trazado_1015047" data-name="Trazado 1015047" d="M59.2,360.012H57.072a1.066,1.066,0,1,0,0,2.132H59.2a1.066,1.066,0,1,0,0-2.132" transform="translate(-48.544 -312.07)"/>
        <path id="Trazado_1015048" data-name="Trazado 1015048" d="M108.27,361.071a1.066,1.066,0,0,0-1.066-1.066h-2.132a1.066,1.066,0,0,0,0,2.132H107.2a1.066,1.066,0,0,0,1.066-1.066" transform="translate(-90.149 -312.064)"/>
        <path id="Trazado_1015049" data-name="Trazado 1015049" d="M155.2,360h-2.132a1.066,1.066,0,0,0,0,2.132H155.2a1.066,1.066,0,0,0,0-2.132" transform="translate(-131.754 -312.058)"/>
        <path id="Trazado_1015050" data-name="Trazado 1015050" d="M81.072,234.137H83.2a1.066,1.066,0,1,0,0-2.132H81.072a1.066,1.066,0,1,0,0,2.132" transform="translate(-69.346 -201.118)"/>
        <path id="Trazado_1015051" data-name="Trazado 1015051" d="M129.072,234.137H131.2a1.066,1.066,0,1,0,0-2.132h-2.132a1.066,1.066,0,1,0,0,2.132" transform="translate(-110.951 -201.118)"/>
        <path id="Trazado_1015052" data-name="Trazado 1015052" d="M177.072,234.137H179.2a1.066,1.066,0,1,0,0-2.132h-2.132a1.066,1.066,0,1,0,0,2.132" transform="translate(-152.556 -201.118)"/>
        <path id="Trazado_1015053" data-name="Trazado 1015053" d="M129.072,92.268a1.066,1.066,0,0,0,1.066-1.066V89.071a1.066,1.066,0,1,0-2.132,0V91.2a1.066,1.066,0,0,0,1.066,1.066" transform="translate(-110.951 -76.304)"/>
        <path id="Trazado_1015054" data-name="Trazado 1015054" d="M129.072,140.268a1.066,1.066,0,0,0,1.066-1.066v-2.132a1.066,1.066,0,1,0-2.132,0V139.2a1.066,1.066,0,0,0,1.066,1.066" transform="translate(-110.951 -117.908)"/>
        <path id="Trazado_1015055" data-name="Trazado 1015055" d="M129.072,188.269a1.066,1.066,0,0,0,1.066-1.066v-2.132a1.066,1.066,0,1,0-2.132,0V187.2a1.066,1.066,0,0,0,1.066,1.066" transform="translate(-110.951 -159.513)"/>
        <path id="Trazado_1015056" data-name="Trazado 1015056" d="M129.072,264.005a1.066,1.066,0,0,0-1.066,1.066V267.2a1.066,1.066,0,0,0,2.132,0v-2.132a1.066,1.066,0,0,0-1.066-1.066" transform="translate(-110.951 -228.854)"/>
        <path id="Trazado_1015057" data-name="Trazado 1015057" d="M129.072,312.005a1.066,1.066,0,0,0-1.066,1.066V315.2a1.066,1.066,0,1,0,2.132,0v-2.132a1.066,1.066,0,0,0-1.066-1.066" transform="translate(-110.951 -270.459)"/>
        <path id="Trazado_1015058" data-name="Trazado 1015058" d="M129.072,392.005a1.066,1.066,0,0,0-1.066,1.066V395.2a1.066,1.066,0,0,0,2.132,0v-2.132a1.066,1.066,0,0,0-1.066-1.066" transform="translate(-110.951 -339.8)"/>
      </g>
    </g>
  </g>
</svg>
