<svg xmlns="http://www.w3.org/2000/svg" xmlns:xlink="http://www.w3.org/1999/xlink" width="107" height="107" viewBox="0 0 107 107">
  <defs>
    <clipPath id="clip-path">
      <rect id="Rectángulo_462226" data-name="Rectángulo 462226" width="76.112" height="70.358" fill="none"/>
    </clipPath>
  </defs>
  <g id="Grupo_1195826" data-name="Grupo 1195826" transform="translate(-203 -4268.434)">
    <g id="Grupo_1195788" data-name="Grupo 1195788" transform="translate(-275 16.011)">
      <g id="Grupo_156312" data-name="Grupo 156312" transform="translate(189.332 -196.014)">
        <path id="Elipse_5845" data-name="Elipse 5845" d="M53.5,0A53.5,53.5,0,1,1,0,53.5,53.5,53.5,0,0,1,53.5,0Z" transform="translate(288.668 4448.437)" fill="#bbc3dc"/>
      </g>
      <g id="Grupo_1195402" data-name="Grupo 1195402" transform="translate(496.917 4268.434)">
        <g id="Grupo_1195401" data-name="Grupo 1195401" clip-path="url(#clip-path)">
          <path id="Trazado_1015715" data-name="Trazado 1015715" d="M167.937,145.122V93.57H196.03V134.4c-5.846.52-10.19,3.167-11.065,10.721Z" transform="translate(-139.546 -77.751)" fill="#fbd89d" fill-rule="evenodd"/>
          <path id="Trazado_1015716" data-name="Trazado 1015716" d="M53.541,66.837H47.75c-.876,7.555-5.219,10.2-11.065,10.721v38.069H70.4V77.558c-5.846-.52-10.19-3.167-11.065-10.721Z" transform="translate(-30.483 -55.538)" fill="#2ed19b" fill-rule="evenodd"/>
          <path id="Trazado_1015717" data-name="Trazado 1015717" d="M238.969,44.339a6.017,6.017,0,1,1-7.816,3.036L201.8,32.982l2.572-1.289a5.068,5.068,0,0,1,4.381-.14ZM237.4,48.047a1.991,1.991,0,1,0,1.058,2.61,1.991,1.991,0,0,0-1.058-2.61" transform="translate(-167.688 -25.861)" fill="#ffbf31" fill-rule="evenodd"/>
          <path id="Trazado_1015718" data-name="Trazado 1015718" d="M238.969,18.366a6.017,6.017,0,1,0-7.816-3.036L201.8,29.723l2.572,1.289a5.068,5.068,0,0,0,4.381.14ZM237.4,14.658a1.991,1.991,0,1,1,1.058-2.61,1.991,1.991,0,0,1-1.058,2.61" transform="translate(-167.688 -5.656)" fill="#ffbf31" fill-rule="evenodd"/>
          <path id="Trazado_1015719" data-name="Trazado 1015719" d="M23.057,14.2A1.155,1.155,0,0,0,21.9,15.354v.93a1.156,1.156,0,0,0,2.312,0v-.93A1.155,1.155,0,0,0,23.057,14.2m6.456,23.818h-.934a1.153,1.153,0,0,0,0,2.306h.934a1.153,1.153,0,1,0,0-2.306m-6.456-6.781A1.155,1.155,0,0,0,21.9,32.39v.93a1.156,1.156,0,0,0,2.312,0v-.93a1.155,1.155,0,0,0-1.156-1.153m0-5.678A1.154,1.154,0,0,0,21.9,26.713v.928a1.156,1.156,0,0,0,2.312,0v-.928a1.154,1.154,0,0,0-1.156-1.153M35.191,38.019h-.934a1.153,1.153,0,0,0,0,2.306h.934a1.153,1.153,0,1,0,0-2.306M23.057,19.88A1.155,1.155,0,0,0,21.9,21.033v.93a1.156,1.156,0,0,0,2.312,0v-.93a1.155,1.155,0,0,0-1.156-1.153m46.207,3.367a.839.839,0,1,0,.444,1.1.84.84,0,0,0-.444-1.1m2.571,2a3.148,3.148,0,1,1-1.674-4.12,3.157,3.157,0,0,1,1.674,4.12m-1.008-5.7a4.862,4.862,0,1,1-6.317,2.453,1.149,1.149,0,0,0-.546-1.52l-3.792-1.808,4.291-1.819Zm0-7.892L40.62,24.434a3.906,3.906,0,0,1-3.413-.109l-.5-.246L63.973,10.71a1.142,1.142,0,0,0,.536-1.516,4.866,4.866,0,1,1,6.317,2.455M55.335,20.714V55.621c-6.308.868-9.887,4.346-10.923,10.6H29.54V61.243H39.917a1.153,1.153,0,0,0,1.147-1.153V26.729c.148-.052.305-.107.453-.171ZM38.761,58.937H7.353V23.05c6.308-.868,9.887-4.346,10.913-10.6h9.582c.823,5.008,3.265,8.227,7.436,9.76l-1.674.819A1.152,1.152,0,0,0,33.6,25.1l2.571,1.288a6.376,6.376,0,0,0,2.59.687V58.937ZM31.945,16.973a9.381,9.381,0,0,0,6.483,3.693l7.538-3.693Zm19.505-2.692L54.669,12.7,40.62,6.755a3.906,3.906,0,0,0-3.413.11l-.49.243Zm24.13,7.046a7.169,7.169,0,1,1-13.327,5.287,7.054,7.054,0,0,1-.231-4.509l-4.384-2.093V56.65a1.153,1.153,0,0,1-1.054,1.15c-6.215.552-9.3,3.545-10.016,9.7a1.161,1.161,0,0,1-1.147,1.021H28.393a1.155,1.155,0,0,1-1.156-1.153V61.243H6.2A1.153,1.153,0,0,1,5.05,60.09V22.022a1.152,1.152,0,0,1,1.045-1.15c6.224-.552,9.313-3.545,10.026-9.7a1.154,1.154,0,0,1,1.147-1.021H28.847a1.154,1.154,0,0,1,1.147,1.021,15.437,15.437,0,0,0,.777,3.5h16.2L33.61,8.159A1.154,1.154,0,0,1,33.6,6.091L36.171,4.8a6.2,6.2,0,0,1,5.346-.172l15.9,6.728L62.021,9.1a7.171,7.171,0,1,1,9.711,4.677l-4.31,1.822,4.31,1.822A7.147,7.147,0,0,1,75.58,21.327Zm-25.008,19h.934a1.153,1.153,0,0,0,0-2.306h-.934a1.153,1.153,0,1,0,0,2.306m-5.679,0h.934a1.153,1.153,0,0,0,0-2.306h-.934a1.153,1.153,0,1,0,0,2.306M69.707,6.843a.836.836,0,1,0-.444,1.1A.835.835,0,0,0,69.707,6.843Zm.453,3.223a3.144,3.144,0,1,0-4.143-4.077A3.148,3.148,0,0,0,70.161,10.065ZM17.535,38.019H16.6a1.153,1.153,0,1,0,0,2.306h.934a1.153,1.153,0,0,0,0-2.306M1.156,16.982a1.155,1.155,0,0,0,1.156-1.153V10.457H7.676a1.153,1.153,0,1,0,0-2.306H1.156A1.155,1.155,0,0,0,0,9.3v6.525a1.155,1.155,0,0,0,1.156,1.153m59.9,44.547A1.154,1.154,0,0,0,59.9,62.682v5.37H54.53a1.153,1.153,0,0,0,0,2.306h6.53a1.154,1.154,0,0,0,1.156-1.153V62.682a1.154,1.154,0,0,0-1.156-1.153M7.676,68.053H2.312v-5.37a1.156,1.156,0,0,0-2.312,0v6.524a1.154,1.154,0,0,0,1.156,1.153h6.52a1.153,1.153,0,1,0,0-2.306m4.18-30.034h-.934a1.153,1.153,0,1,0,0,2.306h.934a1.153,1.153,0,0,0,0-2.306m11.2-1.1A1.155,1.155,0,0,0,21.9,38.069V39a1.156,1.156,0,0,0,2.312,0v-.93a1.155,1.155,0,0,0-1.156-1.153m0,5.679A1.155,1.155,0,0,0,21.9,43.749v.93a1.156,1.156,0,0,0,2.312,0v-.93A1.155,1.155,0,0,0,23.057,42.6m0,11.357A1.155,1.155,0,0,0,21.9,55.106v.93a1.156,1.156,0,0,0,2.312,0v-.93a1.155,1.155,0,0,0-1.156-1.153m1.156-4.525a1.156,1.156,0,0,0-2.312,0v.929a1.156,1.156,0,0,0,2.312,0Z" transform="translate(0 0)" fill="#1e2f3f" fill-rule="evenodd"/>
        </g>
      </g>
    </g>
  </g>
</svg>
