<svg xmlns="http://www.w3.org/2000/svg" xmlns:xlink="http://www.w3.org/1999/xlink" width="396" height="719" viewBox="0 0 396 719">
  <defs>
    <clipPath id="clip-path">
      <rect id="Rectángulo_462308" data-name="Rectángulo 462308" width="396" height="719" transform="translate(185.711 5967)" fill="#fff" stroke="#707070" stroke-width="1"/>
    </clipPath>
    <clipPath id="clip-path-2">
      <rect id="Rectángulo_462307" data-name="Rectángulo 462307" width="328.139" height="409.35" fill="none"/>
    </clipPath>
    <clipPath id="clip-path-3">
      <rect id="Rectángulo_462283" data-name="Rectángulo 462283" width="383.491" height="431.726" fill="none"/>
    </clipPath>
  </defs>
  <g id="Grupo_1195832" data-name="Grupo 1195832" transform="translate(-185.711 -5783)">
    <g id="Enmascarar_grupo_1193134" data-name="Enmascarar grupo 1193134" transform="translate(0 -184)" clip-path="url(#clip-path)">
      <g id="Grupo_1195571" data-name="Grupo 1195571">
        <g id="Grupo_1195570" data-name="Grupo 1195570" transform="translate(253.861 5966.999)">
          <g id="Grupo_1195569" data-name="Grupo 1195569" transform="translate(0 0.001)" clip-path="url(#clip-path-2)">
            <path id="Trazado_1016322" data-name="Trazado 1016322" d="M401.028,3.628a12.394,12.394,0,0,0-21.155,8.764V34.423a12.391,12.391,0,0,0,24.782,0V12.392a12.368,12.368,0,0,0-3.627-8.764m-8.763,16.906a7.6,7.6,0,1,1,7.6-7.6,7.6,7.6,0,0,1-7.6,7.6" transform="translate(-244.178 -0.001)" fill="#0f393a"/>
            <path id="Trazado_1016323" data-name="Trazado 1016323" d="M774.788,516.259H737.781a10.187,10.187,0,0,0-10.187,10.187V730.332a10.187,10.187,0,0,0,10.187,10.187h37.006a10.187,10.187,0,0,0,10.187-10.187V526.446a10.187,10.187,0,0,0-10.187-10.187" transform="translate(-467.69 -331.846)" fill="#265e66"/>
            <path id="Trazado_1016324" data-name="Trazado 1016324" d="M766.363,554.119H707.79A10.187,10.187,0,0,0,697.6,564.306V741.146a10.187,10.187,0,0,0,10.187,10.187h58.574a10.187,10.187,0,0,0,10.187-10.187V564.306a10.187,10.187,0,0,0-10.187-10.187" transform="translate(-448.411 -356.182)" fill="#25a77c"/>
            <rect id="Rectángulo_462284" data-name="Rectángulo 462284" width="286.538" height="375.381" transform="translate(0 33.968)" fill="#0f393a"/>
            <rect id="Rectángulo_462285" data-name="Rectángulo 462285" width="272.554" height="357.062" transform="translate(6.992 43.128)" fill="#fffffd"/>
            <rect id="Rectángulo_462286" data-name="Rectángulo 462286" width="115.558" height="16.589" transform="translate(90.307 30.223)" fill="#194b4f"/>
            <rect id="Rectángulo_462287" data-name="Rectángulo 462287" width="5.723" height="45.655" transform="translate(87.445 315.368)" fill="#194b4f"/>
            <rect id="Rectángulo_462288" data-name="Rectángulo 462288" width="5.723" height="45.655" transform="translate(87.445 247.815)" fill="#194b4f"/>
            <rect id="Rectángulo_462289" data-name="Rectángulo 462289" width="5.723" height="45.655" transform="translate(87.445 173.651)" fill="#194b4f"/>
            <rect id="Rectángulo_462290" data-name="Rectángulo 462290" width="5.723" height="45.655" transform="translate(87.445 106.097)" fill="#194b4f"/>
            <path id="Trazado_1016325" data-name="Trazado 1016325" d="M664.059,263.416V278.17L676.78,271.4Z" transform="translate(-426.85 -169.321)" fill="#194b4f"/>
            <path id="Trazado_1016326" data-name="Trazado 1016326" d="M347.6,263.416V278.17L334.88,271.4Z" transform="translate(-215.257 -169.321)" fill="#194b4f"/>
            <path id="Trazado_1016327" data-name="Trazado 1016327" d="M498.872,328.653h-2.025a.085.085,0,0,1-.056.014,68.807,68.807,0,0,1-37.59.028c-.056-.014-.1-.028-.142-.042h-2.548l-1.246,2.832h1.585q.255,1.1.552,2.166l.977-2.223c.411.128.906.269,1.487.439a71.58,71.58,0,0,0,36.273-.085,1.673,1.673,0,0,0,.255-.056l.722,5.875a31.337,31.337,0,0,0,2.01-6.116h.085Z" transform="translate(-292.639 -211.255)" fill="#0f393a"/>
            <path id="Trazado_1016328" data-name="Trazado 1016328" d="M460.7,356.516l-.424-.736h-.509c-1.9-1.175-12.9-9.741-28.473-22.158-3.483-2.775-5.819-4.658-5.819-4.658l-.4-.311H407.107v.014l-.212,1.133c-.127.679-.269,1.345-.439,1.982-2.435,9.656-8.664,15.4-18.151,16.707-9.458-1.3-15.7-7.023-18.122-16.622-.185-.665-.34-1.359-.468-2.067l-.2-1.1-.014-.042H351.522l-.382.311s-2.35,1.883-5.833,4.658c-15.6,12.445-26.617,21.012-28.472,22.172h-.524l-.41.722c-.51.921-.849,1.529,17.131,30.95l.609.991,11.143-4.134v64.222h87.045V384.323l11.128,4.134.608-.991c18-29.421,17.656-30.03,17.131-30.95m-18.929,28.473L429,380.246v65.467H347.615V380.246l-12.771,4.743c-5.734-9.4-14.158-23.475-15.984-27.2,2.492-1.671,9.1-6.711,28.217-21.96,2.648-2.109,4.644-3.71,5.451-4.347h14.64q.255,1.1.552,2.166c2.96,10.109,10.1,16.339,20.4,17.669l.184.028.184-.028c8.877-1.147,15.419-5.932,18.944-13.719a31.35,31.35,0,0,0,2.01-6.116h14.639c.808.637,2.789,2.237,5.451,4.347,19.1,15.248,25.726,20.289,28.218,21.96-1.841,3.724-10.251,17.8-15.985,27.2" transform="translate(-202.956 -211.255)" fill="#0f393a"/>
            <rect id="Rectángulo_462291" data-name="Rectángulo 462291" width="1.734" height="6.873" transform="translate(184.033 228.387)" fill="#0f393a"/>
            <rect id="Rectángulo_462292" data-name="Rectángulo 462292" width="1.734" height="6.873" transform="translate(184.033 216.267)" fill="#0f393a"/>
            <rect id="Rectángulo_462293" data-name="Rectángulo 462293" width="1.734" height="6.873" transform="translate(184.033 204.147)" fill="#0f393a"/>
            <rect id="Rectángulo_462294" data-name="Rectángulo 462294" width="1.734" height="6.873" transform="translate(184.033 192.028)" fill="#0f393a"/>
            <rect id="Rectángulo_462295" data-name="Rectángulo 462295" width="1.734" height="6.873" transform="translate(184.033 178.392)" fill="#0f393a"/>
            <rect id="Rectángulo_462296" data-name="Rectángulo 462296" width="1.734" height="6.873" transform="translate(184.033 166.273)" fill="#0f393a"/>
            <rect id="Rectángulo_462297" data-name="Rectángulo 462297" width="1.734" height="6.873" transform="translate(184.033 154.153)" fill="#0f393a"/>
            <rect id="Rectángulo_462298" data-name="Rectángulo 462298" width="1.734" height="6.873" transform="translate(184.033 142.033)" fill="#0f393a"/>
            <path id="Trazado_1016329" data-name="Trazado 1016329" d="M384.052,708.883v94.34h42.561l6.063-49.942,2.938,49.942h41.859l2-94.34Zm91.711,92.592h-38.5l-3.412-57.985-1.74-.054-7.045,58.038H385.8V710.631h91.892Z" transform="translate(-246.864 -455.662)" fill="#0f393a"/>
            <rect id="Rectángulo_462299" data-name="Rectángulo 462299" width="1.07" height="4.241" transform="matrix(0.997, -0.074, 0.074, 0.997, 193.355, 337.145)" fill="#0f393a"/>
            <rect id="Rectángulo_462300" data-name="Rectángulo 462300" width="1.07" height="4.241" transform="translate(192.797 329.687) rotate(-4.286)" fill="#0f393a"/>
            <rect id="Rectángulo_462301" data-name="Rectángulo 462301" width="1.07" height="4.241" transform="translate(192.241 322.229) rotate(-4.27)" fill="#0f393a"/>
            <rect id="Rectángulo_462302" data-name="Rectángulo 462302" width="1.07" height="4.241" transform="translate(191.683 314.771) rotate(-4.289)" fill="#0f393a"/>
            <rect id="Rectángulo_462303" data-name="Rectángulo 462303" width="1.07" height="4.241" transform="translate(191.056 306.38) rotate(-4.289)" fill="#0f393a"/>
            <rect id="Rectángulo_462304" data-name="Rectángulo 462304" width="1.07" height="4.242" transform="matrix(0.997, -0.074, 0.074, 0.997, 190.5, 298.922)" fill="#0f393a"/>
            <rect id="Rectángulo_462305" data-name="Rectángulo 462305" width="1.07" height="4.241" transform="translate(189.942 291.464) rotate(-4.289)" fill="#0f393a"/>
            <rect id="Rectángulo_462306" data-name="Rectángulo 462306" width="1.07" height="4.242" transform="matrix(0.997, -0.074, 0.074, 0.997, 189.385, 284.006)" fill="#0f393a"/>
          </g>
        </g>
        <g id="Grupo_1195568" data-name="Grupo 1195568" transform="translate(186 6254)">
          <g id="Grupo_1195567" data-name="Grupo 1195567" clip-path="url(#clip-path-3)">
            <path id="Trazado_1016262" data-name="Trazado 1016262" d="M202.266,513.2s23.683-30.357,44.334-38.662,24.04-15.932,23.7-17.457-6.942-.479-10.729,2.029c-3.038,2.012-18.254,6.785-24.864,5.937s-25.762,2.034-33.559,15.593S196.7,511.3,202.266,513.2" transform="translate(-108.418 -251.72)" fill="#6f7e23"/>
            <path id="Trazado_1016263" data-name="Trazado 1016263" d="M67.509,684.783s-5.569-1.753-9.906,0-7.735.514-12.774-2.429-17.43-.619-17.43-1.549,5.421-6.35,16.108-6.35,19.347,1.577,20.6,5.2a10.7,10.7,0,0,0,3.4,5.125" transform="translate(-15.113 -372.009)" fill="#6f7e23"/>
            <path id="Trazado_1016264" data-name="Trazado 1016264" d="M171.286,361.132v1.288s-3.064,21.179-3.845,21.374-6.562,18.169-6.562,18.169l-1.187,19.563s-3.582.169-9.778-3.348-6.308-7.229-6.308-9.378-4.3-2.344-4.884-15.043,31.719-32.048,32.564-32.626" transform="translate(-76.511 -199.19)" fill="#5d6619"/>
            <path id="Trazado_1016265" data-name="Trazado 1016265" d="M178.46,369.987s12.321-24.431,21.074-34.613S224.892,308.81,234.27,300.6s18.56-16.216,16.606-28.719,0,5.861-18.365,17-49.819,16.606-56.657,37.9-.2,24.852-.782,25.516-1.822,13.806,3.387,17.687" transform="translate(-95.278 -147.65)" fill="#6f7e23"/>
            <path id="Trazado_1016266" data-name="Trazado 1016266" d="M195.329,515.516c-.081.169-7.329,12.806-7.184,19.165s4.793,11.88,9.478,11.143l.927-10.275Z" transform="translate(-103.774 -284.343)" fill="#5d6619"/>
            <path id="Trazado_1016267" data-name="Trazado 1016267" d="M202.85,558.724c3.061-4.8,9.23-7.024,12-12a36.715,36.715,0,0,1,2.139-4.109,9.911,9.911,0,0,1,5.554-3.406,63.942,63.942,0,0,1,6.553-1.06c8.522-1.343,16.287-5.67,23.362-10.607a18.92,18.92,0,0,0,3.924-3.363,1.719,1.719,0,0,1,.111-.136,8.766,8.766,0,0,0,.664-.965l-.336.677a1.573,1.573,0,0,1,1.663-.157,2.907,2.907,0,0,1,1.161,1.871,13.1,13.1,0,0,1-.818,8.974c-2.733,5.72-9.421,9.06-11.273,15.122-.563,1.841-.629,3.822-1.347,5.608-1.163,2.9-3.854,4.867-6.544,6.447s-5.581,2.983-7.642,5.325c-4.185,4.757-4.134,12.444-8.946,16.565a13.335,13.335,0,0,1-8.554,2.844,39.681,39.681,0,0,1-9.084-1.311,2.631,2.631,0,0,1-2.6-2.629l-1.142-6.178c-1.091-5.9-2.065-12.457,1.162-17.516" transform="translate(-110.672 -288.516)" fill="#6f7e23"/>
            <path id="Trazado_1016268" data-name="Trazado 1016268" d="M227.173,551.385a74.96,74.96,0,0,0-7.514,4.766q-3.626,2.579-7.032,5.441a123.258,123.258,0,0,0-12.708,12.383,121.931,121.931,0,0,0-19.337,29.471,120.674,120.674,0,0,0-5.789,16.63c-1.565,5.68-2.854,11.442-3.971,17.239s-2.047,11.633-2.839,17.487-1.464,11.748-1.931,17.576l-4.711-.423c.683-6,1.558-11.877,2.554-17.778s2.145-11.756,3.461-17.588,2.827-11.625,4.611-17.345a119.738,119.738,0,0,1,40.29-58.108q3.514-2.758,7.236-5.227a75.174,75.174,0,0,1,7.68-4.524" transform="translate(-88.99 -304.128)" fill="#1b3915"/>
            <path id="Trazado_1016269" data-name="Trazado 1016269" d="M.441,492.027A2.91,2.91,0,0,1,1.6,490.155a1.575,1.575,0,0,1,1.663.157l-.336-.678a8.862,8.862,0,0,0,.664.965,1.623,1.623,0,0,1,.111.137A18.9,18.9,0,0,0,7.628,494.1c7.075,4.938,14.84,9.264,23.362,10.607a64.04,64.04,0,0,1,6.553,1.06A9.912,9.912,0,0,1,43.1,509.17a36.684,36.684,0,0,1,2.139,4.109c2.767,4.974,8.935,7.2,12,12,3.227,5.058,2.253,11.615,1.162,17.515l-1.142,6.178a2.632,2.632,0,0,1-2.6,2.629,39.662,39.662,0,0,1-9.085,1.312,13.333,13.333,0,0,1-8.554-2.843c-4.812-4.122-4.761-11.808-8.945-16.565-2.061-2.343-4.952-3.746-7.642-5.326s-5.381-3.552-6.544-6.446c-.718-1.787-.784-3.768-1.347-5.609C10.68,510.06,3.992,506.72,1.26,501a13.1,13.1,0,0,1-.818-8.973" transform="translate(0 -270.068)" fill="#6f7e23"/>
            <path id="Trazado_1016270" data-name="Trazado 1016270" d="M25.038,517.939a75.059,75.059,0,0,1,7.648,4.5q3.7,2.454,7.207,5.2A123.844,123.844,0,0,1,53.05,539.622q3.056,3.243,5.905,6.682c1.869,2.313,3.711,4.656,5.412,7.1.883,1.2,1.681,2.459,2.523,3.688.8,1.259,1.617,2.5,2.377,3.787s1.535,2.558,2.243,3.871c.359.655.731,1.3,1.08,1.962l1.023,2.016a87.519,87.519,0,0,1,3.442,8.322c1,2.826,1.863,5.691,2.66,8.572.778,2.886,1.468,5.791,2.1,8.708q.918,4.379,1.668,8.788c.986,5.878,1.758,11.787,2.352,17.714s1.035,11.843,1.238,17.868l-4.73.04c0-5.8-.243-11.714-.626-17.563s-.953-11.711-1.729-17.529q-.587-4.363-1.349-8.7c-.524-2.884-1.1-5.756-1.771-8.606-.684-2.844-1.436-5.671-2.314-8.455a85.207,85.207,0,0,0-3.063-8.175l-.919-1.972c-.317-.656-.664-1.3-.994-1.958-.653-1.313-1.371-2.591-2.078-3.875s-1.473-2.536-2.215-3.8c-.789-1.236-1.535-2.5-2.365-3.714-1.6-2.466-3.337-4.835-5.108-7.182q-2.693-3.493-5.622-6.8A122.914,122.914,0,0,0,39.525,528.1q-3.391-2.843-7-5.414a74.949,74.949,0,0,0-7.482-4.743" transform="translate(-13.81 -285.68)" fill="#1b3915"/>
            <path id="Trazado_1016271" data-name="Trazado 1016271" d="M46.883,680.908a46.217,46.217,0,0,1,11.579-.557,43.055,43.055,0,0,1,11.422,2.372,35.408,35.408,0,0,1,10.267,5.731A36.155,36.155,0,0,1,88,697.323a49.869,49.869,0,0,1,5,10.755,74.253,74.253,0,0,1,2.778,11.5,102.812,102.812,0,0,1,1.185,11.745q.131,2.949.1,5.907c-.019,1.986-.077,3.914-.239,5.976l-4.7-.553c.243-1.78.415-3.71.537-5.583q.184-2.832.22-5.679a99.073,99.073,0,0,0-.5-11.357,71.19,71.19,0,0,0-2.034-11.148,45.315,45.315,0,0,0-4.189-10.456A33.544,33.544,0,0,0,69.5,683.719a42.247,42.247,0,0,0-11.088-2.837,45.951,45.951,0,0,0-11.527.025" transform="translate(-25.859 -375.188)" fill="#1b3915"/>
            <path id="Trazado_1016272" data-name="Trazado 1016272" d="M224.169,498.759a90.583,90.583,0,0,0-8.972,5.377c-2.9,1.939-5.7,4.02-8.416,6.2a126.656,126.656,0,0,0-15.133,14.332,114.747,114.747,0,0,0-12.383,16.676c-1.816,2.936-3.454,6.017-4.955,9.085a64.239,64.239,0,0,0-3.45,9.669,161.341,161.341,0,0,0-4.037,20.352c-.966,6.872-1.661,13.791-2.2,20.723s-.9,13.881-1.146,20.834-.374,13.926-.334,20.84l-4.73-.009c.142-7.051.46-14.03.882-21.033s.982-13.983,1.7-20.959,1.6-13.939,2.761-20.868a164.07,164.07,0,0,1,4.648-20.6,66.552,66.552,0,0,1,3.845-9.942,104.188,104.188,0,0,1,5.352-9.139,116.328,116.328,0,0,1,13.081-16.516,127.7,127.7,0,0,1,15.7-13.962c2.8-2.1,5.674-4.1,8.639-5.953a90.846,90.846,0,0,1,9.151-5.1" transform="translate(-87.378 -275.101)" fill="#1b3915"/>
            <path id="Trazado_1016273" data-name="Trazado 1016273" d="M219.274,348.563a220.747,220.747,0,0,0-20.808,20.213,194.559,194.559,0,0,0-17.855,22.774,120.93,120.93,0,0,0-13.17,25.543,93.072,93.072,0,0,0-3.322,13.925c-.817,4.739-1.458,9.518-2.017,14.309-1.1,9.586-1.874,19.221-2.5,28.865s-1.083,19.306-1.451,28.97q-1.078,28.987-1.135,58.008l-4.73-.033q.552-29.119,2.122-58.148c.532-9.683,1.16-19.362,1.947-29.033s1.728-19.334,3-28.971c.644-4.817,1.373-9.628,2.282-14.418a95.162,95.162,0,0,1,3.662-14.244,122.081,122.081,0,0,1,14.052-25.628,195.582,195.582,0,0,1,18.555-22.435,221.171,221.171,0,0,1,21.365-19.7" transform="translate(-83.998 -192.257)" fill="#1b3915"/>
            <path id="Trazado_1016274" data-name="Trazado 1016274" d="M112.577,792.3v38.227a20.409,20.409,0,0,0,20.409,20.409h.957a20.41,20.41,0,0,0,20.41-20.409V792.3Z" transform="translate(-62.094 -437.01)" fill="#c9965f"/>
            <rect id="Rectángulo_462281" data-name="Rectángulo 462281" width="47.097" height="13.604" transform="translate(47.554 355.292)" fill="#b58348"/>
            <path id="Trazado_1016275" data-name="Trazado 1016275" d="M218.9,397.1a10.518,10.518,0,0,0-1.931,4.093c-.294,1.291-.437,2.8-1.523,3.558s-2.59.365-3.826-.135q-1.224-.494-2.406-1.083c-.632-.315-1.336-.774-1.364-1.48a1.787,1.787,0,0,1,.325-.967c1.516-2.5,4.447-3.73,7.226-4.652,1.266-.42,2.544-.815,3.774-1.336a7.131,7.131,0,0,1,2.428-.934c-.717,1.073-1.9,1.9-2.7,2.936" transform="translate(-114.642 -217.41)" fill="#ffc1af"/>
            <path id="Trazado_1016276" data-name="Trazado 1016276" d="M246.947,871.98c1.155,1.3,11.207,1.674,13.018,3.529s5.6,7.431,9.228,8.361,19.773,1.672,21.752-1.488a8.129,8.129,0,0,0,.674-4.6c-.362-4.623-2.887-10.794-8.088-12.487-7.417-2.414-12.2-12.63-12.03-15.789s-2-6.849-3.388-7.324-10.289-.478-10.289-.478l-2.307-20.51-1.436,21.494s-3.671,1.98-4.991,4.029c-1.01,1.566-2.4,14.789-2.485,21.477-.026,2.047.074,3.484.343,3.787" transform="translate(-136.017 -452.946)" fill="#c8d9e8"/>
            <path id="Trazado_1016277" data-name="Trazado 1016277" d="M285.577,764.279s-7.621,47.639-9.423,49.514-8.314,2.968-13.025-2.5c0,0-.277-44.36,0-44.516s22.448-2.5,22.448-2.5" transform="translate(-145.066 -421.554)" fill="#fbc3b1"/>
            <path id="Trazado_1016278" data-name="Trazado 1016278" d="M271.65,873.586c-.455-.211,3.245,9.26,5.47,12.464s10.629,10.17,13.1,9.613,4.7-1.254,4.573-1.95-8.6-5.6-9.824-11.869a51.059,51.059,0,0,0-3.532-10s-2.084,5.315-9.788,1.743" transform="translate(-149.813 -480.883)" fill="#7d9bc6"/>
            <path id="Trazado_1016279" data-name="Trazado 1016279" d="M246.947,929.789c1.155,1.3,11.207,1.674,13.018,3.529s5.6,7.431,9.228,8.361,19.773,1.672,21.752-1.488a8.129,8.129,0,0,0,.674-4.6,6.8,6.8,0,0,1-3.572,3.324c-2.4.938-20.507-.521-21.339-.936s-5.173-6.77-6.1-8.226c-.913-1.44-13.73-3.7-14.007-3.749-.026,2.047.074,3.484.343,3.787" transform="translate(-136.017 -510.755)" fill="#2e334d"/>
            <path id="Trazado_1016280" data-name="Trazado 1016280" d="M307.922,920.019a5,5,0,0,1,6.687-2.8.369.369,0,0,1,.19.478.3.3,0,0,1-.389.2,4.379,4.379,0,0,0-5.928,2.462.3.3,0,0,1-.409.156l0,0a.379.379,0,0,1-.148-.491" transform="translate(-169.821 -505.695)" fill="#2e334d"/>
            <path id="Trazado_1016281" data-name="Trazado 1016281" d="M301.255,916.411a5.792,5.792,0,0,1,7.374-3.856.414.414,0,0,1,.254.524.352.352,0,0,1-.426.263,5.067,5.067,0,0,0-6.538,3.4.344.344,0,0,1-.452.218l0,0a.426.426,0,0,1-.208-.542" transform="translate(-166.147 -503.199)" fill="#2e334d"/>
            <path id="Trazado_1016282" data-name="Trazado 1016282" d="M295.507,911.928a6.2,6.2,0,0,1,7.745-3.889.406.406,0,0,1,.265.523.374.374,0,0,1-.448.265,5.424,5.424,0,0,0-6.866,3.425.368.368,0,0,1-.475.22l0,0a.416.416,0,0,1-.216-.542" transform="translate(-162.976 -500.713)" fill="#2e334d"/>
            <path id="Trazado_1016283" data-name="Trazado 1016283" d="M289.775,906.76c2.1-4.948,6.887-4.275,8.337-3.942a.4.4,0,0,1,.282.521.411.411,0,0,1-.482.268c-1.266-.309-5.513-.97-7.392,3.471a.409.409,0,0,1-.511.223l0,0a.4.4,0,0,1-.229-.54" transform="translate(-159.813 -497.841)" fill="#2e334d"/>
            <path id="Trazado_1016284" data-name="Trazado 1016284" d="M284.4,901.112c2.312-4.967,7.517-4.331,9.092-4.009a.389.389,0,0,1,.3.519.46.46,0,0,1-.526.272c-1.375-.3-5.991-.928-8.061,3.531a.464.464,0,0,1-.557.228l-.005,0a.389.389,0,0,1-.246-.539" transform="translate(-156.843 -494.696)" fill="#2e334d"/>
            <path id="Trazado_1016285" data-name="Trazado 1016285" d="M279.05,894.229c2.638-5,8.476-4.416,10.242-4.111a.381.381,0,0,1,.336.517.543.543,0,0,1-.593.278c-1.541-.285-6.718-.863-9.08,3.621a.556.556,0,0,1-.628.234l-.006,0a.373.373,0,0,1-.271-.537" transform="translate(-153.892 -490.856)" fill="#2e334d"/>
            <path id="Trazado_1016286" data-name="Trazado 1016286" d="M275.208,886.476c2.874-5.017,9.168-4.478,11.071-4.185.3.046.468.286.36.514a.608.608,0,0,1-.641.282c-1.661-.274-7.242-.816-9.815,3.687a.628.628,0,0,1-.678.239l-.006,0c-.285-.072-.415-.316-.29-.535" transform="translate(-151.77 -486.548)" fill="#2e334d"/>
            <path id="Trazado_1016287" data-name="Trazado 1016287" d="M467.751,843.879c1.387.971,11.251-1.242,13.389.1s6.956,5.8,10.673,5.776,19.593-3.44,20.882-7.024a8.206,8.206,0,0,0-.272-4.654c-1.285-4.409-4.989-9.771-10.4-10.087-7.71-.45-14.425-9.173-14.9-12.292s-3.325-6.158-4.776-6.264-10.116,2.172-10.116,2.172l-6.384-19.382,2.937,21.3s-3.176,2.869-4.048,5.2c-.668,1.785.642,15.018,1.913,21.552.388,2,.775,3.374,1.1,3.6" transform="translate(-256.237 -436.968)" fill="#c8d9e8"/>
            <path id="Trazado_1016288" data-name="Trazado 1016288" d="M474.564,721.105s2.188,48.345.812,50.632-7.5,5.021-13.188.9c0,0-9.218-43.126-8.98-43.349s21.356-8.187,21.356-8.187" transform="translate(-249.974 -397.74)" fill="#fbc3b1"/>
            <path id="Trazado_1016289" data-name="Trazado 1016289" d="M485.064,842.836c-.485-.089,5.028,8.186,7.84,10.736s12.4,7.179,14.7,6,4.321-2.425,4.06-3.072-9.506-3.245-11.961-9.04a47.878,47.878,0,0,0-5.457-8.833s-.958,5.71-9.18,4.205" transform="translate(-267.53 -462.564)" fill="#7d9bc6"/>
            <path id="Trazado_1016290" data-name="Trazado 1016290" d="M471.909,904.289c1.387.971,11.251-1.242,13.389.1s6.956,5.8,10.673,5.776,19.593-3.44,20.882-7.024a8.207,8.207,0,0,0-.272-4.654,7.346,7.346,0,0,1-2.808,4.152c-2.15,1.53-20.075,4.749-20.969,4.558s-6.4-5.266-7.6-6.448-14.117-.083-14.4-.061c.388,2,.775,3.374,1.1,3.6" transform="translate(-259.685 -495.579)" fill="#2e334d"/>
            <path id="Trazado_1016291" data-name="Trazado 1016291" d="M530.134,880.169a5.271,5.271,0,0,1,5.947-4.441.349.349,0,0,1,.282.417.323.323,0,0,1-.339.292,4.61,4.61,0,0,0-5.275,3.917.314.314,0,0,1-.367.257h0a.361.361,0,0,1-.243-.44" transform="translate(-292.401 -483.011)" fill="#2e334d"/>
            <path id="Trazado_1016292" data-name="Trazado 1016292" d="M523.138,878.017a6.139,6.139,0,0,1,6.4-5.645.389.389,0,0,1,.353.445.376.376,0,0,1-.362.365,5.368,5.368,0,0,0-5.682,4.982.365.365,0,0,1-.4.329h0a.4.4,0,0,1-.312-.475" transform="translate(-288.544 -481.174)" fill="#2e334d"/>
            <path id="Trazado_1016293" data-name="Trazado 1016293" d="M516.643,875a6.573,6.573,0,0,1,6.757-5.772.383.383,0,0,1,.363.441.4.4,0,0,1-.383.373,5.748,5.748,0,0,0-6,5.1.39.39,0,0,1-.418.336h-.005a.394.394,0,0,1-.319-.472" transform="translate(-284.962 -479.439)" fill="#2e334d"/>
            <path id="Trazado_1016294" data-name="Trazado 1016294" d="M510.03,871.231c1.045-5.356,5.844-5.928,7.324-5.975a.374.374,0,0,1,.379.435.439.439,0,0,1-.415.385,6.389,6.389,0,0,0-6.5,5.274.433.433,0,0,1-.452.349h-.005a.381.381,0,0,1-.332-.468" transform="translate(-281.313 -477.249)" fill="#2e334d"/>
            <path id="Trazado_1016295" data-name="Trazado 1016295" d="M503.667,866.852c1.249-5.429,6.446-6.144,8.045-6.235a.367.367,0,0,1,.4.428.491.491,0,0,1-.457.4c-1.4.06-6.021.632-7.138,5.5a.492.492,0,0,1-.5.365h-.005a.368.368,0,0,1-.348-.462" transform="translate(-277.802 -474.69)" fill="#2e334d"/>
            <path id="Trazado_1016296" data-name="Trazado 1016296" d="M497.1,861.125c1.561-5.541,7.363-6.473,9.145-6.629.283-.025.482.17.431.417a.579.579,0,0,1-.521.422c-1.558.118-6.716.882-8.112,5.854a.59.59,0,0,1-.564.389h-.006a.354.354,0,0,1-.372-.453" transform="translate(-274.175 -471.314)" fill="#2e334d"/>
            <path id="Trazado_1016297" data-name="Trazado 1016297" d="M491.805,854.278c1.786-5.621,8.024-6.71,9.937-6.913.3-.032.513.159.454.409a.648.648,0,0,1-.567.439c-1.673.159-7.217,1.061-8.815,6.106a.665.665,0,0,1-.613.406h-.007c-.292,0-.468-.2-.39-.447" transform="translate(-271.255 -467.379)" fill="#2e334d"/>
            <path id="Trazado_1016298" data-name="Trazado 1016298" d="M262.318,795.266a2.019,2.019,0,0,0-2.438,2.218c0,2.66-1.024,9.309,0,10.2s20.727,5.319,23.286,3.1,1.279-12.633,1.279-12.633l-2.943-2.91Z" transform="translate(-143.091 -438.63)" fill="#c8d9e8"/>
            <path id="Trazado_1016299" data-name="Trazado 1016299" d="M454.978,777.229a2.132,2.132,0,0,0-1.97,2.746c.5,2.6.734,9.343,1.9,9.967s21.256.292,23.345-2.481-1.1-12.654-1.1-12.654l-3.42-2.148Z" transform="translate(-249.829 -426.175)" fill="#c8d9e8"/>
            <path id="Trazado_1016300" data-name="Trazado 1016300" d="M263.03,474.789c2.8,2.368,19.982,4.318,20.33,3.139s23.6-84.71,24.652-90.232,17.365-92.769,17.365-92.769,11.18,86.631,11.53,90.572,11.183,82.962,13.282,83.752,16.784,0,19.582-2.766-1.038-84.4-.69-89.918c.2-3.056-.415-38.246-1-69.086,0-.083,0-.165-.006-.248-.471-24.818-.922-46.749-.922-46.749l3.009-24.759c-1.067-5.679-1.912-9.326-2.176-9.326,0,0-.008,0-.012,0a139.948,139.948,0,0,1-25.093,8.795l-.143.035c-13.293,3.166-28.644,4.216-40.137-2.62l-8.748-20.507s-4.618,11.662-9.06,25.939c-4.207,13.518-8.256,29.377-8.087,39.926.352,21.691-3.148,93.073-2.447,94.651s-6.648,29.974-7,40.626-7.036,59.178-4.235,61.542" transform="translate(-144.702 -116.991)" fill="#2e334d"/>
            <path id="Trazado_1016301" data-name="Trazado 1016301" d="M364.479,55.364s2.935,21.888.968,29.02,14.135,11.9,14.135,11.9,9.6-3.143,9.991-3.464-3.9-22.572.383-33.426-16.907-2.017-16.907-2.017Z" transform="translate(-201.036 -29.776)" fill="#edae9d"/>
            <path id="Trazado_1016302" data-name="Trazado 1016302" d="M183.142,432.581s1.6-.926,1.739-1.833-.465-6.811-.373-7.554,6.236-9.619,6.444-9.684-8.935,5.466-9.129,5.914-1.4,6.72-1.289,6.758,2.608,6.4,2.608,6.4" transform="translate(-99.573 -228.079)" fill="#edae9d"/>
            <path id="Trazado_1016303" data-name="Trazado 1016303" d="M479.863,285.767s7.809,61.441,8.918,63.787,3.456,11.094,3.883,12.373-3.285,10.453-3.883,11.307-8.918,7.68-8.918,5.334,2.987-9.174,4.907-11.734-.426-7.893-1.067-7.68-1.066,11.094-3.84,9.387-17.707-72.747-17.707-72.747l10.453-8.107Z" transform="translate(-254.911 -157.621)" fill="#fbc3b1"/>
            <path id="Trazado_1016304" data-name="Trazado 1016304" d="M253.933,241.435s12.7,8.524,10.556,16.917c-1.63,6.383-24.578,34.486-35.475,47.571-2.054,2.471-3.681,4.4-4.654,5.559a12.984,12.984,0,0,0-1.209,1.03l-8.33-6.706-.1-.082S244,258.27,244.686,258.244l1.106.1Z" transform="translate(-118.432 -133.168)" fill="#fbc3b1"/>
            <path id="Trazado_1016305" data-name="Trazado 1016305" d="M365.75,199.692c-.893,3.165-5.8,5.7-5.8,5.7s-.255-.1-.7-.249c-1.7-.555-6.166-1.712-9.834,0h0a8.065,8.065,0,0,0-3.518,3.191l0,.007s8.031,33.321,10.71,49.768c.683,4.188,1.235,7.964,1.633,11.335q.274,2.3.449,4.339h0q.273,3.219.292,5.818c.024,4.269-.5,7.292-1.7,9.087-2.68,4-12.5,1.051-17.185,2.318a15.467,15.467,0,0,0-1.625.531c-2.945,1.156-2.982,2.394-8.193,2.211-2.831-.1-7.336-1.127-11.849-1.929l-.968-.169a43.107,43.107,0,0,0-8.145-.777h-.043l-.113-3.582-.255-8.058-.373-11.82-1.158,11.843-.257,2.639-.925,9.465a5.47,5.47,0,0,0-.686.28,5.033,5.033,0,0,1-.875.328,13.436,13.436,0,0,1-4.72.2c-.1-.008-.205-.019-.309-.029-6.406-.677-15.1-3.583-19.315-2.819-2.772.5-5.034,1.2-7.249,1.538a13.513,13.513,0,0,1-7.7-.9c-5.578-2.319-14.506-11.178-18.521-11.6s-7.141.843-7.589-2.11c-.3-1.959,14.152-34.756,23.9-56.594l0,0a.008.008,0,0,1,0-.008c.228-.428,6.968-13.046,8.075-17.994.385-.852.594-1.311.594-1.311s-.434-.874-1.084-2.038c-.375-.672-.822-1.44-1.3-2.193-.275-.437-.562-.867-.851-1.272,0,0,0,0,0,0v0h0l0,0a6.294,6.294,0,0,0-2.333-2.3c-2.009-.633-4.463,0-6.695-2.11-1.981-1.87-4.4-10.767-4.917-12.739-.066-.249-.1-.387-.1-.387s4.571-9.226,7.249-11.545-1.115-37.116,10.265-43.442l.429-.236c11.187-6.085,20.3-5.881,22.06-10.048.865-2.036,1.539-3.389,2.007-4.243h0a11.173,11.173,0,0,1,.764-1.253s.688,2.375,1.866,5.343h0c.226.572.472,1.168.735,1.771h0c.039.092.08.184.121.278a38.021,38.021,0,0,0,2.508,4.823c1.649,2.618,3.587,4.615,5.664,4.615,1.791,0,3.71-1.448,5.523-3.483,4.284-4.809,7.972-12.9,7.972-12.9h0c.061.139,4.014,9.022,17.3,11.951,13.392,2.951,15.621,12.654,16.962,16.658s10.713,60.947,9.82,64.109" transform="translate(-131.941 -58.752)" fill="#7d9bc6"/>
            <path id="Trazado_1016306" data-name="Trazado 1016306" d="M169.977,404.926c.2-.129-18.689,11.916-17.778,12.735.783.7,4.257-.728,5.748-1.033s9.521-5.151,9.521-5.151l3.542-3.086Z" transform="translate(-83.931 -223.344)" fill="#ffc1af"/>
            <path id="Trazado_1016307" data-name="Trazado 1016307" d="M309.141,236.867c-2.961,7.769-16.4,25.124-16.607,25.395a.01.01,0,0,1,0-.008c.229-.427,6.969-13.046,8.076-17.994a3.818,3.818,0,0,0,.117-1.5,10.47,10.47,0,0,0-.609-1.845,14.153,14.153,0,0,0-2.152-3.466,0,0,0,0,1,0,0,0,0,0,0,1,0,0h0c.153.087,3.385,1.791,6.268-4.264,2.955-6.206-1.415-42.948,4.906-49.4a64.746,64.746,0,0,0-1.18,19.7c1,11.082,4.166,25.56,1.18,33.39" transform="translate(-161.353 -101.366)" fill="#6183aa"/>
            <path id="Trazado_1016308" data-name="Trazado 1016308" d="M469.142,239.7s-3.389-2.491-4.283-5-1.251-55.063-8.581-65.524c0,0,5.045,16.355,3.774,25.294s1.677,39.291,5.566,48.428a6.861,6.861,0,0,1,3.525-3.2" transform="translate(-251.669 -93.315)" fill="#6183aa"/>
            <path id="Trazado_1016309" data-name="Trazado 1016309" d="M373.8,523.486h0l0,.015c-.062.243-.119.334-.173.252-.064-.1,0-.188.173-.265" transform="translate(-206.07 -288.739)" fill="#c8b3e8"/>
            <path id="Trazado_1016310" data-name="Trazado 1016310" d="M393.461,246.966q-.059-1.782-.143-3.495c-1.264-25.761-5.057-61.166-6.164-74.284-.79-9.36.021-22.874.551-29.85.181-2.394.33-4.019.369-4.44.006-.072.01-.109.01-.109l-11.2-1.024s-.261,1.909-.373,5.4a117.153,117.153,0,0,0,.373,13.266c.954,11.7,2.523,31.452,4.1,50.734,1.019,12.431.33,30.25-.753,43.8v.009c-.6,7.464-1.313,13.63-1.931,16.886-.991,5.221-2.032,19.466-2.892,30.536-.434,5.61-.823,10.406-1.135,12.8a13.151,13.151,0,0,1-.221,1.331,20.2,20.2,0,0,1,4.9-.524c.467-.017.952-.032,1.447-.045l.154-1.569.925-9.464.257-2.64,1.158-11.842.373,11.819.255,8.058.113,3.582.065,2.005h.067c4.124-.028,7.967.051,7.967.051s.033-.448.09-1.279c.144-2.089.439-6.6.752-12.506.67-12.645,1.412-31.709.882-47.206" transform="translate(-206.318 -73.78)" fill="#c8d9e8"/>
            <path id="Trazado_1016311" data-name="Trazado 1016311" d="M391.161,124.272c.094.47-1.14,14.566-1.14,14.566s-2.879,1.974-10.878.565c0,0-.293-12.4,1.117-16.07s7.377-3.665,7.377-3.665Z" transform="translate(-209.11 -66.005)" fill="#edae9d"/>
            <path id="Trazado_1016312" data-name="Trazado 1016312" d="M387.839,375l.623-9.106h12.153L401.4,375Z" transform="translate(-213.92 -201.818)" fill="#6671a3"/>
            <path id="Trazado_1016313" data-name="Trazado 1016313" d="M322.284,60.991a57.347,57.347,0,0,0,12.783-25.738c2.906-15.183,4.5-40.732,27.278-34.208,0,0,8.679-4.482,14.134,6.2s2.437,25.21,6.009,33.18,7.568,12.441,4.931,19.783-3.782,5.491-2.817,9.735,2.679,6.349-2.87,9.823c-4.816,3.014-1.336,5.584-4.986,9.32s-6.063,5.962-8.6,1.279S368.03,82.6,365.28,79.4c-6.137-7.156-.317-12.858,2.388-16.826s-4.376-3.681-3.9-16.408a213.233,213.233,0,0,0-.365-22.9L342.614,35.153S348.7,57,333.91,61.667s-11.626-.676-11.626-.676" transform="translate(-177.605 0)" fill="#6f4433"/>
            <path id="Trazado_1016314" data-name="Trazado 1016314" d="M380.361,28.427s5.815-4.121,10.505,2.683c4.081,5.919,5.551,12.623,2.487,20.534-2.478,6.4-11.606,13.877-16.156,13.8s-10.591-5.366-14.413-15.3A5.814,5.814,0,0,1,358.6,45.2c-.371-3.97,2.664-8.7,4.922-6.654,0,0,7.47.428,9.46-4.648s5.55-7.889,7.378-5.474" transform="translate(-197.777 -14.998)" fill="#fbc3b1"/>
            <path id="Trazado_1016315" data-name="Trazado 1016315" d="M413.668,25.524c.3.438.5.945.792,1.389.648.977,1.741,1.586,2.407,2.55.942,1.364.868,3.159,1.274,4.766.286,1.134.82,2.191,1.167,3.308,1.343,4.324-.311,9.167-3.285,12.581a2.344,2.344,0,0,0-.79,1.515,10.236,10.236,0,0,0,3.5-3.448,10.568,10.568,0,0,1,1.005-1.546c.4-.448.9-.79,1.268-1.262a5.619,5.619,0,0,0,.879-2.738l.763-5.522a19.1,19.1,0,0,0,.254-2.984,19.089,19.089,0,0,0-.667-4.04,16.673,16.673,0,0,0-1.615-4.651,14.957,14.957,0,0,0-3.3-3.609,9.783,9.783,0,0,0-2.645-1.78,3.63,3.63,0,0,0-3.1.061,5.467,5.467,0,0,0-1.492,1.459c-.456.578-1.538,1.542-1.56,2.258,1.864.125,3.916-.073,5.143,1.693" transform="translate(-225.33 -10.886)" fill="#6f4433"/>
            <path id="Trazado_1016316" data-name="Trazado 1016316" d="M765.825,521.517l4.223-28.646,22.7,12.2,13.153,7.068-15.446,3.617Z" transform="translate(-422.406 -271.853)" fill="#fbb375"/>
            <path id="Trazado_1016317" data-name="Trazado 1016317" d="M359.249,462.412,37.141,414.929A9.979,9.979,0,0,1,28.725,403.6l1.28-8.68a10.2,10.2,0,0,1,11.567-8.61l321.9,47.452Z" transform="translate(-15.785 -213.018)" fill="#2ed19b"/>
            <path id="Trazado_1016318" data-name="Trazado 1016318" d="M761.565,521l4.2-4.93,1.074-3.561.329-6.781-.026-12.672-1.357-.7-2.865-.422,2.592,2.272-2.548,1.149,2.223,2.706-2.632.892,1.856,2.713-2.59,1.021,2.23,3.073-3.18,1.3,2.246,3.38-3.411,1.632,3.06,2.4-4.052,1.842,3.224,2.122-3.84,2.056.409.122Z" transform="translate(-418.148 -271.333)" fill="#fbb375"/>
            <path id="Trazado_1016319" data-name="Trazado 1016319" d="M818.086,530.752a6.847,6.847,0,0,1-2.1-5.548c.312-2.114,1.92-3.874,4.4-5.137l13.153,7.068Z" transform="translate(-450.041 -286.853)" fill="#2d2b2a"/>
            <path id="Trazado_1016320" data-name="Trazado 1016320" d="M81.315,421.441l-44.174-6.512A9.979,9.979,0,0,1,28.726,403.6l1.279-8.68a10.2,10.2,0,0,1,11.567-8.609l43.965,6.481Z" transform="translate(-15.785 -213.018)" fill="#9fd19f"/>
            <rect id="Rectángulo_462282" data-name="Rectángulo 462282" width="28.955" height="5.589" transform="matrix(0.146, -0.989, 0.989, 0.146, 63.456, 208.116)" fill="#3f6d3f"/>
            <path id="Trazado_1016321" data-name="Trazado 1016321" d="M202.191,370.884s-7.095,8.485-10.336,11.049a39.418,39.418,0,0,1-5.345,3.677s-2.009,9.479-1.185,11,11.991,8.825,14.039,6.718,2.052-13.15,2.827-14.118a2.96,2.96,0,0,1,2.081-.986l3.587.529s-2.03-2.364,2.246-9.227.874-10.266.874-10.266Z" transform="translate(-102.11 -203.674)" fill="#ffc1af"/>
          </g>
        </g>
      </g>
    </g>
  </g>
</svg>
