<svg xmlns="http://www.w3.org/2000/svg" xmlns:xlink="http://www.w3.org/1999/xlink" width="107" height="107" viewBox="0 0 107 107">
  <defs>
    <clipPath id="clip-path">
      <rect id="Rectángulo_461827" data-name="Rectángulo 461827" width="65.198" height="72.445" fill="none"/>
    </clipPath>
  </defs>
  <g id="Grupo_1195824" data-name="Grupo 1195824" transform="translate(-186 -7308.494)">
    <g id="Grupo_1194861" data-name="Grupo 1194861" transform="translate(-104 191.684)">
      <g id="Grupo_156312" data-name="Grupo 156312" transform="translate(1.332 2668.374)">
        <path id="Elipse_5845" data-name="Elipse 5845" d="M53.5,0A53.5,53.5,0,1,1,0,53.5,53.5,53.5,0,0,1,53.5,0Z" transform="translate(288.668 4448.437)" fill="#fce2b5"/>
      </g>
      <g id="Grupo_1194853" data-name="Grupo 1194853" transform="translate(319.002 7133.618)">
        <path id="Trazado_1015059" data-name="Trazado 1015059" d="M35.28,23.207l23.383,9.744-.442,1.123H38.9V32.866l-15.757-6.3L22,22H35.28Z" transform="translate(4.563 4.563)" fill="#efa53a"/>
        <g id="Grupo_1194852" data-name="Grupo 1194852" transform="translate(0 0)">
          <g id="Grupo_1194851" data-name="Grupo 1194851" clip-path="url(#clip-path)">
            <path id="Trazado_1015060" data-name="Trazado 1015060" d="M46.205,15,45,16.206v7.245l1.207,1.207h3.622a2.422,2.422,0,0,0,2.415-2.415v-4.83A2.422,2.422,0,0,0,49.828,15Z" transform="translate(9.334 3.111)" fill="#d3953b"/>
            <path id="Trazado_1015061" data-name="Trazado 1015061" d="M21.62,24.659H51.806V15H18Z" transform="translate(3.733 3.111)" fill="#fdc64e"/>
            <path id="Trazado_1015062" data-name="Trazado 1015062" d="M14.064,52.829H10.321a1.207,1.207,0,0,0-1.116.746L6.629,59.793a2.415,2.415,0,0,1-4.455-1.846l2.883-6.966A4.83,4.83,0,0,1,9.525,48h4.54Z" transform="translate(0.422 9.956)" fill="#8f5f4d"/>
            <path id="Trazado_1015063" data-name="Trazado 1015063" d="M14,52.829h3.743a1.207,1.207,0,0,1,1.116.746l2.577,6.219a2.415,2.415,0,0,0,4.455-1.846l-2.883-6.967A4.83,4.83,0,0,0,18.538,48H14Z" transform="translate(2.904 9.956)" fill="#8f5f4d"/>
            <path id="Trazado_1015064" data-name="Trazado 1015064" d="M15.828,43V59.9a2.415,2.415,0,1,1-4.83,0V43Z" transform="translate(2.281 8.919)" fill="#824f40"/>
            <path id="Trazado_1015065" data-name="Trazado 1015065" d="M29.855,46.881c.048.519.085.99.109,1.4a3,3,0,0,1-2.006,3.043c-2.036.749-5.816,1.594-12.471,1.594S5.051,52.073,3.011,51.324a3,3,0,0,1-2.006-3.043c.388-5.989,2.408-24.366,8.445-34,0,0-2.415-4.926-2.415-8.271a5.072,5.072,0,0,1,8.452-3.719A5.071,5.071,0,0,1,23.939,6.01c0,3.345-2.415,8.271-2.415,8.271,3.743,5.965,5.943,15.286,7.162,22.941Z" transform="translate(0.207 0.207)" fill="#e8e8f2"/>
            <path id="Trazado_1015066" data-name="Trazado 1015066" d="M24.035,31l1.207,1.207v7.245l-1.207,1.207H20.413A2.422,2.422,0,0,1,18,38.244v-4.83A2.422,2.422,0,0,1,20.413,31Z" transform="translate(3.733 6.43)" fill="#d3953b"/>
            <path id="Trazado_1015067" data-name="Trazado 1015067" d="M59.221,32.206v7.245a1.208,1.208,0,0,1-1.207,1.207H23V31H58.013a1.208,1.208,0,0,1,1.207,1.207" transform="translate(4.77 6.43)" fill="#fdc64e"/>
            <path id="Trazado_1015068" data-name="Trazado 1015068" d="M59.161,45.881a1.207,1.207,0,1,0,0,2.415h3.622A2.414,2.414,0,0,0,65.2,45.881V38.636A2.415,2.415,0,0,0,63.689,36.4L45.88,28.977H59.161a3.622,3.622,0,0,0,3.622-3.622v-4.83A3.622,3.622,0,0,0,59.161,16.9H24.423c-.415-.871-.856-1.7-1.321-2.491a23.556,23.556,0,0,0,2.252-8.195A6.286,6.286,0,0,0,15.694.983,6.285,6.285,0,0,0,6.035,6.217a23.592,23.592,0,0,0,2.254,8.2C1.532,25.828.069,47.48.01,48.4A4.219,4.219,0,0,0,2.8,52.664a32.266,32.266,0,0,0,9.271,1.577v2.507H9.941a6.018,6.018,0,0,0-5.577,3.727L1.48,67.442a3.622,3.622,0,0,0,6.687,2.77l2.577-6.219h1.328v4.83a3.622,3.622,0,0,0,7.245,0v-4.83h1.328l2.575,6.218a3.619,3.619,0,1,0,6.687-2.77l-2.882-6.963a6.017,6.017,0,0,0-5.577-3.73H19.316V54.241a32.259,32.259,0,0,0,9.259-1.57,4.218,4.218,0,0,0,2.8-4.255.569.569,0,0,0-.008-.121h22.96a1.207,1.207,0,1,0,0-2.415H28.976V38.636H32.6v2.415a1.207,1.207,0,0,0,2.415,0V38.636h3.622v2.415a1.207,1.207,0,0,0,2.415,0V38.636h3.622v2.415a1.207,1.207,0,1,0,2.415,0V38.636h3.622v2.415a1.207,1.207,0,0,0,2.415,0V38.636h3.622v2.415a1.207,1.207,0,0,0,2.415,0V38.636h3.622v7.245Zm-2.173-9.659H43.7L28.757,30.246c-.094-.421-.193-.845-.293-1.269H39.6Zm-27.068,0c-.169-1.007-.362-2.053-.567-3.139L37.2,36.222Zm30.449-15.7v4.83a1.208,1.208,0,0,1-1.207,1.207H56.747V19.318h2.415a1.208,1.208,0,0,1,1.207,1.207M30.183,19.318v2.415a1.207,1.207,0,1,0,2.415,0V19.318H36.22v2.415a1.207,1.207,0,0,0,2.415,0V19.318h3.622v2.415a1.207,1.207,0,0,0,2.415,0V19.318h3.622v2.415a1.207,1.207,0,0,0,2.415,0V19.318h3.622v7.245H27.853a63.584,63.584,0,0,0-2.379-7.245Zm-19.44,42.26a2.406,2.406,0,0,0-2.23,1.49L5.935,69.29a1.207,1.207,0,0,1-1.57.646,1.189,1.189,0,0,1-.647-.647,1.215,1.215,0,0,1,0-.925L6.6,61.4a3.611,3.611,0,0,1,3.34-2.236h2.131v2.415Zm10.7-2.415A3.61,3.61,0,0,1,24.793,61.4l2.882,6.962a1.221,1.221,0,0,1,0,.927,1.189,1.189,0,0,1-.647.647,1.208,1.208,0,0,1-1.577-.648l-2.578-6.221a2.4,2.4,0,0,0-2.229-1.49H19.316V59.163ZM16.9,68.822a1.207,1.207,0,0,1-2.415,0v-14.5c.392.006.793.01,1.207.01s.815,0,1.207-.01ZM28.976,48.576A1.787,1.787,0,0,1,27.759,50.4c-1.894.693-5.522,1.52-12.065,1.52S5.524,51.091,3.62,50.393a1.783,1.783,0,0,1-1.207-1.826c.54-8.387,2.887-24.864,8.26-33.438a1.208,1.208,0,0,0,.06-1.171c-.023-.048-2.294-4.72-2.294-7.741a3.863,3.863,0,0,1,6.437-2.823,1.207,1.207,0,0,0,1.62,0,3.863,3.863,0,0,1,6.443,2.823c0,3.019-2.269,7.692-2.294,7.741a1.208,1.208,0,0,0,.062,1.171c3.527,5.621,5.6,14.315,6.762,21.092H24.3a59.357,59.357,0,0,0-2.637-11.277,1.207,1.207,0,0,0-2.293.757c.007.022.014.042.023.064a57.616,57.616,0,0,1,2.575,11.206,3.6,3.6,0,0,0-1.44,2.872v4.83A3.622,3.622,0,0,0,24.146,48.3h4.806c.006.093.014.192.024.28m-2.415-2.695H24.146a1.208,1.208,0,0,1-1.207-1.207v-4.83a1.208,1.208,0,0,1,1.207-1.207h2.415Z" transform="translate(0 0)" fill="#373737"/>
            <path id="Trazado_1015069" data-name="Trazado 1015069" d="M10.237,20.072a1.2,1.2,0,0,0-1.541.714l0,.011C7.353,24.517,5.626,31.368,5,42.874a1.208,1.208,0,0,0,1.137,1.274h0a.61.61,0,0,0,.066,0,1.206,1.206,0,0,0,1.207-1.141c.61-11.215,2.269-17.823,3.552-21.391a1.207,1.207,0,0,0-.728-1.544" transform="translate(1.036 4.148)" fill="#373737"/>
            <path id="Trazado_1015070" data-name="Trazado 1015070" d="M13.205,20A1.208,1.208,0,0,0,12,21.206V42.94a1.207,1.207,0,1,0,2.415,0V21.206A1.208,1.208,0,0,0,13.205,20" transform="translate(2.489 4.148)" fill="#373737"/>
          </g>
        </g>
      </g>
    </g>
  </g>
</svg>
