<svg xmlns="http://www.w3.org/2000/svg" xmlns:xlink="http://www.w3.org/1999/xlink" width="250.376" height="445.757" viewBox="0 0 250.376 445.757">
  <defs>
    <clipPath id="clip-path">
      <rect id="Rectángulo_461839" data-name="Rectángulo 461839" width="250.376" height="445.757" fill="none"/>
    </clipPath>
    <clipPath id="clip-path-3">
      <rect id="Rectángulo_461831" data-name="Rectángulo 461831" width="13.514" height="12.325" fill="none"/>
    </clipPath>
    <clipPath id="clip-path-4">
      <rect id="Rectángulo_461832" data-name="Rectángulo 461832" width="17.834" height="30.896" fill="none"/>
    </clipPath>
    <clipPath id="clip-path-5">
      <rect id="Rectángulo_461835" data-name="Rectángulo 461835" width="114.179" height="170.987" fill="none"/>
    </clipPath>
    <clipPath id="clip-path-6">
      <rect id="Rectángulo_461836" data-name="Rectángulo 461836" width="21.113" height="27.749" fill="none"/>
    </clipPath>
    <clipPath id="clip-path-7">
      <rect id="Rectángulo_461837" data-name="Rectángulo 461837" width="114.178" height="45.201" fill="none"/>
    </clipPath>
  </defs>
  <g id="Grupo_1195826" data-name="Grupo 1195826" transform="translate(-1059.624 -7246.49)">
    <g id="Grupo_1194895" data-name="Grupo 1194895" transform="translate(1059.624 7246.49)">
      <g id="Grupo_1194894" data-name="Grupo 1194894" clip-path="url(#clip-path)">
        <g id="Grupo_1194893" data-name="Grupo 1194893" transform="translate(0 0)">
          <g id="Grupo_1194892" data-name="Grupo 1194892" clip-path="url(#clip-path)">
            <path id="Trazado_1015091" data-name="Trazado 1015091" d="M159.7,50.315a51.791,51.791,0,0,1-2.164-7q-.291-1.282-.507-2.577a68.4,68.4,0,0,0,.2-14.473,25.563,25.563,0,0,0-.037-4.237v-.016c-.082-.562-.17-1.135-.269-1.713-.008-.048-.016-.1-.026-.148-1.136-6.615-3.479-14.046-8.306-17.184-9.6-6.243-15.1-.688-15.1-.688s-5.46-5.085-17.1.261c-3.571,1.642-6.26,4.773-8.269,8.327-5.226,4.8-11.292,8.772-15.284,14.772a19.771,19.771,0,0,0-3.51,10.735c-.016,3.98,1.705,7.208,3.953,10.353a28.6,28.6,0,0,1,3.551,5.845,16.52,16.52,0,0,1,.707,2.223c-.221,8.529-24.473,5.048-21.55,24,3.335,21.623,21.54,11.312,9.974,30.7s20.745,34.312,41.687,23.825,23.964-47.175,23.482-54.526a33.717,33.717,0,0,0-.933-5.329,14.839,14.839,0,0,1,3.089-8.691c2.233-2.851,6.04-4.6,7.2-8.245.68-2.126-.032-4.219-.793-6.21M77.551,78.79C74.761,68.027,88.07,64.228,88.53,64.1c-.285.132-4.833,2.377-5.673,11.3-.856,9.08,5.495,17.13,5.681,17.367-.247-.094-8.194-3.2-10.987-13.982M91.225,39.254C89.377,30.992,95.5,23.877,101.2,18.9c.913-.8,1.842-1.577,2.773-2.354-4.672,6.949-11.427,19.013-9.781,28.7a17,17,0,0,1-2.971-5.991M158.442,57.2a19.432,19.432,0,0,1-4.079,4.164,17.251,17.251,0,0,0-3.687,4.472,16.449,16.449,0,0,0-1.431,3.464c-1.131-5.413-1.549-11.226,3.13-16.437a18.892,18.892,0,0,0,3.883-8.056,49.631,49.631,0,0,0,1.73,5.48c.867,2.284,1.828,4.608.454,6.913" transform="translate(-51.909 -0.001)" fill="#141a22"/>
            <path id="Trazado_1015092" data-name="Trazado 1015092" d="M204.681,179.3s1.2,5.551-.506,9.2-9.5,9.219-9.5,9.219a38.815,38.815,0,0,0,12.184,5.363c6.865,1.6,18.339-.276,18.339-.276l7.969-4.308,2.685-7.38s-8.637-.054-10.864-2.363a14.155,14.155,0,0,1-2.978-6.2Z" transform="translate(-133.408 -122.873)" fill="#f6be8e"/>
            <path id="Trazado_1015093" data-name="Trazado 1015093" d="M217.992,108.646s.629,10.087,4.509,12.882,4.733,2.6,3.88,2.8-8.466,3.884-14.946,2.625a47.271,47.271,0,0,1-11.2-3.658s1.56-9.662,1.347-14.4-6.432-12.214-6.432-12.214-4.845-1.128-5.882-4.014-.217-5.02,1.608-6.346,3.38-1.919,4.238-1.5c.346.167.516.919.7,1.774a4.552,4.552,0,0,0,3.143-3.459s5.13-6.764,10.943-7.765a17.31,17.31,0,0,0,8.757-3.913l0,0s5.461,2.889,7.751,2.855a13.747,13.747,0,0,0,3.317-.34c1.2,5.988,3.46,20.274-.813,26.292-5.478,7.713-10.919,8.387-10.919,8.387" transform="translate(-129.387 -48.965)" fill="#f6be8e"/>
            <g id="Grupo_1194879" data-name="Grupo 1194879" transform="translate(75.09 54.362)" opacity="0.5">
              <g id="Grupo_1194878" data-name="Grupo 1194878">
                <g id="Grupo_1194877" data-name="Grupo 1194877" clip-path="url(#clip-path-3)">
                  <path id="Trazado_1015094" data-name="Trazado 1015094" d="M238.592,172.733s2.668,5.5,13.514,5.318c0,0-.547,7.134-1.4,7s-10.925-8.837-12.113-12.322" transform="translate(-238.592 -172.732)" fill="#cca18b"/>
                </g>
              </g>
            </g>
            <path id="Trazado_1015095" data-name="Trazado 1015095" d="M196.616,123.541a1.9,1.9,0,0,0-1.427.514,4.21,4.21,0,0,0-.693,2.189c-.053.406.565.571.619.161.113-.861.174-1.939,1.178-2.192a3.516,3.516,0,0,1,1.365-.078.341.341,0,0,0-.032.038,3.661,3.661,0,0,0-.165,3.849c.2.363.745.03.547-.333a3.015,3.015,0,0,1,.175-3.2.291.291,0,0,0,.054-.169,1.184,1.184,0,0,1,.645.972c.045.408.684.4.639-.01-.178-1.63-1.517-1.866-2.9-1.741" transform="translate(-133.282 -84.641)" fill="#e27785"/>
            <path id="Trazado_1015096" data-name="Trazado 1015096" d="M251.727,108.179c.017,1.1-.641,2.011-1.469,2.023s-1.512-.873-1.529-1.978.641-2.011,1.469-2.023,1.512.873,1.529,1.978" transform="translate(-170.449 -72.778)" fill="#842d54"/>
            <path id="Trazado_1015097" data-name="Trazado 1015097" d="M298.391,105.414c.014.964-.533,1.754-1.222,1.764s-1.26-.763-1.274-1.727.533-1.754,1.222-1.764,1.26.763,1.274,1.727" transform="translate(-202.77 -71.055)" fill="#842d54"/>
            <path id="Trazado_1015098" data-name="Trazado 1015098" d="M240.674,94.074a15.753,15.753,0,0,1,3.6-2.895,5.593,5.593,0,0,1,3.141-.048l.024,1.608a4.734,4.734,0,0,0-2.805-.264c-1.079.43-3.955,1.6-3.955,1.6" transform="translate(-164.929 -62.305)" fill="#842d54"/>
            <path id="Trazado_1015099" data-name="Trazado 1015099" d="M295.6,89.435l.022,1.5a8.433,8.433,0,0,1,2.108-.46,4.361,4.361,0,0,1,1.927.683s-.64-2.149-4.057-1.722" transform="translate(-202.568 -61.25)" fill="#842d54"/>
            <path id="Trazado_1015100" data-name="Trazado 1015100" d="M281.652,113.262a4.973,4.973,0,0,0,1.643,3.089c.489.514,1.458,1.284,1.169,2.065a10.7,10.7,0,0,1-1.368,1.951c-.476.676.642,1.3,1.113.633.735-1.044,2.057-2.246,1.485-3.624-.641-1.545-2.633-2.36-2.764-4.133-.061-.822-1.339-.808-1.278.019" transform="translate(-193.009 -77.186)" fill="#e27785"/>
            <path id="Trazado_1015101" data-name="Trazado 1015101" d="M194.678,223.444s13.163,35.393,29.547,34.631,11.63-41.232,11.63-41.232-7.385,8.368-18.368,7.721-22.809-1.12-22.809-1.12" transform="translate(-133.408 -148.598)" fill="#f6be8e"/>
            <path id="Trazado_1015102" data-name="Trazado 1015102" d="M265.046,156.154c-2.562.471-5.924-1.057-6.777-2.671-.592-1.12-.684-2.091.493-2.465a6.188,6.188,0,0,1,2.368-.109s6.4.475,6.724,1.051a.831.831,0,0,1,.079.343c.065,1.006-.658,3.44-2.888,3.851" transform="translate(-176.694 -103.377)" fill="#c65568"/>
            <path id="Trazado_1015103" data-name="Trazado 1015103" d="M269.936,152.3c-2.349.8-6.976-.289-8.275-.746a2.562,2.562,0,0,1-.9-.54,6.187,6.187,0,0,1,2.368-.109s6.4.475,6.724,1.051a.831.831,0,0,1,.079.343" transform="translate(-178.696 -103.377)" fill="#fff"/>
            <path id="Trazado_1015104" data-name="Trazado 1015104" d="M333.6,64.026c.01.049.018.1.026.145l-.008-.033a.872.872,0,0,1-.019-.112" transform="translate(-228.606 -43.876)" fill="#842d54"/>
            <path id="Trazado_1015105" data-name="Trazado 1015105" d="M167.552,125.212l0-.008a0,0,0,0,1,0,0l0,.005" transform="translate(-114.817 -85.8)" fill="#842d54"/>
            <path id="Trazado_1015106" data-name="Trazado 1015106" d="M167.566,125.245l-.006-.014a.115.115,0,0,0,.006.014" transform="translate(-114.825 -85.818)" fill="#842d54"/>
            <path id="Trazado_1015107" data-name="Trazado 1015107" d="M238.524,89.031c-3.164-.13-5.893,3.031-6.291,7.155a3.738,3.738,0,0,0-1.832-.572,6.533,6.533,0,0,0-2.626.85c-.378-4.005-3.038-7.165-6.378-7.3s-6.259,2.81-6.943,6.789l-7.68.7.05.714,7.532-.684c-.021.21-.038.422-.047.637-.185,4.649,2.694,8.556,6.418,8.71s6.9-3.5,7.088-8.153c.008-.213.008-.424,0-.633a6.614,6.614,0,0,1,2.573-.907,3.39,3.39,0,0,1,1.794.661c-.091,4.326,2.435,7.919,5.7,8.054,3.317.137,6.158-3.344,6.334-7.758s-2.381-8.118-5.7-8.255m-17.768,16.276c-3.364-.139-5.964-3.713-5.8-7.967s3.044-7.6,6.408-7.464,5.964,3.713,5.8,7.967-3.044,7.6-6.408,7.464m17.161-.978c-2.958-.122-5.235-3.492-5.075-7.512s2.7-7.192,5.654-7.07,5.234,3.492,5.075,7.512-2.7,7.192-5.654,7.07" transform="translate(-141.698 -61.008)" fill="#fff"/>
            <path id="Trazado_1015108" data-name="Trazado 1015108" d="M32.54,1283.731s-3.661,16.455-2.964,20.568,5.754,10.456,5.754,12.341-.088,3.257-2.921,3.771-21.141.171-23.233-.857,2.441-7.713,2.441-9.941,7.149-12,6.975-19.883,13.109-12.182,13.949-6" transform="translate(-5.91 -877.695)" fill="#f6be8e"/>
            <path id="Trazado_1015109" data-name="Trazado 1015109" d="M277.385,1316.581s-.523,8.828,0,12.17,3.661,6.685,5.318,7.37,10.336,5.485,12.971,5.828,3.245-.943,4.117-.6,1.831,2.657.959,3.428-4.882,2.228-7.5,2.571-9.067-1.628-10.985-1.714-13.687,1.286-18.656.343-4.359-4.457-4.185-6.685,5.231-10.97,5.318-13.8a62.445,62.445,0,0,0-.872-8.57s12.688-2.471,13.513-.343" transform="translate(-177.697 -901.631)" fill="#f6be8e"/>
            <path id="Trazado_1015110" data-name="Trazado 1015110" d="M132.1,726.3c-1.177,1.543,0,7.325,0,12.339,0,4.849-7.734,102.477-8.479,111.011-.026.291-.044.478-.052.555-.262,2.314-15.693,0-15.693,0s-4.412-62.976-6.374-77.242,3.531-42.42,3.531-45.12-4.708-42.808-4.708-42.808l0,.01c-.277.844-18.044,54.766-18.044,56.679,0,1.928-7.062,13.112-14.027,37.409-5.981,20.864-15.358,55.946-18.384,65.513a9.9,9.9,0,0,1-.934,2.473c-.785.116-15.075.514-16.121,0s4.708-40.88,6.538-63.248,17.523-53.735,17.785-56.049-.523-19.54.523-42.937,10.592-53.864,10.592-53.864l70.873,3.527q.694,1.7,1.25,3.574c8.712,29.223-7.145,86.7-8.275,88.177" transform="translate(-22.403 -432.422)" fill="#623f04"/>
            <path id="Trazado_1015111" data-name="Trazado 1015111" d="M256.478,925.067c1.185,1.175,8.424,2.851,14.422,4.073-.026.29-.045.478-.053.555-.262,2.314-15.692,0-15.692,0s-4.412-62.976-6.374-77.243,3.531-42.42,3.531-45.119-4.708-42.808-4.708-42.808l2.582-17.5,15.169,1.285s-11.377,2.571-11.508,3.985,2.092,43.965,4.01,49.28,3.138,6.34,1.919,7.541-8.021,31.367-5.144,60.163-.228,53.735,1.846,55.792" transform="translate(-169.678 -511.917)" fill="#442b06"/>
            <path id="Trazado_1015112" data-name="Trazado 1015112" d="M140.379,638.117c-9.766,10.816-54.626,6.654-57.024,6.654-2.82,0-10.522,4.114-13.661,11.313s-8.5,65.691-7.715,68.133,3.531,2.828,4.708,4.628-1.831,1.8-4.446,2.571-7.417,13-13.3,30.357-12.946,74.813-11.769,79.055c.581,2.1,6.682,3.216,12.7,3.813a9.9,9.9,0,0,1-.934,2.473c-.785.116-15.075.514-16.121,0s4.708-40.88,6.538-63.248,17.523-53.735,17.785-56.049-.523-19.54.523-42.937,10.593-53.864,10.593-53.864l70.873,3.528q.694,1.7,1.25,3.574" transform="translate(-22.403 -432.421)" fill="#442b06"/>
            <path id="Trazado_1015113" data-name="Trazado 1015113" d="M264.666,188.434v12.855s-32.2,1.8-33.506,2.057-26.416,13.627-26.416,13.627,7.062,22.882,6.539,27.768-8.369,25.2-8.892,31.367a26.827,26.827,0,0,0,.479,5.888.019.019,0,0,1,0,.008c1.378,8.536,5.16,22.152,6.581,31.128a135.28,135.28,0,0,1,1.825,17.411c.005.218.005.329.005.329s-14.908,7.97-37.662,6.685S140.4,327.014,140.4,327.014s7.062-41.394,8.631-47.822c.808-3.306-1.5-13.688-3.928-22.99-2.3-8.783-4.7-16.6-4.7-16.6l-1.548-9.4-.881-5.355.881-13.536,20.837-14.648,2.681-1.8s4.969,18.512,19.354,20.312,4.708-21.6,6.8-21.854c.152-.018.429-.067.819-.139,5-.938,28.233-6.013,31.874-5.775,2.885.19,22.595.656,32.829.89,3.685.085,10.616.139,10.616.139" transform="translate(-94.551 -128.419)" fill="#f59e0b"/>
            <path id="Trazado_1015114" data-name="Trazado 1015114" d="M231.373,231.107c-12.946,1.011-21.371-14.963-24.389-21.854l2.681-1.8s4.969,18.512,19.354,20.312,4.708-21.6,6.8-21.854c.152-.018.429-.067.819-.139,3.007,9.258,6.143,24.445-5.265,25.335" transform="translate(-141.842 -141.011)" fill="#fff"/>
            <path id="Trazado_1015115" data-name="Trazado 1015115" d="M395.533,190.389v12.855s-32.2,1.8-33.506,2.057-26.416,13.627-26.416,13.627l-6.667-8.868c.2.062,8.791,2.718,15.167.854,6.452-1.885,16.563-11.313,17.96-11.313s19.516.406,21.446-4.466a27.373,27.373,0,0,0,1.4-4.885c3.685.085,10.616.139,10.616.139" transform="translate(-225.418 -130.374)" fill="#dc8e0a"/>
            <path id="Trazado_1015116" data-name="Trazado 1015116" d="M211.278,404.176c.005.218.005.329.005.329s-14.908,7.97-37.662,6.685-33.216-10.541-33.216-10.541,7.061-41.394,8.631-47.822c.808-3.306-1.5-13.689-3.928-22.99-2.3-8.783-4.7-16.6-4.7-16.6l-1.548-9.4-.881-5.356a52.7,52.7,0,0,1,19.816-3.63s-9.13,21.8-7.7,26.071,19.213,8.937,29.674,8.916,11.508-3.877,14.908-3.363,12.031,0,16.608-8.1c-.523,4.885-8.37,25.2-8.893,31.367a26.847,26.847,0,0,0,.479,5.888c-.073-.3-2.477-9.893-4.794-11.159-2.354-1.285-40.267-1.028-40.141,0s-5.89,52.193-5.89,52.193,32.483,14.012,59.234,7.513" transform="translate(-94.552 -202.054)" fill="#dc8e0a"/>
            <g id="Grupo_1194882" data-name="Grupo 1194882" transform="translate(44.305 96.887)" opacity="0.39">
              <g id="Grupo_1194881" data-name="Grupo 1194881">
                <g id="Grupo_1194880" data-name="Grupo 1194880" clip-path="url(#clip-path-4)">
                  <path id="Trazado_1015117" data-name="Trazado 1015117" d="M158.61,307.847a76.714,76.714,0,0,1-11.584,30.9c-2.3-8.783-4.7-16.6-4.7-16.6l-1.548-9.4c4.231-2.653,10.046-4.486,17.834-4.9" transform="translate(-140.776 -307.848)" fill="#842d54"/>
                </g>
              </g>
            </g>
            <path id="Trazado_1015118" data-name="Trazado 1015118" d="M143.455,505.9a.163.163,0,0,1-.018.005,7.21,7.21,0,0,1-2.1-.005,7.144,7.144,0,0,1,.811.527c.544.409,1.146,1,1.049,1.558-.167,1-.421,1.193-.845,1.491s-5.077.5-6.178,1.193-4.373,3.366-4.373,3.366l-.949,6.389a13.965,13.965,0,0,1-2.038-2.5c-.507-1-.254-2.882-.677-3.181s-5.077-4.291-8.375-5.176,2.445-12.094,5.759-9.737c0,0,3.717,2.99,4.308,2.692s3.557-3.849,4.318-3.813,9.136.237,9.643.931a1.914,1.914,0,0,1,0,2.131,1.437,1.437,0,0,1-.3.141c-.589.219-1.771.5-2.181.6,0,0,0,0,0,0l-.141.033s.12-.013.311-.026a6.041,6.041,0,0,1,1.729.134c.5.134.894.391.9.864.018,1.293.018,2.188-.659,2.386" transform="translate(-81.396 -341.752)" fill="#f6be8e"/>
            <path id="Trazado_1015119" data-name="Trazado 1015119" d="M61.059,274.886c-2.328,4.093-38.17,28.647-38.17,30.426s9.319,8.541,12.008,12.1,10.93,10.5,10.93,11.033c0,.218.17,1.406.181,2.836.018,2.085-.3,4.682-1.993,5.528-2.845,1.422-5,4.8-7.326,4.09S2.1,314.03,1.386,312.786-.586,301.931.311,299.442s35.949-39.1,42.247-43.371c0,0,7.182-7.129,14.118-5.209a9.8,9.8,0,0,1,4.383,2.674c7.885,8.006,2.33,17.26,0,21.35" transform="translate(0 -171.685)" fill="#f59e0b"/>
            <path id="Trazado_1015120" data-name="Trazado 1015120" d="M84.326,275.6c-2.328,4.093-38.17,28.647-38.17,30.426s9.319,8.541,12.008,12.1,10.93,10.5,10.93,11.033c0,.218.17,1.406.181,2.836-9.282-9.292-23.5-23.461-24.784-24.376-1.917-1.37-8.369-1.37-10.287-1.885s7.671-.859,9.416-1.373,42.893-29.31,41.787-42.849a12.872,12.872,0,0,0-5.464-9.935,9.8,9.8,0,0,1,4.383,2.674c7.885,8.006,2.33,17.26,0,21.35" transform="translate(-23.266 -172.4)" fill="#dc8e0a"/>
            <path id="Trazado_1015121" data-name="Trazado 1015121" d="M192.649,510.918c-.575-.064-1.153-.108-1.729-.134a6.041,6.041,0,0,1,1.729.134" transform="translate(-130.833 -350.023)" fill="#e27785"/>
            <path id="Trazado_1015122" data-name="Trazado 1015122" d="M175.035,508.462c-.589.218-1.771.5-2.181.6,0,0,0,0,0,0a30.22,30.22,0,0,0-7.561.635c-.492.105-.7-.638-.206-.743a31.052,31.052,0,0,1,9.952-.488" transform="translate(-112.935 -348.304)" fill="#e27785"/>
            <path id="Trazado_1015123" data-name="Trazado 1015123" d="M173.459,520.447a7.131,7.131,0,0,1,.811.527,18.039,18.039,0,0,0-8.139.453.386.386,0,0,1-.209-.743,18.889,18.889,0,0,1,9.632-.232,7.207,7.207,0,0,1-2.095,0" transform="translate(-113.513 -356.302)" fill="#e27785"/>
            <path id="Trazado_1015124" data-name="Trazado 1015124" d="M141.134,220.276a.789.789,0,0,0-1.235-.4c-1.529,1.17-4.349,3.661-3.774,5.743.781,2.828,9.586,7.2,8.017,24.854s-4.359,25.539-11.682,31.367-10.462,3.771-13.6,6.342-4.882,4.114-4.882,4.114l4.185,4.285s3.487-5.751,8.2-7.027,15.693-6.342,20.749-21.94,3.487-24.854,0-31.538a98.8,98.8,0,0,1-5.973-15.8" transform="translate(-78.107 -150.567)" fill="#f9cb64"/>
            <path id="Trazado_1015125" data-name="Trazado 1015125" d="M287.767,201.806s4.456-2.369,6.8-1.7,20.57,24.339,25.278,41.308.523,39.092,14.385,46.67,19.616,1.666,19.616,1.666v8.7s-16.477.044-27.2-8.7-8.892-37.366-10.636-44.051-6.451-18.512-12.205-25.711-12.554-17.14-12.554-17.14l-.467,1.429s-4.608-1.731-3.02-2.468" transform="translate(-196.972 -137.045)" fill="#f9cb64"/>
            <rect id="Rectángulo_461833" data-name="Rectángulo 461833" width="10.777" height="122.11" transform="translate(183.107 240.374)" fill="#442b06"/>
            <path id="Trazado_1015126" data-name="Trazado 1015126" d="M586.709,1160.763H568.877a.79.79,0,0,1-.79-.79v-109.49a.79.79,0,0,1,.79-.79h17.831a.79.79,0,0,1,.79.79v109.49a.79.79,0,0,1-.79.79" transform="translate(-389.297 -719.332)" fill="#623f04"/>
            <rect id="Rectángulo_461834" data-name="Rectángulo 461834" width="79.784" height="6.311" transform="translate(147.362 439.445)" fill="#442b06"/>
            <path id="Trazado_1015127" data-name="Trazado 1015127" d="M571.412,153.05H583.8a1.317,1.317,0,0,1,1.317,1.317v12.038a1.317,1.317,0,0,1-1.317,1.317H571.412a1.317,1.317,0,0,1-1.317-1.317V154.367a1.317,1.317,0,0,1,1.317-1.317" transform="translate(-390.673 -104.882)" fill="#cca18b"/>
            <path id="Trazado_1015128" data-name="Trazado 1015128" d="M432.777,360.181c-.272,4.011.143,6.173.91,7.035,1.455,1.629,8.206,6.735,28.481,9.914.4.065.8.124,1.212.186a227.588,227.588,0,0,0,23.252,2.126c18.609.834,32.969-1.419,42.988-4.265.4-.111.791-.225,1.177-.339,10.613-3.169,16.006-6.929,16.067-7.993a254.492,254.492,0,0,0-2.822-32.428c-1.221-7.763-2.928-15.277-5.288-20.409-6.494-14.124-14.589-22.185-15.453-25.7a2.249,2.249,0,0,1-.073-.66v0c.088-1.5,4.517-15.077,9.193-29.37q.281-.851.559-1.7c4.9-14.958,9.893-30.211,10.347-32.858.348-2.016-1.294-6-3.455-10.147-3.5-6.7-8.344-13.852-8.344-13.852s-15.23-5.35-21.469-9-6.834-13.788-10.561-15.251c-1.777-.7-8.891-1.4-16.187-1.507-.416-.005-.829-.01-1.247-.01-7.589-.041-15.063.6-16.63,2.581-3.162,4.008-2.041,10.02-5.683,12.19-2.477,1.476-9.032,3.247-13.438,5.839-2.076,1.22-3.674,2.623-4.143,4.262-.955,3.335-.753,8.153-1.841,13.415l0,.005a28.21,28.21,0,0,1-3.232,8.648,36.125,36.125,0,0,0-3.821,23.845.017.017,0,0,0,0,.008,25.586,25.586,0,0,0,3.437,8.814c.164.264.337.526.515.785a75.724,75.724,0,0,0,7.624,9.192c.193.223.372.44.539.663,1.2,1.572,1.891,3.239,2.322,6.691,1,8.081,4.854,17.586,4.354,21.2-.024.166-.056.336-.094.51-.793,3.584-4.845,9.1-12.2,34.973-1.256,4.423-2.319,8.4-3.2,11.97-2.383,9.6-3.5,16.24-3.794,20.65" transform="translate(-296.497 -119.2)" fill="#f7ebcb"/>
            <path id="Trazado_1015129" data-name="Trazado 1015129" d="M488.586,267.472c1.532,12.29,3.86,23.03,4.731,26.848-4.605-.665-9.564-1.562-14.893-2.742l-.143.5-.143.5.049.01a.209.209,0,0,1,.032.007c5.506,1.219,10.61,2.133,15.35,2.807.034.131.057.236.074.3-.276,1.592-3.878,22.636-5.33,46.127-.59,9.53-.751,18.213-.491,25.951q.166,4.935.561,9.348c.4.065.8.124,1.212.187q-.407-4.4-.582-9.326c-.28-7.752-.126-16.471.47-26.094,1.5-24.264,5.3-45.913,5.336-46.129l.017-.1-.024-.094,0-.005c4.972.669,9.525,1.068,13.68,1.254q1.9.085,3.7.111a105.987,105.987,0,0,0,12.021-.446s0,0,.006,0a74.825,74.825,0,0,0,10.11-1.631c1.385-.327,2.669-.679,3.847-1.043.22.92.5,1.949.84,3.084.758,2.572,1.79,5.693,2.981,9.306,5.547,16.808,14.186,42.989,13.84,68.972.4-.112.793-.226,1.177-.339.264-26.021-8.35-52.131-13.893-68.923-1.741-5.273-3.132-9.489-3.832-12.458,6.108-2.031,9.239-4.327,10.23-5.151.216-.177.333-.286.358-.311l-.431-.351-.431-.349c-.034.032-2.94,2.754-9.947,5.123-1.015-5.811.765-16.312,3.256-26.783a70.632,70.632,0,0,0,7.062-2.514,58.207,58.207,0,0,0,9.254-4.848q.282-.851.558-1.7a55.2,55.2,0,0,1-10.406,5.652c-1.844.77-3.9,1.523-6.184,2.222,3.645-15.008,8.589-29.6,8.677-29.848l-1.12-.3c-.359,1.047-5.3,15.637-8.88,30.539-11.436,3.283-28.164,5.18-51.629,1.734-.173-1.421-.334-2.862-.48-4.312a131.17,131.17,0,0,1-.6-22.443c1.428-18.711,15.669-53.493,20.951-65.861-.416-.006-.829-.011-1.245-.012-5.416,12.707-19.45,47.138-20.875,65.8a131.785,131.785,0,0,0,.571,22.3c.145,1.461.3,2.912.478,4.343-5.391-.825-11.129-1.93-17.238-3.363l-.149.5-.149.5c.228.054.46.106.688.16q8.753,2.026,16.979,3.276m1.2.181q8.966,1.308,17.232,1.683,6.333.284,12.221.011A97.555,97.555,0,0,0,541,266.022c-2.459,10.465-4.163,20.912-3.056,26.766l-.048.014c-1.221.381-2.55.752-4,1.091l-.161.037c-7.9,1.831-20.593,3.113-39.182.563-.782-3.387-3.186-14.28-4.77-26.84" transform="translate(-322.71 -119.203)" fill="#cca18b"/>
            <g id="Grupo_1194885" data-name="Grupo 1194885" transform="translate(136.196 89.431)" opacity="0.5">
              <g id="Grupo_1194884" data-name="Grupo 1194884">
                <g id="Grupo_1194883" data-name="Grupo 1194883" clip-path="url(#clip-path-5)">
                  <path id="Trazado_1015130" data-name="Trazado 1015130" d="M433.354,320.32l3.417,8.763c.164.264.336.526.515.786a75.829,75.829,0,0,0,7.626,9.191l-.149.5c.228.054.46.106.689.161,1.2,1.57,1.89,3.238,2.319,6.689,1,8.082,4.855,17.588,4.354,21.2l-.143.5.049.01a.164.164,0,0,1,.032.007c1.381.243,20.222,3.556,33.967,4.344,5.087.293,9.476.238,12.021-.446,0,0,0,0,.006,0,4.183-1.124,7.316-1.969,9.522-2.565,2.584-.7,3.9-1.057,4.163-1.128l.048-.013s.412,1.512,1.066,4.115c3.924,15.623,16.57,70.531,1.329,73.4-8.834,1.665-29.431,1.522-51.33-2.312-.395-.067-.792-.139-1.19-.209a176.645,176.645,0,0,1-28.832-7.6c-.271,4.011.144,6.174.913,7.036,1.454,1.629,8.206,6.735,28.48,9.916.4.064.8.124,1.212.187a227.292,227.292,0,0,0,23.254,2.124c18.608.835,32.967-1.418,42.986-4.264.4-.112.793-.226,1.177-.339,10.615-3.169,16.007-6.93,16.068-7.993.119-2.069-1.172-37.749-8.11-52.838-6.493-14.123-14.588-22.183-15.453-25.7a2.238,2.238,0,0,1-.073-.659v0c.089-1.5,4.517-15.078,9.194-29.371q.282-.851.558-1.7c4.9-14.96,9.893-30.214,10.347-32.859.347-2.017-1.295-6-3.455-10.147-11.343-7.34-20.5-6.784-23.124,3.632,0,0,6.435,34.711-8.646,43.427-9.748,5.635-29.954,4.252-45.145,1.634-.4-.07-.8-.14-1.2-.212-7.768-1.4-14.064-3.083-16.7-4.249-7.471-3.3-11.414-12.191-11.766-13.011" transform="translate(-432.75 -284.162)" fill="#cca18b"/>
                </g>
              </g>
            </g>
            <path id="Trazado_1015131" data-name="Trazado 1015131" d="M699.745,273.29c-.573,10,5.115,18.378,12.7,18.718s14.208-7.488,14.781-17.485-5.115-18.378-12.705-18.718-14.207,7.488-14.78,17.485" transform="translate(-479.493 -175.29)" fill="#f7ebcb"/>
            <g id="Grupo_1194888" data-name="Grupo 1194888" transform="translate(223.439 84.742)" opacity="0.5">
              <g id="Grupo_1194887" data-name="Grupo 1194887">
                <g id="Grupo_1194886" data-name="Grupo 1194886" clip-path="url(#clip-path-6)">
                  <path id="Trazado_1015132" data-name="Trazado 1015132" d="M709.985,282.664c-.439,7.658,3.918,14.077,9.732,14.337s10.882-5.735,11.321-13.393-3.918-14.077-9.732-14.337-10.882,5.736-11.321,13.393" transform="translate(-709.954 -269.262)" fill="#cca18b"/>
                </g>
              </g>
            </g>
            <path id="Trazado_1015133" data-name="Trazado 1015133" d="M457.019,257.115,463,239.438c-2.076,1.22-3.674,2.623-4.143,4.262-.954,3.335-.752,8.154-1.841,13.415" transform="translate(-313.185 -164.082)" fill="#cca18b"/>
            <g id="Grupo_1194891" data-name="Grupo 1194891" transform="translate(136.197 215.218)" opacity="0.5">
              <g id="Grupo_1194890" data-name="Grupo 1194890">
                <g id="Grupo_1194889" data-name="Grupo 1194889" clip-path="url(#clip-path-7)">
                  <path id="Trazado_1015134" data-name="Trazado 1015134" d="M433.746,716.635c1.455,1.629,8.206,6.735,28.481,9.914.4.065.8.124,1.212.186a227.686,227.686,0,0,0,23.252,2.126c18.609.834,32.97-1.419,42.988-4.265.4-.111.791-.225,1.177-.339,10.613-3.169,16.006-6.929,16.067-7.993a254.559,254.559,0,0,0-2.823-32.428c-14.261,5.43-36.2,11.2-65.033,11.2a156.642,156.642,0,0,1-42.437-6.087c-2.383,9.6-3.5,16.24-3.794,20.65-.272,4.011.143,6.173.911,7.035" transform="translate(-432.753 -683.837)" fill="#cca18b"/>
                </g>
              </g>
            </g>
            <path id="Trazado_1015135" data-name="Trazado 1015135" d="M560.471,110.265c0,5.148,4.719,9.321,10.54,9.321s10.54-4.173,10.54-9.321-4.719-9.321-10.54-9.321-10.54,4.174-10.54,9.321" transform="translate(-384.078 -69.175)" fill="#f9cb64"/>
            <path id="Trazado_1015136" data-name="Trazado 1015136" d="M559.673,547.451s-2.883,12.9,0,21.9,21.975,18,21.975,18l-8.108,6.17s-10.038-4.5-17.523-16.455-1.359-29.843-1.359-29.843Z" transform="translate(-378.477 -374.999)" fill="#2ed19b"/>
            <path id="Trazado_1015137" data-name="Trazado 1015137" d="M561.756,507.1s3.968,8.019-2.048,12.9-40.106,10.367-55.753,7.883-18.786-5.456-18.786-5.456l2.25-7.114s11.2,5.972,38.343,4.43,35.387-10.732,35.994-12.647" transform="translate(-332.476 -347.502)" fill="#2ed19b"/>
            <path id="Trazado_1015138" data-name="Trazado 1015138" d="M657.935,199.984s8.964,3.117,11.187,4.788,7.192,11.313,7.454,12.084-.131.484-.916.692-2.484-1.206-2.484-1.206.131,1.928-1.177,2.314-3.661-2.443-3.661-2.443-5.623-7.456-6.931-7.585.131,4.715-1.439,3.772-1.32-5.443-2.033-7.371,0-5.046,0-5.046" transform="translate(-450.651 -137.045)" fill="#f6be8e"/>
            <path id="Trazado_1015139" data-name="Trazado 1015139" d="M688.769,226.176a32.918,32.918,0,0,1,5.648,7.961c.225.444.9.054.677-.389a33.6,33.6,0,0,0-5.77-8.117c-.347-.362-.9.184-.555.545" transform="translate(-471.923 -154.538)" fill="#e27785"/>
          </g>
        </g>
      </g>
    </g>
  </g>
</svg>
