<svg xmlns="http://www.w3.org/2000/svg" xmlns:xlink="http://www.w3.org/1999/xlink" width="396" height="343.052" viewBox="0 0 396 343.052">
  <defs>
    <clipPath id="clip-path">
      <rect id="Rectángulo_462458" data-name="Rectángulo 462458" width="396" height="343.052" transform="translate(0 0)" fill="none"/>
    </clipPath>
  </defs>
  <g id="Grupo_1195824" data-name="Grupo 1195824" transform="translate(-290 -7762.553)">
    <g id="Grupo_1195821" data-name="Grupo 1195821" transform="translate(290 7762.553)">
      <g id="Grupo_1195820" data-name="Grupo 1195820" transform="translate(0 0)" clip-path="url(#clip-path)">
        <path id="Trazado_1016669" data-name="Trazado 1016669" d="M2150.677,1197.916c-2.292-.723-4.146,2.972-2.173,4.345,1.1.885,2.309,1.633,3.372,2.564a7.95,7.95,0,0,1,2.249-1.964c.527-.323,1.05-.634,1.577-.944-1.879-1.084-3.015-3.142-5.026-4" transform="translate(-1962.626 -1084.646)" fill="#d6d2c9"/>
        <path id="Trazado_1016670" data-name="Trazado 1016670" d="M1764.178,1417.264c-.319-2.049-1.407-3.839-2.143-5.744-.57,1.548-.906,3.282.03,4.766.272.965,1.267,1.08,2.113.978" transform="translate(-1534.613 -1278.152)" fill="#d6d2c9"/>
        <path id="Trazado_1016671" data-name="Trazado 1016671" d="M1971.513,1443.877a40.466,40.466,0,0,0-4.792-3.287,18.538,18.538,0,0,0-3.146,4.528c.145.149.438.442.582.591,2.441-.706,5.132-.468,7.356-1.833" transform="translate(-1761.043 -1304.476)" fill="#d6d2c9"/>
        <path id="Trazado_1016672" data-name="Trazado 1016672" d="M1810.362,1477.2a6.506,6.506,0,0,0-3.8-.14,7.352,7.352,0,0,0-2.738,1.913c.034,1.237.442,2.874,1.93,2.993,1.144-.306,2.254-.727,3.359-1.144,1.225-.783,2.088-2.211,1.246-3.623" transform="translate(-1585.133 -1337.284)" fill="#d6d2c9"/>
        <path id="Trazado_1016673" data-name="Trazado 1016673" d="M1708.347,1521.455a41.913,41.913,0,0,0-6.3,6.6,7.454,7.454,0,0,0-.085-2.109,20.138,20.138,0,0,0-3.415,1.828c-.217,1.148.727,1.726,1.573,2.236-.544.391-1.088.778-1.632,1.174-.158.417-.328.833-.506,1.25a6.849,6.849,0,0,0,3.01,0c2.5-1.765,3.257-5.294,6.084-6.68,4.141,1.348,7.607,4.477,12,5.162-.323-.884-.659-1.765-1.021-2.632a2.839,2.839,0,0,0,2.152,1.076,6.018,6.018,0,0,0-1.76-1.888,1.752,1.752,0,0,1-1.263-.119c-1.56-.757-2.942-1.824-4.443-2.679-.472-.238-.961-.434-1.441-.651a13.814,13.814,0,0,1-2.955-2.568" transform="translate(-1484.644 -1377.7)" fill="#d6d2c9"/>
        <path id="Trazado_1016674" data-name="Trazado 1016674" d="M1679.825,1611.275c-1.794,1.629-2.381,4.018-3.359,6.14,1.118.017,2.606.778,3.376-.387a6.377,6.377,0,0,0,1.31-3.708,7.014,7.014,0,0,0-1.327-2.045" transform="translate(-1443.554 -1459.033)" fill="#d6d2c9"/>
        <path id="Trazado_1016675" data-name="Trazado 1016675" d="M1953.18,1613.53c-.667-.536-1.331-1.816-2.356-1.335a12.725,12.725,0,0,1-5.213,1.764c-.153-.48-.311-.956-.468-1.433a4.316,4.316,0,0,0-3.614.846c-.565,1.216.854,1.79,1.8,1.969-.778.085-1.556.174-2.343.259-.5-.791-.617-1.862-1.348-2.47a15.639,15.639,0,0,1-3.444,1.879,1.978,1.978,0,0,0-1.19,1.037c-1.042,2.6-2.245,5.132-3.338,7.713a24.6,24.6,0,0,0,9.125-2.921c3.031-1.556,5.57-3.963,8.729-5.285a3.383,3.383,0,0,1,2.619-.319c.331-.578.676-1.152,1.037-1.705" transform="translate(-1739.695 -1459.771)" fill="#d6d2c9"/>
        <path id="Trazado_1016676" data-name="Trazado 1016676" d="M2171.711,1652.27c-2.126.1-4.073,1.071-6.178,1.314a36.347,36.347,0,0,1-6.344.378c-2.98.132-5.485,1.9-7.878,3.5-2.691,1.31-4.788,3.533-7.466,4.868-2.543,1.3-4.6,3.338-6.973,4.894-.57.493-1.169-.183-1.523-.6.868,2.551,1.778,5.094,2.488,7.7-1.752,1.152-3.559,2.224-5.332,3.346a7.3,7.3,0,0,1,.68,3.027,8.017,8.017,0,0,1,1.093,3.3c2.339-2.806,5.3-5,7.875-7.568,5.523-4.928,11.084-10,17.734-13.381,2.521-1.165,5.238-2.432,8.083-2.156,1.276-2.861,2.5-5.749,3.741-8.618" transform="translate(-1977.202 -1496.155)" fill="#d6d2c9"/>
        <path id="Trazado_1016677" data-name="Trazado 1016677" d="M1573.786,1688.2a22.414,22.414,0,0,0-8.346.727,46.422,46.422,0,0,1-1.254,4.545c-.4,1.756-1.5,3.266-1.811,5.039-.093,1.543-.212,3.235.655,4.609,1.36-.94,2.364-2.3,3.623-3.364l-.013-.072c-.327-2.185.306-4.388.306-6.586.71,1.225,2.147,1.454,3.2,2.249.315-.506.642-1,.948-1.505.936-1.862,1.739-3.788,2.7-5.642" transform="translate(-1325.402 -1528.565)" fill="#d6d2c9"/>
        <path id="Trazado_1016678" data-name="Trazado 1016678" d="M1363.824,1883.48a7.689,7.689,0,0,1-1.386,1.828c.03.306.051.621.068.94.119,2.857.264,5.817-.616,8.584-1.106,3.091-4.162,4.724-6.357,6.952-.876,2.079-1.943,4.073-2.815,6.157,2.526-1.629,4.52-3.916,6.688-5.966,2.241-2.139,4.3-4.681,4.924-7.789a22.059,22.059,0,0,0-.506-10.706" transform="translate(-1096.57 -1705.519)" fill="#d6d2c9"/>
        <path id="Trazado_1016679" data-name="Trazado 1016679" d="M1490.859,2081.795c-1.462.523-2.4,1.815-3.661,2.657-3.257,2.066-6.148,4.643-9.269,6.892a77.106,77.106,0,0,0-6.718,4.345,39.01,39.01,0,0,0-6.071,6.671c-3.027,4.137-5.919,8.368-8.895,12.539,1.178,1.471,2.339,2.959,3.44,4.486a179.223,179.223,0,0,1,11.918-16.48c3.584-4.4,8.512-7.351,12.7-11.1a10.454,10.454,0,0,1,2.755-2.236c1.216-2.619,2.5-5.2,3.8-7.772" transform="translate(-1232.453 -1885.096)" fill="#d6d2c9"/>
        <path id="Trazado_1016680" data-name="Trazado 1016680" d="M1799.387,2522.3q-4.962,7.424-9.962,14.822,1.384.714,2.747,1.467c1.752-3.228,3.78-6.3,5.8-9.359.923-1.432,2.2-2.662,2.857-4.247-.047-1.067-.876-1.854-1.441-2.683" transform="translate(-1573.903 -2283.98)" fill="#d6d2c9"/>
        <path id="Trazado_1016681" data-name="Trazado 1016681" d="M3619.58,2524.886a1.383,1.383,0,0,0-1.535-1.182,1.7,1.7,0,0,0,1.535,1.182" transform="translate(-3565.433 -2285.24)" fill="#d6d2c9"/>
        <path id="Trazado_1016682" data-name="Trazado 1016682" d="M3596.223,2557.09c-.493-.442-1-.868-1.5-1.309,1.467,1.318-.246,3.257.157,4.889l-.689.013c.386.332.756.676,1.135,1.012-.089-1.551-.213-3.359.893-4.6" transform="translate(-3539.823 -2314.296)" fill="#d6d2c9"/>
        <path id="Trazado_1016683" data-name="Trazado 1016683" d="M3450.528,2680.342a5.5,5.5,0,0,0-1.458-1.352c.008.293.03.88.042,1.174a2.987,2.987,0,0,0,1.416.178" transform="translate(-3380.415 -2425.865)" fill="#d6d2c9"/>
        <path id="Trazado_1016684" data-name="Trazado 1016684" d="M1893.713,2684.222c-.872-.468-1.743-.944-2.619-1.407-2.122,3.108-4.179,6.259-6.314,9.358,1.165.659,2.343,1.3,3.516,1.948,1.777-3.316,3.644-6.582,5.417-9.9" transform="translate(-1675.797 -2429.328)" fill="#d6d2c9"/>
        <path id="Trazado_1016685" data-name="Trazado 1016685" d="M3453.55,2699.631c.362-1.118-1.063-1.22-1.718-.736a3.689,3.689,0,0,0,1.718.736" transform="translate(-3383.756 -2443.641)" fill="#d6d2c9"/>
        <path id="Trazado_1016686" data-name="Trazado 1016686" d="M1974.247,2791.14c-1.212-.655-2.411-1.322-3.661-1.9-4.022,6.054-8.146,12.05-12.547,17.832a108,108,0,0,1-12.509,13.159c2.917,1.174,5.715,2.611,8.585,3.882a94.676,94.676,0,0,0,8.878-12.905c3.844-6.637,7.683-13.282,11.255-20.069" transform="translate(-1762.071 -2525.698)" fill="#d6d2c9"/>
        <path id="Trazado_1016687" data-name="Trazado 1016687" d="M2839.179,672.226c-.51-1.271-2.322-1.271-3.252-.5a10.091,10.091,0,0,0-1.557,2.207c-1.012,1.552-.536,3.491-.612,5.23a8.428,8.428,0,0,0,1.2,4.609c.157.557.676.736,1.178.859-1.807-3.121-2.568-7.118-.663-10.379.672-.876,1.144-2.407,2.5-2.215,1.42,2.079.774,4.9.047,7.139.315.085.625.174.931.264a8.61,8.61,0,0,0,.238-7.215" transform="translate(-2711.598 -607.781)" fill="#f79623"/>
        <path id="Trazado_1016688" data-name="Trazado 1016688" d="M2565.528,888.932a4.446,4.446,0,0,0-4.528-.306c-.115.217-.34.651-.455.867a13.162,13.162,0,0,0,4.983-.561" transform="translate(-2411.463 -804.24)" fill="#f79623"/>
        <path id="Trazado_1016689" data-name="Trazado 1016689" d="M2900.1,1011.74a29.025,29.025,0,0,1-5.115,6.99c.974,2.492,2.53,4.686,3.648,7.109,1.093-2.521,1.917-5.166,3.21-7.594a22.507,22.507,0,0,0,4.358,2.049c-.846-1.016-1.683-2.045-2.521-3.07-1.395-1.692-2.27-3.729-3.58-5.485" transform="translate(-2783.736 -916.146)" fill="#f79623"/>
        <path id="Trazado_1016690" data-name="Trazado 1016690" d="M3479.594,1187.375c-1.484.242-2.624,1.292-3.878,2.045a30.408,30.408,0,0,0-6.667,5.34c1.45,1.305,2.785,2.734,4.227,4.048a16.165,16.165,0,0,0,1.892-2.283c1.739-2.462,4.269-4.235,5.948-6.743a11.023,11.023,0,0,1-1.522-2.406" transform="translate(-3412.891 -1075.186)" fill="#f79623"/>
        <path id="Trazado_1016691" data-name="Trazado 1016691" d="M3395.13,1220.732a39.85,39.85,0,0,1-8.189-5.277l.544.68a72.081,72.081,0,0,0-7.355,9.005,58.819,58.819,0,0,0,4.859,4.031,6.094,6.094,0,0,0,2.3,1.4,119.34,119.34,0,0,1,7.836-9.843" transform="translate(-3318.503 -1100.613)" fill="#f79623"/>
        <path id="Trazado_1016692" data-name="Trazado 1016692" d="M2111.841,1236.5c-.888-.88-1.845-1.692-2.717-2.594-.3.17-.889.514-1.186.684-.528.311-1.05.621-1.578.944,1.646.965,3.635.927,5.48.965" transform="translate(-1914.861 -1117.319)" fill="#f79623"/>
        <path id="Trazado_1016693" data-name="Trazado 1016693" d="M3277.217,1279.507c-2.853-1.122-5.761-2.118-8.512-3.482a24.156,24.156,0,0,1-2.913,3.733c-1.7,2.16-3.431,4.3-4.957,6.586,2.07,1.658,4.468,2.836,6.615,4.392a15.792,15.792,0,0,0,2.449,1.45,43.389,43.389,0,0,1,3.72-5.387c1.841-2.062,3.418-4.362,5.417-6.28a2.929,2.929,0,0,1-1.82-1.012" transform="translate(-3191.139 -1155.46)" fill="#f79623"/>
        <path id="Trazado_1016694" data-name="Trazado 1016694" d="M3567.446,1276.43a74.832,74.832,0,0,0-9.656,14.078,36.535,36.535,0,0,0,5.532,5.1,78.732,78.732,0,0,1,8.695-14.932c-1.454-1.488-3.21-2.653-4.571-4.243" transform="translate(-3512.176 -1155.826)" fill="#f79623"/>
        <path id="Trazado_1016695" data-name="Trazado 1016695" d="M1859.19,1322.51a11.941,11.941,0,0,1-3.21.54c.523.485,1.042.974,1.543,1.475.17-.161.5-.485.667-.646,1.769,1.029,2.776,2.976,3.678,4.741,1.407,1.352,2.858,2.657,4.209,4.069a12.078,12.078,0,0,0-2.024-3.049,46.688,46.688,0,0,1-4.864-7.13" transform="translate(-1645.441 -1197.552)" fill="#f79623"/>
        <path id="Trazado_1016696" data-name="Trazado 1016696" d="M3487.631,1334.3c-2.475-1.888-4.975-3.746-7.39-5.71a95.975,95.975,0,0,0-8.266,15.081,65.325,65.325,0,0,0,7.7,5.54c.115-.144.349-.429.464-.574,1.862-5.085,4.762-9.686,7.488-14.337" transform="translate(-3419.682 -1203.053)" fill="#f79623"/>
        <path id="Trazado_1016697" data-name="Trazado 1016697" d="M3155.02,1332.957c-.689-.434-1.616-.786-2.3-.128a79.467,79.467,0,0,0-8.525,11.089c1.871,1.6,4.248,2.449,6.378,3.653.927.361,1.777,1.161,2.776,1.194,1.709-1.73,2.942-3.878,4.681-5.587s3.146-3.746,5.136-5.179c-2.645-1.786-5.374-3.453-8.146-5.043" transform="translate(-3064.248 -1206.567)" fill="#f79623"/>
        <path id="Trazado_1016698" data-name="Trazado 1016698" d="M3110.348,1334.913a44.848,44.848,0,0,1-8.678-1.378c1.969,1.935,4.6,2.955,6.93,4.371a33.922,33.922,0,0,0,3.044-2.627,12.468,12.468,0,0,0-2.581-.055c.434-.106.859-.208,1.284-.31" transform="translate(-3008.708 -1207.536)" fill="#f79623"/>
        <path id="Trazado_1016699" data-name="Trazado 1016699" d="M1930.135,1363.8c-3.087-3.015-6.305-5.9-9.29-9.022a27.825,27.825,0,0,0-6.969,6.361c-.6.978-1.509,2.181-.91,3.368a4.886,4.886,0,0,0,4.43,2.908,18.53,18.53,0,0,1,3.146-4.528,40.454,40.454,0,0,1,4.792,3.286c1.42-.425,2.87-.735,4.282-1.186.128-.3.391-.888.519-1.186" transform="translate(-1714.864 -1226.769)" fill="#f79623"/>
        <path id="Trazado_1016700" data-name="Trazado 1016700" d="M2881.375,1357.416a191.371,191.371,0,0,0-19-2.326,37.732,37.732,0,0,1-3.619,3.112c3.551,2.066,6.939,4.409,10.528,6.407,4.435-2.3,9.04-4.6,14.1-5.013a26.5,26.5,0,0,1-2.016-2.181" transform="translate(-2757.502 -1227.054)" fill="#f79623"/>
        <path id="Trazado_1016701" data-name="Trazado 1016701" d="M3034.762,1400.577c-.757-.425-1.624-1.526-2.568-.884a67.126,67.126,0,0,0-9.184,10.422c2.891,2.071,6.369,3.2,9.652,4.507,3.1-3.223,6.314-6.489,10.23-8.712,0-.085.013-.255.013-.34a82.515,82.515,0,0,0-8.143-4.992" transform="translate(-2932.535 -1267.265)" fill="#f79623"/>
        <path id="Trazado_1016702" data-name="Trazado 1016702" d="M3384.7,1403.83c-2.93-1.964-5.774-4.086-8.874-5.766a58.975,58.975,0,0,0-3.125,5.421c-1.369,2.241-2.4,4.669-3.622,6.99a6.342,6.342,0,0,0-.833,2.428c2.347,1.352,4.647,2.772,7.037,4.048a7.576,7.576,0,0,0,2.372,1.08c1.943-4.923,4.668-9.5,7.046-14.2" transform="translate(-3306.955 -1265.969)" fill="#f79623"/>
        <path id="Trazado_1016703" data-name="Trazado 1016703" d="M2784.672,1419.826c-1.726-1.671-3.031-3.72-4.822-5.336-4.8.791-9.63,2.007-13.746,4.7,1.284.685,2.543,1.4,3.776,2.177a32.641,32.641,0,0,1,6.6-.085c.646-.038,1.067.476,1.526.833a27.093,27.093,0,0,1,6.718,3.453c.957-.442,1.913-.889,2.823-1.411l-.2-.9c-.927-1.114-1.637-2.4-2.675-3.427" transform="translate(-2652.908 -1280.842)" fill="#f79623"/>
        <path id="Trazado_1016704" data-name="Trazado 1016704" d="M3662.182,1436.9a93.992,93.992,0,0,0-5.392,13.223c.319,1.841,1.837,2.989,3.036,4.269a21.935,21.935,0,0,0,2.555,2.317c1.577-4.881,3.431-9.673,5.268-14.452-1.671-1.909-4.111-3.121-5.468-5.357" transform="translate(-3617.163 -1301.134)" fill="#f79623"/>
        <path id="Trazado_1016705" data-name="Trazado 1016705" d="M3264.311,1467.652a2.377,2.377,0,0,0-1.42-.425,122.7,122.7,0,0,0-5.783,11c-.421,1.046-1.212,2.007-1.177,3.189a72.415,72.415,0,0,0,9.056,3.907,81.448,81.448,0,0,1,4.647-9.052c.825-1.45,1.948-2.7,2.721-4.184-2.645-1.543-5.464-2.781-8.045-4.439" transform="translate(-3183.994 -1328.595)" fill="#f79623"/>
        <path id="Trazado_1016706" data-name="Trazado 1016706" d="M2973.874,1473.672c-1.569-.774-2.989-1.8-4.511-2.662a45.689,45.689,0,0,0-10.524,8.882,45.186,45.186,0,0,0,5,2.249,31.083,31.083,0,0,1,10.03-8.47" transform="translate(-2857.442 -1332.021)" fill="#f79623"/>
        <path id="Trazado_1016707" data-name="Trazado 1016707" d="M3572.019,1505c-1.535-.965-2.841-2.258-4.414-3.164a111.411,111.411,0,0,0-4.877,13.533c-.089.442-.374,1.072.09,1.412a48.587,48.587,0,0,0,7.84,5.477,133.57,133.57,0,0,1,4.8-14.809,17.625,17.625,0,0,0-3.444-2.449" transform="translate(-3516.073 -1359.934)" fill="#f79623"/>
        <path id="Trazado_1016708" data-name="Trazado 1016708" d="M2659.573,1525.19c-1.1.417-2.211,1.288-3.449.927,5.409,3.984,8.768,10.09,11.208,16.216.514-.638,1.029-1.263,1.552-1.879-1.688-3.27-3.576-6.425-5.455-9.588a55.791,55.791,0,0,0-3.856-5.676" transform="translate(-2523.85 -1381.082)" fill="#f79623"/>
        <path id="Trazado_1016709" data-name="Trazado 1016709" d="M3151.681,1525.878a3.946,3.946,0,0,0-1.459-.463,80.975,80.975,0,0,0-7.287,13.355c3.312.978,6.471,2.615,9.906,3.07,1.407-4.5,4.613-8.151,7.024-12.126-2.721-1.293-5.515-2.432-8.185-3.835" transform="translate(-3060.828 -1381.286)" fill="#f79623"/>
        <path id="Trazado_1016710" data-name="Trazado 1016710" d="M3462.345,1571.072c-2.406-1.348-4.838-2.67-7.16-4.167a82.093,82.093,0,0,0-4.834,13.372,5.97,5.97,0,0,0-.247,1.675c2.717,1.577,5.468,3.1,8.3,4.469a2.5,2.5,0,0,0,1.207.268,94.282,94.282,0,0,1,4.767-14.414c-.285-.816-1.386-.769-2.028-1.2" transform="translate(-3394.358 -1418.856)" fill="#f79623"/>
        <path id="Trazado_1016711" data-name="Trazado 1016711" d="M3089.238,1580.62c-1.807-.574-3.559-1.322-5.4-1.79-1.9,2.521-4.031,4.928-5.327,7.84-.621,1.348-1.34,2.649-1.948,4.005,2.156.74,4.345,1.377,6.556,1.935-.187.472-.383.952-.6,1.42-2.083-1.118-4.524-1.22-6.625-2.309-1.947,4.571-3.066,9.431-4.367,14.214,2.713.638,5.43,1.292,8.177,1.76a5.514,5.514,0,0,1,.752-2.683,71.692,71.692,0,0,1,2.134-10.906l.677.357a9.3,9.3,0,0,1,1.19-5.238,35.134,35.134,0,0,1,4.788-8.606" transform="translate(-2983.452 -1429.654)" fill="#f79623"/>
        <path id="Trazado_1016712" data-name="Trazado 1016712" d="M3720.021,1596.425a113.743,113.743,0,0,0-3.1,12.785,21.512,21.512,0,0,0-.552,4.239c1.709,2.185,4.073,3.7,6.1,5.561.872-5.531,2.049-11,3.439-16.421-1.9-2.088-4.881-3.406-5.885-6.165" transform="translate(-3681.048 -1445.587)" fill="#f79623"/>
        <path id="Trazado_1016713" data-name="Trazado 1016713" d="M3355.5,1632.425c-2.976-1.335-6.08-2.4-8.929-4.005a20.136,20.136,0,0,0-1.846,4.384c-1.271,3.346-2.415,6.735-3.388,10.179,1.118.859,2.539,1.144,3.771,1.794a35.314,35.314,0,0,0,5.927,2.279c.889-3.1,1.335-6.327,2.581-9.324.493-1.82,1.535-3.448,1.883-5.307" transform="translate(-3275.211 -1474.558)" fill="#f79623"/>
        <path id="Trazado_1016714" data-name="Trazado 1016714" d="M1542.671,1641.92c-.753.706-1.446,1.475-2.13,2.254a3.587,3.587,0,0,1-2.44-2.194l-.54,1.195c-1.807.757-3.848-.042-5.625.362a8.648,8.648,0,0,0,5.574.9,4.579,4.579,0,0,1,2.934.365c-.2.536-.408,1.089-.642,1.624-.957,1.854-1.76,3.78-2.7,5.642,1.446-1.5,2.13-3.516,3.2-5.264a37.429,37.429,0,0,0,2.368-4.881" transform="translate(-1291.417 -1486.782)" fill="#f79623"/>
        <path id="Trazado_1016715" data-name="Trazado 1016715" d="M3630.967,1677.555c-2.492-1.769-5.175-3.266-7.564-5.17a138.293,138.293,0,0,0-3.372,15.859c.026.132.077.4.107.536,2.768,1.756,5.4,3.733,8.257,5.336.821-4.83,1.369-9.732,2.794-14.435.081-.68.48-1.654-.221-2.126" transform="translate(-3577.415 -1514.369)" fill="#f79623"/>
        <path id="Trazado_1016716" data-name="Trazado 1016716" d="M3230.356,1678.352a3.072,3.072,0,0,0-1.3-.23c-1.569,4.767-3.448,9.46-4.49,14.38,3.363,1.008,6.637,2.423,10.111,2.968.855-3.835,1.573-7.738,3.206-11.335a10.821,10.821,0,0,0,1.11-2.862c-2.921-.842-5.8-1.828-8.635-2.921" transform="translate(-3147.666 -1519.563)" fill="#f79623"/>
        <path id="Trazado_1016717" data-name="Trazado 1016717" d="M1446.9,1681.835a24,24,0,0,0-1.233,4.078c-.689,3.087-1.96,6.029-2.423,9.163l.561-.221c1.135-3.673,1.952-7.436,2.921-11.157a7.878,7.878,0,0,0,.174-1.862" transform="translate(-1187.262 -1522.926)" fill="#f79623"/>
        <path id="Trazado_1016718" data-name="Trazado 1016718" d="M2594.123,1707.467c-1.981-4.124-3.933-8.266-6.161-12.267q-.809.951-1.633,1.9a105.571,105.571,0,0,1,4.243,12.747c1.212-.761,2.317-1.667,3.55-2.381" transform="translate(-2442.494 -1535.029)" fill="#f79623"/>
        <path id="Trazado_1016719" data-name="Trazado 1016719" d="M3519.112,1742.639a73.494,73.494,0,0,1-9.095-4.779q-1.99,7.915-3.282,15.991c2.934,1.748,6.123,3.044,9.158,4.6.995-4.711,1.582-9.55,3.176-14.125.089-.531.583-1.271.043-1.688" transform="translate(-3454.697 -1573.658)" fill="#f79623"/>
        <path id="Trazado_1016720" data-name="Trazado 1016720" d="M1402.176,1767.6c-.731.166-.68,1.016-.884,1.59-.766,3.618-1.731,7.194-2.823,10.727a7.9,7.9,0,0,0-.319,1.76c1.263-1.127,1.224-2.972,1.807-4.456.816-3.18,2.045-6.323,2.219-9.622" transform="translate(-1138.281 -1600.592)" fill="#f79623"/>
        <path id="Trazado_1016721" data-name="Trazado 1016721" d="M3406.762,1799.925a60.421,60.421,0,0,1-8.933-3.61c-1.089,2.955-1.51,6.1-2.275,9.141-.34,2.143-1.08,4.231-1.085,6.42,3.249,1.454,6.71,2.368,9.971,3.8.9-4.511,1.246-9.137,2.5-13.585.119-.685.549-1.684-.175-2.168" transform="translate(-3331.899 -1626.59)" fill="#f79623"/>
        <path id="Trazado_1016722" data-name="Trazado 1016722" d="M3759.331,1800.781c-.778-.651-1.382-1.578-2.394-1.9a36.582,36.582,0,0,0-.825,8.984,55.368,55.368,0,0,0,.034,6.82c.017,1.012,1.156,1.369,1.794,1.956,1.169.689,2.066,1.935,3.448,2.173-.131-2.551.625-5.034.519-7.585-.1-2.6,1.046-5.077.859-7.657-1.059-1.021-2.364-1.765-3.436-2.789" transform="translate(-3721.677 -1628.913)" fill="#f79623"/>
        <path id="Trazado_1016723" data-name="Trazado 1016723" d="M2528.984,1841.225a69.369,69.369,0,0,0-3.359-8.325,44.327,44.327,0,0,0-3.448,2.866c2.713,8.061,5.664,16.042,8.381,24.1-.03-.208-.09-.634-.119-.842a7.816,7.816,0,0,0,.795-2.964,24.832,24.832,0,0,0-.476-8.5,8.017,8.017,0,0,0-1.093-3.3,7.3,7.3,0,0,0-.68-3.027" transform="translate(-2373.681 -1659.718)" fill="#f79623"/>
        <path id="Trazado_1016724" data-name="Trazado 1016724" d="M3286.566,1844.707c-3.321-1.233-6.875-1.79-10.12-3.257-.841,2.989-1.114,6.11-1.824,9.137-.281,2.143-.7,4.281-.782,6.446,3.682.782,7.19,2.219,10.9,2.861-.073-2.241.433-4.439.51-6.671.225-2.87,1.225-5.63,1.318-8.516" transform="translate(-3199.897 -1667.46)" fill="#f79623"/>
        <path id="Trazado_1016725" data-name="Trazado 1016725" d="M3658.595,1861.189a51.626,51.626,0,0,1-4.38-3.044c-.8,4.09-.935,8.278-1.637,12.39a17.1,17.1,0,0,0-.153,2.649c2.768,1.764,5.783,3.078,8.6,4.745.6-2.028.246-4.162.629-6.216.408-2.649.527-5.34,1.131-7.951-1.208-1.144-2.819-1.671-4.192-2.573" transform="translate(-3611.888 -1682.578)" fill="#f79623"/>
        <path id="Trazado_1016726" data-name="Trazado 1016726" d="M1378.689,1867.187c-.06-.17-.174-.506-.234-.672a55.872,55.872,0,0,1-1.9,10.834c2.02-1.514.986-4.66,2.606-6.463-.017-.319-.038-.634-.068-.94-.11-.927-.23-1.849-.4-2.759" transform="translate(-1113.22 -1690.157)" fill="#f79623"/>
        <path id="Trazado_1016727" data-name="Trazado 1016727" d="M3172.475,1882.072c-3.023-.2-5.859-1.4-8.861-1.7-.6,5.06-1.556,10.094-1.824,15.183,3.733.791,7.522,1.344,11.276,2.036a106.932,106.932,0,0,1-.591-15.523" transform="translate(-3075.809 -1702.707)" fill="#f79623"/>
        <path id="Trazado_1016728" data-name="Trazado 1016728" d="M3556.35,1926.145c-2.989-1.543-6.182-2.7-9.065-4.46-.8,4.715-.9,9.52-1.646,14.231a45.2,45.2,0,0,0,5.307,2.309c1.216.451,2.376,1.225,3.72,1.127.276-4.435,1.216-8.793,1.683-13.206" transform="translate(-3495.362 -1740.114)" fill="#f79623"/>
        <path id="Trazado_1016729" data-name="Trazado 1016729" d="M3435.621,1975.436a75.273,75.273,0,0,1-10.32-3.89c-.433,2.475-.5,5-1.127,7.449-.208,2.1-.391,4.205-.621,6.305,3.529,1.3,7.152,2.3,10.724,3.47.552-2.674.293-5.412.773-8.091.089-1.76.574-3.474.57-5.243" transform="translate(-3363.097 -1785.263)" fill="#f79623"/>
        <path id="Trazado_1016730" data-name="Trazado 1016730" d="M3779.573,1995.6c-1.662-.99-3.006-2.645-4.906-3.133-.3,5.2-.115,10.43.1,15.63,1.267.995,2.692,2.3,4.41,2.186a37.478,37.478,0,0,1,.25-6.735c.025-2.649.154-5.3.149-7.947" transform="translate(-3740.209 -1804.211)" fill="#f79623"/>
        <path id="Trazado_1016731" data-name="Trazado 1016731" d="M3308.72,2020.542a62.868,62.868,0,0,1-10.43-2.917l-.353.234a111.645,111.645,0,0,0-1.28,12.973c3.848.893,7.649,2.143,11.574,2.632-.1-4.32.693-8.6.489-12.921" transform="translate(-3224.24 -1826.989)" fill="#f79623"/>
        <path id="Trazado_1016732" data-name="Trazado 1016732" d="M3680.073,2038.168c-2.963-1.242-5.731-2.883-8.563-4.388-.17,5.06-.281,10.136-.212,15.2,2.576,1.216,5.132,2.479,7.678,3.754,1.025-3.822.353-7.891,1-11.782a21.757,21.757,0,0,0,.093-2.785" transform="translate(-3630.96 -1841.618)" fill="#f79623"/>
        <path id="Trazado_1016733" data-name="Trazado 1016733" d="M3166.307,2054.714a104.508,104.508,0,0,1-10.961-2.079,4.741,4.741,0,0,0-.336,1.518c.055,3.805-.6,7.577-.438,11.391,4.1.965,8.3,1.5,12.458,2.156a24.4,24.4,0,0,1,.3-5.047,40.806,40.806,0,0,0-1.025-7.938" transform="translate(-3069.39 -1858.691)" fill="#f79623"/>
        <path id="Trazado_1016734" data-name="Trazado 1016734" d="M3576.838,2091.366c-2.959-.893-5.668-2.449-8.6-3.406-.612,2.636-.315,5.353-.527,8.027a45.6,45.6,0,0,0-.387,6.289c2.84,1.084,5.638,2.521,8.661,2.968-.217-4.652.944-9.231.855-13.878" transform="translate(-3517.903 -1890.678)" fill="#f79623"/>
        <path id="Trazado_1016735" data-name="Trazado 1016735" d="M3447.854,2132.017a67,67,0,0,1-8.989-2.972c-.425,1.344-.2,2.776-.4,4.163a63.906,63.906,0,0,0-.761,10.034c3.7,1.233,7.543,2.062,11.186,3.453a36.638,36.638,0,0,1,.242-4.979c.442-2.947-.106-5.965.561-8.883a5.1,5.1,0,0,0-1.841-.816" transform="translate(-3378.507 -1927.881)" fill="#f79623"/>
        <path id="Trazado_1016736" data-name="Trazado 1016736" d="M3317.683,2172.932c-3.772-1.025-7.628-1.709-11.382-2.8-.562,2.874-.047,5.851-.515,8.746a46.748,46.748,0,0,0-.221,5.29c3.367.655,6.7,1.437,10.039,2.19a13.107,13.107,0,0,0,2,.038c-.051-4.49.077-8.976.077-13.461" transform="translate(-3234.01 -1965.084)" fill="#f79623"/>
        <path id="Trazado_1016737" data-name="Trazado 1016737" d="M3783.2,2179.6a41.729,41.729,0,0,0-4.35-2.355c.064,3.9-.234,7.819.115,11.705a37.559,37.559,0,0,0,4.239,2.683c.03-4.009.128-8.027,0-12.032" transform="translate(-3744.311 -1971.522)" fill="#f79623"/>
        <path id="Trazado_1016738" data-name="Trazado 1016738" d="M3166.169,2206.358c-4.277-.552-8.5-1.484-12.79-1.938-.672,4.486-.281,9.052-.455,13.572,4.435.714,8.9,1.51,13.368,2.062,0-4.566-.17-9.133-.124-13.7" transform="translate(-3068.198 -1996.135)" fill="#f79623"/>
        <path id="Trazado_1016739" data-name="Trazado 1016739" d="M3688.126,2213.189c-2.552-1.641-5.459-2.657-8.189-3.954.217,4.031-.034,8.07-.017,12.109,2.568.732,4.745,2.47,7.326,3.087.051-.922.145-1.833.264-2.738.365-2.828-.064-5.719.616-8.5" transform="translate(-3639.826 -2000.494)" fill="#f79623"/>
        <path id="Trazado_1016740" data-name="Trazado 1016740" d="M3060.851,2227.5c-.6-.123-1.212-.242-1.82-.357-.06,4.464.021,8.933.076,13.4,2.568.306,5.136.608,7.713.808-2.079-4.575-4.409-9.061-5.97-13.848" transform="translate(-2959.852 -2016.712)" fill="#f79623"/>
        <path id="Trazado_1016741" data-name="Trazado 1016741" d="M3589.414,2257.172c-2.751-1.025-5.485-2.1-8.245-3.117-.212,3.895-.459,7.785-.837,11.667,2.811.884,5.468,2.181,8.266,3.091.578-1,.3-2.211.378-3.3-.17-2.8.706-5.532.438-8.337" transform="translate(-3531.754 -2041.08)" fill="#f79623"/>
        <path id="Trazado_1016742" data-name="Trazado 1016742" d="M3458.955,2294.592c-3.648-1.059-7.462-1.743-10.982-3.232-.485,1.6-.1,3.3-.379,4.941a41.215,41.215,0,0,0-.378,6.756c2.177.871,4.452,1.446,6.676,2.186a18.806,18.806,0,0,0,4.945,1.195c.043-3.087.021-6.174.14-9.252-.025-.858.459-1.815-.021-2.593" transform="translate(-3388.881 -2074.86)" fill="#f79623"/>
        <path id="Trazado_1016743" data-name="Trazado 1016743" d="M3786.623,2322.836c-1.233-.625-2.419-1.352-3.712-1.867-.268,2.836-.09,5.7-.093,8.542-.064,1.556,1.824,1.88,2.916,2.449.247-3.049,1.28-6.038.889-9.125" transform="translate(-3748.127 -2101.672)" fill="#f79623"/>
        <path id="Trazado_1016744" data-name="Trazado 1016744" d="M3318.99,2334.376c-4.154-.723-8.189-2.007-12.368-2.607.132,3.781-.179,7.564-.1,11.348-.111.646.735.634,1.135.766,2.594.433,5.073,1.407,7.688,1.748.987.114,1.892.561,2.857.744.638.081.74-.672.693-1.11,0-3.631-.055-7.262.094-10.889" transform="translate(-3235.407 -2111.452)" fill="#f79623"/>
        <path id="Trazado_1016745" data-name="Trazado 1016745" d="M3700.675,2352.475c-2.441-.854-4.711-2.117-7.075-3.155-.429,1.492-.17,3.061-.434,4.579a32.719,32.719,0,0,0-.723,4.494c2.381,1.144,4.668,2.479,6.931,3.835.221-.634.451-1.267.672-1.888-1.344-1.586-2.658-3.206-3.946-4.834a4.169,4.169,0,0,1-.791-1.841c1.781,1.5,2.8,3.69,4.422,5.357a2.447,2.447,0,0,0,.459-1.284c.136-1.756.833-3.487.485-5.264" transform="translate(-3653.654 -2127.344)" fill="#f79623"/>
        <path id="Trazado_1016746" data-name="Trazado 1016746" d="M3154.816,2363.518c-1.952-.145-3.831-.825-5.8-.833.008,4.014-.106,8.032-.017,12.041,4.583.583,9.116,1.922,13.759,1.807-.183-4.027.166-8.091-.459-12.092-2.53,0-4.962-.8-7.483-.923" transform="translate(-3064.29 -2139.446)" fill="#f79623"/>
        <path id="Trazado_1016747" data-name="Trazado 1016747" d="M2999.008,2387.126a4.039,4.039,0,0,0-.417-1.9c-1.195.744-2.611.306-3.907.17a22.19,22.19,0,0,0-4.252-.183c-.042,4.014.544,8,.408,12.012a122.056,122.056,0,0,0,13.8.982c-1.769-3.933-3.818-7.747-5.408-11.757-.073.221-.149.442-.226.672" transform="translate(-2891.194 -2159.827)" fill="#f79623"/>
        <path id="Trazado_1016748" data-name="Trazado 1016748" d="M3595.236,2392.343a48.951,48.951,0,0,1-5.49-2.117c-.6,1.56-.081,3.3-.506,4.919a4.9,4.9,0,0,0,.2,3.185l.421.421.119.136a23.09,23.09,0,0,0,3.907,3.962,1.383,1.383,0,0,1,1.535,1.183l.17.157c.327-.025.982-.072,1.305-.1.782-3.474.6-7.054,1.263-10.54a7.289,7.289,0,0,0-2.925-1.208" transform="translate(-3541.275 -2164.384)" fill="#f79623"/>
        <path id="Trazado_1016749" data-name="Trazado 1016749" d="M3466.826,2433.014c-3.928-.969-7.717-2.479-11.65-3.414-.429,3.627-.85,7.25-1.382,10.864a26.38,26.38,0,0,1,4.554,1.445c1.922.868,4.014,1.259,5.953,2.079a5.841,5.841,0,0,0,1.994.4c-.157-1.977.4-3.907.362-5.876.009-1.837.1-3.669.17-5.5" transform="translate(-3397.16 -2200.039)" fill="#f79623"/>
        <path id="Trazado_1016750" data-name="Trazado 1016750" d="M3799.528,2439.191a6.278,6.278,0,0,0-2.525-1.446c-.136,3.172-.043,6.348-.353,9.511a2.15,2.15,0,0,0,.884-1.352c.71-2.228,1.395-4.46,1.994-6.714" transform="translate(-3762.257 -2207.414)" fill="#f79623"/>
        <path id="Trazado_1016751" data-name="Trazado 1016751" d="M3712.313,2457.5a61.68,61.68,0,0,1-4.209,11.982c-.039.238-.111.706-.149.944a67.756,67.756,0,0,0,8.593,4.328c1.059-4.32,2.241-8.623,2.955-13.015-.259-.642-1.093-.829-1.641-1.173a52.261,52.261,0,0,1-5.549-3.066" transform="translate(-3673.851 -2225.302)" fill="#f79623"/>
        <path id="Trazado_1016752" data-name="Trazado 1016752" d="M3323.414,2473.005c-4.052-.765-8.036-1.867-12.071-2.725-.659,2.576-.064,5.281-.634,7.874a9.633,9.633,0,0,0,0,3.661c3.993,1.335,8.134,2.194,12.224,3.172a21.18,21.18,0,0,0,.446-5.413c.034-2.189.119-4.379.039-6.569" transform="translate(-3240.243 -2236.875)" fill="#f79623"/>
        <path id="Trazado_1016753" data-name="Trazado 1016753" d="M3153.673,2503.451a36.689,36.689,0,0,0-4.941-.816c0,4-.119,7.993-.17,11.994,4.762.74,9.473,1.969,14.3,2.237.043-4.009-.038-8.023-.025-12.033-3.057-.446-6.123-.82-9.163-1.382" transform="translate(-3064.367 -2266.173)" fill="#f79623"/>
        <path id="Trazado_1016754" data-name="Trazado 1016754" d="M3611.4,2508.016c-1.778-.132-3.049-1.675-4.813-1.781-.7,3.533-1.4,7.075-2.3,10.57a7.281,7.281,0,0,0-.625,2.819c1.875,1.021,3.908,1.675,5.834,2.577a6.86,6.86,0,0,0,3.274.918,47.647,47.647,0,0,0,1.148-4.779,2.576,2.576,0,0,0-.157-1.956c-1.884-1.781-4.244-3.219-5.579-5.485a2.254,2.254,0,0,1,1.348.77c1.458,1.462,3.045,2.793,4.6,4.149l.689-.013c-.4-1.633,1.31-3.571-.157-4.89-1.075-.978-2.118-1.994-3.257-2.9" transform="translate(-3559.748 -2269.433)" fill="#f79623"/>
        <path id="Trazado_1016755" data-name="Trazado 1016755" d="M2929.952,2526.043a93,93,0,0,1-13.963-.863c0,4.133.068,8.27-.035,12.4a136.617,136.617,0,0,0,14.614,1.02c-.03-2.929-.212-5.859,0-8.784l.48.281c.833,2.742.332,5.7.944,8.469,1.395.838,3.282.655,4.821.29q-3.482-6.652-6.8-13.389Z" transform="translate(-2816.326 -2286.588)" fill="#f79623"/>
        <path id="Trazado_1016756" data-name="Trazado 1016756" d="M3461.408,2553.394a11.308,11.308,0,0,1-1.73-1.033c-.03.221-.085.663-.111.885a43.758,43.758,0,0,0,4.005,3.414l.051.034.042.043a72.626,72.626,0,0,0,7.394,6.2c1.169-.77.621-2.33.944-3.486.03-.863.625-2.207-.455-2.636-3.431-.969-6.8-2.16-10.141-3.419" transform="translate(-3403.073 -2311.199)" fill="#f79623"/>
        <path id="Trazado_1016757" data-name="Trazado 1016757" d="M3448.772,2579.972c-4.184-3.321-8.329-6.705-12.254-10.332-1.106,1.246-.983,3.053-.893,4.6.829.668,1.7,1.276,2.59,1.863.684-.425,1.551.038,1.309.885a68.863,68.863,0,0,0,7.33,4.5c.243.1.727.3.974.4l.366.2c.655-.485,2.079-.383,1.718.735q.8.122,1.594.255l-.221-.867c-.353-.3-.706-.6-1.055-.9a2.985,2.985,0,0,1-1.416-.179c-.012-.293-.034-.88-.042-1.173" transform="translate(-3380.117 -2326.847)" fill="#f79623"/>
        <path id="Trazado_1016758" data-name="Trazado 1016758" d="M3329.135,2608.96c-4.214-.779-8.308-2.054-12.458-3.1-.654,1.578-.221,3.312-.557,4.954a6.872,6.872,0,0,0-.03,2.045,23.474,23.474,0,0,1,1.854,1.655c.009.012.025.029.034.042a3.366,3.366,0,0,1,.608,1.76,3.861,3.861,0,0,1-2.836-.264c-.234,1.025-.208,2.079-.387,3.112,4.18,1.586,8.61,2.292,12.9,3.5.349-4.571.944-9.12.876-13.712" transform="translate(-3246.394 -2359.648)" fill="#f79623"/>
        <path id="Trazado_1016759" data-name="Trazado 1016759" d="M3757.714,2610.706c-2.887-1.573-5.944-2.832-8.746-4.571a9.272,9.272,0,0,1-1.875,1.914c-.77,1.79-1.552,3.576-2.292,5.383-.566,1.45-1.552,2.755-1.7,4.35,3.614,1.794,6.794,4.52,10.71,5.664,1.208-4.273,2.615-8.487,3.9-12.739" transform="translate(-3715.382 -2359.894)" fill="#f79623"/>
        <path id="Trazado_1016760" data-name="Trazado 1016760" d="M3480.21,2632.717c-1.956-1.463-4.056-2.717-5.987-4.217-1.191,1.781-.8,4.132-1.722,6.067,4.537,1.714,9.018,3.648,13.75,4.771a15.743,15.743,0,0,0-.084-3.346c-.948-.468-1.875-.965-2.828-1.428-.047-.026-.145-.081-.2-.106-.9-.557-1.816-1.1-2.747-1.616-.046-.034-.14-.094-.187-.124" transform="translate(-3418.405 -2380.146)" fill="#f79623"/>
        <path id="Trazado_1016761" data-name="Trazado 1016761" d="M3158.671,2643.5c-3.049-.561-6.106-1.08-9.155-1.633.136,4.486-.863,8.912-.88,13.385.506.54,1.339.532,2.011.727,4.316.7,8.61,1.752,12.993,1.88a34.089,34.089,0,0,1,.349-5.434c.038-2.7.123-5.4.11-8.087a48.356,48.356,0,0,0-5.429-.838" transform="translate(-3065.602 -2392.248)" fill="#f79623"/>
        <path id="Trazado_1016762" data-name="Trazado 1016762" d="M3647.646,2663.427c-3.121-1.216-6.149-2.649-9.223-3.967-1.054,4.154-2.534,8.181-3.656,12.313-.37.889.774,1.088,1.327,1.391,2.849,1.139,5.591,2.538,8.474,3.593,1.037-4.439,2.292-8.84,3.079-13.33" transform="translate(-3595.071 -2408.179)" fill="#f79623"/>
        <path id="Trazado_1016763" data-name="Trazado 1016763" d="M2992.609,2669.976c-4.889.259-9.724-.506-14.571-.931-.064,2.934.021,5.876-.081,8.81a31.252,31.252,0,0,0-.37,4.958c1.14.6,2.458.3,3.674.54a63.457,63.457,0,0,0,11.769.791c-.128-2.385.238-4.792-.221-7.152-.345-2.325.055-4.685-.2-7.015" transform="translate(-2878.387 -2416.859)" fill="#f79623"/>
        <path id="Trazado_1016764" data-name="Trazado 1016764" d="M2833.518,2681.477a12.233,12.233,0,0,0-1.441-3.116c-1.692.272-3.419.2-5.12.408-.11,2.224.115,4.46-.213,6.676a47.1,47.1,0,0,0-.2,7.47c4.511.009,9.048.276,13.546-.14-1.407-2.636-3.04-5.14-4.4-7.8-.668-1.361-1.688-2.585-1.99-4.095-.051.191-.11.391-.178.6" transform="translate(-2711.154 -2425.294)" fill="#f79623"/>
        <path id="Trazado_1016765" data-name="Trazado 1016765" d="M3493.783,2713.2c-4.7-1.084-9.065-3.257-13.734-4.422-.561,2.542-1.169,5.076-1.73,7.623-.408,1.816-1.144,3.551-1.395,5.4,4.749,2.134,9.864,3.3,14.72,5.149.888-4.541,1.552-9.163,2.139-13.755" transform="translate(-3426.302 -2452.84)" fill="#f79623"/>
        <path id="Trazado_1016766" data-name="Trazado 1016766" d="M3794.5,2737.76a7.048,7.048,0,0,0-.552,2.436c-1.076,1.522-1.386,3.4-2.121,5.081-.6,1.4-.953,2.879-1.433,4.324a108.64,108.64,0,0,0,11.267,4.881c1.289-3.474,2.437-6.994,3.606-10.511-3.618-2.007-7.5-3.631-10.766-6.212" transform="translate(-3767.406 -2479.082)" fill="#f79623"/>
        <path id="Trazado_1016767" data-name="Trazado 1016767" d="M3342.419,2764.432c-4.265-1.169-8.6-2.049-12.866-3.227-.49,4.324-1.293,8.61-2.037,12.9-.2.553.429.978.9,1.063,4.1.821,8.125,1.99,12.211,2.883.064-.077.2-.226.268-.3a125.232,125.232,0,0,0,1.526-13.317" transform="translate(-3260.818 -2500.312)" fill="#f79623"/>
        <path id="Trazado_1016768" data-name="Trazado 1016768" d="M3164.067,2800.65c-2.683-.178-5.221-1.233-7.9-1.42.166,2.254-.476,4.443-.468,6.692-.081,2.376-.982,4.652-.931,7.041,4.388.655,8.708,1.73,13.117,2.253.757.042,1.773.655,2.253-.264.65-4.081.961-8.2,1.3-12.313-.055-.187-.166-.57-.226-.757-2.368-.5-4.792-.651-7.147-1.233" transform="translate(-3073.519 -2534.744)" fill="#f79623"/>
        <path id="Trazado_1016769" data-name="Trazado 1016769" d="M3676.94,2813.119a9.242,9.242,0,0,0-2.946-1.11c-.88,3.312-2.432,6.412-3.2,9.75-.3.808.782.936,1.259,1.229,3.044,1.165,6,2.713,9.2,3.372.957-1.646,1.008-3.584,1.59-5.357.5-1.667.961-3.342,1.416-5.018-2.38-1.1-4.953-1.714-7.313-2.866" transform="translate(-3635.085 -2546.316)" fill="#f79623"/>
        <path id="Trazado_1016770" data-name="Trazado 1016770" d="M2998.415,2831.82c-5.021.229-9.966-.893-14.971-.91-.374,2.64-.625,5.3-.893,7.951.034,1.939-.629,3.827-.421,5.765,2.1-.174,4.124.51,6.212.527,3.214-.051,6.386.65,9.6.374a21.75,21.75,0,0,1,.3-4.988c.213-2.9.2-5.816.17-8.72" transform="translate(-2884.198 -2563.431)" fill="#f79623"/>
        <path id="Trazado_1016771" data-name="Trazado 1016771" d="M2831.075,2841.97c-4.528.021-9.065-.076-13.6.055-.4,2.861-.166,5.761-.531,8.623-.136,1.751-.094,3.516-.162,5.276,4.873.013,9.749.042,14.622.034a77.163,77.163,0,0,0,.225-7.934c-.081-2.024.434-4.183-.557-6.054" transform="translate(-2701.84 -2573.432)" fill="#f79623"/>
        <path id="Trazado_1016772" data-name="Trazado 1016772" d="M3508,2861.146a5.184,5.184,0,0,0-2.113-.536c-.838,3.5-1.7,6.995-2.836,10.413,5.319,1.5,10.455,3.593,15.838,4.877.62-2.811,1.135-5.638,1.747-8.448a6.842,6.842,0,0,0,.115-2.015c-4.281-1.335-8.669-2.4-12.751-4.29" transform="translate(-3455.76 -2590.324)" fill="#f79623"/>
        <path id="Trazado_1016773" data-name="Trazado 1016773" d="M2728.548,2876.163a122.792,122.792,0,0,1-8.036-11.008c-.191,3.873-.4,7.742-.442,11.62,2.832-.136,5.638-.634,8.478-.612" transform="translate(-2589.555 -2594.44)" fill="#f79623"/>
        <path id="Trazado_1016774" data-name="Trazado 1016774" d="M3834.276,2867.63c-.6,1.586-.872,3.278-1.357,4.911.179.455.357.914.528,1.378a21.708,21.708,0,0,1,2.432,1.386,66.271,66.271,0,0,0,7.3,4.03c.574-2.011,1.42-3.916,2.1-5.884-3.142-1.557-6.458-2.73-9.609-4.265-.612-.353-1.518-.694-1.4-1.557" transform="translate(-3811.439 -2596.681)" fill="#f79623"/>
        <path id="Trazado_1016775" data-name="Trazado 1016775" d="M3361.139,2919.429c-3.971-.846-7.84-2.062-11.765-3.108-.948,3.372-1.135,6.917-2.138,10.285a60.071,60.071,0,0,0,5.808,1.616c2.657.808,5.345,1.76,8.155,1.743.528-3.253,1.076-6.492,1.5-9.758-.238-.583-1.037-.587-1.564-.778" transform="translate(-3282.969 -2640.771)" fill="#f79623"/>
        <path id="Trazado_1016776" data-name="Trazado 1016776" d="M3712.907,2936.55c-1.39-.485-2.7-1.377-4.18-1.51a28.605,28.605,0,0,0-1.943,6.008q4.631,2.424,9.384,4.614c.51-.158,1.012-.311,1.513-.455a35.756,35.756,0,0,0,1.837-6.085c-2.121-1.059-4.426-1.658-6.611-2.572" transform="translate(-3673.756 -2657.722)" fill="#f79623"/>
        <path id="Trazado_1016777" data-name="Trazado 1016777" d="M3187.932,2959.242c-5.187-.638-10.294-1.756-15.447-2.6-.48,3.644-1.238,7.245-1.786,10.881.71.034,1.416.03,2.122.068,4.465.744,8.907,1.786,13.427,2.151.663-3.482,1.1-7,1.684-10.5" transform="translate(-3091.517 -2677.281)" fill="#f79623"/>
        <path id="Trazado_1016778" data-name="Trazado 1016778" d="M3381.223,2987.229c-4.014-1.322-8.117-2.343-12.11-3.724-.633,2.393-1.476,4.732-2.079,7.138,2.556,1.106,5.149,2.135,7.751,3.134.6.208,1.182.421,1.773.634a56.653,56.653,0,0,0,6.2,2l-.119.569c1.71-.293,3.312.459,4.928.885q4.408,1.206,8.874,2.169a6.773,6.773,0,0,0,2.3-.124c.034-2.64,1.038-5.127,1.191-7.747-2.036-.361-4.039-.872-6.084-1.2l.051-.055-.765-.2.064-.047c-1.3-.332-2.878-.14-3.9-1.152q-1.55-.345-3.074-.8c-.936,2.683-1.165,5.583-2.317,8.2-.3-.289-.6-.574-.91-.863.655-2.479,1.258-4.97,1.875-7.458a14.708,14.708,0,0,0-3.648-1.356" transform="translate(-3322.071 -2701.607)" fill="#f79623"/>
        <path id="Trazado_1016779" data-name="Trazado 1016779" d="M2709.173,2990.974c-.5-.553-.944-1.144-1.424-1.709a76.7,76.7,0,0,1-9.04.795c-.221,2.334.264,4.686-.106,7.016a26.839,26.839,0,0,0-.217,4.175,28.124,28.124,0,0,0,4.112-.336c2.015-.344,4.077-.221,6.093-.578a79.192,79.192,0,0,0,.583-9.363" transform="translate(-2568.131 -2706.823)" fill="#f79623"/>
        <path id="Trazado_1016780" data-name="Trazado 1016780" d="M2999.925,2988.581c-2.355.068-4.651-.68-7.016-.485-.5,3.461-1.016,6.931-1.7,10.362,1.909.183,3.759.808,5.689.824,3.652-.008,7.237.923,10.889.846.183-3.593,1.182-7.125.889-10.74-.612-.587-1.59-.23-2.356-.336-2.156.149-4.247-.519-6.4-.472" transform="translate(-2895.359 -2705.735)" fill="#f79623"/>
        <path id="Trazado_1016781" data-name="Trazado 1016781" d="M2834.9,2998.875c-1.1-.391-2.241.238-3.372.178-3.9.055-7.81-.076-11.718.047.2,3.619-.846,7.143-.918,10.744,5.132.021,10.264.089,15.392-.03-.073-3.657.595-7.275.616-10.94" transform="translate(-2705.242 -2715.408)" fill="#f79623"/>
        <path id="Trazado_1016782" data-name="Trazado 1016782" d="M3196.78,3087.036a30.832,30.832,0,0,0-6.862-.795,35.248,35.248,0,0,0-1.262,6.773c1.046.378,2.07.8,3.087,1.241,4.018.714,8.082,1.105,12.135,1.569.744-2.406.918-4.94,1.726-7.326-2.887-.782-5.906-.808-8.823-1.463" transform="translate(-3110.884 -2794.633)" fill="#f79623"/>
        <path id="Trazado_1016783" data-name="Trazado 1016783" d="M3010.877,3110.778a39.448,39.448,0,0,1-6.654-.868,28.081,28.081,0,0,0-1.148,7.241c3.729.124,7.488-.14,11.174.566a27.814,27.814,0,0,0-4.413.238c1.888.247,3.793.225,5.689.328,1.437-.106,2.993.157,4.345-.323.417-2.113.536-4.286.8-6.425-3.286.107-6.505-.752-9.788-.756" transform="translate(-2908.411 -2816.069)" fill="#f79623"/>
        <path id="Trazado_1016784" data-name="Trazado 1016784" d="M2718.232,3117.965c-3.414.48-6.863.616-10.293.987-.064,2.164-.264,4.32-.29,6.488a23.994,23.994,0,0,1,3.351.4q2.64-.1,5.272-.37a13.839,13.839,0,0,0,1.96-7.509" transform="translate(-2578.066 -2823.363)" fill="#f79623"/>
        <path id="Trazado_1016785" data-name="Trazado 1016785" d="M2844.3,3127.211c-5.132.14-10.268.149-15.4-.021.03,2.237-.608,4.409-.646,6.641,5.289-.119,10.6.306,15.876-.051-.077-2.194.153-4.379.17-6.569" transform="translate(-2715.525 -2831.716)" fill="#f79623"/>
        <path id="Trazado_1016786" data-name="Trazado 1016786" d="M2750.156,1213.092l-.213-.247c-1.679,2.509-4.209,4.281-5.948,6.743a16.192,16.192,0,0,1-1.892,2.283c-1.441-1.314-2.777-2.742-4.226-4.048-.221.26-.667.774-.888,1.029,1.36,1.59,3.116,2.755,4.571,4.244a78.745,78.745,0,0,0-8.7,14.932,36.558,36.558,0,0,1-5.531-5.1l-.6,1.084c1.356,2.236,3.8,3.448,5.468,5.357-1.836,4.779-3.69,9.571-5.268,14.452a21.978,21.978,0,0,1-2.555-2.317c-1.2-1.28-2.717-2.428-3.036-4.269-.208.617-.447,1.225-.655,1.85,1,2.76,3.984,4.077,5.885,6.165-1.39,5.421-2.568,10.889-3.44,16.421-2.024-1.862-4.388-3.376-6.1-5.561l-.221-.476a7.642,7.642,0,0,1-.238,2.232c-.9,2.891-.4,5.961-.969,8.908q-.242,15.288,0,30.579a46.4,46.4,0,0,1,.336,4.677c-.03,7.8.217,15.6-.017,23.4-.668,3.695-1.093,7.458-2.5,10.97a9.3,9.3,0,0,0,1.875-1.913c2.8,1.739,5.859,3,8.746,4.571-1.289,4.252-2.7,8.465-3.9,12.738-3.916-1.144-7.1-3.869-10.71-5.663l-.621.791c3.27,2.581,7.147,4.205,10.766,6.212-1.169,3.516-2.317,7.037-3.606,10.51a108.68,108.68,0,0,1-11.268-4.881l-.153.429c-.119.863.787,1.2,1.4,1.556,3.151,1.535,6.468,2.709,9.609,4.265-.684,1.969-1.531,3.873-2.1,5.885.434.217.863.442,1.288.672a28.55,28.55,0,0,1,1.943-6.008c1.484.132,2.789,1.025,4.179,1.509,2.186.914,4.49,1.514,6.612,2.573a35.769,35.769,0,0,1-1.837,6.084c-.5.145-1,.3-1.513.455.85.37,1.7.723,2.551,1.1.6-2.407,1.446-4.745,2.079-7.139,3.993,1.382,8.1,2.4,12.11,3.725a14.7,14.7,0,0,1,3.648,1.356c-.616,2.487-1.22,4.979-1.875,7.458.306.289.608.574.91.863,1.152-2.615,1.382-5.515,2.317-8.2q1.525.453,3.074.8a21.234,21.234,0,0,1,4.4.778c-.123.094-.374.281-.5.374l-.064.047.765.2.45-.455c2.3.438,4.6.923,6.9,1.39.549-3.635,1.305-7.237,1.786-10.88,5.153.846,10.26,1.964,15.447,2.6-.583,3.495-1.021,7.016-1.684,10.5-4.52-.366-8.963-1.407-13.427-2.151,0,.208-.012.629-.017.838a23.389,23.389,0,0,1-3.423-.587c-.153,2.619-1.157,5.107-1.191,7.747a6.766,6.766,0,0,1-2.3.123c2.164.4,4.315.859,6.488,1.195-1.016-.438-2.041-.863-3.087-1.242a35.291,35.291,0,0,1,1.263-6.773,30.84,30.84,0,0,1,6.863.8c2.917.655,5.936.68,8.822,1.463-.808,2.385-.982,4.919-1.726,7.326,2.806.281,5.629.374,8.431.693a27.816,27.816,0,0,1,4.413-.238c-3.686-.706-7.445-.442-11.174-.566a28.066,28.066,0,0,1,1.148-7.241,39.509,39.509,0,0,0,6.654.867c3.282,0,6.5.863,9.788.757-.26,2.139-.378,4.311-.795,6.424-1.352.48-2.908.217-4.345.323,5.527.383,11.076.2,16.6.557,2.917-.042,5.842.136,8.755-.077l.463-.212a23.921,23.921,0,0,0-3.351-.4c.026-2.169.226-4.324.289-6.488,3.431-.37,6.879-.506,10.294-.986.1-.37.2-.731.293-1.089-2.015.357-4.077.234-6.093.578a28.325,28.325,0,0,1-4.111.336,26.785,26.785,0,0,1,.217-4.175c.37-2.33-.115-4.681.106-7.016a76.686,76.686,0,0,0,9.04-.8c-.158-.179-.468-.54-.625-.719-2.84-.021-5.646.476-8.478.612.042-3.878.251-7.747.442-11.62-.651-1.093-1.365-2.147-2.02-3.236-4.5.417-9.035.149-13.546.14a47.106,47.106,0,0,1,.2-7.471c.328-2.215.1-4.452.213-6.675,1.7-.208,3.427-.136,5.119-.408-.111-.2-.328-.6-.438-.8-1.54.366-3.427.548-4.822-.289-.612-2.772-.11-5.727-.944-8.47l-.48-.281c-.208,2.925-.025,5.855,0,8.784a136.567,136.567,0,0,1-14.614-1.02c.1-4.133.03-8.27.034-12.4a92.977,92.977,0,0,0,13.964.863l.059-.574-.238-.5a121.935,121.935,0,0,1-13.8-.982c.136-4.014-.451-8-.408-12.011a22.183,22.183,0,0,1,4.252.183c1.3.136,2.713.574,3.907-.17-.11-.191-.323-.574-.429-.765-2.577-.2-5.145-.5-7.713-.808-.055-4.464-.136-8.933-.077-13.4.608.115,1.22.234,1.82.357a80.566,80.566,0,0,1-3.741-15.9c-3.755-.693-7.543-1.246-11.276-2.037.268-5.089,1.22-10.124,1.824-15.183,3,.294,5.838,1.493,8.861,1.7a35.052,35.052,0,0,1,.332-4.005,5.509,5.509,0,0,0-.752,2.683c-2.747-.468-5.464-1.122-8.177-1.76,1.3-4.783,2.419-9.643,4.366-14.214,2.1,1.088,4.541,1.191,6.625,2.309.221-.468.417-.948.6-1.42-2.211-.557-4.4-1.195-6.556-1.934.608-1.356,1.326-2.657,1.947-4.005,1.3-2.912,3.431-5.319,5.328-7.84,1.845.468,3.6,1.216,5.4,1.79.153-.213.463-.634.616-.846a45.2,45.2,0,0,1-5-2.249,45.687,45.687,0,0,1,10.524-8.882c1.522.859,2.942,1.888,4.511,2.661,2.679-1.471,5.842-1.241,8.67-.378-.459-.357-.88-.872-1.526-.833a32.653,32.653,0,0,0-6.6.085c-1.233-.774-2.491-1.493-3.776-2.177,4.116-2.692,8.95-3.908,13.746-4.7-.353-.37-.7-.74-1.054-1.106-5.064.417-9.669,2.708-14.1,5.013-3.588-2-6.977-4.341-10.528-6.408a37.7,37.7,0,0,0,3.618-3.112c-.646-.085-1.288-.2-1.938-.294a33.951,33.951,0,0,1-3.044,2.628c-2.33-1.416-4.962-2.436-6.931-4.371-2.279-.714-4.6-1.25-6.884-1.952a2.926,2.926,0,0,0,1.82,1.012c-2,1.918-3.576,4.218-5.417,6.28a43.5,43.5,0,0,0-3.72,5.387,15.789,15.789,0,0,1-2.449-1.45c-2.147-1.556-4.545-2.734-6.616-4.392,1.526-2.287,3.261-4.426,4.958-6.586a24.165,24.165,0,0,0,2.913-3.733l-.94-.446a119.394,119.394,0,0,0-7.836,9.843,6.1,6.1,0,0,1-2.3-1.4,58.957,58.957,0,0,1-4.86-4.031,72.137,72.137,0,0,1,7.356-9.005l-.544-.68m-.489,16.4c-2.726,4.651-5.626,9.252-7.488,14.337-.115.144-.349.429-.464.574a65.323,65.323,0,0,1-7.7-5.54,96.026,96.026,0,0,1,8.265-15.081c2.415,1.964,4.915,3.823,7.39,5.71m22.824-4.851c2.772,1.59,5.5,3.257,8.146,5.043-1.99,1.433-3.4,3.474-5.136,5.179s-2.972,3.856-4.681,5.587c-1-.034-1.849-.833-2.776-1.195-2.13-1.2-4.507-2.053-6.378-3.652a79.471,79.471,0,0,1,8.525-11.089c.685-.659,1.612-.306,2.3.128m11.454,6.922a82.482,82.482,0,0,1,8.143,4.992c0,.085-.009.255-.013.34-3.916,2.224-7.126,5.489-10.23,8.712-3.282-1.31-6.76-2.436-9.651-4.507a67.12,67.12,0,0,1,9.184-10.421c.944-.642,1.812.459,2.568.884m-24.478,4.55c-2.377,4.7-5.1,9.278-7.045,14.2a7.571,7.571,0,0,1-2.372-1.08c-2.39-1.275-4.69-2.7-7.037-4.048a6.346,6.346,0,0,1,.833-2.428c1.225-2.321,2.254-4.749,3.623-6.99a58.983,58.983,0,0,1,3.125-5.421c3.1,1.679,5.944,3.8,8.874,5.765m2.568,1.195c2.581,1.658,5.4,2.9,8.044,4.439-.774,1.479-1.9,2.734-2.721,4.184a81.517,81.517,0,0,0-4.647,9.052,72.42,72.42,0,0,1-9.057-3.907c-.034-1.182.757-2.143,1.178-3.189a122.627,122.627,0,0,1,5.782-11,2.377,2.377,0,0,1,1.42.425m-24.372,6.008a17.644,17.644,0,0,1,3.444,2.449,133.375,133.375,0,0,0-4.8,14.809,48.619,48.619,0,0,1-7.841-5.476c-.463-.34-.179-.969-.089-1.412a111.361,111.361,0,0,1,4.877-13.534c1.573.906,2.878,2.2,4.413,3.163m34.908-.472c2.67,1.4,5.464,2.543,8.185,3.835-2.411,3.976-5.617,7.624-7.024,12.126-3.436-.455-6.594-2.092-9.907-3.07a80.986,80.986,0,0,1,7.288-13.355,3.935,3.935,0,0,1,1.458.463m-22.866,7.624c.642.434,1.743.387,2.028,1.2a94.326,94.326,0,0,0-4.766,14.414,2.5,2.5,0,0,1-1.208-.268c-2.828-1.369-5.579-2.891-8.3-4.469a5.944,5.944,0,0,1,.247-1.675,82.117,82.117,0,0,1,4.834-13.372c2.322,1.5,4.754,2.819,7.16,4.167m12.3,5.651c-.349,1.858-1.391,3.487-1.884,5.306-1.246,3-1.692,6.221-2.581,9.324a35.306,35.306,0,0,1-5.927-2.279c-1.233-.651-2.653-.935-3.771-1.794.974-3.444,2.117-6.833,3.389-10.179a20.1,20.1,0,0,1,1.845-4.384c2.849,1.607,5.952,2.67,8.929,4.005m-26.74,5.319c.7.472.3,1.446.221,2.126-1.424,4.7-1.973,9.6-2.793,14.435-2.861-1.6-5.489-3.58-8.257-5.336-.03-.132-.081-.4-.107-.536a138.351,138.351,0,0,1,3.372-15.859c2.39,1.9,5.073,3.4,7.564,5.17m29.138-4.4c2.84,1.093,5.714,2.079,8.635,2.921a10.825,10.825,0,0,1-1.11,2.861c-1.633,3.6-2.352,7.5-3.206,11.335-3.474-.544-6.748-1.96-10.111-2.968,1.042-4.92,2.921-9.613,4.49-14.38a3.075,3.075,0,0,1,1.3.23m-18.275,10.192c.54.417.047,1.157-.042,1.688-1.594,4.575-2.181,9.413-3.176,14.124-3.036-1.556-6.225-2.853-9.158-4.6q1.307-8.062,3.282-15.991a73.522,73.522,0,0,0,9.094,4.779m10.447,4.354c.723.485.293,1.484.174,2.168-1.25,4.447-1.6,9.073-2.5,13.585-3.261-1.433-6.722-2.347-9.971-3.8,0-2.19.744-4.277,1.084-6.42.765-3.044,1.186-6.186,2.275-9.141a60.424,60.424,0,0,0,8.933,3.61m-37.208-1.467c1.072,1.025,2.377,1.769,3.436,2.789.187,2.581-.957,5.059-.859,7.657.106,2.551-.65,5.034-.519,7.585-1.382-.238-2.279-1.484-3.448-2.173-.638-.587-1.778-.944-1.795-1.956a55.37,55.37,0,0,1-.034-6.82,36.606,36.606,0,0,1,.825-8.984c1.012.323,1.615,1.25,2.394,1.9m49.015,5.379c-.094,2.887-1.093,5.646-1.318,8.516-.077,2.232-.583,4.431-.51,6.671-3.708-.642-7.216-2.079-10.9-2.861.085-2.164.5-4.3.782-6.446.71-3.027.982-6.148,1.824-9.137,3.244,1.467,6.8,2.024,10.12,3.257m-39.963,1.365c1.374.9,2.985,1.429,4.192,2.572-.6,2.611-.723,5.3-1.131,7.951-.383,2.054-.026,4.188-.629,6.216-2.819-1.667-5.834-2.98-8.6-4.745a17.155,17.155,0,0,1,.153-2.649c.7-4.112.837-8.3,1.637-12.39a51.558,51.558,0,0,0,4.379,3.044m14.282,7.42c-.468,4.413-1.407,8.772-1.684,13.206-1.343.1-2.5-.676-3.72-1.127a45.2,45.2,0,0,1-5.307-2.309c.749-4.711.842-9.516,1.646-14.231,2.883,1.756,6.076,2.917,9.065,4.46m11.535,4.141c0,1.769-.48,3.482-.569,5.243-.481,2.679-.221,5.417-.774,8.091-3.571-1.165-7.194-2.173-10.723-3.469.23-2.1.413-4.205.621-6.305.629-2.445.693-4.975,1.127-7.449a75.255,75.255,0,0,0,10.319,3.89m-33.16,1.22c0,2.649-.123,5.3-.149,7.947a37.5,37.5,0,0,0-.251,6.735c-1.718.111-3.142-1.191-4.409-2.185-.213-5.2-.4-10.434-.1-15.63,1.9.489,3.244,2.143,4.907,3.134m45.116,2.16c.2,4.324-.587,8.6-.489,12.921-3.925-.489-7.726-1.739-11.573-2.632a111.648,111.648,0,0,1,1.28-12.973l.353-.234a62.859,62.859,0,0,0,10.43,2.917m-35.367,3a21.806,21.806,0,0,1-.094,2.785c-.651,3.89.021,7.959-1,11.782-2.547-1.276-5.1-2.538-7.679-3.754-.068-5.064.043-10.141.213-15.2,2.832,1.505,5.6,3.146,8.563,4.388m47.8-.527a40.8,40.8,0,0,1,1.025,7.938,24.426,24.426,0,0,0-.3,5.047c-4.163-.655-8.355-1.191-12.458-2.156-.166-3.814.493-7.585.438-11.391a4.737,4.737,0,0,1,.336-1.518,104.588,104.588,0,0,0,10.961,2.079m-37.982,4.664c.089,4.647-1.072,9.227-.855,13.878-3.023-.446-5.821-1.884-8.661-2.968a45.593,45.593,0,0,1,.387-6.289c.212-2.674-.085-5.391.527-8.027,2.934.957,5.642,2.513,8.6,3.406m10.413,3.448a5.089,5.089,0,0,1,1.841.816c-.667,2.917-.119,5.935-.561,8.882a36.674,36.674,0,0,0-.242,4.979c-3.644-1.391-7.483-2.22-11.187-3.453a63.968,63.968,0,0,1,.761-10.034c.2-1.386-.025-2.819.4-4.163a67.041,67.041,0,0,0,8.989,2.972m14.324,3.712c0,4.486-.128,8.972-.076,13.461a13.121,13.121,0,0,1-2-.038c-3.342-.753-6.671-1.535-10.039-2.19a46.521,46.521,0,0,1,.221-5.289c.467-2.9-.047-5.872.514-8.746,3.754,1.093,7.611,1.777,11.382,2.8m-44.78.225c.132,4.005.034,8.023,0,12.033a37.714,37.714,0,0,1-4.239-2.683c-.349-3.886-.051-7.806-.115-11.705a41.709,41.709,0,0,1,4.35,2.355m59.079,2.152c-.047,4.562.123,9.129.123,13.695-4.469-.552-8.933-1.348-13.368-2.062.174-4.52-.217-9.086.455-13.572,4.29.455,8.512,1.386,12.79,1.939m-49.67,2.47c-.68,2.785-.251,5.676-.616,8.5-.119.906-.213,1.816-.264,2.738-2.581-.616-4.758-2.355-7.326-3.087-.017-4.039.233-8.078.017-12.109,2.73,1.3,5.638,2.313,8.189,3.954m9.358,3.4c.268,2.806-.608,5.536-.438,8.338-.081,1.093.2,2.3-.378,3.3-2.8-.91-5.456-2.207-8.266-3.091.378-3.882.625-7.772.837-11.667,2.76,1.012,5.494,2.092,8.245,3.117m12.416,3.64c.48.778,0,1.735.021,2.594-.119,3.078-.1,6.165-.14,9.252a18.8,18.8,0,0,1-4.945-1.195c-2.224-.74-4.5-1.314-6.675-2.186a41.24,41.24,0,0,1,.378-6.756c.28-1.637-.106-3.342.378-4.941,3.521,1.488,7.334,2.173,10.983,3.231m-31.579,1.433c.391,3.087-.642,6.076-.889,9.125-1.093-.57-2.98-.893-2.917-2.449,0-2.845-.174-5.706.094-8.542,1.292.515,2.479,1.242,3.712,1.866m45.087,1.76c-.149,3.627-.1,7.258-.094,10.889.047.438-.055,1.19-.693,1.109-.966-.183-1.871-.629-2.857-.744-2.615-.34-5.094-1.314-7.687-1.748-.4-.132-1.246-.119-1.135-.765-.081-3.784.23-7.568.1-11.348,4.18.6,8.215,1.883,12.369,2.606m-36.562,2.207c.349,1.777-.349,3.508-.485,5.264a2.451,2.451,0,0,1-.459,1.284,25.693,25.693,0,0,0,2.088,2.266,4.907,4.907,0,0,1-.2-3.185c.425-1.616-.094-3.359.506-4.919a49.028,49.028,0,0,0,5.489,2.117,7.288,7.288,0,0,1,2.925,1.208c-.668,3.487-.481,7.066-1.263,10.54-.323.026-.978.073-1.305.1.081.225.238.672.319.9a5.05,5.05,0,0,1,1.858,1.344c.025-.221.081-.663.11-.884a11.347,11.347,0,0,0,1.731,1.033c3.338,1.259,6.709,2.449,10.14,3.419,1.08.429.485,1.773.455,2.636-.323,1.156.225,2.717-.944,3.486.586.472,1.135.991,1.709,1.479a6.847,6.847,0,0,1,.03-2.045c.336-1.641-.1-3.376.557-4.954,4.149,1.042,8.244,2.317,12.458,3.1.068,4.592-.527,9.141-.876,13.712-4.286-1.212-8.716-1.918-12.9-3.5.179-1.033.153-2.088.387-3.112-.531-.187-1.071-.344-1.594-.561a15.707,15.707,0,0,1,.085,3.346c-4.732-1.123-9.214-3.057-13.75-4.771.927-1.934.532-4.286,1.722-6.067-.6-.476-1.22-.923-1.816-1.4a2.574,2.574,0,0,1,.157,1.956,47.637,47.637,0,0,1-1.148,4.779,6.858,6.858,0,0,1-3.274-.918c-1.927-.9-3.958-1.556-5.834-2.577a7.3,7.3,0,0,1,.625-2.819c.9-3.5,1.608-7.037,2.3-10.57,1.765.106,3.036,1.65,4.813,1.782a60.994,60.994,0,0,1-5.255-5.587c-.221.621-.451,1.254-.672,1.888-2.262-1.356-4.549-2.692-6.931-3.835a32.768,32.768,0,0,1,.723-4.494c.263-1.518,0-3.087.434-4.579,2.364,1.037,4.635,2.3,7.075,3.155m43.505-1.059c2.521.123,4.953.927,7.483.923.625,4,.276,8.066.459,12.092-4.643.115-9.175-1.225-13.759-1.807-.089-4.009.025-8.028.017-12.041,1.969.008,3.848.689,5.8.833m-20.86,8.9c-.068,1.828-.161,3.661-.17,5.5.038,1.969-.519,3.9-.361,5.876a5.846,5.846,0,0,1-1.994-.4c-1.939-.821-4.031-1.212-5.953-2.079a26.377,26.377,0,0,0-4.554-1.446c.531-3.614.952-7.237,1.382-10.864,3.933.936,7.721,2.445,11.65,3.414m-32.395-1.2c-.6,2.253-1.284,4.486-1.994,6.714a2.152,2.152,0,0,1-.885,1.352c.31-3.163.217-6.34.353-9.511a6.282,6.282,0,0,1,2.525,1.446m1.19.421a52.178,52.178,0,0,0,5.549,3.066c.548.344,1.382.532,1.641,1.174-.714,4.392-1.9,8.695-2.955,13.015a67.672,67.672,0,0,1-8.593-4.328c.038-.238.11-.706.149-.944a61.655,61.655,0,0,0,4.209-11.982m44.708,3.933c.081,2.19,0,4.38-.038,6.569a21.179,21.179,0,0,1-.447,5.413c-4.09-.978-8.231-1.837-12.224-3.172a9.633,9.633,0,0,1,0-3.661c.57-2.594-.026-5.3.634-7.874,4.035.859,8.019,1.96,12.071,2.725m6.135,1.148c3.04.561,6.106.935,9.163,1.382-.013,4.01.068,8.023.025,12.033-4.826-.268-9.537-1.5-14.3-2.236.051-4,.17-8,.17-11.995a36.76,36.76,0,0,1,4.941.816m3.763,13.972a48.461,48.461,0,0,1,5.429.837c.013,2.692-.073,5.387-.111,8.087a34.178,34.178,0,0,0-.349,5.434c-4.384-.127-8.678-1.178-12.994-1.879-.672-.2-1.505-.187-2.011-.727.017-4.473,1.016-8.9.88-13.385,3.048.553,6.106,1.072,9.155,1.633m-40.495,4c-.786,4.49-2.041,8.891-3.078,13.33-2.883-1.054-5.626-2.453-8.474-3.593-.553-.3-1.7-.5-1.327-1.39,1.123-4.133,2.6-8.159,3.656-12.313,3.074,1.318,6.1,2.751,9.222,3.967m61.647-2.13c.255,2.33-.144,4.69.2,7.016.459,2.36.094,4.766.221,7.151a63.445,63.445,0,0,1-11.769-.791c-1.216-.242-2.534.055-3.674-.54a31.164,31.164,0,0,1,.37-4.958c.1-2.934.017-5.876.081-8.81,4.847.425,9.682,1.191,14.571.931m-46.74,7.245c-.587,4.592-1.25,9.214-2.138,13.755-4.856-1.854-9.971-3.015-14.72-5.149.251-1.854.986-3.589,1.395-5.4.561-2.547,1.169-5.081,1.73-7.624,4.668,1.165,9.035,3.338,13.734,4.422m14.121,3.759a125.369,125.369,0,0,1-1.527,13.317c-.068.077-.2.225-.268.3-4.086-.893-8.113-2.062-12.211-2.883-.468-.085-1.093-.51-.9-1.063.744-4.29,1.548-8.576,2.037-12.9,4.265,1.178,8.6,2.058,12.866,3.227m8.946,1.786c2.356.582,4.779.736,7.148,1.233.059.187.17.57.225.757-.336,4.111-.646,8.232-1.3,12.313-.48.919-1.5.306-2.254.264-4.409-.523-8.729-1.6-13.117-2.254-.051-2.39.85-4.664.931-7.041-.008-2.249.634-4.439.468-6.692,2.674.187,5.212,1.241,7.9,1.42m-48.692.9c2.36,1.152,4.932,1.769,7.313,2.866-.455,1.675-.914,3.35-1.416,5.017-.583,1.773-.634,3.712-1.59,5.357-3.2-.659-6.153-2.207-9.2-3.372-.476-.293-1.561-.421-1.258-1.229.769-3.338,2.322-6.437,3.2-9.75a9.255,9.255,0,0,1,2.947,1.11m72.362,1.586c.034,2.9.043,5.821-.17,8.721a21.745,21.745,0,0,0-.3,4.987c-3.219.276-6.39-.425-9.6-.374-2.088-.017-4.112-.7-6.212-.527-.208-1.939.455-3.827.421-5.766.268-2.653.519-5.311.893-7.951,5,.017,9.95,1.139,14.971.91m15.017.149c.991,1.871.476,4.031.557,6.055a77.157,77.157,0,0,1-.225,7.934c-4.873.009-9.75-.021-14.622-.034.068-1.76.025-3.525.162-5.276.365-2.861.132-5.761.531-8.623,4.532-.132,9.069-.034,13.6-.055m-77,2.283c4.082,1.892,8.47,2.955,12.752,4.29a6.842,6.842,0,0,1-.115,2.016c-.612,2.81-1.126,5.638-1.747,8.448-5.383-1.284-10.519-3.376-15.838-4.877,1.135-3.419,2-6.914,2.836-10.413a5.175,5.175,0,0,1,2.113.536m25.932,7.836c.528.191,1.327.2,1.565.778-.429,3.265-.978,6.505-1.505,9.758-2.811.017-5.5-.936-8.155-1.743a60.045,60.045,0,0,1-5.808-1.616c1-3.368,1.191-6.913,2.139-10.285,3.925,1.046,7.794,2.262,11.765,3.108m26.4,4.188c2.152-.047,4.244.621,6.4.472.765.106,1.743-.251,2.355.336.293,3.614-.706,7.147-.889,10.74-3.653.077-7.237-.854-10.889-.846-1.93-.017-3.78-.642-5.689-.825.68-3.431,1.2-6.9,1.7-10.362,2.364-.2,4.66.553,7.015.485m25.09.621c-.021,3.665-.689,7.283-.616,10.94-5.128.119-10.26.051-15.392.03.072-3.6,1.122-7.126.918-10.744,3.907-.123,7.815.008,11.718-.047,1.131.059,2.27-.57,3.372-.179m-.884,12.028c-.017,2.19-.247,4.375-.17,6.569-5.281.357-10.587-.068-15.876.051.038-2.232.676-4.4.646-6.641,5.132.17,10.268.161,15.4.021" transform="translate(-2681.719 -1098.249)" fill="#fdb644"/>
        <path id="Trazado_1016787" data-name="Trazado 1016787" d="M2586.55,1825.025c-1.233.714-2.339,1.62-3.55,2.381.14.4.281.816.417,1.229a44.334,44.334,0,0,1,3.448-2.866c-.081-.183-.234-.557-.314-.744" transform="translate(-2434.921 -1652.587)" fill="#fdb644"/>
        <path id="Trazado_1016788" data-name="Trazado 1016788" d="M3563.249,2637.433c.242-.846-.625-1.31-1.309-.885a4.7,4.7,0,0,0,1.309.885" transform="translate(-3503.843 -2387.288)" fill="#fdb644"/>
        <path id="Trazado_1016789" data-name="Trazado 1016789" d="M2550.448,483a25.387,25.387,0,0,0-.425-7.8c-.634,1.756-1.139,3.563-1.917,5.264a31.652,31.652,0,0,1-14.614,14.75,32.167,32.167,0,0,0-6.556,4.018c-1.433,1.139-2.708,2.475-4.239,3.495a1.248,1.248,0,0,1-1.377.115c1.1-2.8,2.122-5.834,1.479-8.865-.281-1.722-1.178-3.555-2.929-4.163-2.385-.88-4.9.6-6.395,2.415-4.231,5.238-3.916,12.845-1.314,18.746.128,5.251-1.9,10.315-4.269,14.92,1.309,1.756,2.185,3.793,3.58,5.485.838,1.025,1.676,2.054,2.521,3.07a11.9,11.9,0,0,0,14-.918,43.881,43.881,0,0,0,7.173-8.534c2.266-2.878,3.542-6.344,5.442-9.443.115-.217.34-.651.455-.867a4.446,4.446,0,0,1,4.528.306c.7-.1,1.407-.157,2.1-.221.467-4.384-1.829-8.414-2.05-12.751l-.6-.038c-.872.787-1.505,1.922-2.632,2.377-1.174.247-.451-1.335-.336-1.871a3.541,3.541,0,0,1,2.053-2.619c.68-.077,1.229.434,1.828.646,1.148-1.76,1.6-3.886,2.407-5.817-.553-.247-1.114-.493-1.688-.71-2.143-.646-4.218.421-6.208,1.08,1.288-3.049,5.88-4.46,8.559-2.368.187-.765.382-1.531.544-2.3a39.022,39.022,0,0,0,.871-7.4m-31.34,11.748a8.611,8.611,0,0,1-.239,7.215c-.306-.089-.616-.178-.931-.264.727-2.241,1.373-5.06-.047-7.139-1.352-.191-1.824,1.339-2.5,2.215-1.905,3.261-1.143,7.258.663,10.379-.5-.123-1.02-.3-1.178-.859a8.426,8.426,0,0,1-1.195-4.609c.076-1.739-.4-3.678.612-5.23a10.082,10.082,0,0,1,1.556-2.207c.931-.774,2.742-.774,3.253.5" transform="translate(-2391.527 -430.305)" fill="#fb9e7b"/>
        <path id="Trazado_1016790" data-name="Trazado 1016790" d="M2257.4,1017.526c-1.65-.6-3.329,1.246-3.355,2.772a15.655,15.655,0,0,0,2.862,2.874c1.016-1.063,2.05-2.1,3.091-3.142-.489-.446-.939-.94-1.4-1.424a6.157,6.157,0,0,0-1.2-1.08" transform="translate(-2076.978 -921.281)" fill="#fb9e7b"/>
        <path id="Trazado_1016791" data-name="Trazado 1016791" d="M3008.228,1085.72a25.943,25.943,0,0,1-12.233,7.058,20.6,20.6,0,0,1-16.922-2.81c-1.326.123-2.649.293-3.988.357a157.829,157.829,0,0,0,33.1,13.393,11.821,11.821,0,0,0,.523-1.433,59.9,59.9,0,0,1,3.163-9.456c-1.118-2.423-2.674-4.617-3.648-7.109" transform="translate(-2896.979 -983.136)" fill="#fb9e7b"/>
        <path id="Trazado_1016792" data-name="Trazado 1016792" d="M1823.094,1225.94c-.128.03-.383.089-.51.115l-.259.055c-3.852.459-7.721-.4-11.582-.042,3.223,3.214,6.488,6.382,9.766,9.537a11.938,11.938,0,0,0,3.21-.54,46.692,46.692,0,0,0,4.864,7.13,12.081,12.081,0,0,1,2.024,3.049c.872.948,1.777,1.871,2.6,2.866a11.318,11.318,0,0,0-6.969-.183c-.336-.259-.667-.523-1-.791-.127.3-.391.888-.519,1.186-1.411.451-2.861.761-4.282,1.186-2.224,1.365-4.915,1.127-7.355,1.833-.145-.149-.438-.442-.583-.591a4.886,4.886,0,0,1-4.43-2.908c-.6-1.186.31-2.39.91-3.368a27.827,27.827,0,0,1,6.969-6.361c-2.955-2.985-5.987-5.9-9-8.827-1.845-.038-3.835,0-5.481-.965a7.948,7.948,0,0,0-2.249,1.964c-5.838,6.412-11.131,13.3-17.054,19.639a15.535,15.535,0,0,1-5.085,3.886c-5.213,2.156-10.375,4.439-15.634,6.493.051.293.144.876.2,1.165,2.024,6.412,4.239,12.764,6.476,19.1.353.417.952,1.093,1.522.6,2.377-1.556,4.43-3.593,6.973-4.894,2.679-1.335,4.775-3.559,7.466-4.868,2.394-1.595,4.9-3.363,7.879-3.495a36.354,36.354,0,0,0,6.344-.379c2.1-.242,4.052-1.216,6.178-1.314l1.135-.85-.331,1.012a1.977,1.977,0,0,1,1.19-1.037,15.656,15.656,0,0,0,3.444-1.879c.731.608.85,1.679,1.348,2.47.786-.085,1.565-.174,2.343-.259-.948-.179-2.368-.753-1.8-1.969a4.315,4.315,0,0,1,3.614-.846c.157.476.315.952.468,1.433a12.727,12.727,0,0,0,5.213-1.765c1.025-.481,1.688.8,2.356,1.335.089-.068.268-.2.361-.272.544-.4,1.088-.782,1.633-1.174-.846-.51-1.79-1.088-1.573-2.236a20.127,20.127,0,0,1,3.414-1.828,7.45,7.45,0,0,1,.085,2.109,41.9,41.9,0,0,1,6.3-6.6l.281-.217c-1.105.417-2.215.838-3.359,1.144-1.488-.119-1.9-1.756-1.93-2.993a7.352,7.352,0,0,1,2.738-1.913,6.505,6.505,0,0,1,3.8.14,14.629,14.629,0,0,1,1.4.787c1.2.5,3.023-.072,2.934-1.59-.846.1-1.841-.013-2.113-.978-.936-1.484-.6-3.219-.03-4.766a33.94,33.94,0,0,0-2.317-4.575q-.14-.268-.306-.523c-1.275-2.181-2.776-4.222-4.111-6.365a28.937,28.937,0,0,0-3.563-4.9c-1.08-.961-2.619-.685-3.941-.761Z" transform="translate(-1609.97 -1110.107)" fill="#fb9e7b"/>
        <path id="Trazado_1016793" data-name="Trazado 1016793" d="M1904.875,1341.741c-.9-1.765-1.909-3.712-3.678-4.741-.166.162-.5.485-.667.646,1.407,1.407,2.819,2.819,4.345,4.095" transform="translate(-1688.448 -1210.673)" fill="#fb9e7b"/>
        <path id="Trazado_1016794" data-name="Trazado 1016794" d="M2758.578,1508.932q-.618-.867-1.284-1.7l.2.9c-.91.523-1.866.969-2.823,1.412.115.077.34.23.455.31,1.237.361,2.352-.51,3.448-.927" transform="translate(-2622.855 -1364.824)" fill="#fb9e7b"/>
        <path id="Trazado_1016795" data-name="Trazado 1016795" d="M1420.679,1582.407a4.18,4.18,0,0,0-4.056-2.645,88.9,88.9,0,0,0-9.405-.085c-1.679.03-3.227.769-4.9.889l-.161.047a16.315,16.315,0,0,0-2.64.986c-.651.468-.5,1.352-.655,2.049q-.631-.784-1.276-1.56c-.272.123-.812.374-1.084.5a7.015,7.015,0,0,1,1.327,2.045,6.379,6.379,0,0,1-1.31,3.708c-.77,1.165-2.258.4-3.376.387-1.378,2.6-2.811,5.17-4.014,7.857-1.8,4.069-4.43,7.849-5.111,12.334-.935,3.542-1.335,7.182-1.93,10.778-.077.442-.179.906-.23,1.365a18.632,18.632,0,0,1-1.093,6.526c-.7,2.381-2.632,4.056-4.15,5.923-1.216,1.292-2.173,2.849-3.635,3.9a22.185,22.185,0,0,1-1.543,1.867c-1.161,1.258-2.653,2.313-3.3,3.958a104.686,104.686,0,0,1,15.889,16.914c2.976-4.171,5.868-8.4,8.895-12.539a39,39,0,0,1,6.072-6.671,77.087,77.087,0,0,1,6.718-4.346c3.121-2.249,6.012-4.826,9.269-6.892,1.263-.842,2.2-2.135,3.661-2.657.14-.111.421-.327.557-.434,2.194-2.228,5.251-3.861,6.357-6.952.88-2.768.736-5.727.616-8.584-1.62,1.8-.587,4.949-2.606,6.463a55.864,55.864,0,0,0,1.9-10.834c.06.166.174.5.234.672a5.734,5.734,0,0,0,1.195,1.79l.068-.829c-.183-.57-.378-1.127-.587-1.68-1.118-2.258.429-4.83-.51-7.147a11.6,11.6,0,0,0-1.854-2.679c.417-1.922.914-4.26-.553-5.872-.791-1.178-2.2-1.594-3.414-2.168.387-2.083,1.352-4.265.634-6.382m-9.193,3.074a37.426,37.426,0,0,1-2.368,4.881c-1.067,1.748-1.752,3.767-3.2,5.264-.306.506-.634,1-.948,1.505-1.037,1.544-2.33,2.9-3.5,4.337l.013.072c-1.259,1.067-2.262,2.424-3.622,3.363-.868-1.373-.749-3.065-.655-4.609.314-1.773,1.416-3.282,1.811-5.038a46.349,46.349,0,0,0,1.254-4.545c-.017-1.305-.094-2.606-.187-3.9l.668.289c1.777-.4,3.818.4,5.625-.362l.54-1.195a3.586,3.586,0,0,0,2.44,2.194c.685-.778,1.378-1.548,2.13-2.254m8.381,3.771a7.892,7.892,0,0,1-.174,1.862c-.97,3.72-1.786,7.483-2.921,11.157l-.561.221c.463-3.134,1.734-6.076,2.423-9.163a23.976,23.976,0,0,1,1.233-4.078m4.26,8.1c-.174,3.3-1.4,6.442-2.219,9.622-.583,1.484-.544,3.329-1.807,4.456a7.882,7.882,0,0,1,.319-1.76c1.093-3.533,2.058-7.109,2.823-10.727.2-.574.153-1.424.884-1.59" transform="translate(-1160.232 -1430.344)" fill="#fb9e7b"/>
        <path id="Trazado_1016796" data-name="Trazado 1016796" d="M2653.52,1687.54c-.111-.2-.323-.6-.434-.8-.523.617-1.038,1.242-1.552,1.879.09.2.269.617.353.821q.823-.95,1.633-1.9" transform="translate(-2508.052 -1527.368)" fill="#fb9e7b"/>
        <path id="Trazado_1016797" data-name="Trazado 1016797" d="M2472.51,49.462c-6.565-3.053-14-4.626-21.2-3.367a34.127,34.127,0,0,0-21.072,12.777,46.776,46.776,0,0,0-5.408,10.264c-1.365,3.282-2.4,6.735-4.315,9.754-2.156,3.44-5.4,6.016-8.763,8.215-5.931,4-12.73,6.569-18.466,10.88a16.945,16.945,0,0,0-7.075,12.177,21.381,21.381,0,0,0,3.971,13.585l.523-.842a37.707,37.707,0,0,1-2.483-6.548c-1.433-5-.463-10.838,3.252-14.635,3.457-3.589,8.189-5.523,12.607-7.628a75.12,75.12,0,0,0-9.073,6.459,16.969,16.969,0,0,0-5.5,11.331,22.542,22.542,0,0,0,5.012,15.587c.434.5.281,1.2.349,1.811a16.009,16.009,0,0,0,4.124,10.277c3.729,4.163,9.006,6.518,14.274,8.07,1.327.31,2.661.565,3.975.906,1.339-.064,2.662-.234,3.988-.357a20.6,20.6,0,0,0,16.922,2.81,25.939,25.939,0,0,0,12.232-7.058,29.019,29.019,0,0,0,5.115-6.99c2.368-4.6,4.4-9.669,4.269-14.92-2.6-5.9-2.917-13.508,1.314-18.746,1.492-1.82,4.01-3.3,6.395-2.415,1.752.608,2.649,2.441,2.93,4.163.642,3.032-.378,6.067-1.479,8.865a1.249,1.249,0,0,0,1.378-.115c1.531-1.02,2.806-2.356,4.239-3.5a32.18,32.18,0,0,1,6.556-4.018,31.653,31.653,0,0,0,14.614-14.75c.778-1.7,1.284-3.508,1.917-5.264a25.4,25.4,0,0,1,.425,7.8,39,39,0,0,1-.871,7.4,17.361,17.361,0,0,0,8.351-4.732c5.162-5.71,5.366-14.852,1.352-21.246-3.138-5.034-8.325-8.406-13.806-10.417a56.126,56.126,0,0,0-20.566-15.587M2406.777,104.7c-1.764,1.02-3.7,1.854-5.077,3.414-2.33,2.364-3.215,5.663-4.069,8.772a12.04,12.04,0,0,1,4.3-10.668,7.125,7.125,0,0,1,4.847-1.518" transform="translate(-2339.13 -41.345)" fill="#242036"/>
        <path id="Trazado_1016798" data-name="Trazado 1016798" d="M859.851,641.24c-6.522-3.64-12.994-7.377-19.495-11.055a53.667,53.667,0,0,1-14.907,15.251c-6.467,4.379-14.184,7.271-22.076,6.96-.519,1.633-.838,3.317-1.284,4.97-2.538,9.915-5.974,19.567-9.176,29.278l.259-.055c.128-.026.383-.085.51-.115.408-1.48.978-2.9,1.488-4.345,2.389,1.463,4.9,2.717,7.322,4.12a2.642,2.642,0,0,0-1.105-1q-3.01-1.658-6.055-3.261c1.705-5.855,3.865-11.573,5.515-17.45,1.1-3.776,2.117-7.577,3.083-11.391,8.317.149,16.361-3.129,23.053-7.9a50.592,50.592,0,0,0,13.576-14.159c7.067,4.2,14.295,8.125,21.408,12.233.319.247,1.174.506.727,1.037-6.909,10.5-12.981,21.531-18.853,32.641-1.777,3.669-3.882,7.237-4.851,11.229-2.394,4.592-4.885,9.146-7.075,13.84-2.185-1.165-4.3-2.47-6.539-3.529,1.875,1.62,4.277,2.479,6.382,3.759-2.432,4.66-4.771,9.371-7.152,14.057a22.694,22.694,0,0,0-2.122,4.549l.161-.047c1.305-2.887,2.9-5.625,4.3-8.47,1.731-3.321,3.257-6.743,5.124-9.988,3.265,1.96,6.7,3.627,10.03,5.485a2.362,2.362,0,0,0-.94-.842c-2.985-1.671-6.08-3.155-8.993-4.953q3.329-6.69,6.828-13.291c1.769,2.458,5.306,2.674,7.8,1.271,3.946-2.126,6.612-5.893,9.26-9.388a210.553,210.553,0,0,0,15.932-27.509c4.873,3.406,10.481,5.6,15.434,8.861a24.055,24.055,0,0,1,3.763,1.8c3.278,1.7,6.629,3.257,9.9,4.975a43.191,43.191,0,0,0-5.349,25.069,53.823,53.823,0,0,0,4.333,17.913c-3.712,7.113-7.738,14.061-11.488,21.157-1.675-.782-3.168-1.96-4.953-2.5,1.5,1.093,3.21,1.849,4.8,2.8-8.138,14.6-15.779,29.461-23.589,44.232-7.517,14.439-15.03,28.883-22.424,43.39-5.493,10.8-11.072,21.57-16.344,32.484-10.944-6.089-22.016-11.943-33.011-17.926-1.174-.65-2.351-1.288-3.516-1.947-.119.174-.353.523-.468.7,1.25.578,2.449,1.246,3.661,1.9,11.187,6.08,22.446,12.041,33.573,18.24q18.8-37.616,38.364-74.854c7.972-15.226,15.936-30.46,24.159-45.554.255,0,.774.008,1.033.013-.2-.251-.412-.5-.616-.74,3.861-7.152,7.964-14.18,11.629-21.429A48.578,48.578,0,0,1,897.14,699.2a45.041,45.041,0,0,1,2.049-24.665c.778-2.1,1.9-4.052,2.815-6.093-4.613-2.436-9.422-4.5-13.921-7.156.1-.485.672-1,.208-1.467-.111.349-.336,1.046-.447,1.395-5.451-2.887-10.919-5.766-16.165-9.005-1.952,3.8-3.805,7.645-5.919,11.352-4.171,7.313-8.38,14.677-13.793,21.161-2.02,2.266-4.307,4.63-7.381,5.328a4.317,4.317,0,0,1-4.86-1.722,18.317,18.317,0,0,1,1.735-3.737c-.625-1.105.344-2.054.855-2.955A398.863,398.863,0,0,1,862.9,645.449c.281-.544.761-1.046.774-1.68a17.4,17.4,0,0,0-3.822-2.53" transform="translate(-580.56 -570.642)" fill="#242036"/>
        <path id="Trazado_1016799" data-name="Trazado 1016799" d="M2532.7,650.9c-2.678-2.092-7.27-.68-8.559,2.368,1.99-.659,4.065-1.726,6.208-1.08.663.145,1.322.293,1.981.438.119-.578.247-1.152.37-1.726" transform="translate(-2375.193 -588.503)" fill="#242036"/>
        <path id="Trazado_1016800" data-name="Trazado 1016800" d="M2527.942,736.867c-.6-.213-1.148-.723-1.829-.646a3.541,3.541,0,0,0-2.053,2.619c-.115.536-.838,2.117.336,1.871,1.127-.455,1.76-1.59,2.632-2.377.149.009.451.03.6.038,1.208.162,3.308.272,3.423-1.407a21.085,21.085,0,0,1-3.108-.1" transform="translate(-2373.507 -666.652)" fill="#242036"/>
        <path id="Trazado_1016801" data-name="Trazado 1016801" d="M3431.487,2400.667c-1.62-1.667-2.641-3.856-4.422-5.357a4.173,4.173,0,0,0,.791,1.841c1.288,1.629,2.6,3.249,3.945,4.834a60.978,60.978,0,0,0,5.256,5.587c1.139.906,2.181,1.922,3.257,2.9.5.442,1,.868,1.5,1.31,3.925,3.627,8.07,7.011,12.254,10.332a5.511,5.511,0,0,1,1.459,1.352c.349.3.7.6,1.054.9.055.217.166.65.221.867q-.79-.134-1.594-.255a3.688,3.688,0,0,1-1.718-.736l-.366-.2c-.247-.1-.731-.3-.973-.4a68.844,68.844,0,0,1-7.33-4.5,4.7,4.7,0,0,1-1.31-.884c-.889-.587-1.76-1.195-2.589-1.862-.378-.336-.748-.681-1.135-1.012-1.556-1.356-3.142-2.687-4.6-4.15a2.251,2.251,0,0,0-1.348-.77c1.335,2.266,3.695,3.7,5.579,5.485.595.481,1.22.927,1.815,1.4,1.931,1.5,4.031,2.755,5.987,4.218.047.03.14.089.187.124.931.514,1.845,1.058,2.746,1.616.051.026.149.08.2.106.952.464,1.88.961,2.827,1.429.523.217,1.063.374,1.595.562a3.86,3.86,0,0,0,2.836.264,3.352,3.352,0,0,0-.608-1.76c-.009-.013-.026-.03-.034-.042a23.75,23.75,0,0,0-1.854-1.655c-.574-.488-1.123-1.007-1.709-1.479a72.48,72.48,0,0,1-7.394-6.2c-.026-.017-.073-.059-.094-.077a43.679,43.679,0,0,1-4.006-3.414,5.044,5.044,0,0,0-1.858-1.344c-.081-.225-.238-.672-.319-.9l-.17-.157a1.7,1.7,0,0,1-1.535-1.182,23.11,23.11,0,0,1-3.907-3.963l-.119-.136-.421-.421a25.623,25.623,0,0,1-2.087-2.266" transform="translate(-3385.409 -2168.989)" fill="#242036"/>
        <path id="Trazado_1016802" data-name="Trazado 1016802" d="M3437.451,3047.822a21.2,21.2,0,0,0-4.4-.778c1.024,1.012,2.606.82,3.9,1.152l.5-.374" transform="translate(-3365.824 -2759.143)" fill="#242036"/>
        <path id="Trazado_1016803" data-name="Trazado 1016803" d="M3338.032,3058.47c-2.3-.468-4.6-.952-6.9-1.39-.111.11-.336.34-.451.455l-.051.055c2.045.327,4.048.837,6.084,1.2a23.436,23.436,0,0,0,3.423.587c0-.208.013-.629.017-.838-.706-.038-1.412-.034-2.122-.068" transform="translate(-3258.85 -2768.231)" fill="#242036"/>
        <path id="Trazado_1016804" data-name="Trazado 1016804" d="M3632.052,3092.859c-.591-.212-1.178-.425-1.773-.634.063.727.535,1.641-.158,2.215-1.216,1.131-1.442,2.836-2.2,4.243a136.994,136.994,0,0,0-6.178,13.763c-1.109,2.8-1.9,5.719-2.985,8.529-2.033,7.241-3.827,14.6-4.312,22.131h.591c.514-2.1.459-4.277.863-6.391a124.369,124.369,0,0,1,7.819-26.918c1.373-3.937,3.444-7.564,5.238-11.31a34.97,34.97,0,0,1,3.1-5.629" transform="translate(-3577.565 -2800.055)" fill="#242036"/>
        <path id="Trazado_1016805" data-name="Trazado 1016805" d="M3086.012,3404.322c-2.729-.638-5.31-1.82-8.078-2.317a24.82,24.82,0,0,0-1.046,4.911l.54.127q.479-1.932.884-3.877c4.15.668,8.13,2.16,12.25,2.994,11.369,2.725,22.922,5.106,34.653,5.37a26.274,26.274,0,0,1,.111,3.925l-.051.591c-.272,2.526-.732,5.03-.825,7.573h.876c-.081-2.717.557-5.383.6-8.091.008-1.522.455-3.1-.1-4.567-4.9-.629-9.852-.663-14.716-1.594-8.5-.936-16.765-3.167-25.09-5.043" transform="translate(-3020.819 -3080.566)" fill="#242036"/>
        <path id="Trazado_1016806" data-name="Trazado 1016806" d="M3596.065,3461.827l-.464-.242a69.624,69.624,0,0,0-2.036,15.982h.863a115.731,115.731,0,0,1,1.637-15.74" transform="translate(-3539.604 -3134.516)" fill="#242036"/>
        <path id="Trazado_1016807" data-name="Trazado 1016807" d="M1087.713,597.335c-.659.055-.838.727-1.11,1.2-.659,1.331-1.369,2.636-2.1,3.929-1.582-.646-2.853-1.909-4.507-2.372,1.012,1.369,2.993,1.628,4.154,2.819-.719,2.279-2.364,4.154-3.163,6.408.6-.17.774-.808,1.076-1.263.88-1.624,1.769-3.244,2.577-4.9.974.48,1.9,1.037,2.887,1.505-.323-1.1-1.756-1.212-2.6-1.807.748-1.926,1.948-3.631,2.781-5.515" transform="translate(-793.757 -540.896)" fill="#554990"/>
        <path id="Trazado_1016808" data-name="Trazado 1016808" d="M1191.616,756.905a3.622,3.622,0,0,0-1.242,1.688c-7.045,13.393-14.826,26.4-23.083,39.066l.3-1.28c-.51.9-1.48,1.85-.855,2.955,3.571-5.311,6.8-10.859,10.209-16.276q6.193-10.109,11.765-20.579a55.953,55.953,0,0,0,2.9-5.574" transform="translate(-905.836 -685.389)" fill="#554990"/>
        <path id="Trazado_1016809" data-name="Trazado 1016809" d="M999.608,1008.995c-1.033.68-1.3,1.986-1.883,3.01-7.96,16.123-14.758,32.782-22.144,49.164-2.509-1.118-4.779-2.7-7.288-3.827a2.33,2.33,0,0,0,.952.918c2.041,1.135,4.112,2.228,6.161,3.346-4.656,10.081-9.388,20.128-14.384,30.043l-.068.829a5.74,5.74,0,0,1-1.195-1.79c.17.91.289,1.832.4,2.759a7.693,7.693,0,0,0,1.386-1.828c1.105-2.3,2.156-4.626,3.338-6.888,3.793-7.577,7.3-15.29,10.9-22.956a80.909,80.909,0,0,0,8.606,4.562c-2.551-2.007-5.646-3.206-8.414-4.9,7.687-17.564,15.162-35.239,23.632-52.442" transform="translate(-694.292 -913.66)" fill="#554990"/>
        <path id="Trazado_1016810" data-name="Trazado 1016810" d="M1939.926,1128.353c-2.266-2.079-5.208-3.261-7.9-4.7.119.634.808.782,1.254,1.1,2.215,1.195,4.345,2.555,6.641,3.6" transform="translate(-1726.475 -1017.486)" fill="#554990"/>
        <path id="Trazado_1016811" data-name="Trazado 1016811" d="M1739.589,1235.687c-2.156-1.072-4.188-2.381-6.369-3.4.051.132.153.4.2.531,2.67,1.433,5.285,2.976,7.994,4.337-.225-.85-1.173-1.05-1.824-1.467" transform="translate(-1509.177 -1115.853)" fill="#554990"/>
        <path id="Trazado_1016812" data-name="Trazado 1016812" d="M1629.5,1295.978c-2.5-1.28-4.885-2.764-7.437-3.933.17.74,1.02.876,1.569,1.246,2.339,1.174,4.549,2.589,6.9,3.746.072-.642-.629-.782-1.029-1.059" transform="translate(-1387.792 -1169.966)" fill="#554990"/>
        <path id="Trazado_1016813" data-name="Trazado 1016813" d="M1776.8,1293.845c-1.824,1.548-2.113,4.214-3.665,6.021q.166.255.307.523c1.207-2.134,2.343-4.315,3.359-6.544" transform="translate(-1548.335 -1171.596)" fill="#554990"/>
        <path id="Trazado_1016814" data-name="Trazado 1016814" d="M993.955,1351.445c-1.033.659-1.233,1.977-1.8,2.981-4.073,8.551-7.857,17.233-12.024,25.736-1.718-.995-3.41-2.045-5.2-2.9,1.174,1.671,3.5,2.066,5.094,3.308-7.028,14.533-14.439,28.874-21.791,43.246q-11.761,23.119-23.576,46.209c-3.669,7.147-7.215,14.367-11.076,21.416-7.169-4.9-14.907-8.882-22.5-13.083q-1.365-.753-2.747-1.467l-.225.344c.876.463,1.748.94,2.619,1.407,7.811,4.235,15.689,8.389,23.041,13.393,11.544-22.161,22.747-44.5,34.164-66.72,7.547-14.826,15.251-29.58,22.433-44.585,1.174.617,2.317,1.3,3.542,1.8-.8-1.148-2.266-1.467-3.363-2.249,4.558-9.571,8.984-19.21,13.41-28.84" transform="translate(-682.813 -1223.754)" fill="#554990"/>
        <path id="Trazado_1016815" data-name="Trazado 1016815" d="M1318.99,1467.5c-2.6-1.667-5.4-3.006-8.1-4.5.026.128.081.387.11.515,2.364,1.344,4.792,2.577,7.16,3.916.2.017.617.055.825.072" transform="translate(-1046.851 -1324.768)" fill="#554990"/>
        <path id="Trazado_1016816" data-name="Trazado 1016816" d="M1755.668,1522.987c-.247-.451-.472-.91-.727-1.352a26.417,26.417,0,0,1-3.091,2.551c.481.217.97.412,1.442.651,1.144-.162,2.185-.587,2.377-1.849" transform="translate(-1525.192 -1377.863)" fill="#554990"/>
        <path id="Trazado_1016817" data-name="Trazado 1016817" d="M1950.758,1624.46c-.093.068-.272.2-.361.272-.362.553-.706,1.127-1.037,1.7-7.126,13.653-14.907,26.978-21.515,40.894a1.853,1.853,0,0,0,.74-.8c6.884-13.789,14.392-27.25,21.667-40.826.179-.417.349-.833.506-1.25" transform="translate(-1736.911 -1470.972)" fill="#554990"/>
        <path id="Trazado_1016818" data-name="Trazado 1016818" d="M3812.242,1731.74c-.178.14-.535.425-.714.57-.06,1.059-.094,2.126-.06,3.193l.221.476a21.53,21.53,0,0,1,.553-4.239" transform="translate(-3776.369 -1568.116)" fill="#554990"/>
        <path id="Trazado_1016819" data-name="Trazado 1016819" d="M1853.716,2004.035c-3.138,5.808-6.357,11.569-9.392,17.428a20.541,20.541,0,0,1-1.259,2.151,22.161,22.161,0,0,0,1.544-1.866c2.908-5.477,5.77-10.987,8.878-16.348.051-.459.153-.923.23-1.365" transform="translate(-1631.859 -1814.683)" fill="#554990"/>
        <path id="Trazado_1016820" data-name="Trazado 1016820" d="M1480.3,2077.205c-.136.106-.417.323-.557.434-1.3,2.573-2.585,5.153-3.8,7.772-7.577,15.566-15.2,31.115-23.1,46.524a39.441,39.441,0,0,0-2.491,5.051,24.862,24.862,0,0,0,2.6-4.451c4.945-9.456,9.626-19.049,14.367-28.607,3.431-6.833,6.625-13.788,10.166-20.566.871-2.083,1.939-4.077,2.815-6.156" transform="translate(-1221.333 -1880.94)" fill="#554990"/>
        <path id="Trazado_1016821" data-name="Trazado 1016821" d="M1762.474,1481.606a14.623,14.623,0,0,0-1.4-.786c.842,1.411-.021,2.84-1.246,3.623l-.281.217a13.811,13.811,0,0,0,2.955,2.568,26.517,26.517,0,0,0,3.091-2.551,22.4,22.4,0,0,0-3.117-3.07" transform="translate(-1535.843 -1340.904)" fill="#2a2452"/>
        <path id="Trazado_1016822" data-name="Trazado 1016822" d="M1722.321,1540.592a41.092,41.092,0,0,1-3.329-4.647c-.191,1.263-1.233,1.688-2.377,1.849,1.5.854,2.883,1.922,4.443,2.679a1.751,1.751,0,0,0,1.263.119" transform="translate(-1488.516 -1390.821)" fill="#2a2452"/>
        <path id="Trazado_1016823" data-name="Trazado 1016823" d="M2325.957,2547.635c-.094.089-.285.268-.378.353-.6.476-.519,1.348-.672,2.028-1.059,9.583-4.618,18.67-8.712,27.326a.686.686,0,0,0,1.216-.37c1.276-2.929,2.589-5.846,3.844-8.784a96.607,96.607,0,0,0,4.749-18.138,89.5,89.5,0,0,1,3.381,13.206c.905,3.937.791,8.01,1.45,11.982.187-.055.565-.17.752-.229a107.629,107.629,0,0,0-1.747-14.576c-1.153-4.307-1.93-8.75-3.882-12.8" transform="translate(-2154.433 -2306.921)" fill="#2a2452"/>
        <path id="Trazado_1016824" data-name="Trazado 1016824" d="M3651.8,2952.885a66.251,66.251,0,0,1-7.3-4.031,47.194,47.194,0,0,0-2.908,4.328,191.074,191.074,0,0,0-10.672,19.708,80.339,80.339,0,0,0,10.51,8.367,53.477,53.477,0,0,0,7.534,4.363c1.391-.361.94-2.649,2.432-3.04-1.433,5.009-3.652,9.749-5.256,14.707-1.947,5.383-3.244,11.089-6.305,16h17.1c.485-7.53,2.279-14.89,4.312-22.131,1.088-2.811,1.875-5.728,2.985-8.529a137.018,137.018,0,0,1,6.178-13.763c.761-1.407.986-3.112,2.2-4.243.693-.574.221-1.488.157-2.215-2.6-1-5.2-2.028-7.751-3.134-.846-.374-1.7-.727-2.551-1.1q-4.752-2.182-9.384-4.613-.637-.345-1.288-.672" transform="translate(-3620.064 -2670.231)" fill="#2a2452"/>
        <path id="Trazado_1016825" data-name="Trazado 1016825" d="M2693.56,3100.932a56.585,56.585,0,0,1-6.2-2,34.966,34.966,0,0,0-3.095,5.629c-1.795,3.746-3.865,7.373-5.239,11.31a124.374,124.374,0,0,0-7.819,26.919c-.4,2.113-.349,4.29-.863,6.39h16.488a69.64,69.64,0,0,1,2.037-15.983c.017-.179.055-.54.073-.719a24.826,24.826,0,0,1,1.046-4.911c2.768.5,5.349,1.68,8.078,2.317,8.325,1.875,16.591,4.107,25.09,5.043,4.864.931,9.817.965,14.716,1.594.557,1.467.111,3.044.1,4.567-.038,2.708-.676,5.374-.6,8.091h39.185c-.821-6.135-1.7-12.262-2.759-18.364-1.123-7.449-2.713-14.822-3.708-22.288-1.586.042-3.164.243-4.754.293-2.912.212-5.837.034-8.754.076-5.528-.357-11.076-.174-16.6-.557-1.9-.1-3.8-.081-5.689-.327-2.8-.319-5.625-.413-8.431-.693-4.052-.464-8.117-.854-12.135-1.569-2.173-.336-4.324-.795-6.489-1.195q-4.464-.957-8.873-2.169c-1.616-.425-3.219-1.177-4.928-.884Z" transform="translate(-2632.873 -2806.126)" fill="#2a2452"/>
        <path id="Trazado_1016826" data-name="Trazado 1016826" d="M3902.509,3216.732c-2.266-1.9-4.834-3.512-6.709-5.842a127.658,127.658,0,0,0-10.519,39.67h18.661c2.5-3.576,3.69-7.832,5.1-11.905,1.54-4.754,3.3-9.435,5.039-14.112.353-.583-.357-.953-.765-1.169a64.139,64.139,0,0,1-10.808-6.641" transform="translate(-3885.28 -2907.508)" fill="#2a2452"/>
        <path id="Trazado_1016827" data-name="Trazado 1016827" d="M3097.868,3417.283c-4.12-.833-8.1-2.326-12.25-2.993q-.408,1.945-.884,3.878a208.411,208.411,0,0,0,30.171,6.616c5.88.872,11.816,1.22,17.726,1.794a26.272,26.272,0,0,0-.111-3.925c-11.731-.264-23.283-2.645-34.653-5.37" transform="translate(-3028.125 -3091.689)" fill="#2a2452"/>
        <path id="Trazado_1016828" data-name="Trazado 1016828" d="M3114.585,3470.417a203.853,203.853,0,0,1-27.344-6.267,115.762,115.762,0,0,0-1.637,15.74h48.807c.094-2.543.553-5.047.825-7.573-6.922.123-13.81-.961-20.651-1.9" transform="translate(-3030.781 -3136.839)" fill="#2a2452"/>
        <path id="Trazado_1016829" data-name="Trazado 1016829" d="M263.529,944.472c-3.678-2.594-8.13-3.861-11.824-6.442-18.627,24.4-35.252,50.27-50.844,76.7-16.251,27.8-30.839,56.558-44.266,85.823-11.51,25.065-22.127,50.529-32.522,76.074-21.608-9.354-43.152-18.874-64.5-28.811-2.87-1.271-5.668-2.708-8.584-3.882-4.3,3.457-8.772,7.181-14.282,8.419-4.009,1.016-8.04-.787-11.28-3.04-6.216-4.566-11.578-10.166-16.854-15.761a79.234,79.234,0,0,1-.583,9.363c-.094.357-.191.719-.293,1.089a13.839,13.839,0,0,1-1.96,7.509q-2.628.268-5.272.37l-.463.213c1.59-.051,3.168-.251,4.754-.293.995,7.466,2.585,14.839,3.708,22.288,1.888.68,3.623,1.7,5.434,2.542a129.752,129.752,0,0,0,15.324,6.344c3.869,1.284,8.257,1.811,12.033-.06,4.558-2.432,8.249-6.144,11.684-9.932a99.572,99.572,0,0,0,7.3-9.839c1.62.54,3.138,1.318,4.732,1.926,10.681,4.873,21.485,9.482,32.293,14.074,8.806,3.822,17.62,7.645,26.506,11.28.884.515,1.276-.7,1.48-1.327,3.321-10.821,7.3-21.416,11.314-32,1.692-4.137,3.036-8.414,4.97-12.449,4.214-10.455,8.865-20.728,13.814-30.856,1.922-3.639,3.44-7.475,5.485-11.046,7.258-14.477,15.213-28.585,23.44-42.531,8.423-14.278,17.22-28.33,26.208-42.255,16.608-25.252,34.117-49.929,53.055-73.489" transform="translate(132.471 -849.4)" fill="#739495"/>
        <path id="Trazado_1016830" data-name="Trazado 1016830" d="M3675.764,2480.586l-.119-.136.119.136" transform="translate(-3627.059 -2246.084)" fill="#739495"/>
        <path id="Trazado_1016831" data-name="Trazado 1016831" d="M3549.876,2597.889l-.051-.034c.021.017.068.06.094.077Z" transform="translate(-3489.325 -2352.396)" fill="#739495"/>
        <path id="Trazado_1016832" data-name="Trazado 1016832" d="M3535.207,2673.263c-.047-.034-.14-.093-.187-.124.047.03.141.09.188.124" transform="translate(-3473.215 -2420.567)" fill="#739495"/>
        <path id="Trazado_1016833" data-name="Trazado 1016833" d="M3504.075,2691.651c-.047-.026-.145-.081-.2-.106.051.026.149.081.2.106" transform="translate(-3439.141 -2437.233)" fill="#739495"/>
        <path id="Trazado_1016834" data-name="Trazado 1016834" d="M3433.533,2697.482c-.009-.013-.025-.03-.034-.042.009.013.025.03.034.042" transform="translate(-3361.949 -2442.572)" fill="#739495"/>
        <path id="Trazado_1016835" data-name="Trazado 1016835" d="M3475.469,2695.5c-.247-.1-.732-.3-.974-.4.242.1.727.3.974.4" transform="translate(-3407.758 -2440.452)" fill="#739495"/>
        <path id="Trazado_1016836" data-name="Trazado 1016836" d="M1849.278,1062.341c-6-5.651-11.773-11.539-17.747-17.211-1.042,1.037-2.075,2.079-3.091,3.142l.119.578a20.586,20.586,0,0,0,2.577,2.666c3.911,3.784,7.713,7.679,11.633,11.45.872.9,1.828,1.714,2.717,2.594,3.015,2.93,6.046,5.842,9,8.827,2.985,3.125,6.2,6.008,9.29,9.022.332.268.664.532,1,.791a11.32,11.32,0,0,1,6.969.183c-.825-.995-1.73-1.917-2.6-2.866-1.352-1.412-2.8-2.717-4.209-4.069-1.526-1.276-2.938-2.687-4.345-4.095-.5-.5-1.02-.991-1.543-1.475-3.278-3.155-6.543-6.322-9.766-9.537" transform="translate(-1648.506 -946.381)" fill="#3f3778"/>
        <path id="Trazado_1016837" data-name="Trazado 1016837" d="M2923.038,1125.776c-1.314-.34-2.649-.6-3.976-.906-1.31.774-2.47,1.913-3.954,2.326-5.442-1.182-11.54-.986-16.3,2.215-5.893,3.958-9.367,10.477-11.981,16.888-4.788,11.531-6.135,24.112-6.739,36.481.178-.144.536-.429.715-.57a113.536,113.536,0,0,1,3.1-12.785c.208-.625.447-1.233.655-1.849a93.941,93.941,0,0,1,5.392-13.223l.6-1.084a74.853,74.853,0,0,1,9.656-14.078c.221-.255.667-.769.888-1.029a30.423,30.423,0,0,1,6.667-5.34c1.255-.752,2.394-1.8,3.878-2.045a11.034,11.034,0,0,0,1.522,2.407l.213.246a39.84,39.84,0,0,0,8.189,5.277l.94.446c2.751,1.365,5.659,2.36,8.512,3.482,2.279.7,4.605,1.237,6.884,1.952a44.826,44.826,0,0,0,8.678,1.378c-.425.1-.85.2-1.284.31a12.468,12.468,0,0,1,2.581.055c.651.089,1.293.208,1.939.293,6.357.578,12.718,1.114,19,2.326-1.284-1.947-3.053-3.5-4.49-5.319-.944-1.02-1.7-2.385-3.1-2.828-1.675-.574-3.384-1.054-5.068-1.633a157.829,157.829,0,0,1-33.1-13.393" transform="translate(-2844.931 -1018.586)" fill="#3f3778"/>
        <path id="Trazado_1016838" data-name="Trazado 1016838" d="M1810.828,1488.591c-2.827-.863-5.991-1.093-8.67.379a31.077,31.077,0,0,0-10.03,8.469c-.153.213-.464.633-.617.846a35.133,35.133,0,0,0-4.788,8.606,9.294,9.294,0,0,0-1.191,5.238l-.676-.357a71.681,71.681,0,0,0-2.135,10.906,35,35,0,0,0-.332,4.005,106.932,106.932,0,0,0,.591,15.523,80.6,80.6,0,0,0,3.742,15.9c1.56,4.788,3.89,9.273,5.97,13.848.106.192.319.574.429.765a4.039,4.039,0,0,1,.417,1.9c.077-.23.153-.451.225-.672,1.59,4.009,3.64,7.823,5.408,11.756l.238.5q3.322,6.728,6.8,13.389c.11.2.327.6.438.8a12.213,12.213,0,0,1,1.441,3.117c.068-.2.127-.4.179-.6.3,1.51,1.322,2.734,1.99,4.094,1.365,2.657,3,5.162,4.405,7.8.655,1.089,1.369,2.143,2.019,3.236a122.658,122.658,0,0,0,8.036,11.008c.157.179.468.54.625.719.48.565.927,1.156,1.424,1.709,5.276,5.6,10.638,11.2,16.854,15.761,3.24,2.254,7.271,4.057,11.28,3.04,5.51-1.237,9.983-4.962,14.282-8.418a107.964,107.964,0,0,0,12.509-13.16c4.4-5.782,8.525-11.777,12.547-17.832.115-.174.349-.523.468-.7,2.134-3.1,4.192-6.25,6.314-9.358l.225-.344q4.987-7.411,9.962-14.822c.706-1.1,1.454-2.164,2.113-3.287-.089-.187-.272-.557-.366-.744-1.1-1.526-2.262-3.015-3.44-4.486a104.677,104.677,0,0,0-15.889-16.914,27.2,27.2,0,0,0-4.2-2.64c-8.619,8.236-17.424,16.268-26.039,24.5-3.627-2.066-7.326-4-10.94-6.1-1.59-3.044-2.509-6.458-3.835-9.648a542.048,542.048,0,0,0,29.083-55.019c1.093-2.581,2.3-5.115,3.338-7.713l.332-1.012c-.285.213-.85.638-1.135.85-1.246,2.87-2.466,5.757-3.742,8.619-8.283,18.334-18,35.975-28.19,53.314a114.131,114.131,0,0,1-5.7-17.9c-2.717-8.057-5.668-16.038-8.38-24.1-.136-.412-.276-.825-.417-1.229a105.676,105.676,0,0,0-4.243-12.747c-.085-.2-.263-.616-.353-.82-2.441-6.127-5.8-12.233-11.208-16.217-.115-.081-.34-.234-.455-.311a27.09,27.09,0,0,0-6.718-3.453m52.229,93.775c-1.96,1.862-3.809,3.844-5.808,5.668,1.951,4.048,2.73,8.491,3.882,12.8a107.627,107.627,0,0,1,1.748,14.575c-.187.06-.565.174-.753.23-.659-3.971-.544-8.044-1.45-11.982a89.514,89.514,0,0,0-3.38-13.206,96.633,96.633,0,0,1-4.749,18.138c-1.254,2.938-2.568,5.855-3.844,8.784a.686.686,0,0,1-1.216.37c4.095-8.657,7.653-17.743,8.712-27.327.153-.68.072-1.552.672-2.028-.906-4.18-2.9-8.023-4.46-11.986,3.555,1.982,7.173,3.852,10.647,5.966" transform="translate(-1685.726 -1347.319)" fill="#3f3778"/>
        <path id="Trazado_1016839" data-name="Trazado 1016839" d="M2501.5,1547.2c-3.538,1.05-6.982,2.394-10.477,3.6,1.879,3.163,3.767,6.318,5.455,9.588.111.2.323.6.434.8,2.228,4,4.18,8.142,6.161,12.267.081.187.234.561.315.744a69.434,69.434,0,0,1,3.359,8.325c1.773-1.122,3.58-2.194,5.331-3.346-.71-2.6-1.62-5.145-2.487-7.7-2.236-6.339-4.452-12.692-6.475-19.1-.587-1.709-1.008-3.469-1.616-5.175" transform="translate(-2351.44 -1401.008)" fill="#3f3778"/>
        <path id="Trazado_1016840" data-name="Trazado 1016840" d="M3859.81,3203.24c-.085.183-.255.544-.34.723,1.875,2.33,4.443,3.937,6.709,5.842a64.151,64.151,0,0,0,10.808,6.641c.408.217,1.118.587.765,1.169-1.743,4.677-3.5,9.359-5.039,14.112-1.411,4.073-2.606,8.33-5.1,11.905h1.114c3.061-4.906,4.358-10.613,6.306-16,1.6-4.958,3.823-9.7,5.255-14.707-1.492.391-1.042,2.678-2.432,3.04a53.421,53.421,0,0,1-7.534-4.362,80.264,80.264,0,0,1-10.51-8.367" transform="translate(-3848.951 -2900.581)" fill="#3f3778"/>
        <path id="Trazado_1016841" data-name="Trazado 1016841" d="M3115.848,3460.724a208.458,208.458,0,0,1-30.171-6.616l-.54-.127c-.017.178-.055.54-.073.718l.464.242a203.849,203.849,0,0,0,27.344,6.267c6.841.94,13.729,2.024,20.651,1.9l.051-.591c-5.91-.574-11.845-.923-17.726-1.794" transform="translate(-3029.068 -3127.63)" fill="#3f3778"/>
        <path id="Trazado_1016842" data-name="Trazado 1016842" d="M193.881,50.538C160.1,34.781,126.715,18.16,94.159,0,89.473,12.871,84.545,25.656,79.03,38.2c-7.173,16.48-14.822,32.76-23.164,48.684-1.884,3.482-3.559,7.079-5.646,10.451.459.485.91.978,1.4,1.424,5.974,5.672,11.752,11.561,17.747,17.211,3.861-.361,7.73.5,11.582.043,3.2-9.711,6.637-19.363,9.175-29.278.446-1.654.765-3.338,1.284-4.97,7.891.31,15.609-2.581,22.076-6.96A53.667,53.667,0,0,0,128.39,59.548c6.5,3.678,12.972,7.415,19.495,11.055a17.393,17.393,0,0,1,3.822,2.53c-.013.634-.493,1.135-.774,1.679A398.862,398.862,0,0,0,130.35,111l-.3,1.28C138.305,99.6,146.086,86.6,153.132,73.209a3.621,3.621,0,0,1,1.242-1.688,55.92,55.92,0,0,1-2.9,5.574Q145.921,87.568,139.7,97.674c-3.41,5.417-6.637,10.966-10.209,16.276a18.31,18.31,0,0,0-1.735,3.737,4.317,4.317,0,0,0,4.86,1.722c3.074-.7,5.362-3.061,7.381-5.328,5.413-6.484,9.622-13.848,13.793-21.161,2.113-3.708,3.967-7.556,5.919-11.352,5.247,3.24,10.715,6.118,16.166,9.005.111-.349.336-1.046.446-1.395.463.463-.106.982-.208,1.467,4.5,2.653,9.307,4.72,13.92,7.156-.914,2.041-2.037,3.992-2.815,6.093a45.041,45.041,0,0,0-2.049,24.665,48.571,48.571,0,0,0,3.737,12.564c-3.665,7.249-7.768,14.278-11.629,21.429.2.242.412.489.617.74-.259,0-.778-.009-1.033-.013-8.223,15.094-16.187,30.328-24.159,45.554q-19.5,37.265-38.364,74.854c-11.127-6.2-22.386-12.16-33.572-18.24-3.572,6.786-7.411,13.432-11.255,20.069a94.633,94.633,0,0,1-8.878,12.9c21.349,9.937,42.893,19.456,64.5,28.811,10.4-25.545,21.013-51.009,32.522-76.074,13.427-29.265,28.015-58.021,44.266-85.824,15.592-26.43,32.216-52.3,50.844-76.7,2.33-3.049,4.83-5.97,7.079-9.078Q226.6,65.666,193.881,50.538M162.55,56.444c-.833,1.884-2.032,3.589-2.781,5.515.842.6,2.275.706,2.6,1.807-.982-.468-1.913-1.025-2.887-1.505-.808,1.658-1.7,3.278-2.577,4.9-.3.455-.48,1.093-1.076,1.263.8-2.253,2.445-4.129,3.163-6.408-1.161-1.191-3.142-1.45-4.154-2.819,1.654.463,2.925,1.726,4.507,2.373.727-1.293,1.437-2.6,2.1-3.929.272-.472.451-1.144,1.11-1.2m-80.5,54.428c-2.3-1.042-4.426-2.4-6.641-3.6-.446-.319-1.135-.468-1.254-1.1,2.687,1.437,5.629,2.619,7.9,4.7" transform="translate(131.406 -0.005)" fill="#e0e8fc"/>
        <path id="Trazado_1016843" data-name="Trazado 1016843" d="M1322.278,652.048c-7.113-4.107-14.341-8.036-21.408-12.233a50.593,50.593,0,0,1-13.576,14.159c-6.693,4.766-14.737,8.044-23.054,7.9-.965,3.814-1.981,7.615-3.083,11.391-1.65,5.876-3.81,11.595-5.515,17.45q3.042,1.607,6.055,3.261a2.644,2.644,0,0,1,1.105,1c-2.424-1.4-4.932-2.657-7.322-4.12-.51,1.441-1.08,2.866-1.488,4.345l.059.408c1.322.077,2.862-.2,3.942.761a28.944,28.944,0,0,1,3.563,4.9c1.335,2.143,2.836,4.184,4.112,6.365,1.552-1.807,1.841-4.473,3.665-6.021-1.016,2.228-2.151,4.409-3.359,6.544a33.945,33.945,0,0,1,2.317,4.575c.735,1.9,1.824,3.695,2.143,5.744.089,1.518-1.73,2.092-2.934,1.59a22.381,22.381,0,0,1,3.117,3.07c.255.442.481.9.727,1.352a41.113,41.113,0,0,0,3.329,4.647,6.024,6.024,0,0,1,1.76,1.888,2.838,2.838,0,0,1-2.151-1.076c.361.867.7,1.747,1.02,2.632-4.392-.685-7.857-3.814-12-5.162-2.828,1.386-3.584,4.915-6.084,6.68a6.85,6.85,0,0,1-3.01,0c-7.275,13.576-14.784,27.038-21.667,40.826a1.852,1.852,0,0,1-.74.8c6.608-13.916,14.388-27.242,21.514-40.894a3.385,3.385,0,0,0-2.619.319c-3.159,1.322-5.7,3.729-8.729,5.285a24.593,24.593,0,0,1-9.125,2.921,542.116,542.116,0,0,1-29.083,55.019c1.327,3.189,2.245,6.6,3.835,9.647,3.614,2.092,7.313,4.031,10.94,6.1,8.614-8.236,17.42-16.268,26.038-24.5a27.179,27.179,0,0,1,4.2,2.64c.651-1.646,2.143-2.7,3.3-3.958a20.551,20.551,0,0,0,1.259-2.151c3.036-5.859,6.255-11.62,9.392-17.428.6-3.6.995-7.237,1.93-10.778.68-4.486,3.312-8.266,5.111-12.335,1.2-2.687,2.636-5.26,4.014-7.857.978-2.122,1.565-4.511,3.359-6.14.272-.123.812-.374,1.084-.5q.644.778,1.276,1.56c.157-.7,0-1.582.655-2.049a16.3,16.3,0,0,1,2.641-.987,22.692,22.692,0,0,1,2.122-4.549c2.381-4.685,4.72-9.4,7.152-14.057-2.1-1.28-4.507-2.139-6.382-3.759,2.241,1.059,4.354,2.364,6.539,3.529,2.19-4.694,4.681-9.248,7.075-13.84.969-3.992,3.074-7.56,4.851-11.229,5.872-11.11,11.943-22.139,18.853-32.641.446-.531-.408-.791-.727-1.037m-51,47.149c.651.417,1.6.617,1.824,1.467-2.708-1.361-5.323-2.9-7.994-4.337-.047-.132-.149-.4-.2-.532,2.181,1.021,4.214,2.33,6.369,3.4m11.293,6.178c.4.276,1.1.417,1.029,1.059-2.347-1.156-4.558-2.572-6.9-3.746-.549-.37-1.4-.506-1.569-1.246,2.551,1.169,4.941,2.653,7.437,3.933" transform="translate(-1040.869 -579.362)" fill="#fff"/>
        <path id="Trazado_1016844" data-name="Trazado 1016844" d="M893.115,882.406c-4.953-3.265-10.562-5.455-15.434-8.861a210.539,210.539,0,0,1-15.932,27.509c-2.649,3.495-5.315,7.262-9.26,9.388-2.5,1.4-6.033,1.186-7.8-1.271q-3.5,6.6-6.828,13.291c2.913,1.8,6.008,3.282,8.993,4.953a2.362,2.362,0,0,1,.94.842c-3.329-1.858-6.765-3.525-10.03-5.485-1.867,3.244-3.393,6.667-5.124,9.988-1.395,2.844-2.993,5.583-4.3,8.47,1.671-.119,3.219-.859,4.9-.889a88.946,88.946,0,0,1,9.405.085,4.181,4.181,0,0,1,4.056,2.645c.718,2.117-.247,4.3-.634,6.382,1.216.574,2.623.991,3.414,2.169,1.467,1.611.969,3.95.553,5.872a11.6,11.6,0,0,1,1.854,2.679c.94,2.317-.608,4.89.51,7.147.208.553.4,1.11.587,1.679,5-9.915,9.728-19.962,14.384-30.044-2.049-1.118-4.12-2.211-6.161-3.346a2.33,2.33,0,0,1-.953-.918c2.509,1.122,4.779,2.708,7.288,3.827,7.385-16.382,14.184-33.041,22.144-49.164.583-1.025.85-2.33,1.884-3.01-8.47,17.2-15.944,34.878-23.632,52.442,2.768,1.7,5.863,2.9,8.414,4.9a80.821,80.821,0,0,1-8.606-4.562c-3.606,7.666-7.109,15.379-10.9,22.956-1.182,2.262-2.232,4.588-3.338,6.888a22.053,22.053,0,0,1,.506,10.706c-.621,3.108-2.683,5.651-4.924,7.789-2.168,2.049-4.163,4.337-6.688,5.965-3.542,6.777-6.735,13.733-10.166,20.566-4.741,9.558-9.422,19.15-14.367,28.607a24.862,24.862,0,0,1-2.6,4.452A39.5,39.5,0,0,1,817.76,1042c7.9-15.409,15.519-30.958,23.1-46.524a10.457,10.457,0,0,0-2.755,2.237c-4.188,3.75-9.116,6.7-12.7,11.1a179.3,179.3,0,0,0-11.918,16.48c.094.187.276.557.366.744-.659,1.122-1.407,2.19-2.113,3.287.566.829,1.395,1.616,1.441,2.683-.655,1.586-1.935,2.815-2.857,4.248-2.02,3.061-4.048,6.131-5.8,9.358,7.59,4.2,15.328,8.18,22.5,13.083,3.861-7.05,7.407-14.269,11.076-21.417q11.78-23.107,23.576-46.209c7.351-14.371,14.762-28.713,21.791-43.246-1.59-1.242-3.92-1.637-5.094-3.308,1.794.85,3.487,1.9,5.2,2.9,4.167-8.5,7.951-17.186,12.024-25.736.566-1,.765-2.321,1.8-2.98-4.426,9.63-8.852,19.269-13.41,28.84,1.1.782,2.568,1.1,3.363,2.249-1.224-.5-2.368-1.182-3.542-1.8-7.181,15-14.886,29.759-22.433,44.585-11.416,22.224-22.62,44.559-34.164,66.72-7.352-5-15.23-9.159-23.041-13.393-1.773,3.316-3.64,6.582-5.417,9.9,11,5.983,22.067,11.837,33.011,17.926,5.272-10.915,10.851-21.68,16.344-32.484,7.394-14.507,14.907-28.951,22.424-43.39,7.811-14.771,15.451-29.635,23.589-44.232-1.586-.952-3.3-1.709-4.8-2.8,1.786.54,3.278,1.718,4.953,2.5,3.75-7.1,7.777-14.044,11.489-21.157a53.82,53.82,0,0,1-4.333-17.913,43.189,43.189,0,0,1,5.349-25.069c-3.274-1.718-6.624-3.274-9.9-4.975a24.036,24.036,0,0,0-3.763-1.8m-34.725,51.337c-.208-.017-.621-.055-.825-.072-2.368-1.339-4.8-2.572-7.16-3.916-.03-.128-.085-.387-.11-.514,2.7,1.5,5.493,2.836,8.1,4.5" transform="translate(-586.251 -791.008)" fill="#fff"/>
        <path id="Trazado_1016845" data-name="Trazado 1016845" d="M2163.692,1075.3c-.149-.242-.447-.723-.6-.961-.935,1.42-1.718,2.93-2.521,4.426-7.955,14.546-16.416,28.806-25.018,42.973-.111.323-.332.965-.442,1.288,5.26-2.054,10.421-4.337,15.634-6.493a15.536,15.536,0,0,0,5.085-3.886c5.923-6.335,11.216-13.227,17.054-19.639-1.063-.931-2.27-1.679-3.372-2.564-1.973-1.373-.119-5.068,2.173-4.345,2.011.859,3.146,2.917,5.026,4,.3-.17.889-.514,1.186-.685-3.92-3.771-7.721-7.666-11.633-11.45a20.642,20.642,0,0,1-2.577-2.666" transform="translate(-1983.639 -972.826)" fill="#e0e8fc"/>
        <path id="Trazado_1016846" data-name="Trazado 1016846" d="M1556.182,1656.249l-.668-.289c.094,1.3.17,2.6.187,3.9a22.417,22.417,0,0,1,8.346-.727c.234-.535.438-1.088.642-1.624a4.578,4.578,0,0,0-2.934-.366,8.65,8.65,0,0,1-5.574-.9" transform="translate(-1315.664 -1499.496)" fill="#fff"/>
        <path id="Trazado_1016847" data-name="Trazado 1016847" d="M1601.275,1741.415c0,2.2-.634,4.4-.306,6.586,1.174-1.437,2.466-2.793,3.5-4.337-1.05-.8-2.487-1.025-3.2-2.249" transform="translate(-1359.732 -1576.877)" fill="#fff"/>
        <path id="Trazado_1016848" data-name="Trazado 1016848" d="M2206.115,1743.117c-2.844-.276-5.561.99-8.083,2.156-6.65,3.376-12.211,8.453-17.735,13.381-2.577,2.568-5.536,4.762-7.874,7.568a24.838,24.838,0,0,1,.476,8.5,7.825,7.825,0,0,1-.8,2.964l.119.842a114.1,114.1,0,0,0,5.7,17.9,564.524,564.524,0,0,0,28.19-53.314" transform="translate(-2015.348 -1578.384)" fill="#e0e8fc"/>
        <path id="Trazado_1016849" data-name="Trazado 1016849" d="M1854.071,2018.48c-3.108,5.362-5.969,10.872-8.878,16.349,1.462-1.051,2.419-2.607,3.635-3.9,1.518-1.867,3.453-3.542,4.15-5.923a18.626,18.626,0,0,0,1.093-6.527" transform="translate(-1632.444 -1827.763)" fill="#fff"/>
        <path id="Trazado_1016850" data-name="Trazado 1016850" d="M2324.951,2430.48c-3.474-2.113-7.092-3.983-10.646-5.965,1.556,3.963,3.554,7.807,4.46,11.986.094-.085.285-.263.379-.353,2-1.824,3.848-3.805,5.808-5.668" transform="translate(-2147.62 -2195.434)" fill="#fff"/>
      </g>
    </g>
  </g>
</svg>
