<svg xmlns="http://www.w3.org/2000/svg" xmlns:xlink="http://www.w3.org/1999/xlink" width="728" height="512.147" viewBox="0 0 728 512.147">
  <defs>
    <clipPath id="clip-path">
      <rect id="Rectángulo_461814" data-name="Rectángulo 461814" width="728" height="512.148" fill="none"/>
    </clipPath>
  </defs>
  <g id="Grupo_1195822" data-name="Grupo 1195822" transform="translate(-435.711 -8336)">
    <g id="Grupo_1194831" data-name="Grupo 1194831" transform="translate(435.711 8336)">
      <g id="Grupo_1194830" data-name="Grupo 1194830" clip-path="url(#clip-path)">
        <path id="Trazado_1014870" data-name="Trazado 1014870" d="M34.911,24.187s157.014.634,156.38,0-8.377,50.773,12.693,62.45V227.785S188.5,231.339,178.6,238.7s-27.671,16.246-64.228,15.485-50.011-1.523-64.481-14.471-27.925-11.424-27.925-11.424V87.653S46.334,74.2,34.911,24.187Z" transform="translate(3.36 3.699)" fill="none" stroke="#adb3bb" stroke-miterlimit="10" stroke-width="1"/>
        <path id="Trazado_1014871" data-name="Trazado 1014871" d="M24.326,24.188s182.2.716,181.462,0-9.721,45.2,14.729,58.363V253.695S202.547,257.7,191.059,266s-32.109,18.315-74.529,17.456-52.013-1.217-71.168-14.764C27.2,255.846,9.3,254.268,9.3,254.268V83.7S37.582,80.563,24.326,24.188Z" transform="translate(1.423 3.699)" fill="none" stroke="#adb3bb" stroke-miterlimit="10" stroke-width="1"/>
        <path id="Trazado_1014872" data-name="Trazado 1014872" d="M21.658,24.188s188.549.74,187.787,0S199.384,67.5,224.687,81.119V261.671s-18.6,4.146-30.484,12.733-33.228,18.951-77.128,18.062-54.86-1.342-75.805-15.989C22.4,263.284,6.11,262.264,6.11,262.264V80S35.376,82.522,21.658,24.188Z" transform="translate(0.935 3.699)" fill="none" stroke="#adb3bb" stroke-miterlimit="10" stroke-width="1.184"/>
        <path id="Trazado_1014873" data-name="Trazado 1014873" d="M18.344,24.189s196.432.768,195.638,0-10.48,39.139,15.88,53.262V270.435s-19.373,4.3-31.76,13.2-34.618,19.65-80.351,18.729-62.567-1.842-80.669-17.5S2.147,271.048,2.147,271.048V76.288S32.636,84.676,18.344,24.189Z" transform="translate(0.328 3.698)" fill="none" stroke="#adb3bb" stroke-miterlimit="10" stroke-width="1.23"/>
        <path id="Trazado_1014874" data-name="Trazado 1014874" d="M14.037,245.82V84.844s26.818-6.352,14.247-60.657" transform="translate(2.147 3.7)" fill="none" stroke="#adb3bb" stroke-miterlimit="10" stroke-width="1.093"/>
        <path id="Trazado_1014875" data-name="Trazado 1014875" d="M175.925,24.188c-.7-.689-9.219,46.874,13.968,59.555V245.27" transform="translate(26.589 3.699)" fill="none" stroke="#adb3bb" stroke-miterlimit="10" stroke-width="1"/>
        <path id="Trazado_1014876" data-name="Trazado 1014876" d="M31.505,24.188C43.519,76.424,17.89,85.863,17.89,85.863V237.376s9.393-1.085,28.814,12.242,48.361,15.613,68.352,14.851,32.3-2.345,46.14-5.958c15.988-4.175,17.877-6.11,19.21-7.823s18.235-14.621,28.9-13.842V84.8c-22.158-12.2-14.015-61.278-13.348-60.615" transform="translate(2.737 3.699)" fill="none" stroke="#adb3bb" stroke-miterlimit="10" stroke-width="1.048"/>
        <path id="Trazado_1014877" data-name="Trazado 1014877" d="M14.037,217.9s11.932-.952,30.781,10.472S65.634,239.986,78.01,241.7s37.445,2.475,37.445,2.475,34.4-1.206,48.488-6.259c5.047-1.81,19.484-7.64,24.435-11.067s18.024-9.558,25.957-8.968" transform="translate(2.147 33.322)" fill="none" stroke="#adb3bb" stroke-miterlimit="10" stroke-width="1"/>
        <path id="Trazado_1014878" data-name="Trazado 1014878" d="M97.376,81.087l4.062-10.663V224.647l6.981-10.663" transform="translate(14.895 10.772)" fill="none" stroke="#adb3bb" stroke-miterlimit="10" stroke-width="1"/>
        <path id="Trazado_1014879" data-name="Trazado 1014879" d="M88.459,189.06s31.987-1.143,30.844,0" transform="translate(13.531 28.842)" fill="none" stroke="#adb3bb" stroke-miterlimit="10" stroke-width="1"/>
      </g>
    </g>
    <path id="Trazado_1016851" data-name="Trazado 1016851" d="M16.664,0H3.3V-25.207H16.1v2.672H6.258v8.385h9.105V-11.5H6.258v8.824H16.664Zm3.375-.65V-3.744A8.531,8.531,0,0,0,25.225-2q3.8,0,3.8-2.531A2.2,2.2,0,0,0,28.7-5.757a3.241,3.241,0,0,0-.879-.888,6.765,6.765,0,0,0-1.3-.694q-.747-.308-1.608-.642a20.715,20.715,0,0,1-2.1-.958,6.346,6.346,0,0,1-1.512-1.09,4.055,4.055,0,0,1-.914-1.38,4.882,4.882,0,0,1-.308-1.811,4.3,4.3,0,0,1,.58-2.241A5.144,5.144,0,0,1,22.2-17.095a7.213,7.213,0,0,1,2.206-.993,9.785,9.785,0,0,1,2.558-.334,10.327,10.327,0,0,1,4.184.809V-14.7a8.153,8.153,0,0,0-4.57-1.3,5.342,5.342,0,0,0-1.459.185A3.572,3.572,0,0,0,24-15.293a2.4,2.4,0,0,0-.721.8,2.107,2.107,0,0,0-.255,1.028,2.466,2.466,0,0,0,.255,1.178,2.593,2.593,0,0,0,.747.844,5.71,5.71,0,0,0,1.2.668q.7.3,1.6.65a22.263,22.263,0,0,1,2.145.94,7.355,7.355,0,0,1,1.617,1.09,4.259,4.259,0,0,1,1.028,1.4,4.507,4.507,0,0,1,.36,1.881,4.435,4.435,0,0,1-.589,2.32A5.047,5.047,0,0,1,29.813-.861a7.206,7.206,0,0,1-2.268.967,11.2,11.2,0,0,1-2.689.316A10.212,10.212,0,0,1,20.039-.65ZM39.357-2.6h-.07V8.279H36.4V-18h2.883v3.164h.07a6.817,6.817,0,0,1,6.223-3.586A6.592,6.592,0,0,1,51.012-16a10.011,10.011,0,0,1,1.951,6.478,11.157,11.157,0,0,1-2.2,7.233A7.316,7.316,0,0,1,44.754.422,6.022,6.022,0,0,1,39.357-2.6Zm-.07-7.26v2.514a5.352,5.352,0,0,0,1.45,3.788A4.816,4.816,0,0,0,44.42-2a4.825,4.825,0,0,0,4.1-2A9.193,9.193,0,0,0,50.01-9.58a7.257,7.257,0,0,0-1.389-4.711A4.6,4.6,0,0,0,44.859-16a5.108,5.108,0,0,0-4.043,1.749A6.422,6.422,0,0,0,39.287-9.861ZM70.453,0H67.57V-2.812H67.5A6.035,6.035,0,0,1,61.963.422,5.918,5.918,0,0,1,57.753-1a4.933,4.933,0,0,1-1.521-3.779q0-5.045,5.941-5.871l5.4-.756Q67.57-16,63.861-16a8.861,8.861,0,0,0-5.871,2.215v-2.953a11.155,11.155,0,0,1,6.117-1.687q6.346,0,6.346,6.715ZM67.57-9.105l-4.342.6a7.049,7.049,0,0,0-3.023.993,2.864,2.864,0,0,0-1.02,2.522,2.747,2.747,0,0,0,.94,2.153,3.634,3.634,0,0,0,2.5.835,4.627,4.627,0,0,0,3.542-1.5,5.37,5.37,0,0,0,1.4-3.806ZM78.768,0H75.885V-26.648h2.883Zm21.2,0H97.084V-3.059h-.07A6.655,6.655,0,0,1,90.826.422,6.723,6.723,0,0,1,85.4-2a9.915,9.915,0,0,1-2.03-6.583,10.787,10.787,0,0,1,2.25-7.154,7.421,7.421,0,0,1,5.994-2.689,5.77,5.77,0,0,1,5.4,2.918h.07V-26.648h2.883ZM97.084-8.139v-2.654a5.15,5.15,0,0,0-1.441-3.691A4.835,4.835,0,0,0,91.986-16a4.978,4.978,0,0,0-4.148,1.934,8.473,8.473,0,0,0-1.512,5.344,7.621,7.621,0,0,0,1.45,4.913A4.74,4.74,0,0,0,91.67-2a4.924,4.924,0,0,0,3.911-1.74A6.483,6.483,0,0,0,97.084-8.139ZM118.688,0H115.8V-2.812h-.07A6.035,6.035,0,0,1,110.2.422,5.918,5.918,0,0,1,105.987-1a4.933,4.933,0,0,1-1.521-3.779q0-5.045,5.941-5.871l5.4-.756Q115.8-16,112.1-16a8.861,8.861,0,0,0-5.871,2.215v-2.953a11.155,11.155,0,0,1,6.117-1.687q6.346,0,6.346,6.715ZM115.8-9.105l-4.342.6a7.049,7.049,0,0,0-3.023.993,2.864,2.864,0,0,0-1.02,2.522,2.747,2.747,0,0,0,.94,2.153,3.634,3.634,0,0,0,2.5.835,4.627,4.627,0,0,0,3.542-1.5,5.37,5.37,0,0,0,1.4-3.806Z" transform="translate(532.809 8548.324) rotate(-90)"/>
    <g id="Grupo_1194833" data-name="Grupo 1194833" transform="translate(435.711 8336)">
      <g id="Grupo_1194832" data-name="Grupo 1194832" clip-path="url(#clip-path)">
        <path id="Trazado_1014880" data-name="Trazado 1014880" d="M40.841,395.614l-10.663-4.062H184.4l-10.663-6.981" transform="translate(4.616 58.826)" fill="none" stroke="#adb3bb" stroke-miterlimit="10" stroke-width="1"/>
        <path id="Trazado_1016856" data-name="Trazado 1016856" d="M6.084-9.263V0H3.213V-24.507H9.946a8.887,8.887,0,0,1,6.093,1.914,6.834,6.834,0,0,1,2.162,5.4,7.427,7.427,0,0,1-2.4,5.708A9.174,9.174,0,0,1,9.314-9.263Zm0-12.646V-11.86H9.092a6.725,6.725,0,0,0,4.537-1.359,4.81,4.81,0,0,0,1.564-3.837q0-4.854-5.742-4.854Zm17.791-.034a1.776,1.776,0,0,1-1.282-.513,1.73,1.73,0,0,1-.53-1.3,1.758,1.758,0,0,1,.53-1.307,1.761,1.761,0,0,1,1.282-.521,1.81,1.81,0,0,1,1.307.521,1.744,1.744,0,0,1,.538,1.307,1.732,1.732,0,0,1-.538,1.282A1.8,1.8,0,0,1,23.875-21.943ZM25.242,0h-2.8V-17.5h2.8ZM44.98-8.049H32.625A6.545,6.545,0,0,0,34.2-3.538a5.42,5.42,0,0,0,4.136,1.589A8.6,8.6,0,0,0,43.767-3.9v2.632A10.157,10.157,0,0,1,37.666.41a7.4,7.4,0,0,1-5.828-2.384,9.758,9.758,0,0,1-2.119-6.708,9.569,9.569,0,0,1,2.316-6.656,7.425,7.425,0,0,1,5.751-2.572A6.579,6.579,0,0,1,43.1-15.688a9.263,9.263,0,0,1,1.88,6.169Zm-2.871-2.375A5.7,5.7,0,0,0,40.939-14.2a3.989,3.989,0,0,0-3.2-1.35,4.527,4.527,0,0,0-3.367,1.418,6.437,6.437,0,0,0-1.709,3.708ZM73.743,0h-2.8V-2.974h-.068A6.47,6.47,0,0,1,64.856.41a6.536,6.536,0,0,1-5.272-2.35,9.64,9.64,0,0,1-1.974-6.4A10.488,10.488,0,0,1,59.8-15.3a7.215,7.215,0,0,1,5.828-2.615,5.61,5.61,0,0,1,5.247,2.837h.068V-25.908h2.8Zm-2.8-7.913v-2.581a5.006,5.006,0,0,0-1.4-3.589,4.7,4.7,0,0,0-3.555-1.47,4.84,4.84,0,0,0-4.033,1.88,8.238,8.238,0,0,0-1.47,5.2A7.409,7.409,0,0,0,61.891-3.7a4.608,4.608,0,0,0,3.785,1.752,4.787,4.787,0,0,0,3.8-1.692A6.3,6.3,0,0,0,70.94-7.913Zm22.542-.137H81.125A6.545,6.545,0,0,0,82.7-3.538a5.42,5.42,0,0,0,4.136,1.589A8.6,8.6,0,0,0,92.268-3.9v2.632A10.157,10.157,0,0,1,86.167.41a7.4,7.4,0,0,1-5.828-2.384A9.758,9.758,0,0,1,78.22-8.682a9.569,9.569,0,0,1,2.316-6.656,7.425,7.425,0,0,1,5.751-2.572A6.579,6.579,0,0,1,91.6-15.688a9.263,9.263,0,0,1,1.88,6.169ZM90.61-10.425A5.7,5.7,0,0,0,89.44-14.2a3.989,3.989,0,0,0-3.2-1.35,4.527,4.527,0,0,0-3.367,1.418,6.437,6.437,0,0,0-1.709,3.708ZM119.236-.8A9.107,9.107,0,0,1,114.451.41a7.922,7.922,0,0,1-6.041-2.435,8.826,8.826,0,0,1-2.3-6.315,9.7,9.7,0,0,1,2.478-6.947A8.669,8.669,0,0,1,115.2-17.91a9.206,9.206,0,0,1,4.067.854v2.871a7.126,7.126,0,0,0-4.17-1.367,5.635,5.635,0,0,0-4.4,1.923,7.3,7.3,0,0,0-1.718,5.05A6.947,6.947,0,0,0,110.6-3.726a5.566,5.566,0,0,0,4.332,1.777,7.024,7.024,0,0,0,4.307-1.521Zm18.389.8h-2.8V-2.769h-.068a5.756,5.756,0,0,1-5.4,3.179Q123.1.41,123.1-7.041V-17.5h2.786V-7.485q0,5.537,4.238,5.537A4.288,4.288,0,0,0,133.5-3.461a5.787,5.787,0,0,0,1.324-3.956V-17.5h2.8Zm19.722-8.049H144.99a6.545,6.545,0,0,0,1.572,4.512A5.42,5.42,0,0,0,150.7-1.948,8.6,8.6,0,0,0,156.133-3.9v2.632a10.157,10.157,0,0,1-6.1,1.675A7.4,7.4,0,0,1,144.2-1.974a9.758,9.758,0,0,1-2.119-6.708,9.569,9.569,0,0,1,2.316-6.656,7.425,7.425,0,0,1,5.751-2.572,6.579,6.579,0,0,1,5.315,2.222,9.263,9.263,0,0,1,1.88,6.169Zm-2.871-2.375A5.7,5.7,0,0,0,153.3-14.2a3.989,3.989,0,0,0-3.2-1.35,4.527,4.527,0,0,0-3.367,1.418,6.437,6.437,0,0,0-1.709,3.708ZM164.387,0h-2.8V-25.908h2.8Zm8.477,0h-2.8V-25.908h2.8Zm12.988.41a8.117,8.117,0,0,1-6.2-2.452,9.084,9.084,0,0,1-2.316-6.5,9.463,9.463,0,0,1,2.41-6.887,8.663,8.663,0,0,1,6.511-2.478,7.849,7.849,0,0,1,6.11,2.41,9.554,9.554,0,0,1,2.2,6.682A9.4,9.4,0,0,1,192.2-2.111,8.294,8.294,0,0,1,185.852.41Zm.205-15.962a5.331,5.331,0,0,0-4.272,1.837,7.545,7.545,0,0,0-1.572,5.067,7.136,7.136,0,0,0,1.589,4.9,5.4,5.4,0,0,0,4.255,1.794,5.124,5.124,0,0,0,4.178-1.76A7.639,7.639,0,0,0,191.7-8.716a7.77,7.77,0,0,0-1.461-5.059A5.1,5.1,0,0,0,186.057-15.552Z" transform="translate(20.619 499.56)"/>
      </g>
    </g>
    <path id="Trazado_1016852" data-name="Trazado 1016852" d="M19.893-1.025A14.374,14.374,0,0,1,13.125.41,10.914,10.914,0,0,1,4.751-2.957a12.423,12.423,0,0,1-3.145-8.835,13.021,13.021,0,0,1,3.538-9.5,12.007,12.007,0,0,1,8.972-3.623,14.385,14.385,0,0,1,5.776,1.008v3.059a11.714,11.714,0,0,0-5.811-1.47A8.916,8.916,0,0,0,7.238-19.5a10.623,10.623,0,0,0-2.623,7.537A10.108,10.108,0,0,0,7.067-4.828,8.345,8.345,0,0,0,13.5-2.17a12.071,12.071,0,0,0,6.392-1.641ZM38.657,0h-2.8V-2.769h-.068A5.756,5.756,0,0,1,30.386.41q-6.255,0-6.255-7.451V-17.5h2.786V-7.485q0,5.537,4.238,5.537A4.288,4.288,0,0,0,34.53-3.461a5.787,5.787,0,0,0,1.324-3.956V-17.5h2.8ZM58.379-8.049H46.023A6.545,6.545,0,0,0,47.6-3.538a5.42,5.42,0,0,0,4.136,1.589A8.6,8.6,0,0,0,57.166-3.9v2.632A10.157,10.157,0,0,1,51.064.41a7.4,7.4,0,0,1-5.828-2.384,9.758,9.758,0,0,1-2.119-6.708,9.569,9.569,0,0,1,2.316-6.656,7.425,7.425,0,0,1,5.751-2.572A6.579,6.579,0,0,1,56.5-15.688a9.263,9.263,0,0,1,1.88,6.169Zm-2.871-2.375A5.7,5.7,0,0,0,54.337-14.2a3.989,3.989,0,0,0-3.2-1.35,4.527,4.527,0,0,0-3.367,1.418,6.437,6.437,0,0,0-1.709,3.708ZM65.42,0h-2.8V-25.908h2.8ZM73.9,0h-2.8V-25.908h2.8ZM86.885.41a8.117,8.117,0,0,1-6.2-2.452,9.084,9.084,0,0,1-2.316-6.5,9.463,9.463,0,0,1,2.41-6.887,8.663,8.663,0,0,1,6.511-2.478A7.849,7.849,0,0,1,93.4-15.5a9.554,9.554,0,0,1,2.2,6.682,9.4,9.4,0,0,1-2.367,6.708A8.294,8.294,0,0,1,86.885.41Zm.205-15.962a5.331,5.331,0,0,0-4.272,1.837,7.545,7.545,0,0,0-1.572,5.067,7.136,7.136,0,0,0,1.589,4.9A5.4,5.4,0,0,0,87.09-1.948a5.124,5.124,0,0,0,4.178-1.76,7.639,7.639,0,0,0,1.461-5.007,7.77,7.77,0,0,0-1.461-5.059A5.1,5.1,0,0,0,87.09-15.552Z" transform="translate(508.357 8699.451)"/>
    <g id="Grupo_1194835" data-name="Grupo 1194835" transform="translate(435.711 8336)">
      <g id="Grupo_1194834" data-name="Grupo 1194834" clip-path="url(#clip-path)">
        <path id="Trazado_1014881" data-name="Trazado 1014881" d="M16.129,331.285H204.876L194.34,367.46s-69.008-13.328-163.022-1.9Z" transform="translate(2.467 50.675)" fill="none" stroke="#adb3bb" stroke-miterlimit="10" stroke-width="1.23"/>
        <path id="Trazado_1014882" data-name="Trazado 1014882" d="M14.037,400.68S127.7,418.107,205.2,398.864l-4.442-15.994s-4.213-9.986-17.071-7.241c-40.324,8.607-111.074,4.661-150.864.1A14.893,14.893,0,0,0,30,375.669c-3.118.234-9.746,1.212-11.517,5.3C15.814,387.115,14.037,400.68,14.037,400.68Z" transform="translate(2.147 57.385)" fill="none" stroke="#adb3bb" stroke-miterlimit="10" stroke-width="1.23"/>
        <path id="Trazado_1014883" data-name="Trazado 1014883" d="M102.264,226.575a2.475,2.475,0,1,1,2.693-2.236,2.475,2.475,0,0,1-2.693,2.236" transform="translate(15.299 33.902)" fill="#adb3bb"/>
        <path id="Trazado_1014884" data-name="Trazado 1014884" d="M102.264,27.3a2.475,2.475,0,1,1,2.693-2.236A2.475,2.475,0,0,1,102.264,27.3Z" transform="translate(15.299 3.42)" fill="none" stroke="#adb3bb" stroke-miterlimit="10" stroke-width="1"/>
        <path id="Trazado_1014885" data-name="Trazado 1014885" d="M22.889,81.579a2.475,2.475,0,1,1,2.693-2.236,2.475,2.475,0,0,1-2.693,2.236" transform="translate(3.158 11.723)" fill="#fff"/>
        <path id="Trazado_1014886" data-name="Trazado 1014886" d="M2.246,240.777a2.475,2.475,0,1,1,2.693-2.236,2.475,2.475,0,0,1-2.693,2.236" transform="translate(0 36.075)" fill="#adb3bb"/>
        <path id="Trazado_1014887" data-name="Trazado 1014887" d="M6.209,233.348A2.475,2.475,0,1,1,8.9,231.113a2.475,2.475,0,0,1-2.693,2.236" transform="translate(0.606 34.938)" fill="#adb3bb"/>
        <path id="Trazado_1014888" data-name="Trazado 1014888" d="M102.264,235.5a2.475,2.475,0,1,1,2.693-2.236,2.475,2.475,0,0,1-2.693,2.236" transform="translate(15.299 35.267)" fill="#adb3bb"/>
        <path id="Trazado_1014889" data-name="Trazado 1014889" d="M102.264,243.7a2.475,2.475,0,1,1,2.693-2.236,2.475,2.475,0,0,1-2.693,2.236" transform="translate(15.299 36.521)" fill="#adb3bb"/>
        <path id="Trazado_1014890" data-name="Trazado 1014890" d="M102.264,251.9a2.475,2.475,0,1,1,2.693-2.236,2.475,2.475,0,0,1-2.693,2.236" transform="translate(15.299 37.776)" fill="#adb3bb"/>
        <path id="Trazado_1014891" data-name="Trazado 1014891" d="M102.264,259.712a2.475,2.475,0,1,1,2.693-2.236,2.475,2.475,0,0,1-2.693,2.236" transform="translate(15.299 38.971)" fill="#adb3bb"/>
        <path id="Trazado_1014892" data-name="Trazado 1014892" d="M102.264,268.174a2.475,2.475,0,1,1,2.693-2.236,2.475,2.475,0,0,1-2.693,2.236" transform="translate(15.299 40.265)" fill="#adb3bb"/>
        <path id="Trazado_1014893" data-name="Trazado 1014893" d="M9.4,226.575A2.475,2.475,0,1,1,12.1,224.34,2.475,2.475,0,0,1,9.4,226.575" transform="translate(1.095 33.902)" fill="#adb3bb"/>
        <path id="Trazado_1014894" data-name="Trazado 1014894" d="M14.136,220.634a2.475,2.475,0,1,1,2.693-2.236,2.475,2.475,0,0,1-2.693,2.236" transform="translate(1.819 32.994)" fill="#adb3bb"/>
        <path id="Trazado_1014895" data-name="Trazado 1014895" d="M17.989,212.291a2.475,2.475,0,1,1,2.693-2.236,2.475,2.475,0,0,1-2.693,2.236" transform="translate(2.408 31.717)" fill="#adb3bb"/>
        <path id="Trazado_1014896" data-name="Trazado 1014896" d="M23,204.474a2.475,2.475,0,1,1,2.693-2.236A2.475,2.475,0,0,1,23,204.474" transform="translate(3.174 30.522)" fill="#adb3bb"/>
        <path id="Trazado_1014897" data-name="Trazado 1014897" d="M179.934,203.841a2.475,2.475,0,1,1,2.693-2.236,2.475,2.475,0,0,1-2.693,2.236" transform="translate(27.18 30.425)" fill="#adb3bb"/>
        <path id="Trazado_1014898" data-name="Trazado 1014898" d="M184.007,211.107a2.475,2.475,0,1,1,2.693-2.236,2.475,2.475,0,0,1-2.693,2.236" transform="translate(27.803 31.536)" fill="#adb3bb"/>
        <path id="Trazado_1014899" data-name="Trazado 1014899" d="M188.631,219.209a2.475,2.475,0,1,1,2.693-2.236,2.475,2.475,0,0,1-2.693,2.236" transform="translate(28.51 32.776)" fill="#adb3bb"/>
        <path id="Trazado_1014900" data-name="Trazado 1014900" d="M192.594,226.5a2.475,2.475,0,1,1,2.693-2.236,2.474,2.474,0,0,1-2.693,2.236" transform="translate(29.116 33.891)" fill="#adb3bb"/>
        <path id="Trazado_1014901" data-name="Trazado 1014901" d="M196.558,233.348a2.475,2.475,0,1,1,2.693-2.236,2.475,2.475,0,0,1-2.693,2.236" transform="translate(29.723 34.938)" fill="#adb3bb"/>
        <path id="Trazado_1014902" data-name="Trazado 1014902" d="M200.686,240.192a2.475,2.475,0,1,1,2.693-2.236,2.475,2.475,0,0,1-2.693,2.236" transform="translate(30.354 35.985)" fill="#adb3bb"/>
        <path id="Trazado_1014903" data-name="Trazado 1014903" d="M170.787,253.08a2.475,2.475,0,1,1,2.693-2.236,2.475,2.475,0,0,1-2.693,2.236" transform="translate(25.781 37.957)" fill="#adb3bb"/>
        <path id="Trazado_1014904" data-name="Trazado 1014904" d="M168.154,245.7a2.475,2.475,0,1,1,2.693-2.236,2.475,2.475,0,0,1-2.693,2.236" transform="translate(25.378 36.828)" fill="#adb3bb"/>
        <path id="Trazado_1014905" data-name="Trazado 1014905" d="M166.007,238.045a2.475,2.475,0,1,1,2.693-2.236,2.475,2.475,0,0,1-2.693,2.236" transform="translate(25.049 35.657)" fill="#adb3bb"/>
        <path id="Trazado_1014906" data-name="Trazado 1014906" d="M162.869,230.215a2.475,2.475,0,1,1,2.693-2.236,2.475,2.475,0,0,1-2.693,2.236" transform="translate(24.569 34.459)" fill="#adb3bb"/>
        <path id="Trazado_1014907" data-name="Trazado 1014907" d="M159.527,223.429a2.475,2.475,0,1,1,2.693-2.236,2.475,2.475,0,0,1-2.693,2.236" transform="translate(24.058 33.421)" fill="#adb3bb"/>
        <path id="Trazado_1014908" data-name="Trazado 1014908" d="M155.6,214.438A2.475,2.475,0,1,1,158.3,212.2a2.475,2.475,0,0,1-2.693,2.236" transform="translate(23.458 32.046)" fill="#adb3bb"/>
        <path id="Trazado_1014909" data-name="Trazado 1014909" d="M32.769,253.248a2.475,2.475,0,1,1,2.693-2.236,2.475,2.475,0,0,1-2.693,2.236" transform="translate(4.669 37.982)" fill="#adb3bb"/>
        <path id="Trazado_1014910" data-name="Trazado 1014910" d="M16.22,334.078a2.475,2.475,0,1,1,2.693-2.236,2.475,2.475,0,0,1-2.693,2.236" transform="translate(2.137 50.346)" fill="#adb3bb"/>
        <path id="Trazado_1014911" data-name="Trazado 1014911" d="M101,334.078a2.475,2.475,0,1,1,2.693-2.236A2.475,2.475,0,0,1,101,334.078" transform="translate(15.105 50.346)" fill="#adb3bb"/>
        <path id="Trazado_1014912" data-name="Trazado 1014912" d="M101,359.963a2.475,2.475,0,1,1,2.693-2.236A2.475,2.475,0,0,1,101,359.963" transform="translate(15.105 54.306)" fill="#adb3bb"/>
        <path id="Trazado_1014913" data-name="Trazado 1014913" d="M101,383.345a2.475,2.475,0,1,1,2.693-2.236A2.475,2.475,0,0,1,101,383.345" transform="translate(15.105 57.882)" fill="#adb3bb"/>
        <path id="Trazado_1014914" data-name="Trazado 1014914" d="M101,406.36a2.475,2.475,0,1,1,2.693-2.236A2.475,2.475,0,0,1,101,406.36" transform="translate(15.105 61.403)" fill="#adb3bb"/>
        <path id="Trazado_1014915" data-name="Trazado 1014915" d="M14.136,400.015a2.475,2.475,0,1,1,2.693-2.236,2.475,2.475,0,0,1-2.693,2.236" transform="translate(1.819 60.432)" fill="#adb3bb"/>
        <path id="Trazado_1014916" data-name="Trazado 1014916" d="M179.934,399.014a2.475,2.475,0,1,1,2.693-2.236,2.475,2.475,0,0,1-2.693,2.236" transform="translate(27.18 60.279)" fill="#adb3bb"/>
        <path id="Trazado_1014917" data-name="Trazado 1014917" d="M160.269,378.349a2.475,2.475,0,1,1,2.693-2.236,2.475,2.475,0,0,1-2.693,2.236" transform="translate(24.172 57.118)" fill="#adb3bb"/>
        <path id="Trazado_1014918" data-name="Trazado 1014918" d="M31.8,378.349a2.475,2.475,0,1,1,2.692-2.236,2.475,2.475,0,0,1-2.692,2.236" transform="translate(4.521 57.118)" fill="#adb3bb"/>
        <path id="Trazado_1014919" data-name="Trazado 1014919" d="M176.073,385.492a2.475,2.475,0,1,1,2.693-2.236,2.475,2.475,0,0,1-2.693,2.236" transform="translate(26.589 58.211)" fill="#adb3bb"/>
        <path id="Trazado_1014920" data-name="Trazado 1014920" d="M17.22,385.514a2.475,2.475,0,1,1,2.693-2.236,2.475,2.475,0,0,1-2.693,2.236" transform="translate(2.29 58.214)" fill="#adb3bb"/>
        <path id="Trazado_1014921" data-name="Trazado 1014921" d="M51.732,361.964a2.475,2.475,0,1,1,2.693-2.236,2.475,2.475,0,0,1-2.693,2.236" transform="translate(7.57 54.612)" fill="#adb3bb"/>
        <path id="Trazado_1014922" data-name="Trazado 1014922" d="M146.747,361.964a2.475,2.475,0,1,1,2.693-2.236,2.475,2.475,0,0,1-2.693,2.236" transform="translate(22.103 54.612)" fill="#adb3bb"/>
        <path id="Trazado_1014923" data-name="Trazado 1014923" d="M76.365,359.963a2.475,2.475,0,1,1,2.693-2.236,2.475,2.475,0,0,1-2.693,2.236" transform="translate(11.337 54.306)" fill="#adb3bb"/>
        <path id="Trazado_1014924" data-name="Trazado 1014924" d="M122.708,359.963a2.475,2.475,0,1,1,2.693-2.236,2.475,2.475,0,0,1-2.693,2.236" transform="translate(18.426 54.306)" fill="#adb3bb"/>
        <path id="Trazado_1014925" data-name="Trazado 1014925" d="M179.934,334.078a2.475,2.475,0,1,1,2.693-2.236,2.475,2.475,0,0,1-2.693,2.236" transform="translate(27.18 50.346)" fill="#adb3bb"/>
        <path id="Trazado_1014926" data-name="Trazado 1014926" d="M170.787,365.454a2.475,2.475,0,1,1,2.693-2.236,2.475,2.475,0,0,1-2.693,2.236" transform="translate(25.781 55.146)" fill="#adb3bb"/>
        <path id="Trazado_1014927" data-name="Trazado 1014927" d="M30.337,365.454a2.475,2.475,0,1,1,2.693-2.236,2.475,2.475,0,0,1-2.693,2.236" transform="translate(4.297 55.146)" fill="#adb3bb"/>
        <path id="Trazado_1014928" data-name="Trazado 1014928" d="M36.7,245.8a2.475,2.475,0,1,1,2.693-2.236A2.475,2.475,0,0,1,36.7,245.8" transform="translate(5.271 36.843)" fill="#adb3bb"/>
        <path id="Trazado_1014929" data-name="Trazado 1014929" d="M40.678,239.045a2.475,2.475,0,1,1,2.693-2.236,2.475,2.475,0,0,1-2.693,2.236" transform="translate(5.879 35.81)" fill="#adb3bb"/>
        <path id="Trazado_1014930" data-name="Trazado 1014930" d="M42.825,231.2a2.475,2.475,0,1,1,2.693-2.236,2.475,2.475,0,0,1-2.693,2.236" transform="translate(6.207 34.61)" fill="#adb3bb"/>
        <path id="Trazado_1014931" data-name="Trazado 1014931" d="M46.118,224.428a2.475,2.475,0,1,1,2.693-2.236,2.475,2.475,0,0,1-2.693,2.236" transform="translate(6.711 33.574)" fill="#adb3bb"/>
        <path id="Trazado_1014932" data-name="Trazado 1014932" d="M49.585,216.585a2.475,2.475,0,1,1,2.693-2.236,2.475,2.475,0,0,1-2.693,2.236" transform="translate(7.241 32.374)" fill="#adb3bb"/>
        <path id="Trazado_1014933" data-name="Trazado 1014933" d="M321.945,81.087l4.062-10.663V224.647l6.981-10.663" transform="translate(49.246 10.772)" fill="none" stroke="#adb3bb" stroke-miterlimit="10" stroke-width="1"/>
        <path id="Trazado_1014934" data-name="Trazado 1014934" d="M313.027,189.06s31.987-1.143,30.844,0" transform="translate(47.882 28.842)" fill="none" stroke="#adb3bb" stroke-miterlimit="10" stroke-width="1"/>
      </g>
    </g>
    <path id="Trazado_1016853" data-name="Trazado 1016853" d="M15.654-21.909H6.084v8.477h8.853v2.581H6.084V0H3.213V-24.507H15.654Zm12.978,7.246a3.427,3.427,0,0,0-2.119-.564,3.577,3.577,0,0,0-3,1.692,7.822,7.822,0,0,0-1.2,4.614V0h-2.8V-17.5h2.8v3.606h.068a6.111,6.111,0,0,1,1.829-2.88,4.17,4.17,0,0,1,2.751-1.034,4.576,4.576,0,0,1,1.675.239ZM45.425-8.049H33.069a6.545,6.545,0,0,0,1.572,4.512,5.42,5.42,0,0,0,4.136,1.589A8.6,8.6,0,0,0,44.211-3.9v2.632A10.157,10.157,0,0,1,38.11.41a7.4,7.4,0,0,1-5.828-2.384,9.758,9.758,0,0,1-2.119-6.708,9.569,9.569,0,0,1,2.316-6.656A7.425,7.425,0,0,1,38.23-17.91a6.579,6.579,0,0,1,5.315,2.222,9.263,9.263,0,0,1,1.88,6.169Zm-2.871-2.375A5.7,5.7,0,0,0,41.383-14.2a3.989,3.989,0,0,0-3.2-1.35,4.527,4.527,0,0,0-3.367,1.418A6.437,6.437,0,0,0,33.1-10.425ZM64.189,0h-2.8V-9.98q0-5.571-4.067-5.571a4.412,4.412,0,0,0-3.478,1.581,5.859,5.859,0,0,0-1.376,3.99V0h-2.8V-17.5h2.8v2.905h.068a6.316,6.316,0,0,1,5.742-3.315,5.354,5.354,0,0,1,4.392,1.854A8.26,8.26,0,0,1,64.189-10.7Zm13.4-.171a5.4,5.4,0,0,1-2.615.547q-4.6,0-4.6-5.127V-15.107H67.368V-17.5h3.008v-4.272l2.8-.906V-17.5h4.409v2.393H73.179v9.861a4.088,4.088,0,0,0,.6,2.512,2.387,2.387,0,0,0,1.982.752,2.947,2.947,0,0,0,1.829-.581ZM95.4-8.049H83.039a6.545,6.545,0,0,0,1.572,4.512,5.42,5.42,0,0,0,4.136,1.589A8.6,8.6,0,0,0,94.182-3.9v2.632A10.157,10.157,0,0,1,88.081.41a7.4,7.4,0,0,1-5.828-2.384,9.758,9.758,0,0,1-2.119-6.708,9.569,9.569,0,0,1,2.316-6.656A7.425,7.425,0,0,1,88.2-17.91a6.579,6.579,0,0,1,5.315,2.222A9.263,9.263,0,0,1,95.4-9.519Zm-2.871-2.375A5.7,5.7,0,0,0,91.354-14.2a3.989,3.989,0,0,0-3.2-1.35,4.527,4.527,0,0,0-3.367,1.418,6.437,6.437,0,0,0-1.709,3.708Z" transform="translate(790.723 8537.109) rotate(-90)"/>
    <g id="Grupo_1194837" data-name="Grupo 1194837" transform="translate(435.711 8336)">
      <g id="Grupo_1194836" data-name="Grupo 1194836" clip-path="url(#clip-path)">
        <path id="Trazado_1014935" data-name="Trazado 1014935" d="M261.872,25.36s38.841,9.14,48.361-12.566L360.5,27.269s-17.9,61.684,17.9,68.918V233.274a63.611,63.611,0,0,0-25.513,11.043c-19.929,14.47-54.073,23.99-91.01,18.658Z" transform="translate(40.057 1.957)" fill="none" stroke="#adb3bb" stroke-miterlimit="10" stroke-width="1.23"/>
        <path id="Trazado_1014936" data-name="Trazado 1014936" d="M261.872,26.248s40.28,5.99,50.152-16.455L365.3,25.916S345.59,85.092,382.711,92.574V241.261s-12.568.8-26.458,11.42c-22.537,17.228-56.076,24.809-94.38,19.3Z" transform="translate(40.057 1.498)" fill="none" stroke="#adb3bb" stroke-miterlimit="10" stroke-width="1.274"/>
        <path id="Trazado_1014937" data-name="Trazado 1014937" d="M261.872,27.339S303.844,30.1,314.131,6.791L370.8,23.533s-20.542,60.29,18.137,68.058l-1.153,159s-13.1.835-27.57,11.858c-23.485,17.887-58.432,25.761-98.347,20.036Z" transform="translate(40.057 1.039)" fill="none" stroke="#adb3bb" stroke-miterlimit="10" stroke-width="1.325"/>
        <path id="Trazado_1014938" data-name="Trazado 1014938" d="M261.872,27.8S305,27.1,315.285,3.789l60.133,16.742S356.03,84.282,394.71,92.051L392.4,259.13s-9.692-.234-32.184,15.318c-24.281,16.789-58.432,22.3-98.347,16.575Z" transform="translate(40.057 0.58)" fill="none" stroke="#adb3bb" stroke-miterlimit="10" stroke-width="1.325"/>
        <path id="Trazado_1014939" data-name="Trazado 1014939" d="M261.872,28.258S307.3,24.094,317.592.787l62.441,16.742S360.569,84.34,401.632,90.2l-2.307,178.615s-16.614-.233-39.106,15.319c-24.281,16.789-58.432,22.3-98.347,16.575Z" transform="translate(40.057 0.12)" fill="none" stroke="#adb3bb" stroke-miterlimit="10" stroke-width="1.325"/>
        <path id="Trazado_1014940" data-name="Trazado 1014940" d="M407.4,86.557l-1.154,191.306a87.6,87.6,0,0,0-46.027,15.319c-24.281,16.789-58.432,22.3-98.347,16.575V24.612" transform="translate(40.057 3.765)" fill="none" stroke="#adb3bb" stroke-miterlimit="10" stroke-width="1.325"/>
        <path id="Trazado_1014941" data-name="Trazado 1014941" d="M392.4,225.253s-9.692-.234-32.185,15.319c-24.281,16.788-58.431,22.3-98.346,16.574" transform="translate(40.057 34.456)" fill="none" stroke="#adb3bb" stroke-miterlimit="10" stroke-width="1.325"/>
        <path id="Trazado_1014942" data-name="Trazado 1014942" d="M261.872,262.977V25.361s38.841,9.138,48.361-12.566" transform="translate(40.057 1.957)" fill="none" stroke="#adb3bb" stroke-miterlimit="10" stroke-width="1.23"/>
        <path id="Trazado_1014943" data-name="Trazado 1014943" d="M327.5,402.63a2.221,2.221,0,1,1-2.222-2.222,2.222,2.222,0,0,1,2.222,2.222" transform="translate(49.416 61.248)" fill="#adb3bb"/>
        <path id="Trazado_1014944" data-name="Trazado 1014944" d="M327.5,378.685a2.221,2.221,0,1,1-2.222-2.222,2.222,2.222,0,0,1,2.222,2.222" transform="translate(49.416 57.585)" fill="#adb3bb"/>
        <path id="Trazado_1014945" data-name="Trazado 1014945" d="M257.354,346.782l48.742-21.9s7.616,11.424,29.321,10.949,27.8-10.949,27.8-10.949l48.933,21.9L403.2,377.816H266.112Z" transform="translate(39.366 49.696)" fill="none" stroke="#adb3bb" stroke-miterlimit="10" stroke-width="1.325"/>
        <path id="Trazado_1014946" data-name="Trazado 1014946" d="M254.352,344.934,305.4,321.885s8.769,14.885,30.475,14.409,28.952-14.409,28.952-14.409l52.393,23.049-10.1,33.343H263.11Z" transform="translate(38.907 49.237)" fill="none" stroke="#adb3bb" stroke-miterlimit="10" stroke-width="1.325"/>
        <path id="Trazado_1014947" data-name="Trazado 1014947" d="M250.35,343.085l53.357-24.2s11.077,18.346,32.781,17.87a37.755,37.755,0,0,0,31.259-17.87l54.7,24.2-11.256,35.65H260.262Z" transform="translate(38.295 48.778)" fill="none" stroke="#adb3bb" stroke-miterlimit="10" stroke-width="1.325"/>
        <path id="Trazado_1014948" data-name="Trazado 1014948" d="M246.347,341.237l56.817-25.357s12.231,21.807,33.936,21.331,32.412-21.331,32.412-21.331l57.008,25.357-10.1,37.957H257.413Z" transform="translate(37.682 48.318)" fill="none" stroke="#adb3bb" stroke-miterlimit="10" stroke-width="1.325"/>
        <path id="Trazado_1014949" data-name="Trazado 1014949" d="M242.345,339.389l60.278-26.51s13.385,25.267,35.089,24.791,33.566-24.791,33.566-24.791l61.622,26.51-12.409,40.264H253.411Z" transform="translate(37.07 47.859)" fill="none" stroke="#adb3bb" stroke-miterlimit="10" stroke-width="1.325"/>
        <path id="Trazado_1014950" data-name="Trazado 1014950" d="M361.48,418.945H282.869a13.624,13.624,0,0,1-13.625-13.625v-26.93H375.1v26.93A13.625,13.625,0,0,1,361.48,418.945Z" transform="translate(41.185 57.88)" fill="none" stroke="#adb3bb" stroke-miterlimit="10" stroke-width="1.325"/>
        <path id="Trazado_1014951" data-name="Trazado 1014951" d="M365.682,418.945H279.915A14.142,14.142,0,0,1,265.773,404.8V378.391H379.824V404.8A14.142,14.142,0,0,1,365.682,418.945Z" transform="translate(40.654 57.88)" fill="none" stroke="#adb3bb" stroke-miterlimit="10" stroke-width="1.325"/>
        <path id="Trazado_1014952" data-name="Trazado 1014952" d="M369.29,418.945H277.758A14.543,14.543,0,0,1,263.215,404.4V378.391H383.833V404.4A14.543,14.543,0,0,1,369.29,418.945Z" transform="translate(40.262 57.88)" fill="none" stroke="#adb3bb" stroke-miterlimit="10" stroke-width="1.325"/>
        <path id="Trazado_1014953" data-name="Trazado 1014953" d="M372.769,418.945H275.138a14.955,14.955,0,0,1-14.955-14.955v-25.6H387.724v25.6A14.955,14.955,0,0,1,372.769,418.945Z" transform="translate(39.799 57.88)" fill="none" stroke="#adb3bb" stroke-miterlimit="10" stroke-width="1.325"/>
        <path id="Trazado_1014954" data-name="Trazado 1014954" d="M315.5,385.051v25.006s-.19-3.681-2.6-3.681h5.078" transform="translate(47.862 58.899)" fill="none" stroke="#adb3bb" stroke-linecap="round" stroke-miterlimit="10" stroke-width="1.454"/>
        <path id="Trazado_1014955" data-name="Trazado 1014955" d="M323.589,341.836v25.005s-.19-3.681-2.6-3.681h5.078" transform="translate(49.1 52.289)" fill="none" stroke="#adb3bb" stroke-linecap="round" stroke-miterlimit="10" stroke-width="1.454"/>
        <path id="Trazado_1014956" data-name="Trazado 1014956" d="M317.667,414.245a2.221,2.221,0,1,1-2.222-2.222,2.222,2.222,0,0,1,2.222,2.222" transform="translate(47.912 63.025)" fill="#adb3bb"/>
        <path id="Trazado_1014957" data-name="Trazado 1014957" d="M362.42,414.245a2.221,2.221,0,1,1-2.222-2.222,2.222,2.222,0,0,1,2.222,2.222" transform="translate(54.758 63.025)" fill="#adb3bb"/>
        <path id="Trazado_1014958" data-name="Trazado 1014958" d="M279.356,414.245a2.221,2.221,0,1,1-2.222-2.222,2.222,2.222,0,0,1,2.222,2.222" transform="translate(42.052 63.025)" fill="#adb3bb"/>
        <path id="Trazado_1014959" data-name="Trazado 1014959" d="M268.29,402.63a2.222,2.222,0,1,1-2.223-2.222,2.223,2.223,0,0,1,2.223,2.222" transform="translate(40.359 61.248)" fill="#adb3bb"/>
        <path id="Trazado_1014960" data-name="Trazado 1014960" d="M268.29,378.685a2.222,2.222,0,1,1-2.223-2.222,2.223,2.223,0,0,1,2.223,2.222" transform="translate(40.359 57.585)" fill="#adb3bb"/>
        <path id="Trazado_1014961" data-name="Trazado 1014961" d="M373.319,402.63a2.221,2.221,0,1,1-2.222-2.222,2.222,2.222,0,0,1,2.222,2.222" transform="translate(56.425 61.248)" fill="#adb3bb"/>
        <path id="Trazado_1014962" data-name="Trazado 1014962" d="M373.319,378.685a2.221,2.221,0,1,1-2.222-2.222,2.222,2.222,0,0,1,2.222,2.222" transform="translate(56.425 57.585)" fill="#adb3bb"/>
        <path id="Trazado_1014963" data-name="Trazado 1014963" d="M367.484,402.63a2.221,2.221,0,1,1-2.222-2.222,2.222,2.222,0,0,1,2.222,2.222" transform="translate(55.532 61.248)" fill="#adb3bb"/>
        <path id="Trazado_1014964" data-name="Trazado 1014964" d="M367.484,378.685a2.221,2.221,0,1,1-2.222-2.222,2.222,2.222,0,0,1,2.222,2.222" transform="translate(55.532 57.585)" fill="#adb3bb"/>
        <path id="Trazado_1014965" data-name="Trazado 1014965" d="M519.08,319.408h11.233v52.36H499.469V308.174l9.71-9.71,9.9,9.9Z" transform="translate(76.401 45.654)" fill="none" stroke="#adb3bb" stroke-linecap="round" stroke-miterlimit="10" stroke-width="1.454"/>
        <path id="Trazado_1014966" data-name="Trazado 1014966" d="M501.985,362.337a2.221,2.221,0,1,1-2.222-2.222,2.222,2.222,0,0,1,2.222,2.222" transform="translate(76.106 55.085)" fill="#adb3bb"/>
        <path id="Trazado_1014967" data-name="Trazado 1014967" d="M528.737,362.337a2.221,2.221,0,1,1-2.222-2.222,2.222,2.222,0,0,1,2.222,2.222" transform="translate(80.198 55.085)" fill="#adb3bb"/>
        <path id="Trazado_1014968" data-name="Trazado 1014968" d="M528.737,316.176a2.221,2.221,0,1,1-2.222-2.222,2.222,2.222,0,0,1,2.222,2.222" transform="translate(80.198 48.024)" fill="#adb3bb"/>
        <path id="Trazado_1014969" data-name="Trazado 1014969" d="M559.062,406.934a2.221,2.221,0,1,1-2.222-2.222,2.222,2.222,0,0,1,2.222,2.222" transform="translate(84.837 61.906)" fill="#adb3bb"/>
        <path id="Trazado_1014970" data-name="Trazado 1014970" d="M575.471,406.934a2.221,2.221,0,1,1-2.222-2.222,2.222,2.222,0,0,1,2.222,2.222" transform="translate(87.347 61.906)" fill="#adb3bb"/>
        <path id="Trazado_1014971" data-name="Trazado 1014971" d="M518.994,316.176a2.221,2.221,0,1,1-2.222-2.222,2.222,2.222,0,0,1,2.222,2.222" transform="translate(78.708 48.024)" fill="#adb3bb"/>
        <path id="Trazado_1014972" data-name="Trazado 1014972" d="M518.994,307.016a2.221,2.221,0,1,1-2.222-2.222,2.222,2.222,0,0,1,2.222,2.222" transform="translate(78.708 46.623)" fill="#adb3bb"/>
        <path id="Trazado_1014973" data-name="Trazado 1014973" d="M501.222,307.016A2.221,2.221,0,1,1,499,304.794a2.222,2.222,0,0,1,2.222,2.222" transform="translate(75.989 46.623)" fill="#adb3bb"/>
        <rect id="Rectángulo_461817" data-name="Rectángulo 461817" width="18.658" height="119.379" transform="translate(641.938 348.307)" fill="none" stroke="#adb3bb" stroke-linecap="round" stroke-miterlimit="10" stroke-width="1.454"/>
        <path id="Trazado_1014974" data-name="Trazado 1014974" d="M536.149,84.565,540.21,73.9V228.125l6.981-10.663" transform="translate(82.012 11.304)" fill="none" stroke="#adb3bb" stroke-miterlimit="10" stroke-width="1"/>
        <path id="Trazado_1014975" data-name="Trazado 1014975" d="M527.231,192.538s31.987-1.143,30.844,0" transform="translate(80.647 29.374)" fill="none" stroke="#adb3bb" stroke-miterlimit="10" stroke-width="1"/>
      </g>
    </g>
    <path id="Trazado_1016854" data-name="Trazado 1016854" d="M28.2,0H25.344V-16.44q0-1.948.239-4.768h-.068a15.244,15.244,0,0,1-.735,2.375L16.406,0H15L6.648-18.7a14.648,14.648,0,0,1-.735-2.512H5.845q.137,1.47.137,4.8V0H3.213V-24.507H7.007l7.52,17.09a21.882,21.882,0,0,1,1.128,2.939h.1q.735-2.017,1.179-3.008l7.673-17.021H28.2ZM46.792,0h-2.8V-2.734h-.068A5.868,5.868,0,0,1,38.538.41,5.753,5.753,0,0,1,34.445-.974a4.8,4.8,0,0,1-1.478-3.674q0-4.9,5.776-5.708l5.247-.735q0-4.46-3.606-4.46A8.615,8.615,0,0,0,34.675-13.4V-16.27a10.845,10.845,0,0,1,5.947-1.641q6.169,0,6.169,6.528Zm-2.8-8.853-4.221.581a6.853,6.853,0,0,0-2.939.966,2.785,2.785,0,0,0-.991,2.452,2.671,2.671,0,0,0,.914,2.094,3.533,3.533,0,0,0,2.435.812,4.5,4.5,0,0,0,3.444-1.461,5.221,5.221,0,0,0,1.359-3.7ZM66.6,0H63.8V-9.98q0-5.571-4.067-5.571a4.412,4.412,0,0,0-3.478,1.581,5.859,5.859,0,0,0-1.376,3.99V0h-2.8V-17.5h2.8v2.905h.068a6.316,6.316,0,0,1,5.742-3.315,5.354,5.354,0,0,1,4.392,1.854A8.26,8.26,0,0,1,66.6-10.7ZM86.816-1.4q0,9.639-9.229,9.639a12.391,12.391,0,0,1-5.674-1.23V4.2a11.653,11.653,0,0,0,5.64,1.641q6.46,0,6.46-6.87V-2.939h-.068A6.554,6.554,0,0,1,77.93.41a6.57,6.57,0,0,1-5.255-2.333,9.325,9.325,0,0,1-1.991-6.263,10.9,10.9,0,0,1,2.145-7.092A7.165,7.165,0,0,1,78.7-17.91a5.7,5.7,0,0,1,5.247,2.837h.068V-17.5h2.8Zm-2.8-6.511v-2.581a5.007,5.007,0,0,0-1.41-3.572,4.642,4.642,0,0,0-3.512-1.487,4.867,4.867,0,0,0-4.067,1.888,8.429,8.429,0,0,0-1.47,5.289A7.236,7.236,0,0,0,74.965-3.7,4.555,4.555,0,0,0,78.7-1.948a4.878,4.878,0,0,0,3.837-1.675A6.243,6.243,0,0,0,84.014-7.913Zm21,7.913h-2.8V-2.734h-.068A5.868,5.868,0,0,1,96.763.41,5.753,5.753,0,0,1,92.67-.974a4.8,4.8,0,0,1-1.478-3.674q0-4.9,5.776-5.708l5.247-.735q0-4.46-3.606-4.46A8.615,8.615,0,0,0,92.9-13.4V-16.27a10.845,10.845,0,0,1,5.947-1.641q6.169,0,6.169,6.528Zm-2.8-8.853-4.221.581a6.853,6.853,0,0,0-2.939.966,2.785,2.785,0,0,0-.991,2.452,2.671,2.671,0,0,0,.914,2.094,3.533,3.533,0,0,0,2.435.812,4.5,4.5,0,0,0,3.444-1.461,5.221,5.221,0,0,0,1.359-3.7Z" transform="translate(1046.512 8543.357) rotate(-90)"/>
    <path id="Trazado_1016855" data-name="Trazado 1016855" d="M15.188-.826A9.367,9.367,0,0,1,10.266.422a8.149,8.149,0,0,1-6.214-2.5,9.078,9.078,0,0,1-2.364-6.5,9.979,9.979,0,0,1,2.549-7.146,8.916,8.916,0,0,1,6.8-2.7,9.469,9.469,0,0,1,4.184.879v2.953A7.33,7.33,0,0,0,10.934-16a5.8,5.8,0,0,0-4.526,1.978A7.5,7.5,0,0,0,4.641-8.824,7.145,7.145,0,0,0,6.3-3.832,5.726,5.726,0,0,0,10.758-2a7.225,7.225,0,0,0,4.43-1.564ZM27.07.422A8.349,8.349,0,0,1,20.7-2.1a9.343,9.343,0,0,1-2.382-6.688,9.733,9.733,0,0,1,2.479-7.084,8.91,8.91,0,0,1,6.7-2.549,8.073,8.073,0,0,1,6.284,2.479A9.827,9.827,0,0,1,36.035-9.07a9.67,9.67,0,0,1-2.435,6.9A8.531,8.531,0,0,1,27.07.422ZM27.281-16a5.483,5.483,0,0,0-4.395,1.89A7.761,7.761,0,0,0,21.27-8.895,7.34,7.34,0,0,0,22.9-3.85,5.556,5.556,0,0,0,27.281-2a5.27,5.27,0,0,0,4.3-1.811,7.857,7.857,0,0,0,1.5-5.15,7.992,7.992,0,0,0-1.5-5.2A5.247,5.247,0,0,0,27.281-16Zm22.746.914a3.525,3.525,0,0,0-2.18-.58,3.679,3.679,0,0,0-3.085,1.74,8.046,8.046,0,0,0-1.239,4.746V0H40.641V-18h2.883v3.709h.07a6.285,6.285,0,0,1,1.881-2.962,4.289,4.289,0,0,1,2.83-1.063,4.706,4.706,0,0,1,1.723.246Zm12.516,0a3.525,3.525,0,0,0-2.18-.58,3.679,3.679,0,0,0-3.085,1.74,8.046,8.046,0,0,0-1.239,4.746V0H53.156V-18h2.883v3.709h.07a6.285,6.285,0,0,1,1.881-2.962,4.289,4.289,0,0,1,2.83-1.063,4.706,4.706,0,0,1,1.723.246Zm17.272,6.8H67.106a6.732,6.732,0,0,0,1.617,4.641A5.575,5.575,0,0,0,72.977-2a8.844,8.844,0,0,0,5.59-2V-1.3A10.447,10.447,0,0,1,72.291.422,7.608,7.608,0,0,1,66.3-2.03a10.037,10.037,0,0,1-2.18-6.9A9.843,9.843,0,0,1,66.5-15.776a7.637,7.637,0,0,1,5.915-2.646,6.767,6.767,0,0,1,5.467,2.285,9.528,9.528,0,0,1,1.934,6.346Zm-2.953-2.443a5.865,5.865,0,0,0-1.2-3.885A4.1,4.1,0,0,0,72.362-16,4.657,4.657,0,0,0,68.9-14.537a6.621,6.621,0,0,0-1.758,3.814ZM99.537-1.441q0,9.914-9.492,9.914a12.745,12.745,0,0,1-5.836-1.266V4.324a11.986,11.986,0,0,0,5.8,1.688q6.645,0,6.645-7.066V-3.023h-.07A6.741,6.741,0,0,1,90.4.422a6.757,6.757,0,0,1-5.405-2.4A9.591,9.591,0,0,1,82.944-8.42a11.206,11.206,0,0,1,2.206-7.295,7.37,7.37,0,0,1,6.038-2.707,5.867,5.867,0,0,1,5.4,2.918h.07V-18h2.883Zm-2.883-6.7v-2.654a5.15,5.15,0,0,0-1.45-3.674A4.774,4.774,0,0,0,91.592-16a5.006,5.006,0,0,0-4.184,1.942A8.67,8.67,0,0,0,85.9-8.613a7.443,7.443,0,0,0,1.45,4.808A4.685,4.685,0,0,0,91.188-2a5.018,5.018,0,0,0,3.946-1.723A6.421,6.421,0,0,0,96.655-8.139Z" transform="translate(1082.082 8536.349) rotate(-90)"/>
    <g id="Grupo_1194839" data-name="Grupo 1194839" transform="translate(435.711 8336)">
      <g id="Grupo_1194838" data-name="Grupo 1194838" clip-path="url(#clip-path)">
        <path id="Trazado_1014976" data-name="Trazado 1014976" d="M497.222,241.551H597.244s20.563-121.6,33.763-142.925a64.123,64.123,0,0,1-41.125-15.994c-18.786-16.755-29.023-22.817-43.665-22.34-23.356.762-57.88,36.049-83.267,36.811C462.95,97.1,491.637,192.047,497.222,241.551Z" transform="translate(70.815 9.219)" fill="none" stroke="#adb3bb" stroke-miterlimit="10" stroke-width="1.325"/>
        <path id="Trazado_1014977" data-name="Trazado 1014977" d="M495.356,246.514H600.213S621.769,119.035,635.608,96.68A67.224,67.224,0,0,1,592.5,79.914c-19.7-17.565-30.426-23.921-45.776-23.42-24.484.8-60.678,37.791-87.292,38.59C459.427,95.083,489.5,194.618,495.356,246.514Z" transform="translate(70.276 8.637)" fill="none" stroke="#adb3bb" stroke-miterlimit="10" stroke-width="1.389"/>
        <path id="Trazado_1014978" data-name="Trazado 1014978" d="M493.489,251.476H603.181S625.732,118.12,640.209,94.734a70.324,70.324,0,0,1-45.1-17.54c-20.6-18.375-31.828-25.023-47.885-24.5-25.614.835-63.476,39.533-91.317,40.369C455.9,93.063,487.365,197.187,493.489,251.476Z" transform="translate(69.737 8.056)" fill="none" stroke="#adb3bb" stroke-miterlimit="10" stroke-width="1.453"/>
        <path id="Trazado_1014979" data-name="Trazado 1014979" d="M491.61,256.474H606.17s23.552-139.276,38.67-163.7a73.446,73.446,0,0,1-47.1-18.318C576.221,55.267,564.5,48.322,547.727,48.87c-26.75.872-66.294,41.288-95.37,42.16C452.357,91.03,485.213,199.776,491.61,256.474Z" transform="translate(69.194 7.471)" fill="none" stroke="#adb3bb" stroke-miterlimit="10" stroke-width="1.518"/>
        <path id="Trazado_1014980" data-name="Trazado 1014980" d="M489.056,263.262H610.232s24.911-147.317,40.9-173.151c0,0-27.065.922-49.823-19.376s-35.161-27.642-52.9-27.065c-28.295.924-70.121,43.672-100.876,44.6C447.537,88.267,482.291,203.29,489.056,263.262Z" transform="translate(68.457 6.675)" fill="none" stroke="#adb3bb" stroke-miterlimit="10" stroke-width="1.605"/>
        <path id="Trazado_1014981" data-name="Trazado 1014981" d="M486.024,271.328H615.055S641.581,114.46,658.612,86.95c0,0-28.82.982-53.054-20.632S568.118,36.883,549.229,37.5C519.1,38.482,474.562,84,441.812,84.986,441.812,84.986,478.819,207.467,486.024,271.328Z" transform="translate(67.581 5.731)" fill="none" stroke="#adb3bb" stroke-miterlimit="10" stroke-width="1.709"/>
        <path id="Trazado_1014982" data-name="Trazado 1014982" d="M516.215,217.209a3.093,3.093,0,1,1-3.093-3.093,3.093,3.093,0,0,1,3.093,3.093" transform="translate(78.016 32.752)" fill="#adb3bb"/>
        <path id="Trazado_1014983" data-name="Trazado 1014983" d="M525.449,217.209a3.093,3.093,0,1,1-3.093-3.093,3.093,3.093,0,0,1,3.093,3.093" transform="translate(79.428 32.752)" fill="#adb3bb"/>
        <path id="Trazado_1014984" data-name="Trazado 1014984" d="M533.515,217.209a3.093,3.093,0,1,1-3.093-3.093,3.093,3.093,0,0,1,3.093,3.093" transform="translate(80.662 32.752)" fill="#adb3bb"/>
        <path id="Trazado_1014985" data-name="Trazado 1014985" d="M541.441,217.209a3.093,3.093,0,1,1-3.093-3.093,3.093,3.093,0,0,1,3.093,3.093" transform="translate(81.875 32.752)" fill="#adb3bb"/>
        <path id="Trazado_1014986" data-name="Trazado 1014986" d="M539.334,56.876a3.093,3.093,0,1,1-3.093-3.093,3.093,3.093,0,0,1,3.093,3.093" transform="translate(81.552 8.227)" fill="#adb3bb"/>
        <path id="Trazado_1014987" data-name="Trazado 1014987" d="M539.334,48.632a3.093,3.093,0,1,1-3.093-3.093,3.093,3.093,0,0,1,3.093,3.093" transform="translate(81.552 6.966)" fill="#adb3bb"/>
        <path id="Trazado_1014988" data-name="Trazado 1014988" d="M499.592,74.6a3.094,3.094,0,1,1-3.095-3.093,3.094,3.094,0,0,1,3.095,3.093" transform="translate(75.473 10.938)" fill="#adb3bb"/>
        <path id="Trazado_1014989" data-name="Trazado 1014989" d="M575.555,74.6a3.093,3.093,0,1,1-3.093-3.093,3.093,3.093,0,0,1,3.093,3.093" transform="translate(87.093 10.938)" fill="#adb3bb"/>
        <path id="Trazado_1014990" data-name="Trazado 1014990" d="M516.215,225.51a3.093,3.093,0,1,1-3.093-3.093,3.093,3.093,0,0,1,3.093,3.093" transform="translate(78.016 34.022)" fill="#adb3bb"/>
        <path id="Trazado_1014991" data-name="Trazado 1014991" d="M525.449,225.51a3.093,3.093,0,1,1-3.093-3.093,3.093,3.093,0,0,1,3.093,3.093" transform="translate(79.428 34.022)" fill="#adb3bb"/>
        <path id="Trazado_1014992" data-name="Trazado 1014992" d="M533.515,225.51a3.093,3.093,0,1,1-3.093-3.093,3.093,3.093,0,0,1,3.093,3.093" transform="translate(80.662 34.022)" fill="#adb3bb"/>
        <path id="Trazado_1014993" data-name="Trazado 1014993" d="M541.441,225.51a3.093,3.093,0,1,1-3.093-3.093,3.093,3.093,0,0,1,3.093,3.093" transform="translate(81.875 34.022)" fill="#adb3bb"/>
        <path id="Trazado_1014994" data-name="Trazado 1014994" d="M516.215,234.535a3.093,3.093,0,1,1-3.093-3.093,3.093,3.093,0,0,1,3.093,3.093" transform="translate(78.016 35.402)" fill="#adb3bb"/>
        <path id="Trazado_1014995" data-name="Trazado 1014995" d="M525.449,234.535a3.093,3.093,0,1,1-3.093-3.093,3.093,3.093,0,0,1,3.093,3.093" transform="translate(79.428 35.402)" fill="#adb3bb"/>
        <path id="Trazado_1014996" data-name="Trazado 1014996" d="M533.515,234.535a3.093,3.093,0,1,1-3.093-3.093,3.093,3.093,0,0,1,3.093,3.093" transform="translate(80.662 35.402)" fill="#adb3bb"/>
        <path id="Trazado_1014997" data-name="Trazado 1014997" d="M541.441,234.535a3.093,3.093,0,1,1-3.093-3.093,3.093,3.093,0,0,1,3.093,3.093" transform="translate(81.875 35.402)" fill="#adb3bb"/>
        <path id="Trazado_1014998" data-name="Trazado 1014998" d="M516.215,241.361a3.093,3.093,0,1,1-3.093-3.093,3.093,3.093,0,0,1,3.093,3.093" transform="translate(78.016 36.446)" fill="#adb3bb"/>
        <path id="Trazado_1014999" data-name="Trazado 1014999" d="M525.449,241.361a3.093,3.093,0,1,1-3.093-3.093,3.093,3.093,0,0,1,3.093,3.093" transform="translate(79.428 36.446)" fill="#adb3bb"/>
        <path id="Trazado_1015000" data-name="Trazado 1015000" d="M533.515,241.361a3.093,3.093,0,1,1-3.093-3.093,3.093,3.093,0,0,1,3.093,3.093" transform="translate(80.662 36.446)" fill="#adb3bb"/>
        <path id="Trazado_1015001" data-name="Trazado 1015001" d="M541.441,241.361a3.093,3.093,0,1,1-3.093-3.093,3.093,3.093,0,0,1,3.093,3.093" transform="translate(81.875 36.446)" fill="#adb3bb"/>
      </g>
    </g>
  </g>
</svg>
