<svg xmlns="http://www.w3.org/2000/svg" xmlns:xlink="http://www.w3.org/1999/xlink" width="604" height="486.843" viewBox="0 0 604 486.843">
  <defs>
    <clipPath id="clip-path">
      <rect id="Rectángulo_461848" data-name="Rectángulo 461848" width="604" height="486.842" fill="none"/>
    </clipPath>
  </defs>
  <g id="Grupo_1195826" data-name="Grupo 1195826" transform="translate(-498 -11512)">
    <g id="Grupo_1194909" data-name="Grupo 1194909" transform="translate(498 11512)">
      <g id="Grupo_1194908" data-name="Grupo 1194908" clip-path="url(#clip-path)">
        <path id="Trazado_1015143" data-name="Trazado 1015143" d="M6.606,98.535s60.949,2.949,67.83-74.221l127.8,34.9S136.369,253.858,256.3,248.451c0,0,126.324,1.475,58.984-201.527L454.88,1.212s43.746,21.627,68.814,22.119v400.1H265.15L93.606,456.368h-87Z" transform="translate(-1.69 -0.31)" fill="none" stroke="#9d9d9c" stroke-miterlimit="10" stroke-width="2.25"/>
        <path id="Trazado_1015144" data-name="Trazado 1015144" d="M9.908,334.789H524.539" transform="translate(-2.535 -85.665)" fill="none" stroke="#9d9d9c" stroke-miterlimit="10" stroke-width="2.25"/>
        <path id="Trazado_1015145" data-name="Trazado 1015145" d="M123.523,544.984v0Z" transform="translate(-31.607 -91.876)" fill="none" stroke="#9d9d9c" stroke-miterlimit="10" stroke-width="2.148"/>
        <line id="Línea_3669" data-name="Línea 3669" x2="251.172" transform="translate(7.373 423.617)" fill="none" stroke="#9d9d9c" stroke-miterlimit="10" stroke-width="2.148"/>
        <rect id="Rectángulo_461845" data-name="Rectángulo 461845" width="68.322" height="75.204" transform="translate(4.916 22.038)" fill="none" stroke="#9d9d9c" stroke-miterlimit="10" stroke-width="2.148"/>
        <path id="Trazado_1015146" data-name="Trazado 1015146" d="M69.609,104.638c2.762,1.191,21.44,19.378,21.44,19.378" transform="translate(-17.811 -26.775)" fill="none" stroke="#9d9d9c" stroke-miterlimit="10" stroke-width="2.148"/>
        <line id="Línea_3670" data-name="Línea 3670" x2="21.136" transform="translate(313.595 46.614)" fill="none" stroke="#9d9d9c" stroke-miterlimit="10" stroke-width="2.148"/>
        <path id="Trazado_1015147" data-name="Trazado 1015147" d="M6.606,327.976s37.847-36.865,87.983,0c0,0,38.831-39.814,86.509,0l22.413-19.813" transform="translate(-1.69 -78.852)" fill="none" stroke="#9d9d9c" stroke-miterlimit="10" stroke-width="2.148" stroke-dasharray="10 10"/>
        <rect id="Rectángulo_461846" data-name="Rectángulo 461846" width="130.256" height="55.052" transform="translate(112.56 314.989)" fill="none" stroke="#9d9d9c" stroke-miterlimit="10" stroke-width="2.25"/>
        <rect id="Rectángulo_461847" data-name="Rectángulo 461847" width="130.256" height="55.052" transform="translate(357.341 314.989)" fill="none" stroke="#9d9d9c" stroke-miterlimit="10" stroke-width="2.25"/>
      </g>
    </g>
    <path id="Trazado_1016884" data-name="Trazado 1016884" d="M1.561,0V-11.9H4.947a3.7,3.7,0,0,1,2.449.755,2.441,2.441,0,0,1,.9,1.967,2.9,2.9,0,0,1-.548,1.76A2.954,2.954,0,0,1,6.242-6.358v.033a3.028,3.028,0,0,1,1.926.909,2.8,2.8,0,0,1,.722,2,3.112,3.112,0,0,1-1.1,2.474A4.078,4.078,0,0,1,5.03,0ZM2.955-10.642V-6.8H4.383a2.711,2.711,0,0,0,1.8-.552A1.922,1.922,0,0,0,6.84-8.907q0-1.735-2.283-1.735Zm0,5.1v4.283H4.848a2.836,2.836,0,0,0,1.905-.581,1.99,1.99,0,0,0,.677-1.594q0-2.108-2.872-2.108ZM17.208,0H15.846V-1.328h-.033A2.85,2.85,0,0,1,13.2.2,2.794,2.794,0,0,1,11.21-.473a2.329,2.329,0,0,1-.718-1.785q0-2.382,2.806-2.772l2.548-.357q0-2.167-1.751-2.167a4.184,4.184,0,0,0-2.772,1.046V-7.9a5.268,5.268,0,0,1,2.889-.8q3,0,3,3.171ZM15.846-4.3l-2.05.282a3.329,3.329,0,0,0-1.428.469,1.353,1.353,0,0,0-.481,1.191,1.3,1.3,0,0,0,.444,1.017,1.716,1.716,0,0,0,1.183.394,2.185,2.185,0,0,0,1.673-.71,2.536,2.536,0,0,0,.66-1.8Zm.183-8.533L13.854-10.11H12.8l1.851-2.723ZM19.258-.307V-1.768a4.029,4.029,0,0,0,2.449.822q1.793,0,1.793-1.2a1.037,1.037,0,0,0-.154-.577,1.53,1.53,0,0,0-.415-.419,3.2,3.2,0,0,0-.614-.328q-.353-.145-.76-.3a9.782,9.782,0,0,1-.992-.452,3,3,0,0,1-.714-.515,1.915,1.915,0,0,1-.432-.652,2.305,2.305,0,0,1-.145-.855A2.031,2.031,0,0,1,19.548-7.3a2.429,2.429,0,0,1,.73-.772,3.406,3.406,0,0,1,1.042-.469A4.621,4.621,0,0,1,22.528-8.7a4.877,4.877,0,0,1,1.976.382v1.378a3.85,3.85,0,0,0-2.158-.614,2.523,2.523,0,0,0-.689.087,1.687,1.687,0,0,0-.527.245,1.131,1.131,0,0,0-.34.378,1,1,0,0,0-.12.486,1.165,1.165,0,0,0,.12.556,1.224,1.224,0,0,0,.353.4,2.7,2.7,0,0,0,.564.315q.332.141.755.307a10.513,10.513,0,0,1,1.013.444,3.473,3.473,0,0,1,.764.515,2.011,2.011,0,0,1,.486.66,2.128,2.128,0,0,1,.17.888,2.094,2.094,0,0,1-.278,1.1,2.383,2.383,0,0,1-.743.772A3.4,3.4,0,0,1,22.8.05,5.287,5.287,0,0,1,21.532.2,4.822,4.822,0,0,1,19.258-.307Zm8.425-10.351a.863.863,0,0,1-.623-.249.841.841,0,0,1-.257-.631.854.854,0,0,1,.257-.635.855.855,0,0,1,.623-.253.879.879,0,0,1,.635.253.847.847,0,0,1,.261.635.841.841,0,0,1-.261.623A.872.872,0,0,1,27.683-10.658ZM28.347,0H26.986V-8.5h1.361ZM36.9-.39A4.423,4.423,0,0,1,34.573.2,3.848,3.848,0,0,1,31.638-.984a4.287,4.287,0,0,1-1.116-3.067,4.712,4.712,0,0,1,1.2-3.374A4.211,4.211,0,0,1,34.938-8.7a4.472,4.472,0,0,1,1.976.415V-6.89a3.461,3.461,0,0,0-2.025-.664,2.737,2.737,0,0,0-2.137.934,3.544,3.544,0,0,0-.834,2.453A3.374,3.374,0,0,0,32.7-1.81a2.7,2.7,0,0,0,2.1.863A3.412,3.412,0,0,0,36.9-1.685ZM42.508.2A3.943,3.943,0,0,1,39.5-.992,4.412,4.412,0,0,1,38.375-4.15,4.6,4.6,0,0,1,39.545-7.5a4.208,4.208,0,0,1,3.163-1.2,3.812,3.812,0,0,1,2.968,1.17,4.641,4.641,0,0,1,1.067,3.246,4.567,4.567,0,0,1-1.15,3.258A4.028,4.028,0,0,1,42.508.2Zm.1-7.753a2.589,2.589,0,0,0-2.075.892A3.665,3.665,0,0,0,39.769-4.2a3.466,3.466,0,0,0,.772,2.382,2.624,2.624,0,0,0,2.067.872,2.489,2.489,0,0,0,2.03-.855,3.71,3.71,0,0,0,.71-2.432,3.774,3.774,0,0,0-.71-2.457A2.478,2.478,0,0,0,42.608-7.554ZM57.516-.083a2.625,2.625,0,0,1-1.27.266q-2.233,0-2.233-2.49v-5.03H52.552V-8.5h1.461v-2.075l1.361-.44V-8.5h2.142v1.162H55.375v4.79a1.986,1.986,0,0,0,.291,1.22,1.159,1.159,0,0,0,.963.365,1.431,1.431,0,0,0,.888-.282ZM62.887.2A3.943,3.943,0,0,1,59.878-.992,4.412,4.412,0,0,1,58.753-4.15,4.6,4.6,0,0,1,59.923-7.5a4.208,4.208,0,0,1,3.163-1.2,3.812,3.812,0,0,1,2.968,1.17A4.641,4.641,0,0,1,67.12-4.283a4.566,4.566,0,0,1-1.15,3.258A4.028,4.028,0,0,1,62.887.2Zm.1-7.753a2.589,2.589,0,0,0-2.075.892A3.665,3.665,0,0,0,60.147-4.2a3.466,3.466,0,0,0,.772,2.382,2.624,2.624,0,0,0,2.067.872,2.489,2.489,0,0,0,2.03-.855,3.71,3.71,0,0,0,.71-2.432,3.774,3.774,0,0,0-.71-2.457A2.478,2.478,0,0,0,62.986-7.554Zm10.741.432A1.665,1.665,0,0,0,72.7-7.4a1.737,1.737,0,0,0-1.457.822,3.8,3.8,0,0,0-.585,2.241V0H69.295V-8.5h1.361v1.751h.033a2.968,2.968,0,0,1,.888-1.4,2.025,2.025,0,0,1,1.336-.5,2.222,2.222,0,0,1,.813.116ZM74.69-.307V-1.768a4.029,4.029,0,0,0,2.449.822q1.793,0,1.793-1.2a1.037,1.037,0,0,0-.154-.577,1.53,1.53,0,0,0-.415-.419,3.2,3.2,0,0,0-.614-.328q-.353-.145-.76-.3A9.782,9.782,0,0,1,76-4.221a3,3,0,0,1-.714-.515,1.915,1.915,0,0,1-.432-.652,2.305,2.305,0,0,1-.145-.855A2.031,2.031,0,0,1,74.981-7.3a2.429,2.429,0,0,1,.73-.772,3.406,3.406,0,0,1,1.042-.469A4.621,4.621,0,0,1,77.961-8.7a4.877,4.877,0,0,1,1.976.382v1.378a3.85,3.85,0,0,0-2.158-.614,2.523,2.523,0,0,0-.689.087,1.687,1.687,0,0,0-.527.245,1.131,1.131,0,0,0-.34.378,1,1,0,0,0-.12.486,1.165,1.165,0,0,0,.12.556,1.224,1.224,0,0,0,.353.4,2.7,2.7,0,0,0,.564.315q.332.141.755.307a10.513,10.513,0,0,1,1.013.444,3.473,3.473,0,0,1,.764.515,2.011,2.011,0,0,1,.486.66,2.128,2.128,0,0,1,.17.888,2.094,2.094,0,0,1-.278,1.1,2.383,2.383,0,0,1-.743.772A3.4,3.4,0,0,1,78.235.05,5.287,5.287,0,0,1,76.965.2,4.822,4.822,0,0,1,74.69-.307ZM85.971.2A3.943,3.943,0,0,1,82.962-.992,4.412,4.412,0,0,1,81.837-4.15,4.6,4.6,0,0,1,83.008-7.5,4.208,4.208,0,0,1,86.17-8.7a3.812,3.812,0,0,1,2.968,1.17A4.641,4.641,0,0,1,90.2-4.283a4.566,4.566,0,0,1-1.15,3.258A4.028,4.028,0,0,1,85.971.2Zm.1-7.753A2.589,2.589,0,0,0,84-6.661,3.665,3.665,0,0,0,83.232-4.2,3.466,3.466,0,0,0,84-1.818a2.624,2.624,0,0,0,2.067.872A2.489,2.489,0,0,0,88.1-1.8a3.71,3.71,0,0,0,.71-2.432A3.774,3.774,0,0,0,88.1-6.69,2.478,2.478,0,0,0,86.071-7.554Z" transform="translate(630.22 11852.424)"/>
    <path id="Trazado_1016885" data-name="Trazado 1016885" d="M8.633,0H7.271V-1.444H7.238A3.143,3.143,0,0,1,4.316.2,3.175,3.175,0,0,1,1.756-.942,4.682,4.682,0,0,1,.8-4.051,5.094,5.094,0,0,1,1.859-7.429,3.5,3.5,0,0,1,4.69-8.7,2.725,2.725,0,0,1,7.238-7.321h.033v-5.263H8.633ZM7.271-3.843V-5.1A2.432,2.432,0,0,0,6.591-6.84a2.283,2.283,0,0,0-1.727-.714,2.351,2.351,0,0,0-1.959.913,4,4,0,0,0-.714,2.523A3.6,3.6,0,0,0,2.876-1.8a2.238,2.238,0,0,0,1.839.851,2.325,2.325,0,0,0,1.847-.822A3.062,3.062,0,0,0,7.271-3.843ZM18.22-3.91h-6a3.179,3.179,0,0,0,.764,2.191,2.633,2.633,0,0,0,2.009.772,4.176,4.176,0,0,0,2.64-.946V-.614A4.933,4.933,0,0,1,14.667.2,3.593,3.593,0,0,1,11.837-.959a4.74,4.74,0,0,1-1.029-3.258A4.648,4.648,0,0,1,11.932-7.45,3.606,3.606,0,0,1,14.726-8.7,3.2,3.2,0,0,1,17.307-7.62a4.5,4.5,0,0,1,.913,3ZM16.826-5.063A2.77,2.77,0,0,0,16.257-6.9,1.937,1.937,0,0,0,14.7-7.554a2.2,2.2,0,0,0-1.635.689,3.127,3.127,0,0,0-.83,1.8ZM21.64,0H20.279V-12.584H21.64Zm8.84,0H29.119V-1.328h-.033A2.85,2.85,0,0,1,26.471.2a2.794,2.794,0,0,1-1.988-.672,2.329,2.329,0,0,1-.718-1.785q0-2.382,2.806-2.772l2.548-.357q0-2.167-1.751-2.167A4.184,4.184,0,0,0,24.6-6.508V-7.9a5.268,5.268,0,0,1,2.889-.8q3,0,3,3.171ZM29.119-4.3l-2.05.282a3.329,3.329,0,0,0-1.428.469,1.353,1.353,0,0,0-.481,1.191A1.3,1.3,0,0,0,25.6-1.341a1.716,1.716,0,0,0,1.183.394,2.185,2.185,0,0,0,1.673-.71,2.536,2.536,0,0,0,.66-1.8ZM40.1,0H38.74V-4.848q0-2.706-1.976-2.706a2.143,2.143,0,0,0-1.689.768,2.846,2.846,0,0,0-.668,1.938V0H33.045V-8.5h1.361v1.411h.033A3.068,3.068,0,0,1,37.229-8.7a2.6,2.6,0,0,1,2.133.9A4.012,4.012,0,0,1,40.1-5.2Zm6.508-.083a2.625,2.625,0,0,1-1.27.266q-2.233,0-2.233-2.49v-5.03H41.645V-8.5h1.461v-2.075l1.361-.44V-8.5h2.142v1.162H44.467v4.79a1.986,1.986,0,0,0,.291,1.22,1.159,1.159,0,0,0,.963.365,1.431,1.431,0,0,0,.888-.282ZM55.258-3.91h-6a3.179,3.179,0,0,0,.764,2.191,2.633,2.633,0,0,0,2.009.772,4.176,4.176,0,0,0,2.64-.946V-.614A4.933,4.933,0,0,1,51.706.2,3.593,3.593,0,0,1,48.875-.959a4.74,4.74,0,0,1-1.029-3.258A4.648,4.648,0,0,1,48.97-7.45,3.606,3.606,0,0,1,51.764-8.7,3.2,3.2,0,0,1,54.345-7.62a4.5,4.5,0,0,1,.913,3ZM53.864-5.063A2.77,2.77,0,0,0,53.3-6.9a1.937,1.937,0,0,0-1.556-.656,2.2,2.2,0,0,0-1.635.689,3.127,3.127,0,0,0-.83,1.8ZM61.75-7.122A1.665,1.665,0,0,0,60.72-7.4a1.737,1.737,0,0,0-1.457.822,3.8,3.8,0,0,0-.585,2.241V0H57.317V-8.5h1.361v1.751h.033a2.968,2.968,0,0,1,.888-1.4,2.025,2.025,0,0,1,1.336-.5,2.222,2.222,0,0,1,.813.116ZM66.627.2A3.943,3.943,0,0,1,63.618-.992,4.412,4.412,0,0,1,62.493-4.15,4.6,4.6,0,0,1,63.663-7.5a4.208,4.208,0,0,1,3.163-1.2,3.812,3.812,0,0,1,2.968,1.17A4.641,4.641,0,0,1,70.86-4.283a4.566,4.566,0,0,1-1.15,3.258A4.028,4.028,0,0,1,66.627.2Zm.1-7.753a2.589,2.589,0,0,0-2.075.892A3.665,3.665,0,0,0,63.888-4.2a3.466,3.466,0,0,0,.772,2.382,2.624,2.624,0,0,0,2.067.872,2.489,2.489,0,0,0,2.03-.855,3.71,3.71,0,0,0,.71-2.432,3.774,3.774,0,0,0-.71-2.457A2.478,2.478,0,0,0,66.726-7.554Z" transform="translate(641.419 11868.794)"/>
    <path id="Trazado_1016886" data-name="Trazado 1016886" d="M9.729-4.4H6.375v3.345h-1.1V-4.4H1.926V-5.512H5.271V-8.857h1.1v3.345H9.729ZM20.1-6a11.693,11.693,0,0,1-.27,2.648,6.17,6.17,0,0,1-.78,1.947A3.512,3.512,0,0,1,17.793-.2,3.431,3.431,0,0,1,16.1.208a3.2,3.2,0,0,1-1.6-.394,3.349,3.349,0,0,1-1.183-1.15,5.827,5.827,0,0,1-.73-1.855,11.472,11.472,0,0,1-.249-2.519A12.985,12.985,0,0,1,12.6-8.467a6.3,6.3,0,0,1,.768-2,3.417,3.417,0,0,1,1.258-1.22,3.531,3.531,0,0,1,1.722-.411Q20.1-12.1,20.1-6ZM18.7-5.869q0-5.08-2.416-5.08-2.548,0-2.548,5.171,0,4.823,2.5,4.823Q18.7-.955,18.7-5.869ZM22.645.183a.881.881,0,0,1-.652-.274.9.9,0,0,1-.27-.656.916.916,0,0,1,.27-.66.875.875,0,0,1,.652-.278.9.9,0,0,1,.664.278.908.908,0,0,1,.274.66.9.9,0,0,1-.274.656A.9.9,0,0,1,22.645.183Zm9.878-3.818a4.006,4.006,0,0,1-.3,1.577,3.448,3.448,0,0,1-.851,1.212,3.81,3.81,0,0,1-1.332.78,5.21,5.21,0,0,1-1.735.274,4.792,4.792,0,0,1-2.465-.5V-1.735a4.533,4.533,0,0,0,2.482.78,3.359,3.359,0,0,0,1.166-.191,2.591,2.591,0,0,0,.884-.531,2.275,2.275,0,0,0,.56-.822,2.782,2.782,0,0,0,.2-1.054,2.258,2.258,0,0,0-.78-1.822,3.422,3.422,0,0,0-2.266-.66q-.241,0-.506.008t-.531.021q-.266.012-.519.029t-.461.042l.407-5.968h5.5v1.229H27.65L27.409-7.18q.266-.017.564-.029t.531-.012a5.342,5.342,0,0,1,1.693.249,3.588,3.588,0,0,1,1.266.71,2.976,2.976,0,0,1,.789,1.129A3.971,3.971,0,0,1,32.522-3.636Z" transform="translate(536.423 11640.088)"/>
    <path id="Trazado_1016887" data-name="Trazado 1016887" d="M5.728-4.2H1.2V-5.271H5.728ZM15.265-6A11.693,11.693,0,0,1,15-3.354a6.17,6.17,0,0,1-.78,1.947A3.512,3.512,0,0,1,12.962-.2a3.431,3.431,0,0,1-1.689.411,3.2,3.2,0,0,1-1.6-.394,3.349,3.349,0,0,1-1.183-1.15,5.827,5.827,0,0,1-.73-1.855,11.472,11.472,0,0,1-.249-2.519,12.985,12.985,0,0,1,.261-2.756,6.3,6.3,0,0,1,.768-2A3.417,3.417,0,0,1,9.8-11.692a3.531,3.531,0,0,1,1.722-.411Q15.265-12.1,15.265-6Zm-1.395.133q0-5.08-2.416-5.08-2.548,0-2.548,5.171,0,4.823,2.5,4.823Q13.871-.955,13.871-5.869ZM17.813.183a.881.881,0,0,1-.652-.274.9.9,0,0,1-.27-.656.916.916,0,0,1,.27-.66.875.875,0,0,1,.652-.278.9.9,0,0,1,.664.278.908.908,0,0,1,.274.66.9.9,0,0,1-.274.656A.9.9,0,0,1,17.813.183Zm9.878-3.818a4.006,4.006,0,0,1-.3,1.577,3.448,3.448,0,0,1-.851,1.212,3.81,3.81,0,0,1-1.332.78,5.21,5.21,0,0,1-1.735.274,4.792,4.792,0,0,1-2.465-.5V-1.735a4.533,4.533,0,0,0,2.482.78,3.359,3.359,0,0,0,1.166-.191,2.591,2.591,0,0,0,.884-.531A2.275,2.275,0,0,0,26.1-2.5a2.782,2.782,0,0,0,.2-1.054,2.258,2.258,0,0,0-.78-1.822,3.422,3.422,0,0,0-2.266-.66q-.241,0-.506.008t-.531.021q-.266.012-.519.029t-.461.042L21.64-11.9h5.5v1.229H22.819L22.578-7.18q.266-.017.564-.029t.531-.012a5.342,5.342,0,0,1,1.693.249,3.588,3.588,0,0,1,1.266.71,2.976,2.976,0,0,1,.789,1.129A3.971,3.971,0,0,1,27.691-3.636Z" transform="translate(685.713 11789.08)"/>
    <path id="Trazado_1016888" data-name="Trazado 1016888" d="M1.561,0V-11.9H4.947a3.7,3.7,0,0,1,2.449.755,2.441,2.441,0,0,1,.9,1.967,2.9,2.9,0,0,1-.548,1.76A2.954,2.954,0,0,1,6.242-6.358v.033a3.028,3.028,0,0,1,1.926.909,2.8,2.8,0,0,1,.722,2,3.112,3.112,0,0,1-1.1,2.474A4.078,4.078,0,0,1,5.03,0ZM2.955-10.642V-6.8H4.383a2.711,2.711,0,0,0,1.8-.552A1.922,1.922,0,0,0,6.84-8.907q0-1.735-2.283-1.735Zm0,5.1v4.283H4.848a2.836,2.836,0,0,0,1.905-.581,1.99,1.99,0,0,0,.677-1.594q0-2.108-2.872-2.108ZM16.494-11.9,10.783,1.976H9.513L15.207-11.9Zm6.284,3.121a2.461,2.461,0,0,0-.17-.955,1.891,1.891,0,0,0-.465-.677,1.9,1.9,0,0,0-.693-.4,2.714,2.714,0,0,0-.863-.133,2.855,2.855,0,0,0-.78.108,3.793,3.793,0,0,0-.743.3,4.57,4.57,0,0,0-.7.457,5.037,5.037,0,0,0-.627.589v-1.461a4.07,4.07,0,0,1,1.282-.851,4.515,4.515,0,0,1,1.731-.295,4.178,4.178,0,0,1,1.353.212,3.1,3.1,0,0,1,1.079.618,2.859,2.859,0,0,1,.718,1,3.388,3.388,0,0,1,.261,1.37A4.7,4.7,0,0,1,24-7.62a3.953,3.953,0,0,1-.49,1.079,5.207,5.207,0,0,1-.826.971,11.7,11.7,0,0,1-1.17.946q-.838.6-1.382,1.021a6.11,6.11,0,0,0-.863.793,2.3,2.3,0,0,0-.448.739,2.582,2.582,0,0,0-.129.851H24.62V0H17.274V-.589a4.911,4.911,0,0,1,.166-1.345,3.492,3.492,0,0,1,.548-1.1,6.127,6.127,0,0,1,1-1.046q.618-.523,1.515-1.179a9.577,9.577,0,0,0,1.083-.888,4.618,4.618,0,0,0,.7-.847,3.041,3.041,0,0,0,.378-.859A3.7,3.7,0,0,0,22.777-8.782ZM34-6a11.693,11.693,0,0,1-.27,2.648,6.17,6.17,0,0,1-.78,1.947A3.512,3.512,0,0,1,31.7-.2a3.431,3.431,0,0,1-1.689.411,3.2,3.2,0,0,1-1.6-.394,3.349,3.349,0,0,1-1.183-1.15,5.827,5.827,0,0,1-.73-1.855,11.472,11.472,0,0,1-.249-2.519,12.985,12.985,0,0,1,.261-2.756,6.3,6.3,0,0,1,.768-2,3.417,3.417,0,0,1,1.258-1.22,3.531,3.531,0,0,1,1.722-.411Q34-12.1,34-6Zm-1.395.133q0-5.08-2.416-5.08-2.548,0-2.548,5.171,0,4.823,2.5,4.823Q32.605-.955,32.605-5.869ZM44.426-4.4H41.072v3.345h-1.1V-4.4H36.623V-5.512h3.345V-8.857h1.1v3.345h3.354Zm8.309-4.383a2.461,2.461,0,0,0-.17-.955,1.891,1.891,0,0,0-.465-.677,1.9,1.9,0,0,0-.693-.4,2.714,2.714,0,0,0-.863-.133,2.855,2.855,0,0,0-.78.108,3.793,3.793,0,0,0-.743.3,4.57,4.57,0,0,0-.7.457A5.037,5.037,0,0,0,47.7-9.5v-1.461a4.07,4.07,0,0,1,1.282-.851,4.515,4.515,0,0,1,1.731-.295,4.178,4.178,0,0,1,1.353.212,3.1,3.1,0,0,1,1.079.618,2.859,2.859,0,0,1,.718,1,3.388,3.388,0,0,1,.261,1.37,4.7,4.7,0,0,1-.162,1.278,3.953,3.953,0,0,1-.49,1.079,5.207,5.207,0,0,1-.826.971,11.7,11.7,0,0,1-1.17.946q-.838.6-1.382,1.021a6.11,6.11,0,0,0-.863.793,2.3,2.3,0,0,0-.448.739,2.582,2.582,0,0,0-.129.851h5.927V0H47.231V-.589A4.911,4.911,0,0,1,47.4-1.934a3.492,3.492,0,0,1,.548-1.1,6.127,6.127,0,0,1,1-1.046q.618-.523,1.515-1.179a9.577,9.577,0,0,0,1.083-.888,4.618,4.618,0,0,0,.7-.847,3.041,3.041,0,0,0,.378-.859A3.7,3.7,0,0,0,52.735-8.782ZM57.342.183a.881.881,0,0,1-.652-.274.9.9,0,0,1-.27-.656.916.916,0,0,1,.27-.66.875.875,0,0,1,.652-.278.9.9,0,0,1,.664.278.908.908,0,0,1,.274.66.9.9,0,0,1-.274.656A.9.9,0,0,1,57.342.183ZM67.22-3.636a4.006,4.006,0,0,1-.3,1.577A3.448,3.448,0,0,1,66.07-.847a3.81,3.81,0,0,1-1.332.78A5.21,5.21,0,0,1,63,.208a4.792,4.792,0,0,1-2.465-.5V-1.735a4.533,4.533,0,0,0,2.482.78,3.359,3.359,0,0,0,1.166-.191,2.592,2.592,0,0,0,.884-.531,2.275,2.275,0,0,0,.56-.822,2.782,2.782,0,0,0,.2-1.054,2.258,2.258,0,0,0-.78-1.822,3.422,3.422,0,0,0-2.266-.66q-.241,0-.506.008t-.531.021q-.266.012-.519.029t-.461.042l.407-5.968h5.5v1.229H62.347L62.106-7.18q.266-.017.564-.029t.531-.012a5.342,5.342,0,0,1,1.693.249,3.588,3.588,0,0,1,1.266.71,2.976,2.976,0,0,1,.789,1.129A3.971,3.971,0,0,1,67.22-3.636Z" transform="translate(942.081 11599.794)"/>
    <path id="Trazado_1016889" data-name="Trazado 1016889" d="M1.561,0V-11.9H4.947a3.7,3.7,0,0,1,2.449.755,2.441,2.441,0,0,1,.9,1.967,2.9,2.9,0,0,1-.548,1.76A2.954,2.954,0,0,1,6.242-6.358v.033a3.028,3.028,0,0,1,1.926.909,2.8,2.8,0,0,1,.722,2,3.112,3.112,0,0,1-1.1,2.474A4.078,4.078,0,0,1,5.03,0ZM2.955-10.642V-6.8H4.383a2.711,2.711,0,0,0,1.8-.552A1.922,1.922,0,0,0,6.84-8.907q0-1.735-2.283-1.735Zm0,5.1v4.283H4.848a2.836,2.836,0,0,0,1.905-.581,1.99,1.99,0,0,0,.677-1.594q0-2.108-2.872-2.108ZM16.494-11.9,10.783,1.976H9.513L15.207-11.9Zm6.284,3.121a2.461,2.461,0,0,0-.17-.955,1.891,1.891,0,0,0-.465-.677,1.9,1.9,0,0,0-.693-.4,2.714,2.714,0,0,0-.863-.133,2.855,2.855,0,0,0-.78.108,3.793,3.793,0,0,0-.743.3,4.57,4.57,0,0,0-.7.457,5.037,5.037,0,0,0-.627.589v-1.461a4.07,4.07,0,0,1,1.282-.851,4.515,4.515,0,0,1,1.731-.295,4.178,4.178,0,0,1,1.353.212,3.1,3.1,0,0,1,1.079.618,2.859,2.859,0,0,1,.718,1,3.388,3.388,0,0,1,.261,1.37A4.7,4.7,0,0,1,24-7.62a3.953,3.953,0,0,1-.49,1.079,5.207,5.207,0,0,1-.826.971,11.7,11.7,0,0,1-1.17.946q-.838.6-1.382,1.021a6.11,6.11,0,0,0-.863.793,2.3,2.3,0,0,0-.448.739,2.582,2.582,0,0,0-.129.851H24.62V0H17.274V-.589a4.911,4.911,0,0,1,.166-1.345,3.492,3.492,0,0,1,.548-1.1,6.127,6.127,0,0,1,1-1.046q.618-.523,1.515-1.179a9.577,9.577,0,0,0,1.083-.888,4.618,4.618,0,0,0,.7-.847,3.041,3.041,0,0,0,.378-.859A3.7,3.7,0,0,0,22.777-8.782ZM35.262-4.4H31.908v3.345H30.8V-4.4H27.459V-5.512H30.8V-8.857h1.1v3.345h3.354ZM45.073-3.37a3.47,3.47,0,0,1-.3,1.465,3.235,3.235,0,0,1-.855,1.129,3.946,3.946,0,0,1-1.324.726,5.355,5.355,0,0,1-1.7.257A4.945,4.945,0,0,1,38.184-.44V-1.9a4.336,4.336,0,0,0,2.756.946,3.745,3.745,0,0,0,1.125-.158,2.522,2.522,0,0,0,.863-.457,2.028,2.028,0,0,0,.556-.722,2.255,2.255,0,0,0,.2-.955q0-2.333-3.32-2.333h-.988V-6.732h.938q2.938,0,2.938-2.191,0-2.025-2.241-2.025a3.816,3.816,0,0,0-2.366.847v-1.32a5.172,5.172,0,0,1,2.706-.681A4.158,4.158,0,0,1,42.7-11.9a3.1,3.1,0,0,1,1.038.581,2.575,2.575,0,0,1,.668.9,2.767,2.767,0,0,1,.237,1.154,2.906,2.906,0,0,1-2.374,3.021v.033a3.755,3.755,0,0,1,1.121.295,2.99,2.99,0,0,1,.888.594,2.646,2.646,0,0,1,.585.859A2.743,2.743,0,0,1,45.073-3.37Z" transform="translate(738.713 11983.687)"/>
    <path id="Trazado_1016890" data-name="Trazado 1016890" d="M1.561,0V-11.9H4.947a3.7,3.7,0,0,1,2.449.755,2.441,2.441,0,0,1,.9,1.967,2.9,2.9,0,0,1-.548,1.76A2.954,2.954,0,0,1,6.242-6.358v.033a3.028,3.028,0,0,1,1.926.909,2.8,2.8,0,0,1,.722,2,3.112,3.112,0,0,1-1.1,2.474A4.078,4.078,0,0,1,5.03,0ZM2.955-10.642V-6.8H4.383a2.711,2.711,0,0,0,1.8-.552A1.922,1.922,0,0,0,6.84-8.907q0-1.735-2.283-1.735Zm0,5.1v4.283H4.848a2.836,2.836,0,0,0,1.905-.581,1.99,1.99,0,0,0,.677-1.594q0-2.108-2.872-2.108ZM17.208,0H15.846V-1.328h-.033A2.85,2.85,0,0,1,13.2.2,2.794,2.794,0,0,1,11.21-.473a2.329,2.329,0,0,1-.718-1.785q0-2.382,2.806-2.772l2.548-.357q0-2.167-1.751-2.167a4.184,4.184,0,0,0-2.772,1.046V-7.9a5.268,5.268,0,0,1,2.889-.8q3,0,3,3.171ZM15.846-4.3l-2.05.282a3.329,3.329,0,0,0-1.428.469,1.353,1.353,0,0,0-.481,1.191,1.3,1.3,0,0,0,.444,1.017,1.716,1.716,0,0,0,1.183.394,2.185,2.185,0,0,0,1.673-.71,2.536,2.536,0,0,0,.66-1.8Zm.183-8.533L13.854-10.11H12.8l1.851-2.723ZM19.258-.307V-1.768a4.029,4.029,0,0,0,2.449.822q1.793,0,1.793-1.2a1.037,1.037,0,0,0-.154-.577,1.53,1.53,0,0,0-.415-.419,3.2,3.2,0,0,0-.614-.328q-.353-.145-.76-.3a9.782,9.782,0,0,1-.992-.452,3,3,0,0,1-.714-.515,1.915,1.915,0,0,1-.432-.652,2.305,2.305,0,0,1-.145-.855A2.031,2.031,0,0,1,19.548-7.3a2.429,2.429,0,0,1,.73-.772,3.406,3.406,0,0,1,1.042-.469A4.621,4.621,0,0,1,22.528-8.7a4.877,4.877,0,0,1,1.976.382v1.378a3.85,3.85,0,0,0-2.158-.614,2.523,2.523,0,0,0-.689.087,1.687,1.687,0,0,0-.527.245,1.131,1.131,0,0,0-.34.378,1,1,0,0,0-.12.486,1.165,1.165,0,0,0,.12.556,1.224,1.224,0,0,0,.353.4,2.7,2.7,0,0,0,.564.315q.332.141.755.307a10.513,10.513,0,0,1,1.013.444,3.473,3.473,0,0,1,.764.515,2.011,2.011,0,0,1,.486.66,2.128,2.128,0,0,1,.17.888,2.094,2.094,0,0,1-.278,1.1,2.383,2.383,0,0,1-.743.772A3.4,3.4,0,0,1,22.8.05,5.287,5.287,0,0,1,21.532.2,4.822,4.822,0,0,1,19.258-.307Zm8.425-10.351a.863.863,0,0,1-.623-.249.841.841,0,0,1-.257-.631.854.854,0,0,1,.257-.635.855.855,0,0,1,.623-.253.879.879,0,0,1,.635.253.847.847,0,0,1,.261.635.841.841,0,0,1-.261.623A.872.872,0,0,1,27.683-10.658ZM28.347,0H26.986V-8.5h1.361ZM36.9-.39A4.423,4.423,0,0,1,34.573.2,3.848,3.848,0,0,1,31.638-.984a4.287,4.287,0,0,1-1.116-3.067,4.712,4.712,0,0,1,1.2-3.374A4.211,4.211,0,0,1,34.938-8.7a4.472,4.472,0,0,1,1.976.415V-6.89a3.461,3.461,0,0,0-2.025-.664,2.737,2.737,0,0,0-2.137.934,3.544,3.544,0,0,0-.834,2.453A3.374,3.374,0,0,0,32.7-1.81a2.7,2.7,0,0,0,2.1.863A3.412,3.412,0,0,0,36.9-1.685ZM42.508.2A3.943,3.943,0,0,1,39.5-.992,4.412,4.412,0,0,1,38.375-4.15,4.6,4.6,0,0,1,39.545-7.5a4.208,4.208,0,0,1,3.163-1.2,3.812,3.812,0,0,1,2.968,1.17,4.641,4.641,0,0,1,1.067,3.246,4.567,4.567,0,0,1-1.15,3.258A4.028,4.028,0,0,1,42.508.2Zm.1-7.753a2.589,2.589,0,0,0-2.075.892A3.665,3.665,0,0,0,39.769-4.2a3.466,3.466,0,0,0,.772,2.382,2.624,2.624,0,0,0,2.067.872,2.489,2.489,0,0,0,2.03-.855,3.71,3.71,0,0,0,.71-2.432,3.774,3.774,0,0,0-.71-2.457A2.478,2.478,0,0,0,42.608-7.554ZM57.516-.083a2.625,2.625,0,0,1-1.27.266q-2.233,0-2.233-2.49v-5.03H52.552V-8.5h1.461v-2.075l1.361-.44V-8.5h2.142v1.162H55.375v4.79a1.986,1.986,0,0,0,.291,1.22,1.159,1.159,0,0,0,.963.365,1.431,1.431,0,0,0,.888-.282ZM62.887.2A3.943,3.943,0,0,1,59.878-.992,4.412,4.412,0,0,1,58.753-4.15,4.6,4.6,0,0,1,59.923-7.5a4.208,4.208,0,0,1,3.163-1.2,3.812,3.812,0,0,1,2.968,1.17A4.641,4.641,0,0,1,67.12-4.283a4.566,4.566,0,0,1-1.15,3.258A4.028,4.028,0,0,1,62.887.2Zm.1-7.753a2.589,2.589,0,0,0-2.075.892A3.665,3.665,0,0,0,60.147-4.2a3.466,3.466,0,0,0,.772,2.382,2.624,2.624,0,0,0,2.067.872,2.489,2.489,0,0,0,2.03-.855,3.71,3.71,0,0,0,.71-2.432,3.774,3.774,0,0,0-.71-2.457A2.478,2.478,0,0,0,62.986-7.554Zm10.741.432A1.665,1.665,0,0,0,72.7-7.4a1.737,1.737,0,0,0-1.457.822,3.8,3.8,0,0,0-.585,2.241V0H69.295V-8.5h1.361v1.751h.033a2.968,2.968,0,0,1,.888-1.4,2.025,2.025,0,0,1,1.336-.5,2.222,2.222,0,0,1,.813.116ZM74.69-.307V-1.768a4.029,4.029,0,0,0,2.449.822q1.793,0,1.793-1.2a1.037,1.037,0,0,0-.154-.577,1.53,1.53,0,0,0-.415-.419,3.2,3.2,0,0,0-.614-.328q-.353-.145-.76-.3A9.782,9.782,0,0,1,76-4.221a3,3,0,0,1-.714-.515,1.915,1.915,0,0,1-.432-.652,2.305,2.305,0,0,1-.145-.855A2.031,2.031,0,0,1,74.981-7.3a2.429,2.429,0,0,1,.73-.772,3.406,3.406,0,0,1,1.042-.469A4.621,4.621,0,0,1,77.961-8.7a4.877,4.877,0,0,1,1.976.382v1.378a3.85,3.85,0,0,0-2.158-.614,2.523,2.523,0,0,0-.689.087,1.687,1.687,0,0,0-.527.245,1.131,1.131,0,0,0-.34.378,1,1,0,0,0-.12.486,1.165,1.165,0,0,0,.12.556,1.224,1.224,0,0,0,.353.4,2.7,2.7,0,0,0,.564.315q.332.141.755.307a10.513,10.513,0,0,1,1.013.444,3.473,3.473,0,0,1,.764.515,2.011,2.011,0,0,1,.486.66,2.128,2.128,0,0,1,.17.888,2.094,2.094,0,0,1-.278,1.1,2.383,2.383,0,0,1-.743.772A3.4,3.4,0,0,1,78.235.05,5.287,5.287,0,0,1,76.965.2,4.822,4.822,0,0,1,74.69-.307ZM85.971.2A3.943,3.943,0,0,1,82.962-.992,4.412,4.412,0,0,1,81.837-4.15,4.6,4.6,0,0,1,83.008-7.5,4.208,4.208,0,0,1,86.17-8.7a3.812,3.812,0,0,1,2.968,1.17A4.641,4.641,0,0,1,90.2-4.283a4.566,4.566,0,0,1-1.15,3.258A4.028,4.028,0,0,1,85.971.2Zm.1-7.753A2.589,2.589,0,0,0,84-6.661,3.665,3.665,0,0,0,83.232-4.2,3.466,3.466,0,0,0,84-1.818a2.624,2.624,0,0,0,2.067.872A2.489,2.489,0,0,0,88.1-1.8a3.71,3.71,0,0,0,.71-2.432A3.774,3.774,0,0,0,88.1-6.69,2.478,2.478,0,0,0,86.071-7.554Z" transform="translate(874.999 11852.442)"/>
    <path id="Trazado_1016891" data-name="Trazado 1016891" d="M2.955-4.5V0H1.561V-11.9H4.831a4.317,4.317,0,0,1,2.959.93A3.319,3.319,0,0,1,8.84-8.351,3.608,3.608,0,0,1,7.674-5.578,4.456,4.456,0,0,1,4.524-4.5Zm0-6.143v4.881H4.416a3.266,3.266,0,0,0,2.2-.66,2.336,2.336,0,0,0,.76-1.864q0-2.357-2.789-2.357ZM14.35.2A3.943,3.943,0,0,1,11.341-.992,4.412,4.412,0,0,1,10.216-4.15,4.6,4.6,0,0,1,11.386-7.5a4.208,4.208,0,0,1,3.163-1.2,3.812,3.812,0,0,1,2.968,1.17,4.641,4.641,0,0,1,1.067,3.246,4.566,4.566,0,0,1-1.15,3.258A4.028,4.028,0,0,1,14.35.2Zm.1-7.753a2.589,2.589,0,0,0-2.075.892A3.665,3.665,0,0,0,11.61-4.2a3.466,3.466,0,0,0,.772,2.382,2.624,2.624,0,0,0,2.067.872,2.489,2.489,0,0,0,2.03-.855,3.71,3.71,0,0,0,.71-2.432,3.774,3.774,0,0,0-.71-2.457A2.478,2.478,0,0,0,14.449-7.554ZM20.243-.307V-1.768a4.029,4.029,0,0,0,2.449.822q1.793,0,1.793-1.2a1.037,1.037,0,0,0-.154-.577,1.53,1.53,0,0,0-.415-.419,3.2,3.2,0,0,0-.614-.328q-.353-.145-.76-.3a9.782,9.782,0,0,1-.992-.452,3,3,0,0,1-.714-.515,1.915,1.915,0,0,1-.432-.652,2.305,2.305,0,0,1-.145-.855A2.031,2.031,0,0,1,20.534-7.3a2.429,2.429,0,0,1,.73-.772,3.406,3.406,0,0,1,1.042-.469A4.621,4.621,0,0,1,23.514-8.7a4.877,4.877,0,0,1,1.976.382v1.378a3.85,3.85,0,0,0-2.158-.614,2.523,2.523,0,0,0-.689.087,1.687,1.687,0,0,0-.527.245,1.131,1.131,0,0,0-.34.378,1,1,0,0,0-.12.486,1.165,1.165,0,0,0,.12.556,1.224,1.224,0,0,0,.353.4,2.7,2.7,0,0,0,.564.315q.332.141.755.307a10.513,10.513,0,0,1,1.013.444,3.473,3.473,0,0,1,.764.515,2.011,2.011,0,0,1,.486.66,2.128,2.128,0,0,1,.17.888,2.094,2.094,0,0,1-.278,1.1,2.383,2.383,0,0,1-.743.772A3.4,3.4,0,0,1,23.788.05,5.287,5.287,0,0,1,22.518.2,4.822,4.822,0,0,1,20.243-.307Zm11.671.224a2.625,2.625,0,0,1-1.27.266q-2.233,0-2.233-2.49v-5.03H26.95V-8.5h1.461v-2.075l1.361-.44V-8.5h2.142v1.162H29.773v4.79a1.986,1.986,0,0,0,.291,1.22,1.159,1.159,0,0,0,.963.365,1.431,1.431,0,0,0,.888-.282ZM40.564-3.91h-6a3.179,3.179,0,0,0,.764,2.191,2.633,2.633,0,0,0,2.009.772,4.176,4.176,0,0,0,2.64-.946V-.614A4.933,4.933,0,0,1,37.011.2,3.593,3.593,0,0,1,34.18-.959a4.74,4.74,0,0,1-1.029-3.258A4.648,4.648,0,0,1,34.276-7.45,3.606,3.606,0,0,1,37.069-8.7,3.2,3.2,0,0,1,39.65-7.62a4.5,4.5,0,0,1,.913,3ZM39.169-5.063A2.77,2.77,0,0,0,38.6-6.9a1.937,1.937,0,0,0-1.556-.656,2.2,2.2,0,0,0-1.635.689,3.127,3.127,0,0,0-.83,1.8Zm7.886-2.059A1.665,1.665,0,0,0,46.025-7.4a1.737,1.737,0,0,0-1.457.822,3.8,3.8,0,0,0-.585,2.241V0H42.622V-8.5h1.361v1.751h.033a2.968,2.968,0,0,1,.888-1.4,2.025,2.025,0,0,1,1.336-.5,2.222,2.222,0,0,1,.813.116Zm2.175-3.536a.863.863,0,0,1-.623-.249.84.84,0,0,1-.257-.631.854.854,0,0,1,.257-.635.855.855,0,0,1,.623-.253.879.879,0,0,1,.635.253.847.847,0,0,1,.261.635.841.841,0,0,1-.261.623A.872.872,0,0,1,49.23-10.658ZM49.894,0H48.532V-8.5h1.361ZM56.2.2A3.943,3.943,0,0,1,53.193-.992,4.412,4.412,0,0,1,52.068-4.15,4.6,4.6,0,0,1,53.239-7.5,4.208,4.208,0,0,1,56.4-8.7a3.812,3.812,0,0,1,2.968,1.17,4.641,4.641,0,0,1,1.067,3.246,4.567,4.567,0,0,1-1.15,3.258A4.028,4.028,0,0,1,56.2.2Zm.1-7.753a2.589,2.589,0,0,0-2.075.892A3.665,3.665,0,0,0,53.463-4.2a3.466,3.466,0,0,0,.772,2.382A2.624,2.624,0,0,0,56.3-.946a2.489,2.489,0,0,0,2.03-.855,3.71,3.71,0,0,0,.71-2.432,3.774,3.774,0,0,0-.71-2.457A2.478,2.478,0,0,0,56.3-7.554Zm10.741.432A1.665,1.665,0,0,0,66.014-7.4a1.737,1.737,0,0,0-1.457.822,3.8,3.8,0,0,0-.585,2.241V0H62.61V-8.5h1.361v1.751H64a2.968,2.968,0,0,1,.888-1.4,2.025,2.025,0,0,1,1.336-.5,2.222,2.222,0,0,1,.813.116Z" transform="translate(887.276 11868.813)"/>
    <path id="Trazado_1016892" data-name="Trazado 1016892" d="M1.561,0V-11.9H4.947a3.7,3.7,0,0,1,2.449.755,2.441,2.441,0,0,1,.9,1.967,2.9,2.9,0,0,1-.548,1.76A2.954,2.954,0,0,1,6.242-6.358v.033a3.028,3.028,0,0,1,1.926.909,2.8,2.8,0,0,1,.722,2,3.112,3.112,0,0,1-1.1,2.474A4.078,4.078,0,0,1,5.03,0ZM2.955-10.642V-6.8H4.383a2.711,2.711,0,0,0,1.8-.552A1.922,1.922,0,0,0,6.84-8.907q0-1.735-2.283-1.735Zm0,5.1v4.283H4.848a2.836,2.836,0,0,0,1.905-.581,1.99,1.99,0,0,0,.677-1.594q0-2.108-2.872-2.108ZM16.494-11.9,10.783,1.976H9.513L15.207-11.9Zm6.931,0v7.861h1.527V-2.8H23.425V0H22.08V-2.8H16.485V-3.976q.78-.88,1.577-1.88t1.523-2.03q.726-1.029,1.345-2.054A18.776,18.776,0,0,0,21.972-11.9Zm-5.4,7.861H22.08V-9.87Q21.458-8.782,20.9-7.927T19.843-6.375q-.5.7-.959,1.262T18.021-4.042ZM35.262-4.4H31.908v3.345H30.8V-4.4H27.459V-5.512H30.8V-8.857h1.1v3.345h3.354ZM45.629-6a11.693,11.693,0,0,1-.27,2.648,6.17,6.17,0,0,1-.78,1.947A3.512,3.512,0,0,1,43.326-.2a3.431,3.431,0,0,1-1.689.411,3.2,3.2,0,0,1-1.6-.394,3.349,3.349,0,0,1-1.183-1.15,5.827,5.827,0,0,1-.73-1.855,11.472,11.472,0,0,1-.249-2.519,12.985,12.985,0,0,1,.261-2.756,6.3,6.3,0,0,1,.768-2,3.418,3.418,0,0,1,1.258-1.22,3.531,3.531,0,0,1,1.722-.411Q45.629-12.1,45.629-6Zm-1.395.133q0-5.08-2.416-5.08-2.548,0-2.548,5.171,0,4.823,2.5,4.823Q44.235-.955,44.235-5.869ZM48.178.183a.881.881,0,0,1-.652-.274.9.9,0,0,1-.27-.656.916.916,0,0,1,.27-.66.875.875,0,0,1,.652-.278.9.9,0,0,1,.664.278.908.908,0,0,1,.274.66.9.9,0,0,1-.274.656A.9.9,0,0,1,48.178.183Zm9.878-3.818a4.006,4.006,0,0,1-.3,1.577,3.448,3.448,0,0,1-.851,1.212,3.81,3.81,0,0,1-1.332.78,5.21,5.21,0,0,1-1.735.274,4.792,4.792,0,0,1-2.465-.5V-1.735a4.533,4.533,0,0,0,2.482.78,3.359,3.359,0,0,0,1.166-.191,2.591,2.591,0,0,0,.884-.531,2.275,2.275,0,0,0,.56-.822,2.782,2.782,0,0,0,.2-1.054,2.258,2.258,0,0,0-.78-1.822,3.422,3.422,0,0,0-2.266-.66q-.241,0-.506.008t-.531.021q-.266.012-.519.029t-.461.042L52-11.9h5.5v1.229H53.183L52.942-7.18q.266-.017.564-.029t.531-.012a5.342,5.342,0,0,1,1.693.249A3.588,3.588,0,0,1,57-6.263a2.976,2.976,0,0,1,.789,1.129A3.971,3.971,0,0,1,58.056-3.636Z" transform="translate(1049.346 11626.091) rotate(90)"/>
    <g id="Grupo_1194911" data-name="Grupo 1194911" transform="translate(498 11512)">
      <g id="Grupo_1194910" data-name="Grupo 1194910" clip-path="url(#clip-path)">
        <circle id="Elipse_13673" data-name="Elipse 13673" cx="7.132" cy="7.132" r="7.132" transform="translate(14.991 131.487) rotate(-76.35)" fill="none" stroke="#0c0c0c" stroke-miterlimit="10" stroke-width="2"/>
        <path id="Trazado_1015148" data-name="Trazado 1015148" d="M63.413,140.932c.983-1.966,15.331-23.972,15.331-23.972" transform="translate(-16.226 -29.928)"/>
        <path id="Trazado_1015149" data-name="Trazado 1015149" d="M63.413,142.144c.735-1.47,8.944-14.147,13.038-20.448" transform="translate(-16.226 -31.139)" fill="none" stroke="#0c0c0c" stroke-miterlimit="10" stroke-width="2"/>
        <path id="Trazado_1015150" data-name="Trazado 1015150" d="M77.112,130.444l-1.451-.335,2.188-9.5-7.783,5.87-.9-1.188,11.046-8.333Z" transform="translate(-17.699 -29.928)" fill="#0c0c0c"/>
        <path id="Trazado_1015151" data-name="Trazado 1015151" d="M268.691,343.482c-.546-1.6-4.774-22.783-4.774-22.783" transform="translate(-67.531 -82.06)"/>
        <path id="Trazado_1015152" data-name="Trazado 1015152" d="M268.975,344.9c-.392-1.148-2.687-12.416-3.947-18.663" transform="translate(-67.815 -83.477)" fill="none" stroke="#0c0c0c" stroke-miterlimit="10" stroke-width="2"/>
        <path id="Trazado_1015153" data-name="Trazado 1015153" d="M270.425,332.506l-1.271.776-5.083-8.319-1.453,9.64-1.471-.222,2.061-13.682Z" transform="translate(-66.822 -82.06)" fill="#0c0c0c"/>
        <line id="Línea_3671" data-name="Línea 3671" y2="227.087" transform="translate(179.9 22.038)" fill="none" stroke="#9d9d9c" stroke-miterlimit="10" stroke-width="2.148"/>
        <line id="Línea_3672" data-name="Línea 3672" y2="227.087" transform="translate(334.731 22.038)" fill="none" stroke="#9d9d9c" stroke-miterlimit="10" stroke-width="2.148"/>
        <path id="Trazado_1015154" data-name="Trazado 1015154" d="M610.788,31.047s11.246,11.282,20.644,0" transform="translate(-156.287 -7.944)" fill="none" stroke="#9d9d9c" stroke-miterlimit="10" stroke-width="2.148" stroke-dasharray="4 4"/>
        <path id="Trazado_1015155" data-name="Trazado 1015155" d="M355.706,334.789s18.555,18.515,37.112,0" transform="translate(-91.017 -85.665)" fill="none" stroke="#9d9d9c" stroke-miterlimit="10" stroke-width="2.25"/>
        <path id="Trazado_1015156" data-name="Trazado 1015156" d="M405.578,334.789s17.047,16.876,34.095,0" transform="translate(-103.779 -85.665)" fill="none" stroke="#9d9d9c" stroke-miterlimit="10" stroke-width="2.25"/>
        <path id="Trazado_1015157" data-name="Trazado 1015157" d="M642.065,31.047s11.246,11.282,20.644,0" transform="translate(-164.29 -7.944)" fill="none" stroke="#9d9d9c" stroke-miterlimit="10" stroke-width="2.148" stroke-dasharray="4 4"/>
        <path id="Trazado_1015158" data-name="Trazado 1015158" d="M675.452,31.047s11.246,11.282,20.644,0" transform="translate(-172.833 -7.944)" fill="none" stroke="#9d9d9c" stroke-miterlimit="10" stroke-width="2.148" stroke-dasharray="4 4"/>
        <line id="Línea_3673" data-name="Línea 3673" y2="14.5" transform="translate(475.718 14.91)" fill="none" stroke="#9d9d9c" stroke-miterlimit="10" stroke-width="2.274"/>
        <line id="Línea_3674" data-name="Línea 3674" y2="28.509" transform="translate(454.5 0.902)" fill="none" stroke="#9d9d9c" stroke-miterlimit="10" stroke-width="2.274"/>
        <line id="Línea_3675" data-name="Línea 3675" y2="14.5" transform="translate(500.131 14.91)" fill="none" stroke="#9d9d9c" stroke-miterlimit="10" stroke-width="2.274"/>
        <path id="Trazado_1015159" data-name="Trazado 1015159" d="M366.44,363.615H377.5l-5.53-9.339Z" transform="translate(-93.764 -90.651)" fill="none" stroke="#9d9d9c" stroke-miterlimit="10" stroke-width="2.25"/>
        <path id="Trazado_1015160" data-name="Trazado 1015160" d="M419.011,358.6H430.07l-5.53-9.339Z" transform="translate(-107.216 -89.367)" fill="none" stroke="#9d9d9c" stroke-miterlimit="10" stroke-width="2.25"/>
        <path id="Trazado_1015161" data-name="Trazado 1015161" d="M423.412,317.5h11.059l-5.53-9.339Z" transform="translate(-108.342 -78.852)" fill="none" stroke="#9d9d9c" stroke-miterlimit="10" stroke-width="2.25"/>
        <path id="Trazado_1015162" data-name="Trazado 1015162" d="M231.357,371.939h11.059l-5.53-9.339Z" transform="translate(-59.199 -92.781)" fill="none" stroke="#9d9d9c" stroke-miterlimit="10" stroke-width="2.25"/>
        <line id="Línea_3676" data-name="Línea 3676" x2="513.593" transform="translate(4.205 482.109)" fill="none" stroke="#0c0c0c" stroke-miterlimit="10" stroke-width="2"/>
        <path id="Trazado_1015163" data-name="Trazado 1015163" d="M13,651l.509-1.4L4.35,646.263l9.161-3.334L13,641.53,0,646.263Z" transform="translate(0 -164.154)" fill="#0c0c0c"/>
        <path id="Trazado_1015164" data-name="Trazado 1015164" d="M683.854,651l-.509-1.4,9.161-3.334-9.161-3.334.509-1.4,13,4.733Z" transform="translate(-174.853 -164.154)" fill="#0c0c0c"/>
        <line id="Línea_3677" data-name="Línea 3677" y2="212.21" transform="translate(546.089 33.616)" fill="none" stroke="#0c0c0c" stroke-miterlimit="10" stroke-width="2"/>
        <path id="Trazado_1015165" data-name="Trazado 1015165" d="M727.509,52.526l1.4.509,3.334-9.161,3.334,9.161,1.4-.509-4.733-13Z" transform="translate(-186.154 -10.113)" fill="#0c0c0c"/>
        <path id="Trazado_1015166" data-name="Trazado 1015166" d="M727.509,318.36l1.4-.509,3.334,9.161,3.334-9.161,1.4.509-4.733,13Z" transform="translate(-186.154 -81.331)" fill="#0c0c0c"/>
        <text id="Largo_de_espalda" data-name="Largo de espalda" transform="translate(590.176 114.09) rotate(90)" font-size="17" font-family="SegoeUI, Segoe UI"><tspan x="0" y="0">La</tspan><tspan y="0" letter-spacing="-0.009em">r</tspan><tspan y="0">go de espalda</tspan></text>
        <line id="Línea_3678" data-name="Línea 3678" y2="390.22" transform="translate(581.479 33.616)" fill="none" stroke="#0c0c0c" stroke-miterlimit="10" stroke-width="2"/>
        <path id="Trazado_1015167" data-name="Trazado 1015167" d="M775.068,52.526l1.4.509,3.334-9.161,3.334,9.161,1.4-.509-4.733-13Z" transform="translate(-198.323 -10.113)" fill="#0c0c0c"/>
        <path id="Trazado_1015168" data-name="Trazado 1015168" d="M775.068,557.581l1.4-.509,3.334,9.161,3.334-9.161,1.4.509-4.733,13Z" transform="translate(-198.323 -142.542)" fill="#0c0c0c"/>
        <line id="Línea_3679" data-name="Línea 3679" x2="447.045" transform="translate(74.958 22.038)" fill="none" stroke="#9d9d9c" stroke-miterlimit="10" stroke-width="2.148"/>
      </g>
    </g>
  </g>
</svg>
