<svg xmlns="http://www.w3.org/2000/svg" xmlns:xlink="http://www.w3.org/1999/xlink" width="84" height="84" viewBox="0 0 84 84">
  <defs>
    <clipPath id="clip-path">
      <rect id="Rectángulo_462435" data-name="Rectángulo 462435" width="26" height="63" transform="translate(0 -0.165)" fill="#c0f1e1"/>
    </clipPath>
  </defs>
  <g id="Grupo_1195830" data-name="Grupo 1195830" transform="translate(-233.711 -17180.982)">
    <g id="Grupo_1195775" data-name="Grupo 1195775" transform="translate(-472.289 15502.063)" style="isolation: isolate">
      <g id="Grupo_1119665" data-name="Grupo 1119665" transform="translate(534.111 -3840.08)">
        <rect id="Rectángulo_402006" data-name="Rectángulo 402006" width="84" height="84" rx="5" transform="translate(171.889 5519)" fill="#104936"/>
      </g>
    </g>
    <g id="Grupo_1195777" data-name="Grupo 1195777" transform="translate(262.711 17191.074)">
      <g id="Grupo_1195776" data-name="Grupo 1195776" transform="translate(0 0.074)" clip-path="url(#clip-path)">
        <path id="Trazado_1016592" data-name="Trazado 1016592" d="M25.671,103.238H6.141a.821.821,0,0,1-.86-.737L0,58.774a.738.738,0,0,1,.123-.491L5.4,46.491A.829.829,0,0,1,6.141,46h4.053a.86.86,0,1,1,0,1.72H6.756L1.72,58.774l5.159,42.744H24.811V47.72H21.495a.86.86,0,1,1,0-1.72h4.176a.84.84,0,0,1,.86.86v55.518a.84.84,0,0,1-.86.86" transform="translate(0 -40.403)" fill="#c0f1e1" fill-rule="evenodd"/>
        <path id="Trazado_1016593" data-name="Trazado 1016593" d="M74.86,112.494a.938.938,0,0,1-.614-.246,1.746,1.746,0,0,1-.246-.737l1.351-12.774a.821.821,0,0,1,.86-.737h9.212a.84.84,0,0,1,.86.86v11.546a.92.92,0,0,1-.737.86l-10.563,1.228ZM76.948,99.72l-1.105,10.932,8.721-.983V99.72Z" transform="translate(-64.911 -86.016)" fill="#c0f1e1" fill-rule="evenodd"/>
        <path id="Trazado_1016594" data-name="Trazado 1016594" d="M92.44,131.72H82.86a.86.86,0,0,1,0-1.72H92.44a.86.86,0,0,1,0,1.72" transform="translate(-71.928 -114.085)" fill="#c0f1e1" fill-rule="evenodd"/>
        <path id="Trazado_1016595" data-name="Trazado 1016595" d="M63.389,17.9H59.213a.86.86,0,1,1,0-1.72H62.53V13.72H59.213a.86.86,0,1,1,0-1.72h4.176a.84.84,0,0,1,.86.86v4.176a.84.84,0,0,1-.86.86m-7.37,0h-4.79a.86.86,0,0,1,0-1.72h4.79a.86.86,0,1,1,0,1.72m-8.107,0H43.86a.84.84,0,0,1-.86-.86V12.86a.84.84,0,0,1,.86-.86h4.053a.86.86,0,0,1,0,1.72H44.72v2.457h3.194a.86.86,0,0,1,0,1.72M56.02,13.72h-4.79a.86.86,0,0,1,0-1.72h4.79a.86.86,0,1,1,0,1.72" transform="translate(-37.718 -10.579)" fill="#c0f1e1" fill-rule="evenodd"/>
        <path id="Trazado_1016596" data-name="Trazado 1016596" d="M78.457,8.844A2.493,2.493,0,0,1,76,6.264V2.457A2.464,2.464,0,0,1,78.457,0a2.493,2.493,0,0,1,2.579,2.457V6.264a2.519,2.519,0,0,1-2.579,2.579m0-7.124a.793.793,0,0,0-.737.737V6.264a.821.821,0,0,0,.737.86.84.84,0,0,0,.86-.86V2.457a.821.821,0,0,0-.86-.737" transform="translate(-66.665 -0.053)" fill="#c0f1e1" fill-rule="evenodd"/>
        <path id="Trazado_1016597" data-name="Trazado 1016597" d="M144.457,8.844A2.493,2.493,0,0,1,142,6.264V2.457a2.457,2.457,0,0,1,4.913,0V6.264a2.493,2.493,0,0,1-2.457,2.579m0-7.124a.793.793,0,0,0-.737.737V6.264a.746.746,0,1,0,1.474,0V2.457a.793.793,0,0,0-.737-.737" transform="translate(-124.558 -0.053)" fill="#c0f1e1" fill-rule="evenodd"/>
        <path id="Trazado_1016598" data-name="Trazado 1016598" d="M122.86,103.238a.84.84,0,0,1-.86-.86V65.284a.86.86,0,0,1,1.72,0v37.094a.84.84,0,0,1-.86.86m0-49.131a.84.84,0,0,1-.86-.86V46.86a.86.86,0,0,1,1.72,0v6.387a.84.84,0,0,1-.86.86" transform="translate(-107.015 -40.403)" fill="#c0f1e1" fill-rule="evenodd"/>
      </g>
    </g>
  </g>
</svg>
