<svg xmlns="http://www.w3.org/2000/svg" xmlns:xlink="http://www.w3.org/1999/xlink" width="960.14" height="668.953" viewBox="0 0 960.14 668.953">
  <defs>
    <clipPath id="clip-path">
      <rect id="Rectángulo_461771" data-name="Rectángulo 461771" width="960.14" height="668.953" fill="none"/>
    </clipPath>
    <clipPath id="clip-path-3">
      <rect id="Rectángulo_461765" data-name="Rectángulo 461765" width="4.98" height="16.47" fill="none"/>
    </clipPath>
    <clipPath id="clip-path-4">
      <rect id="Rectángulo_461766" data-name="Rectángulo 461766" width="52.798" height="58.246" fill="none"/>
    </clipPath>
    <clipPath id="clip-path-5">
      <rect id="Rectángulo_461767" data-name="Rectángulo 461767" width="53.688" height="64.096" fill="none"/>
    </clipPath>
    <clipPath id="clip-path-6">
      <rect id="Rectángulo_461768" data-name="Rectángulo 461768" width="16.372" height="12.384" fill="none"/>
    </clipPath>
    <clipPath id="clip-path-7">
      <rect id="Rectángulo_461769" data-name="Rectángulo 461769" width="14.625" height="12.128" fill="none"/>
    </clipPath>
  </defs>
  <g id="Grupo_1195830" data-name="Grupo 1195830" transform="translate(-319.711 -1786.5)">
    <g id="Grupo_1194787" data-name="Grupo 1194787" transform="translate(319.711 1786.5)">
      <g id="Grupo_1194786" data-name="Grupo 1194786" clip-path="url(#clip-path)">
        <g id="Grupo_1194785" data-name="Grupo 1194785">
          <g id="Grupo_1194784" data-name="Grupo 1194784" clip-path="url(#clip-path)">
            <path id="Trazado_1014691" data-name="Trazado 1014691" d="M583.8,21.993H469.628a8.109,8.109,0,0,1-8.109-8.109V8.109A8.109,8.109,0,0,1,469.628,0H583.8a8.109,8.109,0,0,1,8.109,8.109v5.775a8.109,8.109,0,0,1-8.109,8.109" transform="translate(34.099)" fill="#623f04"/>
            <path id="Trazado_1014692" data-name="Trazado 1014692" d="M525.271,634.526H519.79l-2.616-182.419h11.162Z" transform="translate(38.212 33.404)" fill="#623f04"/>
            <path id="Trazado_1014693" data-name="Trazado 1014693" d="M567.2,630.554h-5.481L529.6,505.864h11.162Z" transform="translate(39.13 37.376)" fill="#623f04"/>
            <path id="Trazado_1014694" data-name="Trazado 1014694" d="M479.844,630.554h5.481l32.113-124.69H506.277Z" transform="translate(35.453 37.376)" fill="#623f04"/>
            <path id="Trazado_1014695" data-name="Trazado 1014695" d="M547.089,508.684h-45.77a3.752,3.752,0,0,1-3.752-3.752V503.45a3.753,3.753,0,0,1,3.752-3.752h45.77a3.752,3.752,0,0,1,3.752,3.752v1.482a3.752,3.752,0,0,1-3.752,3.752" transform="translate(36.763 36.92)" fill="#2f4171"/>
            <path id="Trazado_1014696" data-name="Trazado 1014696" d="M547.089,456.909h-45.77a3.752,3.752,0,0,1-3.752-3.752v-1.482a3.753,3.753,0,0,1,3.752-3.752h45.77a3.752,3.752,0,0,1,3.752,3.752v1.482a3.752,3.752,0,0,1-3.752,3.752" transform="translate(36.763 33.095)" fill="#3d5891"/>
            <path id="Trazado_1014697" data-name="Trazado 1014697" d="M14.707,30.483l8.435,66.145H91.128l1.682,35,13.9-35h15.4l8.426-66.145Z" transform="translate(1.087 2.252)" fill="#fbd89d"/>
            <path id="Trazado_1014698" data-name="Trazado 1014698" d="M93.039,55.031a4.845,4.845,0,1,0,4.846,4.846,4.853,4.853,0,0,0-4.846-4.846" transform="translate(6.516 4.066)" fill="#fff"/>
            <path id="Trazado_1014699" data-name="Trazado 1014699" d="M69.1,55.031a4.845,4.845,0,1,0,4.84,4.846,4.854,4.854,0,0,0-4.84-4.846" transform="translate(4.747 4.066)" fill="#fff"/>
            <path id="Trazado_1014700" data-name="Trazado 1014700" d="M45.428,55.031a4.845,4.845,0,1,0,4.843,4.846,4.851,4.851,0,0,0-4.843-4.846" transform="translate(2.998 4.066)" fill="#fff"/>
            <path id="Trazado_1014701" data-name="Trazado 1014701" d="M900.6,484.208H198.8a48.428,48.428,0,0,1-48.428-48.428V61.241A48.428,48.428,0,0,1,198.8,12.813H900.6A48.428,48.428,0,0,1,949.03,61.241V435.78A48.428,48.428,0,0,1,900.6,484.208" transform="translate(11.11 0.947)" fill="#e0e8fc"/>
            <path id="Trazado_1014702" data-name="Trazado 1014702" d="M200.833,108.267S251.906,123.43,260.684,53.2l82.2,28.222s-17.556,120.21,13.566,119.412c0,0-15.162,39.9-14.364,70.225s16.759,120.5,10.375,147.632l-63.043,8.779H200.833Z" transform="translate(14.839 3.931)" fill="none" stroke="#575756" stroke-miterlimit="10" stroke-width="2.25"/>
            <line id="Línea_3593" data-name="Línea 3593" y1="154.453" transform="translate(249.986 191.782)" fill="none" stroke="#575756" stroke-miterlimit="10" stroke-width="2.25"/>
            <path id="Trazado_1014703" data-name="Trazado 1014703" d="M245.663,319.131l-12.047,20.863-12.048-20.863Z" transform="translate(16.371 23.579)" fill="#575756"/>
            <path id="Trazado_1014704" data-name="Trazado 1014704" d="M245.663,183.305l-12.047-20.863-12.048,20.863Z" transform="translate(16.371 12.002)" fill="#575756"/>
            <line id="Línea_3594" data-name="Línea 3594" y1="186.483" transform="translate(571.186 158.211)" fill="none" stroke="#575756" stroke-miterlimit="10" stroke-width="2.45"/>
            <path id="Trazado_1014705" data-name="Trazado 1014705" d="M545.909,317.4l-13.118,22.718L519.673,317.4Z" transform="translate(38.396 23.451)" fill="#575756"/>
            <path id="Trazado_1014706" data-name="Trazado 1014706" d="M545.909,152.463l-13.118-22.718-13.119,22.718Z" transform="translate(38.396 9.586)" fill="#575756"/>
            <path id="Trazado_1014707" data-name="Trazado 1014707" d="M283.812,414.186l-7.182-71.821,7.182-109.328,11.173,109.328Z" transform="translate(20.439 17.218)" fill="none" stroke="#575756" stroke-linejoin="round" stroke-width="2.25"/>
            <line id="Línea_3595" data-name="Línea 3595" y1="181.149" transform="translate(304.251 250.255)" fill="none" stroke="#575756" stroke-miterlimit="10" stroke-width="2.25"/>
            <path id="Trazado_1014708" data-name="Trazado 1014708" d="M464.1,71.039S460.91,90.99,543.9,89.393s76.609-18.354,76.609-18.354l50.275,18.446S653.231,197.924,687.545,209.1c0,0-20.747,38.3-13.565,100.549s15.96,100.55,7.98,121.3l-63.043,5.586H464.086l-67.815-10.374s2.394-61.448,7.182-82.994,10.374-101.348-7.182-134.864c0,0,31.92.8,11.97-115.711Z" transform="translate(29.279 5.249)" fill="none" stroke="#575756" stroke-linejoin="round" stroke-width="2.25"/>
            <path id="Trazado_1014709" data-name="Trazado 1014709" d="M460.148,202.57l7.98,136.461-8,87.781-10.358-87.781Z" transform="translate(33.232 14.967)" fill="none" stroke="#575756" stroke-linejoin="round" stroke-width="2.45"/>
            <line id="Línea_3596" data-name="Línea 3596" y1="224.242" x2="1.197" transform="translate(492.183 217.536)" fill="none" stroke="#575756" stroke-linejoin="round" stroke-width="2.848"/>
            <path id="Trazado_1014710" data-name="Trazado 1014710" d="M604.986,202.57l7.98,136.461-8,87.781-10.358-87.781Z" transform="translate(43.933 14.967)" fill="none" stroke="#575756" stroke-linejoin="round" stroke-width="2.45"/>
            <line id="Línea_3597" data-name="Línea 3597" y1="224.242" x2="1.197" transform="translate(647.722 217.536)" fill="none" stroke="#575756" stroke-linejoin="round" stroke-width="2.848"/>
            <path id="Trazado_1014711" data-name="Trazado 1014711" d="M746.212,414.625h69.427L853.944,255.82s-8.778,0-40.7-17.556-55.062-11.971-74.215,0-23.142,15.162-35.113,17.556Z" transform="translate(52.009 16.779)" fill="none" stroke="#575756" stroke-linejoin="round" stroke-width="2.848"/>
            <line id="Línea_3598" data-name="Línea 3598" y2="33.517" transform="translate(847.698 397.888)" fill="none" stroke="#575756" stroke-linejoin="round" stroke-width="2.848"/>
            <path id="Trazado_1014712" data-name="Trazado 1014712" d="M158.238,304.619c-6.828,2.221-25.241,6.688-29.542.388-3.082-4.514-48.323-53.347-48.323-53.347s13.13-6.441,22.779-12.367l5.492-2.535a6.728,6.728,0,0,1-2.186,4.914s21.671,33.859,37.476,41.7c0,0,1.2-.3,1.586.112.375.391-.7,2.025-.824,2.22l-.016.015s42.692-5.788,47.322-8.954c0,0,2.532-3.459,3.286-3.619s2.694,1.5,2.694,1.5l-1.04,1.051s-.953,2.1.154,6.831a5.856,5.856,0,0,1,2.721-.695s-.311,4.628-3.135,6.666-4.2.615-4.2.615-18.112,10.258-34.243,15.5" transform="translate(5.938 17.493)" fill="#2ed19b" fill-rule="evenodd"/>
            <path id="Trazado_1014713" data-name="Trazado 1014713" d="M226.546,292.556a4.54,4.54,0,0,0,.209-1.351c-6.369-10.723-8.3-7.726-11.192-10.668s-7.375-10.637-7.641-11.31c-.264-.691.562-1.328,1.45-1a14.761,14.761,0,0,1,2.375,2.272.1.1,0,0,1,.042.042c1.2,1.238,2.54,2.511,3.456,2.556,1.716.085,5.034-1.2,4.66-2.133s-6.178-2.2-7.791-3.694c-.433-.4-.935-1.014-1.52-1.68-1.564-1.806-3.726-4.014-6.848-3.61-4.279.537-6.821,8.267-13.086,10.576l6.149,5.762c2.554.506,7.534,5.61,11.678,9.7a.639.639,0,0,0,.105.111,1.2,1.2,0,0,0,.09.092,35.482,35.482,0,0,0,5.4,4.775c3.3,1.793,10.968,3.574,10.968,3.574l.314-.482.016,0c.206.013,2.309.212,2.228-.744a10.675,10.675,0,0,0-1.063-2.8" transform="translate(14.087 19.353)" fill="#f2979c"/>
            <path id="Trazado_1014714" data-name="Trazado 1014714" d="M191.209,279.51c2.342.025,13.307,4.423,17.451,8.515-1.428-1.547-10.355-11.131-10.011-11.69.38-.612,4.973-4.313,9.118-1.386,4.128,2.922,7.593,14.2,7.593,14.2,6.959.459,10.176,6.942,10.176,6.942l.016,0c.206.013,2.309.213,2.228-.743a10.661,10.661,0,0,0-1.063-2.8,4.546,4.546,0,0,0,.209-1.352c-6.369-10.723-8.3-7.727-11.192-10.669s-7.375-10.636-7.642-11.309c-.263-.691.563-1.327,1.451-1a14.76,14.76,0,0,1,2.375,2.272,2.849,2.849,0,0,0-.222-.241c-.766-.766,1.279-.565,1.287-2.312-3.986-5.164-5.944-6.37-9.066-5.968-4.279.538-6.821,8.267-13.086,10.577,0,0-5.839,6.883.377,6.949" transform="translate(13.916 19.351)" fill="#f5b0a6" fill-rule="evenodd"/>
            <path id="Trazado_1014715" data-name="Trazado 1014715" d="M192.076,271.122s-3.767,2.948-.724,8.194l-2.226.673s-2-3.666-.146-6.828a15.044,15.044,0,0,0,3.1-2.039" transform="translate(13.905 20.032)" fill="#f18a8b" fill-rule="evenodd"/>
            <g id="Grupo_1194771" data-name="Grupo 1194771" transform="translate(196.245 290.637)" opacity="0.34">
              <g id="Grupo_1194770" data-name="Grupo 1194770">
                <g id="Grupo_1194769" data-name="Grupo 1194769" clip-path="url(#clip-path-3)">
                  <path id="Trazado_1014716" data-name="Trazado 1014716" d="M187.723,270.641s-3.6,5.654-3.437,10.709,2.549,5.7,2.549,5.7a2.206,2.206,0,0,1-1.922-.437s-6.41-8.04,2.81-15.969" transform="translate(-182.743 -270.641)" fill="#40947e" fill-rule="evenodd"/>
                </g>
              </g>
            </g>
            <path id="Trazado_1014717" data-name="Trazado 1014717" d="M89.642,528.569s-1.147,25.987,0,40.893,13.3,40.365,15.825,44.035,17.429,12.614,17.659,13.99-32.108-1.147-32.108-1.147-4.357-11.008-11.927-18.347S66.02,596.067,66.02,596.067a76.878,76.878,0,0,1,9.633-15.6s3.21-5.733,2.063-18.346-4.357-21.788-7.11-39.218c0,0,13.3,2.381,19.037,5.663" transform="translate(4.878 38.635)" fill="#f5b0a6" fill-rule="evenodd"/>
            <path id="Trazado_1014718" data-name="Trazado 1014718" d="M26.52,541.185s-5.045,16.512-5.045,27.98,3.979,34.732,8.715,41.74c3.751,5.55,12.843,8.892,15.825,15.776,0,0-11.925,3.029-35.089-1.557,0,0-2.752-10.893-5.275-19.379s-4.358-16.168-4.358-16.168-.459-4.148,8.486-18.93c0,0,2.967-11.108.673-31.29Z" transform="translate(0.095 39.85)" fill="#f5b0a6" fill-rule="evenodd"/>
            <path id="Trazado_1014719" data-name="Trazado 1014719" d="M103.586,606.2s-6.661.236-13.886-5.956S75.653,576.51,75.653,576.51s-7,7.626-9.633,15.595l5.1,31.019h6.536l1.377-18.233s8.773,10.536,11.524,18.233c0,0,21.5,4.376,34.23.812,0,0-4.974-6.69-11.525-9.756-8.084-3.784-9.679-7.977-9.679-7.977" transform="translate(4.878 42.595)" fill="#623f04" fill-rule="evenodd"/>
            <path id="Trazado_1014720" data-name="Trazado 1014720" d="M7.374,621.542,2.3,620.894l-1.891-33.1L7.773,608.2Z" transform="translate(0.03 43.429)" fill-rule="evenodd"/>
            <path id="Trazado_1014721" data-name="Trazado 1014721" d="M30.787,608.91a13.3,13.3,0,0,1-15.581-3.432c-7.052-7.741-9.62-29.917-9.62-29.917s-4.829,8.589-5.518,11,3.957,14.276,6.02,22.36a116.838,116.838,0,0,1,2.752,14.106s30.446,6.956,39.045.984a61.813,61.813,0,0,0-17.1-15.1" transform="translate(0 42.525)" fill="#623f04" fill-rule="evenodd"/>
            <path id="Trazado_1014722" data-name="Trazado 1014722" d="M10.4,565.285c2.76,1.362,11.221,1.67,16.6,1.706,2.722,0,4.648-.036,4.648-.036s4.738-60.315,15.578-102.292,17.629-87.041,17.629-87.041l7.136-.8s7.153,79.76,7.371,88.257c.236,8.479-6.772,25.074-8.37,42.921-1.616,17.848,6.082,64.709,6.082,64.709l16.322,1.706s5.846-79.488,9.7-107.339c3.849-27.871,12.673-83.609,10.6-97.554a113.389,113.389,0,0,0-3.487-13.817c-.689-2.287-1.434-4.721-2.233-7.244-6.319-19.881-15.488-44.629-15.488-44.629-11.239-1.888-42.431-1.362-42.431-1.362s-5.137,7.481-11.256,18.084v.018c-1.489,2.577-3.033,5.355-4.576,8.26l-.508.944C26.944,342.617,20.352,357.65,19.1,369.524c-2.76,25.963,2.16,63.148,1.815,82.066s-5.846,36.457-9.985,50.22c-4.122,13.762-.527,63.474-.527,63.474" transform="translate(0.661 22.343)" fill="#284b89" fill-rule="evenodd"/>
            <path id="Trazado_1014723" data-name="Trazado 1014723" d="M72.365,140.352s21.455-1.365,29.864,11.758-4.9,26.226-6.191,31.178-21.365,5.407-14.662,20.1c1.536,3.366,11.172,10.569,11.172,10.569S74.9,216.962,70.61,208.891c-4.958-9.321-21.927,3.68-21.927,3.68S29.045,181.658,33.3,166.051s32.516-25.894,39.069-25.7" transform="translate(2.416 10.367)"/>
            <path id="Trazado_1014724" data-name="Trazado 1014724" d="M70.853,202.735s-.459,9.173,0,11.238,9.976,9.058,9.976,9.058-1.462,8.256-9.285,8.6-19.727-11.353-19.727-11.353,4.473-5.733,5.16-8.6-.917-17.66-.917-17.66Z" transform="translate(3.829 14.335)" fill="#f5b0a6" fill-rule="evenodd"/>
            <path id="Trazado_1014725" data-name="Trazado 1014725" d="M70.6,201.56l-.238,8.522s-9.031,2.361-13.646-5.1l-1-9.524Z" transform="translate(4.117 14.442)" fill="#f18a8b" fill-rule="evenodd"/>
            <path id="Trazado_1014726" data-name="Trazado 1014726" d="M10.4,565.285c2.76,1.362,11.221,1.67,16.6,1.706A662.74,662.74,0,0,1,39.725,458.943C52.58,395.216,62.619,371.46,62.619,371.46l25.76-9.632L71.989,376.823s7.153,79.76,7.371,88.257c.236,8.479-6.772,25.074-8.37,42.921-1.616,17.848,6.082,64.709,6.082,64.709l16.322,1.706s1.38-91.635,6.229-128.746c4.848-37.13,4.793-77.472,4.793-77.472l5.392-11.983.4-.508c-6.1-20.48-17.72-51.873-17.72-51.873-11.239-1.888-42.431-1.362-42.431-1.362S21.842,343.561,19.1,369.524c-2.76,25.963,2.16,63.148,1.815,82.066s-5.846,36.457-9.985,50.22c-4.122,13.762-.527,63.474-.527,63.474" transform="translate(0.661 22.343)" fill="#1e3a8a" fill-rule="evenodd"/>
            <path id="Trazado_1014727" data-name="Trazado 1014727" d="M46.072,283.649c1.942,11.747,1.942,15.378,1.942,15.378s-2.4.036-3.268,1.871c-.854,1.833,1.326,3.9,1.326,3.9a114.254,114.254,0,0,0,16.1,4.72,102.012,102.012,0,0,0,11.186,1.816c14.561,1.489,17.775-1.089,17.775-1.089a14.968,14.968,0,0,1-3.7-6.59,22.311,22.311,0,0,1-.888-4.631c-.692-7.752,5.7-26.8,5.7-26.8a9.438,9.438,0,0,0,1.216-.29h.055c2.38-.654,7.227-2.524,7.135-6.935-.108-5.847,13.182-8.135,13.182-8.135l-6.917-23.712s-21.171-11.383-24.275-14.47L80.7,219.83S79.66,227.4,72.67,228.2s-16-9.332-16.831-12.583H53.623a51.916,51.916,0,0,1-7.552,7.771c-5.448,4.812-18.7,7.566-18.7,7.566S25.079,255.264,40.714,261.5c2.435,8.987,4.612,17.648,5.358,22.151" transform="translate(2.014 15.931)" fill="#2ed19b" fill-rule="evenodd"/>
            <g id="Grupo_1194774" data-name="Grupo 1194774" transform="translate(42.728 267.205)" opacity="0.24">
              <g id="Grupo_1194773" data-name="Grupo 1194773">
                <g id="Grupo_1194772" data-name="Grupo 1194772" clip-path="url(#clip-path-4)">
                  <path id="Trazado_1014728" data-name="Trazado 1014728" d="M43.819,298.443c-.854,1.834,1.325,3.9,1.325,3.9a114.368,114.368,0,0,0,16.105,4.721l21.679-.709,3.577-5.156,3.413-4.921,2.669-26.8h-.054c-1.344.163-26.532,2.239-36.966-3.376-10.75-5.786-15.517-17.286-15.517-17.286l-.261,10.223c2.432,8.987,4.611,17.647,5.355,22.15,1.943,11.747,1.943,15.379,1.943,15.379s-2.4.035-3.268,1.87" transform="translate(-39.789 -248.821)" fill="#40947e" fill-rule="evenodd"/>
                </g>
              </g>
            </g>
            <path id="Trazado_1014729" data-name="Trazado 1014729" d="M156.529,244.453S120.307,232.82,90.008,232.1L79.57,291.019l47.966-46.312Z" transform="translate(5.879 17.148)" fill="#f2f2f2" fill-rule="evenodd"/>
            <path id="Trazado_1014730" data-name="Trazado 1014730" d="M157.451,244.363s-24.317,68.256-37.615,93.353c0,0-31.65,4.572-52.749-.871l29.241-103.53s35.892,3.9,61.123,11.048" transform="translate(4.957 17.239)" fill="#fff" fill-rule="evenodd"/>
            <path id="Trazado_1014731" data-name="Trazado 1014731" d="M144.362,276.523l-12.973,18.614-4.26-.893-9.746,22.488-5.244-2.469-1.87-12.295-30.54-7.724-6.142,16.391-6.5,23.019s28.446,5.42,52.749.871c0,0,22.316-52.184,24.525-58" transform="translate(4.957 20.431)" fill="#f2f2f2" fill-rule="evenodd"/>
            <path id="Trazado_1014732" data-name="Trazado 1014732" d="M60.683,293.86c2.091.047-2.064,16.168-2.064,16.168H54.433v-7.688l2.7-6.145s-1.549-2.451,3.555-2.336" transform="translate(4.022 21.712)" fill="#40947e" fill-rule="evenodd"/>
            <path id="Trazado_1014733" data-name="Trazado 1014733" d="M51.928,310.52s10.549-5.5,12.836-5.374c2.124.108,17.793,10.984,22.624,13.362a9.218,9.218,0,0,0,.943.4,56.8,56.8,0,0,0,9.46,1.961,1.539,1.539,0,0,0,1.125-.944c-.871-2.487-7.226-3.432-7.226-3.432a46.762,46.762,0,0,1-5.682-3.794,69.879,69.879,0,0,0,11.783,2.415c6.282.689,11,1.034,11.692.436a1.981,1.981,0,0,0,.691-1.381,18.845,18.845,0,0,0,3.086,0c.689-.163.436-1.725-.762-3.268s-3.614-2.76-10.241-5.156A42.262,42.262,0,0,1,91.6,300.152s7.389,1.453,13.163,2.415c5.756.944,8.08,1.8,8.426,1.289.345-.526-.256-3.541-5.992-5.139s-8.606-.689-14-3.1a43.7,43.7,0,0,1-11.584-7.97c-.218-.255-.326-.4-.326-.4a1.573,1.573,0,0,1-.473-.907,8.945,8.945,0,0,1,1.6-3.208l.948-5.349s-9.191,2.13-10.789,3.4c-1.616,1.253-3.1,8.135-7.226,12.491-4.14,4.358-10.331,5.047-10.331,5.047-2.4,2.978-3.086,11.8-3.086,11.8" transform="translate(3.837 20.524)" fill="#f5b0a6" fill-rule="evenodd"/>
            <path id="Trazado_1014734" data-name="Trazado 1014734" d="M2.694,323.7c0,.49.854,1.58,2.615,2.814a29.456,29.456,0,0,0,12.418,4.521c10.313,1.616,30.721-1.6,31.865-3.559,1.161-1.942,4.485-10.548,4.485-10.548a16.092,16.092,0,0,0,4.7-.546.136.136,0,0,1,.055-.018,10.873,10.873,0,0,0,3.611-1.615h-1.38A20.066,20.066,0,0,1,61.52,299.5l2.978-.907a16.637,16.637,0,0,0-6.754,0l-1.38,1.833-.491-.8-.435-.689s-3.667,2.868-11,3.849c-3.921.526-7.951.762-10.839.872-2.5.09-4.176.09-4.176.09s1.6-4.122.8-4.594c-.8-.453-4.012,1.38-4.012,1.38,5.446-15.468,17.7-30.629,19.754-33.153a1.515,1.515,0,0,1,.163-.181.766.766,0,0,1,.127-.127.194.194,0,0,1,.037-.055c-.256-21.605-17.1-37.117-17.1-37.117-3.794,1.87-11.6,30.272-17.629,45.578-8.862,22.5-8.862,47.079-8.862,48.223" transform="translate(0.199 16.986)" fill="#2ed19b" fill-rule="evenodd"/>
            <g id="Grupo_1194777" data-name="Grupo 1194777" transform="translate(2.894 284.364)" opacity="0.24">
              <g id="Grupo_1194776" data-name="Grupo 1194776">
                <g id="Grupo_1194775" data-name="Grupo 1194775" clip-path="url(#clip-path-5)">
                  <path id="Trazado_1014735" data-name="Trazado 1014735" d="M2.694,321.12l2.615,2.814a29.456,29.456,0,0,0,12.418,4.521c10.313,1.616,30.721-1.6,31.865-3.559,1.161-1.942,4.485-10.548,4.485-10.548a18.764,18.764,0,0,0,2.3-.091,3.3,3.3,0,0,1-2.2-.817c-1.727-1.615,1.687-16.4,1.687-16.4A71.53,71.53,0,0,0,50.518,309.5c-1.489,5.43-3.324,7.5-3.324,7.5s-15.595,2.287-21.441-.926l7.843-15c-2.5.09-4.176.09-4.176.09s1.6-4.122.8-4.594c-.8-.453-4.012,1.38-4.012,1.38,5.446-15.468,17.7-30.629,19.754-33.153-2.052,2.089-13.55,18.264-20.56,29.466C17.651,306.648,2.694,321.12,2.694,321.12" transform="translate(-2.695 -264.799)" fill="#40947e" fill-rule="evenodd"/>
                </g>
              </g>
            </g>
            <path id="Trazado_1014736" data-name="Trazado 1014736" d="M88.572,561.636,76.7,557.325l-.362-2.8,12.08,1.261Z" transform="translate(5.64 40.972)" fill="#f18a8b" fill-rule="evenodd"/>
            <path id="Trazado_1014737" data-name="Trazado 1014737" d="M21.885,557.572l-11.261-6.755-.316-3.616,13.359,1.642Z" transform="translate(0.762 40.43)" fill="#f18a8b" fill-rule="evenodd"/>
            <g id="Grupo_1194780" data-name="Grupo 1194780" transform="translate(29.738 485.285)" opacity="0.57" style="mix-blend-mode: multiply;isolation: isolate">
              <g id="Grupo_1194779" data-name="Grupo 1194779">
                <g id="Grupo_1194778" data-name="Grupo 1194778" clip-path="url(#clip-path-6)">
                  <path id="Trazado_1014738" data-name="Trazado 1014738" d="M44.063,453.273A23.266,23.266,0,0,1,27.692,451.9s4.337,12.384,8.185,12.384,8.186-11.008,8.186-11.008" transform="translate(-27.692 -451.897)" fill="#fff" fill-rule="evenodd"/>
                </g>
              </g>
            </g>
            <g id="Grupo_1194783" data-name="Grupo 1194783" transform="translate(88.095 497.67)" opacity="0.57" style="mix-blend-mode: multiply;isolation: isolate">
              <g id="Grupo_1194782" data-name="Grupo 1194782">
                <g id="Grupo_1194781" data-name="Grupo 1194781" clip-path="url(#clip-path-7)">
                  <path id="Trazado_1014739" data-name="Trazado 1014739" d="M96.658,463.429s-2.358,2.752-14.625,0c0,0,4.456,10.986,8.837,12.065s5.788-12.065,5.788-12.065" transform="translate(-82.034 -463.429)" fill="#fff" fill-rule="evenodd"/>
                </g>
              </g>
            </g>
            <path id="Trazado_1014740" data-name="Trazado 1014740" d="M107.66,312.145s-12.384-3.527-14.449-4.329-7.224-2.634-7.224-2.634a46.184,46.184,0,0,0,7.224,3.482c4.129,1.56,14.449,3.482,14.449,3.482" transform="translate(6.353 22.548)" fill="#fff" fill-rule="evenodd"/>
            <path id="Trazado_1014741" data-name="Trazado 1014741" d="M89.212,294.373s1.217,2.36.436,4.194c-.781,1.852-.418,4.631-1.471,6.41-1.052,1.8-1.706,1.543-1.706,1.543a17.7,17.7,0,0,1-1.889,4.012l-1.052,1.416s2.85,3.014,2.505,4.03c-.181.546-.454,1.29-.689,1.852a9.481,9.481,0,0,0,.944.4,56.906,56.906,0,0,0,9.46,1.961,1.544,1.544,0,0,0,1.125-.945c-.872-2.487-7.226-3.431-7.226-3.431a46.841,46.841,0,0,1-5.683-3.794,69.847,69.847,0,0,0,11.784,2.414c6.281.69,11,1.035,11.692.436a1.981,1.981,0,0,0,.689-1.38,18.978,18.978,0,0,0,3.087,0c.689-.163.435-1.725-.764-3.268s-3.613-2.76-10.239-5.157a42.237,42.237,0,0,1-10.658-5.592s7.389,1.452,13.164,2.414c5.755.945,8.08,1.8,8.425,1.29.345-.526-.255-3.541-5.992-5.139s-8.606-.689-14-3.1a43.72,43.72,0,0,1-11.584-7.97,31.945,31.945,0,0,0,9.641,7.408" transform="translate(5.879 21.202)" fill="#f2979c" fill-rule="evenodd"/>
            <path id="Trazado_1014742" data-name="Trazado 1014742" d="M88.009,185.646s2.216,5.843,7.76,5.393l.855-6.53Z" transform="translate(6.503 13.632)" fill="#f18a8b"/>
            <path id="Trazado_1014743" data-name="Trazado 1014743" d="M72.666,144.88c13.712-.756,18.163,9.791,19.029,14.507.738,4.016-.1,8.18,1.884,12.1s9,5.168,9.8,6.216-.891,4.14-2.269,4.849a19.325,19.325,0,0,0,.23,4.888l-8.615,1.137s2.216,5.843,7.761,5.393l-.976,1.2a22.036,22.036,0,0,0-1.527,5.34c-.447,2.986-2.675,6.572-12.284,7.178-9.188.58-27.5-2.774-32.888-10.5s-16.728-24.3-8.9-36.107,25.988-16.059,28.76-16.21" transform="translate(3.047 10.702)" fill="#f5b0a6"/>
            <path id="Trazado_1014744" data-name="Trazado 1014744" d="M93.835,180.711s1.055-1.686,2.089-1.021a7.857,7.857,0,0,1-2.089,1.021" transform="translate(6.933 13.265)" fill="#f18a8b" fill-rule="evenodd"/>
            <path id="Trazado_1014745" data-name="Trazado 1014745" d="M85.657,172.947c.25,2.02-.221,3.74-1.052,3.843s-1.706-1.452-1.957-3.472.221-3.74,1.052-3.842,1.706,1.451,1.957,3.471" transform="translate(6.102 12.521)"/>
            <path id="Trazado_1014746" data-name="Trazado 1014746" d="M74.865,173.133s.519-6.584,7.988-9.85l2.451,4.294s-2.014-.332-10.438,5.555" transform="translate(5.531 12.064)" fill="#f18a8b"/>
            <path id="Trazado_1014747" data-name="Trazado 1014747" d="M74.865,172.909s6.442-4.562,10.673-5.161l1.564-1.439s-4.666.861-12.237,6.6" transform="translate(5.531 12.288)"/>
            <path id="Trazado_1014748" data-name="Trazado 1014748" d="M86.061,157.454s-.668,2.817-2.151,4c0,0-5.462.827-7.143,2.339S70.7,168.4,70.7,168.4s3.523-3.4,5.527-5.775,8.706-4.25,9.832-5.174" transform="translate(5.224 11.634)"/>
            <path id="Trazado_1014749" data-name="Trazado 1014749" d="M98.97,179.311a34.75,34.75,0,0,0,1.756-24.443c-4.1-13.3-11.2-16.016-15.882-14.9,0,0-3.451,14.417-11.2,23.9-1.913,2.34-3.629,4.194-5.189,5.812-4.838,4.974-8.154,7.608-10.572,14.3-1.191,3.277-1.015,8.33.272,13.616,2.185,8.954,7.628,18.533,15.119,20.892,0,0-23.33-1.754-31.95-11.625v1.971s-11.1-3.57-15.411-14.767a11.848,11.848,0,0,1-8.74-2.263S27.5,194,32.469,188.421a9.692,9.692,0,0,0,1.464-2.243c3.822-8.095-9.169-18.883-4.8-27.953a.151.151,0,0,0,.019-.059,9.822,9.822,0,0,1,.488-.877c5.794-9.227,20.562-24.638,45.685-22.511,7.3.624,20.7-2.556,28.833,3.218,8.135,5.793,2.829,33.123-5.189,41.316" transform="translate(1.269 9.934)"/>
            <path id="Trazado_1014750" data-name="Trazado 1014750" d="M51.125,170.522a75.841,75.841,0,0,0-1.045,9.757s-4.079-3.366-5.232-6.044,3.835-6.7,3.835-6.7Z" transform="translate(3.301 12.378)" fill="#fff"/>
            <path id="Trazado_1014751" data-name="Trazado 1014751" d="M68.569,139.761s22.547-6.529,32.526,1.355-5.914,38-5.914,38,5.98-14.161.158-25.989S73.744,138.9,68.569,139.761" transform="translate(5.066 10.139)"/>
            <path id="Trazado_1014752" data-name="Trazado 1014752" d="M56.768,140.732s-7.127,4.806-6.666,6.378,19.776,3.6,22.547,2.494a35.019,35.019,0,0,0,6.7-4.277s-6.289,7.066-9.555,9.17a10.977,10.977,0,0,0,1.47-2.167c0-.368-22.871-1.247-24.443-.645a47.111,47.111,0,0,0-4.855,2.56s6.92-9.762,14.8-13.512" transform="translate(3.101 10.398)" fill="#080808"/>
            <path id="Trazado_1014753" data-name="Trazado 1014753" d="M83.155,139.586a122.631,122.631,0,0,1-7.1,13.676c-2.937,4.734-10.008,9.329-16.583,13.82l9.36-6.6c-.728.379-10.876,5.628-18.44,7.219,2.671-1.256,6.341-2.984,11.449-5.812,14.908-8.255,20.476-20.446,20.476-20.446s-7.662,13.663-23,18.535c-9.656,3.068-14.688,5.438-17.091,6.773-3.421-2.718-2.416-8.318-2.3-8.9-2.468,5.122.6,10.793,3.052,16.216l.035.081h0c1.873,4.152,3.366,8.157,1.712,11.659a9.715,9.715,0,0,1-1.464,2.243,34.74,34.74,0,0,0,4.365,4.1c.286,1.566.634,3.262,1.035,5.11,3.223,14.81,22.917,20.853,22.917,20.853s-13.947-10-15.232-20.94l.12.049c-.068-.279-.131-.557-.192-.834l0-.046c-.645-11.264,9.639-24.218,17.214-33.828s9.672-22.916,9.672-22.916" transform="translate(2.882 10.313)" fill="#080808"/>
            <path id="Trazado_1014754" data-name="Trazado 1014754" d="M17.175,188.861s6.917,1.744,12.342-2.545,3.807-12.134,3.807-12.134,2.694,4.96.616,9.8-11.439,6.773-16.765,4.878" transform="translate(1.269 12.869)" fill="#676767" fill-rule="evenodd"/>
            <path id="Trazado_1014755" data-name="Trazado 1014755" d="M58.8,190.5s-1.841,1.552-3.65.915-5.19-5.857-6.383-9.217-1.252-8.767-.891-9.579,2.814-2.947,5.034-2.475c1.7.362,5.029,2.891,6.728,7.756s-.838,12.6-.838,12.6" transform="translate(3.523 12.566)" fill="#f5b0a6"/>
            <path id="Trazado_1014756" data-name="Trazado 1014756" d="M58.73,183.208s-1.661-4.887-3.375-6.835-5.8-4.211-6.259-4.148-.828,3.758-.353,7.062a11.233,11.233,0,0,0,2.513,5.512,5.768,5.768,0,0,1-.972-3.948,12.841,12.841,0,0,1,1.479-4.89l1.52.766s-1.175,4.574-.615,6.468a3.253,3.253,0,0,0,3.339,2.1c.391-.2.122-1.783.415-2.259s1.72-.493,2.31.171" transform="translate(3.585 12.725)" fill="#f18a8b"/>
          </g>
        </g>
      </g>
    </g>
    <path id="Trazado_1016881" data-name="Trazado 1016881" d="M1.32,0V-11.375H4.531a5.169,5.169,0,0,1,2.625.656A4.438,4.438,0,0,1,8.918-8.852,6.078,6.078,0,0,1,9.547-6.07v.727a6.1,6.1,0,0,1-.621,2.82A4.369,4.369,0,0,1,7.152-.664,5.5,5.5,0,0,1,4.469,0Zm1.5-10.148v8.922H4.4A3.434,3.434,0,0,0,7.1-2.306a4.458,4.458,0,0,0,.965-3.073v-.665a4.529,4.529,0,0,0-.91-3.014A3.239,3.239,0,0,0,4.57-10.148ZM15.094.156A3.693,3.693,0,0,1,12.3-.973a4.19,4.19,0,0,1-1.078-3.02v-.266A5.073,5.073,0,0,1,11.7-6.5a3.748,3.748,0,0,1,1.344-1.547,3.378,3.378,0,0,1,1.871-.559,3.166,3.166,0,0,1,2.563,1.086,4.7,4.7,0,0,1,.914,3.109v.6H12.664a3,3,0,0,0,.73,2.02,2.3,2.3,0,0,0,1.777.77,2.517,2.517,0,0,0,1.3-.312,3.259,3.259,0,0,0,.93-.828l.883.688A3.55,3.55,0,0,1,15.094.156Zm-.18-7.578a1.928,1.928,0,0,0-1.469.637A3.1,3.1,0,0,0,12.711-5h4.234v-.109a2.753,2.753,0,0,0-.594-1.707A1.815,1.815,0,0,0,14.914-7.422ZM21.633,0H20.188V-12h1.445Zm7.531,0a3.036,3.036,0,0,1-.2-.891A3.225,3.225,0,0,1,26.555.156,2.984,2.984,0,0,1,24.5-.551a2.287,2.287,0,0,1-.8-1.793,2.39,2.39,0,0,1,1-2.051,4.733,4.733,0,0,1,2.824-.73h1.406v-.664A1.623,1.623,0,0,0,28.484-7a1.821,1.821,0,0,0-1.336-.449,2.108,2.108,0,0,0-1.3.391,1.151,1.151,0,0,0-.523.945H23.875a2,2,0,0,1,.449-1.223,3.066,3.066,0,0,1,1.219-.934,4.1,4.1,0,0,1,1.691-.344,3.342,3.342,0,0,1,2.289.73,2.635,2.635,0,0,1,.859,2.012v3.891a4.757,4.757,0,0,0,.3,1.852V0Zm-2.4-1.1a2.54,2.54,0,0,0,1.289-.352,2.127,2.127,0,0,0,.883-.914V-4.1H27.8q-2.656,0-2.656,1.555A1.316,1.316,0,0,0,25.6-1.484,1.742,1.742,0,0,0,26.766-1.1Zm7.25-7.352.047,1.063a3.08,3.08,0,0,1,2.531-1.219q2.68,0,2.7,3.023V0H37.852V-5.594a1.946,1.946,0,0,0-.418-1.352,1.675,1.675,0,0,0-1.277-.437,2.086,2.086,0,0,0-1.234.375,2.546,2.546,0,0,0-.828.984V0H32.648V-8.453ZM43.438-10.5v2.047h1.578v1.117H43.438v5.249a1.173,1.173,0,0,0,.211.763.888.888,0,0,0,.719.254,3.5,3.5,0,0,0,.688-.094V0a4.215,4.215,0,0,1-1.109.155A1.8,1.8,0,0,1,42.484-.43a2.517,2.517,0,0,1-.492-1.664V-7.336H40.453V-8.453h1.539V-10.5ZM50.211.156a3.693,3.693,0,0,1-2.8-1.129,4.19,4.19,0,0,1-1.078-3.02v-.266a5.073,5.073,0,0,1,.48-2.246A3.748,3.748,0,0,1,48.16-8.051a3.378,3.378,0,0,1,1.871-.559,3.166,3.166,0,0,1,2.563,1.086,4.7,4.7,0,0,1,.914,3.109v.6H47.781a3,3,0,0,0,.73,2.02,2.3,2.3,0,0,0,1.777.77,2.517,2.517,0,0,0,1.3-.312,3.259,3.259,0,0,0,.93-.828l.883.688A3.55,3.55,0,0,1,50.211.156Zm-.18-7.578a1.928,1.928,0,0,0-1.469.637A3.1,3.1,0,0,0,47.828-5h4.234v-.109a2.753,2.753,0,0,0-.594-1.707A1.815,1.815,0,0,0,50.031-7.422Zm9.234.266a4.331,4.331,0,0,0-.711-.055A1.9,1.9,0,0,0,56.625-6V0H55.18V-8.453h1.406l.023.977a2.251,2.251,0,0,1,2.016-1.133,1.477,1.477,0,0,1,.641.109ZM60.055-4.3a4.993,4.993,0,0,1,.488-2.234A3.643,3.643,0,0,1,61.9-8.07a3.7,3.7,0,0,1,1.988-.539,3.565,3.565,0,0,1,2.793,1.2,4.6,4.6,0,0,1,1.066,3.18v.1a5.036,5.036,0,0,1-.473,2.215A3.589,3.589,0,0,1,65.926-.391a3.743,3.743,0,0,1-2.02.547,3.556,3.556,0,0,1-2.785-1.2A4.575,4.575,0,0,1,60.055-4.2Zm1.453.172a3.616,3.616,0,0,0,.652,2.258,2.088,2.088,0,0,0,1.746.852,2.075,2.075,0,0,0,1.75-.863A3.955,3.955,0,0,0,66.3-4.3a3.61,3.61,0,0,0-.66-2.254,2.1,2.1,0,0,0-1.754-.863,2.075,2.075,0,0,0-1.727.852A3.925,3.925,0,0,0,61.508-4.133ZM5.18,10.844a4.331,4.331,0,0,0-.711-.055A1.9,1.9,0,0,0,2.539,12v6H1.094V9.547H2.5l.023.977A2.251,2.251,0,0,1,4.539,9.391,1.477,1.477,0,0,1,5.18,9.5Zm4.836,7.313a3.693,3.693,0,0,1-2.8-1.129,4.19,4.19,0,0,1-1.078-3.02v-.266a5.073,5.073,0,0,1,.48-2.246A3.748,3.748,0,0,1,7.965,9.949a3.378,3.378,0,0,1,1.871-.559A3.166,3.166,0,0,1,12.4,10.477a4.7,4.7,0,0,1,.914,3.109v.6H7.586a3,3,0,0,0,.73,2.02,2.3,2.3,0,0,0,1.777.77,2.517,2.517,0,0,0,1.3-.312,3.259,3.259,0,0,0,.93-.828l.883.688A3.55,3.55,0,0,1,10.016,18.156Zm-.18-7.578a1.928,1.928,0,0,0-1.469.637A3.1,3.1,0,0,0,7.633,13h4.234v-.109a2.753,2.753,0,0,0-.594-1.707A1.815,1.815,0,0,0,9.836,10.578ZM15.7,18V10.664H14.359V9.547H15.7V8.68a2.878,2.878,0,0,1,.727-2.1,2.745,2.745,0,0,1,2.055-.742,3.816,3.816,0,0,1,.992.132l-.078,1.165a4.151,4.151,0,0,0-.781-.07,1.41,1.41,0,0,0-1.086.411,1.669,1.669,0,0,0-.383,1.18v.893h1.8v1.117h-1.8V18Zm8.352.156a3.693,3.693,0,0,1-2.8-1.129,4.19,4.19,0,0,1-1.078-3.02v-.266a5.073,5.073,0,0,1,.48-2.246A3.748,3.748,0,0,1,22,9.949a3.378,3.378,0,0,1,1.871-.559,3.166,3.166,0,0,1,2.563,1.086,4.7,4.7,0,0,1,.914,3.109v.6H21.617a3,3,0,0,0,.73,2.02,2.3,2.3,0,0,0,1.777.77,2.517,2.517,0,0,0,1.3-.312,3.259,3.259,0,0,0,.93-.828l.883.688A3.55,3.55,0,0,1,24.047,18.156Zm-.18-7.578a1.928,1.928,0,0,0-1.469.637A3.1,3.1,0,0,0,21.664,13H25.9v-.109a2.753,2.753,0,0,0-.594-1.707A1.815,1.815,0,0,0,23.867,10.578Zm9.234.266a4.331,4.331,0,0,0-.711-.055A1.9,1.9,0,0,0,30.461,12v6H29.016V9.547h1.406l.023.977a2.251,2.251,0,0,1,2.016-1.133A1.477,1.477,0,0,1,33.1,9.5Zm4.836,7.313a3.693,3.693,0,0,1-2.8-1.129,4.19,4.19,0,0,1-1.078-3.02v-.266a5.073,5.073,0,0,1,.48-2.246,3.748,3.748,0,0,1,1.344-1.547,3.378,3.378,0,0,1,1.871-.559,3.166,3.166,0,0,1,2.563,1.086,4.7,4.7,0,0,1,.914,3.109v.6H35.508a3,3,0,0,0,.73,2.02,2.3,2.3,0,0,0,1.777.77,2.517,2.517,0,0,0,1.3-.312,3.259,3.259,0,0,0,.93-.828l.883.688A3.55,3.55,0,0,1,37.938,18.156Zm-.18-7.578a1.928,1.928,0,0,0-1.469.637A3.1,3.1,0,0,0,35.555,13h4.234v-.109a2.753,2.753,0,0,0-.594-1.707A1.815,1.815,0,0,0,37.758,10.578Zm6.516-1.031.047,1.063a3.08,3.08,0,0,1,2.531-1.219q2.68,0,2.7,3.023V18H48.109V12.406a1.946,1.946,0,0,0-.418-1.352,1.675,1.675,0,0,0-1.277-.437,2.086,2.086,0,0,0-1.234.375,2.546,2.546,0,0,0-.828.984V18H42.906V9.547Zm10.852,7.43a2.082,2.082,0,0,0,1.352-.469,1.649,1.649,0,0,0,.641-1.172h1.367a2.621,2.621,0,0,1-.5,1.383,3.293,3.293,0,0,1-1.23,1.047,3.55,3.55,0,0,1-1.629.391A3.482,3.482,0,0,1,52.379,17a4.59,4.59,0,0,1-1.02-3.152v-.242a5.089,5.089,0,0,1,.453-2.2,3.451,3.451,0,0,1,1.3-1.492,3.7,3.7,0,0,1,2-.531,3.39,3.39,0,0,1,2.363.852,3.043,3.043,0,0,1,1,2.211H57.117a1.992,1.992,0,0,0-.621-1.348,1.932,1.932,0,0,0-1.379-.527,2.023,2.023,0,0,0-1.707.793,3.724,3.724,0,0,0-.605,2.293v.273a3.65,3.65,0,0,0,.6,2.25A2.033,2.033,0,0,0,55.125,16.977ZM61.68,18H60.234V9.547H61.68ZM60.117,7.3a.863.863,0,0,1,.215-.594.807.807,0,0,1,.637-.242.819.819,0,0,1,.641.242.854.854,0,0,1,.219.594.826.826,0,0,1-.219.586.834.834,0,0,1-.641.234.821.821,0,0,1-.637-.234A.834.834,0,0,1,60.117,7.3ZM69.211,18a3.036,3.036,0,0,1-.2-.891A3.225,3.225,0,0,1,66.6,18.156a2.984,2.984,0,0,1-2.051-.707,2.288,2.288,0,0,1-.8-1.793,2.39,2.39,0,0,1,1-2.051,4.733,4.733,0,0,1,2.824-.73h1.406v-.664A1.623,1.623,0,0,0,68.531,11a1.821,1.821,0,0,0-1.336-.449,2.108,2.108,0,0,0-1.3.391,1.151,1.151,0,0,0-.523.945H63.922a2,2,0,0,1,.449-1.223,3.066,3.066,0,0,1,1.219-.934,4.1,4.1,0,0,1,1.691-.344,3.342,3.342,0,0,1,2.289.73,2.635,2.635,0,0,1,.859,2.012v3.891a4.757,4.757,0,0,0,.3,1.852V18Zm-2.4-1.1a2.54,2.54,0,0,0,1.289-.352,2.127,2.127,0,0,0,.883-.914V13.9H67.852q-2.656,0-2.656,1.555a1.316,1.316,0,0,0,.453,1.063A1.742,1.742,0,0,0,66.813,16.9ZM8.078,31.148a6.61,6.61,0,0,1-.867,3.773A3.084,3.084,0,0,1,4.5,36.156a3.107,3.107,0,0,1-2.7-1.207A6.274,6.274,0,0,1,.9,31.344v-1.93a6.463,6.463,0,0,1,.867-3.727,3.108,3.108,0,0,1,2.719-1.219,3.136,3.136,0,0,1,2.7,1.176,6.237,6.237,0,0,1,.891,3.629ZM6.633,29.172A5.3,5.3,0,0,0,6.117,26.5a1.775,1.775,0,0,0-1.633-.84,1.751,1.751,0,0,0-1.617.836,5.171,5.171,0,0,0-.523,2.57v2.313A5.381,5.381,0,0,0,2.879,34.1a1.771,1.771,0,0,0,1.621.879,1.747,1.747,0,0,0,1.59-.828,5.186,5.186,0,0,0,.543-2.609ZM17.383,36H9.93V34.961l3.938-4.375a9.355,9.355,0,0,0,1.207-1.613,2.693,2.693,0,0,0,.332-1.285,2.041,2.041,0,0,0-.539-1.461,1.885,1.885,0,0,0-1.437-.57,2.232,2.232,0,0,0-1.676.613,2.343,2.343,0,0,0-.6,1.707H9.711a3.355,3.355,0,0,1,1.012-2.539,3.751,3.751,0,0,1,2.707-.969,3.6,3.6,0,0,1,2.508.832,2.838,2.838,0,0,1,.922,2.215q0,1.68-2.141,4l-3.047,3.3h5.711Zm8.648-4.242H22.219v-1.18h3.813ZM36,36H34.547V26.367l-2.914,1.07V26.125l4.141-1.555H36Zm11.367-4.852a6.61,6.61,0,0,1-.867,3.773,3.084,3.084,0,0,1-2.711,1.234,3.107,3.107,0,0,1-2.7-1.207,6.274,6.274,0,0,1-.906-3.605v-1.93a6.463,6.463,0,0,1,.867-3.727,3.108,3.108,0,0,1,2.719-1.219,3.136,3.136,0,0,1,2.7,1.176,6.237,6.237,0,0,1,.891,3.629Zm-1.445-1.977a5.3,5.3,0,0,0-.516-2.676,1.775,1.775,0,0,0-1.633-.84,1.751,1.751,0,0,0-1.617.836,5.171,5.171,0,0,0-.523,2.57v2.313a5.381,5.381,0,0,0,.535,2.723,1.771,1.771,0,0,0,1.621.879,1.747,1.747,0,0,0,1.59-.828,5.186,5.186,0,0,0,.543-2.609ZM56.672,36H49.219V34.961l3.938-4.375a9.355,9.355,0,0,0,1.207-1.613,2.693,2.693,0,0,0,.332-1.285,2.041,2.041,0,0,0-.539-1.461,1.885,1.885,0,0,0-1.437-.57,2.232,2.232,0,0,0-1.676.613,2.343,2.343,0,0,0-.6,1.707H49a3.355,3.355,0,0,1,1.012-2.539,3.751,3.751,0,0,1,2.707-.969,3.6,3.6,0,0,1,2.508.832,2.838,2.838,0,0,1,.922,2.215q0,1.68-2.141,4l-3.047,3.3h5.711ZM3.055,43.5v2.047H4.633v1.117H3.055v5.249a1.173,1.173,0,0,0,.211.763.888.888,0,0,0,.719.254,3.5,3.5,0,0,0,.688-.094V54a4.215,4.215,0,0,1-1.109.155A1.8,1.8,0,0,1,2.1,53.57a2.517,2.517,0,0,1-.492-1.664V46.664H.07V45.547H1.609V43.5ZM11.539,54a3.036,3.036,0,0,1-.2-.891A3.225,3.225,0,0,1,8.93,54.156a2.984,2.984,0,0,1-2.051-.707,2.287,2.287,0,0,1-.8-1.793,2.39,2.39,0,0,1,1-2.051,4.733,4.733,0,0,1,2.824-.73h1.406v-.664A1.623,1.623,0,0,0,10.859,47a1.821,1.821,0,0,0-1.336-.449,2.107,2.107,0,0,0-1.3.391,1.151,1.151,0,0,0-.523.945H6.25A2,2,0,0,1,6.7,46.668a3.066,3.066,0,0,1,1.219-.934,4.1,4.1,0,0,1,1.691-.344,3.342,3.342,0,0,1,2.289.73,2.635,2.635,0,0,1,.859,2.012v3.891a4.757,4.757,0,0,0,.3,1.852V54Zm-2.4-1.1a2.54,2.54,0,0,0,1.289-.352,2.127,2.127,0,0,0,.883-.914V49.9H10.18q-2.656,0-2.656,1.555a1.316,1.316,0,0,0,.453,1.063A1.742,1.742,0,0,0,9.141,52.9ZM16.594,54H15.148V42h1.445Zm3.883,0H19.031V42h1.445Zm7.531,0a3.036,3.036,0,0,1-.2-.891A3.225,3.225,0,0,1,25.4,54.156a2.984,2.984,0,0,1-2.051-.707,2.287,2.287,0,0,1-.8-1.793,2.39,2.39,0,0,1,1-2.051,4.733,4.733,0,0,1,2.824-.73h1.406v-.664A1.623,1.623,0,0,0,27.328,47a1.821,1.821,0,0,0-1.336-.449,2.107,2.107,0,0,0-1.3.391,1.151,1.151,0,0,0-.523.945H22.719a2,2,0,0,1,.449-1.223,3.066,3.066,0,0,1,1.219-.934,4.1,4.1,0,0,1,1.691-.344,3.342,3.342,0,0,1,2.289.73,2.635,2.635,0,0,1,.859,2.012v3.891a4.757,4.757,0,0,0,.3,1.852V54Zm-2.4-1.1a2.54,2.54,0,0,0,1.289-.352,2.127,2.127,0,0,0,.883-.914V49.9H26.648q-2.656,0-2.656,1.555a1.316,1.316,0,0,0,.453,1.063A1.742,1.742,0,0,0,25.609,52.9ZM40.055,54H38.6V44.367l-2.914,1.07V44.125l4.141-1.555h.227Zm11.367-4.852a6.61,6.61,0,0,1-.867,3.773,3.6,3.6,0,0,1-5.406.027,6.274,6.274,0,0,1-.906-3.605v-1.93a6.463,6.463,0,0,1,.867-3.727,3.108,3.108,0,0,1,2.719-1.219,3.136,3.136,0,0,1,2.7,1.176,6.237,6.237,0,0,1,.891,3.629Zm-1.445-1.977a5.3,5.3,0,0,0-.516-2.676,1.775,1.775,0,0,0-1.633-.84,1.751,1.751,0,0,0-1.617.836,5.171,5.171,0,0,0-.523,2.57v2.313a5.381,5.381,0,0,0,.535,2.723,1.771,1.771,0,0,0,1.621.879,1.747,1.747,0,0,0,1.59-.828,5.186,5.186,0,0,0,.543-2.609ZM3.93,66.633,5.8,63.547H7.492l-2.766,4.18L7.578,72H5.906L3.953,68.836,2,72H.32l2.852-4.273L.406,63.547H2.078Zm8.1,1.125H8.219v-1.18h3.813ZM20.742,72H13.289V70.961l3.938-4.375a9.355,9.355,0,0,0,1.207-1.613,2.693,2.693,0,0,0,.332-1.285,2.041,2.041,0,0,0-.539-1.461,1.885,1.885,0,0,0-1.437-.57,2.232,2.232,0,0,0-1.676.613,2.343,2.343,0,0,0-.6,1.707H13.07a3.355,3.355,0,0,1,1.012-2.539,3.751,3.751,0,0,1,2.707-.969A3.6,3.6,0,0,1,19.3,61.3a2.838,2.838,0,0,1,.922,2.215q0,1.68-2.141,4l-3.047,3.3h5.711Z" transform="translate(588.422 1907.5)" fill="#12263f"/>
    <path id="Trazado_1016882" data-name="Trazado 1016882" d="M7.75-5.258H2.82v4.031H8.547V0H1.32V-11.375H8.469v1.227H2.82v3.664H7.75Zm7.359,3.016a1.064,1.064,0,0,0-.441-.91,4.249,4.249,0,0,0-1.539-.559,7.277,7.277,0,0,1-1.742-.562,2.479,2.479,0,0,1-.953-.781,1.869,1.869,0,0,1-.309-1.078A2.193,2.193,0,0,1,11-7.891a3.432,3.432,0,0,1,2.246-.719,3.532,3.532,0,0,1,2.332.742,2.357,2.357,0,0,1,.895,1.9H15.023a1.3,1.3,0,0,0-.5-1.023,1.888,1.888,0,0,0-1.27-.43,1.976,1.976,0,0,0-1.234.344,1.082,1.082,0,0,0-.445.9.877.877,0,0,0,.414.789,5.1,5.1,0,0,0,1.5.508,7.8,7.8,0,0,1,1.754.578,2.558,2.558,0,0,1,1,.809,1.988,1.988,0,0,1,.324,1.152,2.163,2.163,0,0,1-.906,1.816A3.8,3.8,0,0,1,13.3.156,4.257,4.257,0,0,1,11.5-.2a2.922,2.922,0,0,1-1.223-1A2.42,2.42,0,0,1,9.836-2.6h1.445a1.5,1.5,0,0,0,.582,1.152,2.258,2.258,0,0,0,1.434.426,2.331,2.331,0,0,0,1.316-.332A1.02,1.02,0,0,0,15.109-2.242ZM25.578-4.133A5.062,5.062,0,0,1,24.7-1.023,2.829,2.829,0,0,1,22.3.156,3.1,3.1,0,0,1,19.883-.82V3.25H18.438v-11.7h1.32l.07.938a2.977,2.977,0,0,1,2.453-1.094,2.882,2.882,0,0,1,2.41,1.148,5.117,5.117,0,0,1,.887,3.2ZM24.133-4.3a3.735,3.735,0,0,0-.609-2.258,1.963,1.963,0,0,0-1.672-.828,2.125,2.125,0,0,0-1.969,1.164V-2.18a2.129,2.129,0,0,0,1.984,1.156,1.954,1.954,0,0,0,1.652-.824A4.077,4.077,0,0,0,24.133-4.3Zm8.5,4.3a3.036,3.036,0,0,1-.2-.891A3.225,3.225,0,0,1,30.023.156a2.984,2.984,0,0,1-2.051-.707,2.287,2.287,0,0,1-.8-1.793,2.39,2.39,0,0,1,1-2.051A4.733,4.733,0,0,1,31-5.125h1.406v-.664A1.623,1.623,0,0,0,31.953-7a1.821,1.821,0,0,0-1.336-.449,2.108,2.108,0,0,0-1.3.391,1.151,1.151,0,0,0-.523.945H27.344a2,2,0,0,1,.449-1.223,3.066,3.066,0,0,1,1.219-.934A4.1,4.1,0,0,1,30.7-8.609a3.342,3.342,0,0,1,2.289.73,2.635,2.635,0,0,1,.859,2.012v3.891a4.757,4.757,0,0,0,.3,1.852V0Zm-2.4-1.1a2.54,2.54,0,0,0,1.289-.352,2.127,2.127,0,0,0,.883-.914V-4.1H31.273q-2.656,0-2.656,1.555a1.316,1.316,0,0,0,.453,1.063A1.742,1.742,0,0,0,30.234-1.1ZM37.688,0H36.242V-12h1.445Zm1.961-4.3a4.952,4.952,0,0,1,.922-3.129,2.915,2.915,0,0,1,2.414-1.184,2.932,2.932,0,0,1,2.352,1.016V-12h1.445V0H45.453l-.07-.906A2.943,2.943,0,0,1,42.969.156a2.887,2.887,0,0,1-2.395-1.2,5.008,5.008,0,0,1-.926-3.141Zm1.445.164a3.749,3.749,0,0,0,.594,2.25,1.92,1.92,0,0,0,1.641.813A2.108,2.108,0,0,0,45.336-2.3V-6.187a2.125,2.125,0,0,0-1.992-1.2,1.929,1.929,0,0,0-1.656.82A4.128,4.128,0,0,0,41.094-4.133ZM54.242,0a3.036,3.036,0,0,1-.2-.891A3.225,3.225,0,0,1,51.633.156a2.984,2.984,0,0,1-2.051-.707,2.287,2.287,0,0,1-.8-1.793,2.39,2.39,0,0,1,1-2.051,4.733,4.733,0,0,1,2.824-.73h1.406v-.664A1.623,1.623,0,0,0,53.563-7a1.821,1.821,0,0,0-1.336-.449,2.107,2.107,0,0,0-1.3.391,1.151,1.151,0,0,0-.523.945H48.953A2,2,0,0,1,49.4-7.332a3.066,3.066,0,0,1,1.219-.934,4.1,4.1,0,0,1,1.691-.344,3.342,3.342,0,0,1,2.289.73,2.635,2.635,0,0,1,.859,2.012v3.891a4.757,4.757,0,0,0,.3,1.852V0Zm-2.4-1.1a2.54,2.54,0,0,0,1.289-.352,2.127,2.127,0,0,0,.883-.914V-4.1H52.883q-2.656,0-2.656,1.555a1.316,1.316,0,0,0,.453,1.063A1.742,1.742,0,0,0,51.844-1.1ZM5.18,10.844a4.331,4.331,0,0,0-.711-.055A1.9,1.9,0,0,0,2.539,12v6H1.094V9.547H2.5l.023.977A2.251,2.251,0,0,1,4.539,9.391,1.477,1.477,0,0,1,5.18,9.5Zm4.836,7.313a3.693,3.693,0,0,1-2.8-1.129,4.19,4.19,0,0,1-1.078-3.02v-.266a5.073,5.073,0,0,1,.48-2.246A3.748,3.748,0,0,1,7.965,9.949a3.378,3.378,0,0,1,1.871-.559A3.166,3.166,0,0,1,12.4,10.477a4.7,4.7,0,0,1,.914,3.109v.6H7.586a3,3,0,0,0,.73,2.02,2.3,2.3,0,0,0,1.777.77,2.517,2.517,0,0,0,1.3-.312,3.259,3.259,0,0,0,.93-.828l.883.688A3.55,3.55,0,0,1,10.016,18.156Zm-.18-7.578a1.928,1.928,0,0,0-1.469.637A3.1,3.1,0,0,0,7.633,13h4.234v-.109a2.753,2.753,0,0,0-.594-1.707A1.815,1.815,0,0,0,9.836,10.578ZM15.7,18V10.664H14.359V9.547H15.7V8.68a2.878,2.878,0,0,1,.727-2.1,2.745,2.745,0,0,1,2.055-.742,3.816,3.816,0,0,1,.992.132l-.078,1.165a4.151,4.151,0,0,0-.781-.07,1.41,1.41,0,0,0-1.086.411,1.669,1.669,0,0,0-.383,1.18v.893h1.8v1.117h-1.8V18Zm8.352.156a3.693,3.693,0,0,1-2.8-1.129,4.19,4.19,0,0,1-1.078-3.02v-.266a5.073,5.073,0,0,1,.48-2.246A3.748,3.748,0,0,1,22,9.949a3.378,3.378,0,0,1,1.871-.559,3.166,3.166,0,0,1,2.563,1.086,4.7,4.7,0,0,1,.914,3.109v.6H21.617a3,3,0,0,0,.73,2.02,2.3,2.3,0,0,0,1.777.77,2.517,2.517,0,0,0,1.3-.312,3.259,3.259,0,0,0,.93-.828l.883.688A3.55,3.55,0,0,1,24.047,18.156Zm-.18-7.578a1.928,1.928,0,0,0-1.469.637A3.1,3.1,0,0,0,21.664,13H25.9v-.109a2.753,2.753,0,0,0-.594-1.707A1.815,1.815,0,0,0,23.867,10.578Zm9.234.266a4.331,4.331,0,0,0-.711-.055A1.9,1.9,0,0,0,30.461,12v6H29.016V9.547h1.406l.023.977a2.251,2.251,0,0,1,2.016-1.133A1.477,1.477,0,0,1,33.1,9.5Zm4.836,7.313a3.693,3.693,0,0,1-2.8-1.129,4.19,4.19,0,0,1-1.078-3.02v-.266a5.073,5.073,0,0,1,.48-2.246,3.748,3.748,0,0,1,1.344-1.547,3.378,3.378,0,0,1,1.871-.559,3.166,3.166,0,0,1,2.563,1.086,4.7,4.7,0,0,1,.914,3.109v.6H35.508a3,3,0,0,0,.73,2.02,2.3,2.3,0,0,0,1.777.77,2.517,2.517,0,0,0,1.3-.312,3.259,3.259,0,0,0,.93-.828l.883.688A3.55,3.55,0,0,1,37.938,18.156Zm-.18-7.578a1.928,1.928,0,0,0-1.469.637A3.1,3.1,0,0,0,35.555,13h4.234v-.109a2.753,2.753,0,0,0-.594-1.707A1.815,1.815,0,0,0,37.758,10.578Zm6.516-1.031.047,1.063a3.08,3.08,0,0,1,2.531-1.219q2.68,0,2.7,3.023V18H48.109V12.406a1.946,1.946,0,0,0-.418-1.352,1.675,1.675,0,0,0-1.277-.437,2.086,2.086,0,0,0-1.234.375,2.546,2.546,0,0,0-.828.984V18H42.906V9.547Zm10.852,7.43a2.082,2.082,0,0,0,1.352-.469,1.649,1.649,0,0,0,.641-1.172h1.367a2.621,2.621,0,0,1-.5,1.383,3.293,3.293,0,0,1-1.23,1.047,3.55,3.55,0,0,1-1.629.391A3.482,3.482,0,0,1,52.379,17a4.59,4.59,0,0,1-1.02-3.152v-.242a5.089,5.089,0,0,1,.453-2.2,3.451,3.451,0,0,1,1.3-1.492,3.7,3.7,0,0,1,2-.531,3.39,3.39,0,0,1,2.363.852,3.043,3.043,0,0,1,1,2.211H57.117a1.992,1.992,0,0,0-.621-1.348,1.932,1.932,0,0,0-1.379-.527,2.023,2.023,0,0,0-1.707.793,3.724,3.724,0,0,0-.605,2.293v.273a3.65,3.65,0,0,0,.6,2.25A2.033,2.033,0,0,0,55.125,16.977ZM61.68,18H60.234V9.547H61.68ZM60.117,7.3a.863.863,0,0,1,.215-.594.807.807,0,0,1,.637-.242.819.819,0,0,1,.641.242.854.854,0,0,1,.219.594.826.826,0,0,1-.219.586.834.834,0,0,1-.641.234.821.821,0,0,1-.637-.234A.834.834,0,0,1,60.117,7.3ZM69.211,18a3.036,3.036,0,0,1-.2-.891A3.225,3.225,0,0,1,66.6,18.156a2.984,2.984,0,0,1-2.051-.707,2.288,2.288,0,0,1-.8-1.793,2.39,2.39,0,0,1,1-2.051,4.733,4.733,0,0,1,2.824-.73h1.406v-.664A1.623,1.623,0,0,0,68.531,11a1.821,1.821,0,0,0-1.336-.449,2.108,2.108,0,0,0-1.3.391,1.151,1.151,0,0,0-.523.945H63.922a2,2,0,0,1,.449-1.223,3.066,3.066,0,0,1,1.219-.934,4.1,4.1,0,0,1,1.691-.344,3.342,3.342,0,0,1,2.289.73,2.635,2.635,0,0,1,.859,2.012v3.891a4.757,4.757,0,0,0,.3,1.852V18Zm-2.4-1.1a2.54,2.54,0,0,0,1.289-.352,2.127,2.127,0,0,0,.883-.914V13.9H67.852q-2.656,0-2.656,1.555a1.316,1.316,0,0,0,.453,1.063A1.742,1.742,0,0,0,66.813,16.9ZM8.078,31.148a6.61,6.61,0,0,1-.867,3.773A3.084,3.084,0,0,1,4.5,36.156a3.107,3.107,0,0,1-2.7-1.207A6.274,6.274,0,0,1,.9,31.344v-1.93a6.463,6.463,0,0,1,.867-3.727,3.108,3.108,0,0,1,2.719-1.219,3.136,3.136,0,0,1,2.7,1.176,6.237,6.237,0,0,1,.891,3.629ZM6.633,29.172A5.3,5.3,0,0,0,6.117,26.5a1.775,1.775,0,0,0-1.633-.84,1.751,1.751,0,0,0-1.617.836,5.171,5.171,0,0,0-.523,2.57v2.313A5.381,5.381,0,0,0,2.879,34.1a1.771,1.771,0,0,0,1.621.879,1.747,1.747,0,0,0,1.59-.828,5.186,5.186,0,0,0,.543-2.609ZM17.383,36H9.93V34.961l3.938-4.375a9.355,9.355,0,0,0,1.207-1.613,2.693,2.693,0,0,0,.332-1.285,2.041,2.041,0,0,0-.539-1.461,1.885,1.885,0,0,0-1.437-.57,2.232,2.232,0,0,0-1.676.613,2.343,2.343,0,0,0-.6,1.707H9.711a3.355,3.355,0,0,1,1.012-2.539,3.751,3.751,0,0,1,2.707-.969,3.6,3.6,0,0,1,2.508.832,2.838,2.838,0,0,1,.922,2.215q0,1.68-2.141,4l-3.047,3.3h5.711Zm4.688-4.242H18.258v-1.18H22.07ZM32.039,36H30.586V26.367l-2.914,1.07V26.125l4.141-1.555h.227Zm11.367-4.852a6.61,6.61,0,0,1-.867,3.773,3.084,3.084,0,0,1-2.711,1.234,3.107,3.107,0,0,1-2.7-1.207,6.274,6.274,0,0,1-.906-3.605v-1.93a6.463,6.463,0,0,1,.867-3.727,3.108,3.108,0,0,1,2.719-1.219,3.136,3.136,0,0,1,2.7,1.176,6.237,6.237,0,0,1,.891,3.629Zm-1.445-1.977a5.3,5.3,0,0,0-.516-2.676,1.775,1.775,0,0,0-1.633-.84,1.751,1.751,0,0,0-1.617.836,5.171,5.171,0,0,0-.523,2.57v2.313a5.381,5.381,0,0,0,.535,2.723,1.771,1.771,0,0,0,1.621.879,1.747,1.747,0,0,0,1.59-.828,5.186,5.186,0,0,0,.543-2.609ZM52.711,36H45.258V34.961L49.2,30.586A9.355,9.355,0,0,0,50.4,28.973a2.693,2.693,0,0,0,.332-1.285,2.041,2.041,0,0,0-.539-1.461,1.885,1.885,0,0,0-1.437-.57,2.232,2.232,0,0,0-1.676.613,2.343,2.343,0,0,0-.6,1.707H45.039a3.355,3.355,0,0,1,1.012-2.539,3.751,3.751,0,0,1,2.707-.969,3.6,3.6,0,0,1,2.508.832,2.838,2.838,0,0,1,.922,2.215q0,1.68-2.141,4L47,34.82h5.711ZM9.18,43.852H5.523V54H4.031V43.852H.383V42.625h8.8ZM14.977,54a3.036,3.036,0,0,1-.2-.891,3.225,3.225,0,0,1-2.406,1.047,2.984,2.984,0,0,1-2.051-.707,2.287,2.287,0,0,1-.8-1.793,2.39,2.39,0,0,1,1-2.051,4.733,4.733,0,0,1,2.824-.73H14.75v-.664A1.623,1.623,0,0,0,14.3,47a1.821,1.821,0,0,0-1.336-.449,2.107,2.107,0,0,0-1.3.391,1.151,1.151,0,0,0-.523.945H9.688a2,2,0,0,1,.449-1.223,3.066,3.066,0,0,1,1.219-.934,4.1,4.1,0,0,1,1.691-.344,3.342,3.342,0,0,1,2.289.73,2.635,2.635,0,0,1,.859,2.012v3.891a4.757,4.757,0,0,0,.3,1.852V54Zm-2.4-1.1a2.54,2.54,0,0,0,1.289-.352,2.127,2.127,0,0,0,.883-.914V49.9H13.617q-2.656,0-2.656,1.555a1.316,1.316,0,0,0,.453,1.063A1.742,1.742,0,0,0,12.578,52.9ZM20.031,54H18.586V42h1.445Zm3.883,0H22.469V42h1.445Zm7.531,0a3.036,3.036,0,0,1-.2-.891,3.225,3.225,0,0,1-2.406,1.047,2.984,2.984,0,0,1-2.051-.707,2.287,2.287,0,0,1-.8-1.793,2.39,2.39,0,0,1,1-2.051,4.733,4.733,0,0,1,2.824-.73h1.406v-.664A1.623,1.623,0,0,0,30.766,47a1.821,1.821,0,0,0-1.336-.449,2.107,2.107,0,0,0-1.3.391,1.151,1.151,0,0,0-.523.945H26.156a2,2,0,0,1,.449-1.223,3.066,3.066,0,0,1,1.219-.934,4.1,4.1,0,0,1,1.691-.344,3.342,3.342,0,0,1,2.289.73,2.635,2.635,0,0,1,.859,2.012v3.891a4.757,4.757,0,0,0,.3,1.852V54Zm-2.4-1.1a2.54,2.54,0,0,0,1.289-.352,2.127,2.127,0,0,0,.883-.914V49.9H30.086q-2.656,0-2.656,1.555a1.316,1.316,0,0,0,.453,1.063A1.742,1.742,0,0,0,29.047,52.9ZM43.492,54H42.039V44.367l-2.914,1.07V44.125l4.141-1.555h.227Zm11.367-4.852a6.61,6.61,0,0,1-.867,3.773,3.6,3.6,0,0,1-5.406.027,6.274,6.274,0,0,1-.906-3.605v-1.93a6.463,6.463,0,0,1,.867-3.727,3.668,3.668,0,0,1,5.422-.043,6.237,6.237,0,0,1,.891,3.629Zm-1.445-1.977A5.3,5.3,0,0,0,52.9,44.5a1.775,1.775,0,0,0-1.633-.84,1.751,1.751,0,0,0-1.617.836,5.171,5.171,0,0,0-.523,2.57v2.313A5.381,5.381,0,0,0,49.66,52.1a1.771,1.771,0,0,0,1.621.879,1.747,1.747,0,0,0,1.59-.828,5.186,5.186,0,0,0,.543-2.609ZM3.93,66.633,5.8,63.547H7.492l-2.766,4.18L7.578,72H5.906L3.953,68.836,2,72H.32l2.852-4.273L.406,63.547H2.078Zm8.1,1.125H8.219v-1.18h3.813ZM18.039,72H16.586V62.367l-2.914,1.07V62.125l4.141-1.555h.227Z" transform="translate(923.422 1907.5)" fill="#12263f"/>
    <path id="Trazado_1016883" data-name="Trazado 1016883" d="M3.258-11.375,6.977-2.094,10.7-11.375h1.945V0h-1.5V-4.43l.141-4.781L7.547,0H6.4L2.672-9.187,2.82-4.43V0H1.32V-11.375ZM20.281,0a3.036,3.036,0,0,1-.2-.891A3.225,3.225,0,0,1,17.672.156a2.984,2.984,0,0,1-2.051-.707,2.287,2.287,0,0,1-.8-1.793,2.39,2.39,0,0,1,1-2.051,4.733,4.733,0,0,1,2.824-.73h1.406v-.664A1.623,1.623,0,0,0,19.6-7a1.821,1.821,0,0,0-1.336-.449,2.108,2.108,0,0,0-1.3.391,1.151,1.151,0,0,0-.523.945H14.992a2,2,0,0,1,.449-1.223,3.066,3.066,0,0,1,1.219-.934,4.1,4.1,0,0,1,1.691-.344,3.342,3.342,0,0,1,2.289.73A2.635,2.635,0,0,1,21.5-5.867v3.891a4.757,4.757,0,0,0,.3,1.852V0Zm-2.4-1.1a2.54,2.54,0,0,0,1.289-.352,2.127,2.127,0,0,0,.883-.914V-4.1H18.922q-2.656,0-2.656,1.555a1.316,1.316,0,0,0,.453,1.063A1.742,1.742,0,0,0,17.883-1.1Zm7.25-7.352.047,1.063a3.08,3.08,0,0,1,2.531-1.219q2.68,0,2.7,3.023V0H28.969V-5.594a1.946,1.946,0,0,0-.418-1.352,1.675,1.675,0,0,0-1.277-.437,2.086,2.086,0,0,0-1.234.375,2.546,2.546,0,0,0-.828.984V0H23.766V-8.453ZM32.25-4.3a4.968,4.968,0,0,1,.914-3.145,2.923,2.923,0,0,1,2.422-1.168A2.908,2.908,0,0,1,38-7.516l.07-.937h1.32V-.2a3.439,3.439,0,0,1-.973,2.586,3.589,3.589,0,0,1-2.613.945,4.348,4.348,0,0,1-1.789-.391,3.08,3.08,0,0,1-1.336-1.07L33.43,1A2.826,2.826,0,0,0,35.7,2.148a2.214,2.214,0,0,0,1.645-.594,2.269,2.269,0,0,0,.59-1.672V-.844a2.971,2.971,0,0,1-2.367,1,2.887,2.887,0,0,1-2.4-1.2A5.224,5.224,0,0,1,32.25-4.3Zm1.453.164a3.79,3.79,0,0,0,.586,2.246,1.9,1.9,0,0,0,1.641.816,2.117,2.117,0,0,0,2.008-1.242V-6.172a2.142,2.142,0,0,0-1.992-1.211,1.921,1.921,0,0,0-1.648.82A4.128,4.128,0,0,0,33.7-4.133ZM46.789,0a3.036,3.036,0,0,1-.2-.891A3.225,3.225,0,0,1,44.18.156a2.984,2.984,0,0,1-2.051-.707,2.287,2.287,0,0,1-.8-1.793,2.39,2.39,0,0,1,1-2.051,4.733,4.733,0,0,1,2.824-.73h1.406v-.664A1.623,1.623,0,0,0,46.109-7a1.821,1.821,0,0,0-1.336-.449,2.107,2.107,0,0,0-1.3.391,1.151,1.151,0,0,0-.523.945H41.5a2,2,0,0,1,.449-1.223,3.066,3.066,0,0,1,1.219-.934,4.1,4.1,0,0,1,1.691-.344,3.342,3.342,0,0,1,2.289.73,2.635,2.635,0,0,1,.859,2.012v3.891a4.757,4.757,0,0,0,.3,1.852V0Zm-2.4-1.1a2.54,2.54,0,0,0,1.289-.352,2.127,2.127,0,0,0,.883-.914V-4.1H45.43q-2.656,0-2.656,1.555a1.316,1.316,0,0,0,.453,1.063A1.742,1.742,0,0,0,44.391-1.1ZM5.18,10.844a4.331,4.331,0,0,0-.711-.055A1.9,1.9,0,0,0,2.539,12v6H1.094V9.547H2.5l.023.977A2.251,2.251,0,0,1,4.539,9.391,1.477,1.477,0,0,1,5.18,9.5Zm4.836,7.313a3.693,3.693,0,0,1-2.8-1.129,4.19,4.19,0,0,1-1.078-3.02v-.266a5.073,5.073,0,0,1,.48-2.246A3.748,3.748,0,0,1,7.965,9.949a3.378,3.378,0,0,1,1.871-.559A3.166,3.166,0,0,1,12.4,10.477a4.7,4.7,0,0,1,.914,3.109v.6H7.586a3,3,0,0,0,.73,2.02,2.3,2.3,0,0,0,1.777.77,2.517,2.517,0,0,0,1.3-.312,3.259,3.259,0,0,0,.93-.828l.883.688A3.55,3.55,0,0,1,10.016,18.156Zm-.18-7.578a1.928,1.928,0,0,0-1.469.637A3.1,3.1,0,0,0,7.633,13h4.234v-.109a2.753,2.753,0,0,0-.594-1.707A1.815,1.815,0,0,0,9.836,10.578ZM15.7,18V10.664H14.359V9.547H15.7V8.68a2.878,2.878,0,0,1,.727-2.1,2.745,2.745,0,0,1,2.055-.742,3.816,3.816,0,0,1,.992.132l-.078,1.165a4.151,4.151,0,0,0-.781-.07,1.41,1.41,0,0,0-1.086.411,1.669,1.669,0,0,0-.383,1.18v.893h1.8v1.117h-1.8V18Zm8.352.156a3.693,3.693,0,0,1-2.8-1.129,4.19,4.19,0,0,1-1.078-3.02v-.266a5.073,5.073,0,0,1,.48-2.246A3.748,3.748,0,0,1,22,9.949a3.378,3.378,0,0,1,1.871-.559,3.166,3.166,0,0,1,2.563,1.086,4.7,4.7,0,0,1,.914,3.109v.6H21.617a3,3,0,0,0,.73,2.02,2.3,2.3,0,0,0,1.777.77,2.517,2.517,0,0,0,1.3-.312,3.259,3.259,0,0,0,.93-.828l.883.688A3.55,3.55,0,0,1,24.047,18.156Zm-.18-7.578a1.928,1.928,0,0,0-1.469.637A3.1,3.1,0,0,0,21.664,13H25.9v-.109a2.753,2.753,0,0,0-.594-1.707A1.815,1.815,0,0,0,23.867,10.578Zm9.234.266a4.331,4.331,0,0,0-.711-.055A1.9,1.9,0,0,0,30.461,12v6H29.016V9.547h1.406l.023.977a2.251,2.251,0,0,1,2.016-1.133A1.477,1.477,0,0,1,33.1,9.5Zm4.836,7.313a3.693,3.693,0,0,1-2.8-1.129,4.19,4.19,0,0,1-1.078-3.02v-.266a5.073,5.073,0,0,1,.48-2.246,3.748,3.748,0,0,1,1.344-1.547,3.378,3.378,0,0,1,1.871-.559,3.166,3.166,0,0,1,2.563,1.086,4.7,4.7,0,0,1,.914,3.109v.6H35.508a3,3,0,0,0,.73,2.02,2.3,2.3,0,0,0,1.777.77,2.517,2.517,0,0,0,1.3-.312,3.259,3.259,0,0,0,.93-.828l.883.688A3.55,3.55,0,0,1,37.938,18.156Zm-.18-7.578a1.928,1.928,0,0,0-1.469.637A3.1,3.1,0,0,0,35.555,13h4.234v-.109a2.753,2.753,0,0,0-.594-1.707A1.815,1.815,0,0,0,37.758,10.578Zm6.516-1.031.047,1.063a3.08,3.08,0,0,1,2.531-1.219q2.68,0,2.7,3.023V18H48.109V12.406a1.946,1.946,0,0,0-.418-1.352,1.675,1.675,0,0,0-1.277-.437,2.086,2.086,0,0,0-1.234.375,2.546,2.546,0,0,0-.828.984V18H42.906V9.547Zm10.852,7.43a2.082,2.082,0,0,0,1.352-.469,1.649,1.649,0,0,0,.641-1.172h1.367a2.621,2.621,0,0,1-.5,1.383,3.293,3.293,0,0,1-1.23,1.047,3.55,3.55,0,0,1-1.629.391A3.482,3.482,0,0,1,52.379,17a4.59,4.59,0,0,1-1.02-3.152v-.242a5.089,5.089,0,0,1,.453-2.2,3.451,3.451,0,0,1,1.3-1.492,3.7,3.7,0,0,1,2-.531,3.39,3.39,0,0,1,2.363.852,3.043,3.043,0,0,1,1,2.211H57.117a1.992,1.992,0,0,0-.621-1.348,1.932,1.932,0,0,0-1.379-.527,2.023,2.023,0,0,0-1.707.793,3.724,3.724,0,0,0-.605,2.293v.273a3.65,3.65,0,0,0,.6,2.25A2.033,2.033,0,0,0,55.125,16.977ZM61.68,18H60.234V9.547H61.68ZM60.117,7.3a.863.863,0,0,1,.215-.594.807.807,0,0,1,.637-.242.819.819,0,0,1,.641.242.854.854,0,0,1,.219.594.826.826,0,0,1-.219.586.834.834,0,0,1-.641.234.821.821,0,0,1-.637-.234A.834.834,0,0,1,60.117,7.3ZM69.211,18a3.036,3.036,0,0,1-.2-.891A3.225,3.225,0,0,1,66.6,18.156a2.984,2.984,0,0,1-2.051-.707,2.288,2.288,0,0,1-.8-1.793,2.39,2.39,0,0,1,1-2.051,4.733,4.733,0,0,1,2.824-.73h1.406v-.664A1.623,1.623,0,0,0,68.531,11a1.821,1.821,0,0,0-1.336-.449,2.108,2.108,0,0,0-1.3.391,1.151,1.151,0,0,0-.523.945H63.922a2,2,0,0,1,.449-1.223,3.066,3.066,0,0,1,1.219-.934,4.1,4.1,0,0,1,1.691-.344,3.342,3.342,0,0,1,2.289.73,2.635,2.635,0,0,1,.859,2.012v3.891a4.757,4.757,0,0,0,.3,1.852V18Zm-2.4-1.1a2.54,2.54,0,0,0,1.289-.352,2.127,2.127,0,0,0,.883-.914V13.9H67.852q-2.656,0-2.656,1.555a1.316,1.316,0,0,0,.453,1.063A1.742,1.742,0,0,0,66.813,16.9ZM8.078,31.148a6.61,6.61,0,0,1-.867,3.773A3.084,3.084,0,0,1,4.5,36.156a3.107,3.107,0,0,1-2.7-1.207A6.274,6.274,0,0,1,.9,31.344v-1.93a6.463,6.463,0,0,1,.867-3.727,3.108,3.108,0,0,1,2.719-1.219,3.136,3.136,0,0,1,2.7,1.176,6.237,6.237,0,0,1,.891,3.629ZM6.633,29.172A5.3,5.3,0,0,0,6.117,26.5a1.775,1.775,0,0,0-1.633-.84,1.751,1.751,0,0,0-1.617.836,5.171,5.171,0,0,0-.523,2.57v2.313A5.381,5.381,0,0,0,2.879,34.1a1.771,1.771,0,0,0,1.621.879,1.747,1.747,0,0,0,1.59-.828,5.186,5.186,0,0,0,.543-2.609ZM17.383,36H9.93V34.961l3.938-4.375a9.355,9.355,0,0,0,1.207-1.613,2.693,2.693,0,0,0,.332-1.285,2.041,2.041,0,0,0-.539-1.461,1.885,1.885,0,0,0-1.437-.57,2.232,2.232,0,0,0-1.676.613,2.343,2.343,0,0,0-.6,1.707H9.711a3.355,3.355,0,0,1,1.012-2.539,3.751,3.751,0,0,1,2.707-.969,3.6,3.6,0,0,1,2.508.832,2.838,2.838,0,0,1,.922,2.215q0,1.68-2.141,4l-3.047,3.3h5.711Zm4.688-4.242H18.258v-1.18H22.07ZM32.039,36H30.586V26.367l-2.914,1.07V26.125l4.141-1.555h.227Zm11.367-4.852a6.61,6.61,0,0,1-.867,3.773,3.084,3.084,0,0,1-2.711,1.234,3.107,3.107,0,0,1-2.7-1.207,6.274,6.274,0,0,1-.906-3.605v-1.93a6.463,6.463,0,0,1,.867-3.727,3.108,3.108,0,0,1,2.719-1.219,3.136,3.136,0,0,1,2.7,1.176,6.237,6.237,0,0,1,.891,3.629Zm-1.445-1.977a5.3,5.3,0,0,0-.516-2.676,1.775,1.775,0,0,0-1.633-.84,1.751,1.751,0,0,0-1.617.836,5.171,5.171,0,0,0-.523,2.57v2.313a5.381,5.381,0,0,0,.535,2.723,1.771,1.771,0,0,0,1.621.879,1.747,1.747,0,0,0,1.59-.828,5.186,5.186,0,0,0,.543-2.609ZM52.711,36H45.258V34.961L49.2,30.586A9.355,9.355,0,0,0,50.4,28.973a2.693,2.693,0,0,0,.332-1.285,2.041,2.041,0,0,0-.539-1.461,1.885,1.885,0,0,0-1.437-.57,2.232,2.232,0,0,0-1.676.613,2.343,2.343,0,0,0-.6,1.707H45.039a3.355,3.355,0,0,1,1.012-2.539,3.751,3.751,0,0,1,2.707-.969,3.6,3.6,0,0,1,2.508.832,2.838,2.838,0,0,1,.922,2.215q0,1.68-2.141,4L47,34.82h5.711ZM9.18,43.852H5.523V54H4.031V43.852H.383V42.625h8.8ZM14.977,54a3.036,3.036,0,0,1-.2-.891,3.225,3.225,0,0,1-2.406,1.047,2.984,2.984,0,0,1-2.051-.707,2.287,2.287,0,0,1-.8-1.793,2.39,2.39,0,0,1,1-2.051,4.733,4.733,0,0,1,2.824-.73H14.75v-.664A1.623,1.623,0,0,0,14.3,47a1.821,1.821,0,0,0-1.336-.449,2.107,2.107,0,0,0-1.3.391,1.151,1.151,0,0,0-.523.945H9.688a2,2,0,0,1,.449-1.223,3.066,3.066,0,0,1,1.219-.934,4.1,4.1,0,0,1,1.691-.344,3.342,3.342,0,0,1,2.289.73,2.635,2.635,0,0,1,.859,2.012v3.891a4.757,4.757,0,0,0,.3,1.852V54Zm-2.4-1.1a2.54,2.54,0,0,0,1.289-.352,2.127,2.127,0,0,0,.883-.914V49.9H13.617q-2.656,0-2.656,1.555a1.316,1.316,0,0,0,.453,1.063A1.742,1.742,0,0,0,12.578,52.9ZM20.031,54H18.586V42h1.445Zm3.883,0H22.469V42h1.445Zm7.531,0a3.036,3.036,0,0,1-.2-.891,3.225,3.225,0,0,1-2.406,1.047,2.984,2.984,0,0,1-2.051-.707,2.287,2.287,0,0,1-.8-1.793,2.39,2.39,0,0,1,1-2.051,4.733,4.733,0,0,1,2.824-.73h1.406v-.664A1.623,1.623,0,0,0,30.766,47a1.821,1.821,0,0,0-1.336-.449,2.107,2.107,0,0,0-1.3.391,1.151,1.151,0,0,0-.523.945H26.156a2,2,0,0,1,.449-1.223,3.066,3.066,0,0,1,1.219-.934,4.1,4.1,0,0,1,1.691-.344,3.342,3.342,0,0,1,2.289.73,2.635,2.635,0,0,1,.859,2.012v3.891a4.757,4.757,0,0,0,.3,1.852V54Zm-2.4-1.1a2.54,2.54,0,0,0,1.289-.352,2.127,2.127,0,0,0,.883-.914V49.9H30.086q-2.656,0-2.656,1.555a1.316,1.316,0,0,0,.453,1.063A1.742,1.742,0,0,0,29.047,52.9ZM43.492,54H42.039V44.367l-2.914,1.07V44.125l4.141-1.555h.227Zm11.367-4.852a6.61,6.61,0,0,1-.867,3.773,3.6,3.6,0,0,1-5.406.027,6.274,6.274,0,0,1-.906-3.605v-1.93a6.463,6.463,0,0,1,.867-3.727,3.668,3.668,0,0,1,5.422-.043,6.237,6.237,0,0,1,.891,3.629Zm-1.445-1.977A5.3,5.3,0,0,0,52.9,44.5a1.775,1.775,0,0,0-1.633-.84,1.751,1.751,0,0,0-1.617.836,5.171,5.171,0,0,0-.523,2.57v2.313A5.381,5.381,0,0,0,49.66,52.1a1.771,1.771,0,0,0,1.621.879,1.747,1.747,0,0,0,1.59-.828,5.186,5.186,0,0,0,.543-2.609ZM3.93,66.633,5.8,63.547H7.492l-2.766,4.18L7.578,72H5.906L3.953,68.836,2,72H.32l2.852-4.273L.406,63.547H2.078Zm8.1,1.125H8.219v-1.18h3.813ZM20.742,72H13.289V70.961l3.938-4.375a9.355,9.355,0,0,0,1.207-1.613,2.693,2.693,0,0,0,.332-1.285,2.041,2.041,0,0,0-.539-1.461,1.885,1.885,0,0,0-1.437-.57,2.232,2.232,0,0,0-1.676.613,2.343,2.343,0,0,0-.6,1.707H13.07a3.355,3.355,0,0,1,1.012-2.539,3.751,3.751,0,0,1,2.707-.969A3.6,3.6,0,0,1,19.3,61.3a2.838,2.838,0,0,1,.922,2.215q0,1.68-2.141,4l-3.047,3.3h5.711Z" transform="translate(1115.422 2073.5)" fill="#12263f"/>
  </g>
</svg>
