<svg xmlns="http://www.w3.org/2000/svg" xmlns:xlink="http://www.w3.org/1999/xlink" width="932.684" height="777.431" viewBox="0 0 932.684 777.431">
  <defs>
    <clipPath id="clip-path">
      <rect id="Rectángulo_462074" data-name="Rectángulo 462074" width="932.684" height="777.431" fill="none"/>
    </clipPath>
  </defs>
  <g id="Grupo_1195831" data-name="Grupo 1195831" transform="translate(-333.711 -3843.363)">
    <path id="Trazado_1016881" data-name="Trazado 1016881" d="M3.258-11.375,6.977-2.094,10.7-11.375h1.945V0h-1.5V-4.43l.141-4.781L7.547,0H6.4L2.672-9.187,2.82-4.43V0H1.32V-11.375ZM18.57.156a3.693,3.693,0,0,1-2.8-1.129A4.19,4.19,0,0,1,14.7-3.992v-.266a5.073,5.073,0,0,1,.48-2.246A3.748,3.748,0,0,1,16.52-8.051a3.378,3.378,0,0,1,1.871-.559,3.166,3.166,0,0,1,2.563,1.086,4.7,4.7,0,0,1,.914,3.109v.6H16.141a3,3,0,0,0,.73,2.02,2.3,2.3,0,0,0,1.777.77,2.517,2.517,0,0,0,1.3-.312,3.259,3.259,0,0,0,.93-.828l.883.688A3.55,3.55,0,0,1,18.57.156Zm-.18-7.578a1.928,1.928,0,0,0-1.469.637A3.1,3.1,0,0,0,16.188-5h4.234v-.109a2.753,2.753,0,0,0-.594-1.707A1.815,1.815,0,0,0,18.391-7.422Zm4.8,3.125a4.952,4.952,0,0,1,.922-3.129,2.915,2.915,0,0,1,2.414-1.184,2.932,2.932,0,0,1,2.352,1.016V-12H30.32V0H28.992l-.07-.906A2.943,2.943,0,0,1,26.508.156a2.887,2.887,0,0,1-2.395-1.2,5.008,5.008,0,0,1-.926-3.141Zm1.445.164a3.749,3.749,0,0,0,.594,2.25,1.92,1.92,0,0,0,1.641.813A2.108,2.108,0,0,0,28.875-2.3V-6.187a2.125,2.125,0,0,0-1.992-1.2,1.929,1.929,0,0,0-1.656.82A4.128,4.128,0,0,0,24.633-4.133ZM34.133,0H32.688V-8.453h1.445ZM32.57-10.7a.863.863,0,0,1,.215-.594.807.807,0,0,1,.637-.242.819.819,0,0,1,.641.242.854.854,0,0,1,.219.594.826.826,0,0,1-.219.586.834.834,0,0,1-.641.234.821.821,0,0,1-.637-.234A.834.834,0,0,1,32.57-10.7Zm7.961,3.539a4.331,4.331,0,0,0-.711-.055A1.9,1.9,0,0,0,37.891-6V0H36.445V-8.453h1.406l.023.977a2.251,2.251,0,0,1,2.016-1.133,1.477,1.477,0,0,1,.641.109Zm8.055,5.039,1.969-6.336H52.1L48.7,1.3Q47.914,3.414,46.2,3.414l-.273-.023-.539-.1V2.117l.391.031a1.923,1.923,0,0,0,1.145-.3A2.148,2.148,0,0,0,47.594.766l.32-.859L44.9-8.453h1.578ZM60.742-1.023a2.082,2.082,0,0,0,1.352-.469,1.649,1.649,0,0,0,.641-1.172H64.1a2.621,2.621,0,0,1-.5,1.383,3.293,3.293,0,0,1-1.23,1.047,3.55,3.55,0,0,1-1.629.391A3.482,3.482,0,0,1,58-1a4.59,4.59,0,0,1-1.02-3.152v-.242a5.089,5.089,0,0,1,.453-2.2,3.451,3.451,0,0,1,1.3-1.492,3.7,3.7,0,0,1,2-.531,3.39,3.39,0,0,1,2.363.852,3.043,3.043,0,0,1,1,2.211H62.734a1.992,1.992,0,0,0-.621-1.348,1.932,1.932,0,0,0-1.379-.527,2.023,2.023,0,0,0-1.707.793,3.724,3.724,0,0,0-.605,2.293v.273a3.65,3.65,0,0,0,.6,2.25A2.033,2.033,0,0,0,60.742-1.023Zm4.6-3.281a4.993,4.993,0,0,1,.488-2.234A3.643,3.643,0,0,1,67.191-8.07a3.7,3.7,0,0,1,1.988-.539,3.565,3.565,0,0,1,2.793,1.2,4.6,4.6,0,0,1,1.066,3.18v.1a5.036,5.036,0,0,1-.473,2.215A3.589,3.589,0,0,1,71.215-.391,3.743,3.743,0,0,1,69.2.156a3.556,3.556,0,0,1-2.785-1.2A4.575,4.575,0,0,1,65.344-4.2Zm1.453.172a3.616,3.616,0,0,0,.652,2.258,2.088,2.088,0,0,0,1.746.852,2.075,2.075,0,0,0,1.75-.863A3.955,3.955,0,0,0,71.594-4.3a3.61,3.61,0,0,0-.66-2.254,2.1,2.1,0,0,0-1.754-.863,2.075,2.075,0,0,0-1.727.852A3.925,3.925,0,0,0,66.8-4.133ZM78.938-7.156a4.331,4.331,0,0,0-.711-.055A1.9,1.9,0,0,0,76.3-6V0H74.852V-8.453h1.406l.023.977A2.251,2.251,0,0,1,78.3-8.609a1.477,1.477,0,0,1,.641.109ZM82.745-10.5v2.047h1.578v1.117H82.745v5.249a1.173,1.173,0,0,0,.211.763.888.888,0,0,0,.719.254,3.5,3.5,0,0,0,.688-.094V0a4.215,4.215,0,0,1-1.109.155A1.8,1.8,0,0,1,81.792-.43,2.517,2.517,0,0,1,81.3-2.094V-7.336H79.761V-8.453H81.3V-10.5ZM91.23,0a3.036,3.036,0,0,1-.2-.891A3.225,3.225,0,0,1,88.62.156a2.984,2.984,0,0,1-2.051-.707,2.288,2.288,0,0,1-.8-1.793,2.39,2.39,0,0,1,1-2.051,4.733,4.733,0,0,1,2.824-.73H91v-.664A1.623,1.623,0,0,0,90.55-7a1.821,1.821,0,0,0-1.336-.449,2.108,2.108,0,0,0-1.3.391,1.151,1.151,0,0,0-.523.945H85.94a2,2,0,0,1,.449-1.223,3.066,3.066,0,0,1,1.219-.934A4.1,4.1,0,0,1,89.3-8.609a3.342,3.342,0,0,1,2.289.73,2.635,2.635,0,0,1,.859,2.012v3.891a4.757,4.757,0,0,0,.3,1.852V0Zm-2.4-1.1a2.54,2.54,0,0,0,1.289-.352A2.127,2.127,0,0,0,91-2.367V-4.1H89.87q-2.656,0-2.656,1.555a1.316,1.316,0,0,0,.453,1.063A1.742,1.742,0,0,0,88.831-1.1ZM98.8-7.156a4.331,4.331,0,0,0-.711-.055A1.9,1.9,0,0,0,96.159-6V0H94.714V-8.453H96.12l.023.977a2.251,2.251,0,0,1,2.016-1.133A1.477,1.477,0,0,1,98.8-8.5Zm8.68,6.133a2.082,2.082,0,0,0,1.352-.469,1.649,1.649,0,0,0,.641-1.172h1.367a2.621,2.621,0,0,1-.5,1.383,3.293,3.293,0,0,1-1.23,1.047,3.55,3.55,0,0,1-1.629.391A3.482,3.482,0,0,1,104.733-1a4.59,4.59,0,0,1-1.02-3.152v-.242a5.089,5.089,0,0,1,.453-2.2,3.451,3.451,0,0,1,1.3-1.492,3.7,3.7,0,0,1,2-.531,3.39,3.39,0,0,1,2.363.852,3.043,3.043,0,0,1,1,2.211h-1.367a1.992,1.992,0,0,0-.621-1.348,1.932,1.932,0,0,0-1.379-.527,2.023,2.023,0,0,0-1.707.793,3.724,3.724,0,0,0-.605,2.293v.273a3.65,3.65,0,0,0,.6,2.25A2.033,2.033,0,0,0,107.48-1.023Zm10.2.188a3.07,3.07,0,0,1-2.477.992,2.628,2.628,0,0,1-2.059-.785,3.4,3.4,0,0,1-.715-2.324v-5.5h1.445v5.461q0,1.922,1.563,1.922a2.163,2.163,0,0,0,2.2-1.234V-8.453h1.445V0h-1.375Zm7.109.992A3.693,3.693,0,0,1,122-.973a4.19,4.19,0,0,1-1.078-3.02v-.266A5.073,5.073,0,0,1,121.4-6.5a3.748,3.748,0,0,1,1.344-1.547,3.378,3.378,0,0,1,1.871-.559,3.166,3.166,0,0,1,2.563,1.086,4.7,4.7,0,0,1,.914,3.109v.6h-5.727a3,3,0,0,0,.73,2.02,2.3,2.3,0,0,0,1.777.77,2.517,2.517,0,0,0,1.3-.312,3.259,3.259,0,0,0,.93-.828l.883.688A3.55,3.55,0,0,1,124.792.156Zm-.18-7.578a1.928,1.928,0,0,0-1.469.637A3.1,3.1,0,0,0,122.409-5h4.234v-.109a2.753,2.753,0,0,0-.594-1.707A1.815,1.815,0,0,0,124.612-7.422ZM131.331,0h-1.445V-12h1.445Zm3.883,0h-1.445V-12h1.445Zm1.93-4.3a4.993,4.993,0,0,1,.488-2.234,3.642,3.642,0,0,1,1.359-1.531,3.7,3.7,0,0,1,1.988-.539,3.565,3.565,0,0,1,2.793,1.2,4.6,4.6,0,0,1,1.066,3.18v.1a5.036,5.036,0,0,1-.473,2.215,3.589,3.589,0,0,1-1.352,1.527A3.743,3.743,0,0,1,141,.156a3.556,3.556,0,0,1-2.785-1.2A4.575,4.575,0,0,1,137.144-4.2Zm1.453.172a3.616,3.616,0,0,0,.652,2.258A2.088,2.088,0,0,0,141-1.023a2.075,2.075,0,0,0,1.75-.863,3.954,3.954,0,0,0,.648-2.418,3.61,3.61,0,0,0-.66-2.254,2.1,2.1,0,0,0-1.754-.863,2.075,2.075,0,0,0-1.727.852A3.925,3.925,0,0,0,138.6-4.133Z" transform="translate(844.181 3923.437)" fill="#3c3c3b"/>
    <path id="Trazado_1016882" data-name="Trazado 1016882" d="M9.328-11.375v7.734A3.628,3.628,0,0,1,8.316-1.008,4.077,4.077,0,0,1,5.594.141L5.2.156A4.258,4.258,0,0,1,2.219-.852,3.6,3.6,0,0,1,1.094-3.625v-7.75H2.578v7.7a2.6,2.6,0,0,0,.68,1.918A2.612,2.612,0,0,0,5.2-1.07a2.63,2.63,0,0,0,1.949-.68A2.6,2.6,0,0,0,7.82-3.664v-7.711Zm3.508,2.922.047,1.063a3.08,3.08,0,0,1,2.531-1.219q2.68,0,2.7,3.023V0H16.672V-5.594a1.946,1.946,0,0,0-.418-1.352,1.675,1.675,0,0,0-1.277-.437,2.086,2.086,0,0,0-1.234.375,2.546,2.546,0,0,0-.828.984V0H11.469V-8.453ZM21.867,0H20.422V-8.453h1.445ZM20.3-10.7a.863.863,0,0,1,.215-.594.807.807,0,0,1,.637-.242.819.819,0,0,1,.641.242.854.854,0,0,1,.219.594.826.826,0,0,1-.219.586.834.834,0,0,1-.641.234.821.821,0,0,1-.637-.234A.834.834,0,0,1,20.3-10.7Zm7.961,3.539a4.331,4.331,0,0,0-.711-.055A1.9,1.9,0,0,0,25.625-6V0H24.18V-8.453h1.406l.023.977a2.251,2.251,0,0,1,2.016-1.133,1.477,1.477,0,0,1,.641.109ZM40.7-4.133a5.062,5.062,0,0,1-.883,3.109A2.829,2.829,0,0,1,37.422.156,3.1,3.1,0,0,1,35-.82V3.25H33.555v-11.7h1.32l.07.938A2.977,2.977,0,0,1,37.4-8.609a2.882,2.882,0,0,1,2.41,1.148,5.117,5.117,0,0,1,.887,3.2ZM39.25-4.3a3.735,3.735,0,0,0-.609-2.258,1.963,1.963,0,0,0-1.672-.828A2.125,2.125,0,0,0,35-6.219V-2.18a2.129,2.129,0,0,0,1.984,1.156,1.954,1.954,0,0,0,1.652-.824A4.077,4.077,0,0,0,39.25-4.3Zm2.9-.008a4.993,4.993,0,0,1,.488-2.234A3.643,3.643,0,0,1,44-8.07a3.7,3.7,0,0,1,1.988-.539,3.565,3.565,0,0,1,2.793,1.2,4.6,4.6,0,0,1,1.066,3.18v.1a5.036,5.036,0,0,1-.473,2.215A3.589,3.589,0,0,1,48.02-.391,3.743,3.743,0,0,1,46,.156a3.556,3.556,0,0,1-2.785-1.2A4.575,4.575,0,0,1,42.148-4.2Zm1.453.172a3.616,3.616,0,0,0,.652,2.258A2.088,2.088,0,0,0,46-1.023a2.075,2.075,0,0,0,1.75-.863A3.955,3.955,0,0,0,48.4-4.3a3.61,3.61,0,0,0-.66-2.254,2.1,2.1,0,0,0-1.754-.863,2.075,2.075,0,0,0-1.727.852A3.925,3.925,0,0,0,43.6-4.133ZM55.742-7.156a4.331,4.331,0,0,0-.711-.055A1.9,1.9,0,0,0,53.1-6V0H51.656V-8.453h1.406l.023.977A2.251,2.251,0,0,1,55.1-8.609a1.477,1.477,0,0,1,.641.109Zm6.734-.273a3.073,3.073,0,0,1,2.5-1.18q2.68,0,2.7,3.023V0H66.234V-5.594a1.946,1.946,0,0,0-.418-1.352,1.675,1.675,0,0,0-1.277-.437,2.086,2.086,0,0,0-1.234.375,2.546,2.546,0,0,0-.828.984V0H61.031V-12h1.445ZM69.461-4.3a4.993,4.993,0,0,1,.488-2.234A3.643,3.643,0,0,1,71.309-8.07,3.7,3.7,0,0,1,73.3-8.609a3.565,3.565,0,0,1,2.793,1.2,4.6,4.6,0,0,1,1.066,3.18v.1a5.036,5.036,0,0,1-.473,2.215A3.589,3.589,0,0,1,75.332-.391a3.743,3.743,0,0,1-2.02.547,3.556,3.556,0,0,1-2.785-1.2A4.575,4.575,0,0,1,69.461-4.2Zm1.453.172a3.616,3.616,0,0,0,.652,2.258,2.088,2.088,0,0,0,1.746.852,2.075,2.075,0,0,0,1.75-.863A3.955,3.955,0,0,0,75.711-4.3a3.61,3.61,0,0,0-.66-2.254A2.1,2.1,0,0,0,73.3-7.422a2.075,2.075,0,0,0-1.727.852A3.925,3.925,0,0,0,70.914-4.133Zm9.414-4.32.039.938a3.122,3.122,0,0,1,2.508-1.094A2.417,2.417,0,0,1,85.289-7.25a3.2,3.2,0,0,1,1.1-.984,3.242,3.242,0,0,1,1.6-.375q2.781,0,2.828,2.945V0H89.367V-5.578a1.941,1.941,0,0,0-.414-1.355,1.823,1.823,0,0,0-1.391-.449,1.916,1.916,0,0,0-1.336.48,1.949,1.949,0,0,0-.617,1.293V0H84.156V-5.539a1.613,1.613,0,0,0-1.8-1.844,1.934,1.934,0,0,0-1.945,1.211V0H78.961V-8.453Zm19.82,4.32a5.026,5.026,0,0,1-.891,3.113A2.846,2.846,0,0,1,96.867.156,2.947,2.947,0,0,1,94.391-.977L94.32,0H92.992V-12h1.445v4.477a2.93,2.93,0,0,1,2.414-1.086A2.863,2.863,0,0,1,99.27-7.445a5.177,5.177,0,0,1,.879,3.188ZM98.7-4.3a3.906,3.906,0,0,0-.57-2.281,1.888,1.888,0,0,0-1.641-.8,2.122,2.122,0,0,0-2.055,1.328V-2.4a2.181,2.181,0,0,0,2.07,1.328,1.878,1.878,0,0,0,1.617-.8A4.153,4.153,0,0,0,98.7-4.3Zm7.352-2.859a4.331,4.331,0,0,0-.711-.055A1.9,1.9,0,0,0,103.414-6V0h-1.445V-8.453h1.406l.023.977a2.251,2.251,0,0,1,2.016-1.133,1.477,1.477,0,0,1,.641.109Zm.661,2.852a4.993,4.993,0,0,1,.488-2.234,3.643,3.643,0,0,1,1.359-1.531,3.7,3.7,0,0,1,1.988-.539,3.565,3.565,0,0,1,2.793,1.2,4.6,4.6,0,0,1,1.066,3.18v.1a5.036,5.036,0,0,1-.473,2.215,3.589,3.589,0,0,1-1.352,1.527,3.743,3.743,0,0,1-2.02.547,3.556,3.556,0,0,1-2.785-1.2A4.575,4.575,0,0,1,106.716-4.2Zm1.453.172a3.616,3.616,0,0,0,.652,2.258,2.088,2.088,0,0,0,1.746.852,2.075,2.075,0,0,0,1.75-.863,3.955,3.955,0,0,0,.648-2.418,3.61,3.61,0,0,0-.66-2.254,2.1,2.1,0,0,0-1.754-.863,2.075,2.075,0,0,0-1.727.852A3.925,3.925,0,0,0,108.169-4.133Zm12.977,1.891a1.064,1.064,0,0,0-.441-.91,4.249,4.249,0,0,0-1.539-.559,7.277,7.277,0,0,1-1.742-.562,2.479,2.479,0,0,1-.953-.781,1.869,1.869,0,0,1-.309-1.078,2.193,2.193,0,0,1,.879-1.758,3.432,3.432,0,0,1,2.246-.719,3.532,3.532,0,0,1,2.332.742,2.357,2.357,0,0,1,.895,1.9H121.06a1.3,1.3,0,0,0-.5-1.023,1.888,1.888,0,0,0-1.27-.43,1.976,1.976,0,0,0-1.234.344,1.082,1.082,0,0,0-.445.9.877.877,0,0,0,.414.789,5.1,5.1,0,0,0,1.5.508,7.8,7.8,0,0,1,1.754.578,2.558,2.558,0,0,1,1,.809,1.988,1.988,0,0,1,.324,1.152,2.163,2.163,0,0,1-.906,1.816,3.8,3.8,0,0,1-2.352.684,4.257,4.257,0,0,1-1.8-.359,2.922,2.922,0,0,1-1.223-1,2.42,2.42,0,0,1-.441-1.395h1.445a1.5,1.5,0,0,0,.582,1.152,2.258,2.258,0,0,0,1.434.426,2.331,2.331,0,0,0,1.316-.332A1.02,1.02,0,0,0,121.145-2.242Z" transform="translate(1139.925 3924.269)" fill="#3c3c3b"/>
    <path id="Trazado_1016883" data-name="Trazado 1016883" d="M1.32,0V-11.375H4.531a5.169,5.169,0,0,1,2.625.656A4.438,4.438,0,0,1,8.918-8.852,6.078,6.078,0,0,1,9.547-6.07v.727a6.1,6.1,0,0,1-.621,2.82A4.369,4.369,0,0,1,7.152-.664,5.5,5.5,0,0,1,4.469,0Zm1.5-10.148v8.922H4.4A3.434,3.434,0,0,0,7.1-2.306a4.458,4.458,0,0,0,.965-3.073v-.665a4.529,4.529,0,0,0-.91-3.014A3.239,3.239,0,0,0,4.57-10.148ZM11.2-4.3a4.993,4.993,0,0,1,.488-2.234A3.643,3.643,0,0,1,13.051-8.07a3.7,3.7,0,0,1,1.988-.539,3.565,3.565,0,0,1,2.793,1.2A4.6,4.6,0,0,1,18.9-4.234v.1a5.036,5.036,0,0,1-.473,2.215A3.589,3.589,0,0,1,17.074-.391a3.743,3.743,0,0,1-2.02.547,3.556,3.556,0,0,1-2.785-1.2A4.575,4.575,0,0,1,11.2-4.2Zm1.453.172a3.616,3.616,0,0,0,.652,2.258,2.088,2.088,0,0,0,1.746.852,2.075,2.075,0,0,0,1.75-.863A3.955,3.955,0,0,0,17.453-4.3a3.61,3.61,0,0,0-.66-2.254,2.1,2.1,0,0,0-1.754-.863,2.075,2.075,0,0,0-1.727.852A3.925,3.925,0,0,0,12.656-4.133Zm15.211,0a5.026,5.026,0,0,1-.891,3.113A2.846,2.846,0,0,1,24.586.156,2.947,2.947,0,0,1,22.109-.977L22.039,0H20.711V-12h1.445v4.477A2.93,2.93,0,0,1,24.57-8.609a2.863,2.863,0,0,1,2.418,1.164,5.177,5.177,0,0,1,.879,3.188ZM26.422-4.3a3.906,3.906,0,0,0-.57-2.281,1.888,1.888,0,0,0-1.641-.8,2.122,2.122,0,0,0-2.055,1.328V-2.4a2.181,2.181,0,0,0,2.07,1.328,1.878,1.878,0,0,0,1.617-.8A4.153,4.153,0,0,0,26.422-4.3ZM31.258,0H29.813V-12h1.445Zm7.531,0a3.036,3.036,0,0,1-.2-.891A3.225,3.225,0,0,1,36.18.156a2.984,2.984,0,0,1-2.051-.707,2.287,2.287,0,0,1-.8-1.793,2.39,2.39,0,0,1,1-2.051,4.733,4.733,0,0,1,2.824-.73h1.406v-.664A1.623,1.623,0,0,0,38.109-7a1.821,1.821,0,0,0-1.336-.449,2.107,2.107,0,0,0-1.3.391,1.151,1.151,0,0,0-.523.945H33.5a2,2,0,0,1,.449-1.223,3.066,3.066,0,0,1,1.219-.934,4.1,4.1,0,0,1,1.691-.344,3.342,3.342,0,0,1,2.289.73,2.635,2.635,0,0,1,.859,2.012v3.891a4.757,4.757,0,0,0,.3,1.852V0Zm-2.4-1.1a2.54,2.54,0,0,0,1.289-.352,2.127,2.127,0,0,0,.883-.914V-4.1H37.43q-2.656,0-2.656,1.555a1.316,1.316,0,0,0,.453,1.063A1.742,1.742,0,0,0,36.391-1.1Zm5.531-3.2a4.952,4.952,0,0,1,.922-3.129,2.915,2.915,0,0,1,2.414-1.184,2.932,2.932,0,0,1,2.352,1.016V-12h1.445V0H47.727l-.07-.906A2.943,2.943,0,0,1,45.242.156a2.887,2.887,0,0,1-2.395-1.2,5.008,5.008,0,0,1-.926-3.141Zm1.445.164a3.749,3.749,0,0,0,.594,2.25A1.92,1.92,0,0,0,45.6-1.07,2.108,2.108,0,0,0,47.609-2.3V-6.187a2.125,2.125,0,0,0-1.992-1.2,1.929,1.929,0,0,0-1.656.82A4.128,4.128,0,0,0,43.367-4.133ZM52.867,0H51.422V-8.453h1.445ZM51.3-10.7a.863.863,0,0,1,.215-.594.807.807,0,0,1,.637-.242.819.819,0,0,1,.641.242.854.854,0,0,1,.219.594.826.826,0,0,1-.219.586.834.834,0,0,1-.641.234.821.821,0,0,1-.637-.234A.834.834,0,0,1,51.3-10.7ZM56.75,0H55.3V-12H56.75Zm3.883,0H59.188V-12h1.445Zm7.531,0a3.036,3.036,0,0,1-.2-.891A3.225,3.225,0,0,1,65.555.156,2.984,2.984,0,0,1,63.5-.551a2.287,2.287,0,0,1-.8-1.793,2.39,2.39,0,0,1,1-2.051,4.733,4.733,0,0,1,2.824-.73h1.406v-.664A1.623,1.623,0,0,0,67.484-7a1.821,1.821,0,0,0-1.336-.449,2.108,2.108,0,0,0-1.3.391,1.151,1.151,0,0,0-.523.945H62.875a2,2,0,0,1,.449-1.223,3.066,3.066,0,0,1,1.219-.934,4.1,4.1,0,0,1,1.691-.344,3.342,3.342,0,0,1,2.289.73,2.635,2.635,0,0,1,.859,2.012v3.891a4.757,4.757,0,0,0,.3,1.852V0Zm-2.4-1.1a2.54,2.54,0,0,0,1.289-.352,2.127,2.127,0,0,0,.883-.914V-4.1H66.8q-2.656,0-2.656,1.555A1.316,1.316,0,0,0,64.6-1.484,1.742,1.742,0,0,0,65.766-1.1Zm9.969-6.055a4.331,4.331,0,0,0-.711-.055A1.9,1.9,0,0,0,73.094-6V0H71.648V-8.453h1.406l.023.977a2.251,2.251,0,0,1,2.016-1.133,1.477,1.477,0,0,1,.641.109Zm6.648-1.3.039.938A3.122,3.122,0,0,1,84.93-8.609,2.417,2.417,0,0,1,87.344-7.25a3.2,3.2,0,0,1,1.1-.984,3.242,3.242,0,0,1,1.6-.375q2.781,0,2.828,2.945V0H91.422V-5.578a1.941,1.941,0,0,0-.414-1.355,1.823,1.823,0,0,0-1.391-.449,1.916,1.916,0,0,0-1.336.48,1.949,1.949,0,0,0-.617,1.293V0H86.211V-5.539a1.613,1.613,0,0,0-1.8-1.844,1.934,1.934,0,0,0-1.945,1.211V0H81.016V-8.453ZM100.266,0a3.036,3.036,0,0,1-.2-.891A3.225,3.225,0,0,1,97.656.156a2.984,2.984,0,0,1-2.051-.707,2.288,2.288,0,0,1-.8-1.793,2.39,2.39,0,0,1,1-2.051,4.733,4.733,0,0,1,2.824-.73h1.406v-.664A1.623,1.623,0,0,0,99.586-7a1.821,1.821,0,0,0-1.336-.449,2.108,2.108,0,0,0-1.3.391,1.151,1.151,0,0,0-.523.945H94.977a2,2,0,0,1,.449-1.223,3.066,3.066,0,0,1,1.219-.934,4.1,4.1,0,0,1,1.691-.344,3.342,3.342,0,0,1,2.289.73,2.635,2.635,0,0,1,.859,2.012v3.891a4.757,4.757,0,0,0,.3,1.852V0Zm-2.4-1.1a2.54,2.54,0,0,0,1.289-.352,2.127,2.127,0,0,0,.883-.914V-4.1H98.906q-2.656,0-2.656,1.555A1.316,1.316,0,0,0,96.7-1.484,1.742,1.742,0,0,0,97.867-1.1Zm7.25-7.352.047,1.063A3.08,3.08,0,0,1,107.7-8.609q2.68,0,2.7,3.023V0h-1.445V-5.594a1.946,1.946,0,0,0-.418-1.352,1.675,1.675,0,0,0-1.277-.437,2.086,2.086,0,0,0-1.234.375,2.546,2.546,0,0,0-.828.984V0H103.75V-8.453ZM112.234-4.3a4.968,4.968,0,0,1,.914-3.145,2.923,2.923,0,0,1,2.422-1.168,2.908,2.908,0,0,1,2.414,1.094l.07-.937h1.32V-.2a3.439,3.439,0,0,1-.973,2.586,3.589,3.589,0,0,1-2.613.945A4.348,4.348,0,0,1,114,2.938a3.08,3.08,0,0,1-1.336-1.07l.75-.867a2.826,2.826,0,0,0,2.273,1.148,2.214,2.214,0,0,0,1.645-.594,2.269,2.269,0,0,0,.59-1.672V-.844a2.971,2.971,0,0,1-2.367,1,2.887,2.887,0,0,1-2.4-1.2A5.224,5.224,0,0,1,112.234-4.3Zm1.453.164a3.79,3.79,0,0,0,.586,2.246,1.9,1.9,0,0,0,1.641.816,2.117,2.117,0,0,0,2.008-1.242V-6.172a2.142,2.142,0,0,0-1.992-1.211,1.921,1.921,0,0,0-1.648.82A4.128,4.128,0,0,0,113.688-4.133ZM126.773,0a3.036,3.036,0,0,1-.2-.891A3.225,3.225,0,0,1,124.164.156a2.984,2.984,0,0,1-2.051-.707,2.288,2.288,0,0,1-.8-1.793,2.39,2.39,0,0,1,1-2.051,4.733,4.733,0,0,1,2.824-.73h1.406v-.664A1.623,1.623,0,0,0,126.094-7a1.821,1.821,0,0,0-1.336-.449,2.108,2.108,0,0,0-1.3.391,1.151,1.151,0,0,0-.523.945h-1.453a2,2,0,0,1,.449-1.223,3.066,3.066,0,0,1,1.219-.934,4.1,4.1,0,0,1,1.691-.344,3.342,3.342,0,0,1,2.289.73,2.635,2.635,0,0,1,.859,2.012v3.891a4.757,4.757,0,0,0,.3,1.852V0Zm-2.4-1.1a2.54,2.54,0,0,0,1.289-.352,2.127,2.127,0,0,0,.883-.914V-4.1h-1.133q-2.656,0-2.656,1.555a1.316,1.316,0,0,0,.453,1.063A1.742,1.742,0,0,0,124.375-1.1Zm10.8-1.141a1.064,1.064,0,0,0-.441-.91,4.249,4.249,0,0,0-1.539-.559,7.277,7.277,0,0,1-1.742-.562,2.479,2.479,0,0,1-.953-.781,1.869,1.869,0,0,1-.309-1.078,2.193,2.193,0,0,1,.879-1.758,3.432,3.432,0,0,1,2.246-.719,3.532,3.532,0,0,1,2.332.742,2.357,2.357,0,0,1,.895,1.9h-1.453a1.3,1.3,0,0,0-.5-1.023,1.888,1.888,0,0,0-1.27-.43,1.976,1.976,0,0,0-1.234.344,1.082,1.082,0,0,0-.445.9.877.877,0,0,0,.414.789,5.1,5.1,0,0,0,1.5.508A7.8,7.8,0,0,1,135.3-4.3a2.558,2.558,0,0,1,1,.809,1.988,1.988,0,0,1,.324,1.152,2.163,2.163,0,0,1-.906,1.816,3.8,3.8,0,0,1-2.352.684,4.257,4.257,0,0,1-1.8-.359,2.922,2.922,0,0,1-1.223-1,2.42,2.42,0,0,1-.441-1.395h1.445a1.5,1.5,0,0,0,.582,1.152,2.258,2.258,0,0,0,1.434.426,2.331,2.331,0,0,0,1.316-.332A1.02,1.02,0,0,0,135.18-2.242Z" transform="translate(521.125 3923.261)" fill="#3c3c3b"/>
    <path id="Trazado_1016884" data-name="Trazado 1016884" d="M9.688-3.609A4.185,4.185,0,0,1,8.355-.824a4.365,4.365,0,0,1-2.98.98,4.008,4.008,0,0,1-3.23-1.445A5.815,5.815,0,0,1,.93-5.156V-6.25A6.481,6.481,0,0,1,1.5-9.039,4.231,4.231,0,0,1,3.1-10.887a4.47,4.47,0,0,1,2.406-.645A4.11,4.11,0,0,1,8.414-10.52a4.235,4.235,0,0,1,1.273,2.8H8.18a3.268,3.268,0,0,0-.848-1.975A2.565,2.565,0,0,0,5.508-10.3,2.684,2.684,0,0,0,3.254-9.241a4.882,4.882,0,0,0-.816,3.026v1.1a5.018,5.018,0,0,0,.773,2.948A2.5,2.5,0,0,0,5.375-1.07a2.887,2.887,0,0,0,1.918-.566A3.143,3.143,0,0,0,8.18-3.609ZM15.016.156a3.693,3.693,0,0,1-2.8-1.129,4.19,4.19,0,0,1-1.078-3.02v-.266a5.073,5.073,0,0,1,.48-2.246,3.748,3.748,0,0,1,1.344-1.547,3.378,3.378,0,0,1,1.871-.559A3.166,3.166,0,0,1,17.4-7.523a4.7,4.7,0,0,1,.914,3.109v.6H12.586a3,3,0,0,0,.73,2.02,2.3,2.3,0,0,0,1.777.77,2.517,2.517,0,0,0,1.3-.312,3.259,3.259,0,0,0,.93-.828l.883.688A3.55,3.55,0,0,1,15.016.156Zm-.18-7.578a1.928,1.928,0,0,0-1.469.637A3.1,3.1,0,0,0,12.633-5h4.234v-.109a2.753,2.753,0,0,0-.594-1.707A1.815,1.815,0,0,0,14.836-7.422Zm9.234.266a4.331,4.331,0,0,0-.711-.055A1.9,1.9,0,0,0,21.43-6V0H19.984V-8.453h1.406l.023.977A2.251,2.251,0,0,1,23.43-8.609a1.477,1.477,0,0,1,.641.109Zm5.414,0a4.331,4.331,0,0,0-.711-.055A1.9,1.9,0,0,0,26.844-6V0H25.4V-8.453H26.8l.023.977a2.251,2.251,0,0,1,2.016-1.133,1.477,1.477,0,0,1,.641.109ZM35.719,0a3.036,3.036,0,0,1-.2-.891A3.225,3.225,0,0,1,33.109.156a2.984,2.984,0,0,1-2.051-.707,2.287,2.287,0,0,1-.8-1.793,2.39,2.39,0,0,1,1-2.051,4.733,4.733,0,0,1,2.824-.73h1.406v-.664A1.623,1.623,0,0,0,35.039-7,1.821,1.821,0,0,0,33.7-7.445a2.107,2.107,0,0,0-1.3.391,1.151,1.151,0,0,0-.523.945H30.43a2,2,0,0,1,.449-1.223A3.066,3.066,0,0,1,32.1-8.266a4.1,4.1,0,0,1,1.691-.344,3.342,3.342,0,0,1,2.289.73,2.635,2.635,0,0,1,.859,2.012v3.891a4.757,4.757,0,0,0,.3,1.852V0Zm-2.4-1.1a2.54,2.54,0,0,0,1.289-.352,2.127,2.127,0,0,0,.883-.914V-4.1H34.359Q31.7-4.1,31.7-2.547a1.316,1.316,0,0,0,.453,1.063A1.742,1.742,0,0,0,33.32-1.1Zm9.969-6.055a4.331,4.331,0,0,0-.711-.055A1.9,1.9,0,0,0,40.648-6V0H39.2V-8.453h1.406l.023.977a2.251,2.251,0,0,1,2.016-1.133,1.477,1.477,0,0,1,.641.109Zm6.648-1.3.039.938a3.122,3.122,0,0,1,2.508-1.094A2.417,2.417,0,0,1,54.9-7.25,3.2,3.2,0,0,1,56-8.234a3.242,3.242,0,0,1,1.6-.375q2.781,0,2.828,2.945V0H58.977V-5.578a1.941,1.941,0,0,0-.414-1.355,1.823,1.823,0,0,0-1.391-.449,1.917,1.917,0,0,0-1.336.48,1.949,1.949,0,0,0-.617,1.293V0H53.766V-5.539a1.613,1.613,0,0,0-1.8-1.844,1.934,1.934,0,0,0-1.945,1.211V0H48.57V-8.453ZM67.82,0a3.036,3.036,0,0,1-.2-.891A3.225,3.225,0,0,1,65.211.156,2.984,2.984,0,0,1,63.16-.551a2.287,2.287,0,0,1-.8-1.793,2.39,2.39,0,0,1,1-2.051,4.733,4.733,0,0,1,2.824-.73h1.406v-.664A1.623,1.623,0,0,0,67.141-7,1.821,1.821,0,0,0,65.8-7.445a2.108,2.108,0,0,0-1.3.391,1.151,1.151,0,0,0-.523.945H62.531a2,2,0,0,1,.449-1.223A3.066,3.066,0,0,1,64.2-8.266a4.1,4.1,0,0,1,1.691-.344,3.342,3.342,0,0,1,2.289.73,2.635,2.635,0,0,1,.859,2.012v3.891a4.757,4.757,0,0,0,.3,1.852V0Zm-2.4-1.1a2.54,2.54,0,0,0,1.289-.352,2.127,2.127,0,0,0,.883-.914V-4.1H66.461Q63.8-4.1,63.8-2.547a1.316,1.316,0,0,0,.453,1.063A1.742,1.742,0,0,0,65.422-1.1Zm7.25-7.352.047,1.063A3.08,3.08,0,0,1,75.25-8.609q2.68,0,2.7,3.023V0H76.508V-5.594a1.946,1.946,0,0,0-.418-1.352,1.675,1.675,0,0,0-1.277-.437,2.086,2.086,0,0,0-1.234.375,2.546,2.546,0,0,0-.828.984V0H71.3V-8.453ZM79.789-4.3A4.968,4.968,0,0,1,80.7-7.441a2.923,2.923,0,0,1,2.422-1.168,2.908,2.908,0,0,1,2.414,1.094l.07-.937h1.32V-.2a3.439,3.439,0,0,1-.973,2.586,3.589,3.589,0,0,1-2.613.945,4.348,4.348,0,0,1-1.789-.391,3.08,3.08,0,0,1-1.336-1.07L80.969,1a2.826,2.826,0,0,0,2.273,1.148,2.214,2.214,0,0,0,1.645-.594,2.269,2.269,0,0,0,.59-1.672V-.844a2.971,2.971,0,0,1-2.367,1,2.887,2.887,0,0,1-2.4-1.2A5.224,5.224,0,0,1,79.789-4.3Zm1.453.164a3.79,3.79,0,0,0,.586,2.246,1.9,1.9,0,0,0,1.641.816,2.117,2.117,0,0,0,2.008-1.242V-6.172a2.142,2.142,0,0,0-1.992-1.211,1.921,1.921,0,0,0-1.648.82A4.128,4.128,0,0,0,81.242-4.133ZM94.328,0a3.036,3.036,0,0,1-.2-.891A3.225,3.225,0,0,1,91.719.156a2.984,2.984,0,0,1-2.051-.707,2.288,2.288,0,0,1-.8-1.793,2.39,2.39,0,0,1,1-2.051,4.733,4.733,0,0,1,2.824-.73H94.1v-.664A1.623,1.623,0,0,0,93.648-7a1.821,1.821,0,0,0-1.336-.449,2.108,2.108,0,0,0-1.3.391,1.151,1.151,0,0,0-.523.945H89.039a2,2,0,0,1,.449-1.223,3.066,3.066,0,0,1,1.219-.934A4.1,4.1,0,0,1,92.4-8.609a3.342,3.342,0,0,1,2.289.73,2.635,2.635,0,0,1,.859,2.012v3.891a4.757,4.757,0,0,0,.3,1.852V0Zm-2.4-1.1a2.54,2.54,0,0,0,1.289-.352,2.127,2.127,0,0,0,.883-.914V-4.1H92.969q-2.656,0-2.656,1.555a1.316,1.316,0,0,0,.453,1.063A1.742,1.742,0,0,0,91.93-1.1Zm10.8-1.141a1.064,1.064,0,0,0-.441-.91,4.249,4.249,0,0,0-1.539-.559,7.277,7.277,0,0,1-1.742-.562,2.479,2.479,0,0,1-.953-.781,1.869,1.869,0,0,1-.309-1.078,2.193,2.193,0,0,1,.879-1.758,3.432,3.432,0,0,1,2.246-.719,3.532,3.532,0,0,1,2.332.742,2.357,2.357,0,0,1,.895,1.9h-1.453a1.3,1.3,0,0,0-.5-1.023,1.888,1.888,0,0,0-1.27-.43,1.976,1.976,0,0,0-1.234.344,1.082,1.082,0,0,0-.445.9.877.877,0,0,0,.414.789,5.1,5.1,0,0,0,1.5.508,7.8,7.8,0,0,1,1.754.578,2.558,2.558,0,0,1,1,.809,1.988,1.988,0,0,1,.324,1.152,2.163,2.163,0,0,1-.906,1.816,3.8,3.8,0,0,1-2.352.684,4.257,4.257,0,0,1-1.8-.359,2.922,2.922,0,0,1-1.223-1A2.42,2.42,0,0,1,97.461-2.6h1.445a1.5,1.5,0,0,0,.582,1.152,2.258,2.258,0,0,0,1.434.426,2.331,2.331,0,0,0,1.316-.332A1.02,1.02,0,0,0,102.734-2.242Z" transform="translate(521.125 3980.813)" fill="#3c3c3b"/>
    <path id="Trazado_1016885" data-name="Trazado 1016885" d="M7.594-5.023H2.82V0H1.32V-11.375H8.367v1.227H2.82v3.9H7.594ZM11.508,0H10.063V-8.453h1.445ZM9.945-10.7a.863.863,0,0,1,.215-.594.807.807,0,0,1,.637-.242.819.819,0,0,1,.641.242.854.854,0,0,1,.219.594.826.826,0,0,1-.219.586.834.834,0,0,1-.641.234.821.821,0,0,1-.637-.234A.834.834,0,0,1,9.945-10.7Zm5.367,2.242V.977q0,2.437-2.211,2.438a2.7,2.7,0,0,1-.883-.14V2.125a2.794,2.794,0,0,0,.656.063.982.982,0,0,0,.738-.262,1.3,1.3,0,0,0,.254-.911V-8.453ZM13.719-10.7a.867.867,0,0,1,.215-.59.79.79,0,0,1,.629-.246.819.819,0,0,1,.641.242.854.854,0,0,1,.219.594.826.826,0,0,1-.219.586.834.834,0,0,1-.641.234.808.808,0,0,1-.633-.234A.843.843,0,0,1,13.719-10.7ZM22.859,0a3.036,3.036,0,0,1-.2-.891A3.225,3.225,0,0,1,20.25.156,2.984,2.984,0,0,1,18.2-.551a2.287,2.287,0,0,1-.8-1.793,2.39,2.39,0,0,1,1-2.051,4.733,4.733,0,0,1,2.824-.73h1.406v-.664A1.623,1.623,0,0,0,22.18-7a1.821,1.821,0,0,0-1.336-.449,2.108,2.108,0,0,0-1.3.391,1.151,1.151,0,0,0-.523.945H17.57a2,2,0,0,1,.449-1.223,3.066,3.066,0,0,1,1.219-.934,4.1,4.1,0,0,1,1.691-.344,3.342,3.342,0,0,1,2.289.73,2.635,2.635,0,0,1,.859,2.012v3.891a4.757,4.757,0,0,0,.3,1.852V0Zm-2.4-1.1a2.54,2.54,0,0,0,1.289-.352,2.127,2.127,0,0,0,.883-.914V-4.1H21.5q-2.656,0-2.656,1.555A1.316,1.316,0,0,0,19.3-1.484,1.742,1.742,0,0,0,20.461-1.1ZM30.43-7.156a4.331,4.331,0,0,0-.711-.055A1.9,1.9,0,0,0,27.789-6V0H26.344V-8.453H27.75l.023.977a2.251,2.251,0,0,1,2.016-1.133,1.477,1.477,0,0,1,.641.109ZM37.68-10.5v2.047h1.578v1.117H37.68v5.249a1.173,1.173,0,0,0,.211.763.888.888,0,0,0,.719.254,3.5,3.5,0,0,0,.688-.094V0a4.215,4.215,0,0,1-1.109.155A1.8,1.8,0,0,1,36.727-.43a2.517,2.517,0,0,1-.492-1.664V-7.336H34.7V-8.453h1.539V-10.5ZM46.164,0a3.036,3.036,0,0,1-.2-.891A3.225,3.225,0,0,1,43.555.156,2.984,2.984,0,0,1,41.5-.551a2.287,2.287,0,0,1-.8-1.793,2.39,2.39,0,0,1,1-2.051,4.733,4.733,0,0,1,2.824-.73h1.406v-.664A1.623,1.623,0,0,0,45.484-7a1.821,1.821,0,0,0-1.336-.449,2.107,2.107,0,0,0-1.3.391,1.151,1.151,0,0,0-.523.945H40.875a2,2,0,0,1,.449-1.223,3.066,3.066,0,0,1,1.219-.934,4.1,4.1,0,0,1,1.691-.344,3.342,3.342,0,0,1,2.289.73,2.635,2.635,0,0,1,.859,2.012v3.891a4.757,4.757,0,0,0,.3,1.852V0Zm-2.4-1.1a2.54,2.54,0,0,0,1.289-.352,2.127,2.127,0,0,0,.883-.914V-4.1H44.8q-2.656,0-2.656,1.555A1.316,1.316,0,0,0,42.6-1.484,1.742,1.742,0,0,0,43.766-1.1ZM51.219,0H49.773V-12h1.445ZM55.1,0H53.656V-12H55.1Zm7.531,0a3.036,3.036,0,0,1-.2-.891A3.225,3.225,0,0,1,60.023.156a2.984,2.984,0,0,1-2.051-.707,2.287,2.287,0,0,1-.8-1.793,2.39,2.39,0,0,1,1-2.051A4.733,4.733,0,0,1,61-5.125h1.406v-.664A1.623,1.623,0,0,0,61.953-7a1.821,1.821,0,0,0-1.336-.449,2.107,2.107,0,0,0-1.3.391,1.151,1.151,0,0,0-.523.945H57.344a2,2,0,0,1,.449-1.223,3.066,3.066,0,0,1,1.219-.934A4.1,4.1,0,0,1,60.7-8.609a3.342,3.342,0,0,1,2.289.73,2.635,2.635,0,0,1,.859,2.012v3.891a4.757,4.757,0,0,0,.3,1.852V0Zm-2.4-1.1a2.54,2.54,0,0,0,1.289-.352,2.127,2.127,0,0,0,.883-.914V-4.1H61.273q-2.656,0-2.656,1.555a1.316,1.316,0,0,0,.453,1.063A1.742,1.742,0,0,0,60.234-1.1Z" transform="translate(1139.925 4036.749)" fill="#3c3c3b"/>
    <path id="Trazado_1016886" data-name="Trazado 1016886" d="M2.82-4.453V0H1.32V-11.375h4.2a4.215,4.215,0,0,1,2.926.953A3.231,3.231,0,0,1,9.5-7.9,3.189,3.189,0,0,1,8.465-5.348,4.4,4.4,0,0,1,5.5-4.453Zm0-1.227h2.7a2.7,2.7,0,0,0,1.844-.567A2.075,2.075,0,0,0,8-7.887a2.143,2.143,0,0,0-.641-1.628A2.525,2.525,0,0,0,5.6-10.148H2.82ZM14.6.156A3.693,3.693,0,0,1,11.8-.973a4.19,4.19,0,0,1-1.078-3.02v-.266A5.073,5.073,0,0,1,11.2-6.5a3.748,3.748,0,0,1,1.344-1.547,3.378,3.378,0,0,1,1.871-.559,3.166,3.166,0,0,1,2.562,1.086A4.7,4.7,0,0,1,17.9-4.414v.6H12.17a3,3,0,0,0,.73,2.02,2.3,2.3,0,0,0,1.777.77,2.517,2.517,0,0,0,1.3-.312,3.259,3.259,0,0,0,.93-.828l.883.688A3.55,3.55,0,0,1,14.6.156Zm-.18-7.578a1.928,1.928,0,0,0-1.469.637A3.1,3.1,0,0,0,12.217-5h4.234v-.109a2.753,2.753,0,0,0-.594-1.707A1.815,1.815,0,0,0,14.42-7.422Zm4.8,3.125a4.968,4.968,0,0,1,.914-3.145A2.923,2.923,0,0,1,22.56-8.609a2.908,2.908,0,0,1,2.414,1.094l.07-.937h1.32V-.2a3.439,3.439,0,0,1-.973,2.586,3.589,3.589,0,0,1-2.613.945,4.348,4.348,0,0,1-1.789-.391,3.08,3.08,0,0,1-1.336-1.07L20.4,1a2.826,2.826,0,0,0,2.273,1.148,2.214,2.214,0,0,0,1.645-.594,2.269,2.269,0,0,0,.59-1.672V-.844a2.971,2.971,0,0,1-2.367,1,2.887,2.887,0,0,1-2.4-1.2A5.224,5.224,0,0,1,19.224-4.3Zm1.453.164a3.79,3.79,0,0,0,.586,2.246A1.9,1.9,0,0,0,22.9-1.07a2.117,2.117,0,0,0,2.008-1.242V-6.172A2.142,2.142,0,0,0,22.92-7.383a1.921,1.921,0,0,0-1.648.82A4.128,4.128,0,0,0,20.677-4.133ZM33.763,0a3.036,3.036,0,0,1-.2-.891A3.225,3.225,0,0,1,31.154.156,2.984,2.984,0,0,1,29.1-.551a2.287,2.287,0,0,1-.8-1.793,2.39,2.39,0,0,1,1-2.051,4.733,4.733,0,0,1,2.824-.73h1.406v-.664A1.623,1.623,0,0,0,33.084-7a1.821,1.821,0,0,0-1.336-.449,2.108,2.108,0,0,0-1.3.391,1.151,1.151,0,0,0-.523.945H28.474a2,2,0,0,1,.449-1.223,3.066,3.066,0,0,1,1.219-.934,4.1,4.1,0,0,1,1.691-.344,3.342,3.342,0,0,1,2.289.73,2.635,2.635,0,0,1,.859,2.012v3.891a4.757,4.757,0,0,0,.3,1.852V0Zm-2.4-1.1a2.54,2.54,0,0,0,1.289-.352,2.127,2.127,0,0,0,.883-.914V-4.1H32.4q-2.656,0-2.656,1.555A1.316,1.316,0,0,0,30.2-1.484,1.742,1.742,0,0,0,31.365-1.1Zm9.969-6.055a4.331,4.331,0,0,0-.711-.055A1.9,1.9,0,0,0,38.693-6V0H37.248V-8.453h1.406l.023.977a2.251,2.251,0,0,1,2.016-1.133,1.477,1.477,0,0,1,.641.109Zm8.68,6.133a2.082,2.082,0,0,0,1.352-.469,1.649,1.649,0,0,0,.641-1.172h1.367a2.621,2.621,0,0,1-.5,1.383,3.293,3.293,0,0,1-1.23,1.047,3.55,3.55,0,0,1-1.629.391A3.482,3.482,0,0,1,47.267-1a4.59,4.59,0,0,1-1.02-3.152v-.242a5.089,5.089,0,0,1,.453-2.2A3.451,3.451,0,0,1,48-8.078a3.7,3.7,0,0,1,2-.531,3.39,3.39,0,0,1,2.363.852,3.043,3.043,0,0,1,1,2.211H52.006a1.992,1.992,0,0,0-.621-1.348,1.932,1.932,0,0,0-1.379-.527,2.023,2.023,0,0,0-1.707.793,3.724,3.724,0,0,0-.605,2.293v.273a3.65,3.65,0,0,0,.6,2.25A2.033,2.033,0,0,0,50.013-1.023Zm10.2.188A3.07,3.07,0,0,1,57.74.156a2.628,2.628,0,0,1-2.059-.785,3.4,3.4,0,0,1-.715-2.324v-5.5h1.445v5.461q0,1.922,1.563,1.922a2.163,2.163,0,0,0,2.2-1.234V-8.453h1.445V0H60.248Zm7.109.992a3.693,3.693,0,0,1-2.8-1.129,4.19,4.19,0,0,1-1.078-3.02v-.266a5.073,5.073,0,0,1,.48-2.246,3.748,3.748,0,0,1,1.344-1.547,3.378,3.378,0,0,1,1.871-.559,3.166,3.166,0,0,1,2.563,1.086,4.7,4.7,0,0,1,.914,3.109v.6H64.9a3,3,0,0,0,.73,2.02,2.3,2.3,0,0,0,1.777.77,2.517,2.517,0,0,0,1.3-.312,3.259,3.259,0,0,0,.93-.828l.883.688A3.55,3.55,0,0,1,67.326.156Zm-.18-7.578a1.928,1.928,0,0,0-1.469.637A3.1,3.1,0,0,0,64.943-5h4.234v-.109a2.753,2.753,0,0,0-.594-1.707A1.815,1.815,0,0,0,67.146-7.422ZM73.865,0H72.42V-12h1.445Zm3.883,0H76.3V-12h1.445Zm1.93-4.3a4.993,4.993,0,0,1,.488-2.234A3.643,3.643,0,0,1,81.525-8.07a3.7,3.7,0,0,1,1.988-.539,3.565,3.565,0,0,1,2.793,1.2,4.6,4.6,0,0,1,1.066,3.18v.1A5.036,5.036,0,0,1,86.9-1.918,3.589,3.589,0,0,1,85.549-.391a3.743,3.743,0,0,1-2.02.547,3.556,3.556,0,0,1-2.785-1.2A4.575,4.575,0,0,1,79.677-4.2Zm1.453.172a3.616,3.616,0,0,0,.652,2.258,2.088,2.088,0,0,0,1.746.852,2.075,2.075,0,0,0,1.75-.863A3.955,3.955,0,0,0,85.927-4.3a3.61,3.61,0,0,0-.66-2.254,2.1,2.1,0,0,0-1.754-.863,2.075,2.075,0,0,0-1.727.852A3.925,3.925,0,0,0,81.131-4.133Z" transform="translate(1139.925 4133.229)" fill="#3c3c3b"/>
    <path id="Trazado_1016887" data-name="Trazado 1016887" d="M2.82-4.453V0H1.32V-11.375h4.2a4.215,4.215,0,0,1,2.926.953A3.231,3.231,0,0,1,9.5-7.9,3.189,3.189,0,0,1,8.465-5.348,4.4,4.4,0,0,1,5.5-4.453Zm0-1.227h2.7a2.7,2.7,0,0,0,1.844-.567A2.075,2.075,0,0,0,8-7.887a2.143,2.143,0,0,0-.641-1.628A2.525,2.525,0,0,0,5.6-10.148H2.82ZM14.6.156A3.693,3.693,0,0,1,11.8-.973a4.19,4.19,0,0,1-1.078-3.02v-.266A5.073,5.073,0,0,1,11.2-6.5a3.748,3.748,0,0,1,1.344-1.547,3.378,3.378,0,0,1,1.871-.559,3.166,3.166,0,0,1,2.562,1.086A4.7,4.7,0,0,1,17.9-4.414v.6H12.17a3,3,0,0,0,.73,2.02,2.3,2.3,0,0,0,1.777.77,2.517,2.517,0,0,0,1.3-.312,3.259,3.259,0,0,0,.93-.828l.883.688A3.55,3.55,0,0,1,14.6.156Zm-.18-7.578a1.928,1.928,0,0,0-1.469.637A3.1,3.1,0,0,0,12.217-5h4.234v-.109a2.753,2.753,0,0,0-.594-1.707A1.815,1.815,0,0,0,14.42-7.422Zm10.07,5.18a1.064,1.064,0,0,0-.441-.91,4.249,4.249,0,0,0-1.539-.559,7.277,7.277,0,0,1-1.742-.562,2.479,2.479,0,0,1-.953-.781,1.869,1.869,0,0,1-.309-1.078,2.193,2.193,0,0,1,.879-1.758,3.432,3.432,0,0,1,2.246-.719,3.532,3.532,0,0,1,2.332.742,2.357,2.357,0,0,1,.895,1.9H24.4a1.3,1.3,0,0,0-.5-1.023,1.888,1.888,0,0,0-1.27-.43,1.976,1.976,0,0,0-1.234.344,1.082,1.082,0,0,0-.445.9.877.877,0,0,0,.414.789,5.1,5.1,0,0,0,1.5.508,7.8,7.8,0,0,1,1.754.578,2.558,2.558,0,0,1,1,.809,1.988,1.988,0,0,1,.324,1.152,2.163,2.163,0,0,1-.906,1.816,3.8,3.8,0,0,1-2.352.684,4.257,4.257,0,0,1-1.8-.359,2.922,2.922,0,0,1-1.223-1A2.42,2.42,0,0,1,19.216-2.6h1.445a1.5,1.5,0,0,0,.582,1.152,2.258,2.258,0,0,0,1.434.426,2.331,2.331,0,0,0,1.316-.332A1.02,1.02,0,0,0,24.49-2.242ZM34.959-4.133a5.062,5.062,0,0,1-.883,3.109A2.829,2.829,0,0,1,31.685.156,3.1,3.1,0,0,1,29.263-.82V3.25H27.818v-11.7h1.32l.07.938a2.977,2.977,0,0,1,2.453-1.094,2.882,2.882,0,0,1,2.41,1.148,5.117,5.117,0,0,1,.887,3.2ZM33.513-4.3A3.735,3.735,0,0,0,32.9-6.555a1.963,1.963,0,0,0-1.672-.828,2.125,2.125,0,0,0-1.969,1.164V-2.18a2.129,2.129,0,0,0,1.984,1.156A1.954,1.954,0,0,0,32.9-1.848,4.077,4.077,0,0,0,33.513-4.3Zm8.5,3.461a3.07,3.07,0,0,1-2.477.992,2.628,2.628,0,0,1-2.059-.785,3.4,3.4,0,0,1-.715-2.324v-5.5h1.445v5.461q0,1.922,1.563,1.922a2.163,2.163,0,0,0,2.2-1.234V-8.453H43.42V0H42.045Zm4.969-7.617.047,1.063A3.08,3.08,0,0,1,49.56-8.609q2.68,0,2.7,3.023V0H50.818V-5.594A1.946,1.946,0,0,0,50.4-6.945a1.675,1.675,0,0,0-1.277-.437,2.086,2.086,0,0,0-1.234.375,2.546,2.546,0,0,0-.828.984V0H45.615V-8.453ZM56.4-10.5v2.047h1.578v1.117H56.4v5.249a1.173,1.173,0,0,0,.211.763.888.888,0,0,0,.719.254,3.5,3.5,0,0,0,.688-.094V0a4.215,4.215,0,0,1-1.109.155A1.8,1.8,0,0,1,55.451-.43a2.517,2.517,0,0,1-.492-1.664V-7.336H53.42V-8.453h1.539V-10.5ZM64.888,0a3.036,3.036,0,0,1-.2-.891A3.225,3.225,0,0,1,62.279.156a2.984,2.984,0,0,1-2.051-.707,2.287,2.287,0,0,1-.8-1.793,2.39,2.39,0,0,1,1-2.051,4.733,4.733,0,0,1,2.824-.73h1.406v-.664A1.623,1.623,0,0,0,64.209-7a1.821,1.821,0,0,0-1.336-.449,2.107,2.107,0,0,0-1.3.391,1.151,1.151,0,0,0-.523.945H59.6a2,2,0,0,1,.449-1.223,3.066,3.066,0,0,1,1.219-.934,4.1,4.1,0,0,1,1.691-.344,3.342,3.342,0,0,1,2.289.73,2.635,2.635,0,0,1,.859,2.012v3.891a4.757,4.757,0,0,0,.3,1.852V0Zm-2.4-1.1a2.54,2.54,0,0,0,1.289-.352,2.127,2.127,0,0,0,.883-.914V-4.1H63.529q-2.656,0-2.656,1.555a1.316,1.316,0,0,0,.453,1.063A1.742,1.742,0,0,0,62.49-1.1Zm9.969-6.055a4.331,4.331,0,0,0-.711-.055A1.9,1.9,0,0,0,69.818-6V0H68.373V-8.453h1.406l.023.977a2.251,2.251,0,0,1,2.016-1.133,1.477,1.477,0,0,1,.641.109Zm8.68,6.133a2.082,2.082,0,0,0,1.352-.469,1.649,1.649,0,0,0,.641-1.172H84.5A2.621,2.621,0,0,1,84-1.281a3.293,3.293,0,0,1-1.23,1.047,3.55,3.55,0,0,1-1.629.391A3.482,3.482,0,0,1,78.392-1a4.59,4.59,0,0,1-1.02-3.152v-.242a5.089,5.089,0,0,1,.453-2.2,3.451,3.451,0,0,1,1.3-1.492,3.7,3.7,0,0,1,2-.531,3.39,3.39,0,0,1,2.363.852,3.043,3.043,0,0,1,1,2.211H83.131a1.992,1.992,0,0,0-.621-1.348,1.932,1.932,0,0,0-1.379-.527,2.023,2.023,0,0,0-1.707.793,3.724,3.724,0,0,0-.605,2.293v.273a3.65,3.65,0,0,0,.6,2.25A2.033,2.033,0,0,0,81.138-1.023Zm10.2.188a3.07,3.07,0,0,1-2.477.992,2.628,2.628,0,0,1-2.059-.785,3.4,3.4,0,0,1-.715-2.324v-5.5h1.445v5.461q0,1.922,1.563,1.922A2.163,2.163,0,0,0,91.3-2.3V-8.453h1.445V0H91.373Zm7.109.992a3.693,3.693,0,0,1-2.8-1.129,4.19,4.19,0,0,1-1.078-3.02v-.266a5.073,5.073,0,0,1,.48-2.246A3.748,3.748,0,0,1,96.4-8.051a3.378,3.378,0,0,1,1.871-.559,3.166,3.166,0,0,1,2.563,1.086,4.7,4.7,0,0,1,.914,3.109v.6H96.021a3,3,0,0,0,.73,2.02,2.3,2.3,0,0,0,1.777.77,2.517,2.517,0,0,0,1.3-.312,3.259,3.259,0,0,0,.93-.828l.883.688A3.55,3.55,0,0,1,98.451.156Zm-.18-7.578a1.928,1.928,0,0,0-1.469.637A3.1,3.1,0,0,0,96.068-5H100.3v-.109a2.753,2.753,0,0,0-.594-1.707A1.815,1.815,0,0,0,98.271-7.422ZM104.99,0h-1.445V-12h1.445Zm3.883,0h-1.445V-12h1.445Zm1.93-4.3a4.993,4.993,0,0,1,.488-2.234A3.643,3.643,0,0,1,112.65-8.07a3.7,3.7,0,0,1,1.988-.539,3.565,3.565,0,0,1,2.793,1.2,4.6,4.6,0,0,1,1.066,3.18v.1a5.036,5.036,0,0,1-.473,2.215,3.589,3.589,0,0,1-1.352,1.527,3.743,3.743,0,0,1-2.02.547,3.556,3.556,0,0,1-2.785-1.2A4.575,4.575,0,0,1,110.8-4.2Zm1.453.172a3.616,3.616,0,0,0,.652,2.258,2.088,2.088,0,0,0,1.746.852,2.075,2.075,0,0,0,1.75-.863,3.955,3.955,0,0,0,.648-2.418,3.61,3.61,0,0,0-.66-2.254,2.1,2.1,0,0,0-1.754-.863,2.075,2.075,0,0,0-1.727.852A3.925,3.925,0,0,0,112.256-4.133Z" transform="translate(1139.925 4205.501)" fill="#3c3c3b"/>
    <path id="Trazado_1016888" data-name="Trazado 1016888" d="M9.688-3.609A4.185,4.185,0,0,1,8.355-.824a4.365,4.365,0,0,1-2.98.98,4.008,4.008,0,0,1-3.23-1.445A5.815,5.815,0,0,1,.93-5.156V-6.25A6.481,6.481,0,0,1,1.5-9.039,4.231,4.231,0,0,1,3.1-10.887a4.47,4.47,0,0,1,2.406-.645A4.11,4.11,0,0,1,8.414-10.52a4.235,4.235,0,0,1,1.273,2.8H8.18a3.268,3.268,0,0,0-.848-1.975A2.565,2.565,0,0,0,5.508-10.3,2.684,2.684,0,0,0,3.254-9.241a4.882,4.882,0,0,0-.816,3.026v1.1a5.018,5.018,0,0,0,.773,2.948A2.5,2.5,0,0,0,5.375-1.07a2.887,2.887,0,0,0,1.918-.566A3.143,3.143,0,0,0,8.18-3.609ZM15.016.156a3.693,3.693,0,0,1-2.8-1.129,4.19,4.19,0,0,1-1.078-3.02v-.266a5.073,5.073,0,0,1,.48-2.246,3.748,3.748,0,0,1,1.344-1.547,3.378,3.378,0,0,1,1.871-.559A3.166,3.166,0,0,1,17.4-7.523a4.7,4.7,0,0,1,.914,3.109v.6H12.586a3,3,0,0,0,.73,2.02,2.3,2.3,0,0,0,1.777.77,2.517,2.517,0,0,0,1.3-.312,3.259,3.259,0,0,0,.93-.828l.883.688A3.55,3.55,0,0,1,15.016.156Zm-.18-7.578a1.928,1.928,0,0,0-1.469.637A3.1,3.1,0,0,0,12.633-5h4.234v-.109a2.753,2.753,0,0,0-.594-1.707A1.815,1.815,0,0,0,14.836-7.422Zm9.234.266a4.331,4.331,0,0,0-.711-.055A1.9,1.9,0,0,0,21.43-6V0H19.984V-8.453h1.406l.023.977A2.251,2.251,0,0,1,23.43-8.609a1.477,1.477,0,0,1,.641.109Zm5.414,0a4.331,4.331,0,0,0-.711-.055A1.9,1.9,0,0,0,26.844-6V0H25.4V-8.453H26.8l.023.977a2.251,2.251,0,0,1,2.016-1.133,1.477,1.477,0,0,1,.641.109ZM35.719,0a3.036,3.036,0,0,1-.2-.891A3.225,3.225,0,0,1,33.109.156a2.984,2.984,0,0,1-2.051-.707,2.287,2.287,0,0,1-.8-1.793,2.39,2.39,0,0,1,1-2.051,4.733,4.733,0,0,1,2.824-.73h1.406v-.664A1.623,1.623,0,0,0,35.039-7,1.821,1.821,0,0,0,33.7-7.445a2.107,2.107,0,0,0-1.3.391,1.151,1.151,0,0,0-.523.945H30.43a2,2,0,0,1,.449-1.223A3.066,3.066,0,0,1,32.1-8.266a4.1,4.1,0,0,1,1.691-.344,3.342,3.342,0,0,1,2.289.73,2.635,2.635,0,0,1,.859,2.012v3.891a4.757,4.757,0,0,0,.3,1.852V0Zm-2.4-1.1a2.54,2.54,0,0,0,1.289-.352,2.127,2.127,0,0,0,.883-.914V-4.1H34.359Q31.7-4.1,31.7-2.547a1.316,1.316,0,0,0,.453,1.063A1.742,1.742,0,0,0,33.32-1.1Zm9.969-6.055a4.331,4.331,0,0,0-.711-.055A1.9,1.9,0,0,0,40.648-6V0H39.2V-8.453h1.406l.023.977a2.251,2.251,0,0,1,2.016-1.133,1.477,1.477,0,0,1,.641.109Zm8.68,6.133a2.082,2.082,0,0,0,1.352-.469,1.649,1.649,0,0,0,.641-1.172h1.367a2.621,2.621,0,0,1-.5,1.383A3.293,3.293,0,0,1,53.6-.234a3.55,3.55,0,0,1-1.629.391A3.482,3.482,0,0,1,49.223-1,4.59,4.59,0,0,1,48.2-4.148v-.242a5.089,5.089,0,0,1,.453-2.2,3.451,3.451,0,0,1,1.3-1.492,3.7,3.7,0,0,1,2-.531,3.39,3.39,0,0,1,2.363.852,3.043,3.043,0,0,1,1,2.211H53.961a1.992,1.992,0,0,0-.621-1.348,1.932,1.932,0,0,0-1.379-.527,2.023,2.023,0,0,0-1.707.793,3.724,3.724,0,0,0-.605,2.293v.273a3.65,3.65,0,0,0,.6,2.25A2.033,2.033,0,0,0,51.969-1.023ZM56.57-4.3a4.993,4.993,0,0,1,.488-2.234A3.643,3.643,0,0,1,58.418-8.07a3.7,3.7,0,0,1,1.988-.539,3.565,3.565,0,0,1,2.793,1.2,4.6,4.6,0,0,1,1.066,3.18v.1a5.036,5.036,0,0,1-.473,2.215A3.589,3.589,0,0,1,62.441-.391a3.743,3.743,0,0,1-2.02.547,3.556,3.556,0,0,1-2.785-1.2A4.575,4.575,0,0,1,56.57-4.2Zm1.453.172a3.616,3.616,0,0,0,.652,2.258,2.088,2.088,0,0,0,1.746.852,2.075,2.075,0,0,0,1.75-.863A3.955,3.955,0,0,0,62.82-4.3a3.61,3.61,0,0,0-.66-2.254,2.1,2.1,0,0,0-1.754-.863,2.075,2.075,0,0,0-1.727.852A3.925,3.925,0,0,0,58.023-4.133ZM71-2.242a1.064,1.064,0,0,0-.441-.91,4.249,4.249,0,0,0-1.539-.559,7.277,7.277,0,0,1-1.742-.562,2.479,2.479,0,0,1-.953-.781,1.869,1.869,0,0,1-.309-1.078,2.193,2.193,0,0,1,.879-1.758,3.432,3.432,0,0,1,2.246-.719,3.532,3.532,0,0,1,2.332.742,2.357,2.357,0,0,1,.895,1.9H70.914a1.3,1.3,0,0,0-.5-1.023,1.888,1.888,0,0,0-1.27-.43,1.976,1.976,0,0,0-1.234.344,1.082,1.082,0,0,0-.445.9.877.877,0,0,0,.414.789,5.1,5.1,0,0,0,1.5.508,7.8,7.8,0,0,1,1.754.578,2.558,2.558,0,0,1,1,.809,1.988,1.988,0,0,1,.324,1.152,2.163,2.163,0,0,1-.906,1.816,3.8,3.8,0,0,1-2.352.684,4.257,4.257,0,0,1-1.8-.359,2.922,2.922,0,0,1-1.223-1A2.42,2.42,0,0,1,65.727-2.6h1.445a1.5,1.5,0,0,0,.582,1.152,2.258,2.258,0,0,0,1.434.426A2.331,2.331,0,0,0,70.5-1.355,1.02,1.02,0,0,0,71-2.242ZM76.289-10.5v2.047h1.578v1.117H76.289v5.249a1.173,1.173,0,0,0,.211.763.888.888,0,0,0,.719.254,3.5,3.5,0,0,0,.688-.094V0A4.215,4.215,0,0,1,76.8.156,1.8,1.8,0,0,1,75.336-.43a2.517,2.517,0,0,1-.492-1.664V-7.336H73.3V-8.453h1.539V-10.5ZM84.773,0a3.036,3.036,0,0,1-.2-.891A3.225,3.225,0,0,1,82.164.156a2.984,2.984,0,0,1-2.051-.707,2.288,2.288,0,0,1-.8-1.793,2.39,2.39,0,0,1,1-2.051,4.733,4.733,0,0,1,2.824-.73h1.406v-.664A1.623,1.623,0,0,0,84.094-7a1.821,1.821,0,0,0-1.336-.449,2.108,2.108,0,0,0-1.3.391,1.151,1.151,0,0,0-.523.945H79.484a2,2,0,0,1,.449-1.223,3.066,3.066,0,0,1,1.219-.934,4.1,4.1,0,0,1,1.691-.344,3.342,3.342,0,0,1,2.289.73,2.635,2.635,0,0,1,.859,2.012v3.891a4.757,4.757,0,0,0,.3,1.852V0Zm-2.4-1.1a2.54,2.54,0,0,0,1.289-.352,2.127,2.127,0,0,0,.883-.914V-4.1H83.414q-2.656,0-2.656,1.555a1.316,1.316,0,0,0,.453,1.063A1.742,1.742,0,0,0,82.375-1.1Zm5.531-3.2a4.952,4.952,0,0,1,.922-3.129,2.915,2.915,0,0,1,2.414-1.184,2.932,2.932,0,0,1,2.352,1.016V-12h1.445V0H93.711l-.07-.906A2.943,2.943,0,0,1,91.227.156a2.887,2.887,0,0,1-2.395-1.2,5.008,5.008,0,0,1-.926-3.141Zm1.445.164a3.749,3.749,0,0,0,.594,2.25,1.92,1.92,0,0,0,1.641.813A2.109,2.109,0,0,0,93.594-2.3V-6.187a2.125,2.125,0,0,0-1.992-1.2,1.929,1.929,0,0,0-1.656.82A4.128,4.128,0,0,0,89.352-4.133ZM96.9-4.3a4.993,4.993,0,0,1,.488-2.234A3.643,3.643,0,0,1,98.746-8.07a3.7,3.7,0,0,1,1.988-.539,3.565,3.565,0,0,1,2.793,1.2,4.6,4.6,0,0,1,1.066,3.18v.1a5.036,5.036,0,0,1-.473,2.215A3.589,3.589,0,0,1,102.77-.391a3.743,3.743,0,0,1-2.02.547,3.556,3.556,0,0,1-2.785-1.2A4.575,4.575,0,0,1,96.9-4.2Zm1.453.172A3.616,3.616,0,0,0,99-1.875a2.088,2.088,0,0,0,1.746.852,2.075,2.075,0,0,0,1.75-.863,3.955,3.955,0,0,0,.648-2.418,3.61,3.61,0,0,0-.66-2.254,2.1,2.1,0,0,0-1.754-.863,2.075,2.075,0,0,0-1.727.852A3.925,3.925,0,0,0,98.352-4.133Z" transform="translate(1139.925 4279.917)" fill="#3c3c3b"/>
    <path id="Trazado_1016889" data-name="Trazado 1016889" d="M2.82-4.453V0H1.32V-11.375h4.2a4.215,4.215,0,0,1,2.926.953A3.231,3.231,0,0,1,9.5-7.9,3.189,3.189,0,0,1,8.465-5.348,4.4,4.4,0,0,1,5.5-4.453Zm0-1.227h2.7a2.7,2.7,0,0,0,1.844-.567A2.075,2.075,0,0,0,8-7.887a2.143,2.143,0,0,0-.641-1.628A2.525,2.525,0,0,0,5.6-10.148H2.82ZM14.6.156A3.693,3.693,0,0,1,11.8-.973a4.19,4.19,0,0,1-1.078-3.02v-.266A5.073,5.073,0,0,1,11.2-6.5a3.748,3.748,0,0,1,1.344-1.547,3.378,3.378,0,0,1,1.871-.559,3.166,3.166,0,0,1,2.562,1.086A4.7,4.7,0,0,1,17.9-4.414v.6H12.17a3,3,0,0,0,.73,2.02,2.3,2.3,0,0,0,1.777.77,2.517,2.517,0,0,0,1.3-.312,3.259,3.259,0,0,0,.93-.828l.883.688A3.55,3.55,0,0,1,14.6.156Zm-.18-7.578a1.928,1.928,0,0,0-1.469.637A3.1,3.1,0,0,0,12.217-5h4.234v-.109a2.753,2.753,0,0,0-.594-1.707A1.815,1.815,0,0,0,14.42-7.422Zm4.8,3.125a4.968,4.968,0,0,1,.914-3.145A2.923,2.923,0,0,1,22.56-8.609a2.908,2.908,0,0,1,2.414,1.094l.07-.937h1.32V-.2a3.439,3.439,0,0,1-.973,2.586,3.589,3.589,0,0,1-2.613.945,4.348,4.348,0,0,1-1.789-.391,3.08,3.08,0,0,1-1.336-1.07L20.4,1a2.826,2.826,0,0,0,2.273,1.148,2.214,2.214,0,0,0,1.645-.594,2.269,2.269,0,0,0,.59-1.672V-.844a2.971,2.971,0,0,1-2.367,1,2.887,2.887,0,0,1-2.4-1.2A5.224,5.224,0,0,1,19.224-4.3Zm1.453.164a3.79,3.79,0,0,0,.586,2.246A1.9,1.9,0,0,0,22.9-1.07a2.117,2.117,0,0,0,2.008-1.242V-6.172A2.142,2.142,0,0,0,22.92-7.383a1.921,1.921,0,0,0-1.648.82A4.128,4.128,0,0,0,20.677-4.133ZM33.763,0a3.036,3.036,0,0,1-.2-.891A3.225,3.225,0,0,1,31.154.156,2.984,2.984,0,0,1,29.1-.551a2.287,2.287,0,0,1-.8-1.793,2.39,2.39,0,0,1,1-2.051,4.733,4.733,0,0,1,2.824-.73h1.406v-.664A1.623,1.623,0,0,0,33.084-7a1.821,1.821,0,0,0-1.336-.449,2.108,2.108,0,0,0-1.3.391,1.151,1.151,0,0,0-.523.945H28.474a2,2,0,0,1,.449-1.223,3.066,3.066,0,0,1,1.219-.934,4.1,4.1,0,0,1,1.691-.344,3.342,3.342,0,0,1,2.289.73,2.635,2.635,0,0,1,.859,2.012v3.891a4.757,4.757,0,0,0,.3,1.852V0Zm-2.4-1.1a2.54,2.54,0,0,0,1.289-.352,2.127,2.127,0,0,0,.883-.914V-4.1H32.4q-2.656,0-2.656,1.555A1.316,1.316,0,0,0,30.2-1.484,1.742,1.742,0,0,0,31.365-1.1Zm9.969-6.055a4.331,4.331,0,0,0-.711-.055A1.9,1.9,0,0,0,38.693-6V0H37.248V-8.453h1.406l.023.977a2.251,2.251,0,0,1,2.016-1.133,1.477,1.477,0,0,1,.641.109Zm6.648-1.3.039.938a3.122,3.122,0,0,1,2.508-1.094A2.417,2.417,0,0,1,52.943-7.25a3.2,3.2,0,0,1,1.1-.984,3.242,3.242,0,0,1,1.6-.375q2.781,0,2.828,2.945V0H57.021V-5.578a1.941,1.941,0,0,0-.414-1.355,1.823,1.823,0,0,0-1.391-.449,1.917,1.917,0,0,0-1.336.48,1.949,1.949,0,0,0-.617,1.293V0H51.81V-5.539a1.613,1.613,0,0,0-1.8-1.844A1.934,1.934,0,0,0,48.06-6.172V0H46.615V-8.453ZM65.865,0a3.036,3.036,0,0,1-.2-.891A3.225,3.225,0,0,1,63.256.156,2.984,2.984,0,0,1,61.2-.551a2.287,2.287,0,0,1-.8-1.793,2.39,2.39,0,0,1,1-2.051,4.733,4.733,0,0,1,2.824-.73h1.406v-.664A1.623,1.623,0,0,0,65.185-7a1.821,1.821,0,0,0-1.336-.449,2.107,2.107,0,0,0-1.3.391,1.151,1.151,0,0,0-.523.945H60.576a2,2,0,0,1,.449-1.223,3.066,3.066,0,0,1,1.219-.934,4.1,4.1,0,0,1,1.691-.344,3.342,3.342,0,0,1,2.289.73,2.635,2.635,0,0,1,.859,2.012v3.891a4.757,4.757,0,0,0,.3,1.852V0Zm-2.4-1.1a2.54,2.54,0,0,0,1.289-.352,2.127,2.127,0,0,0,.883-.914V-4.1H64.506q-2.656,0-2.656,1.555A1.316,1.316,0,0,0,62.3-1.484,1.742,1.742,0,0,0,63.466-1.1Zm7.25-7.352.047,1.063a3.08,3.08,0,0,1,2.531-1.219q2.68,0,2.7,3.023V0H74.552V-5.594a1.946,1.946,0,0,0-.418-1.352,1.675,1.675,0,0,0-1.277-.437,2.086,2.086,0,0,0-1.234.375,2.546,2.546,0,0,0-.828.984V0H69.349V-8.453ZM77.834-4.3a4.968,4.968,0,0,1,.914-3.145A2.923,2.923,0,0,1,81.17-8.609a2.908,2.908,0,0,1,2.414,1.094l.07-.937h1.32V-.2A3.439,3.439,0,0,1,84,2.383a3.589,3.589,0,0,1-2.613.945A4.348,4.348,0,0,1,79.6,2.938a3.08,3.08,0,0,1-1.336-1.07L79.013,1a2.826,2.826,0,0,0,2.273,1.148,2.214,2.214,0,0,0,1.645-.594,2.269,2.269,0,0,0,.59-1.672V-.844a2.971,2.971,0,0,1-2.367,1,2.887,2.887,0,0,1-2.4-1.2A5.224,5.224,0,0,1,77.834-4.3Zm1.453.164a3.79,3.79,0,0,0,.586,2.246,1.9,1.9,0,0,0,1.641.816,2.117,2.117,0,0,0,2.008-1.242V-6.172a2.142,2.142,0,0,0-1.992-1.211,1.921,1.921,0,0,0-1.648.82A4.128,4.128,0,0,0,79.287-4.133ZM92.373,0a3.036,3.036,0,0,1-.2-.891A3.225,3.225,0,0,1,89.763.156a2.984,2.984,0,0,1-2.051-.707,2.288,2.288,0,0,1-.8-1.793,2.39,2.39,0,0,1,1-2.051,4.733,4.733,0,0,1,2.824-.73h1.406v-.664A1.623,1.623,0,0,0,91.693-7a1.821,1.821,0,0,0-1.336-.449,2.108,2.108,0,0,0-1.3.391,1.151,1.151,0,0,0-.523.945H87.084a2,2,0,0,1,.449-1.223,3.066,3.066,0,0,1,1.219-.934,4.1,4.1,0,0,1,1.691-.344,3.342,3.342,0,0,1,2.289.73,2.635,2.635,0,0,1,.859,2.012v3.891a4.757,4.757,0,0,0,.3,1.852V0Zm-2.4-1.1a2.54,2.54,0,0,0,1.289-.352,2.127,2.127,0,0,0,.883-.914V-4.1H91.013q-2.656,0-2.656,1.555a1.316,1.316,0,0,0,.453,1.063A1.742,1.742,0,0,0,89.974-1.1Zm10.8-1.141a1.064,1.064,0,0,0-.441-.91A4.249,4.249,0,0,0,98.8-3.711a7.277,7.277,0,0,1-1.742-.562,2.479,2.479,0,0,1-.953-.781,1.869,1.869,0,0,1-.309-1.078,2.193,2.193,0,0,1,.879-1.758,3.432,3.432,0,0,1,2.246-.719,3.532,3.532,0,0,1,2.332.742,2.357,2.357,0,0,1,.895,1.9h-1.453a1.3,1.3,0,0,0-.5-1.023,1.888,1.888,0,0,0-1.27-.43,1.976,1.976,0,0,0-1.234.344,1.082,1.082,0,0,0-.445.9.877.877,0,0,0,.414.789,5.1,5.1,0,0,0,1.5.508A7.8,7.8,0,0,1,100.9-4.3a2.558,2.558,0,0,1,1,.809,1.988,1.988,0,0,1,.324,1.152,2.163,2.163,0,0,1-.906,1.816,3.8,3.8,0,0,1-2.352.684A4.257,4.257,0,0,1,97.17-.2a2.922,2.922,0,0,1-1.223-1A2.42,2.42,0,0,1,95.506-2.6h1.445a1.5,1.5,0,0,0,.582,1.152,2.258,2.258,0,0,0,1.434.426,2.331,2.331,0,0,0,1.316-.332A1.02,1.02,0,0,0,100.779-2.242Z" transform="translate(1139.925 4352.349)" fill="#3c3c3b"/>
    <path id="Trazado_1016890" data-name="Trazado 1016890" d="M1.32,0V-11.375H4.531a5.169,5.169,0,0,1,2.625.656A4.438,4.438,0,0,1,8.918-8.852,6.078,6.078,0,0,1,9.547-6.07v.727a6.1,6.1,0,0,1-.621,2.82A4.369,4.369,0,0,1,7.152-.664,5.5,5.5,0,0,1,4.469,0Zm1.5-10.148v8.922H4.4A3.434,3.434,0,0,0,7.1-2.306a4.458,4.458,0,0,0,.965-3.073v-.665a4.529,4.529,0,0,0-.91-3.014A3.239,3.239,0,0,0,4.57-10.148ZM11.2-4.3a4.993,4.993,0,0,1,.488-2.234A3.643,3.643,0,0,1,13.051-8.07a3.7,3.7,0,0,1,1.988-.539,3.565,3.565,0,0,1,2.793,1.2A4.6,4.6,0,0,1,18.9-4.234v.1a5.036,5.036,0,0,1-.473,2.215A3.589,3.589,0,0,1,17.074-.391a3.743,3.743,0,0,1-2.02.547,3.556,3.556,0,0,1-2.785-1.2A4.575,4.575,0,0,1,11.2-4.2Zm1.453.172a3.616,3.616,0,0,0,.652,2.258,2.088,2.088,0,0,0,1.746.852,2.075,2.075,0,0,0,1.75-.863A3.955,3.955,0,0,0,17.453-4.3a3.61,3.61,0,0,0-.66-2.254,2.1,2.1,0,0,0-1.754-.863,2.075,2.075,0,0,0-1.727.852A3.925,3.925,0,0,0,12.656-4.133Zm15.211,0a5.026,5.026,0,0,1-.891,3.113A2.846,2.846,0,0,1,24.586.156,2.947,2.947,0,0,1,22.109-.977L22.039,0H20.711V-12h1.445v4.477A2.93,2.93,0,0,1,24.57-8.609a2.863,2.863,0,0,1,2.418,1.164,5.177,5.177,0,0,1,.879,3.188ZM26.422-4.3a3.906,3.906,0,0,0-.57-2.281,1.888,1.888,0,0,0-1.641-.8,2.122,2.122,0,0,0-2.055,1.328V-2.4a2.181,2.181,0,0,0,2.07,1.328,1.878,1.878,0,0,0,1.617-.8A4.153,4.153,0,0,0,26.422-4.3ZM31.258,0H29.813V-12h1.445Zm7.531,0a3.036,3.036,0,0,1-.2-.891A3.225,3.225,0,0,1,36.18.156a2.984,2.984,0,0,1-2.051-.707,2.287,2.287,0,0,1-.8-1.793,2.39,2.39,0,0,1,1-2.051,4.733,4.733,0,0,1,2.824-.73h1.406v-.664A1.623,1.623,0,0,0,38.109-7a1.821,1.821,0,0,0-1.336-.449,2.107,2.107,0,0,0-1.3.391,1.151,1.151,0,0,0-.523.945H33.5a2,2,0,0,1,.449-1.223,3.066,3.066,0,0,1,1.219-.934,4.1,4.1,0,0,1,1.691-.344,3.342,3.342,0,0,1,2.289.73,2.635,2.635,0,0,1,.859,2.012v3.891a4.757,4.757,0,0,0,.3,1.852V0Zm-2.4-1.1a2.54,2.54,0,0,0,1.289-.352,2.127,2.127,0,0,0,.883-.914V-4.1H37.43q-2.656,0-2.656,1.555a1.316,1.316,0,0,0,.453,1.063A1.742,1.742,0,0,0,36.391-1.1Zm5.531-3.2a4.952,4.952,0,0,1,.922-3.129,2.915,2.915,0,0,1,2.414-1.184,2.932,2.932,0,0,1,2.352,1.016V-12h1.445V0H47.727l-.07-.906A2.943,2.943,0,0,1,45.242.156a2.887,2.887,0,0,1-2.395-1.2,5.008,5.008,0,0,1-.926-3.141Zm1.445.164a3.749,3.749,0,0,0,.594,2.25A1.92,1.92,0,0,0,45.6-1.07,2.108,2.108,0,0,0,47.609-2.3V-6.187a2.125,2.125,0,0,0-1.992-1.2,1.929,1.929,0,0,0-1.656.82A4.128,4.128,0,0,0,43.367-4.133ZM52.867,0H51.422V-8.453h1.445ZM51.3-10.7a.863.863,0,0,1,.215-.594.807.807,0,0,1,.637-.242.819.819,0,0,1,.641.242.854.854,0,0,1,.219.594.826.826,0,0,1-.219.586.834.834,0,0,1-.641.234.821.821,0,0,1-.637-.234A.834.834,0,0,1,51.3-10.7ZM56.75,0H55.3V-12H56.75Zm3.883,0H59.188V-12h1.445Zm7.531,0a3.036,3.036,0,0,1-.2-.891A3.225,3.225,0,0,1,65.555.156,2.984,2.984,0,0,1,63.5-.551a2.287,2.287,0,0,1-.8-1.793,2.39,2.39,0,0,1,1-2.051,4.733,4.733,0,0,1,2.824-.73h1.406v-.664A1.623,1.623,0,0,0,67.484-7a1.821,1.821,0,0,0-1.336-.449,2.108,2.108,0,0,0-1.3.391,1.151,1.151,0,0,0-.523.945H62.875a2,2,0,0,1,.449-1.223,3.066,3.066,0,0,1,1.219-.934,4.1,4.1,0,0,1,1.691-.344,3.342,3.342,0,0,1,2.289.73,2.635,2.635,0,0,1,.859,2.012v3.891a4.757,4.757,0,0,0,.3,1.852V0Zm-2.4-1.1a2.54,2.54,0,0,0,1.289-.352,2.127,2.127,0,0,0,.883-.914V-4.1H66.8q-2.656,0-2.656,1.555A1.316,1.316,0,0,0,64.6-1.484,1.742,1.742,0,0,0,65.766-1.1Zm9.969-6.055a4.331,4.331,0,0,0-.711-.055A1.9,1.9,0,0,0,73.094-6V0H71.648V-8.453h1.406l.023.977a2.251,2.251,0,0,1,2.016-1.133,1.477,1.477,0,0,1,.641.109Zm9.375,0a4.331,4.331,0,0,0-.711-.055A1.9,1.9,0,0,0,82.469-6V0H81.023V-8.453H82.43l.023.977a2.251,2.251,0,0,1,2.016-1.133,1.477,1.477,0,0,1,.641.109Zm6.547,6.32A3.07,3.07,0,0,1,89.18.156a2.628,2.628,0,0,1-2.059-.785,3.4,3.4,0,0,1-.715-2.324v-5.5h1.445v5.461q0,1.922,1.563,1.922a2.163,2.163,0,0,0,2.2-1.234V-8.453h1.445V0H91.688Zm7.109.992a3.693,3.693,0,0,1-2.8-1.129,4.19,4.19,0,0,1-1.078-3.02v-.266a5.073,5.073,0,0,1,.48-2.246,3.748,3.748,0,0,1,1.344-1.547,3.378,3.378,0,0,1,1.871-.559,3.166,3.166,0,0,1,2.563,1.086,4.7,4.7,0,0,1,.914,3.109v.6H96.336a3,3,0,0,0,.73,2.02,2.3,2.3,0,0,0,1.777.77,2.517,2.517,0,0,0,1.3-.312,3.259,3.259,0,0,0,.93-.828l.883.688A3.55,3.55,0,0,1,98.766.156Zm-.18-7.578a1.928,1.928,0,0,0-1.469.637A3.1,3.1,0,0,0,96.383-5h4.234v-.109a2.753,2.753,0,0,0-.594-1.707A1.815,1.815,0,0,0,98.586-7.422Zm4.8,3.125a4.952,4.952,0,0,1,.922-3.129,2.915,2.915,0,0,1,2.414-1.184,2.932,2.932,0,0,1,2.352,1.016V-12h1.445V0h-1.328l-.07-.906A2.943,2.943,0,0,1,106.7.156a2.887,2.887,0,0,1-2.395-1.2,5.008,5.008,0,0,1-.926-3.141Zm1.445.164a3.749,3.749,0,0,0,.594,2.25,1.92,1.92,0,0,0,1.641.813A2.109,2.109,0,0,0,109.07-2.3V-6.187a2.125,2.125,0,0,0-1.992-1.2,1.929,1.929,0,0,0-1.656.82A4.128,4.128,0,0,0,104.828-4.133Zm7.547-.172a4.993,4.993,0,0,1,.488-2.234,3.643,3.643,0,0,1,1.359-1.531,3.7,3.7,0,0,1,1.988-.539A3.565,3.565,0,0,1,119-7.414a4.6,4.6,0,0,1,1.066,3.18v.1a5.036,5.036,0,0,1-.473,2.215,3.589,3.589,0,0,1-1.352,1.527,3.743,3.743,0,0,1-2.02.547,3.556,3.556,0,0,1-2.785-1.2A4.575,4.575,0,0,1,112.375-4.2Zm1.453.172a3.616,3.616,0,0,0,.652,2.258,2.088,2.088,0,0,0,1.746.852,2.075,2.075,0,0,0,1.75-.863,3.955,3.955,0,0,0,.648-2.418,3.61,3.61,0,0,0-.66-2.254,2.1,2.1,0,0,0-1.754-.863,2.075,2.075,0,0,0-1.727.852A3.925,3.925,0,0,0,113.828-4.133Z" transform="translate(1139.925 4416.605)" fill="#3c3c3b"/>
    <path id="Trazado_1016891" data-name="Trazado 1016891" d="M1.32,0V-11.375H4.531a5.169,5.169,0,0,1,2.625.656A4.438,4.438,0,0,1,8.918-8.852,6.078,6.078,0,0,1,9.547-6.07v.727a6.1,6.1,0,0,1-.621,2.82A4.369,4.369,0,0,1,7.152-.664,5.5,5.5,0,0,1,4.469,0Zm1.5-10.148v8.922H4.4A3.434,3.434,0,0,0,7.1-2.306a4.458,4.458,0,0,0,.965-3.073v-.665a4.529,4.529,0,0,0-.91-3.014A3.239,3.239,0,0,0,4.57-10.148ZM11.2-4.3a4.993,4.993,0,0,1,.488-2.234A3.643,3.643,0,0,1,13.051-8.07a3.7,3.7,0,0,1,1.988-.539,3.565,3.565,0,0,1,2.793,1.2A4.6,4.6,0,0,1,18.9-4.234v.1a5.036,5.036,0,0,1-.473,2.215A3.589,3.589,0,0,1,17.074-.391a3.743,3.743,0,0,1-2.02.547,3.556,3.556,0,0,1-2.785-1.2A4.575,4.575,0,0,1,11.2-4.2Zm1.453.172a3.616,3.616,0,0,0,.652,2.258,2.088,2.088,0,0,0,1.746.852,2.075,2.075,0,0,0,1.75-.863A3.955,3.955,0,0,0,17.453-4.3a3.61,3.61,0,0,0-.66-2.254,2.1,2.1,0,0,0-1.754-.863,2.075,2.075,0,0,0-1.727.852A3.925,3.925,0,0,0,12.656-4.133Zm15.211,0a5.026,5.026,0,0,1-.891,3.113A2.846,2.846,0,0,1,24.586.156,2.947,2.947,0,0,1,22.109-.977L22.039,0H20.711V-12h1.445v4.477A2.93,2.93,0,0,1,24.57-8.609a2.863,2.863,0,0,1,2.418,1.164,5.177,5.177,0,0,1,.879,3.188ZM26.422-4.3a3.906,3.906,0,0,0-.57-2.281,1.888,1.888,0,0,0-1.641-.8,2.122,2.122,0,0,0-2.055,1.328V-2.4a2.181,2.181,0,0,0,2.07,1.328,1.878,1.878,0,0,0,1.617-.8A4.153,4.153,0,0,0,26.422-4.3ZM31.258,0H29.813V-12h1.445Zm7.531,0a3.036,3.036,0,0,1-.2-.891A3.225,3.225,0,0,1,36.18.156a2.984,2.984,0,0,1-2.051-.707,2.287,2.287,0,0,1-.8-1.793,2.39,2.39,0,0,1,1-2.051,4.733,4.733,0,0,1,2.824-.73h1.406v-.664A1.623,1.623,0,0,0,38.109-7a1.821,1.821,0,0,0-1.336-.449,2.107,2.107,0,0,0-1.3.391,1.151,1.151,0,0,0-.523.945H33.5a2,2,0,0,1,.449-1.223,3.066,3.066,0,0,1,1.219-.934,4.1,4.1,0,0,1,1.691-.344,3.342,3.342,0,0,1,2.289.73,2.635,2.635,0,0,1,.859,2.012v3.891a4.757,4.757,0,0,0,.3,1.852V0Zm-2.4-1.1a2.54,2.54,0,0,0,1.289-.352,2.127,2.127,0,0,0,.883-.914V-4.1H37.43q-2.656,0-2.656,1.555a1.316,1.316,0,0,0,.453,1.063A1.742,1.742,0,0,0,36.391-1.1Zm5.531-3.2a4.952,4.952,0,0,1,.922-3.129,2.915,2.915,0,0,1,2.414-1.184,2.932,2.932,0,0,1,2.352,1.016V-12h1.445V0H47.727l-.07-.906A2.943,2.943,0,0,1,45.242.156a2.887,2.887,0,0,1-2.395-1.2,5.008,5.008,0,0,1-.926-3.141Zm1.445.164a3.749,3.749,0,0,0,.594,2.25A1.92,1.92,0,0,0,45.6-1.07,2.108,2.108,0,0,0,47.609-2.3V-6.187a2.125,2.125,0,0,0-1.992-1.2,1.929,1.929,0,0,0-1.656.82A4.128,4.128,0,0,0,43.367-4.133ZM52.867,0H51.422V-8.453h1.445ZM51.3-10.7a.863.863,0,0,1,.215-.594.807.807,0,0,1,.637-.242.819.819,0,0,1,.641.242.854.854,0,0,1,.219.594.826.826,0,0,1-.219.586.834.834,0,0,1-.641.234.821.821,0,0,1-.637-.234A.834.834,0,0,1,51.3-10.7ZM56.75,0H55.3V-12H56.75Zm3.883,0H59.188V-12h1.445Zm7.531,0a3.036,3.036,0,0,1-.2-.891A3.225,3.225,0,0,1,65.555.156,2.984,2.984,0,0,1,63.5-.551a2.287,2.287,0,0,1-.8-1.793,2.39,2.39,0,0,1,1-2.051,4.733,4.733,0,0,1,2.824-.73h1.406v-.664A1.623,1.623,0,0,0,67.484-7a1.821,1.821,0,0,0-1.336-.449,2.108,2.108,0,0,0-1.3.391,1.151,1.151,0,0,0-.523.945H62.875a2,2,0,0,1,.449-1.223,3.066,3.066,0,0,1,1.219-.934,4.1,4.1,0,0,1,1.691-.344,3.342,3.342,0,0,1,2.289.73,2.635,2.635,0,0,1,.859,2.012v3.891a4.757,4.757,0,0,0,.3,1.852V0Zm-2.4-1.1a2.54,2.54,0,0,0,1.289-.352,2.127,2.127,0,0,0,.883-.914V-4.1H66.8q-2.656,0-2.656,1.555A1.316,1.316,0,0,0,64.6-1.484,1.742,1.742,0,0,0,65.766-1.1Zm9.969-6.055a4.331,4.331,0,0,0-.711-.055A1.9,1.9,0,0,0,73.094-6V0H71.648V-8.453h1.406l.023.977a2.251,2.251,0,0,1,2.016-1.133,1.477,1.477,0,0,1,.641.109Zm9.375,0a4.331,4.331,0,0,0-.711-.055A1.9,1.9,0,0,0,82.469-6V0H81.023V-8.453H82.43l.023.977a2.251,2.251,0,0,1,2.016-1.133,1.477,1.477,0,0,1,.641.109Zm6.547,6.32A3.07,3.07,0,0,1,89.18.156a2.628,2.628,0,0,1-2.059-.785,3.4,3.4,0,0,1-.715-2.324v-5.5h1.445v5.461q0,1.922,1.563,1.922a2.163,2.163,0,0,0,2.2-1.234V-8.453h1.445V0H91.688Zm7.109.992a3.693,3.693,0,0,1-2.8-1.129,4.19,4.19,0,0,1-1.078-3.02v-.266a5.073,5.073,0,0,1,.48-2.246,3.748,3.748,0,0,1,1.344-1.547,3.378,3.378,0,0,1,1.871-.559,3.166,3.166,0,0,1,2.563,1.086,4.7,4.7,0,0,1,.914,3.109v.6H96.336a3,3,0,0,0,.73,2.02,2.3,2.3,0,0,0,1.777.77,2.517,2.517,0,0,0,1.3-.312,3.259,3.259,0,0,0,.93-.828l.883.688A3.55,3.55,0,0,1,98.766.156Zm-.18-7.578a1.928,1.928,0,0,0-1.469.637A3.1,3.1,0,0,0,96.383-5h4.234v-.109a2.753,2.753,0,0,0-.594-1.707A1.815,1.815,0,0,0,98.586-7.422Zm4.8,3.125a4.952,4.952,0,0,1,.922-3.129,2.915,2.915,0,0,1,2.414-1.184,2.932,2.932,0,0,1,2.352,1.016V-12h1.445V0h-1.328l-.07-.906A2.943,2.943,0,0,1,106.7.156a2.887,2.887,0,0,1-2.395-1.2,5.008,5.008,0,0,1-.926-3.141Zm1.445.164a3.749,3.749,0,0,0,.594,2.25,1.92,1.92,0,0,0,1.641.813A2.109,2.109,0,0,0,109.07-2.3V-6.187a2.125,2.125,0,0,0-1.992-1.2,1.929,1.929,0,0,0-1.656.82A4.128,4.128,0,0,0,104.828-4.133Zm7.547-.172a4.993,4.993,0,0,1,.488-2.234,3.643,3.643,0,0,1,1.359-1.531,3.7,3.7,0,0,1,1.988-.539A3.565,3.565,0,0,1,119-7.414a4.6,4.6,0,0,1,1.066,3.18v.1a5.036,5.036,0,0,1-.473,2.215,3.589,3.589,0,0,1-1.352,1.527,3.743,3.743,0,0,1-2.02.547,3.556,3.556,0,0,1-2.785-1.2A4.575,4.575,0,0,1,112.375-4.2Zm1.453.172a3.616,3.616,0,0,0,.652,2.258,2.088,2.088,0,0,0,1.746.852,2.075,2.075,0,0,0,1.75-.863,3.955,3.955,0,0,0,.648-2.418,3.61,3.61,0,0,0-.66-2.254,2.1,2.1,0,0,0-1.754-.863,2.075,2.075,0,0,0-1.727.852A3.925,3.925,0,0,0,113.828-4.133Z" transform="translate(1139.925 4481.693)" fill="#3c3c3b"/>
    <path id="Trazado_1016892" data-name="Trazado 1016892" d="M2.82-4.453V0H1.32V-11.375h4.2a4.215,4.215,0,0,1,2.926.953A3.231,3.231,0,0,1,9.5-7.9,3.189,3.189,0,0,1,8.465-5.348,4.4,4.4,0,0,1,5.5-4.453Zm0-1.227h2.7a2.7,2.7,0,0,0,1.844-.567A2.075,2.075,0,0,0,8-7.887a2.143,2.143,0,0,0-.641-1.628A2.525,2.525,0,0,0,5.6-10.148H2.82ZM12.758,0H11.313V-12h1.445Zm7.531,0a3.036,3.036,0,0,1-.2-.891A3.225,3.225,0,0,1,17.68.156a2.984,2.984,0,0,1-2.051-.707,2.287,2.287,0,0,1-.8-1.793,2.39,2.39,0,0,1,1-2.051,4.733,4.733,0,0,1,2.824-.73h1.406v-.664A1.623,1.623,0,0,0,19.609-7a1.821,1.821,0,0,0-1.336-.449,2.108,2.108,0,0,0-1.3.391,1.151,1.151,0,0,0-.523.945H15a2,2,0,0,1,.449-1.223,3.066,3.066,0,0,1,1.219-.934,4.1,4.1,0,0,1,1.691-.344,3.342,3.342,0,0,1,2.289.73,2.635,2.635,0,0,1,.859,2.012v3.891a4.757,4.757,0,0,0,.3,1.852V0Zm-2.4-1.1a2.54,2.54,0,0,0,1.289-.352,2.127,2.127,0,0,0,.883-.914V-4.1H18.93q-2.656,0-2.656,1.555a1.316,1.316,0,0,0,.453,1.063A1.742,1.742,0,0,0,17.891-1.1Zm7.25-7.352.047,1.063a3.08,3.08,0,0,1,2.531-1.219q2.68,0,2.7,3.023V0H28.977V-5.594a1.946,1.946,0,0,0-.418-1.352,1.675,1.675,0,0,0-1.277-.437,2.086,2.086,0,0,0-1.234.375,2.546,2.546,0,0,0-.828.984V0H23.773V-8.453Zm10.852,7.43a2.082,2.082,0,0,0,1.352-.469,1.649,1.649,0,0,0,.641-1.172h1.367a2.621,2.621,0,0,1-.5,1.383,3.293,3.293,0,0,1-1.23,1.047,3.55,3.55,0,0,1-1.629.391A3.482,3.482,0,0,1,33.246-1a4.59,4.59,0,0,1-1.02-3.152v-.242a5.089,5.089,0,0,1,.453-2.2,3.451,3.451,0,0,1,1.3-1.492,3.7,3.7,0,0,1,2-.531,3.39,3.39,0,0,1,2.363.852,3.043,3.043,0,0,1,1,2.211H37.984a1.992,1.992,0,0,0-.621-1.348,1.932,1.932,0,0,0-1.379-.527,2.023,2.023,0,0,0-1.707.793,3.724,3.724,0,0,0-.605,2.293v.273a3.65,3.65,0,0,0,.6,2.25A2.033,2.033,0,0,0,35.992-1.023Zm6.43-6.406a3.073,3.073,0,0,1,2.5-1.18q2.68,0,2.7,3.023V0H46.18V-5.594a1.946,1.946,0,0,0-.418-1.352,1.675,1.675,0,0,0-1.277-.437,2.086,2.086,0,0,0-1.234.375,2.546,2.546,0,0,0-.828.984V0H40.977V-12h1.445ZM55.008,0a3.036,3.036,0,0,1-.2-.891A3.225,3.225,0,0,1,52.4.156a2.984,2.984,0,0,1-2.051-.707,2.287,2.287,0,0,1-.8-1.793,2.39,2.39,0,0,1,1-2.051,4.733,4.733,0,0,1,2.824-.73h1.406v-.664A1.623,1.623,0,0,0,54.328-7a1.821,1.821,0,0,0-1.336-.449,2.107,2.107,0,0,0-1.3.391,1.151,1.151,0,0,0-.523.945H49.719a2,2,0,0,1,.449-1.223,3.066,3.066,0,0,1,1.219-.934,4.1,4.1,0,0,1,1.691-.344,3.342,3.342,0,0,1,2.289.73,2.635,2.635,0,0,1,.859,2.012v3.891a4.757,4.757,0,0,0,.3,1.852V0Zm-2.4-1.1A2.54,2.54,0,0,0,53.9-1.453a2.127,2.127,0,0,0,.883-.914V-4.1H53.648q-2.656,0-2.656,1.555a1.316,1.316,0,0,0,.453,1.063A1.742,1.742,0,0,0,52.609-1.1Zm9.969-6.055a4.331,4.331,0,0,0-.711-.055A1.9,1.9,0,0,0,59.938-6V0H58.492V-8.453H59.9l.023.977a2.251,2.251,0,0,1,2.016-1.133,1.477,1.477,0,0,1,.641.109Z" transform="translate(1139.925 4540.349)" fill="#3c3c3b"/>
    <g id="Grupo_1195141" data-name="Grupo 1195141" transform="translate(333.711 3843.363)">
      <g id="Grupo_1195140" data-name="Grupo 1195140" clip-path="url(#clip-path)">
        <text id="Doblar_y_empacar" data-name="Doblar y empacar" transform="translate(806.207 760.096)" fill="#3c3c3b" font-size="16" font-family="Roboto-Regular, Roboto"><tspan x="0" y="0">Doblar y empacar</tspan></text>
      </g>
    </g>
    <path id="Trazado_1016893" data-name="Trazado 1016893" d="M9.688-3.609A4.185,4.185,0,0,1,8.355-.824a4.365,4.365,0,0,1-2.98.98,4.008,4.008,0,0,1-3.23-1.445A5.815,5.815,0,0,1,.93-5.156V-6.25A6.481,6.481,0,0,1,1.5-9.039,4.231,4.231,0,0,1,3.1-10.887a4.47,4.47,0,0,1,2.406-.645A4.11,4.11,0,0,1,8.414-10.52a4.235,4.235,0,0,1,1.273,2.8H8.18a3.268,3.268,0,0,0-.848-1.975A2.565,2.565,0,0,0,5.508-10.3,2.684,2.684,0,0,0,3.254-9.241a4.882,4.882,0,0,0-.816,3.026v1.1a5.018,5.018,0,0,0,.773,2.948A2.5,2.5,0,0,0,5.375-1.07a2.887,2.887,0,0,0,1.918-.566A3.143,3.143,0,0,0,8.18-3.609ZM15.016.156a3.693,3.693,0,0,1-2.8-1.129,4.19,4.19,0,0,1-1.078-3.02v-.266a5.073,5.073,0,0,1,.48-2.246,3.748,3.748,0,0,1,1.344-1.547,3.378,3.378,0,0,1,1.871-.559A3.166,3.166,0,0,1,17.4-7.523a4.7,4.7,0,0,1,.914,3.109v.6H12.586a3,3,0,0,0,.73,2.02,2.3,2.3,0,0,0,1.777.77,2.517,2.517,0,0,0,1.3-.312,3.259,3.259,0,0,0,.93-.828l.883.688A3.55,3.55,0,0,1,15.016.156Zm-.18-7.578a1.928,1.928,0,0,0-1.469.637A3.1,3.1,0,0,0,12.633-5h4.234v-.109a2.753,2.753,0,0,0-.594-1.707A1.815,1.815,0,0,0,14.836-7.422Zm9.234.266a4.331,4.331,0,0,0-.711-.055A1.9,1.9,0,0,0,21.43-6V0H19.984V-8.453h1.406l.023.977A2.251,2.251,0,0,1,23.43-8.609a1.477,1.477,0,0,1,.641.109Zm5.414,0a4.331,4.331,0,0,0-.711-.055A1.9,1.9,0,0,0,26.844-6V0H25.4V-8.453H26.8l.023.977a2.251,2.251,0,0,1,2.016-1.133,1.477,1.477,0,0,1,.641.109ZM35.719,0a3.036,3.036,0,0,1-.2-.891A3.225,3.225,0,0,1,33.109.156a2.984,2.984,0,0,1-2.051-.707,2.287,2.287,0,0,1-.8-1.793,2.39,2.39,0,0,1,1-2.051,4.733,4.733,0,0,1,2.824-.73h1.406v-.664A1.623,1.623,0,0,0,35.039-7,1.821,1.821,0,0,0,33.7-7.445a2.107,2.107,0,0,0-1.3.391,1.151,1.151,0,0,0-.523.945H30.43a2,2,0,0,1,.449-1.223A3.066,3.066,0,0,1,32.1-8.266a4.1,4.1,0,0,1,1.691-.344,3.342,3.342,0,0,1,2.289.73,2.635,2.635,0,0,1,.859,2.012v3.891a4.757,4.757,0,0,0,.3,1.852V0Zm-2.4-1.1a2.54,2.54,0,0,0,1.289-.352,2.127,2.127,0,0,0,.883-.914V-4.1H34.359Q31.7-4.1,31.7-2.547a1.316,1.316,0,0,0,.453,1.063A1.742,1.742,0,0,0,33.32-1.1Zm9.969-6.055a4.331,4.331,0,0,0-.711-.055A1.9,1.9,0,0,0,40.648-6V0H39.2V-8.453h1.406l.023.977a2.251,2.251,0,0,1,2.016-1.133,1.477,1.477,0,0,1,.641.109Zm8.68,6.133a2.082,2.082,0,0,0,1.352-.469,1.649,1.649,0,0,0,.641-1.172h1.367a2.621,2.621,0,0,1-.5,1.383A3.293,3.293,0,0,1,53.6-.234a3.55,3.55,0,0,1-1.629.391A3.482,3.482,0,0,1,49.223-1,4.59,4.59,0,0,1,48.2-4.148v-.242a5.089,5.089,0,0,1,.453-2.2,3.451,3.451,0,0,1,1.3-1.492,3.7,3.7,0,0,1,2-.531,3.39,3.39,0,0,1,2.363.852,3.043,3.043,0,0,1,1,2.211H53.961a1.992,1.992,0,0,0-.621-1.348,1.932,1.932,0,0,0-1.379-.527,2.023,2.023,0,0,0-1.707.793,3.724,3.724,0,0,0-.605,2.293v.273a3.65,3.65,0,0,0,.6,2.25A2.033,2.033,0,0,0,51.969-1.023Zm10.2.188A3.07,3.07,0,0,1,59.7.156a2.628,2.628,0,0,1-2.059-.785,3.4,3.4,0,0,1-.715-2.324v-5.5h1.445v5.461q0,1.922,1.563,1.922a2.163,2.163,0,0,0,2.2-1.234V-8.453h1.445V0H62.2Zm7.109.992a3.693,3.693,0,0,1-2.8-1.129,4.19,4.19,0,0,1-1.078-3.02v-.266a5.073,5.073,0,0,1,.48-2.246A3.748,3.748,0,0,1,67.23-8.051,3.378,3.378,0,0,1,69.1-8.609a3.166,3.166,0,0,1,2.563,1.086,4.7,4.7,0,0,1,.914,3.109v.6H66.852a3,3,0,0,0,.73,2.02,2.3,2.3,0,0,0,1.777.77,2.517,2.517,0,0,0,1.3-.312,3.259,3.259,0,0,0,.93-.828l.883.688A3.55,3.55,0,0,1,69.281.156ZM69.1-7.422a1.928,1.928,0,0,0-1.469.637A3.1,3.1,0,0,0,66.9-5h4.234v-.109a2.753,2.753,0,0,0-.594-1.707A1.815,1.815,0,0,0,69.1-7.422ZM75.82,0H74.375V-12H75.82ZM79.7,0H78.258V-12H79.7Zm1.93-4.3a4.993,4.993,0,0,1,.488-2.234A3.643,3.643,0,0,1,83.48-8.07a3.7,3.7,0,0,1,1.988-.539,3.565,3.565,0,0,1,2.793,1.2,4.6,4.6,0,0,1,1.066,3.18v.1a5.036,5.036,0,0,1-.473,2.215A3.589,3.589,0,0,1,87.5-.391a3.743,3.743,0,0,1-2.02.547,3.556,3.556,0,0,1-2.785-1.2A4.575,4.575,0,0,1,81.633-4.2Zm1.453.172a3.616,3.616,0,0,0,.652,2.258,2.088,2.088,0,0,0,1.746.852,2.075,2.075,0,0,0,1.75-.863A3.955,3.955,0,0,0,87.883-4.3a3.61,3.61,0,0,0-.66-2.254,2.1,2.1,0,0,0-1.754-.863,2.075,2.075,0,0,0-1.727.852A3.925,3.925,0,0,0,83.086-4.133Z" transform="translate(844.936 3980.833)" fill="#3c3c3b"/>
    <path id="Trazado_1016894" data-name="Trazado 1016894" d="M5.086-1.992l3.25-9.383H9.977L5.758,0H4.43L.219-11.375H1.852ZM10.179-4.3a4.993,4.993,0,0,1,.488-2.234A3.643,3.643,0,0,1,12.027-8.07a3.7,3.7,0,0,1,1.988-.539,3.565,3.565,0,0,1,2.793,1.2,4.6,4.6,0,0,1,1.066,3.18v.1A5.036,5.036,0,0,1,17.4-1.918,3.589,3.589,0,0,1,16.05-.391a3.743,3.743,0,0,1-2.02.547,3.556,3.556,0,0,1-2.785-1.2A4.575,4.575,0,0,1,10.179-4.2Zm1.453.172a3.616,3.616,0,0,0,.652,2.258,2.088,2.088,0,0,0,1.746.852,2.075,2.075,0,0,0,1.75-.863A3.955,3.955,0,0,0,16.429-4.3a3.61,3.61,0,0,0-.66-2.254,2.1,2.1,0,0,0-1.754-.863,2.075,2.075,0,0,0-1.727.852A3.925,3.925,0,0,0,11.632-4.133ZM21.257,0H19.812V-12h1.445Zm4.273-10.5v2.047h1.578v1.117H25.531v5.249a1.173,1.173,0,0,0,.211.763.888.888,0,0,0,.719.254,3.5,3.5,0,0,0,.688-.094V0a4.215,4.215,0,0,1-1.109.155A1.8,1.8,0,0,1,24.578-.43a2.517,2.517,0,0,1-.492-1.664V-7.336H22.546V-8.453h1.539V-10.5ZM32.3.156a3.693,3.693,0,0,1-2.8-1.129,4.19,4.19,0,0,1-1.078-3.02v-.266A5.073,5.073,0,0,1,28.91-6.5a3.748,3.748,0,0,1,1.344-1.547,3.378,3.378,0,0,1,1.871-.559,3.166,3.166,0,0,1,2.563,1.086A4.7,4.7,0,0,1,35.6-4.414v.6H29.875a3,3,0,0,0,.73,2.02,2.3,2.3,0,0,0,1.777.77,2.517,2.517,0,0,0,1.3-.312,3.259,3.259,0,0,0,.93-.828l.883.688A3.55,3.55,0,0,1,32.3.156Zm-.18-7.578a1.928,1.928,0,0,0-1.469.637A3.1,3.1,0,0,0,29.921-5h4.234v-.109a2.753,2.753,0,0,0-.594-1.707A1.815,1.815,0,0,0,32.125-7.422ZM42.492,0a3.036,3.036,0,0,1-.2-.891A3.225,3.225,0,0,1,39.882.156a2.984,2.984,0,0,1-2.051-.707,2.287,2.287,0,0,1-.8-1.793,2.39,2.39,0,0,1,1-2.051,4.733,4.733,0,0,1,2.824-.73h1.406v-.664A1.623,1.623,0,0,0,41.812-7a1.821,1.821,0,0,0-1.336-.449,2.107,2.107,0,0,0-1.3.391,1.151,1.151,0,0,0-.523.945H37.2a2,2,0,0,1,.449-1.223,3.066,3.066,0,0,1,1.219-.934,4.1,4.1,0,0,1,1.691-.344,3.342,3.342,0,0,1,2.289.73,2.635,2.635,0,0,1,.859,2.012v3.891a4.757,4.757,0,0,0,.3,1.852V0Zm-2.4-1.1a2.54,2.54,0,0,0,1.289-.352,2.127,2.127,0,0,0,.883-.914V-4.1H41.132q-2.656,0-2.656,1.555a1.316,1.316,0,0,0,.453,1.063A1.742,1.742,0,0,0,40.093-1.1Zm9.969-6.055a4.331,4.331,0,0,0-.711-.055A1.9,1.9,0,0,0,47.421-6V0H45.976V-8.453h1.406l.023.977a2.251,2.251,0,0,1,2.016-1.133,1.477,1.477,0,0,1,.641.109Zm8.68,6.133a2.082,2.082,0,0,0,1.352-.469,1.649,1.649,0,0,0,.641-1.172H62.1a2.621,2.621,0,0,1-.5,1.383,3.293,3.293,0,0,1-1.23,1.047,3.55,3.55,0,0,1-1.629.391A3.482,3.482,0,0,1,56-1a4.59,4.59,0,0,1-1.02-3.152v-.242a5.089,5.089,0,0,1,.453-2.2,3.451,3.451,0,0,1,1.3-1.492,3.7,3.7,0,0,1,2-.531,3.39,3.39,0,0,1,2.363.852,3.043,3.043,0,0,1,1,2.211H60.734a1.992,1.992,0,0,0-.621-1.348,1.932,1.932,0,0,0-1.379-.527,2.023,2.023,0,0,0-1.707.793,3.724,3.724,0,0,0-.605,2.293v.273a3.65,3.65,0,0,0,.6,2.25A2.033,2.033,0,0,0,58.742-1.023Zm10.2.188a3.07,3.07,0,0,1-2.477.992A2.628,2.628,0,0,1,64.41-.629a3.4,3.4,0,0,1-.715-2.324v-5.5H65.14v5.461q0,1.922,1.563,1.922a2.163,2.163,0,0,0,2.2-1.234V-8.453h1.445V0H68.976Zm7.109.992a3.693,3.693,0,0,1-2.8-1.129,4.19,4.19,0,0,1-1.078-3.02v-.266A5.073,5.073,0,0,1,72.66-6.5,3.748,3.748,0,0,1,74-8.051a3.378,3.378,0,0,1,1.871-.559,3.166,3.166,0,0,1,2.563,1.086,4.7,4.7,0,0,1,.914,3.109v.6H73.625a3,3,0,0,0,.73,2.02,2.3,2.3,0,0,0,1.777.77,2.517,2.517,0,0,0,1.3-.312,3.259,3.259,0,0,0,.93-.828l.883.688A3.55,3.55,0,0,1,76.054.156Zm-.18-7.578a1.928,1.928,0,0,0-1.469.637A3.1,3.1,0,0,0,73.671-5h4.234v-.109a2.753,2.753,0,0,0-.594-1.707A1.815,1.815,0,0,0,75.875-7.422ZM82.593,0H81.148V-12h1.445Zm3.883,0H85.031V-12h1.445Zm1.93-4.3a4.993,4.993,0,0,1,.488-2.234A3.643,3.643,0,0,1,90.253-8.07a3.7,3.7,0,0,1,1.988-.539,3.565,3.565,0,0,1,2.793,1.2A4.6,4.6,0,0,1,96.1-4.234v.1a5.036,5.036,0,0,1-.473,2.215A3.589,3.589,0,0,1,94.277-.391a3.743,3.743,0,0,1-2.02.547,3.556,3.556,0,0,1-2.785-1.2A4.575,4.575,0,0,1,88.406-4.2Zm1.453.172a3.616,3.616,0,0,0,.652,2.258,2.088,2.088,0,0,0,1.746.852,2.075,2.075,0,0,0,1.75-.863A3.955,3.955,0,0,0,94.656-4.3,3.61,3.61,0,0,0,94-6.559a2.1,2.1,0,0,0-1.754-.863,2.075,2.075,0,0,0-1.727.852A3.925,3.925,0,0,0,89.859-4.133Z" transform="translate(844.936 4036.769)" fill="#3c3c3b"/>
    <g id="Grupo_1195143" data-name="Grupo 1195143" transform="translate(333.711 3843.363)">
      <g id="Grupo_1195142" data-name="Grupo 1195142" clip-path="url(#clip-path)">
        <path id="Trazado_1015567" data-name="Trazado 1015567" d="M748.2,464.007l-585.227,1a29.317,29.317,0,0,1-29.316-29.317V61.4" fill="none" stroke="#80aee0" stroke-miterlimit="10" stroke-width="1"/>
        <path id="Trazado_1015568" data-name="Trazado 1015568" d="M29.312,35.193h81.049a23.3,23.3,0,0,1,23.3,23.3v39" fill="none" stroke="#bbc3dc" stroke-linecap="round" stroke-miterlimit="10" stroke-width="2"/>
        <path id="Trazado_1015569" data-name="Trazado 1015569" d="M750.863,233.3H483.836a29.316,29.316,0,0,1-29.316-29.316V61.4" fill="none" stroke="#bbc3dc" stroke-miterlimit="10" stroke-width="2"/>
        <path id="Trazado_1015570" data-name="Trazado 1015570" d="M749.862,741.874V64.509a29.316,29.316,0,0,0-29.316-29.316H577.964" fill="none" stroke="#bbc3dc" stroke-miterlimit="10" stroke-width="2"/>
        <path id="Trazado_1015571" data-name="Trazado 1015571" d="M355.65,35.193h75.573a23.3,23.3,0,0,1,23.3,23.3v39" fill="none" stroke="#bbc3dc" stroke-miterlimit="10" stroke-width="2"/>
        <path id="Trazado_1015572" data-name="Trazado 1015572" d="M771.873,74.921A22.011,22.011,0,1,1,749.862,52.91a22.011,22.011,0,0,1,22.011,22.011" fill="#2ed19b"/>
        <path id="Trazado_1015573" data-name="Trazado 1015573" d="M771.873,188.725a22.011,22.011,0,1,1-22.011-22.011,22.011,22.011,0,0,1,22.011,22.011" fill="#2ed19b"/>
        <path id="Trazado_1015574" data-name="Trazado 1015574" d="M771.873,285.2a22.011,22.011,0,1,1-22.011-22.011A22.011,22.011,0,0,1,771.873,285.2" fill="#2ed19b"/>
        <path id="Trazado_1015575" data-name="Trazado 1015575" d="M771.873,357.464a22.011,22.011,0,1,1-22.011-22.011,22.011,22.011,0,0,1,22.011,22.011" fill="#2ed19b"/>
        <path id="Trazado_1015576" data-name="Trazado 1015576" d="M771.873,431.878a22.011,22.011,0,1,1-22.011-22.011,22.011,22.011,0,0,1,22.011,22.011" fill="#2ed19b"/>
        <path id="Trazado_1015577" data-name="Trazado 1015577" d="M771.873,504.312A22.011,22.011,0,1,1,749.862,482.3a22.011,22.011,0,0,1,22.011,22.011" fill="#2ed19b"/>
        <path id="Trazado_1015578" data-name="Trazado 1015578" d="M771.873,568.572a22.011,22.011,0,1,1-22.011-22.011,22.011,22.011,0,0,1,22.011,22.011" fill="#2ed19b"/>
        <path id="Trazado_1015579" data-name="Trazado 1015579" d="M771.873,692.327a22.011,22.011,0,1,1-22.011-22.011,22.011,22.011,0,0,1,22.011,22.011" fill="#2ed19b"/>
        <path id="Trazado_1015580" data-name="Trazado 1015580" d="M771.873,755.42a22.011,22.011,0,1,1-22.011-22.011,22.011,22.011,0,0,1,22.011,22.011" fill="#2ed19b"/>
        <path id="Trazado_1015581" data-name="Trazado 1015581" d="M767.937,654.133h-36.15a2.394,2.394,0,0,1-2.395-2.394V615.588a2.394,2.394,0,0,1,2.395-2.394h36.15a2.394,2.394,0,0,1,2.394,2.394v36.151a2.394,2.394,0,0,1-2.394,2.394" fill="#334155"/>
        <path id="Trazado_1015582" data-name="Trazado 1015582" d="M155.149,75.231A22.011,22.011,0,1,1,133.138,53.22a22.011,22.011,0,0,1,22.011,22.011" fill="#2ed19b"/>
        <path id="Trazado_1015583" data-name="Trazado 1015583" d="M475.852,75.4a22.011,22.011,0,1,1-22.011-22.011A22.011,22.011,0,0,1,475.852,75.4" fill="#2ed19b"/>
        <path id="Trazado_1015584" data-name="Trazado 1015584" d="M476.608,132.793A22.011,22.011,0,1,1,454.6,110.782a22.012,22.012,0,0,1,22.012,22.011" fill="#2ed19b"/>
        <path id="Trazado_1015585" data-name="Trazado 1015585" d="M476.608,188.725A22.011,22.011,0,1,1,454.6,166.714a22.012,22.012,0,0,1,22.012,22.011" fill="#2ed19b"/>
        <path id="Trazado_1015586" data-name="Trazado 1015586" d="M155.149,132.789a22.011,22.011,0,1,1-22.011-22.011,22.011,22.011,0,0,1,22.011,22.011" fill="#2ed19b"/>
        <path id="Trazado_1015587" data-name="Trazado 1015587" d="M110.362,35.193H17.745a17.214,17.214,0,1,1,0-34.428H91.9a18.458,18.458,0,0,1,18.458,18.458Z" fill="#334155"/>
        <path id="Trazado_1015588" data-name="Trazado 1015588" d="M110.362,35.193H17.745a17.214,17.214,0,1,1,0-34.428H91.9a18.458,18.458,0,0,1,18.458,18.458Z" fill="none" stroke="#80aee0" stroke-miterlimit="10" stroke-width="1.06"/>
      </g>
    </g>
    <path id="Trazado_1016895" data-name="Trazado 1016895" d="M5.538-14.122,8.691-4.3l3.143-9.826h4.481V0H12.9V-3.3l.33-6.751L9.816,0H7.566L4.142-10.058,4.471-3.3V0h-3.4V-14.122ZM24.239,0a3.691,3.691,0,0,1-.31-.941A3.039,3.039,0,0,1,21.407.194a3.724,3.724,0,0,1-2.522-.9,2.856,2.856,0,0,1-1.038-2.255,2.935,2.935,0,0,1,1.261-2.58,6.424,6.424,0,0,1,3.666-.873h1.009v-.556q0-1.452-1.251-1.452a1.023,1.023,0,0,0-1.164,1.15H18.1a2.93,2.93,0,0,1,1.295-2.47,5.442,5.442,0,0,1,3.3-.949,4.771,4.771,0,0,1,3.172.98,3.406,3.406,0,0,1,1.193,2.687v4.646a4.758,4.758,0,0,0,.446,2.211V0ZM22.192-2.134A1.823,1.823,0,0,0,23.206-2.4a1.641,1.641,0,0,0,.577-.592V-4.665h-.951q-1.707,0-1.707,1.533a.936.936,0,0,0,.3.723A1.088,1.088,0,0,0,22.192-2.134Zm9.68-8.361.107,1.232a3.559,3.559,0,0,1,3-1.426,2.994,2.994,0,0,1,2.449.98,4.664,4.664,0,0,1,.839,2.949V0H34.986V-6.625a1.771,1.771,0,0,0-.32-1.169A1.481,1.481,0,0,0,33.5-8.167a1.559,1.559,0,0,0-1.426.757V0H28.807V-10.495Zm7.818,5.17a7.086,7.086,0,0,1,.524-2.813,4.217,4.217,0,0,1,1.5-1.887A3.963,3.963,0,0,1,44-10.689a3.151,3.151,0,0,1,2.561,1.106l.116-.912h2.968V-.4A4.425,4.425,0,0,1,49,2.013,4.139,4.139,0,0,1,47.13,3.584a6.863,6.863,0,0,1-2.832.548A5.921,5.921,0,0,1,42.062,3.7a4.036,4.036,0,0,1-1.654-1.135L41.776.64a3,3,0,0,0,2.405,1.077A1.947,1.947,0,0,0,46.354-.514v-.33A3.069,3.069,0,0,1,43.977.194a3.793,3.793,0,0,1-3.1-1.469A6.088,6.088,0,0,1,39.69-5.209Zm3.278.2a3.733,3.733,0,0,0,.485,2.042,1.53,1.53,0,0,0,1.358.752,1.736,1.736,0,0,0,1.542-.708V-7.449a1.693,1.693,0,0,0-1.523-.718,1.54,1.54,0,0,0-1.368.781A4.258,4.258,0,0,0,42.969-5.121ZM57.411,0a3.691,3.691,0,0,1-.31-.941A3.039,3.039,0,0,1,54.579.194a3.724,3.724,0,0,1-2.522-.9,2.856,2.856,0,0,1-1.038-2.255,2.935,2.935,0,0,1,1.261-2.58,6.424,6.424,0,0,1,3.666-.873h1.009v-.556q0-1.452-1.251-1.452a1.023,1.023,0,0,0-1.164,1.15H51.271a2.93,2.93,0,0,1,1.295-2.47,5.442,5.442,0,0,1,3.3-.949,4.771,4.771,0,0,1,3.172.98,3.406,3.406,0,0,1,1.193,2.687v4.646A4.758,4.758,0,0,0,60.68-.165V0ZM55.365-2.134A1.823,1.823,0,0,0,56.378-2.4a1.641,1.641,0,0,0,.577-.592V-4.665H56q-1.707,0-1.707,1.533a.936.936,0,0,0,.3.723A1.088,1.088,0,0,0,55.365-2.134Zm12.173-.815a.755.755,0,0,0-.436-.669,6.639,6.639,0,0,0-1.659-.524,7.563,7.563,0,0,1-2.017-.713,3.379,3.379,0,0,1-1.212-1.072A2.559,2.559,0,0,1,61.8-7.372a2.9,2.9,0,0,1,1.193-2.381,4.914,4.914,0,0,1,3.123-.936,5.445,5.445,0,0,1,3.337.941,2.942,2.942,0,0,1,1.261,2.473H67.431q0-1.261-1.329-1.261a1.317,1.317,0,0,0-.863.286.886.886,0,0,0-.349.713.813.813,0,0,0,.427.708,4.032,4.032,0,0,0,1.363.446,11.776,11.776,0,0,1,1.644.417,2.987,2.987,0,0,1,2.367,2.92A2.749,2.749,0,0,1,69.414-.708a5.593,5.593,0,0,1-3.3.9,5.708,5.708,0,0,1-2.405-.485A4.022,4.022,0,0,1,62.057-1.61a2.987,2.987,0,0,1-.592-1.756h3.055A1.263,1.263,0,0,0,65.006-2.3a2,2,0,0,0,1.193.335,1.569,1.569,0,0,0,1-.272A.869.869,0,0,0,67.537-2.949Z" transform="translate(362.431 3868.359)" fill="#fff"/>
    <g id="Grupo_1195145" data-name="Grupo 1195145" transform="translate(333.711 3843.363)">
      <g id="Grupo_1195144" data-name="Grupo 1195144" clip-path="url(#clip-path)">
        <path id="Trazado_1015589" data-name="Trazado 1015589" d="M15.359,23.136h0a1.051,1.051,0,0,1,0-1.487l2.665-2.666a1.419,1.419,0,0,0,0-2.007L15.359,14.31a1.051,1.051,0,0,1,1.487-1.487l4.515,4.515a.908.908,0,0,1,0,1.283l-4.515,4.515a1.053,1.053,0,0,1-1.487,0" fill="#2ed19b"/>
        <path id="Trazado_1015590" data-name="Trazado 1015590" d="M11.676,21.044h0a1.053,1.053,0,0,1,0-1.487l.858-.858a1.019,1.019,0,0,0,0-1.441l-.858-.858a1.051,1.051,0,1,1,1.487-1.486l2.424,2.424a.907.907,0,0,1,0,1.282l-2.424,2.424a1.053,1.053,0,0,1-1.487,0" fill="#2ed19b"/>
        <path id="Trazado_1015591" data-name="Trazado 1015591" d="M426.891,35.193H339.315a16.779,16.779,0,0,1-16.779-16.779v-.87A16.779,16.779,0,0,1,339.315.765H408.9a17.992,17.992,0,0,1,17.992,17.992Z" fill="#334155"/>
        <path id="Trazado_1015592" data-name="Trazado 1015592" d="M426.891,35.193H339.315a16.779,16.779,0,0,1-16.779-16.779v-.87A16.779,16.779,0,0,1,339.315.765H408.9a17.992,17.992,0,0,1,17.992,17.992Z" fill="none" stroke="#80aee0" stroke-miterlimit="10" stroke-width="1.033"/>
        <path id="Trazado_1015593" data-name="Trazado 1015593" d="M716.472,35.193H505.124a17.214,17.214,0,0,1,0-34.428h192.89a18.458,18.458,0,0,1,18.458,18.458Z" fill="#334155"/>
        <path id="Trazado_1015594" data-name="Trazado 1015594" d="M716.472,35.193H505.124a17.214,17.214,0,0,1,0-34.428h192.89a18.458,18.458,0,0,1,18.458,18.458Z" fill="none" stroke="#80aee0" stroke-miterlimit="10" stroke-width="1.529"/>
        <path id="Trazado_1015595" data-name="Trazado 1015595" d="M337.365,23.136h0a1.051,1.051,0,0,1,0-1.487l2.665-2.666a1.419,1.419,0,0,0,0-2.007l-2.666-2.666a1.051,1.051,0,1,1,1.487-1.487l4.515,4.515a.908.908,0,0,1,0,1.283l-4.515,4.515a1.053,1.053,0,0,1-1.487,0" fill="#2ed19b"/>
        <path id="Trazado_1015596" data-name="Trazado 1015596" d="M333.682,21.044h0a1.053,1.053,0,0,1,0-1.487l.858-.858a1.019,1.019,0,0,0,0-1.441l-.858-.858a1.051,1.051,0,0,1,1.487-1.486l2.424,2.424a.907.907,0,0,1,0,1.282l-2.424,2.424a1.053,1.053,0,0,1-1.487,0" fill="#2ed19b"/>
        <path id="Trazado_1015597" data-name="Trazado 1015597" d="M503.091,23.136h0a1.051,1.051,0,0,1,0-1.487l2.665-2.666a1.419,1.419,0,0,0,0-2.007l-2.666-2.666a1.051,1.051,0,1,1,1.487-1.487l4.515,4.515a.908.908,0,0,1,0,1.283l-4.515,4.515a1.053,1.053,0,0,1-1.487,0" fill="#2ed19b"/>
        <path id="Trazado_1015598" data-name="Trazado 1015598" d="M499.408,21.044h0a1.053,1.053,0,0,1,0-1.487l.858-.858a1.019,1.019,0,0,0,0-1.441l-.858-.858a1.051,1.051,0,0,1,1.487-1.486l2.424,2.424a.907.907,0,0,1,0,1.282l-2.424,2.424a1.053,1.053,0,0,1-1.487,0" fill="#2ed19b"/>
      </g>
    </g>
    <path id="Trazado_1016896" data-name="Trazado 1016896" d="M12.493-4.782a5.158,5.158,0,0,1-.8,2.6A4.8,4.8,0,0,1,9.656-.427a6.949,6.949,0,0,1-3,.621A5.546,5.546,0,0,1,2.27-1.62a7.489,7.489,0,0,1-1.6-5.121v-.7a8.548,8.548,0,0,1,.723-3.632,5.475,5.475,0,0,1,2.081-2.405,5.8,5.8,0,0,1,3.143-.849,6.087,6.087,0,0,1,4.132,1.353,5.346,5.346,0,0,1,1.775,3.729H9.127a2.529,2.529,0,0,0-.65-1.853,2.673,2.673,0,0,0-1.862-.563,2.034,2.034,0,0,0-1.862.951,6.109,6.109,0,0,0-.621,3.036v1A6.76,6.76,0,0,0,4.7-3.443a2.076,2.076,0,0,0,1.954.97,2.614,2.614,0,0,0,1.794-.553,2.347,2.347,0,0,0,.66-1.756ZM20.2-1.135A3.37,3.37,0,0,1,17.4.194a3.305,3.305,0,0,1-2.614-1A4.222,4.222,0,0,1,13.9-3.7v-6.8h3.269v6.819a1.175,1.175,0,0,0,1.309,1.348,1.708,1.708,0,0,0,1.6-.805v-7.362h3.288V0H20.3ZM30.233.194a5.4,5.4,0,0,1-3.909-1.44A4.974,4.974,0,0,1,24.831-5v-.272a6.445,6.445,0,0,1,.6-2.842,4.365,4.365,0,0,1,1.741-1.906,5.256,5.256,0,0,1,2.716-.674,4.543,4.543,0,0,1,3.492,1.372,5.393,5.393,0,0,1,1.28,3.826v1.271h-6.5a2.356,2.356,0,0,0,.766,1.387,2.28,2.28,0,0,0,1.533.5,2.938,2.938,0,0,0,2.425-1.086l1.494,1.765A4.175,4.175,0,0,1,32.644-.306,5.851,5.851,0,0,1,30.233.194Zm-.369-8.361q-1.436,0-1.707,1.9h3.3v-.252a1.619,1.619,0,0,0-.4-1.217A1.582,1.582,0,0,0,29.865-8.167ZM39.419,0H36.14V-14.9h3.278Zm5.461,0H41.6V-14.9h3.278Zm1.6-5.344a6.194,6.194,0,0,1,.611-2.8,4.37,4.37,0,0,1,1.756-1.887,5.287,5.287,0,0,1,2.687-.66,4.826,4.826,0,0,1,3.715,1.46,5.6,5.6,0,0,1,1.358,3.972v.116a5.435,5.435,0,0,1-1.363,3.894A4.838,4.838,0,0,1,51.553.194a4.894,4.894,0,0,1-3.6-1.343A5.254,5.254,0,0,1,46.49-4.792Zm3.269.2A3.9,3.9,0,0,0,50.2-3.007a1.519,1.519,0,0,0,1.348.679q1.746,0,1.785-2.687v-.33q0-2.823-1.8-2.823-1.639,0-1.775,2.435Z" transform="translate(684.446 3868.359)" fill="#fff"/>
    <path id="Trazado_1016897" data-name="Trazado 1016897" d="M1.067,0V-14.122H5.616a6.692,6.692,0,0,1,3.366.849,5.966,5.966,0,0,1,2.333,2.4,7.233,7.233,0,0,1,.849,3.468v.65a7.275,7.275,0,0,1-.82,3.477A5.991,5.991,0,0,1,9.035-.878,6.544,6.544,0,0,1,5.713,0Zm3.4-11.494v8.875H5.655a2.648,2.648,0,0,0,2.25-1.043,5.11,5.11,0,0,0,.786-3.1v-.611a5.068,5.068,0,0,0-.786-3.084,2.7,2.7,0,0,0-2.289-1.038ZM18.836.194a5.4,5.4,0,0,1-3.909-1.44A4.974,4.974,0,0,1,13.434-5v-.272a6.445,6.445,0,0,1,.6-2.842,4.365,4.365,0,0,1,1.741-1.906,5.256,5.256,0,0,1,2.716-.674,4.543,4.543,0,0,1,3.492,1.372,5.393,5.393,0,0,1,1.28,3.826v1.271h-6.5a2.356,2.356,0,0,0,.766,1.387,2.28,2.28,0,0,0,1.533.5,2.938,2.938,0,0,0,2.425-1.086l1.494,1.765A4.176,4.176,0,0,1,21.247-.306,5.851,5.851,0,0,1,18.836.194Zm-.369-8.361q-1.436,0-1.707,1.9h3.3v-.252a1.619,1.619,0,0,0-.4-1.217A1.582,1.582,0,0,0,18.468-8.167ZM28.022,0H24.743V-14.9h3.278Zm7.924,0a3.691,3.691,0,0,1-.31-.941A3.039,3.039,0,0,1,33.114.194a3.724,3.724,0,0,1-2.522-.9,2.856,2.856,0,0,1-1.038-2.255,2.935,2.935,0,0,1,1.261-2.58,6.424,6.424,0,0,1,3.666-.873H35.49v-.556q0-1.452-1.251-1.452a1.023,1.023,0,0,0-1.164,1.15H29.806A2.93,2.93,0,0,1,31.1-9.739a5.442,5.442,0,0,1,3.3-.949,4.771,4.771,0,0,1,3.172.98,3.406,3.406,0,0,1,1.193,2.687v4.646a4.758,4.758,0,0,0,.446,2.211V0ZM33.9-2.134A1.823,1.823,0,0,0,34.913-2.4a1.641,1.641,0,0,0,.577-.592V-4.665H34.54q-1.707,0-1.707,1.533a.936.936,0,0,0,.3.723A1.088,1.088,0,0,0,33.9-2.134Zm9.68-8.361.107,1.232a3.559,3.559,0,0,1,3-1.426,2.994,2.994,0,0,1,2.449.98,4.664,4.664,0,0,1,.839,2.949V0H46.693V-6.625a1.771,1.771,0,0,0-.32-1.169,1.481,1.481,0,0,0-1.164-.373,1.559,1.559,0,0,0-1.426.757V0H40.515V-10.495ZM55.588-13.1v2.609h1.727v2.27H55.588v4.8A1.226,1.226,0,0,0,55.8-2.6a1.145,1.145,0,0,0,.844.233,4.8,4.8,0,0,0,.815-.058V-.087a6.032,6.032,0,0,1-1.843.281,3.424,3.424,0,0,1-2.493-.8,3.26,3.26,0,0,1-.805-2.415V-8.225H50.98v-2.27h1.339V-13.1ZM63.677.194a5.4,5.4,0,0,1-3.909-1.44A4.974,4.974,0,0,1,58.274-5v-.272a6.445,6.445,0,0,1,.6-2.842,4.365,4.365,0,0,1,1.741-1.906,5.256,5.256,0,0,1,2.716-.674A4.543,4.543,0,0,1,66.82-9.316,5.393,5.393,0,0,1,68.1-5.49v1.271H61.6a2.356,2.356,0,0,0,.766,1.387,2.28,2.28,0,0,0,1.533.5,2.938,2.938,0,0,0,2.425-1.086l1.494,1.765A4.175,4.175,0,0,1,66.087-.306,5.851,5.851,0,0,1,63.677.194Zm-.369-8.361q-1.436,0-1.707,1.9h3.3v-.252a1.619,1.619,0,0,0-.4-1.217A1.582,1.582,0,0,0,63.308-8.167Zm12.454.63-1.077-.078a1.934,1.934,0,0,0-1.979.97V0H69.438V-10.495H72.5l.107,1.348a2.531,2.531,0,0,1,2.3-1.542,3.188,3.188,0,0,1,.912.116ZM76-5.344a6.194,6.194,0,0,1,.611-2.8,4.37,4.37,0,0,1,1.756-1.887,5.287,5.287,0,0,1,2.687-.66,4.826,4.826,0,0,1,3.715,1.46,5.6,5.6,0,0,1,1.358,3.972v.116a5.435,5.435,0,0,1-1.363,3.894A4.838,4.838,0,0,1,81.074.194a4.894,4.894,0,0,1-3.6-1.343A5.254,5.254,0,0,1,76.01-4.792Zm3.269.2a3.9,3.9,0,0,0,.456,2.134,1.519,1.519,0,0,0,1.348.679q1.746,0,1.785-2.687v-.33q0-2.823-1.8-2.823-1.639,0-1.775,2.435Zm17.44.563,1.746-5.917h3.5L97.679,1.756l-.184.446a3.249,3.249,0,0,1-3.22,2.037,5.123,5.123,0,0,1-1.348-.193V1.717h.427a2.236,2.236,0,0,0,1.052-.2A1.207,1.207,0,0,0,94.944.8l.262-.7-3.647-10.6h3.492ZM117.5-5.17a6.329,6.329,0,0,1-1.1,3.9,3.53,3.53,0,0,1-2.973,1.46,3.026,3.026,0,0,1-2.376-1.057v4.9h-3.269v-14.53h3.055l.1.97a3.026,3.026,0,0,1,2.473-1.164,3.558,3.558,0,0,1,3.017,1.431A6.407,6.407,0,0,1,117.5-5.325Zm-3.269-.2q0-2.793-1.63-2.793a1.538,1.538,0,0,0-1.552.834V-3.2a1.588,1.588,0,0,0,1.571.873q1.562,0,1.61-2.7Zm4.3.029a6.194,6.194,0,0,1,.611-2.8,4.37,4.37,0,0,1,1.756-1.887,5.287,5.287,0,0,1,2.687-.66,4.826,4.826,0,0,1,3.715,1.46,5.6,5.6,0,0,1,1.358,3.972v.116a5.435,5.435,0,0,1-1.363,3.894A4.838,4.838,0,0,1,123.6.194,4.894,4.894,0,0,1,120-1.149a5.254,5.254,0,0,1-1.465-3.642Zm3.269.2a3.9,3.9,0,0,0,.456,2.134,1.519,1.519,0,0,0,1.348.679q1.746,0,1.785-2.687v-.33q0-2.823-1.8-2.823-1.639,0-1.775,2.435Zm13.793,2.192a.755.755,0,0,0-.436-.669,6.639,6.639,0,0,0-1.659-.524,7.563,7.563,0,0,1-2.017-.713,3.38,3.38,0,0,1-1.212-1.072,2.559,2.559,0,0,1-.417-1.445,2.9,2.9,0,0,1,1.193-2.381,4.914,4.914,0,0,1,3.123-.936,5.445,5.445,0,0,1,3.337.941,2.942,2.942,0,0,1,1.261,2.473h-3.278q0-1.261-1.329-1.261a1.317,1.317,0,0,0-.863.286.886.886,0,0,0-.349.713.813.813,0,0,0,.427.708,4.032,4.032,0,0,0,1.363.446,11.777,11.777,0,0,1,1.644.417,2.987,2.987,0,0,1,2.367,2.92,2.749,2.749,0,0,1-1.275,2.338,5.593,5.593,0,0,1-3.3.9,5.708,5.708,0,0,1-2.405-.485A4.022,4.022,0,0,1,130.1-1.61a2.987,2.987,0,0,1-.592-1.756h3.055a1.263,1.263,0,0,0,.485,1.062,2,2,0,0,0,1.193.335,1.569,1.569,0,0,0,1-.272A.869.869,0,0,0,135.585-2.949ZM144.072-13.1v2.609H145.8v2.27h-1.727v4.8a1.226,1.226,0,0,0,.213.824,1.145,1.145,0,0,0,.844.233,4.8,4.8,0,0,0,.815-.058V-.087A6.033,6.033,0,0,1,144.1.194a3.424,3.424,0,0,1-2.493-.8,3.26,3.26,0,0,1-.805-2.415V-8.225h-1.339v-2.27H140.8V-13.1Zm8.089,13.3a5.4,5.4,0,0,1-3.909-1.44A4.974,4.974,0,0,1,146.758-5v-.272a6.445,6.445,0,0,1,.6-2.842,4.365,4.365,0,0,1,1.741-1.906,5.256,5.256,0,0,1,2.716-.674A4.543,4.543,0,0,1,155.3-9.316a5.393,5.393,0,0,1,1.28,3.826v1.271h-6.5a2.356,2.356,0,0,0,.766,1.387,2.28,2.28,0,0,0,1.533.5,2.938,2.938,0,0,0,2.425-1.086L156.3-1.649a4.176,4.176,0,0,1-1.731,1.343A5.851,5.851,0,0,1,152.161.194Zm-.369-8.361q-1.436,0-1.707,1.9h3.3v-.252a1.619,1.619,0,0,0-.4-1.217A1.582,1.582,0,0,0,151.792-8.167Zm12.454.63-1.077-.078a1.934,1.934,0,0,0-1.979.97V0h-3.269V-10.495h3.065l.107,1.348a2.531,2.531,0,0,1,2.3-1.542,3.188,3.188,0,0,1,.912.116ZM168.873,0h-3.278V-10.495h3.278ZM165.4-13.2a1.459,1.459,0,0,1,.5-1.145,1.9,1.9,0,0,1,1.309-.446,1.9,1.9,0,0,1,1.309.446,1.459,1.459,0,0,1,.5,1.145,1.459,1.459,0,0,1-.5,1.145,1.9,1.9,0,0,1-1.309.446,1.9,1.9,0,0,1-1.309-.446A1.459,1.459,0,0,1,165.4-13.2Zm5.073,7.857a6.194,6.194,0,0,1,.611-2.8,4.37,4.37,0,0,1,1.756-1.887,5.287,5.287,0,0,1,2.687-.66,4.826,4.826,0,0,1,3.715,1.46A5.6,5.6,0,0,1,180.6-5.257v.116a5.435,5.435,0,0,1-1.363,3.894,4.838,4.838,0,0,1-3.691,1.44,4.894,4.894,0,0,1-3.6-1.343,5.254,5.254,0,0,1-1.465-3.642Zm3.269.2a3.905,3.905,0,0,0,.456,2.134,1.519,1.519,0,0,0,1.348.679q1.746,0,1.785-2.687v-.33q0-2.823-1.8-2.823-1.639,0-1.775,2.435Zm14.646-2.4-1.077-.078a1.934,1.934,0,0,0-1.979.97V0h-3.269V-10.495h3.065l.107,1.348a2.531,2.531,0,0,1,2.3-1.542,3.188,3.188,0,0,1,.912.116Z" transform="translate(849.897 3868.359)" fill="#fff"/>
    <g id="Grupo_1195147" data-name="Grupo 1195147" transform="translate(333.711 3843.363)">
      <g id="Grupo_1195146" data-name="Grupo 1195146" clip-path="url(#clip-path)">
        <path id="Trazado_1015599" data-name="Trazado 1015599" d="M180.263,76.008a.893.893,0,0,0,.062-.076,1.174,1.174,0,0,0,.081-.137c.013-.025.03-.05.041-.076a1.171,1.171,0,0,0,.058-.176c.006-.02.015-.039.019-.059a1.195,1.195,0,0,0,0-.505c0-.02-.013-.039-.019-.059a1.235,1.235,0,0,0-.058-.178c-.011-.025-.028-.049-.041-.074a1.277,1.277,0,0,0-.081-.138c-.018-.026-.041-.05-.062-.075a1.163,1.163,0,0,0-.1-.109.345.345,0,0,0-.026-.028l-9.4-8.22a1.214,1.214,0,0,0-1.6,1.827l6.97,6.093H163.621a1.214,1.214,0,0,0,0,2.427h12.485l-6.97,6.092a1.214,1.214,0,0,0,1.6,1.828l9.4-8.221a.332.332,0,0,0,.026-.027,1.482,1.482,0,0,0,.1-.109" fill="#f59e0b"/>
        <path id="Trazado_1015600" data-name="Trazado 1015600" d="M500.762,76.176a.9.9,0,0,0,.062-.076,1.172,1.172,0,0,0,.081-.137c.013-.025.029-.05.041-.076a1.169,1.169,0,0,0,.058-.176c.006-.02.015-.039.019-.059a1.2,1.2,0,0,0,0-.5c0-.02-.013-.039-.019-.059a1.233,1.233,0,0,0-.058-.178c-.012-.025-.028-.049-.041-.074a1.275,1.275,0,0,0-.081-.138c-.018-.026-.041-.05-.062-.075a1.163,1.163,0,0,0-.1-.109.349.349,0,0,0-.026-.028l-9.4-8.22a1.214,1.214,0,0,0-1.6,1.827l6.97,6.093H484.12a1.214,1.214,0,0,0,0,2.427h12.485l-6.97,6.092a1.214,1.214,0,0,0,1.6,1.828l9.4-8.221a.335.335,0,0,0,.026-.027,1.483,1.483,0,0,0,.1-.109" fill="#f59e0b"/>
        <path id="Trazado_1015601" data-name="Trazado 1015601" d="M796.484,76.176a.9.9,0,0,0,.062-.076,1.176,1.176,0,0,0,.081-.137c.013-.025.029-.05.041-.076a1.173,1.173,0,0,0,.058-.176c.006-.02.015-.039.019-.059a1.2,1.2,0,0,0,0-.5c0-.02-.013-.039-.019-.059a1.237,1.237,0,0,0-.058-.178c-.012-.025-.028-.049-.041-.074a1.28,1.28,0,0,0-.081-.138c-.018-.026-.041-.05-.062-.075a1.159,1.159,0,0,0-.1-.109.338.338,0,0,0-.026-.028l-9.4-8.22a1.214,1.214,0,0,0-1.6,1.827l6.97,6.093H779.843a1.214,1.214,0,1,0,0,2.427h12.484l-6.97,6.092a1.214,1.214,0,0,0,1.6,1.828l9.4-8.221a.325.325,0,0,0,.026-.027,1.477,1.477,0,0,0,.1-.109" fill="#f59e0b"/>
        <path id="Trazado_1015602" data-name="Trazado 1015602" d="M796.484,189.5a.894.894,0,0,0,.062-.076,1.177,1.177,0,0,0,.081-.137c.013-.025.029-.05.041-.076a1.173,1.173,0,0,0,.058-.176c.006-.02.015-.039.019-.059a1.2,1.2,0,0,0,0-.5c0-.02-.013-.039-.019-.059a1.237,1.237,0,0,0-.058-.178c-.012-.025-.028-.049-.041-.074a1.279,1.279,0,0,0-.081-.138c-.018-.026-.041-.05-.062-.075a1.159,1.159,0,0,0-.1-.109.339.339,0,0,0-.026-.028l-9.4-8.22a1.214,1.214,0,0,0-1.6,1.827l6.97,6.093H779.843a1.214,1.214,0,1,0,0,2.427h12.484l-6.97,6.092a1.214,1.214,0,0,0,1.6,1.828l9.4-8.221a.324.324,0,0,0,.026-.027,1.474,1.474,0,0,0,.1-.109" fill="#f59e0b"/>
        <path id="Trazado_1015603" data-name="Trazado 1015603" d="M796.484,285.976a.9.9,0,0,0,.062-.076,1.177,1.177,0,0,0,.081-.137c.013-.025.029-.05.041-.076a1.172,1.172,0,0,0,.058-.176c.006-.02.015-.039.019-.059a1.2,1.2,0,0,0,0-.505c0-.02-.013-.039-.019-.059a1.237,1.237,0,0,0-.058-.178c-.012-.025-.028-.049-.041-.074a1.28,1.28,0,0,0-.081-.138c-.018-.026-.041-.05-.062-.075a1.159,1.159,0,0,0-.1-.109.337.337,0,0,0-.026-.028l-9.4-8.22a1.214,1.214,0,0,0-1.6,1.827l6.97,6.093H779.843a1.214,1.214,0,1,0,0,2.427h12.484l-6.97,6.092a1.214,1.214,0,0,0,1.6,1.828l9.4-8.221a.324.324,0,0,0,.026-.027,1.477,1.477,0,0,0,.1-.109" fill="#f59e0b"/>
        <path id="Trazado_1015604" data-name="Trazado 1015604" d="M796.484,358.241a.9.9,0,0,0,.062-.076,1.177,1.177,0,0,0,.081-.137c.013-.025.029-.05.041-.076a1.173,1.173,0,0,0,.058-.176c.006-.02.015-.039.019-.059a1.2,1.2,0,0,0,0-.505c0-.02-.013-.039-.019-.059a1.236,1.236,0,0,0-.058-.178c-.012-.025-.028-.049-.041-.074a1.28,1.28,0,0,0-.081-.138c-.018-.026-.041-.05-.062-.075a1.159,1.159,0,0,0-.1-.109.337.337,0,0,0-.026-.028l-9.4-8.22a1.214,1.214,0,0,0-1.6,1.827l6.97,6.093H779.843a1.214,1.214,0,1,0,0,2.427h12.484l-6.97,6.092a1.214,1.214,0,0,0,1.6,1.828l9.4-8.221a.329.329,0,0,0,.026-.027,1.477,1.477,0,0,0,.1-.109" fill="#f59e0b"/>
        <path id="Trazado_1015605" data-name="Trazado 1015605" d="M796.484,432.656a.894.894,0,0,0,.062-.076,1.177,1.177,0,0,0,.081-.137c.013-.025.029-.05.041-.076a1.173,1.173,0,0,0,.058-.176c.006-.02.015-.039.019-.059a1.2,1.2,0,0,0,0-.5c0-.02-.013-.039-.019-.059a1.236,1.236,0,0,0-.058-.178c-.012-.025-.028-.049-.041-.074a1.277,1.277,0,0,0-.081-.138c-.018-.026-.041-.05-.062-.075a1.163,1.163,0,0,0-.1-.109.337.337,0,0,0-.026-.028l-9.4-8.22a1.214,1.214,0,0,0-1.6,1.827l6.97,6.093H779.843a1.214,1.214,0,1,0,0,2.427h12.484l-6.97,6.092a1.214,1.214,0,0,0,1.6,1.828l9.4-8.221a.329.329,0,0,0,.026-.027,1.477,1.477,0,0,0,.1-.109" fill="#f59e0b"/>
        <path id="Trazado_1015606" data-name="Trazado 1015606" d="M796.484,505.089a.894.894,0,0,0,.062-.076,1.177,1.177,0,0,0,.081-.137c.013-.025.029-.05.041-.076a1.173,1.173,0,0,0,.058-.176c.006-.02.015-.039.019-.059a1.2,1.2,0,0,0,0-.505c0-.02-.013-.039-.019-.059a1.237,1.237,0,0,0-.058-.178c-.012-.025-.028-.049-.041-.074a1.28,1.28,0,0,0-.081-.138c-.018-.026-.041-.05-.062-.075a1.156,1.156,0,0,0-.1-.109.342.342,0,0,0-.026-.028l-9.4-8.22a1.214,1.214,0,0,0-1.6,1.827l6.97,6.093H779.843a1.214,1.214,0,1,0,0,2.427h12.484l-6.97,6.092a1.214,1.214,0,0,0,1.6,1.828l9.4-8.221a.324.324,0,0,0,.026-.027,1.471,1.471,0,0,0,.1-.109" fill="#f59e0b"/>
        <path id="Trazado_1015607" data-name="Trazado 1015607" d="M796.484,569.349a.9.9,0,0,0,.062-.076,1.18,1.18,0,0,0,.081-.137c.013-.025.029-.05.041-.076a1.172,1.172,0,0,0,.058-.176c.006-.02.015-.039.019-.059a1.2,1.2,0,0,0,0-.505c0-.02-.013-.039-.019-.059a1.237,1.237,0,0,0-.058-.178c-.012-.025-.028-.049-.041-.074a1.28,1.28,0,0,0-.081-.138c-.018-.026-.041-.05-.062-.075a1.152,1.152,0,0,0-.1-.109.332.332,0,0,0-.026-.028l-9.4-8.22a1.214,1.214,0,0,0-1.6,1.827l6.97,6.093H779.843a1.214,1.214,0,1,0,0,2.427h12.484l-6.97,6.092a1.214,1.214,0,0,0,1.6,1.828l9.4-8.221a.329.329,0,0,0,.026-.027,1.477,1.477,0,0,0,.1-.109" fill="#f59e0b"/>
        <path id="Trazado_1015608" data-name="Trazado 1015608" d="M796.484,633.61a.894.894,0,0,0,.062-.076,1.174,1.174,0,0,0,.081-.137c.013-.025.029-.05.041-.076a1.171,1.171,0,0,0,.058-.176c.006-.02.015-.039.019-.059a1.2,1.2,0,0,0,0-.505c0-.02-.013-.039-.019-.059a1.237,1.237,0,0,0-.058-.178c-.012-.025-.028-.049-.041-.074a1.28,1.28,0,0,0-.081-.138c-.018-.026-.041-.05-.062-.075a1.159,1.159,0,0,0-.1-.109.342.342,0,0,0-.026-.028l-9.4-8.22a1.214,1.214,0,0,0-1.6,1.827l6.97,6.093H779.843a1.214,1.214,0,1,0,0,2.427h12.484l-6.97,6.092a1.214,1.214,0,0,0,1.6,1.828l9.4-8.221a.319.319,0,0,0,.026-.027,1.465,1.465,0,0,0,.1-.109" fill="#f59e0b"/>
        <path id="Trazado_1015609" data-name="Trazado 1015609" d="M796.484,693.1a.9.9,0,0,0,.062-.076,1.18,1.18,0,0,0,.081-.137c.013-.025.029-.05.041-.076a1.175,1.175,0,0,0,.058-.176c.006-.02.015-.039.019-.059a1.2,1.2,0,0,0,0-.505c0-.02-.013-.039-.019-.059a1.237,1.237,0,0,0-.058-.178c-.012-.025-.028-.049-.041-.074a1.28,1.28,0,0,0-.081-.138c-.018-.026-.041-.05-.062-.075a1.152,1.152,0,0,0-.1-.109.332.332,0,0,0-.026-.028l-9.4-8.22a1.214,1.214,0,0,0-1.6,1.827l6.97,6.093H779.843a1.214,1.214,0,1,0,0,2.427h12.484l-6.97,6.092a1.214,1.214,0,0,0,1.6,1.828l9.4-8.221a.329.329,0,0,0,.026-.027,1.477,1.477,0,0,0,.1-.109" fill="#f59e0b"/>
        <path id="Trazado_1015610" data-name="Trazado 1015610" d="M796.484,756.2a.9.9,0,0,0,.062-.076,1.174,1.174,0,0,0,.081-.137c.013-.025.029-.05.041-.076a1.175,1.175,0,0,0,.058-.176c.006-.02.015-.039.019-.059a1.195,1.195,0,0,0,0-.5c0-.02-.013-.039-.019-.059a1.234,1.234,0,0,0-.058-.178c-.012-.025-.028-.049-.041-.074a1.28,1.28,0,0,0-.081-.138c-.018-.026-.041-.05-.062-.075a1.167,1.167,0,0,0-.1-.109.341.341,0,0,0-.026-.028l-9.4-8.22a1.214,1.214,0,0,0-1.6,1.827l6.97,6.093H779.843a1.214,1.214,0,1,0,0,2.427h12.484l-6.97,6.092a1.214,1.214,0,0,0,1.6,1.828l9.4-8.221a.329.329,0,0,0,.026-.027c.036-.035.069-.071.1-.109" fill="#f59e0b"/>
        <path id="Trazado_1015611" data-name="Trazado 1015611" d="M500.762,133.57a.9.9,0,0,0,.062-.076,1.171,1.171,0,0,0,.081-.137c.013-.025.029-.05.041-.076A1.17,1.17,0,0,0,501,133.1c.006-.02.015-.039.019-.059a1.2,1.2,0,0,0,0-.505c0-.02-.013-.039-.019-.059a1.233,1.233,0,0,0-.058-.178c-.012-.025-.028-.049-.041-.074a1.275,1.275,0,0,0-.081-.138c-.018-.026-.041-.05-.062-.075a1.163,1.163,0,0,0-.1-.109.348.348,0,0,0-.026-.028l-9.4-8.22a1.214,1.214,0,0,0-1.6,1.827l6.97,6.093H484.12a1.214,1.214,0,0,0,0,2.427h12.485l-6.97,6.092a1.214,1.214,0,0,0,1.6,1.828l9.4-8.221a.334.334,0,0,0,.026-.027,1.483,1.483,0,0,0,.1-.109" fill="#f59e0b"/>
        <path id="Trazado_1015612" data-name="Trazado 1015612" d="M500.762,189.5a.894.894,0,0,0,.062-.076,1.172,1.172,0,0,0,.081-.137c.013-.025.029-.05.041-.076a1.17,1.17,0,0,0,.058-.176c.006-.02.015-.039.019-.059a1.2,1.2,0,0,0,0-.5c0-.02-.013-.039-.019-.059a1.233,1.233,0,0,0-.058-.178c-.012-.025-.028-.049-.041-.074a1.274,1.274,0,0,0-.081-.138c-.018-.026-.041-.05-.062-.075a1.163,1.163,0,0,0-.1-.109.35.35,0,0,0-.026-.028l-9.4-8.22a1.214,1.214,0,0,0-1.6,1.827l6.97,6.093H484.12a1.214,1.214,0,0,0,0,2.427h12.485l-6.97,6.092a1.214,1.214,0,0,0,1.6,1.828l9.4-8.221a.334.334,0,0,0,.026-.027,1.48,1.48,0,0,0,.1-.109" fill="#f59e0b"/>
        <path id="Trazado_1015613" data-name="Trazado 1015613" d="M180.263,133.566a.893.893,0,0,0,.062-.076,1.175,1.175,0,0,0,.081-.137c.013-.025.03-.05.041-.076a1.171,1.171,0,0,0,.058-.176c.006-.02.015-.039.019-.059a1.195,1.195,0,0,0,0-.505c0-.02-.013-.039-.019-.059a1.235,1.235,0,0,0-.058-.178c-.011-.025-.028-.049-.041-.074a1.278,1.278,0,0,0-.081-.138c-.018-.026-.041-.05-.062-.075a1.163,1.163,0,0,0-.1-.109.345.345,0,0,0-.026-.028l-9.4-8.22a1.214,1.214,0,0,0-1.6,1.827l6.97,6.093H163.621a1.214,1.214,0,0,0,0,2.427h12.485l-6.97,6.092a1.214,1.214,0,0,0,1.6,1.828l9.4-8.221a.332.332,0,0,0,.026-.027,1.48,1.48,0,0,0,.1-.109" fill="#f59e0b"/>
      </g>
    </g>
  </g>
</svg>
