<svg xmlns="http://www.w3.org/2000/svg" xmlns:xlink="http://www.w3.org/1999/xlink" width="107" height="107" viewBox="0 0 107 107">
  <defs>
    <clipPath id="clip-path">
      <rect id="Rectángulo_462227" data-name="Rectángulo 462227" width="84" height="71.392" fill="none"/>
    </clipPath>
  </defs>
  <g id="Grupo_1195826" data-name="Grupo 1195826" transform="translate(-203.5 -4672.622)">
    <g id="Grupo_1195789" data-name="Grupo 1195789" transform="translate(-806.5 420.199)">
      <path id="Elipse_5845" data-name="Elipse 5845" d="M53.5,0A53.5,53.5,0,1,1,0,53.5,53.5,53.5,0,0,1,53.5,0Z" transform="translate(1010 4252.423)" fill="#c0f1e1"/>
      <g id="Grupo_1195405" data-name="Grupo 1195405" transform="translate(1022 4271.229)">
        <path id="Trazado_1015720" data-name="Trazado 1015720" d="M140.532,45.83,109.763,76.6,72.491,39.344l2.168-28.617,28.618-2.151Z" transform="translate(-58.216 -6.887)" fill="#fbd89d"/>
        <g id="Grupo_1195404" data-name="Grupo 1195404">
          <g id="Grupo_1195403" data-name="Grupo 1195403" clip-path="url(#clip-path)">
            <path id="Trazado_1015721" data-name="Trazado 1015721" d="M102.962,71.393a1.735,1.735,0,0,1-1.193-.487L64.514,33.634a1.671,1.671,0,0,1-.488-1.311L66.177,3.706A1.69,1.69,0,0,1,67.723,2.16L96.341.009A1.594,1.594,0,0,1,97.651.5l37.272,37.272a1.673,1.673,0,0,1,0,2.369L104.154,70.906A1.663,1.663,0,0,1,102.962,71.393ZM67.438,31.8l35.541,35.541,28.4-28.4L95.82,3.42,69.42,5.4Z" transform="translate(-51.415 0)"/>
            <path id="Trazado_1015722" data-name="Trazado 1015722" d="M125.232,55A6.234,6.234,0,1,1,119,61.231,6.234,6.234,0,0,1,125.232,55" transform="translate(-95.564 -44.167)" fill="#e7eef9"/>
            <path id="Trazado_1015723" data-name="Trazado 1015723" d="M118.38,62.318a7.915,7.915,0,1,1,5.6-2.319,7.875,7.875,0,0,1-5.6,2.319m0-12.469a4.545,4.545,0,1,0,3.21,1.327,4.555,4.555,0,0,0-3.21-1.327" transform="translate(-88.712 -37.339)"/>
            <path id="Trazado_1015724" data-name="Trazado 1015724" d="M4.311,106.733a4.328,4.328,0,0,1-3.142-1.159c-3.68-3.68,1.865-13.057,9.242-20.434,1.126-1.126,2.3-2.218,3.478-3.21a1.681,1.681,0,1,1,2.184,2.554c-1.109.941-2.2,1.966-3.277,3.041-8.217,8.234-10.217,14.72-9.242,15.7.958.958,7.461-1.025,15.7-9.242,8.217-8.234,10.217-14.72,9.242-15.7-.319-.319-1.748-.387-4.335.79a1.684,1.684,0,1,1-1.412-3.058c4.655-2.134,6.974-1.227,8.1-.1,3.68,3.68-1.865,13.057-9.242,20.434-5.764,5.747-12.754,10.385-17.291,10.385" transform="translate(0 -60.009)"/>
            <path id="Trazado_1015725" data-name="Trazado 1015725" d="M200.5,206.169a1.693,1.693,0,0,1-1.126-.437L181.592,187.97a1.675,1.675,0,0,1,2.369-2.369l17.712,17.712a1.672,1.672,0,0,1-1.176,2.857Z" transform="translate(-145.437 -148.657)"/>
            <path id="Trazado_1015726" data-name="Trazado 1015726" d="M236.463,174.194a1.692,1.692,0,0,1-1.193-.487l-17.712-17.695,2.369-2.369,16.955,16.939c.185.185.387.387.555.588.067.05.118.1.185.151l-.017.034a1.575,1.575,0,0,1,.05,2.369A1.7,1.7,0,0,1,236.463,174.194Z" transform="translate(-174.716 -123.386)"/>
            <path id="Trazado_1015727" data-name="Trazado 1015727" d="M268.4,138.243a1.693,1.693,0,0,1-1.126-.437l-17.762-17.762a1.675,1.675,0,0,1,2.369-2.369L269.6,135.386a1.673,1.673,0,0,1,0,2.369A1.692,1.692,0,0,1,268.4,138.243Z" transform="translate(-199.986 -94.107)"/>
          </g>
        </g>
      </g>
    </g>
  </g>
</svg>
